<svg width="128" height="128" viewBox="0 0 128 128" fill="none" xmlns="http://www.w3.org/2000/svg">
<rect width="128" height="128" rx="64" fill="#040B10"/>
<path d="M119 64.146C119 87.1038 105.008 106.785 85.1083 115.085C82.4553 116.191 79.6836 114.125 79.6836 111.244V105.537C79.6836 103.787 80.749 102.23 82.3142 101.456C96.0294 94.6752 105.465 80.5154 105.465 64.146C105.465 41.1848 86.9004 22.5711 64 22.5711C41.0996 22.5711 22.5352 41.1848 22.5352 64.146C22.5352 78.0633 29.3555 90.3834 39.8277 97.9295C42.4109 99.7909 45.7383 97.7546 45.7383 94.565L45.7383 43.0651C45.7383 41.9935 45.9617 41.2322 46.4085 40.781C46.9112 40.2734 47.6932 40.0196 48.7544 40.0196L83.9722 40.0196C85.0334 40.0196 85.7874 40.2734 86.2342 40.781C86.7369 41.2322 86.9883 41.9935 86.9883 43.0651V53.1322C86.9883 54.2038 86.7369 54.9933 86.2342 55.5009C85.7874 55.9521 85.0334 56.1777 83.9722 56.1777H63.2526C62.8966 56.1777 62.6081 56.467 62.6081 56.8239V64.3296C62.6081 64.6865 62.8966 64.9758 63.2526 64.9758L77.1859 64.9758C78.2472 64.9758 79.0012 65.2296 79.448 65.7372C79.9507 66.1884 80.202 66.9498 80.202 68.0213V78.173C80.202 79.2446 79.9507 80.0342 79.448 80.5418C79.0012 80.9929 78.2472 81.2186 77.1859 81.2186H63.2526C62.8966 81.2186 62.6081 81.5079 62.6081 81.8648V107.63C62.6081 107.854 62.597 108.066 62.575 108.266C62.5397 108.586 62.4961 108.905 62.4961 109.227V114.846C62.4961 117.271 60.4943 119.235 58.0897 118.977C30.4934 116.021 9 92.6002 9 64.146C9 33.6897 33.6243 9 64 9C94.3757 9 119 33.6897 119 64.146Z" fill="#00FC54"/>
</svg>
