<svg width="128" height="129" viewBox="0 0 128 129" fill="none" xmlns="http://www.w3.org/2000/svg">
<g clip-path="url(#clip0_536_4420)">
<rect width="139.82" height="139.82" transform="translate(-5.91016 -5.41016)" fill="url(#paint0_linear_536_4420)"/>
<g filter="url(#filter0_d_536_4420)">
<path d="M115.764 64.6365C115.764 86.1866 102.596 104.661 83.8663 112.452C81.3694 113.49 78.7607 111.551 78.7607 108.846V103.489C78.7607 101.847 79.7635 100.385 81.2366 99.6589C94.145 93.2937 103.025 80.0022 103.025 64.6365C103.025 43.0833 85.553 25.611 63.9998 25.611C42.4466 25.611 24.9743 43.0833 24.9743 64.6365C24.9743 77.7004 31.3933 89.2651 41.2495 96.3484C43.6808 98.0957 46.8124 96.1843 46.8124 93.1903L46.8124 44.8483C46.8124 43.8425 47.0226 43.1278 47.4432 42.7043C47.9163 42.2278 48.6523 41.9896 49.651 41.9896L82.797 41.9896C83.7958 41.9896 84.5055 42.2278 84.926 42.7043C85.3991 43.1278 85.6357 43.8425 85.6357 44.8483V54.2981C85.6357 55.304 85.3991 56.0451 84.926 56.5216C84.5055 56.9451 83.7958 57.1569 82.797 57.1569H63.2964C62.9613 57.1569 62.6897 57.4285 62.6897 57.7635V64.8089C62.6897 65.1439 62.9613 65.4155 63.2964 65.4155L76.41 65.4155C77.4088 65.4155 78.1185 65.6537 78.539 66.1302C79.0121 66.5537 79.2487 67.2684 79.2487 68.2743V77.8034C79.2487 78.8093 79.0121 79.5505 78.539 80.0269C78.1185 80.4504 77.4088 80.6622 76.41 80.6622H63.2964C62.9613 80.6622 62.6897 80.9338 62.6897 81.2688V105.454C62.6897 105.665 62.6794 105.864 62.6586 106.051C62.6254 106.351 62.5844 106.651 62.5844 106.953V112.228C62.5844 114.504 60.7003 116.347 58.4372 116.106C32.4643 113.331 12.2354 91.346 12.2354 64.6365C12.2354 36.0478 35.4111 12.8721 63.9998 12.8721C92.5885 12.8721 115.764 36.0478 115.764 64.6365Z" fill="#00FC54"/>
</g>
</g>
<defs>
<filter id="filter0_d_536_4420" x="10.0507" y="12.8721" width="107.899" height="109.263" filterUnits="userSpaceOnUse" color-interpolation-filters="sRGB">
<feFlood flood-opacity="0" result="BackgroundImageFix"/>
<feColorMatrix in="SourceAlpha" type="matrix" values="0 0 0 0 0 0 0 0 0 0 0 0 0 0 0 0 0 0 127 0" result="hardAlpha"/>
<feOffset dy="3.82321"/>
<feGaussianBlur stdDeviation="1.09235"/>
<feComposite in2="hardAlpha" operator="out"/>
<feColorMatrix type="matrix" values="0 0 0 0 0 0 0 0 0 0 0 0 0 0 0 0 0 0 0.35 0"/>
<feBlend mode="normal" in2="BackgroundImageFix" result="effect1_dropShadow_536_4420"/>
<feBlend mode="normal" in="SourceGraphic" in2="effect1_dropShadow_536_4420" result="shape"/>
</filter>
<linearGradient id="paint0_linear_536_4420" x1="69.9102" y1="0" x2="69.9102" y2="139.82" gradientUnits="userSpaceOnUse">
<stop stop-color="#065287"/>
<stop offset="1" stop-color="#011625"/>
</linearGradient>
<clipPath id="clip0_536_4420">
<rect y="0.5" width="128" height="128" rx="64" fill="white"/>
</clipPath>
</defs>
</svg>
