<svg width="15" height="15" viewBox="0 0 15 15" fill="none" xmlns="http://www.w3.org/2000/svg">
<path fill-rule="evenodd" clip-rule="evenodd" d="M3.11376 4.59395C4.21106 4.59395 5.1006 3.70441 5.1006 2.60711C5.1006 1.50981 4.21106 0.62027 3.11376 0.62027C2.01646 0.62027 1.12692 1.50981 1.12692 2.60711C1.12692 3.70441 2.01646 4.59395 3.11376 4.59395ZM5.96819 7.16552C5.96819 6.06095 5.07276 5.16552 3.96819 5.16552H2.2594C1.15483 5.16552 0.259399 6.06095 0.259399 7.16552V10.5857C0.259399 11.138 0.707115 11.5857 1.2594 11.5857H4.9464L5.83726 8.15203C5.87229 8.01704 5.91617 7.88621 5.96819 7.76009V7.16552Z" fill="#FF0000"/>
<path fill-rule="evenodd" clip-rule="evenodd" d="M12.9106 4.64456C12.9106 6.01696 11.7981 7.12952 10.4257 7.12952C9.05326 7.12952 7.94071 6.01696 7.94071 4.64456C7.94071 3.27216 9.05326 2.15961 10.4257 2.15961C11.7981 2.15961 12.9106 3.27216 12.9106 4.64456ZM11.7852 7.78362C12.6983 7.78362 13.4955 8.40211 13.7224 9.28663L14.7087 13.1312C14.871 13.7639 14.3932 14.3797 13.7401 14.3797H7.04589C6.39737 14.3797 5.9204 13.772 6.07455 13.142L7.01269 9.30823C7.23171 8.41318 8.03392 7.78362 8.95537 7.78362H11.7852Z" fill="#FF0000"/>
</svg>
