<svg width="19" height="19" viewBox="0 0 19 19" fill="none" xmlns="http://www.w3.org/2000/svg">
<g clip-path="url(#clip0_1_28)">
<path fill-rule="evenodd" clip-rule="evenodd" d="M8.07221 2.69441V6.69441C8.07221 7.2467 7.62449 7.69441 7.07221 7.69441H3.07221C2.51992 7.69441 2.07221 7.2467 2.07221 6.69441C2.07221 6.14213 2.51993 5.69441 3.07221 5.69441H4.658L1.3026 2.33902C0.912075 1.9485 0.912075 1.31533 1.3026 0.924806C1.69313 0.534281 2.32629 0.534281 2.71682 0.924806L6.07221 4.2802V2.69441C6.07221 2.14213 6.51993 1.69441 7.07221 1.69441C7.62449 1.69441 8.07221 2.14213 8.07221 2.69441ZM12.0798 7.69441H16.0799C16.6321 7.69441 17.0798 7.2467 17.0798 6.69441C17.0798 6.14213 16.6321 5.69441 16.0798 5.69441H14.4941L17.8495 2.33902C18.24 1.94849 18.24 1.31533 17.8495 0.924806C17.4589 0.534282 16.8258 0.534282 16.4352 0.924806L13.0798 4.2802L13.0799 2.69441C13.0798 2.14213 12.6321 1.69441 12.0798 1.69441C11.5276 1.69441 11.0798 2.14213 11.0799 2.69441L11.0798 6.69441C11.0798 7.2467 11.5276 7.69441 12.0798 7.69441ZM7.07221 10.702H3.07221C2.51993 10.702 2.07221 11.1498 2.07221 11.702C2.07221 12.2543 2.51993 12.702 3.07221 12.702H4.658L1.3026 16.0574C0.912074 16.448 0.912074 17.0811 1.3026 17.4716C1.69313 17.8622 2.32629 17.8622 2.71682 17.4716L6.07221 14.1163V15.702C6.07221 16.2543 6.51993 16.702 7.07221 16.702C7.62449 16.702 8.07221 16.2543 8.07221 15.702V11.702C8.07221 11.1498 7.6245 10.702 7.07221 10.702ZM11.0798 11.702V15.702C11.0798 16.2543 11.5276 16.702 12.0798 16.702C12.6321 16.702 13.0798 16.2543 13.0798 15.702V14.1163L16.4352 17.4716C16.8258 17.8622 17.4589 17.8622 17.8495 17.4716C18.24 17.0811 18.24 16.448 17.8495 16.0574L14.4941 12.702H16.0798C16.6321 12.702 17.0798 12.2543 17.0798 11.702C17.0798 11.1498 16.6321 10.702 16.0799 10.702H12.0798C11.5276 10.702 11.0798 11.1498 11.0798 11.702Z" fill="#FF0000"/>
</g>
<defs>
<clipPath id="clip0_1_28">
<rect width="18" height="18" fill="white" transform="translate(0.5 0.5)"/>
</clipPath>
</defs>
</svg>
