<svg width="14" height="14" viewBox="0 0 14 14" fill="none" xmlns="http://www.w3.org/2000/svg">
<g clip-path="url(#clip0_1_46)">
<path fill-rule="evenodd" clip-rule="evenodd" d="M1.6442 6.04743L5.09654 9.49973C5.48982 9.89301 6.12744 9.89301 6.52072 9.49973C6.914 9.10645 6.914 8.46882 6.52072 8.07555L4.58327 6.13813C6.66891 6.15753 8.23807 6.54614 9.16515 7.56093C10.1306 8.61777 10.5043 9.45495 10.5043 12.2254C10.5043 12.7816 10.9552 13.2325 11.5114 13.2325C12.0676 13.2325 12.5184 12.7816 12.5184 12.2254C12.5184 9.07738 12.0326 7.71355 10.6521 6.20246C9.35908 4.78705 7.36945 4.20869 4.98372 4.13216L6.52617 2.58981C6.91945 2.19653 6.91945 1.5589 6.52617 1.16562C6.13289 0.772347 5.49527 0.772347 5.10199 1.16562L1.6442 4.62325C1.25092 5.01653 1.25092 5.65416 1.6442 6.04743Z" fill="#FF0000"/>
</g>
<defs>
<clipPath id="clip0_1_46">
<rect width="13" height="13" fill="white" transform="translate(0.5 0.5)"/>
</clipPath>
</defs>
</svg>
