<svg width="13" height="13" viewBox="0 0 13 13" fill="none" xmlns="http://www.w3.org/2000/svg">
<path fill-rule="evenodd" clip-rule="evenodd" d="M2.78411 1.5H10.1998C10.9061 1.5 11.4839 2.07845 11.5 2.82217V5.28471V7.66461V11.4163C11.5 11.4163 10.8419 11.9121 9.73435 10.4907C9.52568 10.2263 9.1886 9.63134 8.85153 8.98678H2.78411C2.07785 8.98678 1.5 8.3918 1.5 7.66461V2.82217C1.5 2.09498 2.07785 1.5 2.78411 1.5ZM4.82502 6.35897C4.24717 6.35897 3.78168 5.87969 3.78168 5.28471C3.78168 4.68974 4.24717 4.21045 4.82502 4.21045C5.40286 4.21045 5.86835 4.68974 5.86835 5.28471C5.86835 5.87969 5.40286 6.35897 4.82502 6.35897ZM7.18457 5.28471C7.18457 4.68974 7.65006 4.21045 8.22791 4.21045C8.80575 4.21045 9.27124 4.68974 9.27124 5.28471C9.27124 5.87969 8.80575 6.35897 8.22791 6.35897C7.65006 6.35897 7.18457 5.87969 7.18457 5.28471Z" fill="#FF0000"/>
</svg>
