<svg width="189" height="14" viewBox="0 0 189 14" fill="none" xmlns="http://www.w3.org/2000/svg">
<path fill-rule="evenodd" clip-rule="evenodd" d="M61.5833 5.93039L57.9057 9.60792C57.4868 10.0269 56.8075 10.0269 56.3886 9.60792C55.9697 9.18899 55.9697 8.50976 56.3886 8.09082L58.4525 6.02693C56.231 6.04764 54.5596 6.46162 53.5721 7.54256C52.5436 8.66835 52.1455 9.56014 52.1455 12.5114C52.1455 13.1038 51.6653 13.5841 51.0728 13.5841C50.4803 13.5841 50 13.1038 50 12.5114C50 9.15794 50.5175 7.70513 51.9881 6.09546C53.3654 4.58781 55.4847 3.9717 58.0258 3.89011L56.3828 2.24719C55.9639 1.82826 55.9639 1.14903 56.3828 0.730095C56.8017 0.31116 57.4809 0.31116 57.8999 0.730095L61.5833 4.4133C62.0022 4.83223 62.0022 5.51146 61.5833 5.93039Z" fill="#32E76E"/>
<path fill-rule="evenodd" clip-rule="evenodd" d="M127.417 5.93039L131.094 9.60792C131.513 10.0269 132.192 10.0269 132.611 9.60792C133.03 9.18899 133.03 8.50976 132.611 8.09082L130.547 6.02693C132.769 6.04764 134.44 6.46162 135.428 7.54256C136.456 8.66835 136.854 9.56014 136.854 12.5114C136.854 13.1038 137.335 13.5841 137.927 13.5841C138.52 13.5841 139 13.1038 139 12.5114C139 9.15794 138.482 7.70513 137.012 6.09546C135.635 4.58781 133.515 3.9717 130.974 3.89011L132.617 2.24719C133.036 1.82826 133.036 1.14903 132.617 0.730095C132.198 0.31116 131.519 0.31116 131.1 0.730095L127.417 4.4133C126.998 4.83223 126.998 5.51146 127.417 5.93039Z" fill="#32E76E"/>
</svg>
