<svg width="189" height="189" viewBox="0 0 189 189" fill="none" xmlns="http://www.w3.org/2000/svg">
<path fill-rule="evenodd" clip-rule="evenodd" d="M36 -6.10352e-05L94.5 94.4999L-5.11423e-06 36L0 153L94.5 94.4999L36 189L153 189L94.5 94.4999L189 153V36L94.5 94.4999L153 -6.10352e-05H36Z" fill="url(#paint0_radial_93_74)" fill-opacity="0.05"/>
<path d="M36 -3.05176e-05H153L164 24.9999H25L36 -3.05176e-05Z" fill="url(#paint1_linear_93_74)" fill-opacity="0.51"/>
<path d="M153 189L36 189L25 164L164 164L153 189Z" fill="url(#paint2_linear_93_74)" fill-opacity="0.51"/>
<path d="M-4.80825e-07 153L-5.59506e-06 36L25 24.9999L25 164L-4.80825e-07 153Z" fill="url(#paint3_linear_93_74)" fill-opacity="0.51"/>
<path d="M189 36L189 153L164 164L164 24.9999L189 36Z" fill="url(#paint4_linear_93_74)" fill-opacity="0.51"/>
<path fill-rule="evenodd" clip-rule="evenodd" d="M25 24.9999H164V164H25L25 24.9999ZM25 24.9999L13 43.9999L13 145L25 164L44 176L145 176L164 164L176 145V43.9999L164 24.9999L145 12.9999L44 12.9999L25 24.9999Z" fill="black" fill-opacity="0.05"/>
<path d="M25.0002 24.9999L25.0002 94.4999H94.5002V24.9999L25.0002 24.9999Z" fill="url(#paint5_linear_93_74)"/>
<path d="M25 164L94.5 164L94.5 94.4999L25 94.4999L25 164Z" fill="url(#paint6_linear_93_74)"/>
<path d="M164 94.4999L164 24.9999L94.5 24.9999L94.5 94.4999L164 94.4999Z" fill="url(#paint7_linear_93_74)"/>
<path d="M94.5 94.4999L94.5 164L164 164L164 94.4999L94.5 94.4999Z" fill="url(#paint8_linear_93_74)"/>
<path fill-rule="evenodd" clip-rule="evenodd" d="M95 24.9999H94V93.9999H25V94.9999H94V164H95V94.9999H164V93.9999H95V24.9999Z" fill="black" fill-opacity="0.1"/>
<path d="M189 36L153 -3.05176e-05L164 24.9999L189 36Z" fill="url(#paint9_linear_93_74)" fill-opacity="0.33"/>
<path d="M153 189L189 153L164 164L153 189Z" fill="url(#paint10_linear_93_74)" fill-opacity="0.33"/>
<path d="M3.14722e-06 153L36 189L25 164L3.14722e-06 153Z" fill="url(#paint11_linear_93_74)" fill-opacity="0.33"/>
<path d="M36 -1.57361e-06L0 36L25 25L36 -1.57361e-06Z" fill="url(#paint12_linear_93_74)" fill-opacity="0.33"/>
<defs>
<radialGradient id="paint0_radial_93_74" cx="0" cy="0" r="1" gradientUnits="userSpaceOnUse" gradientTransform="translate(94.5 94.5) rotate(90) scale(94.5 94.5)">
<stop stop-opacity="0"/>
<stop offset="1"/>
</radialGradient>
<linearGradient id="paint1_linear_93_74" x1="94.5" y1="-3.05176e-05" x2="94.5" y2="24.9999" gradientUnits="userSpaceOnUse">
<stop stop-opacity="0.61"/>
<stop offset="1" stop-opacity="0.89"/>
</linearGradient>
<linearGradient id="paint2_linear_93_74" x1="94.5" y1="189" x2="94.5" y2="164" gradientUnits="userSpaceOnUse">
<stop stop-opacity="0.61"/>
<stop offset="1" stop-opacity="0.89"/>
</linearGradient>
<linearGradient id="paint3_linear_93_74" x1="-3.03794e-06" y1="94.4999" x2="25" y2="94.4999" gradientUnits="userSpaceOnUse">
<stop stop-opacity="0.61"/>
<stop offset="1" stop-opacity="0.89"/>
</linearGradient>
<linearGradient id="paint4_linear_93_74" x1="189" y1="94.5" x2="164" y2="94.5" gradientUnits="userSpaceOnUse">
<stop stop-opacity="0.61"/>
<stop offset="1" stop-opacity="0.89"/>
</linearGradient>
<linearGradient id="paint5_linear_93_74" x1="25.0002" y1="24.9999" x2="95.0002" y2="92.4999" gradientUnits="userSpaceOnUse">
<stop stop-opacity="0.59"/>
<stop offset="1" stop-opacity="0.13"/>
</linearGradient>
<linearGradient id="paint6_linear_93_74" x1="25" y1="164" x2="92.5" y2="93.9999" gradientUnits="userSpaceOnUse">
<stop stop-opacity="0.59"/>
<stop offset="1" stop-opacity="0.13"/>
</linearGradient>
<linearGradient id="paint7_linear_93_74" x1="164" y1="24.9999" x2="96.5" y2="94.9999" gradientUnits="userSpaceOnUse">
<stop stop-opacity="0.59"/>
<stop offset="1" stop-opacity="0.13"/>
</linearGradient>
<linearGradient id="paint8_linear_93_74" x1="164" y1="164" x2="94" y2="96.4999" gradientUnits="userSpaceOnUse">
<stop stop-opacity="0.59"/>
<stop offset="1" stop-opacity="0.13"/>
</linearGradient>
<linearGradient id="paint9_linear_93_74" x1="171" y1="-3.05176e-05" x2="171" y2="36" gradientUnits="userSpaceOnUse">
<stop stop-opacity="0.12"/>
<stop offset="1" stop-color="#0B0A0A"/>
</linearGradient>
<linearGradient id="paint10_linear_93_74" x1="189" y1="171" x2="153" y2="171" gradientUnits="userSpaceOnUse">
<stop stop-opacity="0.12"/>
<stop offset="1" stop-color="#0B0A0A"/>
</linearGradient>
<linearGradient id="paint11_linear_93_74" x1="18" y1="189" x2="18" y2="153" gradientUnits="userSpaceOnUse">
<stop stop-opacity="0.12"/>
<stop offset="1" stop-color="#0B0A0A"/>
</linearGradient>
<linearGradient id="paint12_linear_93_74" x1="-7.86805e-07" y1="18" x2="36" y2="18" gradientUnits="userSpaceOnUse">
<stop stop-opacity="0.12"/>
<stop offset="1" stop-color="#0B0A0A"/>
</linearGradient>
</defs>
</svg>
