<svg width="190" height="190" viewBox="0 0 190 190" fill="none" xmlns="http://www.w3.org/2000/svg">
<g clip-path="url(#clip0_359_3356)">
<path fill-rule="evenodd" clip-rule="evenodd" d="M36.5564 0.247711L95.0564 94.7477L0.556396 36.2478L0.556402 153.248L95.0564 94.7477L36.5564 189.248L153.556 189.248L95.0564 94.7477L189.556 153.248V36.2477L95.0564 94.7477L153.556 0.247711H36.5564Z" fill="url(#paint0_radial_359_3356)" fill-opacity="0.05"/>
<path d="M36.5564 0.247742H153.556L164.556 25.2477H25.5564L36.5564 0.247742Z" fill="url(#paint1_linear_359_3356)" fill-opacity="0.61"/>
<path d="M153.556 189.248L36.5564 189.248L25.5564 164.248L164.556 164.248L153.556 189.248Z" fill="url(#paint2_linear_359_3356)" fill-opacity="0.61"/>
<path d="M0.556396 153.248L0.556391 36.2477L25.5564 25.2477L25.5564 164.248L0.556396 153.248Z" fill="url(#paint3_linear_359_3356)" fill-opacity="0.61"/>
<path d="M189.556 36.2478L189.556 153.248L164.556 164.248L164.556 25.2477L189.556 36.2478Z" fill="url(#paint4_linear_359_3356)" fill-opacity="0.61"/>
<path fill-rule="evenodd" clip-rule="evenodd" d="M25.5564 25.2477H164.556V164.248H25.5564L25.5564 25.2477ZM25.5564 25.2477L13.5564 44.2477L13.5564 145.248L25.5564 164.248L44.5564 176.248L145.556 176.248L164.556 164.248L176.556 145.248V44.2477L164.556 25.2477L145.556 13.2477L44.5564 13.2477L25.5564 25.2477Z" fill="white" fill-opacity="0.05"/>
<path d="M25.5566 25.2477L25.5566 94.7477H95.0566V25.2477L25.5566 25.2477Z" fill="url(#paint5_linear_359_3356)" fill-opacity="0.5"/>
<path d="M25.5564 164.248L95.0564 164.248L95.0564 94.7477L25.5564 94.7477L25.5564 164.248Z" fill="url(#paint6_linear_359_3356)" fill-opacity="0.5"/>
<path d="M164.556 94.7477L164.556 25.2477L95.0564 25.2477L95.0564 94.7477L164.556 94.7477Z" fill="url(#paint7_linear_359_3356)" fill-opacity="0.5"/>
<path d="M95.0564 94.7477L95.0564 164.248L164.556 164.248L164.556 94.7477L95.0564 94.7477Z" fill="url(#paint8_linear_359_3356)" fill-opacity="0.5"/>
<path fill-rule="evenodd" clip-rule="evenodd" d="M95.5564 25.2477H94.5564V94.2477H25.5564V95.2477H94.5564V164.248H95.5564V95.2477H164.556V94.2477H95.5564V25.2477Z" fill="white" fill-opacity="0.1"/>
<path d="M189.556 36.2477L153.556 0.247742L164.556 25.2477L189.556 36.2477Z" fill="url(#paint9_linear_359_3356)" fill-opacity="0.9"/>
<path d="M153.556 189.248L189.556 153.248L164.556 164.248L153.556 189.248Z" fill="url(#paint10_linear_359_3356)" fill-opacity="0.9"/>
<path d="M0.5564 153.248L36.5564 189.248L25.5564 164.248L0.5564 153.248Z" fill="url(#paint11_linear_359_3356)" fill-opacity="0.9"/>
<path d="M36.5564 0.247771L0.556396 36.2478L25.5564 25.2478L36.5564 0.247771Z" fill="url(#paint12_linear_359_3356)" fill-opacity="0.9"/>
</g>
<defs>
<radialGradient id="paint0_radial_359_3356" cx="0" cy="0" r="1" gradientUnits="userSpaceOnUse" gradientTransform="translate(95.0564 94.7477) rotate(90) scale(94.5 94.5)">
<stop stop-color="white" stop-opacity="0"/>
<stop offset="1" stop-color="white"/>
</radialGradient>
<linearGradient id="paint1_linear_359_3356" x1="95.0564" y1="0.247742" x2="95.0564" y2="25.2477" gradientUnits="userSpaceOnUse">
<stop stop-color="white" stop-opacity="0.9"/>
<stop offset="1" stop-color="white" stop-opacity="0.4"/>
</linearGradient>
<linearGradient id="paint2_linear_359_3356" x1="95.0564" y1="189.248" x2="95.0564" y2="164.248" gradientUnits="userSpaceOnUse">
<stop stop-color="white" stop-opacity="0.9"/>
<stop offset="1" stop-color="white" stop-opacity="0.4"/>
</linearGradient>
<linearGradient id="paint3_linear_359_3356" x1="0.556393" y1="94.7477" x2="25.5564" y2="94.7477" gradientUnits="userSpaceOnUse">
<stop stop-color="white" stop-opacity="0.9"/>
<stop offset="1" stop-color="white" stop-opacity="0.4"/>
</linearGradient>
<linearGradient id="paint4_linear_359_3356" x1="189.556" y1="94.7477" x2="164.556" y2="94.7477" gradientUnits="userSpaceOnUse">
<stop stop-color="white" stop-opacity="0.9"/>
<stop offset="1" stop-color="white" stop-opacity="0.4"/>
</linearGradient>
<linearGradient id="paint5_linear_359_3356" x1="25.5566" y1="25.2477" x2="95.5566" y2="92.7477" gradientUnits="userSpaceOnUse">
<stop offset="0.235" stop-color="white"/>
<stop offset="1" stop-color="white" stop-opacity="0"/>
</linearGradient>
<linearGradient id="paint6_linear_359_3356" x1="25.5564" y1="164.248" x2="93.0564" y2="94.2477" gradientUnits="userSpaceOnUse">
<stop offset="0.235" stop-color="white"/>
<stop offset="1" stop-color="white" stop-opacity="0"/>
</linearGradient>
<linearGradient id="paint7_linear_359_3356" x1="164.556" y1="25.2477" x2="97.0564" y2="95.2477" gradientUnits="userSpaceOnUse">
<stop offset="0.235" stop-color="white"/>
<stop offset="1" stop-color="white" stop-opacity="0"/>
</linearGradient>
<linearGradient id="paint8_linear_359_3356" x1="164.556" y1="164.248" x2="94.5564" y2="96.7477" gradientUnits="userSpaceOnUse">
<stop offset="0.235" stop-color="white"/>
<stop offset="1" stop-color="white" stop-opacity="0"/>
</linearGradient>
<linearGradient id="paint9_linear_359_3356" x1="171.556" y1="0.247742" x2="171.556" y2="36.2477" gradientUnits="userSpaceOnUse">
<stop stop-color="white"/>
<stop offset="1" stop-color="white" stop-opacity="0.14"/>
</linearGradient>
<linearGradient id="paint10_linear_359_3356" x1="189.556" y1="171.248" x2="153.556" y2="171.248" gradientUnits="userSpaceOnUse">
<stop stop-color="white"/>
<stop offset="1" stop-color="white" stop-opacity="0.14"/>
</linearGradient>
<linearGradient id="paint11_linear_359_3356" x1="18.5564" y1="189.248" x2="18.5564" y2="153.248" gradientUnits="userSpaceOnUse">
<stop stop-color="white"/>
<stop offset="1" stop-color="white" stop-opacity="0.14"/>
</linearGradient>
<linearGradient id="paint12_linear_359_3356" x1="0.556396" y1="18.2478" x2="36.5564" y2="18.2478" gradientUnits="userSpaceOnUse">
<stop stop-color="white"/>
<stop offset="1" stop-color="white" stop-opacity="0.14"/>
</linearGradient>
<clipPath id="clip0_359_3356">
<rect width="189" height="189" fill="white" transform="translate(0.556396 0.247711)"/>
</clipPath>
</defs>
</svg>
