<svg width="189" height="189" viewBox="0 0 189 189" fill="none" xmlns="http://www.w3.org/2000/svg">
<path fill-rule="evenodd" clip-rule="evenodd" d="M36 0L94.5 94.5L0 36.0001L5.11423e-06 153L94.5 94.5L36 189L153 189L94.5 94.5L189 153V36L94.5 94.5L153 0H36Z" fill="url(#paint0_radial_458_3132)" fill-opacity="0.05"/>
<path d="M36 3.05176e-05H153L164 25H25L36 3.05176e-05Z" fill="url(#paint1_linear_458_3132)" fill-opacity="0.51"/>
<path d="M153 189L36 189L25 164L164 164L153 189Z" fill="url(#paint2_linear_458_3132)" fill-opacity="0.51"/>
<path d="M-4.80825e-07 153L-5.59506e-06 36L25 25L25 164L-4.80825e-07 153Z" fill="url(#paint3_linear_458_3132)" fill-opacity="0.51"/>
<path d="M189 36L189 153L164 164L164 25L189 36Z" fill="url(#paint4_linear_458_3132)" fill-opacity="0.51"/>
<path d="M25.0002 25L25.0002 94.5H94.5002V25L25.0002 25Z" fill="url(#paint5_linear_458_3132)"/>
<path d="M25 164L94.5 164L94.5 94.5L25 94.5L25 164Z" fill="url(#paint6_linear_458_3132)"/>
<path d="M164 94.5L164 25L94.5 25L94.5 94.5L164 94.5Z" fill="url(#paint7_linear_458_3132)"/>
<path d="M94.5 94.5L94.5 164L164 164L164 94.5L94.5 94.5Z" fill="url(#paint8_linear_458_3132)"/>
<path fill-rule="evenodd" clip-rule="evenodd" d="M95 25H94V94H25V95H94V164H95V95H164V94H95V25Z" fill="white" fill-opacity="0.1"/>
<g opacity="0.3">
<path d="M189 36L153 3.05176e-05L164 25L189 36Z" fill="url(#paint9_linear_458_3132)"/>
<path d="M153 189L189 153L164 164L153 189Z" fill="url(#paint10_linear_458_3132)"/>
<path d="M3.14722e-06 153L36 189L25 164L3.14722e-06 153Z" fill="url(#paint11_linear_458_3132)"/>
<path d="M36 5.94615e-05L0 36.0001L25 25.0001L36 5.94615e-05Z" fill="url(#paint12_linear_458_3132)"/>
</g>
<defs>
<radialGradient id="paint0_radial_458_3132" cx="0" cy="0" r="1" gradientUnits="userSpaceOnUse" gradientTransform="translate(94.5 94.5) rotate(90) scale(94.5 94.5)">
<stop stop-color="white" stop-opacity="0"/>
<stop offset="1" stop-color="white"/>
</radialGradient>
<linearGradient id="paint1_linear_458_3132" x1="94.5" y1="3.05176e-05" x2="94.5" y2="25" gradientUnits="userSpaceOnUse">
<stop stop-color="white" stop-opacity="0.61"/>
<stop offset="1" stop-color="white" stop-opacity="0.89"/>
</linearGradient>
<linearGradient id="paint2_linear_458_3132" x1="94.5" y1="189" x2="94.5" y2="164" gradientUnits="userSpaceOnUse">
<stop stop-color="white" stop-opacity="0.61"/>
<stop offset="1" stop-color="white" stop-opacity="0.89"/>
</linearGradient>
<linearGradient id="paint3_linear_458_3132" x1="-3.03794e-06" y1="94.5" x2="25" y2="94.5" gradientUnits="userSpaceOnUse">
<stop stop-color="white" stop-opacity="0.61"/>
<stop offset="1" stop-color="white" stop-opacity="0.89"/>
</linearGradient>
<linearGradient id="paint4_linear_458_3132" x1="189" y1="94.5" x2="164" y2="94.5" gradientUnits="userSpaceOnUse">
<stop stop-color="white" stop-opacity="0.61"/>
<stop offset="1" stop-color="white" stop-opacity="0.89"/>
</linearGradient>
<linearGradient id="paint5_linear_458_3132" x1="25.0002" y1="25" x2="95.0002" y2="92.5" gradientUnits="userSpaceOnUse">
<stop offset="0.235" stop-color="white" stop-opacity="0.59"/>
<stop offset="1" stop-color="white" stop-opacity="0.13"/>
</linearGradient>
<linearGradient id="paint6_linear_458_3132" x1="25" y1="164" x2="92.5" y2="94" gradientUnits="userSpaceOnUse">
<stop offset="0.235" stop-color="white" stop-opacity="0.59"/>
<stop offset="1" stop-color="white" stop-opacity="0.13"/>
</linearGradient>
<linearGradient id="paint7_linear_458_3132" x1="164" y1="25" x2="96.5" y2="95" gradientUnits="userSpaceOnUse">
<stop offset="0.235" stop-color="white" stop-opacity="0.59"/>
<stop offset="1" stop-color="white" stop-opacity="0.13"/>
</linearGradient>
<linearGradient id="paint8_linear_458_3132" x1="164" y1="164" x2="94" y2="96.5" gradientUnits="userSpaceOnUse">
<stop offset="0.235" stop-color="white" stop-opacity="0.59"/>
<stop offset="1" stop-color="white" stop-opacity="0.13"/>
</linearGradient>
<linearGradient id="paint9_linear_458_3132" x1="171" y1="18.5" x2="164.5" y2="25" gradientUnits="userSpaceOnUse">
<stop stop-color="white"/>
<stop offset="1" stop-color="white" stop-opacity="0.8"/>
</linearGradient>
<linearGradient id="paint10_linear_458_3132" x1="170.5" y1="171" x2="164" y2="164.5" gradientUnits="userSpaceOnUse">
<stop stop-color="white"/>
<stop offset="1" stop-color="white" stop-opacity="0.8"/>
</linearGradient>
<linearGradient id="paint11_linear_458_3132" x1="18" y1="170.5" x2="24.5" y2="164" gradientUnits="userSpaceOnUse">
<stop stop-color="white"/>
<stop offset="1" stop-color="white" stop-opacity="0.8"/>
</linearGradient>
<linearGradient id="paint12_linear_458_3132" x1="18.5" y1="18.0001" x2="25" y2="24.5001" gradientUnits="userSpaceOnUse">
<stop stop-color="white"/>
<stop offset="1" stop-color="white" stop-opacity="0.8"/>
</linearGradient>
</defs>
</svg>
