<svg width="189" height="189" viewBox="0 0 189 189" fill="none" xmlns="http://www.w3.org/2000/svg">
<path fill-rule="evenodd" clip-rule="evenodd" d="M36 0L94.5 94.5L0 36.0001L5.11423e-06 153L94.5 94.5L36 189L153 189L94.5 94.5L189 153V36L94.5 94.5L153 0H36Z" fill="url(#paint0_radial_359_3443)" fill-opacity="0.05"/>
<path d="M36 3.05176e-05H153L164 25H25L36 3.05176e-05Z" fill="url(#paint1_linear_359_3443)" fill-opacity="0.51"/>
<path d="M153 189L36 189L25 164L164 164L153 189Z" fill="url(#paint2_linear_359_3443)" fill-opacity="0.51"/>
<path d="M-4.80825e-07 153L-5.59506e-06 36L25 25L25 164L-4.80825e-07 153Z" fill="url(#paint3_linear_359_3443)" fill-opacity="0.51"/>
<path d="M189 36L189 153L164 164L164 25L189 36Z" fill="url(#paint4_linear_359_3443)" fill-opacity="0.51"/>
<path fill-rule="evenodd" clip-rule="evenodd" d="M25 25H164V164H25L25 25ZM25 25L13 44L13 145L25 164L44 176L145 176L164 164L176 145V44L164 25L145 13L44 13L25 25Z" fill="black" fill-opacity="0.05"/>
<path d="M25.0002 25L25.0002 94.5H94.5002V25L25.0002 25Z" fill="url(#paint5_linear_359_3443)"/>
<path d="M25 164L94.5 164L94.5 94.5L25 94.5L25 164Z" fill="url(#paint6_linear_359_3443)"/>
<path d="M164 94.5L164 25L94.5 25L94.5 94.5L164 94.5Z" fill="url(#paint7_linear_359_3443)"/>
<path d="M94.5 94.5L94.5 164L164 164L164 94.5L94.5 94.5Z" fill="url(#paint8_linear_359_3443)"/>
<path fill-rule="evenodd" clip-rule="evenodd" d="M95 25H94V94H25V95H94V164H95V95H164V94H95V25Z" fill="black" fill-opacity="0.1"/>
<path d="M189 36L153 3.05176e-05L164 25L189 36Z" fill="url(#paint9_linear_359_3443)" fill-opacity="0.4"/>
<path d="M153 189L189 153L164 164L153 189Z" fill="url(#paint10_linear_359_3443)" fill-opacity="0.4"/>
<path d="M3.14722e-06 153L36 189L25 164L3.14722e-06 153Z" fill="url(#paint11_linear_359_3443)" fill-opacity="0.4"/>
<path d="M36 5.94615e-05L0 36.0001L25 25.0001L36 5.94615e-05Z" fill="url(#paint12_linear_359_3443)" fill-opacity="0.4"/>
<defs>
<radialGradient id="paint0_radial_359_3443" cx="0" cy="0" r="1" gradientUnits="userSpaceOnUse" gradientTransform="translate(94.5 94.5) rotate(90) scale(94.5 94.5)">
<stop stop-opacity="0"/>
<stop offset="1"/>
</radialGradient>
<linearGradient id="paint1_linear_359_3443" x1="94.5" y1="3.05176e-05" x2="94.5" y2="25" gradientUnits="userSpaceOnUse">
<stop stop-opacity="0"/>
<stop offset="1" stop-opacity="0.89"/>
</linearGradient>
<linearGradient id="paint2_linear_359_3443" x1="94.5" y1="189" x2="94.5" y2="164" gradientUnits="userSpaceOnUse">
<stop stop-opacity="0"/>
<stop offset="1" stop-opacity="0.89"/>
</linearGradient>
<linearGradient id="paint3_linear_359_3443" x1="-3.03794e-06" y1="94.5" x2="25" y2="94.5" gradientUnits="userSpaceOnUse">
<stop stop-opacity="0"/>
<stop offset="1" stop-opacity="0.89"/>
</linearGradient>
<linearGradient id="paint4_linear_359_3443" x1="189" y1="94.5" x2="164" y2="94.5" gradientUnits="userSpaceOnUse">
<stop stop-opacity="0"/>
<stop offset="1" stop-opacity="0.89"/>
</linearGradient>
<linearGradient id="paint5_linear_359_3443" x1="25.0002" y1="25" x2="95.0002" y2="92.5" gradientUnits="userSpaceOnUse">
<stop stop-opacity="0.59"/>
<stop offset="1" stop-opacity="0.13"/>
</linearGradient>
<linearGradient id="paint6_linear_359_3443" x1="25" y1="164" x2="92.5" y2="94" gradientUnits="userSpaceOnUse">
<stop stop-opacity="0.59"/>
<stop offset="1" stop-opacity="0.13"/>
</linearGradient>
<linearGradient id="paint7_linear_359_3443" x1="164" y1="25" x2="96.5" y2="95" gradientUnits="userSpaceOnUse">
<stop stop-opacity="0.59"/>
<stop offset="1" stop-opacity="0.13"/>
</linearGradient>
<linearGradient id="paint8_linear_359_3443" x1="164" y1="164" x2="94" y2="96.5" gradientUnits="userSpaceOnUse">
<stop stop-opacity="0.59"/>
<stop offset="1" stop-opacity="0.13"/>
</linearGradient>
<linearGradient id="paint9_linear_359_3443" x1="171" y1="3.05176e-05" x2="171" y2="36" gradientUnits="userSpaceOnUse">
<stop stop-opacity="0"/>
<stop offset="1" stop-color="#0B0A0A"/>
</linearGradient>
<linearGradient id="paint10_linear_359_3443" x1="189" y1="171" x2="153" y2="171" gradientUnits="userSpaceOnUse">
<stop stop-opacity="0"/>
<stop offset="1" stop-color="#0B0A0A"/>
</linearGradient>
<linearGradient id="paint11_linear_359_3443" x1="18" y1="189" x2="18" y2="153" gradientUnits="userSpaceOnUse">
<stop stop-opacity="0"/>
<stop offset="1" stop-color="#0B0A0A"/>
</linearGradient>
<linearGradient id="paint12_linear_359_3443" x1="-7.86805e-07" y1="18.0001" x2="36" y2="18.0001" gradientUnits="userSpaceOnUse">
<stop stop-opacity="0"/>
<stop offset="1" stop-color="#0B0A0A"/>
</linearGradient>
</defs>
</svg>
