<svg width="189" height="189" viewBox="0 0 189 189" fill="none" xmlns="http://www.w3.org/2000/svg">
<path fill-rule="evenodd" clip-rule="evenodd" d="M0 36.0001L94.5 94.5L0 153L25 164L36 189L94.5 94.5L153 189L164 164L189 153L94.5 94.5L189 36L164 25L153 3.05176e-05L94.5 94.5L36 6.05578e-06L25 25L0 36.0001Z" fill="url(#paint0_radial_74_9)" fill-opacity="0.07"/>
<path fill-rule="evenodd" clip-rule="evenodd" d="M153 3.05176e-05H36L25 25L-5.11423e-06 36L0 153L25 164L36 189L153 189L164 164L189 153V36L164 25L153 3.05176e-05ZM164 25V164H25L25 25H164Z" fill="black" fill-opacity="0.4"/>
<path fill-rule="evenodd" clip-rule="evenodd" d="M25 25H164V164H25L25 25ZM25 25L13 41L13 148L25 164L41 176L148 176L164 164L176 148V41L164 25L148 13L41 13L25 25Z" fill="black" fill-opacity="0.11"/>
<path opacity="0.4" fill-rule="evenodd" clip-rule="evenodd" d="M25 25L25 94.5V164H94.5L164 164V94.5V25H94.5H25ZM129 60L94.5 25L60 60L25 94.5L60 129L94.5 164L129 129L164 94.5L129 60Z" fill="black"/>
<path opacity="0.4" fill-rule="evenodd" clip-rule="evenodd" d="M94.5 25L60 60L25 94.5L60 129L94.5 164L129 129L164 94.5L129 60L94.5 25Z" fill="black"/>
<path fill-rule="evenodd" clip-rule="evenodd" d="M95 25H94V94H25V95H94V164H95V95H164V94H95V25Z" fill="black" fill-opacity="0.1"/>
<path fill-rule="evenodd" clip-rule="evenodd" d="M0 36L36 3.05176e-05L25 25L0 36ZM153 3.05176e-05L189 36L164 25L153 3.05176e-05ZM189 153L153 189L164 164L189 153ZM0 153L36 189L25 164L0 153Z" fill="white" fill-opacity="0.1"/>
<defs>
<radialGradient id="paint0_radial_74_9" cx="0" cy="0" r="1" gradientUnits="userSpaceOnUse" gradientTransform="translate(94.5 94.5001) rotate(90) scale(94.5001 94.5)">
<stop stop-opacity="0"/>
<stop offset="1"/>
</radialGradient>
</defs>
</svg>
