<svg width="101" height="101" viewBox="0 0 101 101" fill="none" xmlns="http://www.w3.org/2000/svg">
<g clip-path="url(#clip0_1_50)">
<path d="M50.5 62.3C44 62.3 38.7 57.1 38.7 50.5C38.7 43.9 43.9 38.7 50.5 38.7C57.1 38.7 62.3 43.9 62.3 50.5C62.3 57.1 57 62.3 50.5 62.3Z" fill="#FF0000"/>
<path d="M99.8 42.4C98.8 42.7 97.8 42.8 96.7 42.8C90.4 42.8 85.3 37.7 85.3 31.4C85.3 27.1 87.6 23.4 91.1 21.5C87.9 17.1 84 13.2 79.6 10C77.7 13.5 73.9 15.9 69.7 15.9C63.4 15.9 58.3 10.8 58.3 4.50001C58.3 3.40001 58.5 2.30001 58.8 1.30001C56.1 0.800006 53.3 0.600006 50.5 0.600006C47.7 0.600006 45 0.800006 42.3 1.30001C42.6 2.30001 42.8 3.40001 42.8 4.50001C42.8 10.8 37.7 15.9 31.4 15.9C27.1 15.9 23.3 13.5 21.4 10C16.9 13.2 13 17.1 9.8 21.6C13.3 23.5 15.7 27.3 15.7 31.6C15.7 37.9 10.6 43 4.3 43C3.2 43 2.1 42.8 1 42.5C0.7 45 0.5 47.8 0.5 50.6C0.5 53.4 0.8 56.2 1.2 58.9C2.3 58.6 3.4 58.5 4.5 58.5C10.8 58.5 15.9 63.6 15.9 69.9C15.9 74.2 13.5 78 10 79.9C13.2 84.4 17.2 88.3 21.7 91.5C23.6 88 27.4 85.6 31.7 85.6C38 85.6 43.1 90.7 43.1 97C43.1 98.1 42.9 99.1 42.7 100.1C45.3 100.5 48 100.7 50.7 100.7C53.5 100.7 56.2 100.5 58.9 100C58.6 99 58.5 98 58.5 96.9C58.5 90.6 63.6 85.5 69.9 85.5C74.2 85.5 77.9 87.9 79.8 91.3C84.3 88.1 88.2 84.2 91.4 79.7C87.6 77.8 85.3 74.1 85.3 69.8C85.3 63.5 90.4 58.5 96.6 58.5C97.7 58.5 98.8 58.7 99.8 59C100.3 56.3 100.5 53.5 100.5 50.7C100.5 47.9 100.3 45.1 99.8 42.4ZM50.5 76C36.4 76 25 64.6 25 50.5C25 36.4 36.4 25 50.5 25C64.6 25 76 36.4 76 50.5C76 64.6 64.6 76 50.5 76Z" fill="#FF0000"/>
</g>
<defs>
<clipPath id="clip0_1_50">
<rect width="100" height="100" fill="white" transform="translate(0.5 0.5)"/>
</clipPath>
</defs>
</svg>
