<?xml version="1.0" encoding="utf-8"?>
<!-- Generator: Adobe Illustrator 27.5.0, SVG Export Plug-In . SVG Version: 6.00 Build 0)  -->
<svg version="1.1" id="Layer_1" xmlns="http://www.w3.org/2000/svg" xmlns:xlink="http://www.w3.org/1999/xlink" x="0px" y="0px"
	 viewBox="0 0 30 30" style="enable-background:new 0 0 30 30;" xml:space="preserve">
<style type="text/css">
	.st0{opacity:0.8;}
	.st1{opacity:0.9;}
	.st2{opacity:0.7;}
	.st3{opacity:0.6;}
	.st4{opacity:0.5;}
	.st5{opacity:0.4;}
</style>
<path class="st0" d="M15,29.6c-0.7,0-1.2-0.6-1.2-1.2v-4.1c0-0.7,0.6-1.2,1.2-1.2c0.7,0,1.2,0.6,1.2,1.2v4.1
	C16.2,29.1,15.7,29.6,15,29.6z"/>
<path class="st1" d="M7.1,27.1c-0.3,0-0.5-0.1-0.7-0.2c-0.6-0.4-0.7-1.2-0.3-1.7l2.9-4c0.4-0.6,1.2-0.7,1.7-0.3
	c0.6,0.4,0.7,1.2,0.3,1.7l-2.9,4C7.9,26.9,7.5,27.1,7.1,27.1z"/>
<path class="st2" d="M22.9,27.1c-0.4,0-0.8-0.2-1-0.5l-1.9-2.7c-0.4-0.6-0.3-1.3,0.3-1.7c0.6-0.4,1.3-0.3,1.7,0.3l1.9,2.7
	c0.4,0.6,0.3,1.3-0.3,1.7C23.4,27,23.1,27.1,22.9,27.1z"/>
<path d="M2.3,20.4c-0.5,0-1-0.3-1.2-0.9c-0.2-0.6,0.1-1.3,0.8-1.6l5.5-1.8C8,16,8.7,16.3,8.9,17c0.2,0.6-0.1,1.3-0.8,1.6l-5.5,1.8
	C2.5,20.3,2.4,20.4,2.3,20.4z"/>
<path class="st3" d="M27.7,20.4c-0.1,0-0.3,0-0.4-0.1L25,19.5c-0.6-0.2-1-0.9-0.8-1.6c0.2-0.6,0.9-1,1.6-0.8l2.3,0.8
	c0.6,0.2,1,0.9,0.8,1.6C28.7,20,28.2,20.4,27.7,20.4z"/>
<path d="M8.5,14.1c-0.1,0-0.3,0-0.4-0.1l-6.3-2c-0.6-0.2-1-0.9-0.8-1.6c0.2-0.6,0.9-1,1.6-0.8l6.3,2c0.6,0.2,1,0.9,0.8,1.6
	C9.5,13.8,9.1,14.1,8.5,14.1z"/>
<path class="st4" d="M26.2,12.6c-0.5,0-1-0.3-1.2-0.9c-0.2-0.6,0.1-1.3,0.8-1.6l1.6-0.5c0.7-0.2,1.3,0.1,1.6,0.8
	c0.2,0.6-0.1,1.3-0.8,1.6l-1.6,0.5C26.4,12.6,26.3,12.6,26.2,12.6z"/>
<path d="M11.5,11.4c-0.4,0-0.8-0.2-1-0.5l-4.4-6C5.7,4.4,5.9,3.6,6.4,3.2C7,2.8,7.7,2.9,8.1,3.5l4.4,6c0.4,0.6,0.3,1.3-0.3,1.7
	C12,11.3,11.7,11.4,11.5,11.4z"/>
<path d="M15,11.1c-0.7,0-1.2-0.6-1.2-1.2V1.6c0-0.7,0.6-1.2,1.2-1.2c0.7,0,1.2,0.6,1.2,1.2v8.2C16.2,10.5,15.7,11.1,15,11.1z"/>
<path class="st5" d="M22.4,6.1c-0.3,0-0.5-0.1-0.7-0.2c-0.6-0.4-0.7-1.2-0.3-1.7l0.5-0.7c0.4-0.6,1.2-0.7,1.7-0.3
	c0.6,0.4,0.7,1.2,0.3,1.7l-0.5,0.7C23.1,5.9,22.8,6.1,22.4,6.1z"/>
</svg>
