<svg width="15" height="15" viewBox="0 0 15 15" fill="none" xmlns="http://www.w3.org/2000/svg">
<g clip-path="url(#clip0_273_22)">
<path d="M0.576923 8.07693C0.258297 8.07693 0 7.81864 0 7.50001C0 7.18139 0.258297 6.92309 0.576923 6.92309H14.4231C14.7417 6.92309 15 7.18139 15 7.50001C15 7.81864 14.7417 8.07693 14.4231 8.07693H0.576923Z" fill="#FF0000"/>
<path d="M8.07692 14.4231C8.07692 14.7417 7.81863 15 7.5 15C7.18137 15 6.92308 14.7417 6.92308 14.4231L6.92308 0.576923C6.92308 0.258298 7.18137 1.39276e-08 7.5 0C7.81863 -1.39275e-08 8.07692 0.258298 8.07692 0.576923V14.4231Z" fill="#FF0000"/>
<path d="M1.73077 4.6154C1.41214 4.6154 1.15385 4.3571 1.15385 4.03847C1.15385 3.71985 1.41214 3.46155 1.73077 3.46155L13.2692 3.46155C13.5879 3.46155 13.8462 3.71985 13.8462 4.03847C13.8462 4.3571 13.5879 4.6154 13.2692 4.6154L1.73077 4.6154Z" fill="#FF0000"/>
<path d="M1.73077 11.5385C1.41214 11.5385 1.15385 11.2802 1.15385 10.9615C1.15385 10.6429 1.41214 10.3846 1.73077 10.3846L13.2692 10.3846C13.5879 10.3846 13.8462 10.6429 13.8462 10.9615C13.8462 11.2802 13.5879 11.5385 13.2692 11.5385L1.73077 11.5385Z" fill="#FF0000"/>
<path d="M14 7.50001C14 3.91016 11.0899 1.00001 7.5 1.00001C3.91015 1.00001 1 3.91016 1 7.50001C1 11.0899 3.91015 14 7.5 14L7.5 15C3.35786 15 0 11.6421 0 7.50001C0 3.35788 3.35786 0 7.5 0C11.6421 0 15 3.35788 15 7.50001C15 11.6421 11.6421 15 7.5 15L7.5 14C11.0899 14 14 11.0899 14 7.50001Z" fill="#FF0000"/>
<path d="M11 7.50001C11 5.57902 10.5305 3.88806 9.82422 2.71095C9.10605 1.51416 8.25332 1.00001 7.5 1.00001C6.74668 1.00001 5.89395 1.51416 5.17578 2.71095C4.46952 3.88806 4 5.57902 4 7.50001C4 9.421 4.46952 11.112 5.17578 12.2891C5.89395 13.4859 6.74668 14 7.5 14L7.5 15C5.01472 15 3 11.6421 3 7.50001C3 3.35788 5.01472 0 7.5 0C9.98528 0 12 3.35788 12 7.50001C12 11.6421 9.98528 15 7.5 15L7.5 14C8.25332 14 9.10605 13.4859 9.82422 12.2891C10.5305 11.112 11 9.421 11 7.50001Z" fill="#FF0000"/>
<path d="M11 7.50001C11 5.57902 10.5305 3.88806 9.82422 2.71095C9.10605 1.51416 8.25332 1.00001 7.5 1.00001C6.74668 1.00001 5.89395 1.51416 5.17578 2.71095C4.46952 3.88806 4 5.57902 4 7.50001C4 9.421 4.46952 11.112 5.17578 12.2891C5.89395 13.4859 6.74668 14 7.5 14L7.5 15C5.01472 15 3 11.6421 3 7.50001C3 3.35788 5.01472 0 7.5 0C9.98528 0 12 3.35788 12 7.50001C12 11.6421 9.98528 15 7.5 15L7.5 14C8.25332 14 9.10605 13.4859 9.82422 12.2891C10.5305 11.112 11 9.421 11 7.50001Z" fill="#FF0000"/>
</g>
<defs>
<clipPath id="clip0_273_22">
<rect width="15" height="15" fill="white"/>
</clipPath>
</defs>
</svg>
