<svg width="12" height="12" viewBox="0 0 12 12" fill="none" xmlns="http://www.w3.org/2000/svg">
<path fill-rule="evenodd" clip-rule="evenodd" d="M2.28411 1H9.69984C10.4061 1 10.9839 1.57845 11 2.32217V4.78471V7.16461V10.9163C11 10.9163 10.3419 11.4121 9.23435 9.99074C9.02568 9.72631 8.6886 9.13134 8.35153 8.48678H2.28411C1.57785 8.48678 1 7.8918 1 7.16461V2.32217C1 1.59498 1.57785 1 2.28411 1ZM4.32502 5.85897C3.74717 5.85897 3.28168 5.37969 3.28168 4.78471C3.28168 4.18974 3.74717 3.71045 4.32502 3.71045C4.90286 3.71045 5.36835 4.18974 5.36835 4.78471C5.36835 5.37969 4.90286 5.85897 4.32502 5.85897ZM6.68457 4.78471C6.68457 4.18974 7.15006 3.71045 7.72791 3.71045C8.30575 3.71045 8.77124 4.18974 8.77124 4.78471C8.77124 5.37969 8.30575 5.85897 7.72791 5.85897C7.15006 5.85897 6.68457 5.37969 6.68457 4.78471Z" fill="black"/>
</svg>
