<svg width="371" height="371" viewBox="0 0 371 371" fill="none" xmlns="http://www.w3.org/2000/svg">
<g clip-path="url(#clip0_1_48)">
<path fill-rule="evenodd" clip-rule="evenodd" d="M185.5 370.5C287.673 370.5 370.5 287.673 370.5 185.5C370.5 83.3273 287.673 0.5 185.5 0.5C83.3273 0.5 0.5 83.3273 0.5 185.5C0.5 287.673 83.3273 370.5 185.5 370.5ZM146.26 234.144L234.837 222.017C250.309 219.831 262.62 214.806 271.772 206.939C280.924 199.072 285.5 185.961 285.5 167.606V133.189C285.5 114.615 279.508 100.411 267.523 90.5778C255.538 80.5259 238.978 75.5 217.841 75.5H112.267C108.127 75.5 105.076 76.4833 103.115 78.45C101.372 80.1982 100.5 83.1482 100.5 87.3V126.961C100.5 131.113 101.372 134.172 103.115 136.139C105.076 137.887 108.127 138.761 112.267 138.761H202.479C205.312 138.761 207.491 139.526 209.016 141.056C210.541 142.585 211.304 144.88 211.304 147.939C211.304 151.217 210.65 153.62 209.343 155.15C208.035 156.68 205.747 157.663 202.479 158.1L137.435 167.278C133.294 167.715 130.244 169.026 128.283 171.211C126.539 173.396 125.995 176.565 126.648 180.717L133.512 223.983C134.166 228.135 135.365 230.976 137.108 232.506C139.069 234.035 142.12 234.581 146.26 234.144ZM138.415 311.5H198.23C202.37 311.5 205.312 310.626 207.055 308.878C209.016 306.911 209.996 303.852 209.996 299.7V256.761C209.996 252.609 209.016 249.659 207.055 247.911C205.312 245.944 202.37 244.961 198.23 244.961H138.415C134.275 244.961 131.224 245.944 129.263 247.911C127.52 249.659 126.648 252.609 126.648 256.761V299.7C126.648 303.852 127.52 306.911 129.263 308.878C131.224 310.626 134.275 311.5 138.415 311.5Z" fill="#FF0000"/>
</g>
<defs>
<clipPath id="clip0_1_48">
<rect width="370" height="370" fill="white" transform="translate(0.5 0.5)"/>
</clipPath>
</defs>
</svg>
