<svg width="18" height="18" viewBox="0 0 18 18" fill="none" xmlns="http://www.w3.org/2000/svg">
<g clip-path="url(#clip0_444_3292)">
<path d="M17.6835 7.29547L12.5744 1.81657C12.5292 1.76787 12.4614 1.71917 12.4162 1.67047C12.3484 1.62177 12.3032 1.59742 12.2354 1.57307C12.2354 1.57307 12.2354 1.57307 12.2127 1.57307C12.1675 1.52436 12.0997 1.50001 12.0319 1.50001C12.0319 1.50001 12.0319 1.50001 12.0093 1.50001C11.8736 1.47566 11.7154 1.47566 11.5572 1.50001C11.5572 1.50001 11.5572 1.50001 11.5346 1.50001C11.4667 1.52436 11.3989 1.54871 11.3311 1.57307C11.3311 1.57307 11.3311 1.57307 11.3085 1.57307C11.2407 1.59742 11.1955 1.64612 11.1276 1.67047C11.0824 1.71917 11.0146 1.76787 10.9694 1.81657C10.9468 1.86527 10.9016 1.93833 10.8564 1.98703C10.8111 2.06008 10.7885 2.10878 10.7659 2.18183C10.7659 2.18183 10.7659 2.18183 10.7659 2.20618C10.7207 2.27923 10.7207 2.35229 10.6981 2.42534C10.6981 2.42534 10.6981 2.42534 10.6981 2.44969C10.6755 2.52274 10.6755 2.62014 10.6755 2.6932V4.17858C8.82179 4.49514 3.12498 5.88313 1.58774 11.0942C-0.0173087 16.5487 2.35636 17.1331 2.58243 16.0617C2.8537 14.7711 4.00663 11.4594 10.6755 11.3377V13.6023C10.6755 13.9188 10.7885 14.2354 10.992 14.4789C11.4215 14.9416 12.1449 14.9416 12.5744 14.4789L17.6609 9.00001C18.113 8.53735 18.113 7.78248 17.6835 7.29547Z" fill="#FF0000"/>
</g>
<defs>
<clipPath id="clip0_444_3292">
<rect width="17" height="15" fill="white" transform="translate(1 1.5)"/>
</clipPath>
</defs>
</svg>
