<svg width="19" height="19" viewBox="0 0 19 19" fill="none" xmlns="http://www.w3.org/2000/svg">
<path fill-rule="evenodd" clip-rule="evenodd" d="M16.6246 18.2334C17.368 18.2334 17.8515 17.4511 17.519 16.7862L10.5112 2.7705C10.1426 2.03345 9.09083 2.03345 8.72231 2.7705L1.71447 16.7862C1.38202 17.4511 1.86551 18.2334 2.6089 18.2334H16.6246ZM8.7066 13.4642H10.527C10.6758 13.4642 10.7854 13.4329 10.8558 13.3703C10.9263 13.2998 10.9655 13.1902 10.9733 13.0414L11.1377 8.50805C11.1455 8.35928 11.1181 8.25358 11.0555 8.19094C10.9929 8.12048 10.8872 8.08524 10.7384 8.08524H8.4952C8.34644 8.08524 8.24074 8.12048 8.1781 8.19094C8.11547 8.25358 8.08806 8.35928 8.09589 8.50805L8.27206 13.0414C8.27989 13.1902 8.31512 13.2998 8.37776 13.3703C8.44823 13.4329 8.55784 13.4642 8.7066 13.4642ZM8.54218 16.5413H10.7032C10.8519 16.5413 10.9576 16.5099 11.0203 16.4473C11.0907 16.3768 11.126 16.2672 11.126 16.1185V14.5799C11.126 14.4312 11.0907 14.3255 11.0203 14.2628C10.9576 14.1924 10.8519 14.1571 10.7032 14.1571H8.54218C8.39342 14.1571 8.2838 14.1924 8.21334 14.2628C8.1507 14.3255 8.11938 14.4312 8.11938 14.5799V16.1185C8.11938 16.2672 8.1507 16.3768 8.21334 16.4473C8.2838 16.5099 8.39342 16.5413 8.54218 16.5413Z" fill="black"/>
</svg>
