<?xml version="1.0" encoding="utf-8"?>
<!-- Generator: Adobe Illustrator 27.5.0, SVG Export Plug-In . SVG Version: 6.00 Build 0)  -->
<svg version="1.1" id="Layer_1" xmlns="http://www.w3.org/2000/svg" xmlns:xlink="http://www.w3.org/1999/xlink" x="0px" y="0px"
	 viewBox="0 0 100 100" style="enable-background:new 0 0 100 100;" xml:space="preserve">
<g>
	<path d="M50,61.8c-6.5,0-11.8-5.2-11.8-11.8S43.4,38.2,50,38.2S61.8,43.4,61.8,50S56.5,61.8,50,61.8z"/>
	<path d="M99.3,41.9c-1,0.3-2,0.4-3.1,0.4c-6.3,0-11.4-5.1-11.4-11.4c0-4.3,2.3-8,5.8-9.9c-3.2-4.4-7.1-8.3-11.5-11.5
		c-1.9,3.5-5.7,5.9-9.9,5.9c-6.3,0-11.4-5.1-11.4-11.4c0-1.1,0.2-2.2,0.5-3.2c-2.7-0.5-5.5-0.7-8.3-0.7s-5.5,0.2-8.2,0.7
		c0.3,1,0.5,2.1,0.5,3.2c0,6.3-5.1,11.4-11.4,11.4c-4.3,0-8.1-2.4-10-5.9c-4.5,3.2-8.4,7.1-11.6,11.6c3.5,1.9,5.9,5.7,5.9,10
		c0,6.3-5.1,11.4-11.4,11.4c-1.1,0-2.2-0.2-3.3-0.5C0.2,44.5,0,47.3,0,50.1c0,2.8,0.3,5.6,0.7,8.3C1.8,58.1,2.9,58,4,58
		c6.3,0,11.4,5.1,11.4,11.4c0,4.3-2.4,8.1-5.9,10c3.2,4.5,7.2,8.4,11.7,11.6c1.9-3.5,5.7-5.9,10-5.9c6.3,0,11.4,5.1,11.4,11.4
		c0,1.1-0.2,2.1-0.4,3.1c2.6,0.4,5.3,0.6,8,0.6c2.8,0,5.5-0.2,8.2-0.7c-0.3-1-0.4-2-0.4-3.1C58,90.1,63.1,85,69.4,85
		c4.3,0,8,2.4,9.9,5.8c4.5-3.2,8.4-7.1,11.6-11.6c-3.8-1.9-6.1-5.6-6.1-9.9C84.8,63,89.9,58,96.1,58c1.1,0,2.2,0.2,3.2,0.5
		c0.5-2.7,0.7-5.5,0.7-8.3S99.8,44.6,99.3,41.9z M50,75.5c-14.1,0-25.5-11.4-25.5-25.5c0-14.1,11.4-25.5,25.5-25.5
		c14.1,0,25.5,11.4,25.5,25.5C75.5,64.1,64.1,75.5,50,75.5z"/>
</g>
</svg>
