<?xml version="1.0" encoding="utf-8"?>
<!-- Generator: Adobe Illustrator 27.5.0, SVG Export Plug-In . SVG Version: 6.00 Build 0)  -->
<svg version="1.1" id="Layer_1" xmlns="http://www.w3.org/2000/svg" xmlns:xlink="http://www.w3.org/1999/xlink" x="0px" y="0px"
	 viewBox="0 0 100 80" style="enable-background:new 0 0 100 80;" xml:space="preserve">
<path d="M50,0C22.4,0,0,40,0,40s22.4,40,50,40s50-40,50-40S77.6,0,50,0z M50,65.5c-14.1,0-25.5-11.4-25.5-25.5S35.9,14.5,50,14.5
	S75.5,25.9,75.5,40S64.1,65.5,50,65.5z"/>
<path d="M50,51.8c-6.5,0-11.8-5.2-11.8-11.8S43.4,28.2,50,28.2S61.8,33.4,61.8,40S56.5,51.8,50,51.8z"/>
</svg>
