<?xml version="1.0" encoding="utf-8"?>
<!-- Generator: Adobe Illustrator 27.5.0, SVG Export Plug-In . SVG Version: 6.00 Build 0)  -->
<svg version="1.1" id="Layer_1" xmlns="http://www.w3.org/2000/svg" xmlns:xlink="http://www.w3.org/1999/xlink" x="0px" y="0px"
	 viewBox="0 0 62.3 55.6" style="enable-background:new 0 0 62.3 55.6;" xml:space="preserve">
<g>
	<path d="M12.1,22.5H1.7c-1,0-1.7,0.8-1.7,1.7V52c0,1,0.8,1.7,1.7,1.7h10.4c1,0,1.7-0.8,1.7-1.7V24.2C13.9,23.3,13.1,22.5,12.1,22.5
		z"/>
	<path d="M62.3,25.8c0-2.8-1.9-5.7-5.6-5.7H39.9c2.4-4.3,3.1-10.3,1.4-14.8c-1.2-3.3-3.6-5.1-6.6-5.3l0,0c-2-0.1-3.7,1.4-3.8,3.3
		c-0.4,4.4-2.4,12.1-5.1,14.9c-2.3,2.3-4.3,3.3-7.6,4.9c-0.5,0.2-1,0.5-1.5,0.8c0,0.1,0,0.2,0,0.4v27.5c0.4,0.1,0.8,0.3,1.2,0.4
		c5.4,1.9,10.1,3.5,17.3,3.5h13.6c3.7,0,5.6-2.9,5.6-5.7c0-0.8-0.2-1.7-0.5-2.5c1.2-0.2,2.3-0.8,3.1-1.7c0.9-1,1.4-2.4,1.4-3.9
		c0-0.8-0.2-1.7-0.5-2.4c3-0.5,4.5-3.1,4.5-5.6c0-1.5-0.5-2.9-1.5-4C61.8,28.7,62.3,27.3,62.3,25.8z"/>
</g>
</svg>
