<svg width="19" height="20" viewBox="0 0 19 20" fill="none" xmlns="http://www.w3.org/2000/svg">
<path d="M4.51108 2.23433C3.82225 1.54551 2.70545 1.54551 2.01662 2.23433C1.32779 2.92316 1.32779 4.03997 2.01662 4.72879L7.00554 9.71771L2.01662 14.7066C1.32779 15.3955 1.32779 16.5123 2.01662 17.2011C2.70545 17.8899 3.82225 17.8899 4.51108 17.2011L9.5 12.2122L14.4889 17.2011C15.1777 17.8899 16.2946 17.8899 16.9834 17.2011C17.6722 16.5123 17.6722 15.3955 16.9834 14.7066L11.9945 9.71771L16.9834 4.72879C17.6722 4.03997 17.6722 2.92316 16.9834 2.23433C16.2946 1.54551 15.1777 1.54551 14.4889 2.23433L9.5 7.22325L4.51108 2.23433Z" fill="#FF0000"/>
</svg>
