<svg width="13" height="13" viewBox="0 0 13 13" fill="none" xmlns="http://www.w3.org/2000/svg">
<path fill-rule="evenodd" clip-rule="evenodd" d="M1.1442 5.54743L4.59654 8.99973C4.98982 9.39301 5.62744 9.39301 6.02072 8.99973C6.414 8.60645 6.414 7.96882 6.02072 7.57555L4.08327 5.63813C6.16891 5.65753 7.73807 6.04614 8.66515 7.06093C9.63064 8.11777 10.0043 8.95495 10.0043 11.7254C10.0043 12.2816 10.4552 12.7325 11.0114 12.7325C11.5676 12.7325 12.0184 12.2816 12.0184 11.7254C12.0184 8.57738 11.5326 7.21355 10.1521 5.70246C8.85908 4.28705 6.86945 3.70869 4.48372 3.63216L6.02617 2.08981C6.41945 1.69653 6.41945 1.0589 6.02617 0.665624C5.63289 0.272347 4.99527 0.272347 4.60199 0.665624L1.1442 4.12325C0.750924 4.51653 0.750924 5.15416 1.1442 5.54743Z" fill="black"/>
</svg>
