<?xml version="1.0" encoding="utf-8"?>
<!-- Generator: Adobe Illustrator 27.5.0, SVG Export Plug-In . SVG Version: 6.00 Build 0)  -->
<svg version="1.1" id="Layer_1" xmlns="http://www.w3.org/2000/svg" xmlns:xlink="http://www.w3.org/1999/xlink" x="0px" y="0px"
	 viewBox="0 0 369 369" style="enable-background:new 0 0 369 369;" xml:space="preserve">
<style type="text/css">
	.st0{fill-rule:evenodd;clip-rule:evenodd;}
</style>
<path class="st0" d="M184,0C83,0,0,83,0,184c0,102,83,185,184,185c102,0,185-83,185-185C369,83,286,0,184,0z M201.7,68.5
	c17.7,0,30.8,9.3,30.8,27c0,18.7-15.5,32.6-35.1,32.6c-15.5,0-30.5-8.7-30.5-27C166.9,83.7,182.1,68.5,201.7,68.5z M196.1,309.1
	c-31.7,0-52.2-18-52.2-46.6c0-6.2,1.2-12.4,3.1-19.3l14.3-54.7h-49.1l8.1-38.5h98.8l-23,95.1c-0.6,2.5-1.2,5-1.2,7.5
	c0,11.5,6.8,16.2,16.8,16.2c6.8,0,13.1-1.9,22.4-5.6l9.9,37.3C230.3,306,216,309.1,196.1,309.1z"/>
</svg>
