<svg width="13" height="11" viewBox="0 0 13 11" fill="none" xmlns="http://www.w3.org/2000/svg">
<path d="M8.63217 5.30231C8.56043 5.34374 8.53584 5.43547 8.57727 5.50722L10.962 9.63764C10.99 9.68612 11.0588 9.68809 11.086 9.63917C11.1034 9.60775 11.1197 9.57577 11.1348 9.54329C11.1351 9.54271 11.1359 9.54258 11.1363 9.54303C11.1368 9.5435 11.1376 9.54334 11.1378 9.54272L11.1536 9.50139C11.1698 9.46356 11.1844 9.42511 11.1975 9.38615L11.8504 7.67232C12.1254 7.0271 12.2264 6.31379 11.8809 5.74828L11.8772 5.7417C11.8763 5.74026 11.8768 5.73842 11.8783 5.73758C11.8797 5.73675 11.8802 5.73491 11.8794 5.73346L10.9559 4.13393C10.9145 4.06219 10.8227 4.0376 10.751 4.07903L8.63217 5.30231Z" fill="black"/>
<path d="M10.5253 10.2084C10.5769 10.1786 10.5919 10.1123 10.5621 10.0607L9.07506 7.48515C9.04827 7.43874 8.99875 7.41015 8.94516 7.41015L8.51715 7.41015C8.43431 7.41015 8.36715 7.34299 8.36715 7.26015V7.1061C8.36715 6.96372 8.18737 6.90144 8.0993 7.0133L6.67775 8.81886C6.63487 8.87333 6.63489 8.95008 6.67781 9.00452L8.09936 10.8076C8.18748 10.9193 8.36715 10.857 8.36715 10.7147V10.5601C8.36715 10.4773 8.43431 10.4101 8.51715 10.4101L9.78511 10.4099C10.0367 10.4084 10.2917 10.3432 10.5253 10.2084Z" fill="black"/>
<path d="M6.1676 7.66073C6.1676 7.57789 6.10044 7.51073 6.0176 7.51073L1.24819 7.51073C1.19222 7.51073 1.15609 7.56937 1.18487 7.61737C1.20334 7.64819 1.2229 7.67829 1.24347 7.70762C1.24384 7.70814 1.24357 7.70887 1.24295 7.70903C1.24231 7.70919 1.24206 7.70997 1.24248 7.71048L1.2704 7.74478C1.29505 7.77774 1.32102 7.80964 1.34824 7.84043L2.50598 9.26283C2.92729 9.82352 3.49454 10.2677 4.15699 10.2513H4.16458C4.16625 10.2513 4.1676 10.2526 4.1676 10.2543C4.1676 10.256 4.16895 10.2573 4.17061 10.2573H6.0176C6.10044 10.2573 6.1676 10.1901 6.1676 10.1073L6.1676 7.66073Z" fill="black"/>
<path d="M0.97229 6.84716C0.97229 6.90674 1.02217 6.95287 1.08175 6.95287H4.05576C4.10935 6.95287 4.15887 6.92428 4.18567 6.87787L4.39967 6.50721C4.44109 6.43546 4.53283 6.41088 4.60457 6.4523L4.73799 6.52933C4.86129 6.60052 5.00511 6.47596 4.95227 6.34375L4.09939 4.20988C4.07366 4.14551 4.00718 4.10715 3.93857 4.1171L1.66632 4.44668C1.52547 4.46711 1.4896 4.65387 1.61286 4.72503L1.74669 4.8023C1.81843 4.84372 1.84301 4.93546 1.80159 5.0072L1.16787 6.10544C1.04333 6.3241 0.97229 6.57752 0.97229 6.84716Z" fill="black"/>
<path d="M5.3254 4.32341C5.39714 4.36483 5.48888 4.34025 5.5303 4.26851L7.915 0.138082C7.94299 0.08961 7.91028 0.0289949 7.85431 0.0299176C7.81838 0.03051 7.78254 0.0323928 7.74685 0.0355469C7.74622 0.0356029 7.74572 0.0350097 7.74589 0.0343971C7.74607 0.033758 7.74553 0.0331506 7.74487 0.0332559L7.70121 0.0402835C7.66034 0.0451552 7.61972 0.051697 7.57945 0.0598802L5.76875 0.351312C5.07252 0.435831 4.40426 0.705015 4.08722 1.2869L4.08343 1.29348C4.0826 1.29492 4.08075 1.29541 4.07931 1.29458C4.07787 1.29375 4.07602 1.29424 4.07519 1.29568L3.1517 2.89522C3.11027 2.96696 3.13486 3.0587 3.2066 3.10012L5.3254 4.32341Z" fill="black"/>
<path d="M8.62762 0.230926C8.57602 0.201136 8.51114 0.22127 8.48135 0.272868L6.99434 2.84844C6.96755 2.89485 6.96755 2.95203 6.99434 2.99844L7.20834 3.3691C7.24976 3.44085 7.22518 3.53258 7.15344 3.57401L7.02003 3.65103C6.89672 3.72222 6.93268 3.90906 7.0736 3.9294L9.34803 4.25772C9.41664 4.26762 9.4831 4.22922 9.50878 4.16483L10.3595 2.03222C10.4122 1.90002 10.2684 1.77557 10.1452 1.84674L10.0113 1.92401C9.93958 1.96543 9.84784 1.94085 9.80642 1.8691L9.17218 0.771164C9.04509 0.553978 8.86114 0.365746 8.62762 0.230926Z" fill="black"/>
</svg>
