<svg width="63" height="57" viewBox="0 0 63 57" fill="none" xmlns="http://www.w3.org/2000/svg">
<g clip-path="url(#clip0_1_42)">
<path d="M12.6 23H2.2C1.2 23 0.5 23.8 0.5 24.7V52.5C0.5 53.5 1.3 54.2 2.2 54.2H12.6C13.6 54.2 14.3 53.4 14.3 52.5V24.7C14.4 23.8 13.6 23 12.6 23Z" fill="#FF0000"/>
<path d="M62.8 26.3C62.8 23.5 60.9 20.6 57.2 20.6H40.4C42.8 16.3 43.5 10.3 41.8 5.79999C40.6 2.49999 38.2 0.699995 35.2 0.499995C33.2 0.399995 31.5 1.89999 31.4 3.79999C31 8.19999 29 15.9 26.3 18.7C24 21 22 22 18.7 23.6C18.2 23.8 17.7 24.1 17.2 24.4C17.2 24.5 17.2 24.6 17.2 24.8V52.3C17.6 52.4 18 52.6 18.4 52.7C23.8 54.6 28.5 56.2 35.7 56.2H49.3C53 56.2 54.9 53.3 54.9 50.5C54.9 49.7 54.7 48.8 54.4 48C55.6 47.8 56.7 47.2 57.5 46.3C58.4 45.3 58.9 43.9 58.9 42.4C58.9 41.6 58.7 40.7 58.4 40C61.4 39.5 62.9 36.9 62.9 34.4C62.9 32.9 62.4 31.5 61.4 30.4C62.3 29.2 62.8 27.8 62.8 26.3Z" fill="#FF0000"/>
</g>
<defs>
<clipPath id="clip0_1_42">
<rect width="62.3" height="55.6" fill="white" transform="translate(0.5 0.5)"/>
</clipPath>
</defs>
</svg>
