<svg width="12" height="13" viewBox="0 0 12 13" fill="none" xmlns="http://www.w3.org/2000/svg">
<path fill-rule="evenodd" clip-rule="evenodd" d="M7.33332 0.9C7.33332 0.679086 7.15423 0.5 6.93332 0.5H5.06665C4.84574 0.5 4.66665 0.679086 4.66665 0.899999V4.76668C4.66665 4.98759 4.48757 5.16668 4.26665 5.16668H0.4C0.179086 5.16668 0 5.34577 0 5.56668V7.43335C0 7.65426 0.179086 7.83335 0.4 7.83335H4.26665C4.48757 7.83335 4.66665 8.01243 4.66665 8.23335V12.1C4.66665 12.3209 4.84574 12.5 5.06665 12.5H6.93332C7.15423 12.5 7.33332 12.3209 7.33332 12.1V8.23335C7.33332 8.01243 7.51241 7.83335 7.73332 7.83335H11.6C11.8209 7.83335 12 7.65426 12 7.43335V5.56668C12 5.34577 11.8209 5.16668 11.6 5.16668H7.73332C7.51241 5.16668 7.33332 4.98759 7.33332 4.76668V0.9Z" fill="black"/>
</svg>
