<svg width="20" height="20" viewBox="0 0 20 20" fill="none" xmlns="http://www.w3.org/2000/svg">
<path fill-rule="evenodd" clip-rule="evenodd" d="M17.1246 18.7334C17.868 18.7334 18.3515 17.9511 18.019 17.2862L11.0112 3.2705C10.6426 2.53345 9.59083 2.53345 9.22231 3.2705L2.21447 17.2862C1.88202 17.9511 2.36551 18.7334 3.1089 18.7334H17.1246ZM9.2066 13.9642H11.027C11.1758 13.9642 11.2854 13.9329 11.3558 13.8703C11.4263 13.7998 11.4655 13.6902 11.4733 13.5414L11.6377 9.00805C11.6455 8.85928 11.6181 8.75358 11.5555 8.69094C11.4929 8.62048 11.3872 8.58524 11.2384 8.58524H8.9952C8.84644 8.58524 8.74074 8.62048 8.6781 8.69094C8.61547 8.75358 8.58806 8.85928 8.59589 9.00805L8.77206 13.5414C8.77989 13.6902 8.81512 13.7998 8.87776 13.8703C8.94823 13.9329 9.05784 13.9642 9.2066 13.9642ZM9.04218 17.0413H11.2032C11.3519 17.0413 11.4576 17.0099 11.5203 16.9473C11.5907 16.8768 11.626 16.7672 11.626 16.6185V15.0799C11.626 14.9312 11.5907 14.8255 11.5203 14.7628C11.4576 14.6924 11.3519 14.6571 11.2032 14.6571H9.04218C8.89342 14.6571 8.7838 14.6924 8.71334 14.7628C8.6507 14.8255 8.61938 14.9312 8.61938 15.0799V16.6185C8.61938 16.7672 8.6507 16.8768 8.71334 16.9473C8.7838 17.0099 8.89342 17.0413 9.04218 17.0413Z" fill="#FF0000"/>
</svg>
