<svg width="31" height="31" viewBox="0 0 31 31" fill="none" xmlns="http://www.w3.org/2000/svg">
<g clip-path="url(#clip0_1_54)">
<path opacity="0.8" d="M15.5 30.1C14.8 30.1 14.3 29.5 14.3 28.9V24.8C14.3 24.1 14.9 23.6 15.5 23.6C16.2 23.6 16.7 24.2 16.7 24.8V28.9C16.7 29.6 16.2 30.1 15.5 30.1Z" fill="#FF0000"/>
<path opacity="0.9" d="M7.59999 27.6C7.29999 27.6 7.09999 27.5 6.89999 27.4C6.29999 27 6.19999 26.2 6.59999 25.7L9.49999 21.7C9.89999 21.1 10.7 21 11.2 21.4C11.8 21.8 11.9 22.6 11.5 23.1L8.59999 27.1C8.39999 27.4 7.99999 27.6 7.59999 27.6Z" fill="#FF0000"/>
<path opacity="0.7" d="M23.4 27.6C23 27.6 22.6 27.4 22.4 27.1L20.5 24.4C20.1 23.8 20.2 23.1 20.8 22.7C21.4 22.3 22.1 22.4 22.5 23L24.4 25.7C24.8 26.3 24.7 27 24.1 27.4C23.9 27.5 23.6 27.6 23.4 27.6Z" fill="#FF0000"/>
<path d="M2.80001 20.9C2.30001 20.9 1.80001 20.6 1.60001 20C1.40001 19.4 1.70001 18.7 2.40001 18.4L7.90001 16.6C8.50001 16.5 9.20001 16.8 9.40001 17.5C9.60001 18.1 9.30001 18.8 8.60001 19.1L3.10001 20.9C3.00001 20.8 2.90001 20.9 2.80001 20.9Z" fill="#FF0000"/>
<path opacity="0.6" d="M28.2 20.9C28.1 20.9 27.9 20.9 27.8 20.8L25.5 20C24.9 19.8 24.5 19.1 24.7 18.4C24.9 17.8 25.6 17.4 26.3 17.6L28.6 18.4C29.2 18.6 29.6 19.3 29.4 20C29.2 20.5 28.7 20.9 28.2 20.9Z" fill="#FF0000"/>
<path d="M9.00002 14.6C8.90002 14.6 8.70002 14.6 8.60002 14.5L2.30002 12.5C1.70002 12.3 1.30002 11.6 1.50002 10.9C1.70002 10.3 2.40002 9.9 3.10002 10.1L9.40002 12.1C10 12.3 10.4 13 10.2 13.7C10 14.3 9.60002 14.6 9.00002 14.6Z" fill="#FF0000"/>
<path opacity="0.5" d="M26.7 13.1C26.2 13.1 25.7 12.8 25.5 12.2C25.3 11.6 25.6 10.9 26.3 10.6L27.9 10.1C28.6 9.90001 29.2 10.2 29.5 10.9C29.7 11.5 29.4 12.2 28.7 12.5L27.1 13C26.9 13.1 26.8 13.1 26.7 13.1Z" fill="#FF0000"/>
<path d="M12 11.9C11.6 11.9 11.2 11.7 11 11.4L6.6 5.40002C6.2 4.90002 6.4 4.10002 6.9 3.70002C7.5 3.30002 8.2 3.40002 8.6 4.00002L13 10C13.4 10.6 13.3 11.3 12.7 11.7C12.5 11.8 12.2 11.9 12 11.9Z" fill="#FF0000"/>
<path d="M15.5 11.6C14.8 11.6 14.3 11 14.3 10.4V2.10002C14.3 1.40002 14.9 0.900024 15.5 0.900024C16.2 0.900024 16.7 1.50002 16.7 2.10002V10.3C16.7 11 16.2 11.6 15.5 11.6Z" fill="#FF0000"/>
<path opacity="0.4" d="M22.9 6.60002C22.6 6.60002 22.4 6.50002 22.2 6.40002C21.6 6.00002 21.5 5.20002 21.9 4.70002L22.4 4.00002C22.8 3.40002 23.6 3.30002 24.1 3.70002C24.7 4.10002 24.8 4.90002 24.4 5.40002L23.9 6.10002C23.6 6.40002 23.3 6.60002 22.9 6.60002Z" fill="#FF0000"/>
</g>
<defs>
<clipPath id="clip0_1_54">
<rect width="30" height="30" fill="white" transform="translate(0.5 0.5)"/>
</clipPath>
</defs>
</svg>
