<svg width="15" height="15" viewBox="0 0 15 15" fill="none" xmlns="http://www.w3.org/2000/svg">
<path d="M3.19409 6.52739C3.19409 3.70902 5.76408 3.42578 7.63452 3.42578C9.50496 3.42578 12.075 3.70902 12.075 6.52739V10.4554C12.075 11.0076 11.6643 11.4554 11.1577 11.4554H4.11138C3.60478 11.4554 3.19409 11.0076 3.19409 10.4554V6.52739Z" fill="#FF0000"/>
<path d="M7.63477 2.68732C9.6965 2.68736 12.4296 3.25767 12.4297 6.35333L12.5293 10.6688C12.5291 11.2751 12.0766 11.7662 11.5186 11.7664H3.75098C3.19268 11.7664 2.74045 11.2752 2.74023 10.6688L2.83984 6.35333C2.83995 3.25755 5.57301 2.68732 7.63477 2.68732Z" fill="#FF0000"/>
<path d="M13.9704 9.18396C14.1177 8.91643 14.4263 8.8362 14.6598 9.00492C14.8932 9.17371 14.9632 9.52737 14.8161 9.79492L14.2184 9.363C14.2666 9.39786 14.3244 9.43973 14.3932 9.48944C14.816 9.79485 14.8153 9.79564 14.8151 9.79604V9.79716L14.8141 9.79828C14.8134 9.79959 14.8121 9.80112 14.8112 9.80275C14.8093 9.80608 14.807 9.81046 14.8044 9.81506C14.799 9.82419 14.7924 9.8359 14.7838 9.84975C14.7666 9.87783 14.7419 9.91514 14.7106 9.96053C14.6481 10.0513 14.5567 10.1741 14.4313 10.3175C14.1801 10.6048 13.7949 10.9744 13.2399 11.3391C12.1265 12.0706 10.3516 12.768 7.6442 12.768C4.9367 12.768 3.16189 12.0706 2.04849 11.3391C1.49344 10.9744 1.10828 10.6048 0.857089 10.3175C0.731611 10.1739 0.639379 10.0513 0.576815 9.96053C0.545621 9.91525 0.521788 9.87778 0.504549 9.84975C0.495926 9.83573 0.488411 9.82425 0.483065 9.81506C0.480428 9.81053 0.47809 9.80604 0.476229 9.80275C0.475387 9.80126 0.474956 9.7995 0.474276 9.79828L0.472323 9.79604C0.472103 9.79564 0.472226 9.795 0.895175 9.48944C0.964079 9.43966 1.02171 9.3979 1.06998 9.363L0.472323 9.79492C0.32505 9.52727 0.394988 9.17368 0.628573 9.00492C0.862015 8.83628 1.16966 8.91671 1.31705 9.18396L1.32193 9.18955C1.32904 9.20112 1.34226 9.22249 1.36197 9.2511C1.40141 9.30831 1.46701 9.39738 1.56314 9.50734C1.75548 9.72733 2.07128 10.0338 2.54557 10.3455C3.49167 10.967 5.09195 11.6222 7.6442 11.6222C10.1962 11.6222 11.7957 10.967 12.7419 10.3455C13.2164 10.0337 13.5329 9.72738 13.7253 9.50734C13.8215 9.39727 13.887 9.30831 13.9264 9.2511C13.9461 9.22249 13.9594 9.20112 13.9665 9.18955L13.9704 9.18396Z" fill="#FF0000"/>
</svg>
