<svg width="18" height="18" viewBox="0 0 18 18" fill="none" xmlns="http://www.w3.org/2000/svg">
<path fill-rule="evenodd" clip-rule="evenodd" d="M12.5557 14.4421C11.534 15.111 10.3124 15.5 9 15.5C5.41015 15.5 2.5 12.5899 2.5 9C2.5 7.68759 2.88896 6.46602 3.55789 5.44428L12.5557 14.4421ZM14.4422 12.5556L5.44435 3.55784C6.46607 2.88894 7.68762 2.5 9 2.5C12.5899 2.5 15.5 5.41015 15.5 9C15.5 10.3124 15.1111 11.5339 14.4422 12.5556ZM18 9C18 13.9706 13.9706 18 9 18C4.02944 18 0 13.9706 0 9C0 4.02944 4.02944 0 9 0C13.9706 0 18 4.02944 18 9Z" fill="#FF0000"/>
</svg>
