<svg width="18" height="18" viewBox="0 0 18 18" fill="none" xmlns="http://www.w3.org/2000/svg">
<path d="M0.5 1.5H17.5V4.5H0.5V1.5Z" fill="#D9D9D9"/>
<path d="M0.5 15.5H17.5V16.5H0.5V15.5Z" fill="#D9D9D9"/>
<path d="M0.5 11.5H17.5V12.5H0.5V11.5Z" fill="#D9D9D9"/>
<path d="M0.5 7.5H17.5V8.5H0.5V7.5Z" fill="#D9D9D9"/>
<path d="M16.5 3.5H17.5V15.5H16.5V3.5Z" fill="#D9D9D9"/>
<path d="M0.5 3.5H1.5V15.5H0.5V3.5Z" fill="#D9D9D9"/>
<path d="M4.5 3.5H5.5V15.5H4.5V3.5Z" fill="#D9D9D9"/>
<path d="M8.5 3.5H9.5V15.5H8.5V3.5Z" fill="#D9D9D9"/>
<path d="M6 5H8V7H6V5Z" fill="#D9D9D9"/>
<path d="M12.5 3.5H13.5V15.5H12.5V3.5Z" fill="#D9D9D9"/>
</svg>
