<svg width="18" height="19" viewBox="0 0 18 19" fill="none" xmlns="http://www.w3.org/2000/svg">
<path d="M4.01108 1.73433C3.32225 1.04551 2.20545 1.04551 1.51662 1.73433C0.827793 2.42316 0.827793 3.53997 1.51662 4.22879L6.50554 9.21771L1.51662 14.2066C0.827794 14.8955 0.827793 16.0123 1.51662 16.7011C2.20545 17.3899 3.32225 17.3899 4.01108 16.7011L9 11.7122L13.9889 16.7011C14.6777 17.3899 15.7946 17.3899 16.4834 16.7011C17.1722 16.0123 17.1722 14.8955 16.4834 14.2066L11.4945 9.21771L16.4834 4.22879C17.1722 3.53997 17.1722 2.42316 16.4834 1.73433C15.7946 1.04551 14.6777 1.04551 13.9889 1.73433L9 6.72325L4.01108 1.73433Z" fill="black"/>
</svg>
