<svg width="18" height="19" viewBox="0 0 18 19" fill="none" xmlns="http://www.w3.org/2000/svg">
<path fill-rule="evenodd" clip-rule="evenodd" d="M16.6423 0.939637C17.1946 0.939637 17.6423 1.38735 17.6423 1.93964V5.93964C17.6423 6.49192 17.1946 6.93964 16.6423 6.93964C16.09 6.93964 15.6423 6.49192 15.6423 5.93964V4.35385L3.92392 16.0722L5.50971 16.0722C6.06199 16.0722 6.50971 16.52 6.50971 17.0722C6.50971 17.6245 6.06199 18.0722 5.50971 18.0722H1.50971C0.957423 18.0722 0.509707 17.6245 0.509707 17.0722L0.509705 13.0722C0.509704 12.52 0.95742 12.0722 1.5097 12.0722C2.06199 12.0722 2.5097 12.52 2.5097 13.0722L2.50971 14.658L14.2281 2.93964L12.6423 2.93964C12.09 2.93964 11.6423 2.49192 11.6423 1.93964C11.6423 1.38735 12.09 0.939636 12.6423 0.939636L16.6423 0.939637Z" fill="black"/>
<path fill-rule="evenodd" clip-rule="evenodd" d="M0.509705 1.93967C0.509705 1.38738 0.957421 0.939666 1.50971 0.939666L5.50971 0.939666C6.06199 0.939666 6.50971 1.38738 6.50971 1.93967C6.50971 2.49195 6.06199 2.93967 5.50971 2.93967H3.92392L15.6423 14.6581L15.6423 13.0723C15.6423 12.52 16.09 12.0723 16.6423 12.0723C17.1946 12.0723 17.6423 12.52 17.6423 13.0723V17.0723C17.6423 17.6246 17.1946 18.0723 16.6423 18.0723L12.6423 18.0723C12.09 18.0723 11.6423 17.6246 11.6423 17.0723C11.6423 16.52 12.09 16.0723 12.6423 16.0723L14.2281 16.0723L2.50971 4.35388L2.50971 5.93967C2.50971 6.49195 2.06199 6.93967 1.50971 6.93967C0.95742 6.93967 0.509705 6.49195 0.509705 5.93967L0.509705 1.93967Z" fill="black"/>
</svg>
