<svg width="370" height="370" viewBox="0 0 370 370" fill="none" xmlns="http://www.w3.org/2000/svg">
<path fill-rule="evenodd" clip-rule="evenodd" d="M185 370C287.173 370 370 287.173 370 185C370 82.8273 287.173 0 185 0C82.8273 0 0 82.8273 0 185C0 287.173 82.8273 370 185 370ZM145.76 233.644L234.337 221.517C249.809 219.331 262.12 214.306 271.272 206.439C280.424 198.572 285 185.461 285 167.106V132.689C285 114.115 279.008 99.9111 267.023 90.0778C255.038 80.0259 238.478 75 217.341 75H111.767C107.627 75 104.576 75.9833 102.615 77.95C100.872 79.6982 100 82.6482 100 86.8V126.461C100 130.613 100.872 133.672 102.615 135.639C104.576 137.387 107.627 138.261 111.767 138.261H201.979C204.812 138.261 206.991 139.026 208.516 140.556C210.041 142.085 210.804 144.38 210.804 147.439C210.804 150.717 210.15 153.12 208.843 154.65C207.535 156.18 205.247 157.163 201.979 157.6L136.935 166.778C132.794 167.215 129.744 168.526 127.783 170.711C126.039 172.896 125.495 176.065 126.148 180.217L133.012 223.483C133.666 227.635 134.865 230.476 136.608 232.006C138.569 233.535 141.62 234.081 145.76 233.644ZM137.915 311H197.73C201.87 311 204.812 310.126 206.555 308.378C208.516 306.411 209.496 303.352 209.496 299.2V256.261C209.496 252.109 208.516 249.159 206.555 247.411C204.812 245.444 201.87 244.461 197.73 244.461H137.915C133.775 244.461 130.724 245.444 128.763 247.411C127.02 249.159 126.148 252.109 126.148 256.261V299.2C126.148 303.352 127.02 306.411 128.763 308.378C130.724 310.126 133.775 311 137.915 311Z" fill="black"/>
</svg>
