<?xml version="1.0" encoding="utf-8"?>
<!-- Generator: Adobe Illustrator 27.5.0, SVG Export Plug-In . SVG Version: 6.00 Build 0)  -->
<svg version="1.1" id="Layer_1" xmlns="http://www.w3.org/2000/svg" xmlns:xlink="http://www.w3.org/1999/xlink" x="0px" y="0px"
	 viewBox="0 0 75.2 61.6" style="enable-background:new 0 0 75.2 61.6;" xml:space="preserve">
<path d="M73.8,23.8L51.2,1.3c-0.2-0.2-0.5-0.4-0.7-0.6c0,0,0,0,0,0c-0.3-0.2-0.5-0.3-0.8-0.4c0,0,0,0-0.1,0C49.4,0.1,49.1,0,48.8,0
	c0,0,0,0-0.1,0c-0.6-0.1-1.3-0.1-2,0c0,0,0,0-0.1,0c-0.3,0.1-0.6,0.2-0.9,0.3c0,0,0,0-0.1,0c-0.3,0.1-0.5,0.3-0.8,0.4c0,0,0,0,0,0
	c-0.2,0.2-0.5,0.4-0.7,0.6C44,1.5,43.8,1.8,43.6,2c0,0,0,0,0,0c-0.2,0.3-0.3,0.5-0.4,0.8c0,0,0,0,0,0.1C43,3.2,43,3.5,42.9,3.8
	c0,0,0,0,0,0.1c-0.1,0.3-0.1,0.7-0.1,1V11c-8.2,1.3-33.4,7-40.2,28.4C-4.5,61.8,6,64.2,7,59.8c1.2-5.3,6.3-18.9,35.8-19.4v9.3
	c0,0,0,0,0,0c0,1.3,0.5,2.6,1.4,3.6c1.9,1.9,5.1,1.9,7,0l22.5-22.5C75.7,28.9,75.7,25.8,73.8,23.8z"/>
</svg>
