<svg width="370" height="370" viewBox="0 0 370 370" fill="none" xmlns="http://www.w3.org/2000/svg">
<g clip-path="url(#clip0_1_35)">
<path fill-rule="evenodd" clip-rule="evenodd" d="M184.5 0.5C83.5 0.5 0.5 83.5 0.5 184.5C0.5 286.5 83.5 369.5 184.5 369.5C286.5 369.5 369.5 286.5 369.5 184.5C369.5 83.5 286.5 0.5 184.5 0.5ZM202.2 69C219.9 69 233 78.3 233 96C233 114.7 217.5 128.6 197.9 128.6C182.4 128.6 167.4 119.9 167.4 101.6C167.4 84.2 182.6 69 202.2 69ZM196.6 309.6C164.9 309.6 144.4 291.6 144.4 263C144.4 256.8 145.6 250.6 147.5 243.7L161.8 189H112.7L120.8 150.5H219.6L196.6 245.6C196 248.1 195.4 250.6 195.4 253.1C195.4 264.6 202.2 269.3 212.2 269.3C219 269.3 225.3 267.4 234.6 263.7L244.5 301C230.8 306.5 216.5 309.6 196.6 309.6Z" fill="#FF0000"/>
</g>
<defs>
<clipPath id="clip0_1_35">
<rect width="369" height="369" fill="white" transform="translate(0.5 0.5)"/>
</clipPath>
</defs>
</svg>
