<svg width="885" height="1280" viewBox="0 0 885 1280" fill="none" xmlns="http://www.w3.org/2000/svg">
<g clip-path="url(#clip0_1_4)">
<path d="M791.6 298L790.7 297.5L788.7 296.9C789.5 297.6 790.5 298 791.6 298Z" fill="#FF0000"/>
<path d="M792 297.9C791.9 297.9 791.8 297.9 791.6 297.8C791.6 297.9 791.6 298 791.6 298C791.8 298 791.9 298 792 297.9Z" fill="#FF0000"/>
<path d="M791.6 298H791.7V297.9L791.6 298Z" fill="#FF0000"/>
<path d="M803.6 389.2L805.1 388.4L805.7 388.1L806.2 387.6C805.2 387.9 804.3 388.5 803.6 389.2Z" fill="#FF0000"/>
<path d="M794.2 300L792.8 298.6L791.8 298.1C792.3 299 793.1 299.7 794.2 300Z" fill="#FF0000"/>
<path d="M430.5 1186.7C429.3 1187.2 428.3 1188 427.6 1189L428.5 1188.4C429.1 1187.8 430 1187.1 430.5 1186.7Z" fill="#FF0000"/>
<path d="M641.7 1145.1C641.7 1143.8 641.1 1144 641.2 1148.7C641.2 1148.3 641.4 1147.9 641.4 1147.6C641.5 1146.8 641.6 1146 641.7 1145.1Z" fill="#FF0000"/>
<path d="M619.8 1186.7C618.6 1187.2 617.6 1188 616.9 1189L617.8 1188.4C618.4 1187.8 619.3 1187.1 619.8 1186.7Z" fill="#FF0000"/>
<path d="M281.8 1196.6C280.9 1195.8 279.9 1195.3 278.7 1195.1C279.6 1195.6 280.6 1196 281.2 1196.3L281.8 1196.6Z" fill="#FF0000"/>
<path d="M248.3 1164.5C248.2 1163.2 247.7 1161.8 247.1 1160.7C247.6 1161.9 248 1163.2 248.3 1164.5Z" fill="#FF0000"/>
<path d="M473.1 591.3C427.2 611 375 633.3 307.5 633.3C279.2 633.2 251.1 629.4 223.9 621.8L270.6 1101.6C272.3 1121.7 281.4 1140.4 296.2 1154C311 1167.6 330.4 1175.2 350.5 1175.2C350.5 1175.2 416.8 1178.6 438.9 1178.6C462.7 1178.6 534.1 1175.2 534.1 1175.2C554.2 1175.2 573.6 1167.6 588.4 1154C603.2 1140.4 612.3 1121.7 614 1101.6L664.1 571.4C641.7 563.8 619.2 558.7 593.7 558.7C549.6 558.6 514.1 573.8 473.1 591.3Z" fill="#FF0000"/>
<path d="M79.2 386.6L80 387.3L80.5 387.6C80.1 387.3 79.7 386.9 79.2 386.6Z" fill="#FF0000"/>
<path d="M880.1 342.3L873.1 306.8C866.8 275 852.5 244.9 819.8 233.3C809.3 229.6 797.4 228 789.4 220.4C781.4 212.8 779 200.9 777.1 190C773.7 169.9 770.4 149.7 766.9 129.6C763.9 112.3 761.4 92.8999 753.5 76.9999C743.2 55.6999 721.8 43.1999 700.5 34.9999C689.6 30.8999 678.4 27.4999 667.1 24.6999C613.8 10.6999 557.8 5.49995 503.1 2.59995C437.4 -1.00005 371.5 0.0999455 305.9 5.89995C257.1 10.2999 205.7 15.6999 159.4 32.4999C142.5 38.6999 125 46.0999 112.1 59.1999C96.3 75.2999 91.1 100.2 102.7 120.2C110.9 134.4 124.8 144.5 139.6 151.2C158.8 159.8 178.9 166.3 199.4 170.7C256.7 183.4 316 188.3 374.6 190.5C439.5 193.1 504.5 191 569 184.1C585 182.3 600.9 180.2 616.8 177.8C635.5 174.9 647.6 150.4 642 133.4C635.4 113 617.6 105.1 597.6 108.2C594.6 108.7 591.7 109.1 588.7 109.5L586.6 109.8C579.8 110.7 573 111.5 566.2 112.2C552.1 113.7 538.1 115 523.9 115.9C492.3 118.1 460.6 119.1 428.9 119.2C397.8 119.2 366.6 118.3 335.5 116.3C321.3 115.4 307.2 114.2 293.1 112.8C286.7 112.1 280.3 111.4 273.9 110.6L267.8 109.8L266.5 109.6L260.2 108.7C247.3 106.8 234.4 104.5 221.6 101.8C220.3 101.5 219.2 100.8 218.3 99.7999C217.5 98.7999 217 97.4999 217 96.1999C217 94.8999 217.5 93.5999 218.3 92.5999C219.1 91.5999 220.3 90.8999 221.6 90.5999H221.8C232.9 88.1999 244 86.1999 255.2 84.4999C258.9 83.8999 262.7 83.2999 266.4 82.7999H266.5C273.5 82.2999 280.5 81.0999 287.5 80.2999C348.1 73.9999 409.1 71.7999 470 73.8999C499.6 74.7999 529.1 76.4999 558.6 79.4999C564.9 80.1999 571.2 80.7999 577.5 81.5999C579.9 81.8999 582.3 82.1999 584.8 82.4999L589.7 83.1999C603.9 85.2999 618.1 87.8999 632.2 90.8999C653.1 95.3999 679.9 96.9 689.2 119.8C692.2 127.1 693.5 135.1 695.1 142.8L697.2 152.5C697.3 152.7 697.3 152.9 697.3 153C702.2 175.9 707.1 198.9 712.1 221.8C712.5 223.5 712.5 225.2 712.1 226.9C711.8 228.6 711.1 230.2 710.1 231.6C709.1 233 707.8 234.2 706.4 235.1C704.9 236 703.3 236.6 701.6 236.8H701.5L698.5 237.2L695.5 237.6C686.1 238.8 676.6 240 667.2 241C648.6 243.1 629.9 245 611.3 246.5C574.2 249.6 537 251.6 499.7 252.6C480.7 253.1 461.7 253.3 442.8 253.3C367.3 253.2 291.8 248.9 216.8 240.2C208.7 239.2 200.6 238.2 192.4 237.2C198.7 238 187.8 236.6 185.6 236.3C180.4 235.6 175.3 234.8 170.1 234C152.8 231.4 135.5 228.2 118.3 225.4C97.4 222 77.4 223.7 58.5 234C43 242.5 30.4 255.5 22.5 271.3C14.3 288.2 11.9 306.5 8.29999 324.6C4.69999 342.7 -1.00001 362.2 1.09999 380.8C5.69999 420.9 33.8 453.6 74.2 460.9C112.2 467.8 150.4 473.4 188.6 478.1C339 496.5 490.9 498.7 641.8 484.7C654.1 483.6 666.4 482.3 678.6 480.9C682.4 480.5 686.3 480.9 689.9 482.2C693.5 483.5 696.8 485.5 699.6 488.2C702.3 490.9 704.4 494.2 705.7 497.8C707 501.4 707.5 505.3 707.1 509.1L703.3 546.2C695.6 621.2 687.9 696.3 680.2 771.3C672.2 850.1 664.1 928.9 656 1007.6C653.7 1029.8 651.4 1052 649.1 1074.1C646.9 1095.9 646.6 1118.5 642.4 1140C635.9 1173.9 612.9 1194.8 579.4 1202.4C548.7 1209.4 517.3 1213.1 485.8 1213.3C450.9 1213.5 416 1211.9 381.1 1212.1C343.8 1212.3 298.2 1208.9 269.4 1181.1C244.1 1156.7 240.6 1118.6 237.2 1085.6C232.6 1041.9 228.1 998.3 223.6 954.6L198.3 711.8L181.9 554.7C181.6 552.1 181.3 549.5 181.1 546.9C179.1 528.2 165.9 509.8 145 510.8C127.1 511.6 106.8 526.8 108.9 546.9L121 663.4L146.1 904.3C153.2 972.7 160.4 1041.2 167.5 1109.6C168.9 1122.7 170.2 1135.9 171.6 1149C179.5 1220.7 234.2 1259.3 301.9 1270.1C341.5 1276.5 382 1277.8 422.2 1278.4C473.7 1279.2 525.7 1281.2 576.3 1271.9C651.3 1258.1 707.6 1208 715.7 1130.3C718 1107.9 720.3 1085.4 722.6 1063C730.2 988.8 737.8 914.5 745.4 840.3L770.3 597.7L781.5 486.8C782.1 481.3 784.4 476.1 788.1 472C791.8 467.9 796.8 465.1 802.2 464.1C823.7 459.9 844.2 452.8 859.4 436.4C883.8 410.4 888.7 376.5 880.1 342.3ZM72.9 366.3C73.2 366.1 72.6 368.9 72.4 370.3C72.3 368.3 72.4 366.6 72.9 366.3ZM75 382.4C75.2 382.3 75.7 383 76.2 383.8C75.4 383.1 74.9 382.5 75 382.4ZM77.1 385.1C78.2 387.2 77.8 386.4 77.1 385.1ZM81.2 388.5H81.3C81.3 388.6 81.5 388.7 81.6 388.9C81.4 388.7 81.3 388.6 81.2 388.5ZM801.3 383.5C793.6 390.8 782 394.2 770.5 395.9C641.8 415 511.2 424.7 381.1 420.4C288 417.2 195.8 406.9 103.6 393.8C94.6 392.5 84.8 390.9 78.6 384.2C66.9 371.6 72.6 346.3 75.7 331.2C78.5 317.3 83.8 298.8 100.4 296.8C126.2 293.8 156.2 304.7 181.7 308.5C212.4 313.2 243.3 316.9 274.3 319.8C406.5 331.8 540.9 330 672.5 312.4C696.5 309.2 720.4 305.4 744.2 301.2C765.4 297.4 788.9 290.3 801.8 312.2C810.6 327.2 811.8 347.2 810.4 364.1C809.9 371.5 806.6 378.4 801.3 383.5Z" fill="#FF0000"/>
</g>
<defs>
<clipPath id="clip0_1_4">
<rect width="884" height="1279" fill="white" transform="translate(0.5 0.5)"/>
</clipPath>
</defs>
</svg>
