<svg width="101" height="81" viewBox="0 0 101 81" fill="none" xmlns="http://www.w3.org/2000/svg">
<g clip-path="url(#clip0_1_30)">
<path d="M50.5 0.5C22.9 0.5 0.5 40.5 0.5 40.5C0.5 40.5 22.9 80.5 50.5 80.5C78.1 80.5 100.5 40.5 100.5 40.5C100.5 40.5 78.1 0.5 50.5 0.5ZM50.5 66C36.4 66 25 54.6 25 40.5C25 26.4 36.4 15 50.5 15C64.6 15 76 26.4 76 40.5C76 54.6 64.6 66 50.5 66Z" fill="#FF0000"/>
<path d="M50.5 52.3C44 52.3 38.7 47.1 38.7 40.5C38.7 33.9 43.9 28.7 50.5 28.7C57.1 28.7 62.3 33.9 62.3 40.5C62.3 47.1 57 52.3 50.5 52.3Z" fill="#FF0000"/>
</g>
<defs>
<clipPath id="clip0_1_30">
<rect width="100" height="80" fill="white" transform="translate(0.5 0.5)"/>
</clipPath>
</defs>
</svg>
