<svg width="19" height="20" viewBox="0 0 19 20" fill="none" xmlns="http://www.w3.org/2000/svg">
<g clip-path="url(#clip0_1_21)">
<path fill-rule="evenodd" clip-rule="evenodd" d="M17.1423 1.43964C17.6946 1.43964 18.1423 1.88735 18.1423 2.43964V6.43964C18.1423 6.99192 17.6946 7.43964 17.1423 7.43964C16.59 7.43964 16.1423 6.99192 16.1423 6.43964V4.85385L4.42392 16.5722H6.00971C6.56199 16.5722 7.00971 17.02 7.00971 17.5722C7.00971 18.1245 6.56199 18.5722 6.00971 18.5722H2.00971C1.45742 18.5722 1.00971 18.1245 1.00971 17.5722L1.0097 13.5722C1.0097 13.02 1.45742 12.5722 2.0097 12.5722C2.56199 12.5722 3.0097 13.02 3.0097 13.5722L3.00971 15.158L14.7281 3.43964H13.1423C12.59 3.43964 12.1423 2.99192 12.1423 2.43964C12.1423 1.88735 12.59 1.43964 13.1423 1.43964L17.1423 1.43964Z" fill="#FF0000"/>
<path fill-rule="evenodd" clip-rule="evenodd" d="M1.0097 2.43967C1.0097 1.88738 1.45742 1.43967 2.00971 1.43967H6.00971C6.56199 1.43967 7.00971 1.88738 7.00971 2.43967C7.00971 2.99195 6.56199 3.43967 6.00971 3.43967H4.42392L16.1423 15.1581V13.5723C16.1423 13.02 16.59 12.5723 17.1423 12.5723C17.6946 12.5723 18.1423 13.02 18.1423 13.5723V17.5723C18.1423 18.1246 17.6946 18.5723 17.1423 18.5723H13.1423C12.59 18.5723 12.1423 18.1246 12.1423 17.5723C12.1423 17.02 12.59 16.5723 13.1423 16.5723H14.7281L3.00971 4.85388V6.43967C3.00971 6.99195 2.56199 7.43967 2.00971 7.43967C1.45742 7.43967 1.0097 6.99195 1.0097 6.43967V2.43967Z" fill="#FF0000"/>
</g>
<defs>
<clipPath id="clip0_1_21">
<rect width="18" height="19" fill="white" transform="translate(0.5 0.5)"/>
</clipPath>
</defs>
</svg>
