<svg width="18" height="18" viewBox="0 0 18 18" fill="none" xmlns="http://www.w3.org/2000/svg">
<path fill-rule="evenodd" clip-rule="evenodd" d="M7.57222 2.19441V6.19441C7.57222 6.7467 7.1245 7.19441 6.57222 7.19441L2.57222 7.19441C2.01993 7.19441 1.57222 6.7467 1.57222 6.19441C1.57222 5.64213 2.01994 5.19441 2.57222 5.19441L4.15801 5.19441L0.802613 1.83902C0.412089 1.4485 0.412089 0.815329 0.802613 0.424805C1.19314 0.0342804 1.8263 0.0342803 2.21683 0.424805L5.57222 3.7802V2.19441C5.57222 1.64213 6.01994 1.19441 6.57222 1.19441C7.1245 1.19441 7.57222 1.64213 7.57222 2.19441ZM11.5798 7.19441H15.5799C16.1321 7.19441 16.5798 6.7467 16.5798 6.19441C16.5798 5.64213 16.1321 5.19441 15.5798 5.19441H13.9941L17.3495 1.83902C17.74 1.44849 17.74 0.81533 17.3495 0.424805C16.9589 0.0342812 16.3258 0.0342812 15.9352 0.424805L12.5798 3.7802L12.5799 2.19441C12.5798 1.64213 12.1321 1.19441 11.5798 1.19441C11.0276 1.19441 10.5798 1.64213 10.5799 2.19441L10.5798 6.19441C10.5798 6.7467 11.0276 7.19441 11.5798 7.19441ZM6.57222 10.202H2.57222C2.01994 10.202 1.57222 10.6498 1.57222 11.202C1.57222 11.7543 2.01994 12.202 2.57222 12.202H4.15801L0.802612 15.5574C0.412088 15.948 0.412088 16.5811 0.802612 16.9716C1.19314 17.3622 1.8263 17.3622 2.21683 16.9716L5.57222 13.6163L5.57222 15.202C5.57222 15.7543 6.01994 16.202 6.57222 16.202C7.1245 16.202 7.57222 15.7543 7.57222 15.202L7.57222 11.202C7.57222 10.6498 7.12451 10.202 6.57222 10.202ZM10.5798 11.202V15.202C10.5798 15.7543 11.0276 16.202 11.5798 16.202C12.1321 16.202 12.5798 15.7543 12.5798 15.202V13.6163L15.9352 16.9716C16.3258 17.3622 16.9589 17.3622 17.3495 16.9716C17.74 16.5811 17.74 15.948 17.3495 15.5574L13.9941 12.202L15.5798 12.202C16.1321 12.202 16.5798 11.7543 16.5798 11.202C16.5798 10.6498 16.1321 10.202 15.5799 10.202L11.5798 10.202C11.0276 10.202 10.5798 10.6498 10.5798 11.202Z" fill="black"/>
</svg>
