<svg width="380" height="379" viewBox="0 0 380 379" fill="none" xmlns="http://www.w3.org/2000/svg">
<path d="M380 190C380 269.099 331.665 336.909 262.92 365.504C253.755 369.316 244.18 362.197 244.18 352.271V332.608C244.18 326.58 247.86 321.215 253.267 318.549C300.647 295.186 333.242 246.399 333.242 190C333.242 110.89 269.11 46.7578 190 46.7578C110.89 46.7578 46.7578 110.89 46.7578 190C46.7578 237.951 70.3189 280.398 106.496 306.398C115.42 312.811 126.914 305.795 126.914 294.806L126.914 117.368C126.914 113.676 127.686 111.053 129.229 109.498C130.966 107.749 133.667 106.875 137.333 106.875L258.995 106.875C262.661 106.875 265.266 107.749 266.809 109.498C268.546 111.053 269.414 113.676 269.414 117.368V152.053C269.414 155.745 268.546 158.466 266.809 160.214C265.266 161.769 262.661 162.546 258.995 162.546H187.418C186.188 162.546 185.192 163.543 185.192 164.773V190.633C185.192 191.862 186.188 192.859 187.418 192.859L235.551 192.859C239.217 192.859 241.822 193.734 243.366 195.483C245.102 197.037 245.971 199.66 245.971 203.352V238.329C245.971 242.021 245.102 244.741 243.366 246.49C241.822 248.045 239.217 248.822 235.551 248.822H187.418C186.188 248.822 185.192 249.819 185.192 251.049V339.819C185.192 340.593 185.153 341.324 185.077 342.012C184.955 343.113 184.805 344.214 184.805 345.321V364.683C184.805 373.037 177.889 379.803 169.583 378.916C74.25 368.731 0 288.036 0 190C0 85.0659 85.0659 0 190 0C294.934 0 380 85.0659 380 190Z" fill="#040B10"/>
</svg>
