<svg width="48" height="14" viewBox="0 0 48 14" fill="none" xmlns="http://www.w3.org/2000/svg">
<path fill-rule="evenodd" clip-rule="evenodd" d="M29.6396 6.77698C29.6396 9.57966 27.3676 11.8517 24.5649 11.8517C21.7623 11.8517 19.4902 9.57966 19.4902 6.77698C19.4902 3.97429 21.7623 1.70227 24.5649 1.70227C27.3676 1.70227 29.6396 3.97429 29.6396 6.77698ZM31.1396 6.77698C31.1396 10.4081 28.1961 13.3517 24.5649 13.3517C20.9338 13.3517 17.9902 10.4081 17.9902 6.77698C17.9902 3.14587 20.9338 0.202271 24.5649 0.202271C28.1961 0.202271 31.1396 3.14587 31.1396 6.77698ZM47.7701 5.81384L42.9971 1.04087C42.7042 0.747974 42.2294 0.747974 41.9365 1.04087C41.6436 1.33376 41.6436 1.80863 41.9365 2.10153L45.4291 5.59417H36.8132C36.399 5.59417 36.0632 5.92996 36.0632 6.34417C36.0632 6.75838 36.399 7.09417 36.8132 7.09417H45.4291L41.9365 10.5868C41.6436 10.8797 41.6436 11.3546 41.9365 11.6475C42.2294 11.9404 42.7042 11.9404 42.9971 11.6475L47.7701 6.8745C48.063 6.5816 48.063 6.10673 47.7701 5.81384ZM5.81588 11.6475L1.04291 6.8745C0.750019 6.58161 0.750019 6.10673 1.04291 5.81384L5.81588 1.04087C6.10878 0.747976 6.58365 0.747976 6.87654 1.04087C7.16944 1.33376 7.16944 1.80864 6.87654 2.10153L3.3839 5.59417L11.9998 5.59417C12.414 5.59417 12.7498 5.92996 12.7498 6.34417C12.7498 6.75838 12.414 7.09417 11.9998 7.09417L3.3839 7.09417L6.87654 10.5868C7.16944 10.8797 7.16944 11.3546 6.87654 11.6475C6.58365 11.9404 6.10878 11.9404 5.81588 11.6475Z" fill="#D9D9D9"/>
</svg>
