<svg width="48" height="12" viewBox="0 0 48 12" fill="none" xmlns="http://www.w3.org/2000/svg">
<path fill-rule="evenodd" clip-rule="evenodd" d="M47.7701 5.52381L42.9971 0.750844C42.7042 0.45795 42.2294 0.45795 41.9365 0.750844C41.6436 1.04374 41.6436 1.51861 41.9365 1.8115L45.4291 5.30414H36.8132C36.399 5.30414 36.0632 5.63993 36.0632 6.05414C36.0632 6.46836 36.399 6.80414 36.8132 6.80414H45.4291L41.9365 10.2968C41.6436 10.5897 41.6436 11.0646 41.9365 11.3574C42.2294 11.6503 42.7042 11.6503 42.9971 11.3574L47.7701 6.58447C48.063 6.29158 48.063 5.81671 47.7701 5.52381ZM5.81588 11.3574L1.04291 6.58448C0.750019 6.29158 0.750019 5.81671 1.04291 5.52382L5.81588 0.750845C6.10878 0.457952 6.58365 0.457952 6.87654 0.750845C7.16944 1.04374 7.16944 1.51861 6.87654 1.81151L3.3839 5.30415L11.9998 5.30415C12.414 5.30415 12.7498 5.63993 12.7498 6.05415C12.7498 6.46836 12.414 6.80415 11.9998 6.80415L3.3839 6.80415L6.87654 10.2968C7.16944 10.5897 7.16944 11.0646 6.87654 11.3574C6.58365 11.6503 6.10878 11.6503 5.81588 11.3574ZM22.276 2.68895C22.7704 2.68895 23.1712 2.28813 23.1712 1.7937C23.1712 1.29927 22.7704 0.898449 22.276 0.898449C21.7815 0.898449 21.3807 1.29927 21.3807 1.7937C21.3807 2.28813 21.7815 2.68895 22.276 2.68895ZM26.5364 2.68895C27.0308 2.68895 27.4316 2.28813 27.4316 1.7937C27.4316 1.29927 27.0308 0.898449 26.5364 0.898449C26.042 0.898449 25.6411 1.29927 25.6411 1.7937C25.6411 2.28813 26.042 2.68895 26.5364 2.68895ZM23.1712 6.05414C23.1712 6.54857 22.7704 6.94939 22.276 6.94939C21.7815 6.94939 21.3807 6.54857 21.3807 6.05414C21.3807 5.55971 21.7815 5.15889 22.276 5.15889C22.7704 5.15889 23.1712 5.55971 23.1712 6.05414ZM26.5364 6.94939C27.0308 6.94939 27.4316 6.54857 27.4316 6.05414C27.4316 5.55971 27.0308 5.15889 26.5364 5.15889C26.042 5.15889 25.6411 5.55971 25.6411 6.05414C25.6411 6.54857 26.042 6.94939 26.5364 6.94939ZM23.1712 10.3146C23.1712 10.809 22.7704 11.2098 22.276 11.2098C21.7815 11.2098 21.3807 10.809 21.3807 10.3146C21.3807 9.82015 21.7815 9.41933 22.276 9.41933C22.7704 9.41933 23.1712 9.82015 23.1712 10.3146ZM26.5364 11.2098C27.0308 11.2098 27.4316 10.809 27.4316 10.3146C27.4316 9.82015 27.0308 9.41933 26.5364 9.41933C26.042 9.41933 25.6411 9.82015 25.6411 10.3146C25.6411 10.809 26.042 11.2098 26.5364 11.2098Z" fill="#D9D9D9"/>
</svg>
