<svg width="36" height="24" viewBox="0 0 36 24" fill="none" xmlns="http://www.w3.org/2000/svg">
<path fill-rule="evenodd" clip-rule="evenodd" d="M35.084 6.57863C35.3769 6.28574 35.3769 5.81087 35.084 5.51797L30.3111 0.745002C30.0182 0.452108 29.5433 0.452108 29.2504 0.745002C28.9575 1.03789 28.9575 1.51277 29.2504 1.80566L32.743 5.2983H3.11193L6.60457 1.80566C6.89746 1.51277 6.89746 1.03789 6.60457 0.745002C6.31168 0.452108 5.8368 0.452108 5.54391 0.745002L0.770939 5.51797C0.478046 5.81087 0.478046 6.28574 0.770939 6.57863L5.54391 11.3516C5.8368 11.6445 6.31168 11.6445 6.60457 11.3516C6.89746 11.0587 6.89746 10.5838 6.60457 10.2909L3.11193 6.7983H32.743L29.2504 10.2909C28.9575 10.5838 28.9575 11.0587 29.2504 11.3516C29.5433 11.6445 30.0182 11.6445 30.3111 11.3516L35.084 6.57863ZM12.3313 10.5246C11.5191 10.9935 11.2409 12.032 11.7098 12.8442L14.5154 17.7038C13.9095 17.4923 13.3185 17.3015 12.829 17.1492C12.1106 16.9258 11.3412 17.2393 10.9651 17.8908C10.4283 18.8205 10.91 20.0115 11.9303 20.3454C12.9136 20.6672 14.0707 21.0773 14.9548 21.4848C15.8607 21.9022 16.9672 22.5413 17.8454 23.0749C18.0983 23.2286 18.3757 23.3115 18.6531 23.3289C19.0791 23.3885 19.5274 23.3117 19.9288 23.08L24.3111 20.2917C25.1836 19.788 25.5452 18.714 25.1551 17.7851L23.613 14.1139C23.1917 13.1109 22.046 12.6286 21.0342 13.0283L16.8131 14.8912L14.6509 11.1461C14.182 10.334 13.1435 10.0557 12.3313 10.5246Z" fill="black"/>
</svg>
