<svg width="36" height="29" viewBox="0 0 36 29" fill="none" xmlns="http://www.w3.org/2000/svg">
<path fill-rule="evenodd" clip-rule="evenodd" d="M34.9337 6.57863C35.2265 6.28574 35.2265 5.81087 34.9337 5.51797L30.1607 0.745002C29.8678 0.452108 29.3929 0.452108 29.1 0.745002C28.8071 1.0379 28.8071 1.51277 29.1 1.80566L32.5927 5.2983H2.96154L6.45418 1.80566C6.74707 1.51277 6.74707 1.0379 6.45418 0.745002C6.16129 0.452108 5.68641 0.452108 5.39352 0.745002L0.620548 5.51797C0.327656 5.81087 0.327656 6.28574 0.620548 6.57863L5.39352 11.3516C5.68641 11.6445 6.16129 11.6445 6.45418 11.3516C6.74707 11.0587 6.74707 10.5838 6.45418 10.2909L2.96154 6.7983H32.5927L29.1 10.2909C28.8071 10.5838 28.8071 11.0587 29.1 11.3516C29.3929 11.6445 29.8678 11.6445 30.1607 11.3516L34.9337 6.57863ZM17.4233 10.9861C14.1096 10.9861 11.4233 13.6724 11.4233 16.9861V22.52C11.4233 25.8337 14.1096 28.52 17.4233 28.52H18.1309C21.4446 28.52 24.1309 25.8337 24.1309 22.5199V16.9861C24.1309 13.6724 21.4446 10.9861 18.1309 10.9861H17.4233ZM18.1309 12.4861H17.4233C14.9381 12.4861 12.9233 14.5008 12.9233 16.9861V22.52C12.9233 25.0052 14.9381 27.02 17.4233 27.02H18.1309C20.6161 27.02 22.6309 25.0052 22.6309 22.5199V16.9861C22.6309 14.5008 20.6161 12.4861 18.1309 12.4861ZM17.6729 15.1451H17.8825C18.9871 15.1451 19.8825 16.0405 19.8825 17.1451V17.5418C19.8825 17.956 20.2183 18.2918 20.6325 18.2918C21.0467 18.2918 21.3825 17.956 21.3825 17.5418V17.1451C21.3825 15.2121 19.8155 13.6451 17.8825 13.6451H17.6729C15.7399 13.6451 14.1729 15.2121 14.1729 17.1451V17.5418C14.1729 17.956 14.5086 18.2918 14.9229 18.2918C15.3371 18.2918 15.6729 17.956 15.6729 17.5418V17.1451C15.6729 16.0405 16.5683 15.1451 17.6729 15.1451ZM14.9221 19.8134C14.5079 19.8134 14.1721 20.1492 14.1721 20.5634V22.2106C14.1721 24.1436 15.7391 25.7106 17.6721 25.7106H17.8818C17.9749 25.7106 18.0672 25.707 18.1585 25.6998C18.4719 25.6753 18.688 25.3952 18.688 25.0808L18.688 24.8712C18.6879 24.4804 18.2725 24.2106 17.8818 24.2106H17.6721C16.5675 24.2106 15.6721 23.3152 15.6721 22.2106V20.5634C15.6721 20.1492 15.3363 19.8134 14.9221 19.8134ZM18.0169 18.5554C18.086 18.1473 17.8113 17.7603 17.4032 17.6909C16.9948 17.6215 16.6075 17.8962 16.538 18.3046L16.5378 18.306L16.5367 18.3125L16.5346 18.3259L16.5322 18.342L16.5284 18.3681C16.5235 18.403 16.5174 18.4512 16.5111 18.5113C16.4985 18.6312 16.4851 18.7994 16.4803 19.0035C16.4709 19.4093 16.4949 19.9702 16.6332 20.5828C16.9127 21.8214 17.6745 23.3054 19.556 24.0714C19.9397 24.2276 20.3773 24.0432 20.5335 23.6595C20.6896 23.2759 20.5052 22.8383 20.1216 22.6821C18.8209 22.1526 18.3019 21.1633 18.0964 20.2526C17.9921 19.7906 17.9725 19.3578 17.9799 19.0386C17.9836 18.8801 17.9939 18.7529 18.0029 18.6681C18.0073 18.6258 18.0114 18.5944 18.0141 18.5751L18.0169 18.5554ZM20.6338 19.0492C20.2196 19.0492 19.8838 19.385 19.8838 19.7992V21.0523C19.8838 21.4665 20.2196 21.8023 20.6338 21.8023C21.048 21.8023 21.3838 21.4665 21.3838 21.0523V19.7992C21.3838 19.385 21.048 19.0492 20.6338 19.0492Z" fill="black"/>
</svg>
