<svg width="48" height="15" viewBox="0 0 48 15" fill="none" xmlns="http://www.w3.org/2000/svg">
<path d="M42.9971 0.440388L47.7701 5.21336C48.063 5.50625 48.063 5.98113 47.7701 6.27402L42.9971 11.047C42.7042 11.3399 42.2294 11.3399 41.9365 11.047C41.6436 10.7541 41.6436 10.2792 41.9365 9.98633L45.4291 6.49369H36.8132C36.399 6.49369 36.0632 6.1579 36.0632 5.74369C36.0632 5.32948 36.399 4.99369 36.8132 4.99369H45.4291L41.9365 1.50105C41.6436 1.20816 41.6436 0.733282 41.9365 0.440388C42.2294 0.147495 42.7042 0.147495 42.9971 0.440388Z" fill="#D9D9D9"/>
<path d="M1.04291 6.27402L5.81588 11.047C6.10878 11.3399 6.58365 11.3399 6.87654 11.047C7.16944 10.7541 7.16944 10.2792 6.87654 9.98633L3.3839 6.49369L11.9998 6.49369C12.414 6.49369 12.7498 6.15791 12.7498 5.74369C12.7498 5.32948 12.414 4.99369 11.9998 4.99369L3.3839 4.99369L6.87654 1.50105C7.16944 1.20816 7.16944 0.733284 6.87654 0.44039C6.58365 0.147497 6.10878 0.147497 5.81588 0.44039L1.04291 5.21336C0.750019 5.50625 0.750019 5.98113 1.04291 6.27402Z" fill="#D9D9D9"/>
<path d="M18.4283 4.02329C17.9594 3.21112 18.2377 2.1726 19.0499 1.70369C19.862 1.23479 20.9006 1.51306 21.3695 2.32523L23.5317 6.07026L27.7528 4.20736C28.7646 3.80766 29.9103 4.28998 30.3316 5.29297L31.8736 8.96423C32.2638 9.89306 31.9021 10.9671 31.0297 11.4708L26.6474 14.2591C26.246 14.4908 25.7977 14.5676 25.3717 14.508C25.0943 14.4906 24.8169 14.4077 24.564 14.254C23.6857 13.7204 22.5793 13.0813 21.6734 12.6638C20.7893 12.2564 19.6322 11.8462 18.6489 11.5245C17.6285 11.1906 17.1469 9.99962 17.6836 9.06989C18.0598 8.41836 18.8292 8.10485 19.5476 8.32834C20.037 8.48061 20.6281 8.67136 21.234 8.88288L18.4283 4.02329Z" fill="#D9D9D9"/>
</svg>
