<svg width="36" height="17" viewBox="0 0 36 17" fill="none" xmlns="http://www.w3.org/2000/svg">
<path fill-rule="evenodd" clip-rule="evenodd" d="M24.517 8.90044C24.517 12.3042 21.7577 15.0634 18.354 15.0634C14.9503 15.0634 12.191 12.3042 12.191 8.90044C12.191 5.49671 14.9503 2.73745 18.354 2.73745C21.7577 2.73745 24.517 5.49671 24.517 8.90044ZM26.3387 8.90044C26.3387 13.3102 22.7638 16.8851 18.354 16.8851C13.9442 16.8851 10.3693 13.3102 10.3693 8.90044C10.3693 4.49063 13.9442 0.915771 18.354 0.915771C22.7638 0.915771 26.3387 4.49063 26.3387 8.90044ZM28.8837 15.2037C28.6009 14.9209 28.5912 14.4684 28.8546 14.1739L33.5977 9.43076C33.8906 9.13787 33.8906 8.663 33.5977 8.3701L28.8546 3.62699C28.5912 3.3325 28.6009 2.87997 28.8837 2.59713C29.1766 2.30424 29.6515 2.30424 29.9444 2.59713L35.7174 8.3701C36.0103 8.663 36.0103 9.13787 35.7174 9.43077L29.9444 15.2037C29.6515 15.4966 29.1766 15.4966 28.8837 15.2037ZM3.11274 9.43077L3.3324 9.65044H3.33117L7.82381 14.1431C8.1167 14.436 8.1167 14.9108 7.82381 15.2037C7.53091 15.4966 7.05604 15.4966 6.76315 15.2037L0.990178 9.43077C0.697284 9.13787 0.697284 8.663 0.990178 8.37011L6.76315 2.59714C7.05604 2.30424 7.53092 2.30424 7.82381 2.59714C8.1167 2.89003 8.1167 3.3649 7.82381 3.6578L3.33117 8.15044H3.33241L3.11274 8.37011C2.81984 8.663 2.81984 9.13787 3.11274 9.43077Z" fill="#D9D9D9"/>
</svg>
