<svg width="36" height="18" viewBox="0 0 36 18" fill="none" xmlns="http://www.w3.org/2000/svg">
<path fill-rule="evenodd" clip-rule="evenodd" d="M17.7945 0.343285C14.4808 0.343285 11.7945 3.02958 11.7945 6.34329V11.8771C11.7945 15.1908 14.4808 17.8771 17.7945 17.8771H18.502C21.8157 17.8771 24.502 15.1908 24.502 11.8771V6.34328C24.502 3.02958 21.8157 0.343285 18.502 0.343285H17.7945ZM18.502 1.84328H17.7945C15.3092 1.84328 13.2945 3.85801 13.2945 6.34329V11.8771C13.2945 14.3624 15.3092 16.3771 17.7945 16.3771H18.502C20.9873 16.3771 23.002 14.3624 23.002 11.8771V6.34328C23.002 3.858 20.9873 1.84328 18.502 1.84328ZM18.044 4.50224H18.2537C19.3582 4.50224 20.2537 5.39767 20.2537 6.50223V6.89892C20.2537 7.31313 20.5894 7.64892 21.0037 7.64892C21.4179 7.64892 21.7537 7.31313 21.7537 6.89892V6.50223C21.7537 4.56924 20.1867 3.00224 18.2537 3.00224H18.044C16.111 3.00224 14.544 4.56924 14.544 6.50224V6.89892C14.544 7.31313 14.8798 7.64892 15.294 7.64892C15.7082 7.64892 16.044 7.31313 16.044 6.89892V6.50224C16.044 5.39767 16.9394 4.50224 18.044 4.50224ZM15.2932 9.17059C14.879 9.17059 14.5432 9.50638 14.5432 9.92059V11.5678C14.5432 13.5008 16.1102 15.0678 18.0432 15.0678H18.2529C18.346 15.0678 18.4383 15.0641 18.5296 15.057C18.843 15.0325 19.0592 14.7523 19.0591 14.438L19.0591 14.2283C19.0591 13.8376 18.6437 13.5678 18.2529 13.5678H18.0432C16.9387 13.5678 16.0432 12.6723 16.0432 11.5678V9.92059C16.0432 9.50638 15.7075 9.17059 15.2932 9.17059ZM18.3881 7.91259C18.4571 7.50446 18.1825 7.11749 17.7743 7.04808C17.366 6.97864 16.9786 7.25338 16.9092 7.66173L16.9089 7.66321L16.9079 7.66969L16.9058 7.68302C16.9041 7.69367 16.902 7.70781 16.8996 7.72527C16.8947 7.76017 16.8885 7.8084 16.8822 7.86845C16.8696 7.9884 16.8563 8.15653 16.8515 8.36062C16.842 8.76642 16.866 9.32732 17.0043 9.94C17.2839 11.1786 18.0456 12.6626 19.9272 13.4286C20.3108 13.5847 20.7484 13.4004 20.9046 13.0167C21.0608 12.6331 20.8764 12.1955 20.4927 12.0393C19.192 11.5097 18.6731 10.5205 18.4675 9.60975C18.3632 9.14776 18.3436 8.71496 18.3511 8.39571C18.3548 8.23729 18.3651 8.11007 18.374 8.02529C18.3784 7.98299 18.3825 7.95151 18.3852 7.9323L18.3881 7.91259ZM21.0049 8.40639C20.5907 8.40639 20.2549 8.74218 20.2549 9.15639V10.4094C20.2549 10.8237 20.5907 11.1594 21.0049 11.1594C21.4191 11.1594 21.7549 10.8237 21.7549 10.4094V9.15639C21.7549 8.74218 21.4191 8.40639 21.0049 8.40639ZM35.6373 8.57987L29.8643 2.8069C29.5714 2.514 29.0965 2.514 28.8037 2.8069C28.5208 3.08973 28.5111 3.54226 28.7745 3.83675L33.5176 8.57987C33.8105 8.87276 33.8105 9.34763 33.5176 9.64053L28.7745 14.3836C28.5111 14.6781 28.5208 15.1307 28.8037 15.4135C29.0965 15.7064 29.5714 15.7064 29.8643 15.4135L35.6373 9.64053C35.9302 9.34764 35.9302 8.87276 35.6373 8.57987ZM0.9101 9.64053L6.68307 15.4135C6.97596 15.7064 7.45084 15.7064 7.74373 15.4135C8.03662 15.1206 8.03662 14.6457 7.74373 14.3528L3.25109 9.8602H3.25233L3.03266 9.64053C2.73976 9.34764 2.73976 8.87276 3.03266 8.57987L3.25233 8.3602H3.25109L7.74373 3.86756C8.03662 3.57467 8.03662 3.09979 7.74373 2.8069C7.45084 2.51401 6.97596 2.51401 6.68307 2.8069L0.9101 8.57987C0.617206 8.87276 0.617206 9.34764 0.9101 9.64053Z" fill="#D9D9D9"/>
</svg>
