<svg width="48" height="18" viewBox="0 0 48 18" fill="none" xmlns="http://www.w3.org/2000/svg">
<path d="M24.5119 4.39905H24.3022C23.1977 4.39905 22.3022 5.29448 22.3022 6.39905V6.79573C22.3022 7.20994 21.9665 7.54573 21.5522 7.54573C21.138 7.54573 20.8022 7.20994 20.8022 6.79573V6.39905C20.8022 4.46605 22.3693 2.89905 24.3022 2.89905H24.5119C26.4449 2.89905 28.0119 4.46605 28.0119 6.39905V6.79573C28.0119 7.20994 27.6761 7.54573 27.2619 7.54573C26.8477 7.54573 26.5119 7.20994 26.5119 6.79573V6.39905C26.5119 5.29448 25.6165 4.39905 24.5119 4.39905Z" fill="#D9D9D9"/>
<path d="M20.8015 9.81741C20.8015 9.40319 21.1373 9.06741 21.5515 9.06741C21.9657 9.06741 22.3015 9.40319 22.3015 9.81741V11.4646C22.3015 12.5692 23.1969 13.4646 24.3015 13.4646H24.5111C24.9019 13.4646 25.3173 13.7344 25.3174 14.1251L25.3174 14.3348C25.3174 14.6491 25.1013 14.9293 24.7879 14.9538C24.6966 14.9609 24.6043 14.9646 24.5111 14.9646H24.3015C22.3685 14.9646 20.8015 13.3976 20.8015 11.4646V9.81741Z" fill="#D9D9D9"/>
<path d="M24.0326 6.94489C24.4407 7.0143 24.7154 7.40128 24.6463 7.8094C24.6463 7.8094 24.6462 7.81002 23.9068 7.68428L23.1674 7.55854C23.2369 7.15019 23.6242 6.87545 24.0326 6.94489Z" fill="#D9D9D9"/>
<path d="M23.9068 7.68428L24.6463 7.8094L24.6435 7.82911C24.6408 7.84833 24.6367 7.8798 24.6323 7.9221C24.6233 8.00688 24.613 8.1341 24.6093 8.29253C24.6019 8.61177 24.6215 9.04457 24.7258 9.50656C24.9313 10.4173 25.4503 11.4066 26.751 11.9361C27.1346 12.0923 27.319 12.5299 27.1628 12.9135C27.0067 13.2972 26.5691 13.4816 26.1854 13.3254C24.3039 12.5594 23.5421 11.0754 23.2626 9.83682C23.1243 9.22413 23.1002 8.66323 23.1097 8.25743C23.1145 8.05334 23.1279 7.88521 23.1405 7.76527C23.1468 7.70521 23.1529 7.65698 23.1578 7.62208C23.1602 7.60462 23.1624 7.59048 23.164 7.57983L23.1661 7.5665L23.1669 7.56184L23.1672 7.56002L23.1674 7.55854C23.1674 7.55854 23.1674 7.55854 23.9068 7.68428Z" fill="#D9D9D9"/>
<path fill-rule="evenodd" clip-rule="evenodd" d="M18.0527 6.2401C18.0527 2.92639 20.739 0.240097 24.0527 0.240097H24.7603C28.074 0.240097 30.7603 2.92639 30.7603 6.2401V11.7739C30.7603 15.0876 28.074 17.7739 24.7603 17.7739H24.0527C20.739 17.7739 18.0527 15.0876 18.0527 11.7739V6.2401ZM24.0527 1.7401H24.7603C27.2455 1.7401 29.2603 3.75482 29.2603 6.2401V11.7739C29.2603 14.2592 27.2455 16.2739 24.7603 16.2739H24.0527C21.5675 16.2739 19.5527 14.2592 19.5527 11.7739V6.2401C19.5527 3.75482 21.5675 1.7401 24.0527 1.7401Z" fill="#D9D9D9"/>
<path d="M47.7701 8.01594L42.9971 3.24297C42.7042 2.95008 42.2294 2.95008 41.9365 3.24297C41.6436 3.53586 41.6436 4.01074 41.9365 4.30363L45.4291 7.79627H36.8132C36.399 7.79627 36.0632 8.13206 36.0632 8.54627C36.0632 8.96049 36.399 9.29627 36.8132 9.29627H45.4291L41.9365 12.7889C41.6436 13.0818 41.6436 13.5567 41.9365 13.8496C42.2294 14.1425 42.7042 14.1425 42.9971 13.8496L47.7701 9.0766C48.063 8.78371 48.063 8.30883 47.7701 8.01594Z" fill="#D9D9D9"/>
<path d="M5.81588 13.8496L1.04291 9.0766C0.750019 8.78371 0.750019 8.30884 1.04291 8.01594L5.81588 3.24297C6.10878 2.95008 6.58365 2.95008 6.87654 3.24297C7.16944 3.53587 7.16944 4.01074 6.87654 4.30363L3.3839 7.79627L11.9998 7.79627C12.414 7.79627 12.7498 8.13206 12.7498 8.54627C12.7498 8.96049 12.414 9.29627 11.9998 9.29627L3.3839 9.29627L6.87654 12.7889C7.16944 13.0818 7.16944 13.5567 6.87654 13.8496C6.58365 14.1425 6.10878 14.1425 5.81588 13.8496Z" fill="#D9D9D9"/>
<path d="M26.5132 9.05321C26.5132 8.63899 26.849 8.30321 27.2632 8.30321C27.6774 8.30321 28.0132 8.63899 28.0132 9.05321V10.3063C28.0132 10.7205 27.6774 11.0563 27.2632 11.0563C26.849 11.0563 26.5132 10.7205 26.5132 10.3063V9.05321Z" fill="#D9D9D9"/>
</svg>
