<svg width="30" height="18" viewBox="0 0 30 18" fill="none" xmlns="http://www.w3.org/2000/svg">
<path fill-rule="evenodd" clip-rule="evenodd" d="M8.79448 6.38084C8.79448 3.06713 11.4808 0.380833 14.7945 0.380833H15.502C18.8157 0.380833 21.502 3.06712 21.502 6.38083V11.9147C21.502 15.2284 18.8157 17.9147 15.502 17.9147H14.7945C11.4808 17.9147 8.79448 15.2284 8.79448 11.9147V6.38084ZM14.7945 1.88083H15.502C17.9873 1.88083 20.002 3.89555 20.002 6.38083V11.9147C20.002 14.3999 17.9873 16.4147 15.502 16.4147H14.7945C12.3092 16.4147 10.2945 14.3999 10.2945 11.9147V6.38084C10.2945 3.89555 12.3092 1.88083 14.7945 1.88083ZM15.044 4.53978H15.2537C16.3582 4.53978 17.2537 5.43521 17.2537 6.53978V6.93647C17.2537 7.35068 17.5894 7.68647 18.0037 7.68647C18.4179 7.68647 18.7537 7.35068 18.7537 6.93647V6.53978C18.7537 4.60679 17.1867 3.03978 15.2537 3.03978H15.044C13.111 3.03978 11.544 4.60679 11.544 6.53978V6.93647C11.544 7.35068 11.8798 7.68647 12.294 7.68647C12.7082 7.68647 13.044 7.35068 13.044 6.93647V6.53978C13.044 5.43522 13.9394 4.53978 15.044 4.53978ZM12.2932 9.20814C11.879 9.20814 11.5432 9.54393 11.5432 9.95814V11.6053C11.5432 13.5383 13.1102 15.1053 15.0432 15.1053H15.2529C15.346 15.1053 15.4383 15.1017 15.5296 15.0945C15.843 15.07 16.0592 14.7899 16.0591 14.4755L16.0591 14.2659C16.0591 13.8751 15.6437 13.6053 15.2529 13.6053H15.0432C13.9387 13.6053 13.0432 12.7099 13.0432 11.6053V9.95814C13.0432 9.54393 12.7074 9.20814 12.2932 9.20814ZM14.7743 7.08563C15.1825 7.15504 15.4571 7.54201 15.3881 7.95014L15.3852 7.96985C15.3825 7.98906 15.3784 8.02053 15.374 8.06284C15.3651 8.14762 15.3548 8.27484 15.3511 8.43326C15.3436 8.75251 15.3632 9.1853 15.4675 9.6473C15.6731 10.558 16.192 11.5473 17.4927 12.0768C17.8764 12.233 18.0608 12.6706 17.9046 13.0543C17.7484 13.4379 17.3108 13.6223 16.9272 13.4661C15.0456 12.7001 14.2839 11.2162 14.0043 9.97755C13.866 9.36487 13.842 8.80396 13.8515 8.39817C13.8563 8.19408 13.8696 8.02594 13.8822 7.906C13.8885 7.84595 13.8947 7.79771 13.8996 7.76282C13.902 7.74536 13.9041 7.73121 13.9058 7.72057L13.9079 7.70724L13.9086 7.70258L13.9089 7.70076L13.9092 7.69928C13.9786 7.29093 14.366 7.01619 14.7743 7.08563ZM18.0049 8.44394C17.5907 8.44394 17.2549 8.77973 17.2549 9.19394V10.447C17.2549 10.8612 17.5907 11.197 18.0049 11.197C18.4191 11.197 18.7549 10.8612 18.7549 10.447V9.19394C18.7549 8.77973 18.4191 8.44394 18.0049 8.44394ZM29.6373 7.83235L24.8643 3.05938C24.5714 2.76648 24.0965 2.76648 23.8037 3.05938C23.5108 3.35227 23.5108 3.82714 23.8037 4.12004L27.2963 7.61268H23.6804C23.2662 7.61268 22.9304 7.94846 22.9304 8.36268C22.9304 8.77689 23.2662 9.11268 23.6804 9.11268H27.2963L23.8037 12.6053C23.5108 12.8982 23.5108 13.3731 23.8037 13.666C24.0965 13.9589 24.5714 13.9589 24.8643 13.666L29.6373 8.89301C29.9302 8.60011 29.9302 8.12524 29.6373 7.83235ZM5.68307 13.666L0.9101 8.89301C0.617206 8.60012 0.617206 8.12524 0.9101 7.83235L5.68307 3.05938C5.97596 2.76649 6.45084 2.76649 6.74373 3.05938C7.03662 3.35227 7.03662 3.82715 6.74373 4.12004L3.25109 7.61268L6.86696 7.61268C7.28117 7.61268 7.61696 7.94847 7.61696 8.36268C7.61696 8.77689 7.28117 9.11268 6.86695 9.11268L3.25109 9.11268L6.74373 12.6053C7.03662 12.8982 7.03662 13.3731 6.74373 13.666C6.45084 13.9589 5.97596 13.9589 5.68307 13.666Z" fill="#D9D9D9"/>
</svg>
