<svg width="24" height="9" viewBox="0 0 24 9" fill="none" xmlns="http://www.w3.org/2000/svg">
<path opacity="0.4" fill-rule="evenodd" clip-rule="evenodd" d="M2.964 8.99999H4.908C5.06 8.99999 5.168 8.96799 5.232 8.90399C5.304 8.83199 5.34 8.71999 5.34 8.56799V2.67599H7.104C7.256 2.67599 7.364 2.64399 7.428 2.57999C7.5 2.50799 7.536 2.39599 7.536 2.24399V0.791986C7.536 0.639986 7.5 0.531986 7.428 0.467985C7.364 0.395985 7.256 0.359985 7.104 0.359985H0.767999C0.615999 0.359985 0.503999 0.395985 0.431999 0.467985C0.367999 0.531986 0.335999 0.639986 0.335999 0.791986V2.24399C0.335999 2.39599 0.367999 2.50799 0.431999 2.57999C0.503999 2.64399 0.615999 2.67599 0.767999 2.67599H2.532V8.56799C2.532 8.71999 2.564 8.83199 2.628 8.90399C2.7 8.96799 2.812 8.99999 2.964 8.99999ZM11.3545 2.87998L10.7905 4.70399H12.6745L12.1105 2.87998C12.0785 2.80798 12.0425 2.75599 12.0025 2.72399C11.9705 2.69199 11.9305 2.67599 11.8825 2.67599H11.5825C11.5345 2.67599 11.4905 2.69199 11.4505 2.72399C11.4185 2.75599 11.3865 2.80798 11.3545 2.87998ZM10.6705 8.56799C10.6705 8.71999 10.6345 8.83199 10.5625 8.90399C10.4985 8.96799 10.3905 8.99999 10.2385 8.99999H8.47454C8.32254 8.99999 8.21054 8.96799 8.13854 8.90399C8.07454 8.83199 8.04254 8.71999 8.04254 8.56799V5.39999C8.04254 5.15999 8.07854 4.88399 8.15054 4.57199C8.23054 4.25999 8.35054 3.89599 8.51054 3.47999L9.55454 0.755985C9.60254 0.619985 9.67454 0.519985 9.77054 0.455986C9.87454 0.391985 10.0065 0.359985 10.1665 0.359985H13.3945C13.5465 0.359985 13.6705 0.391985 13.7665 0.455986C13.8705 0.519985 13.9465 0.619985 13.9945 0.755985L15.0385 3.47999C15.1985 3.89599 15.3145 4.25999 15.3865 4.57199C15.4665 4.88399 15.5065 5.15999 15.5065 5.39999V8.56799C15.5065 8.71999 15.4705 8.83199 15.3985 8.90399C15.3345 8.96799 15.2265 8.99999 15.0745 8.99999H13.2625C13.1025 8.99999 12.9825 8.96799 12.9025 8.90399C12.8305 8.83199 12.7945 8.71999 12.7945 8.56799V6.88799H10.6705V8.56799ZM19.2802 8.99999H17.4202C17.2682 8.99999 17.1562 8.96799 17.0842 8.90399C17.0202 8.83199 16.9882 8.71999 16.9882 8.56799V0.791986C16.9882 0.639986 17.0202 0.531986 17.0842 0.467985C17.1562 0.395985 17.2682 0.359985 17.4202 0.359985H21.0922C22.1802 0.359985 22.9242 0.575985 23.3242 1.00799C23.7242 1.43999 23.9242 2.00399 23.9242 2.69999V4.23599C23.9242 4.93199 23.7242 5.49599 23.3242 5.92799C22.9242 6.35999 22.1802 6.57599 21.0922 6.57599H19.7122V8.56799C19.7122 8.71999 19.6762 8.83199 19.6042 8.90399C19.5402 8.96799 19.4322 8.99999 19.2802 8.99999ZM19.6882 2.60398V4.41599H20.7682C21.0002 4.41599 21.1522 4.35599 21.2242 4.23599C21.2962 4.11599 21.3322 3.97999 21.3322 3.82799V3.19199C21.3322 3.03999 21.2962 2.90399 21.2242 2.78399C21.1522 2.66399 21.0002 2.60398 20.7682 2.60398H19.6882Z" fill="black"/>
</svg>
