<svg width="189" height="96" viewBox="0 0 189 96" fill="none" xmlns="http://www.w3.org/2000/svg">
<path d="M67.8181 7.61049V12H67.3862V7.61049H66.2411V7.19866H68.9632V7.61049H67.8181ZM70.0714 13.3728H69.673L70.2824 11.7054L69.1708 8.57143H69.5826L70.4766 11.1696L70.49 11.3471L70.5033 11.1696L71.394 8.57143H71.8058L70.0714 13.3728ZM74.5112 11.0592C74.5112 11.1975 74.4844 11.3281 74.4308 11.4509C74.3795 11.5737 74.308 11.6808 74.2165 11.7723C74.125 11.8638 74.0179 11.9364 73.8951 11.99C73.7723 12.0413 73.6417 12.067 73.5033 12.067H73.3996C73.2455 12.067 73.1027 12.0357 72.971 11.9732C72.8393 11.9107 72.7266 11.8237 72.6328 11.7121V13.3728H72.221V8.57143H72.3583L72.5826 8.91964C72.6763 8.79241 72.7935 8.69196 72.9342 8.6183C73.077 8.54241 73.2321 8.50446 73.3996 8.50446H73.5033C73.6417 8.50446 73.7723 8.53125 73.8951 8.58482C74.0179 8.63616 74.125 8.70759 74.2165 8.79911C74.308 8.89062 74.3795 8.99777 74.4308 9.12054C74.4844 9.2433 74.5112 9.37388 74.5112 9.51228V11.0592ZM74.0993 9.48884C74.0993 9.40625 74.0837 9.32924 74.0525 9.25781C74.0212 9.18415 73.9788 9.12054 73.9252 9.06696C73.8717 9.01339 73.808 8.97098 73.7344 8.93973C73.6629 8.90848 73.5859 8.89286 73.5033 8.89286H73.2288C73.1462 8.89286 73.0681 8.90848 72.9944 8.93973C72.923 8.97098 72.8605 9.01339 72.8069 9.06696C72.7533 9.12054 72.7109 9.18415 72.6797 9.25781C72.6484 9.32924 72.6328 9.40625 72.6328 9.48884V11.0826C72.6328 11.1652 72.6484 11.2433 72.6797 11.317C72.7109 11.3884 72.7533 11.4509 72.8069 11.5045C72.8605 11.558 72.923 11.6004 72.9944 11.6317C73.0681 11.6629 73.1462 11.6786 73.2288 11.6786H73.5033C73.5859 11.6786 73.6629 11.6629 73.7344 11.6317C73.808 11.6004 73.8717 11.558 73.9252 11.5045C73.9788 11.4509 74.0212 11.3884 74.0525 11.317C74.0837 11.2433 74.0993 11.1652 74.0993 11.0826V9.48884ZM77.625 11.0592C77.625 11.1975 77.5982 11.3281 77.5446 11.4509C77.4933 11.5737 77.4219 11.6808 77.3304 11.7723C77.2388 11.8638 77.1317 11.9364 77.0089 11.99C76.8862 12.0413 76.7556 12.067 76.6172 12.067H76.3426C76.2042 12.067 76.0737 12.0413 75.9509 11.99C75.8281 11.9364 75.721 11.8638 75.6295 11.7723C75.5379 11.6808 75.4654 11.5737 75.4118 11.4509C75.3605 11.3281 75.3348 11.1975 75.3348 11.0592V9.51228C75.3348 9.37388 75.3605 9.2433 75.4118 9.12054C75.4654 8.99777 75.5379 8.89062 75.6295 8.79911C75.721 8.70759 75.8281 8.63616 75.9509 8.58482C76.0737 8.53125 76.2042 8.50446 76.3426 8.50446H76.6172C76.7556 8.50446 76.8862 8.53125 77.0089 8.58482C77.1317 8.63616 77.2388 8.70759 77.3304 8.79911C77.4219 8.89062 77.4933 8.99777 77.5446 9.12054C77.5982 9.2433 77.625 9.37388 77.625 9.51228V10.3192H75.7467V11.0826C75.7467 11.1652 75.7623 11.2433 75.7935 11.317C75.8248 11.3884 75.8672 11.4509 75.9208 11.5045C75.9743 11.558 76.0368 11.6004 76.1083 11.6317C76.1819 11.6629 76.26 11.6786 76.3426 11.6786H76.6172C76.6998 11.6786 76.7768 11.6629 76.8482 11.6317C76.9219 11.6004 76.9855 11.558 77.0391 11.5045C77.0926 11.4509 77.135 11.3884 77.1663 11.317C77.1975 11.2433 77.2132 11.1652 77.2132 11.0826V10.8549L77.625 10.9219V11.0592ZM77.2132 9.48884C77.2132 9.40625 77.1975 9.32924 77.1663 9.25781C77.135 9.18415 77.0926 9.12054 77.0391 9.06696C76.9855 9.01339 76.9219 8.97098 76.8482 8.93973C76.7768 8.90848 76.6998 8.89286 76.6172 8.89286H76.3426C76.26 8.89286 76.1819 8.90848 76.1083 8.93973C76.0368 8.97098 75.9743 9.01339 75.9208 9.06696C75.8672 9.12054 75.8248 9.18415 75.7935 9.25781C75.7623 9.32924 75.7467 9.40625 75.7467 9.48884V9.99777H77.2132V9.48884ZM82.3192 11.0592C82.3192 11.1975 82.2924 11.3281 82.2388 11.4509C82.1875 11.5737 82.1161 11.6808 82.0246 11.7723C81.933 11.8638 81.8259 11.9364 81.7031 11.99C81.5804 12.0413 81.4498 12.067 81.3114 12.067H81.0368C80.8984 12.067 80.7679 12.0413 80.6451 11.99C80.5223 11.9364 80.4152 11.8638 80.3237 11.7723C80.2321 11.6808 80.1596 11.5737 80.106 11.4509C80.0547 11.3281 80.029 11.1975 80.029 11.0592V9.51228C80.029 9.37388 80.0547 9.2433 80.106 9.12054C80.1596 8.99777 80.2321 8.89062 80.3237 8.79911C80.4152 8.70759 80.5223 8.63616 80.6451 8.58482C80.7679 8.53125 80.8984 8.50446 81.0368 8.50446H81.3114C81.4498 8.50446 81.5804 8.53125 81.7031 8.58482C81.8259 8.63616 81.933 8.70759 82.0246 8.79911C82.1161 8.89062 82.1875 8.99777 82.2388 9.12054C82.2924 9.2433 82.3192 9.37388 82.3192 9.51228V11.0592ZM81.9074 9.48884C81.9074 9.40625 81.8917 9.32924 81.8605 9.25781C81.8292 9.18415 81.7868 9.12054 81.7333 9.06696C81.6797 9.01339 81.6161 8.97098 81.5424 8.93973C81.471 8.90848 81.394 8.89286 81.3114 8.89286H81.0368C80.9542 8.89286 80.8761 8.90848 80.8025 8.93973C80.731 8.97098 80.6685 9.01339 80.615 9.06696C80.5614 9.12054 80.519 9.18415 80.4877 9.25781C80.4565 9.32924 80.4408 9.40625 80.4408 9.48884V11.0826C80.4408 11.1652 80.4565 11.2433 80.4877 11.317C80.519 11.3884 80.5614 11.4509 80.615 11.5045C80.6685 11.558 80.731 11.6004 80.8025 11.6317C80.8761 11.6629 80.9542 11.6786 81.0368 11.6786H81.3114C81.394 11.6786 81.471 11.6629 81.5424 11.6317C81.6161 11.6004 81.6797 11.558 81.7333 11.5045C81.7868 11.4509 81.8292 11.3884 81.8605 11.317C81.8917 11.2433 81.9074 11.1652 81.9074 11.0826V9.48884ZM85.0212 12V9.48884C85.0212 9.40625 85.0056 9.32924 84.9743 9.25781C84.9431 9.18415 84.9007 9.12054 84.8471 9.06696C84.7935 9.01339 84.7299 8.97098 84.6562 8.93973C84.5848 8.90848 84.5078 8.89286 84.4252 8.89286H84.1507C84.0681 8.89286 83.99 8.90848 83.9163 8.93973C83.8449 8.97098 83.7824 9.01339 83.7288 9.06696C83.6752 9.12054 83.6328 9.18415 83.6016 9.25781C83.5703 9.32924 83.5547 9.40625 83.5547 9.48884V12H83.1429V8.57143H83.2801L83.5045 8.91964C83.5982 8.79241 83.7154 8.69196 83.856 8.6183C83.9989 8.54241 84.154 8.50446 84.3214 8.50446H84.4252C84.5636 8.50446 84.6942 8.53125 84.817 8.58482C84.9397 8.63616 85.0469 8.70759 85.1384 8.79911C85.2299 8.89062 85.3013 8.99777 85.3527 9.12054C85.4062 9.2433 85.433 9.37388 85.433 9.51228V12H85.0212ZM88.5469 11.0592C88.5469 11.1975 88.5201 11.3281 88.4665 11.4509C88.4152 11.5737 88.3437 11.6808 88.2522 11.7723C88.1607 11.8638 88.0536 11.9364 87.9308 11.99C87.808 12.0413 87.6775 12.067 87.5391 12.067H87.2645C87.1261 12.067 86.9955 12.0413 86.8728 11.99C86.75 11.9364 86.6429 11.8638 86.5513 11.7723C86.4598 11.6808 86.3873 11.5737 86.3337 11.4509C86.2824 11.3281 86.2567 11.1975 86.2567 11.0592V9.51228C86.2567 9.37388 86.2824 9.2433 86.3337 9.12054C86.3873 8.99777 86.4598 8.89062 86.5513 8.79911C86.6429 8.70759 86.75 8.63616 86.8728 8.58482C86.9955 8.53125 87.1261 8.50446 87.2645 8.50446H87.5391C87.6775 8.50446 87.808 8.53125 87.9308 8.58482C88.0536 8.63616 88.1607 8.70759 88.2522 8.79911C88.3437 8.89062 88.4152 8.99777 88.4665 9.12054C88.5201 9.2433 88.5469 9.37388 88.5469 9.51228V10.3192H86.6685V11.0826C86.6685 11.1652 86.6842 11.2433 86.7154 11.317C86.7467 11.3884 86.7891 11.4509 86.8426 11.5045C86.8962 11.558 86.9587 11.6004 87.0301 11.6317C87.1038 11.6629 87.1819 11.6786 87.2645 11.6786H87.5391C87.6217 11.6786 87.6987 11.6629 87.7701 11.6317C87.8437 11.6004 87.9074 11.558 87.9609 11.5045C88.0145 11.4509 88.0569 11.3884 88.0882 11.317C88.1194 11.2433 88.135 11.1652 88.135 11.0826V10.8549L88.5469 10.9219V11.0592ZM88.135 9.48884C88.135 9.40625 88.1194 9.32924 88.0882 9.25781C88.0569 9.18415 88.0145 9.12054 87.9609 9.06696C87.9074 9.01339 87.8437 8.97098 87.7701 8.93973C87.6987 8.90848 87.6217 8.89286 87.5391 8.89286H87.2645C87.1819 8.89286 87.1038 8.90848 87.0301 8.93973C86.9587 8.97098 86.8962 9.01339 86.8426 9.06696C86.7891 9.12054 86.7467 9.18415 86.7154 9.25781C86.6842 9.32924 86.6685 9.40625 86.6685 9.48884V9.99777H88.135V9.48884ZM92.0491 7.19866H92.2199V8.67522H91.7042L92.0491 7.19866ZM91.2254 7.19866H91.3962V8.67522H90.8806L91.2254 7.19866ZM95.404 11.0592C95.404 11.1975 95.3772 11.3281 95.3237 11.4509C95.2723 11.5737 95.2009 11.6808 95.1094 11.7723C95.0179 11.8638 94.9107 11.9364 94.7879 11.99C94.6652 12.0413 94.5346 12.067 94.3962 12.067H94.1217C93.9833 12.067 93.8527 12.0413 93.7299 11.99C93.6071 11.9364 93.5 11.8638 93.4085 11.7723C93.317 11.6808 93.2444 11.5737 93.1908 11.4509C93.1395 11.3281 93.1138 11.1975 93.1138 11.0592V9.51228C93.1138 9.37388 93.1395 9.2433 93.1908 9.12054C93.2444 8.99777 93.317 8.89062 93.4085 8.79911C93.5 8.70759 93.6071 8.63616 93.7299 8.58482C93.8527 8.53125 93.9833 8.50446 94.1217 8.50446H94.3962C94.5346 8.50446 94.6652 8.53125 94.7879 8.58482C94.9107 8.63616 95.0179 8.70759 95.1094 8.79911C95.2009 8.89062 95.2723 8.99777 95.3237 9.12054C95.3772 9.2433 95.404 9.37388 95.404 9.51228V9.64955L94.9922 9.71652V9.48884C94.9922 9.40625 94.9766 9.32924 94.9453 9.25781C94.9141 9.18415 94.8717 9.12054 94.8181 9.06696C94.7645 9.01339 94.7009 8.97098 94.6272 8.93973C94.5558 8.90848 94.4788 8.89286 94.3962 8.89286H94.1217C94.0391 8.89286 93.9609 8.90848 93.8873 8.93973C93.8158 8.97098 93.7533 9.01339 93.6998 9.06696C93.6462 9.12054 93.6038 9.18415 93.5725 9.25781C93.5413 9.32924 93.5257 9.40625 93.5257 9.48884V11.0826C93.5257 11.1652 93.5413 11.2433 93.5725 11.317C93.6038 11.3884 93.6462 11.4509 93.6998 11.5045C93.7533 11.558 93.8158 11.6004 93.8873 11.6317C93.9609 11.6629 94.0391 11.6786 94.1217 11.6786H94.3962C94.4788 11.6786 94.5558 11.6629 94.6272 11.6317C94.7009 11.6004 94.7645 11.558 94.8181 11.5045C94.8717 11.4509 94.9141 11.3884 94.9453 11.317C94.9766 11.2433 94.9922 11.1652 94.9922 11.0826V10.8549L95.404 10.9219V11.0592ZM96.298 12V7.19866H96.7098V12H96.298ZM99.827 12L99.5993 11.6518C99.5056 11.779 99.3884 11.8806 99.2478 11.9565C99.1071 12.0301 98.9531 12.067 98.7857 12.067H98.6819C98.5435 12.067 98.4129 12.0413 98.2902 11.99C98.1674 11.9364 98.0603 11.8638 97.9688 11.7723C97.8772 11.6808 97.8047 11.5737 97.7511 11.4509C97.6998 11.3281 97.6741 11.1975 97.6741 11.0592V8.57143H98.0859V11.0826C98.0859 11.1652 98.1016 11.2433 98.1328 11.317C98.1641 11.3884 98.2065 11.4509 98.26 11.5045C98.3136 11.558 98.3761 11.6004 98.4475 11.6317C98.5212 11.6629 98.5993 11.6786 98.6819 11.6786H98.9565C99.0391 11.6786 99.1161 11.6629 99.1875 11.6317C99.2612 11.6004 99.3248 11.558 99.3783 11.5045C99.4319 11.4509 99.4743 11.3884 99.5056 11.317C99.5368 11.2433 99.5525 11.1652 99.5525 11.0826V8.57143H99.9643V12H99.827ZM103.078 11.0592C103.078 11.1975 103.051 11.3281 102.998 11.4509C102.946 11.5737 102.875 11.6808 102.783 11.7723C102.692 11.8638 102.585 11.9364 102.462 11.99C102.339 12.0413 102.209 12.067 102.07 12.067H101.796C101.657 12.067 101.527 12.0413 101.404 11.99C101.281 11.9364 101.174 11.8638 101.083 11.7723C100.991 11.6808 100.919 11.5737 100.865 11.4509C100.814 11.3281 100.788 11.1975 100.788 11.0592V9.51228C100.788 9.37388 100.814 9.2433 100.865 9.12054C100.919 8.99777 100.991 8.89062 101.083 8.79911C101.174 8.70759 101.281 8.63616 101.404 8.58482C101.527 8.53125 101.657 8.50446 101.796 8.50446H102.07C102.209 8.50446 102.339 8.53125 102.462 8.58482C102.585 8.63616 102.692 8.70759 102.783 8.79911C102.875 8.89062 102.946 8.99777 102.998 9.12054C103.051 9.2433 103.078 9.37388 103.078 9.51228V10.3192H101.2V11.0826C101.2 11.1652 101.215 11.2433 101.247 11.317C101.278 11.3884 101.32 11.4509 101.374 11.5045C101.427 11.558 101.49 11.6004 101.561 11.6317C101.635 11.6629 101.713 11.6786 101.796 11.6786H102.07C102.153 11.6786 102.23 11.6629 102.301 11.6317C102.375 11.6004 102.439 11.558 102.492 11.5045C102.546 11.4509 102.588 11.3884 102.619 11.317C102.651 11.2433 102.666 11.1652 102.666 11.0826V10.8549L103.078 10.9219V11.0592ZM102.666 9.48884C102.666 9.40625 102.651 9.32924 102.619 9.25781C102.588 9.18415 102.546 9.12054 102.492 9.06696C102.439 9.01339 102.375 8.97098 102.301 8.93973C102.23 8.90848 102.153 8.89286 102.07 8.89286H101.796C101.713 8.89286 101.635 8.90848 101.561 8.93973C101.49 8.97098 101.427 9.01339 101.374 9.06696C101.32 9.12054 101.278 9.18415 101.247 9.25781C101.215 9.32924 101.2 9.40625 101.2 9.48884V9.99777H102.666V9.48884ZM104.143 8.67522H103.969V7.19866H104.484L104.143 8.67522ZM104.963 8.67522H104.792V7.19866H105.308L104.963 8.67522ZM109.523 12V9.48884C109.523 9.40625 109.508 9.32924 109.477 9.25781C109.445 9.18415 109.403 9.12054 109.349 9.06696C109.296 9.01339 109.232 8.97098 109.158 8.93973C109.087 8.90848 109.01 8.89286 108.927 8.89286H108.653C108.57 8.89286 108.492 8.90848 108.419 8.93973C108.347 8.97098 108.285 9.01339 108.231 9.06696C108.177 9.12054 108.135 9.18415 108.104 9.25781C108.073 9.32924 108.057 9.40625 108.057 9.48884V12H107.645V7.19866H108.057V8.85937C108.151 8.74777 108.263 8.66071 108.395 8.59821C108.527 8.53571 108.67 8.50446 108.824 8.50446H108.927C109.066 8.50446 109.196 8.53125 109.319 8.58482C109.442 8.63616 109.549 8.70759 109.641 8.79911C109.732 8.89062 109.804 8.99777 109.855 9.12054C109.908 9.2433 109.935 9.37388 109.935 9.51228V12H109.523ZM113.049 11.0592C113.049 11.1975 113.022 11.3281 112.969 11.4509C112.917 11.5737 112.846 11.6808 112.754 11.7723C112.663 11.8638 112.556 11.9364 112.433 11.99C112.31 12.0413 112.18 12.067 112.041 12.067H111.767C111.628 12.067 111.498 12.0413 111.375 11.99C111.252 11.9364 111.145 11.8638 111.054 11.7723C110.962 11.6808 110.89 11.5737 110.836 11.4509C110.785 11.3281 110.759 11.1975 110.759 11.0592V9.51228C110.759 9.37388 110.785 9.2433 110.836 9.12054C110.89 8.99777 110.962 8.89062 111.054 8.79911C111.145 8.70759 111.252 8.63616 111.375 8.58482C111.498 8.53125 111.628 8.50446 111.767 8.50446H112.041C112.18 8.50446 112.31 8.53125 112.433 8.58482C112.556 8.63616 112.663 8.70759 112.754 8.79911C112.846 8.89062 112.917 8.99777 112.969 9.12054C113.022 9.2433 113.049 9.37388 113.049 9.51228V10.3192H111.171V11.0826C111.171 11.1652 111.186 11.2433 111.218 11.317C111.249 11.3884 111.291 11.4509 111.345 11.5045C111.398 11.558 111.461 11.6004 111.532 11.6317C111.606 11.6629 111.684 11.6786 111.767 11.6786H112.041C112.124 11.6786 112.201 11.6629 112.272 11.6317C112.346 11.6004 112.41 11.558 112.463 11.5045C112.517 11.4509 112.559 11.3884 112.59 11.317C112.622 11.2433 112.637 11.1652 112.637 11.0826V10.8549L113.049 10.9219V11.0592ZM112.637 9.48884C112.637 9.40625 112.622 9.32924 112.59 9.25781C112.559 9.18415 112.517 9.12054 112.463 9.06696C112.41 9.01339 112.346 8.97098 112.272 8.93973C112.201 8.90848 112.124 8.89286 112.041 8.89286H111.767C111.684 8.89286 111.606 8.90848 111.532 8.93973C111.461 8.97098 111.398 9.01339 111.345 9.06696C111.291 9.12054 111.249 9.18415 111.218 9.25781C111.186 9.32924 111.171 9.40625 111.171 9.48884V9.99777H112.637V9.48884ZM114.881 8.96317C114.798 8.96317 114.72 8.97879 114.646 9.01004C114.575 9.04129 114.512 9.08371 114.459 9.13728C114.405 9.19085 114.363 9.25446 114.331 9.32812C114.3 9.39955 114.285 9.47656 114.285 9.55915V12H113.873V8.57143H114.01L114.234 8.91964C114.328 8.79241 114.445 8.69196 114.586 8.6183C114.729 8.54241 114.884 8.50446 115.051 8.50446H115.292V8.96317H114.881ZM118.132 11.0592C118.132 11.1975 118.105 11.3281 118.051 11.4509C118 11.5737 117.929 11.6808 117.837 11.7723C117.746 11.8638 117.638 11.9364 117.516 11.99C117.393 12.0413 117.262 12.067 117.124 12.067H116.849C116.711 12.067 116.58 12.0413 116.458 11.99C116.335 11.9364 116.228 11.8638 116.136 11.7723C116.045 11.6808 115.972 11.5737 115.919 11.4509C115.867 11.3281 115.842 11.1975 115.842 11.0592V9.51228C115.842 9.37388 115.867 9.2433 115.919 9.12054C115.972 8.99777 116.045 8.89062 116.136 8.79911C116.228 8.70759 116.335 8.63616 116.458 8.58482C116.58 8.53125 116.711 8.50446 116.849 8.50446H117.124C117.262 8.50446 117.393 8.53125 117.516 8.58482C117.638 8.63616 117.746 8.70759 117.837 8.79911C117.929 8.89062 118 8.99777 118.051 9.12054C118.105 9.2433 118.132 9.37388 118.132 9.51228V10.3192H116.253V11.0826C116.253 11.1652 116.269 11.2433 116.3 11.317C116.331 11.3884 116.374 11.4509 116.427 11.5045C116.481 11.558 116.544 11.6004 116.615 11.6317C116.689 11.6629 116.767 11.6786 116.849 11.6786H117.124C117.206 11.6786 117.283 11.6629 117.355 11.6317C117.429 11.6004 117.492 11.558 117.546 11.5045C117.599 11.4509 117.642 11.3884 117.673 11.317C117.704 11.2433 117.72 11.1652 117.72 11.0826V10.8549L118.132 10.9219V11.0592ZM117.72 9.48884C117.72 9.40625 117.704 9.32924 117.673 9.25781C117.642 9.18415 117.599 9.12054 117.546 9.06696C117.492 9.01339 117.429 8.97098 117.355 8.93973C117.283 8.90848 117.206 8.89286 117.124 8.89286H116.849C116.767 8.89286 116.689 8.90848 116.615 8.93973C116.544 8.97098 116.481 9.01339 116.427 9.06696C116.374 9.12054 116.331 9.18415 116.3 9.25781C116.269 9.32924 116.253 9.40625 116.253 9.48884V9.99777H117.72V9.48884ZM118.955 12V11.4844H119.471V12H118.955ZM120.429 12V11.4844H120.944V12H120.429ZM121.902 12V11.4844H122.417V12H121.902Z" fill="#66A6FF"/>
<g clip-path="url(#clip0_135_4596)">
<g clip-path="url(#clip1_135_4596)">
<path fill-rule="evenodd" clip-rule="evenodd" d="M36 217L153 217L189 181L189 64.0001L168.291 56.0352L189 64L153 28.0001L36 28.0001L0 64.0001L1.52588e-05 181L36 217Z" fill="#006AFF" fill-opacity="0.8"/>
<g style="mix-blend-mode:luminosity">
<path fill-rule="evenodd" clip-rule="evenodd" d="M153 217L94.5 122.5L189 181L189 64L94.5 122.5L153 28L36 28L94.5 122.5L-5.11423e-06 64L-5.11423e-06 181L94.5 122.5L36 217L153 217Z" fill="url(#paint0_radial_135_4596)" fill-opacity="0.05"/>
<path d="M36 28L153 28L164 53.0001L25 53.0001L36 28Z" fill="url(#paint1_linear_135_4596)" fill-opacity="0.51"/>
<path d="M189 64L189 181L164 192L164 53.0001L189 64Z" fill="url(#paint2_linear_135_4596)" fill-opacity="0.51"/>
<path d="M4.80827e-07 181L5.59506e-06 64L25 53L25 192L4.80827e-07 181Z" fill="url(#paint3_linear_135_4596)" fill-opacity="0.51"/>
<path fill-rule="evenodd" clip-rule="evenodd" d="M164 192L25 192L25 53.0001L164 53.0001L164 192ZM164 192L176 173L176 72.0001L164 53.0001L145 41.0001L44 41.0001L25 53.0001L13 72.0001L13 173L25 192L44 204L145 204L164 192Z" fill="black" fill-opacity="0.05"/>
<path d="M164 53.0001L94.5 53.0001L94.5 122.5L164 122.5L164 53.0001Z" fill="url(#paint4_linear_135_4596)"/>
<path d="M94.5 122.5L94.5 53.0001L25 53.0001L25 122.5L94.5 122.5Z" fill="url(#paint5_linear_135_4596)"/>
<path fill-rule="evenodd" clip-rule="evenodd" d="M94 192H95L95 123L164 123V122L95 122V53.0001H94V122L25 122V123L94 123L94 192Z" fill="black" fill-opacity="0.1"/>
<path d="M36 28L0 64L25 53L36 28Z" fill="url(#paint6_linear_135_4596)" fill-opacity="0.33"/>
<path d="M189 64L153 28L164 53L189 64Z" fill="url(#paint7_linear_135_4596)" fill-opacity="0.33"/>
</g>
<g clip-path="url(#clip2_135_4596)">
<path d="M125.251 60.9766C125.251 61.1396 125.22 61.2925 125.157 61.4353C125.097 61.5782 125.013 61.7032 124.906 61.8103C124.799 61.9175 124.673 62.0023 124.528 62.0648C124.385 62.1251 124.232 62.1552 124.069 62.1552L122.981 62.1552L122.981 64.0001L122.549 64.0001L122.549 59.1987L124.069 59.1987C124.232 59.1987 124.385 59.23 124.528 59.2925C124.673 59.3527 124.799 59.4364 124.906 59.5436C125.013 59.6507 125.097 59.7768 125.157 59.9219C125.22 60.0648 125.251 60.2177 125.251 60.3806L125.251 60.9766ZM124.819 60.3806C124.819 60.2735 124.799 60.1742 124.759 60.0827C124.719 59.9889 124.663 59.9074 124.592 59.8382C124.522 59.7668 124.441 59.711 124.347 59.6708C124.256 59.6306 124.156 59.6106 124.049 59.6106L122.981 59.6106L122.981 61.7434L124.049 61.7434C124.156 61.7434 124.256 61.7233 124.347 61.6831C124.441 61.6429 124.522 61.5882 124.592 61.519C124.663 61.4498 124.719 61.3695 124.759 61.278C124.799 61.1842 124.819 61.0838 124.819 60.9766L124.819 60.3806ZM128.094 64.0001L127.866 63.6585C127.772 63.7813 127.655 63.8806 127.515 63.9565C127.374 64.0302 127.22 64.067 127.052 64.067L126.949 64.067C126.81 64.067 126.68 64.0414 126.557 63.99C126.434 63.9364 126.327 63.8639 126.235 63.7724C126.144 63.6809 126.071 63.5737 126.018 63.451C125.967 63.3282 125.941 63.1976 125.941 63.0592L125.941 63.0257C125.941 62.8873 125.967 62.7568 126.018 62.634C126.071 62.5112 126.144 62.4041 126.235 62.3126C126.327 62.221 126.434 62.1496 126.557 62.0983C126.68 62.0447 126.81 62.0179 126.949 62.0179L127.819 62.0179L127.819 61.4889C127.819 61.4063 127.804 61.3293 127.772 61.2579C127.741 61.1842 127.699 61.1206 127.645 61.067C127.592 61.0135 127.528 60.971 127.454 60.9398C127.383 60.9085 127.306 60.8929 127.223 60.8929L126.982 60.8929C126.9 60.8929 126.821 60.9085 126.748 60.9398C126.676 60.971 126.614 61.0135 126.56 61.067C126.507 61.1206 126.464 61.1842 126.433 61.2579C126.402 61.3293 126.386 61.4063 126.386 61.4889L126.386 61.6128L125.974 61.5458L125.974 61.5123C125.974 61.3739 126 61.2434 126.051 61.1206C126.105 60.9978 126.177 60.8907 126.269 60.7992C126.36 60.7077 126.468 60.6362 126.59 60.5849C126.713 60.5313 126.844 60.5045 126.982 60.5045L127.223 60.5045C127.362 60.5045 127.492 60.5313 127.615 60.5849C127.738 60.6362 127.845 60.7077 127.936 60.7992C128.028 60.8907 128.099 60.9978 128.151 61.1206C128.204 61.2434 128.231 61.3739 128.231 61.5123L128.231 64.0001L128.094 64.0001ZM127.819 62.3393L126.949 62.3393C126.866 62.3393 126.788 62.355 126.714 62.3862C126.643 62.4175 126.58 62.461 126.527 62.5168C126.473 62.5704 126.431 62.634 126.4 62.7077C126.368 62.7791 126.353 62.8561 126.353 62.9387L126.353 63.0827C126.353 63.1652 126.368 63.2434 126.4 63.317C126.431 63.3885 126.473 63.451 126.527 63.5045C126.58 63.5581 126.643 63.6005 126.714 63.6318C126.788 63.663 126.866 63.6786 126.949 63.6786L127.223 63.6786C127.306 63.6786 127.383 63.663 127.454 63.6318C127.528 63.6005 127.592 63.5581 127.645 63.5045C127.699 63.451 127.741 63.3885 127.772 63.317C127.804 63.2434 127.819 63.1652 127.819 63.0827L127.819 62.3393ZM131.412 63.1295C131.412 63.2679 131.384 63.3952 131.328 63.5112C131.272 63.6251 131.196 63.7233 131.1 63.8059C131.004 63.8885 130.893 63.9532 130.766 64.0001C130.641 64.0447 130.509 64.067 130.371 64.067L130.096 64.067C129.958 64.067 129.825 64.0414 129.698 63.99C129.573 63.9364 129.462 63.8639 129.366 63.7724C129.272 63.6809 129.196 63.5737 129.138 63.451C129.083 63.3282 129.055 63.1976 129.055 63.0592L129.055 62.9219L129.467 62.855L129.467 63.0827C129.467 63.1652 129.483 63.2434 129.517 63.317C129.552 63.3885 129.599 63.451 129.657 63.5045C129.715 63.5581 129.782 63.6005 129.858 63.6318C129.934 63.663 130.013 63.6786 130.096 63.6786L130.371 63.6786C130.453 63.6786 130.532 63.6664 130.608 63.6418C130.684 63.6172 130.751 63.5827 130.809 63.538C130.869 63.4911 130.916 63.4353 130.95 63.3706C130.985 63.3059 131.003 63.2322 131.003 63.1496C131.003 63.0268 130.977 62.9264 130.923 62.8483C130.869 62.7702 130.798 62.7054 130.709 62.6541C130.622 62.6005 130.521 62.557 130.407 62.5235C130.296 62.4878 130.181 62.4532 130.062 62.4197C129.944 62.384 129.828 62.3438 129.714 62.2992C129.603 62.2545 129.502 62.1965 129.413 62.1251C129.326 62.0514 129.256 61.9599 129.202 61.8505C129.148 61.7411 129.122 61.605 129.122 61.442C129.122 61.3036 129.148 61.1775 129.202 61.0637C129.256 60.9476 129.328 60.8483 129.42 60.7657C129.511 60.6831 129.617 60.6195 129.738 60.5748C129.86 60.528 129.991 60.5045 130.129 60.5045L130.371 60.5045C130.509 60.5045 130.64 60.5313 130.762 60.5849C130.885 60.6362 130.992 60.7077 131.084 60.7992C131.175 60.8907 131.247 60.9978 131.298 61.1206C131.352 61.2434 131.378 61.3739 131.378 61.5123L131.378 61.5257L130.967 61.5927L130.967 61.4889C130.967 61.4063 130.951 61.3293 130.92 61.2579C130.888 61.1842 130.846 61.1206 130.792 61.067C130.739 61.0135 130.675 60.971 130.602 60.9398C130.53 60.9085 130.453 60.8929 130.371 60.8929L130.129 60.8929C130.047 60.8929 129.969 60.9052 129.895 60.9297C129.824 60.9543 129.761 60.99 129.708 61.0369C129.654 61.0815 129.612 61.1362 129.58 61.201C129.549 61.2657 129.533 61.3393 129.533 61.4219C129.533 61.5402 129.56 61.6373 129.614 61.7132C129.667 61.7869 129.738 61.8494 129.825 61.9007C129.914 61.9521 130.015 61.9956 130.126 62.0313C130.24 62.0648 130.355 62.1005 130.471 62.1385C130.589 62.1742 130.704 62.2155 130.816 62.2623C130.93 62.3092 131.03 62.3695 131.117 62.4431C131.206 62.5168 131.278 62.6094 131.331 62.721C131.385 62.8304 131.412 62.9666 131.412 63.1295ZM133.451 64.0001C133.326 64.0001 133.208 63.9766 133.096 63.9297C132.987 63.8829 132.891 63.8181 132.808 63.7356C132.728 63.653 132.663 63.557 132.614 63.4476C132.567 63.3382 132.544 63.221 132.544 63.096L132.544 60.9632L131.927 60.9632L131.927 60.5715L132.544 60.5715L132.544 59.7478L132.955 59.6809L132.955 60.5715L133.826 60.5715L133.826 60.9632L132.955 60.9632L132.955 63.1161C132.955 63.1853 132.968 63.2501 132.992 63.3103C133.019 63.3684 133.055 63.4197 133.099 63.4643C133.144 63.509 133.196 63.5447 133.257 63.5715C133.317 63.596 133.382 63.6083 133.451 63.6083L133.826 63.6083L133.826 64.0001L133.451 64.0001Z" fill="#B8D7FF"/>
<g opacity="0.2">
<path fill-rule="evenodd" clip-rule="evenodd" d="M152.299 61.0669L154.01 62.7786C154.205 62.9736 154.522 62.9736 154.717 62.7786C154.912 62.5836 154.912 62.2675 154.717 62.0725L153.756 61.1118C154.79 61.1214 155.568 61.3141 156.028 61.8173C156.506 62.3413 156.692 62.7564 156.692 64.1301C156.692 64.4059 156.915 64.6294 157.191 64.6294C157.467 64.6294 157.69 64.4059 157.69 64.1301C157.69 62.5692 157.45 61.893 156.765 61.1437C156.124 60.4419 155.137 60.1551 153.954 60.1172L154.719 59.3525C154.914 59.1575 154.914 58.8413 154.719 58.6463C154.524 58.4513 154.208 58.4513 154.013 58.6463L152.299 60.3607C152.104 60.5557 152.104 60.8719 152.299 61.0669Z" fill="black"/>
<path fill-rule="evenodd" clip-rule="evenodd" d="M105.006 61.0669L103.294 62.7786C103.099 62.9736 102.782 62.9736 102.587 62.7786C102.392 62.5836 102.392 62.2675 102.587 62.0725L103.548 61.1118C102.514 61.1214 101.735 61.314 101.275 61.8172C100.797 62.3413 100.611 62.7564 100.611 64.1301C100.611 64.4058 100.388 64.6294 100.112 64.6294C99.8358 64.6294 99.6122 64.4058 99.6122 64.1301C99.6122 62.5692 99.8531 61.8929 100.538 61.1437C101.179 60.4418 102.166 60.1551 103.35 60.1171L102.585 59.3525C102.389 59.1575 102.389 58.8413 102.585 58.6463C102.78 58.4513 103.096 58.4513 103.291 58.6463L105.006 60.3607C105.201 60.5557 105.201 60.8719 105.006 61.0669Z" fill="black"/>
</g>
</g>
<g clip-path="url(#clip3_135_4596)">
<path d="M52.2511 60.9766C52.2511 61.1396 52.2199 61.2925 52.1574 61.4353C52.0971 61.5782 52.0134 61.7032 51.9062 61.8103C51.7991 61.9175 51.673 62.0023 51.5279 62.0648C51.385 62.1251 51.2321 62.1552 51.0692 62.1552L49.981 62.1552L49.981 64.0001L49.5491 64.0001L49.5491 59.1987L51.0692 59.1987C51.2321 59.1987 51.385 59.23 51.5279 59.2925C51.673 59.3527 51.7991 59.4364 51.9062 59.5436C52.0134 59.6507 52.0971 59.7768 52.1574 59.9219C52.2199 60.0648 52.2511 60.2177 52.2511 60.3806L52.2511 60.9766ZM51.8192 60.3806C51.8192 60.2735 51.7991 60.1742 51.7589 60.0827C51.7187 59.9889 51.6629 59.9074 51.5915 59.8382C51.5223 59.7668 51.4408 59.711 51.3471 59.6708C51.2556 59.6306 51.1562 59.6106 51.0491 59.6106L49.981 59.6106L49.981 61.7434L51.0491 61.7434C51.1562 61.7434 51.2556 61.7233 51.3471 61.6831C51.4408 61.6429 51.5223 61.5882 51.5915 61.519C51.6629 61.4498 51.7187 61.3695 51.7589 61.278C51.7991 61.1842 51.8192 61.0838 51.8192 60.9766L51.8192 60.3806ZM53.9487 60.9632C53.8661 60.9632 53.7879 60.9789 53.7143 61.0101C53.6429 61.0414 53.5804 61.0838 53.5268 61.1373C53.4732 61.1909 53.4308 61.2545 53.3996 61.3282C53.3683 61.3996 53.3527 61.4766 53.3527 61.5592L53.3527 64.0001L52.9408 64.0001L52.9408 60.5715L53.0781 60.5715L53.3025 60.9197C53.3962 60.7925 53.5134 60.692 53.654 60.6184C53.7969 60.5425 53.952 60.5045 54.1194 60.5045L54.3605 60.5045L54.3605 60.9632L53.9487 60.9632ZM57.1998 63.0592C57.1998 63.1976 57.173 63.3282 57.1194 63.451C57.0681 63.5737 56.9967 63.6809 56.9051 63.7724C56.8136 63.8639 56.7065 63.9364 56.5837 63.99C56.4609 64.0414 56.3304 64.067 56.192 64.067L55.9174 64.067C55.779 64.067 55.6484 64.0414 55.5257 63.99C55.4029 63.9364 55.2958 63.8639 55.2042 63.7724C55.1127 63.6809 55.0402 63.5737 54.9866 63.451C54.9353 63.3282 54.9096 63.1976 54.9096 63.0592L54.9096 61.5123C54.9096 61.3739 54.9353 61.2434 54.9866 61.1206C55.0402 60.9978 55.1127 60.8907 55.2042 60.7992C55.2958 60.7077 55.4029 60.6362 55.5257 60.5849C55.6484 60.5313 55.779 60.5045 55.9174 60.5045L56.192 60.5045C56.3304 60.5045 56.4609 60.5313 56.5837 60.5849C56.7065 60.6362 56.8136 60.7077 56.9051 60.7992C56.9967 60.8907 57.0681 60.9978 57.1194 61.1206C57.173 61.2434 57.1998 61.3739 57.1998 61.5123L57.1998 62.3193L55.3214 62.3193L55.3214 63.0827C55.3214 63.1652 55.3371 63.2434 55.3683 63.317C55.3996 63.3885 55.442 63.451 55.4955 63.5045C55.5491 63.5581 55.6116 63.6005 55.683 63.6318C55.7567 63.663 55.8348 63.6786 55.9174 63.6786L56.192 63.6786C56.2746 63.6786 56.3516 63.663 56.423 63.6318C56.4967 63.6005 56.5603 63.5581 56.6138 63.5045C56.6674 63.451 56.7098 63.3885 56.7411 63.317C56.7723 63.2434 56.7879 63.1652 56.7879 63.0827L56.7879 62.855L57.1998 62.9219L57.1998 63.0592ZM56.7879 61.4889C56.7879 61.4063 56.7723 61.3293 56.7411 61.2579C56.7098 61.1842 56.6674 61.1206 56.6138 61.067C56.5603 61.0135 56.4967 60.971 56.423 60.9398C56.3516 60.9085 56.2746 60.8929 56.192 60.8929L55.9174 60.8929C55.8348 60.8929 55.7567 60.9085 55.683 60.9398C55.6116 60.971 55.5491 61.0135 55.4955 61.067C55.442 61.1206 55.3996 61.1842 55.3683 61.2579C55.3371 61.3293 55.3214 61.4063 55.3214 61.4889L55.3214 61.9978L56.7879 61.9978L56.7879 61.4889ZM60.3806 63.1295C60.3806 63.2679 60.3527 63.3952 60.2969 63.5112C60.2411 63.6251 60.1652 63.7233 60.0692 63.8059C59.9732 63.8885 59.8616 63.9532 59.7344 64.0001C59.6094 64.0447 59.4777 64.067 59.3393 64.067L59.0647 64.067C58.9263 64.067 58.7935 64.0414 58.6663 63.99C58.5413 63.9364 58.4308 63.8639 58.3348 63.7724C58.2411 63.6809 58.1652 63.5737 58.1071 63.451C58.0513 63.3282 58.0234 63.1976 58.0234 63.0592L58.0234 62.9219L58.4353 62.855L58.4353 63.0827C58.4353 63.1652 58.452 63.2434 58.4855 63.317C58.5212 63.3885 58.5681 63.451 58.6261 63.5045C58.6842 63.5581 58.7511 63.6005 58.827 63.6318C58.9029 63.663 58.9821 63.6786 59.0647 63.6786L59.3393 63.6786C59.4219 63.6786 59.5011 63.6664 59.577 63.6418C59.6529 63.6172 59.7199 63.5827 59.7779 63.538C59.8382 63.4911 59.885 63.4353 59.9185 63.3706C59.9542 63.3059 59.9721 63.2322 59.9721 63.1496C59.9721 63.0268 59.9453 62.9264 59.8917 62.8483C59.8382 62.7702 59.7667 62.7054 59.6775 62.6541C59.5904 62.6005 59.49 62.557 59.3761 62.5235C59.2645 62.4878 59.1496 62.4532 59.0312 62.4197C58.9129 62.384 58.7969 62.3438 58.683 62.2992C58.5714 62.2545 58.471 62.1965 58.3817 62.1251C58.2946 62.0514 58.2243 61.9599 58.1708 61.8505C58.1172 61.7411 58.0904 61.605 58.0904 61.442C58.0904 61.3036 58.1172 61.1775 58.1708 61.0637C58.2243 60.9476 58.2969 60.8483 58.3884 60.7657C58.4799 60.6831 58.5859 60.6195 58.7065 60.5748C58.8292 60.528 58.9598 60.5045 59.0982 60.5045L59.3393 60.5045C59.4777 60.5045 59.6083 60.5313 59.731 60.5849C59.8538 60.6362 59.9609 60.7077 60.0525 60.7992C60.144 60.8907 60.2154 60.9978 60.2667 61.1206C60.3203 61.2434 60.3471 61.3739 60.3471 61.5123L60.3471 61.5257L59.9353 61.5927L59.9353 61.4889C59.9353 61.4063 59.9196 61.3293 59.8884 61.2579C59.8571 61.1842 59.8147 61.1206 59.7612 61.067C59.7076 61.0135 59.644 60.971 59.5703 60.9398C59.4989 60.9085 59.4219 60.8929 59.3393 60.8929L59.0982 60.8929C59.0156 60.8929 58.9375 60.9052 58.8638 60.9297C58.7924 60.9543 58.7299 60.99 58.6763 61.0369C58.6228 61.0815 58.5804 61.1362 58.5491 61.201C58.5179 61.2657 58.5022 61.3393 58.5022 61.4219C58.5022 61.5402 58.529 61.6373 58.5826 61.7132C58.6362 61.7869 58.7065 61.8494 58.7935 61.9007C58.8828 61.9521 58.9833 61.9956 59.0949 62.0313C59.2087 62.0648 59.3237 62.1005 59.4397 62.1385C59.558 62.1742 59.673 62.2155 59.7846 62.2623C59.8984 62.3092 59.9989 62.3695 60.0859 62.4431C60.1752 62.5168 60.2467 62.6094 60.3002 62.721C60.3538 62.8304 60.3806 62.9666 60.3806 63.1295ZM63.4609 63.0592C63.4609 63.1976 63.4342 63.3282 63.3806 63.451C63.3292 63.5737 63.2578 63.6809 63.1663 63.7724C63.0748 63.8639 62.9676 63.9364 62.8449 63.99C62.7221 64.0414 62.5915 64.067 62.4531 64.067L62.1786 64.067C62.0402 64.067 61.9096 64.0414 61.7868 63.99C61.6641 63.9364 61.5569 63.8639 61.4654 63.7724C61.3739 63.6809 61.3013 63.5737 61.2478 63.451C61.1964 63.3282 61.1708 63.1976 61.1708 63.0592L61.1708 61.5123C61.1708 61.3739 61.1964 61.2434 61.2478 61.1206C61.3013 60.9978 61.3739 60.8907 61.4654 60.7992C61.5569 60.7077 61.6641 60.6362 61.7868 60.5849C61.9096 60.5313 62.0402 60.5045 62.1786 60.5045L62.4531 60.5045C62.5915 60.5045 62.7221 60.5313 62.8449 60.5849C62.9676 60.6362 63.0748 60.7077 63.1663 60.7992C63.2578 60.8907 63.3292 60.9978 63.3806 61.1206C63.4342 61.2434 63.4609 61.3739 63.4609 61.5123L63.4609 62.3193L61.5826 62.3193L61.5826 63.0827C61.5826 63.1652 61.5982 63.2434 61.6295 63.317C61.6607 63.3885 61.7031 63.451 61.7567 63.5045C61.8103 63.5581 61.8728 63.6005 61.9442 63.6318C62.0179 63.663 62.096 63.6786 62.1786 63.6786L62.4531 63.6786C62.5357 63.6786 62.6127 63.663 62.6842 63.6318C62.7578 63.6005 62.8214 63.5581 62.875 63.5045C62.9286 63.451 62.971 63.3885 63.0022 63.317C63.0335 63.2434 63.0491 63.1652 63.0491 63.0827L63.0491 62.855L63.4609 62.9219L63.4609 63.0592ZM63.0491 61.4889C63.0491 61.4063 63.0335 61.3293 63.0022 61.2579C62.971 61.1842 62.9286 61.1206 62.875 61.067C62.8214 61.0135 62.7578 60.971 62.6842 60.9398C62.6127 60.9085 62.5357 60.8929 62.4531 60.8929L62.1786 60.8929C62.096 60.8929 62.0179 60.9085 61.9442 60.9398C61.8728 60.971 61.8103 61.0135 61.7567 61.067C61.7031 61.1206 61.6607 61.1842 61.6295 61.2579C61.5982 61.3293 61.5826 61.4063 61.5826 61.4889L61.5826 61.9978L63.0491 61.9978L63.0491 61.4889ZM66.1629 64.0001L66.1629 61.4889C66.1629 61.4063 66.1473 61.3293 66.1161 61.2579C66.0848 61.1842 66.0424 61.1206 65.9888 61.067C65.9353 61.0135 65.8717 60.971 65.798 60.9398C65.7266 60.9085 65.6496 60.8929 65.567 60.8929L65.2924 60.8929C65.2098 60.8929 65.1317 60.9085 65.058 60.9398C64.9866 60.971 64.9241 61.0135 64.8705 61.067C64.817 61.1206 64.7746 61.1842 64.7433 61.2579C64.7121 61.3293 64.6964 61.4063 64.6964 61.4889L64.6964 64.0001L64.2846 64.0001L64.2846 60.5715L64.4219 60.5715L64.6462 60.9197C64.74 60.7925 64.8571 60.692 64.9978 60.6184C65.1406 60.5425 65.2958 60.5045 65.4632 60.5045L65.567 60.5045C65.7054 60.5045 65.8359 60.5313 65.9587 60.5849C66.0815 60.6362 66.1886 60.7077 66.2801 60.7992C66.3717 60.8907 66.4431 60.9978 66.4944 61.1206C66.548 61.2434 66.5748 61.3739 66.5748 61.5123L66.5748 64.0001L66.1629 64.0001ZM68.6473 64.0001C68.5223 64.0001 68.404 63.9766 68.2924 63.9298C68.183 63.8829 68.0871 63.8181 68.0045 63.7356C67.9241 63.653 67.8594 63.557 67.8103 63.4476C67.7634 63.3382 67.74 63.221 67.74 63.096L67.74 60.9632L67.1239 60.9632L67.1239 60.5715L67.74 60.5715L67.74 59.7478L68.1518 59.6809L68.1518 60.5715L69.0223 60.5715L69.0223 60.9632L68.1518 60.9632L68.1518 63.1161C68.1518 63.1853 68.1641 63.2501 68.1886 63.3103C68.2154 63.3684 68.2511 63.4197 68.2958 63.4643C68.3404 63.509 68.3929 63.5447 68.4531 63.5715C68.5134 63.596 68.5781 63.6083 68.6473 63.6083L69.0223 63.6083L69.0223 64.0001L68.6473 64.0001Z" fill="#B8D7FF"/>
<g opacity="0.2">
<path fill-rule="evenodd" clip-rule="evenodd" d="M83.2986 61.0669L85.0104 62.7786C85.2054 62.9736 85.5215 62.9736 85.7165 62.7786C85.9115 62.5836 85.9115 62.2675 85.7165 62.0725L84.7559 61.1118C85.79 61.1214 86.5681 61.3141 87.0278 61.8173C87.5065 62.3413 87.6918 62.7564 87.6918 64.1301C87.6918 64.4059 87.9153 64.6294 88.1911 64.6294C88.4669 64.6294 88.6904 64.4059 88.6904 64.1301C88.6904 62.5692 88.4495 61.893 87.7651 61.1437C87.1239 60.4419 86.1374 60.1551 84.9545 60.1172L85.7192 59.3525C85.9142 59.1575 85.9142 58.8413 85.7192 58.6463C85.5242 58.4513 85.2081 58.4513 85.0131 58.6463L83.2986 60.3607C83.1036 60.5557 83.1036 60.8719 83.2986 61.0669Z" fill="black"/>
<path fill-rule="evenodd" clip-rule="evenodd" d="M36.006 61.0669L34.2937 62.7786C34.0986 62.9736 33.7823 62.9736 33.5873 62.7786C33.3922 62.5836 33.3922 62.2675 33.5873 62.0725L34.5483 61.1118C33.5137 61.1214 32.7353 61.314 32.2754 61.8172C31.7965 62.3413 31.6112 62.7564 31.6112 64.1301C31.6112 64.4058 31.3875 64.6294 31.1117 64.6294C30.8358 64.6294 30.6122 64.4058 30.6122 64.1301C30.6122 62.5692 30.8531 61.8929 31.5378 61.1437C32.1792 60.4418 33.1662 60.1551 34.3495 60.1171L33.5845 59.3525C33.3895 59.1575 33.3895 58.8413 33.5845 58.6463C33.7796 58.4513 34.0959 58.4513 34.291 58.6463L36.006 60.3607C36.2011 60.5557 36.2011 60.8719 36.006 61.0669Z" fill="black"/>
</g>
</g>
<g style="mix-blend-mode:luminosity">
<path d="M90.015 34.5741C90.585 34.5741 91.128 34.5981 91.644 34.6461C91.68 34.7061 91.698 34.7931 91.698 34.9071C91.698 34.9971 91.686 35.0751 91.662 35.1411C91.182 35.0871 90.603 35.0631 89.925 35.0691L89.925 40.1451C89.925 40.4751 89.958 40.6401 90.024 40.6401L90.591 40.6221C90.615 40.6641 90.627 40.7211 90.627 40.7931C90.627 40.8411 90.618 40.8921 90.6 40.9461C90.204 41.0601 89.82 41.1171 89.448 41.1171C89.256 41.1171 89.118 41.1081 89.034 41.0901C88.956 41.0781 88.902 41.0481 88.872 41.0001C88.848 40.9461 88.839 40.8561 88.845 40.7301L88.845 35.1411C88.143 35.1951 87.534 35.2821 87.018 35.4021C86.982 35.3181 86.964 35.2341 86.964 35.1501C86.964 35.1021 86.976 35.0241 87 34.9161C87.864 34.6881 88.869 34.5741 90.015 34.5741ZM96.1321 40.7931C96.1321 40.8411 96.1231 40.8921 96.1051 40.9461C95.7211 41.0601 95.3161 41.1171 94.8901 41.1171C94.7281 41.1171 94.6081 41.1081 94.5301 41.0901C94.4581 41.0781 94.4101 41.0511 94.3861 41.0091C94.3621 40.9731 94.3501 40.9101 94.3501 40.8201C93.6601 41.0181 93.0661 41.1171 92.5681 41.1171C92.2381 41.1171 92.0041 41.0661 91.8661 40.9641C91.7281 40.8621 91.6591 40.6851 91.6591 40.4331L91.6591 39.1731C91.6591 38.9211 91.7221 38.7261 91.8481 38.5881C91.9741 38.4441 92.1751 38.3421 92.4511 38.2821C93.1171 38.1801 93.7501 38.1141 94.3501 38.0841L94.3501 37.3821C94.3501 37.1541 94.3051 37.0041 94.2151 36.9321C94.1311 36.8601 93.9541 36.8241 93.6841 36.8241C93.5161 36.8241 93.1801 36.8661 92.6761 36.9501C92.2381 37.0341 91.9501 37.0971 91.8121 37.1391C91.7821 37.0671 91.7671 36.9921 91.7671 36.9141C91.7671 36.8361 91.7791 36.7761 91.8031 36.7341C92.5651 36.4941 93.4471 36.3741 94.4491 36.3741C94.7731 36.3741 95.0071 36.4251 95.1511 36.5271C95.3011 36.6291 95.3761 36.7971 95.3761 37.0311L95.3761 40.1451C95.3761 40.4751 95.4091 40.6401 95.4751 40.6401L96.0961 40.6221C96.1201 40.6641 96.1321 40.7211 96.1321 40.7931ZM93.2521 40.6131C93.5341 40.6131 93.9001 40.5471 94.3501 40.4151L94.3501 38.4891C94.0201 38.5011 93.7081 38.5341 93.4141 38.5881C93.1141 38.6421 92.9101 38.7141 92.8021 38.8041C92.7241 38.8641 92.6851 38.9991 92.6851 39.2091L92.6851 40.2081C92.6851 40.4781 92.8741 40.6131 93.2521 40.6131ZM97.0042 37.3461C97.0042 37.0161 96.9712 36.8511 96.9052 36.8511L96.2842 36.8691C96.2602 36.8271 96.2482 36.7701 96.2482 36.6981C96.2482 36.6501 96.2572 36.5991 96.2752 36.5451C96.6712 36.4311 97.0762 36.3741 97.4902 36.3741C97.6702 36.3741 97.7962 36.3831 97.8682 36.4011C97.9402 36.4131 97.9852 36.4461 98.0032 36.5001C98.0272 36.5481 98.0362 36.6351 98.0302 36.7611L98.3632 36.6621C98.5732 36.6021 98.7232 36.5631 98.8132 36.5451C98.8072 36.5451 98.8732 36.5301 99.0112 36.5001C99.1792 36.4581 99.3832 36.4221 99.6232 36.3921C99.7672 36.3801 99.8692 36.3741 99.9292 36.3741C100.259 36.3741 100.493 36.4281 100.631 36.5361C100.769 36.6381 100.838 36.8121 100.838 37.0581L100.838 39.9471C100.844 40.4391 100.58 40.7301 100.046 40.8201C99.3982 40.9461 98.7262 41.0211 98.0302 41.0451L98.0302 42.8901C98.0302 42.9741 97.9822 43.0341 97.8862 43.0701C97.6582 43.1361 97.4152 43.1691 97.1572 43.1691C97.0552 43.1691 97.0042 43.1181 97.0042 43.0161L97.0042 37.3461ZM99.3082 36.9141C99.1222 36.9141 98.6962 37.0011 98.0302 37.1751L98.0302 40.6401C98.5282 40.6101 98.9212 40.5651 99.2092 40.5051C99.4552 40.4571 99.6172 40.3971 99.6952 40.3251C99.7732 40.2531 99.8122 40.1211 99.8122 39.9291L99.8122 37.2831C99.8122 37.0371 99.6442 36.9141 99.3082 36.9141Z" fill="#256CD0"/>
</g>
</g>
</g>
<path d="M66.1473 89V88.4844H66.6629V89H66.1473ZM67.6205 89V88.4844H68.1362V89H67.6205ZM69.0937 89V88.4844H69.6094V89H69.0937ZM71.7489 89C71.6239 89 71.5056 88.9766 71.394 88.9297C71.2846 88.8828 71.1886 88.8181 71.106 88.7355C71.0257 88.6529 70.9609 88.5569 70.9118 88.4475C70.865 88.3382 70.8415 88.221 70.8415 88.096V85.9632H70.2254V85.5714H70.8415V84.7478L71.2533 84.6808V85.5714H72.1239V85.9632H71.2533V88.1161C71.2533 88.1853 71.2656 88.25 71.2902 88.3103C71.317 88.3683 71.3527 88.4196 71.3973 88.4643C71.442 88.5089 71.4944 88.5446 71.5547 88.5714C71.615 88.596 71.6797 88.6083 71.7489 88.6083H72.1239V89H71.7489ZM74.7623 89V86.4888C74.7623 86.4062 74.7467 86.3292 74.7154 86.2578C74.6842 86.1842 74.6417 86.1205 74.5882 86.067C74.5346 86.0134 74.471 85.971 74.3973 85.9397C74.3259 85.9085 74.2489 85.8929 74.1663 85.8929H73.8917C73.8092 85.8929 73.731 85.9085 73.6574 85.9397C73.5859 85.971 73.5234 86.0134 73.4699 86.067C73.4163 86.1205 73.3739 86.1842 73.3426 86.2578C73.3114 86.3292 73.2958 86.4062 73.2958 86.4888V89H72.8839V84.1987H73.2958V85.8594C73.3895 85.7478 73.5022 85.6607 73.6339 85.5982C73.7656 85.5357 73.9085 85.5045 74.0625 85.5045H74.1663C74.3047 85.5045 74.4353 85.5312 74.558 85.5848C74.6808 85.6362 74.7879 85.7076 74.8795 85.7991C74.971 85.8906 75.0424 85.9978 75.0937 86.1205C75.1473 86.2433 75.1741 86.3739 75.1741 86.5123V89H74.7623ZM78.1507 89L77.923 88.6585C77.8292 88.7812 77.7121 88.8806 77.5714 88.9565C77.4308 89.0301 77.2768 89.067 77.1094 89.067H77.0056C76.8672 89.067 76.7366 89.0413 76.6138 88.99C76.4911 88.9364 76.3839 88.8638 76.2924 88.7723C76.2009 88.6808 76.1283 88.5737 76.0748 88.4509C76.0234 88.3281 75.9978 88.1975 75.9978 88.0592V88.0257C75.9978 87.8873 76.0234 87.7567 76.0748 87.6339C76.1283 87.5112 76.2009 87.404 76.2924 87.3125C76.3839 87.221 76.4911 87.1496 76.6138 87.0982C76.7366 87.0446 76.8672 87.0179 77.0056 87.0179H77.8761V86.4888C77.8761 86.4062 77.8605 86.3292 77.8292 86.2578C77.798 86.1842 77.7556 86.1205 77.702 86.067C77.6484 86.0134 77.5848 85.971 77.5112 85.9397C77.4397 85.9085 77.3627 85.8929 77.2801 85.8929H77.0391C76.9565 85.8929 76.8783 85.9085 76.8047 85.9397C76.7333 85.971 76.6708 86.0134 76.6172 86.067C76.5636 86.1205 76.5212 86.1842 76.49 86.2578C76.4587 86.3292 76.4431 86.4062 76.4431 86.4888V86.6127L76.0312 86.5458V86.5123C76.0312 86.3739 76.0569 86.2433 76.1083 86.1205C76.1618 85.9978 76.2344 85.8906 76.3259 85.7991C76.4174 85.7076 76.5246 85.6362 76.6473 85.5848C76.7701 85.5312 76.9007 85.5045 77.0391 85.5045H77.2801C77.4185 85.5045 77.5491 85.5312 77.6719 85.5848C77.7946 85.6362 77.9018 85.7076 77.9933 85.7991C78.0848 85.8906 78.1562 85.9978 78.2076 86.1205C78.2612 86.2433 78.2879 86.3739 78.2879 86.5123V89H78.1507ZM77.8761 87.3393H77.0056C76.923 87.3393 76.8449 87.3549 76.7712 87.3862C76.6998 87.4174 76.6373 87.4609 76.5837 87.5167C76.5301 87.5703 76.4877 87.6339 76.4565 87.7076C76.4252 87.779 76.4096 87.856 76.4096 87.9386V88.0826C76.4096 88.1652 76.4252 88.2433 76.4565 88.317C76.4877 88.3884 76.5301 88.4509 76.5837 88.5045C76.6373 88.558 76.6998 88.6004 76.7712 88.6317C76.8449 88.6629 76.923 88.6786 77.0056 88.6786H77.2801C77.3627 88.6786 77.4397 88.6629 77.5112 88.6317C77.5848 88.6004 77.6484 88.558 77.702 88.5045C77.7556 88.4509 77.798 88.3884 77.8292 88.317C77.8605 88.2433 77.8761 88.1652 77.8761 88.0826V87.3393ZM80.3605 89C80.2355 89 80.1172 88.9766 80.0056 88.9297C79.8962 88.8828 79.8002 88.8181 79.7176 88.7355C79.6373 88.6529 79.5725 88.5569 79.5234 88.4475C79.4766 88.3382 79.4531 88.221 79.4531 88.096V85.9632H78.8371V85.5714H79.4531V84.7478L79.865 84.6808V85.5714H80.7355V85.9632H79.865V88.1161C79.865 88.1853 79.8772 88.25 79.9018 88.3103C79.9286 88.3683 79.9643 88.4196 80.0089 88.4643C80.0536 88.5089 80.106 88.5446 80.1663 88.5714C80.2266 88.596 80.2913 88.6083 80.3605 88.6083H80.7355V89H80.3605ZM85.3661 88.0592C85.3661 88.1975 85.3393 88.3281 85.2857 88.4509C85.2344 88.5737 85.1629 88.6808 85.0714 88.7723C84.9799 88.8638 84.8728 88.9364 84.75 88.99C84.6272 89.0413 84.4967 89.067 84.3583 89.067H84.0837C83.9453 89.067 83.8147 89.0413 83.692 88.99C83.5692 88.9364 83.4621 88.8638 83.3705 88.7723C83.279 88.6808 83.2065 88.5737 83.1529 88.4509C83.1016 88.3281 83.0759 88.1975 83.0759 88.0592V86.5123C83.0759 86.3739 83.1016 86.2433 83.1529 86.1205C83.2065 85.9978 83.279 85.8906 83.3705 85.7991C83.4621 85.7076 83.5692 85.6362 83.692 85.5848C83.8147 85.5312 83.9453 85.5045 84.0837 85.5045H84.3583C84.4967 85.5045 84.6272 85.5312 84.75 85.5848C84.8728 85.6362 84.9799 85.7076 85.0714 85.7991C85.1629 85.8906 85.2344 85.9978 85.2857 86.1205C85.3393 86.2433 85.3661 86.3739 85.3661 86.5123V86.6496L84.9542 86.7165V86.4888C84.9542 86.4062 84.9386 86.3292 84.9074 86.2578C84.8761 86.1842 84.8337 86.1205 84.7801 86.067C84.7266 86.0134 84.6629 85.971 84.5893 85.9397C84.5179 85.9085 84.4408 85.8929 84.3583 85.8929H84.0837C84.0011 85.8929 83.923 85.9085 83.8493 85.9397C83.7779 85.971 83.7154 86.0134 83.6618 86.067C83.6083 86.1205 83.5658 86.1842 83.5346 86.2578C83.5033 86.3292 83.4877 86.4062 83.4877 86.4888V88.0826C83.4877 88.1652 83.5033 88.2433 83.5346 88.317C83.5658 88.3884 83.6083 88.4509 83.6618 88.5045C83.7154 88.558 83.7779 88.6004 83.8493 88.6317C83.923 88.6629 84.0011 88.6786 84.0837 88.6786H84.3583C84.4408 88.6786 84.5179 88.6629 84.5893 88.6317C84.6629 88.6004 84.7266 88.558 84.7801 88.5045C84.8337 88.4509 84.8761 88.3884 84.9074 88.317C84.9386 88.2433 84.9542 88.1652 84.9542 88.0826V87.8549L85.3661 87.9219V88.0592ZM88.4799 88.0592C88.4799 88.1975 88.4531 88.3281 88.3996 88.4509C88.3482 88.5737 88.2768 88.6808 88.1853 88.7723C88.0937 88.8638 87.9866 88.9364 87.8638 88.99C87.7411 89.0413 87.6105 89.067 87.4721 89.067H87.1975C87.0592 89.067 86.9286 89.0413 86.8058 88.99C86.683 88.9364 86.5759 88.8638 86.4844 88.7723C86.3929 88.6808 86.3203 88.5737 86.2667 88.4509C86.2154 88.3281 86.1897 88.1975 86.1897 88.0592V86.5123C86.1897 86.3739 86.2154 86.2433 86.2667 86.1205C86.3203 85.9978 86.3929 85.8906 86.4844 85.7991C86.5759 85.7076 86.683 85.6362 86.8058 85.5848C86.9286 85.5312 87.0592 85.5045 87.1975 85.5045H87.4721C87.6105 85.5045 87.7411 85.5312 87.8638 85.5848C87.9866 85.6362 88.0937 85.7076 88.1853 85.7991C88.2768 85.8906 88.3482 85.9978 88.3996 86.1205C88.4531 86.2433 88.4799 86.3739 88.4799 86.5123V88.0592ZM88.0681 86.4888C88.0681 86.4062 88.0525 86.3292 88.0212 86.2578C87.99 86.1842 87.9475 86.1205 87.894 86.067C87.8404 86.0134 87.7768 85.971 87.7031 85.9397C87.6317 85.9085 87.5547 85.8929 87.4721 85.8929H87.1975C87.115 85.8929 87.0368 85.9085 86.9632 85.9397C86.8917 85.971 86.8292 86.0134 86.7757 86.067C86.7221 86.1205 86.6797 86.1842 86.6484 86.2578C86.6172 86.3292 86.6016 86.4062 86.6016 86.4888V88.0826C86.6016 88.1652 86.6172 88.2433 86.6484 88.317C86.6797 88.3884 86.7221 88.4509 86.7757 88.5045C86.8292 88.558 86.8917 88.6004 86.9632 88.6317C87.0368 88.6629 87.115 88.6786 87.1975 88.6786H87.4721C87.5547 88.6786 87.6317 88.6629 87.7031 88.6317C87.7768 88.6004 87.8404 88.558 87.894 88.5045C87.9475 88.4509 87.99 88.3884 88.0212 88.317C88.0525 88.2433 88.0681 88.1652 88.0681 88.0826V86.4888ZM91.1819 89V86.4888C91.1819 86.4062 91.1663 86.3292 91.135 86.2578C91.1038 86.1842 91.0614 86.1205 91.0078 86.067C90.9542 86.0134 90.8906 85.971 90.817 85.9397C90.7455 85.9085 90.6685 85.8929 90.5859 85.8929H90.3114C90.2288 85.8929 90.1507 85.9085 90.077 85.9397C90.0056 85.971 89.9431 86.0134 89.8895 86.067C89.8359 86.1205 89.7935 86.1842 89.7623 86.2578C89.731 86.3292 89.7154 86.4062 89.7154 86.4888V89H89.3036V85.5714H89.4408L89.6652 85.9196C89.7589 85.7924 89.8761 85.692 90.0167 85.6183C90.1596 85.5424 90.3147 85.5045 90.4821 85.5045H90.5859C90.7243 85.5045 90.8549 85.5312 90.9777 85.5848C91.1004 85.6362 91.2076 85.7076 91.2991 85.7991C91.3906 85.8906 91.4621 85.9978 91.5134 86.1205C91.567 86.2433 91.5937 86.3739 91.5937 86.5123V89H91.1819ZM94.2958 89V86.4888C94.2958 86.4062 94.2801 86.3292 94.2489 86.2578C94.2176 86.1842 94.1752 86.1205 94.1217 86.067C94.0681 86.0134 94.0045 85.971 93.9308 85.9397C93.8594 85.9085 93.7824 85.8929 93.6998 85.8929H93.4252C93.3426 85.8929 93.2645 85.9085 93.1908 85.9397C93.1194 85.971 93.0569 86.0134 93.0033 86.067C92.9498 86.1205 92.9074 86.1842 92.8761 86.2578C92.8449 86.3292 92.8292 86.4062 92.8292 86.4888V89H92.4174V85.5714H92.5547L92.779 85.9196C92.8728 85.7924 92.99 85.692 93.1306 85.6183C93.2734 85.5424 93.4286 85.5045 93.596 85.5045H93.6998C93.8382 85.5045 93.9687 85.5312 94.0915 85.5848C94.2143 85.6362 94.3214 85.7076 94.4129 85.7991C94.5045 85.8906 94.5759 85.9978 94.6272 86.1205C94.6808 86.2433 94.7076 86.3739 94.7076 86.5123V89H94.2958ZM97.8214 88.0592C97.8214 88.1975 97.7946 88.3281 97.7411 88.4509C97.6897 88.5737 97.6183 88.6808 97.5268 88.7723C97.4353 88.8638 97.3281 88.9364 97.2054 88.99C97.0826 89.0413 96.952 89.067 96.8136 89.067H96.5391C96.4007 89.067 96.2701 89.0413 96.1473 88.99C96.0246 88.9364 95.9174 88.8638 95.8259 88.7723C95.7344 88.6808 95.6618 88.5737 95.6083 88.4509C95.5569 88.3281 95.5312 88.1975 95.5312 88.0592V86.5123C95.5312 86.3739 95.5569 86.2433 95.6083 86.1205C95.6618 85.9978 95.7344 85.8906 95.8259 85.7991C95.9174 85.7076 96.0246 85.6362 96.1473 85.5848C96.2701 85.5312 96.4007 85.5045 96.5391 85.5045H96.8136C96.952 85.5045 97.0826 85.5312 97.2054 85.5848C97.3281 85.6362 97.4353 85.7076 97.5268 85.7991C97.6183 85.8906 97.6897 85.9978 97.7411 86.1205C97.7946 86.2433 97.8214 86.3739 97.8214 86.5123V87.3192H95.9431V88.0826C95.9431 88.1652 95.9587 88.2433 95.99 88.317C96.0212 88.3884 96.0636 88.4509 96.1172 88.5045C96.1708 88.558 96.2333 88.6004 96.3047 88.6317C96.3783 88.6629 96.4565 88.6786 96.5391 88.6786H96.8136C96.8962 88.6786 96.9732 88.6629 97.0446 88.6317C97.1183 88.6004 97.1819 88.558 97.2355 88.5045C97.2891 88.4509 97.3315 88.3884 97.3627 88.317C97.394 88.2433 97.4096 88.1652 97.4096 88.0826V87.8549L97.8214 87.9219V88.0592ZM97.4096 86.4888C97.4096 86.4062 97.394 86.3292 97.3627 86.2578C97.3315 86.1842 97.2891 86.1205 97.2355 86.067C97.1819 86.0134 97.1183 85.971 97.0446 85.9397C96.9732 85.9085 96.8962 85.8929 96.8136 85.8929H96.5391C96.4565 85.8929 96.3783 85.9085 96.3047 85.9397C96.2333 85.971 96.1708 86.0134 96.1172 86.067C96.0636 86.1205 96.0212 86.1842 95.99 86.2578C95.9587 86.3292 95.9431 86.4062 95.9431 86.4888V86.9978H97.4096V86.4888ZM100.935 88.0592C100.935 88.1975 100.908 88.3281 100.855 88.4509C100.804 88.5737 100.732 88.6808 100.641 88.7723C100.549 88.8638 100.442 88.9364 100.319 88.99C100.196 89.0413 100.066 89.067 99.9275 89.067H99.6529C99.5145 89.067 99.3839 89.0413 99.2612 88.99C99.1384 88.9364 99.0312 88.8638 98.9397 88.7723C98.8482 88.6808 98.7757 88.5737 98.7221 88.4509C98.6708 88.3281 98.6451 88.1975 98.6451 88.0592V86.5123C98.6451 86.3739 98.6708 86.2433 98.7221 86.1205C98.7757 85.9978 98.8482 85.8906 98.9397 85.7991C99.0312 85.7076 99.1384 85.6362 99.2612 85.5848C99.3839 85.5312 99.5145 85.5045 99.6529 85.5045H99.9275C100.066 85.5045 100.196 85.5312 100.319 85.5848C100.442 85.6362 100.549 85.7076 100.641 85.7991C100.732 85.8906 100.804 85.9978 100.855 86.1205C100.908 86.2433 100.935 86.3739 100.935 86.5123V86.6496L100.523 86.7165V86.4888C100.523 86.4062 100.508 86.3292 100.477 86.2578C100.445 86.1842 100.403 86.1205 100.349 86.067C100.296 86.0134 100.232 85.971 100.158 85.9397C100.087 85.9085 100.01 85.8929 99.9275 85.8929H99.6529C99.5703 85.8929 99.4922 85.9085 99.4185 85.9397C99.3471 85.971 99.2846 86.0134 99.231 86.067C99.1775 86.1205 99.135 86.1842 99.1038 86.2578C99.0725 86.3292 99.0569 86.4062 99.0569 86.4888V88.0826C99.0569 88.1652 99.0725 88.2433 99.1038 88.317C99.135 88.3884 99.1775 88.4509 99.231 88.5045C99.2846 88.558 99.3471 88.6004 99.4185 88.6317C99.4922 88.6629 99.5703 88.6786 99.6529 88.6786H99.9275C100.01 88.6786 100.087 88.6629 100.158 88.6317C100.232 88.6004 100.296 88.558 100.349 88.5045C100.403 88.4509 100.445 88.3884 100.477 88.317C100.508 88.2433 100.523 88.1652 100.523 88.0826V87.8549L100.935 87.9219V88.0592ZM103.008 89C102.883 89 102.765 88.9766 102.653 88.9297C102.544 88.8828 102.448 88.8181 102.365 88.7355C102.285 88.6529 102.22 88.5569 102.171 88.4475C102.124 88.3382 102.1 88.221 102.1 88.096V85.9632H101.484V85.5714H102.1V84.7478L102.512 84.6808V85.5714H103.383V85.9632H102.512V88.1161C102.512 88.1853 102.525 88.25 102.549 88.3103C102.576 88.3683 102.612 88.4196 102.656 88.4643C102.701 88.5089 102.753 88.5446 102.814 88.5714C102.874 88.596 102.939 88.6083 103.008 88.6083H103.383V89H103.008ZM106.5 88.1295C106.5 88.2679 106.472 88.3951 106.416 88.5112C106.36 88.625 106.285 88.7232 106.189 88.8058C106.093 88.8884 105.981 88.9531 105.854 89C105.729 89.0446 105.597 89.067 105.459 89.067H105.184C105.046 89.067 104.913 89.0413 104.786 88.99C104.661 88.9364 104.55 88.8638 104.454 88.7723C104.36 88.6808 104.285 88.5737 104.227 88.4509C104.171 88.3281 104.143 88.1975 104.143 88.0592V87.9219L104.555 87.8549V88.0826C104.555 88.1652 104.571 88.2433 104.605 88.317C104.641 88.3884 104.687 88.4509 104.746 88.5045C104.804 88.558 104.871 88.6004 104.946 88.6317C105.022 88.6629 105.102 88.6786 105.184 88.6786H105.459C105.541 88.6786 105.621 88.6663 105.696 88.6417C105.772 88.6172 105.839 88.5826 105.897 88.5379C105.958 88.4911 106.004 88.4353 106.038 88.3705C106.074 88.3058 106.092 88.2321 106.092 88.1496C106.092 88.0268 106.065 87.9263 106.011 87.8482C105.958 87.7701 105.886 87.7054 105.797 87.654C105.71 87.6004 105.609 87.5569 105.496 87.5234C105.384 87.4877 105.269 87.4531 105.151 87.4196C105.032 87.3839 104.916 87.3437 104.802 87.2991C104.691 87.2545 104.59 87.1964 104.501 87.125C104.414 87.0513 104.344 86.9598 104.29 86.8504C104.237 86.7411 104.21 86.6049 104.21 86.442C104.21 86.3036 104.237 86.1775 104.29 86.0636C104.344 85.9475 104.416 85.8482 104.508 85.7656C104.599 85.683 104.705 85.6194 104.826 85.5748C104.949 85.5279 105.079 85.5045 105.218 85.5045H105.459C105.597 85.5045 105.728 85.5312 105.85 85.5848C105.973 85.6362 106.08 85.7076 106.172 85.7991C106.263 85.8906 106.335 85.9978 106.386 86.1205C106.44 86.2433 106.467 86.3739 106.467 86.5123V86.5257L106.055 86.5926V86.4888C106.055 86.4062 106.039 86.3292 106.008 86.2578C105.977 86.1842 105.934 86.1205 105.881 86.067C105.827 86.0134 105.763 85.971 105.69 85.9397C105.618 85.9085 105.541 85.8929 105.459 85.8929H105.218C105.135 85.8929 105.057 85.9051 104.983 85.9297C104.912 85.9542 104.849 85.99 104.796 86.0368C104.742 86.0815 104.7 86.1362 104.669 86.2009C104.637 86.2656 104.622 86.3393 104.622 86.4219C104.622 86.5402 104.648 86.6373 104.702 86.7132C104.756 86.7868 104.826 86.8493 104.913 86.9007C105.002 86.952 105.103 86.9955 105.214 87.0312C105.328 87.0647 105.443 87.1004 105.559 87.1384C105.677 87.1741 105.792 87.2154 105.904 87.2623C106.018 87.3092 106.118 87.3694 106.205 87.4431C106.295 87.5167 106.366 87.6094 106.42 87.721C106.473 87.8304 106.5 87.9665 106.5 88.1295ZM110.119 89C109.994 89 109.876 88.9766 109.765 88.9297C109.655 88.8828 109.559 88.8181 109.477 88.7355C109.396 88.6529 109.331 88.5569 109.282 88.4475C109.235 88.3382 109.212 88.221 109.212 88.096V85.9632H108.596V85.5714H109.212V84.7478L109.624 84.6808V85.5714H110.494V85.9632H109.624V88.1161C109.624 88.1853 109.636 88.25 109.661 88.3103C109.688 88.3683 109.723 88.4196 109.768 88.4643C109.813 88.5089 109.865 88.5446 109.925 88.5714C109.985 88.596 110.05 88.6083 110.119 88.6083H110.494V89H110.119ZM113.133 89V86.4888C113.133 86.4062 113.117 86.3292 113.086 86.2578C113.055 86.1842 113.012 86.1205 112.959 86.067C112.905 86.0134 112.842 85.971 112.768 85.9397C112.696 85.9085 112.619 85.8929 112.537 85.8929H112.262C112.18 85.8929 112.102 85.9085 112.028 85.9397C111.956 85.971 111.894 86.0134 111.84 86.067C111.787 86.1205 111.744 86.1842 111.713 86.2578C111.682 86.3292 111.666 86.4062 111.666 86.4888V89H111.254V84.1987H111.666V85.8594C111.76 85.7478 111.873 85.6607 112.004 85.5982C112.136 85.5357 112.279 85.5045 112.433 85.5045H112.537C112.675 85.5045 112.806 85.5312 112.929 85.5848C113.051 85.6362 113.158 85.7076 113.25 85.7991C113.342 85.8906 113.413 85.9978 113.464 86.1205C113.518 86.2433 113.545 86.3739 113.545 86.5123V89H113.133ZM116.658 88.0592C116.658 88.1975 116.632 88.3281 116.578 88.4509C116.527 88.5737 116.455 88.6808 116.364 88.7723C116.272 88.8638 116.165 88.9364 116.042 88.99C115.92 89.0413 115.789 89.067 115.651 89.067H115.376C115.238 89.067 115.107 89.0413 114.984 88.99C114.862 88.9364 114.754 88.8638 114.663 88.7723C114.571 88.6808 114.499 88.5737 114.445 88.4509C114.394 88.3281 114.368 88.1975 114.368 88.0592V86.5123C114.368 86.3739 114.394 86.2433 114.445 86.1205C114.499 85.9978 114.571 85.8906 114.663 85.7991C114.754 85.7076 114.862 85.6362 114.984 85.5848C115.107 85.5312 115.238 85.5045 115.376 85.5045H115.651C115.789 85.5045 115.92 85.5312 116.042 85.5848C116.165 85.6362 116.272 85.7076 116.364 85.7991C116.455 85.8906 116.527 85.9978 116.578 86.1205C116.632 86.2433 116.658 86.3739 116.658 86.5123V87.3192H114.78V88.0826C114.78 88.1652 114.796 88.2433 114.827 88.317C114.858 88.3884 114.901 88.4509 114.954 88.5045C115.008 88.558 115.07 88.6004 115.142 88.6317C115.215 88.6629 115.294 88.6786 115.376 88.6786H115.651C115.733 88.6786 115.81 88.6629 115.882 88.6317C115.955 88.6004 116.019 88.558 116.073 88.5045C116.126 88.4509 116.169 88.3884 116.2 88.317C116.231 88.2433 116.247 88.1652 116.247 88.0826V87.8549L116.658 87.9219V88.0592ZM116.247 86.4888C116.247 86.4062 116.231 86.3292 116.2 86.2578C116.169 86.1842 116.126 86.1205 116.073 86.067C116.019 86.0134 115.955 85.971 115.882 85.9397C115.81 85.9085 115.733 85.8929 115.651 85.8929H115.376C115.294 85.8929 115.215 85.9085 115.142 85.9397C115.07 85.971 115.008 86.0134 114.954 86.067C114.901 86.1205 114.858 86.1842 114.827 86.2578C114.796 86.3292 114.78 86.4062 114.78 86.4888V86.9978H116.247V86.4888ZM119.839 88.1295C119.839 88.2679 119.811 88.3951 119.756 88.5112C119.7 88.625 119.624 88.7232 119.528 88.8058C119.432 88.8884 119.32 88.9531 119.193 89C119.068 89.0446 118.936 89.067 118.798 89.067H118.523C118.385 89.067 118.252 89.0413 118.125 88.99C118 88.9364 117.89 88.8638 117.794 88.7723C117.7 88.6808 117.624 88.5737 117.566 88.4509C117.51 88.3281 117.482 88.1975 117.482 88.0592V87.9219L117.894 87.8549V88.0826C117.894 88.1652 117.911 88.2433 117.944 88.317C117.98 88.3884 118.027 88.4509 118.085 88.5045C118.143 88.558 118.21 88.6004 118.286 88.6317C118.362 88.6629 118.441 88.6786 118.523 88.6786H118.798C118.881 88.6786 118.96 88.6663 119.036 88.6417C119.112 88.6172 119.179 88.5826 119.237 88.5379C119.297 88.4911 119.344 88.4353 119.377 88.3705C119.413 88.3058 119.431 88.2321 119.431 88.1496C119.431 88.0268 119.404 87.9263 119.35 87.8482C119.297 87.7701 119.225 87.7054 119.136 87.654C119.049 87.6004 118.949 87.5569 118.835 87.5234C118.723 87.4877 118.608 87.4531 118.49 87.4196C118.372 87.3839 118.256 87.3437 118.142 87.2991C118.03 87.2545 117.93 87.1964 117.84 87.125C117.753 87.0513 117.683 86.9598 117.629 86.8504C117.576 86.7411 117.549 86.6049 117.549 86.442C117.549 86.3036 117.576 86.1775 117.629 86.0636C117.683 85.9475 117.756 85.8482 117.847 85.7656C117.939 85.683 118.045 85.6194 118.165 85.5748C118.288 85.5279 118.419 85.5045 118.557 85.5045H118.798C118.936 85.5045 119.067 85.5312 119.19 85.5848C119.313 85.6362 119.42 85.7076 119.511 85.7991C119.603 85.8906 119.674 85.9978 119.725 86.1205C119.779 86.2433 119.806 86.3739 119.806 86.5123V86.5257L119.394 86.5926V86.4888C119.394 86.4062 119.378 86.3292 119.347 86.2578C119.316 86.1842 119.273 86.1205 119.22 86.067C119.166 86.0134 119.103 85.971 119.029 85.9397C118.958 85.9085 118.881 85.8929 118.798 85.8929H118.557C118.474 85.8929 118.396 85.9051 118.323 85.9297C118.251 85.9542 118.189 85.99 118.135 86.0368C118.081 86.0815 118.039 86.1362 118.008 86.2009C117.977 86.2656 117.961 86.3393 117.961 86.4219C117.961 86.5402 117.988 86.6373 118.041 86.7132C118.095 86.7868 118.165 86.8493 118.252 86.9007C118.342 86.952 118.442 86.9955 118.554 87.0312C118.667 87.0647 118.782 87.1004 118.898 87.1384C119.017 87.1741 119.132 87.2154 119.243 87.2623C119.357 87.3092 119.458 87.3694 119.545 87.4431C119.634 87.5167 119.705 87.6094 119.759 87.721C119.813 87.8304 119.839 87.9665 119.839 88.1295ZM122.92 88.0592C122.92 88.1975 122.893 88.3281 122.839 88.4509C122.788 88.5737 122.717 88.6808 122.625 88.7723C122.533 88.8638 122.426 88.9364 122.304 88.99C122.181 89.0413 122.05 89.067 121.912 89.067H121.637C121.499 89.067 121.368 89.0413 121.246 88.99C121.123 88.9364 121.016 88.8638 120.924 88.7723C120.833 88.6808 120.76 88.5737 120.706 88.4509C120.655 88.3281 120.629 88.1975 120.629 88.0592V86.5123C120.629 86.3739 120.655 86.2433 120.706 86.1205C120.76 85.9978 120.833 85.8906 120.924 85.7991C121.016 85.7076 121.123 85.6362 121.246 85.5848C121.368 85.5312 121.499 85.5045 121.637 85.5045H121.912C122.05 85.5045 122.181 85.5312 122.304 85.5848C122.426 85.6362 122.533 85.7076 122.625 85.7991C122.717 85.8906 122.788 85.9978 122.839 86.1205C122.893 86.2433 122.92 86.3739 122.92 86.5123V87.3192H121.041V88.0826C121.041 88.1652 121.057 88.2433 121.088 88.317C121.119 88.3884 121.162 88.4509 121.215 88.5045C121.269 88.558 121.331 88.6004 121.403 88.6317C121.477 88.6629 121.555 88.6786 121.637 88.6786H121.912C121.994 88.6786 122.071 88.6629 122.143 88.6317C122.217 88.6004 122.28 88.558 122.334 88.5045C122.387 88.4509 122.43 88.3884 122.461 88.317C122.492 88.2433 122.508 88.1652 122.508 88.0826V87.8549L122.92 87.9219V88.0592ZM122.508 86.4888C122.508 86.4062 122.492 86.3292 122.461 86.2578C122.43 86.1842 122.387 86.1205 122.334 86.067C122.28 86.0134 122.217 85.971 122.143 85.9397C122.071 85.9085 121.994 85.8929 121.912 85.8929H121.637C121.555 85.8929 121.477 85.9085 121.403 85.9397C121.331 85.971 121.269 86.0134 121.215 86.067C121.162 86.1205 121.119 86.1842 121.088 86.2578C121.057 86.3292 121.041 86.4062 121.041 86.4888V86.9978H122.508V86.4888Z" fill="#66A6FF"/>
<path d="M95 16.5C95 16.2239 94.7761 16 94.5 16C94.2239 16 94 16.2239 94 16.5L95 16.5ZM94.1464 32.5669C94.3417 32.7622 94.6583 32.7622 94.8536 32.5669L98.0355 29.3849C98.2308 29.1897 98.2308 28.8731 98.0355 28.6778C97.8403 28.4826 97.5237 28.4826 97.3284 28.6778L94.5 31.5062L91.6716 28.6778C91.4763 28.4826 91.1597 28.4826 90.9645 28.6778C90.7692 28.8731 90.7692 29.1897 90.9645 29.3849L94.1464 32.5669ZM94 16.5L94 32.2133L95 32.2133L95 16.5L94 16.5Z" fill="#FFD666"/>
<path d="M110.965 79.8284C110.77 80.0237 110.77 80.3403 110.965 80.5355C111.16 80.7308 111.477 80.7308 111.672 80.5355L110.965 79.8284ZM123.578 68.4219C123.578 68.1458 123.355 67.9219 123.078 67.9219L118.578 67.9219C118.302 67.9219 118.078 68.1458 118.078 68.4219C118.078 68.6981 118.302 68.9219 118.578 68.9219H122.578V72.9219C122.578 73.1981 122.802 73.4219 123.078 73.4219C123.355 73.4219 123.578 73.1981 123.578 72.9219L123.578 68.4219ZM111.672 80.5355L123.432 68.7755L122.725 68.0684L110.965 79.8284L111.672 80.5355Z" fill="#FFD666"/>
<path d="M77.3286 80.5355C77.5238 80.7308 77.8404 80.7308 78.0357 80.5355C78.2309 80.3403 78.2309 80.0237 78.0357 79.8284L77.3286 80.5355ZM65.7616 67.7615C65.4855 67.7615 65.2616 67.9853 65.2616 68.2615L65.2616 72.7615C65.2616 73.0376 65.4855 73.2615 65.7616 73.2615C66.0378 73.2615 66.2616 73.0376 66.2616 72.7615L66.2616 68.7615L70.2616 68.7615C70.5378 68.7615 70.7616 68.5376 70.7616 68.2615C70.7616 67.9853 70.5378 67.7615 70.2616 67.7615L65.7616 67.7615ZM78.0357 79.8284L66.1152 67.9079L65.4081 68.615L77.3286 80.5355L78.0357 79.8284Z" fill="#FFD666"/>
<defs>
<radialGradient id="paint0_radial_135_4596" cx="0" cy="0" r="1" gradientUnits="userSpaceOnUse" gradientTransform="translate(94.5 122.5) rotate(-90) scale(94.5 94.5)">
<stop stop-opacity="0"/>
<stop offset="1"/>
</radialGradient>
<linearGradient id="paint1_linear_135_4596" x1="94.5" y1="28" x2="94.5" y2="53.0001" gradientUnits="userSpaceOnUse">
<stop stop-opacity="0.61"/>
<stop offset="1" stop-opacity="0.89"/>
</linearGradient>
<linearGradient id="paint2_linear_135_4596" x1="189" y1="122.5" x2="164" y2="122.5" gradientUnits="userSpaceOnUse">
<stop stop-opacity="0.61"/>
<stop offset="1" stop-opacity="0.89"/>
</linearGradient>
<linearGradient id="paint3_linear_135_4596" x1="3.03794e-06" y1="122.5" x2="25" y2="122.5" gradientUnits="userSpaceOnUse">
<stop stop-opacity="0.61"/>
<stop offset="1" stop-opacity="0.89"/>
</linearGradient>
<linearGradient id="paint4_linear_135_4596" x1="164" y1="53.0001" x2="96.5" y2="123" gradientUnits="userSpaceOnUse">
<stop stop-opacity="0.59"/>
<stop offset="1" stop-opacity="0.13"/>
</linearGradient>
<linearGradient id="paint5_linear_135_4596" x1="25" y1="53.0001" x2="95" y2="120.5" gradientUnits="userSpaceOnUse">
<stop stop-opacity="0.59"/>
<stop offset="1" stop-opacity="0.13"/>
</linearGradient>
<linearGradient id="paint6_linear_135_4596" x1="7.86805e-07" y1="46" x2="36" y2="46" gradientUnits="userSpaceOnUse">
<stop stop-opacity="0.12"/>
<stop offset="1" stop-color="#0B0A0A"/>
</linearGradient>
<linearGradient id="paint7_linear_135_4596" x1="171" y1="28" x2="171" y2="64" gradientUnits="userSpaceOnUse">
<stop stop-opacity="0.12"/>
<stop offset="1" stop-color="#0B0A0A"/>
</linearGradient>
<clipPath id="clip0_135_4596">
<rect width="189" height="42" fill="white" transform="matrix(-1 0 0 -1 189 70)"/>
</clipPath>
<clipPath id="clip1_135_4596">
<rect width="189" height="189" fill="white" transform="matrix(-1 0 0 -1 189 217)"/>
</clipPath>
<clipPath id="clip2_135_4596">
<rect width="64" height="64" fill="white" transform="matrix(-1 0 0 -1 161 120)"/>
</clipPath>
<clipPath id="clip3_135_4596">
<rect width="64" height="64" fill="white" transform="matrix(-1 0 0 -1 92 120)"/>
</clipPath>
</defs>
</svg>
