<svg width="189" height="96" viewBox="0 0 189 96" fill="none" xmlns="http://www.w3.org/2000/svg">
<path d="M71.1964 7.61049V12H70.7645V7.61049H69.6194V7.19866H72.3415V7.61049H71.1964ZM73.4498 13.3728H73.0513L73.6607 11.7054L72.5491 8.57143H72.9609L73.8549 11.1696L73.8683 11.3471L73.8817 11.1696L74.7723 8.57143H75.1842L73.4498 13.3728ZM77.8895 11.0592C77.8895 11.1975 77.8627 11.3281 77.8092 11.4509C77.7578 11.5737 77.6864 11.6808 77.5949 11.7723C77.5033 11.8638 77.3962 11.9364 77.2734 11.99C77.1507 12.0413 77.0201 12.067 76.8817 12.067H76.7779C76.6239 12.067 76.481 12.0357 76.3493 11.9732C76.2176 11.9107 76.1049 11.8237 76.0112 11.7121V13.3728H75.5993V8.57143H75.7366L75.9609 8.91964C76.0547 8.79241 76.1719 8.69196 76.3125 8.6183C76.4554 8.54241 76.6105 8.50446 76.7779 8.50446H76.8817C77.0201 8.50446 77.1507 8.53125 77.2734 8.58482C77.3962 8.63616 77.5033 8.70759 77.5949 8.79911C77.6864 8.89062 77.7578 8.99777 77.8092 9.12054C77.8627 9.2433 77.8895 9.37388 77.8895 9.51228V11.0592ZM77.4777 9.48884C77.4777 9.40625 77.4621 9.32924 77.4308 9.25781C77.3996 9.18415 77.3571 9.12054 77.3036 9.06696C77.25 9.01339 77.1864 8.97098 77.1127 8.93973C77.0413 8.90848 76.9643 8.89286 76.8817 8.89286H76.6071C76.5246 8.89286 76.4464 8.90848 76.3728 8.93973C76.3013 8.97098 76.2388 9.01339 76.1853 9.06696C76.1317 9.12054 76.0893 9.18415 76.058 9.25781C76.0268 9.32924 76.0112 9.40625 76.0112 9.48884V11.0826C76.0112 11.1652 76.0268 11.2433 76.058 11.317C76.0893 11.3884 76.1317 11.4509 76.1853 11.5045C76.2388 11.558 76.3013 11.6004 76.3728 11.6317C76.4464 11.6629 76.5246 11.6786 76.6071 11.6786H76.8817C76.9643 11.6786 77.0413 11.6629 77.1127 11.6317C77.1864 11.6004 77.25 11.558 77.3036 11.5045C77.3571 11.4509 77.3996 11.3884 77.4308 11.317C77.4621 11.2433 77.4777 11.1652 77.4777 11.0826V9.48884ZM81.0033 11.0592C81.0033 11.1975 80.9766 11.3281 80.923 11.4509C80.8717 11.5737 80.8002 11.6808 80.7087 11.7723C80.6172 11.8638 80.51 11.9364 80.3873 11.99C80.2645 12.0413 80.1339 12.067 79.9955 12.067H79.721C79.5826 12.067 79.452 12.0413 79.3292 11.99C79.2065 11.9364 79.0993 11.8638 79.0078 11.7723C78.9163 11.6808 78.8437 11.5737 78.7902 11.4509C78.7388 11.3281 78.7132 11.1975 78.7132 11.0592V9.51228C78.7132 9.37388 78.7388 9.2433 78.7902 9.12054C78.8437 8.99777 78.9163 8.89062 79.0078 8.79911C79.0993 8.70759 79.2065 8.63616 79.3292 8.58482C79.452 8.53125 79.5826 8.50446 79.721 8.50446H79.9955C80.1339 8.50446 80.2645 8.53125 80.3873 8.58482C80.51 8.63616 80.6172 8.70759 80.7087 8.79911C80.8002 8.89062 80.8717 8.99777 80.923 9.12054C80.9766 9.2433 81.0033 9.37388 81.0033 9.51228V10.3192H79.125V11.0826C79.125 11.1652 79.1406 11.2433 79.1719 11.317C79.2031 11.3884 79.2455 11.4509 79.2991 11.5045C79.3527 11.558 79.4152 11.6004 79.4866 11.6317C79.5603 11.6629 79.6384 11.6786 79.721 11.6786H79.9955C80.0781 11.6786 80.1551 11.6629 80.2266 11.6317C80.3002 11.6004 80.3638 11.558 80.4174 11.5045C80.471 11.4509 80.5134 11.3884 80.5446 11.317C80.5759 11.2433 80.5915 11.1652 80.5915 11.0826V10.8549L81.0033 10.9219V11.0592ZM80.5915 9.48884C80.5915 9.40625 80.5759 9.32924 80.5446 9.25781C80.5134 9.18415 80.471 9.12054 80.4174 9.06696C80.3638 9.01339 80.3002 8.97098 80.2266 8.93973C80.1551 8.90848 80.0781 8.89286 79.9955 8.89286H79.721C79.6384 8.89286 79.5603 8.90848 79.4866 8.93973C79.4152 8.97098 79.3527 9.01339 79.2991 9.06696C79.2455 9.12054 79.2031 9.18415 79.1719 9.25781C79.1406 9.32924 79.125 9.40625 79.125 9.48884V9.99777H80.5915V9.48884ZM85.6975 11.0592C85.6975 11.1975 85.6708 11.3281 85.6172 11.4509C85.5658 11.5737 85.4944 11.6808 85.4029 11.7723C85.3114 11.8638 85.2042 11.9364 85.0815 11.99C84.9587 12.0413 84.8281 12.067 84.6897 12.067H84.4152C84.2768 12.067 84.1462 12.0413 84.0234 11.99C83.9007 11.9364 83.7935 11.8638 83.702 11.7723C83.6105 11.6808 83.5379 11.5737 83.4844 11.4509C83.433 11.3281 83.4074 11.1975 83.4074 11.0592V9.51228C83.4074 9.37388 83.433 9.2433 83.4844 9.12054C83.5379 8.99777 83.6105 8.89062 83.702 8.79911C83.7935 8.70759 83.9007 8.63616 84.0234 8.58482C84.1462 8.53125 84.2768 8.50446 84.4152 8.50446H84.6897C84.8281 8.50446 84.9587 8.53125 85.0815 8.58482C85.2042 8.63616 85.3114 8.70759 85.4029 8.79911C85.4944 8.89062 85.5658 8.99777 85.6172 9.12054C85.6708 9.2433 85.6975 9.37388 85.6975 9.51228V11.0592ZM85.2857 9.48884C85.2857 9.40625 85.2701 9.32924 85.2388 9.25781C85.2076 9.18415 85.1652 9.12054 85.1116 9.06696C85.058 9.01339 84.9944 8.97098 84.9208 8.93973C84.8493 8.90848 84.7723 8.89286 84.6897 8.89286H84.4152C84.3326 8.89286 84.2545 8.90848 84.1808 8.93973C84.1094 8.97098 84.0469 9.01339 83.9933 9.06696C83.9397 9.12054 83.8973 9.18415 83.8661 9.25781C83.8348 9.32924 83.8192 9.40625 83.8192 9.48884V11.0826C83.8192 11.1652 83.8348 11.2433 83.8661 11.317C83.8973 11.3884 83.9397 11.4509 83.9933 11.5045C84.0469 11.558 84.1094 11.6004 84.1808 11.6317C84.2545 11.6629 84.3326 11.6786 84.4152 11.6786H84.6897C84.7723 11.6786 84.8493 11.6629 84.9208 11.6317C84.9944 11.6004 85.058 11.558 85.1116 11.5045C85.1652 11.4509 85.2076 11.3884 85.2388 11.317C85.2701 11.2433 85.2857 11.1652 85.2857 11.0826V9.48884ZM88.3996 12V9.48884C88.3996 9.40625 88.3839 9.32924 88.3527 9.25781C88.3214 9.18415 88.279 9.12054 88.2254 9.06696C88.1719 9.01339 88.1083 8.97098 88.0346 8.93973C87.9632 8.90848 87.8862 8.89286 87.8036 8.89286H87.529C87.4464 8.89286 87.3683 8.90848 87.2946 8.93973C87.2232 8.97098 87.1607 9.01339 87.1071 9.06696C87.0536 9.12054 87.0112 9.18415 86.9799 9.25781C86.9487 9.32924 86.933 9.40625 86.933 9.48884V12H86.5212V8.57143H86.6585L86.8828 8.91964C86.9766 8.79241 87.0937 8.69196 87.2344 8.6183C87.3772 8.54241 87.5324 8.50446 87.6998 8.50446H87.8036C87.942 8.50446 88.0725 8.53125 88.1953 8.58482C88.3181 8.63616 88.4252 8.70759 88.5167 8.79911C88.6083 8.89062 88.6797 8.99777 88.731 9.12054C88.7846 9.2433 88.8114 9.37388 88.8114 9.51228V12H88.3996ZM91.9252 11.0592C91.9252 11.1975 91.8984 11.3281 91.8449 11.4509C91.7935 11.5737 91.7221 11.6808 91.6306 11.7723C91.5391 11.8638 91.4319 11.9364 91.3092 11.99C91.1864 12.0413 91.0558 12.067 90.9174 12.067H90.6429C90.5045 12.067 90.3739 12.0413 90.2511 11.99C90.1283 11.9364 90.0212 11.8638 89.9297 11.7723C89.8382 11.6808 89.7656 11.5737 89.7121 11.4509C89.6607 11.3281 89.635 11.1975 89.635 11.0592V9.51228C89.635 9.37388 89.6607 9.2433 89.7121 9.12054C89.7656 8.99777 89.8382 8.89062 89.9297 8.79911C90.0212 8.70759 90.1283 8.63616 90.2511 8.58482C90.3739 8.53125 90.5045 8.50446 90.6429 8.50446H90.9174C91.0558 8.50446 91.1864 8.53125 91.3092 8.58482C91.4319 8.63616 91.5391 8.70759 91.6306 8.79911C91.7221 8.89062 91.7935 8.99777 91.8449 9.12054C91.8984 9.2433 91.9252 9.37388 91.9252 9.51228V10.3192H90.0469V11.0826C90.0469 11.1652 90.0625 11.2433 90.0937 11.317C90.125 11.3884 90.1674 11.4509 90.221 11.5045C90.2746 11.558 90.3371 11.6004 90.4085 11.6317C90.4821 11.6629 90.5603 11.6786 90.6429 11.6786H90.9174C91 11.6786 91.077 11.6629 91.1484 11.6317C91.2221 11.6004 91.2857 11.558 91.3393 11.5045C91.3929 11.4509 91.4353 11.3884 91.4665 11.317C91.4978 11.2433 91.5134 11.1652 91.5134 11.0826V10.8549L91.9252 10.9219V11.0592ZM91.5134 9.48884C91.5134 9.40625 91.4978 9.32924 91.4665 9.25781C91.4353 9.18415 91.3929 9.12054 91.3393 9.06696C91.2857 9.01339 91.2221 8.97098 91.1484 8.93973C91.077 8.90848 91 8.89286 90.9174 8.89286H90.6429C90.5603 8.89286 90.4821 8.90848 90.4085 8.93973C90.3371 8.97098 90.2746 9.01339 90.221 9.06696C90.1674 9.12054 90.125 9.18415 90.0937 9.25781C90.0625 9.32924 90.0469 9.40625 90.0469 9.48884V9.99777H91.5134V9.48884ZM97.2154 12H96.9911L96.1875 9.41518L96.1741 9.23772L96.1607 9.41518L95.3571 12H95.1295L93.9844 8.57143H94.4029L95.2199 11.1629L95.2333 11.3404L95.2467 11.1629L96.0502 8.57143H96.298L97.0982 11.1629L97.1116 11.3404L97.125 11.1629L97.942 8.57143H98.3605L97.2154 12ZM101.133 11.0592C101.133 11.1975 101.106 11.3281 101.052 11.4509C101.001 11.5737 100.93 11.6808 100.838 11.7723C100.747 11.8638 100.64 11.9364 100.517 11.99C100.394 12.0413 100.263 12.067 100.125 12.067H99.8504C99.7121 12.067 99.5815 12.0413 99.4587 11.99C99.3359 11.9364 99.2288 11.8638 99.1373 11.7723C99.0458 11.6808 98.9732 11.5737 98.9196 11.4509C98.8683 11.3281 98.8426 11.1975 98.8426 11.0592V9.51228C98.8426 9.37388 98.8683 9.2433 98.9196 9.12054C98.9732 8.99777 99.0458 8.89062 99.1373 8.79911C99.2288 8.70759 99.3359 8.63616 99.4587 8.58482C99.5815 8.53125 99.7121 8.50446 99.8504 8.50446H100.125C100.263 8.50446 100.394 8.53125 100.517 8.58482C100.64 8.63616 100.747 8.70759 100.838 8.79911C100.93 8.89062 101.001 8.99777 101.052 9.12054C101.106 9.2433 101.133 9.37388 101.133 9.51228V11.0592ZM100.721 9.48884C100.721 9.40625 100.705 9.32924 100.674 9.25781C100.643 9.18415 100.6 9.12054 100.547 9.06696C100.493 9.01339 100.43 8.97098 100.356 8.93973C100.285 8.90848 100.208 8.89286 100.125 8.89286H99.8504C99.7679 8.89286 99.6897 8.90848 99.6161 8.93973C99.5446 8.97098 99.4821 9.01339 99.4286 9.06696C99.375 9.12054 99.3326 9.18415 99.3013 9.25781C99.2701 9.32924 99.2545 9.40625 99.2545 9.48884V11.0826C99.2545 11.1652 99.2701 11.2433 99.3013 11.317C99.3326 11.3884 99.375 11.4509 99.4286 11.5045C99.4821 11.558 99.5446 11.6004 99.6161 11.6317C99.6897 11.6629 99.7679 11.6786 99.8504 11.6786H100.125C100.208 11.6786 100.285 11.6629 100.356 11.6317C100.43 11.6004 100.493 11.558 100.547 11.5045C100.6 11.4509 100.643 11.3884 100.674 11.317C100.705 11.2433 100.721 11.1652 100.721 11.0826V9.48884ZM102.964 8.96317C102.882 8.96317 102.804 8.97879 102.73 9.01004C102.658 9.04129 102.596 9.08371 102.542 9.13728C102.489 9.19085 102.446 9.25446 102.415 9.32812C102.384 9.39955 102.368 9.47656 102.368 9.55915V12H101.956V8.57143H102.094L102.318 8.91964C102.412 8.79241 102.529 8.69196 102.67 8.6183C102.812 8.54241 102.968 8.50446 103.135 8.50446H103.376V8.96317H102.964ZM106.078 12L105.85 11.6518C105.757 11.779 105.64 11.8806 105.499 11.9565C105.358 12.0301 105.204 12.067 105.037 12.067H104.933C104.795 12.067 104.664 12.0413 104.541 11.99C104.419 11.9364 104.311 11.8638 104.22 11.7723C104.128 11.6808 104.056 11.5737 104.002 11.4509C103.951 11.3281 103.925 11.1975 103.925 11.0592V9.51228C103.925 9.37388 103.951 9.2433 104.002 9.12054C104.056 8.99777 104.128 8.89062 104.22 8.79911C104.311 8.70759 104.419 8.63616 104.541 8.58482C104.664 8.53125 104.795 8.50446 104.933 8.50446H105.037C105.191 8.50446 105.334 8.53571 105.465 8.59821C105.597 8.66071 105.71 8.74777 105.804 8.85937V7.19866H106.215V12H106.078ZM105.804 9.48884C105.804 9.40625 105.788 9.32924 105.757 9.25781C105.725 9.18415 105.683 9.12054 105.629 9.06696C105.576 9.01339 105.512 8.97098 105.439 8.93973C105.367 8.90848 105.29 8.89286 105.208 8.89286H104.933C104.85 8.89286 104.772 8.90848 104.699 8.93973C104.627 8.97098 104.565 9.01339 104.511 9.06696C104.458 9.12054 104.415 9.18415 104.384 9.25781C104.353 9.32924 104.337 9.40625 104.337 9.48884V11.0826C104.337 11.1652 104.353 11.2433 104.384 11.317C104.415 11.3884 104.458 11.4509 104.511 11.5045C104.565 11.558 104.627 11.6004 104.699 11.6317C104.772 11.6629 104.85 11.6786 104.933 11.6786H105.208C105.29 11.6786 105.367 11.6629 105.439 11.6317C105.512 11.6004 105.576 11.558 105.629 11.5045C105.683 11.4509 105.725 11.3884 105.757 11.317C105.788 11.2433 105.804 11.1652 105.804 11.0826V9.48884ZM110.498 12V9.48884C110.498 9.40625 110.482 9.32924 110.451 9.25781C110.42 9.18415 110.377 9.12054 110.324 9.06696C110.27 9.01339 110.206 8.97098 110.133 8.93973C110.061 8.90848 109.984 8.89286 109.902 8.89286H109.627C109.545 8.89286 109.467 8.90848 109.393 8.93973C109.321 8.97098 109.259 9.01339 109.205 9.06696C109.152 9.12054 109.109 9.18415 109.078 9.25781C109.047 9.32924 109.031 9.40625 109.031 9.48884V12H108.619V7.19866H109.031V8.85937C109.125 8.74777 109.238 8.66071 109.369 8.59821C109.501 8.53571 109.644 8.50446 109.798 8.50446H109.902C110.04 8.50446 110.171 8.53125 110.294 8.58482C110.416 8.63616 110.523 8.70759 110.615 8.79911C110.706 8.89062 110.778 8.99777 110.829 9.12054C110.883 9.2433 110.91 9.37388 110.91 9.51228V12H110.498ZM114.023 11.0592C114.023 11.1975 113.997 11.3281 113.943 11.4509C113.892 11.5737 113.82 11.6808 113.729 11.7723C113.637 11.8638 113.53 11.9364 113.407 11.99C113.285 12.0413 113.154 12.067 113.016 12.067H112.741C112.603 12.067 112.472 12.0413 112.349 11.99C112.227 11.9364 112.119 11.8638 112.028 11.7723C111.936 11.6808 111.864 11.5737 111.81 11.4509C111.759 11.3281 111.733 11.1975 111.733 11.0592V9.51228C111.733 9.37388 111.759 9.2433 111.81 9.12054C111.864 8.99777 111.936 8.89062 112.028 8.79911C112.119 8.70759 112.227 8.63616 112.349 8.58482C112.472 8.53125 112.603 8.50446 112.741 8.50446H113.016C113.154 8.50446 113.285 8.53125 113.407 8.58482C113.53 8.63616 113.637 8.70759 113.729 8.79911C113.82 8.89062 113.892 8.99777 113.943 9.12054C113.997 9.2433 114.023 9.37388 114.023 9.51228V10.3192H112.145V11.0826C112.145 11.1652 112.161 11.2433 112.192 11.317C112.223 11.3884 112.266 11.4509 112.319 11.5045C112.373 11.558 112.435 11.6004 112.507 11.6317C112.58 11.6629 112.658 11.6786 112.741 11.6786H113.016C113.098 11.6786 113.175 11.6629 113.247 11.6317C113.32 11.6004 113.384 11.558 113.437 11.5045C113.491 11.4509 113.533 11.3884 113.565 11.317C113.596 11.2433 113.612 11.1652 113.612 11.0826V10.8549L114.023 10.9219V11.0592ZM113.612 9.48884C113.612 9.40625 113.596 9.32924 113.565 9.25781C113.533 9.18415 113.491 9.12054 113.437 9.06696C113.384 9.01339 113.32 8.97098 113.247 8.93973C113.175 8.90848 113.098 8.89286 113.016 8.89286H112.741C112.658 8.89286 112.58 8.90848 112.507 8.93973C112.435 8.97098 112.373 9.01339 112.319 9.06696C112.266 9.12054 112.223 9.18415 112.192 9.25781C112.161 9.32924 112.145 9.40625 112.145 9.48884V9.99777H113.612V9.48884ZM115.855 8.96317C115.772 8.96317 115.694 8.97879 115.621 9.01004C115.549 9.04129 115.487 9.08371 115.433 9.13728C115.379 9.19085 115.337 9.25446 115.306 9.32812C115.275 9.39955 115.259 9.47656 115.259 9.55915V12H114.847V8.57143H114.984L115.209 8.91964C115.302 8.79241 115.42 8.69196 115.56 8.6183C115.703 8.54241 115.858 8.50446 116.026 8.50446H116.267V8.96317H115.855ZM119.106 11.0592C119.106 11.1975 119.079 11.3281 119.026 11.4509C118.974 11.5737 118.903 11.6808 118.811 11.7723C118.72 11.8638 118.613 11.9364 118.49 11.99C118.367 12.0413 118.237 12.067 118.098 12.067H117.824C117.685 12.067 117.555 12.0413 117.432 11.99C117.309 11.9364 117.202 11.8638 117.11 11.7723C117.019 11.6808 116.946 11.5737 116.893 11.4509C116.842 11.3281 116.816 11.1975 116.816 11.0592V9.51228C116.816 9.37388 116.842 9.2433 116.893 9.12054C116.946 8.99777 117.019 8.89062 117.11 8.79911C117.202 8.70759 117.309 8.63616 117.432 8.58482C117.555 8.53125 117.685 8.50446 117.824 8.50446H118.098C118.237 8.50446 118.367 8.53125 118.49 8.58482C118.613 8.63616 118.72 8.70759 118.811 8.79911C118.903 8.89062 118.974 8.99777 119.026 9.12054C119.079 9.2433 119.106 9.37388 119.106 9.51228V10.3192H117.228V11.0826C117.228 11.1652 117.243 11.2433 117.275 11.317C117.306 11.3884 117.348 11.4509 117.402 11.5045C117.455 11.558 117.518 11.6004 117.589 11.6317C117.663 11.6629 117.741 11.6786 117.824 11.6786H118.098C118.181 11.6786 118.258 11.6629 118.329 11.6317C118.403 11.6004 118.467 11.558 118.52 11.5045C118.574 11.4509 118.616 11.3884 118.647 11.317C118.679 11.2433 118.694 11.1652 118.694 11.0826V10.8549L119.106 10.9219V11.0592ZM118.694 9.48884C118.694 9.40625 118.679 9.32924 118.647 9.25781C118.616 9.18415 118.574 9.12054 118.52 9.06696C118.467 9.01339 118.403 8.97098 118.329 8.93973C118.258 8.90848 118.181 8.89286 118.098 8.89286H117.824C117.741 8.89286 117.663 8.90848 117.589 8.93973C117.518 8.97098 117.455 9.01339 117.402 9.06696C117.348 9.12054 117.306 9.18415 117.275 9.25781C117.243 9.32924 117.228 9.40625 117.228 9.48884V9.99777H118.694V9.48884Z" fill="#66A6FF"/>
<g clip-path="url(#clip0_135_4596)">
<g clip-path="url(#clip1_135_4596)">
<path fill-rule="evenodd" clip-rule="evenodd" d="M36 217L153 217L189 181L189 64.0001L168.291 56.0352L189 64L153 28.0001L36 28.0001L0 64.0001L1.52588e-05 181L36 217Z" fill="#006AFF" fill-opacity="0.8"/>
<g style="mix-blend-mode:luminosity">
<path fill-rule="evenodd" clip-rule="evenodd" d="M153 217L94.5 122.5L189 181L189 64L94.5 122.5L153 28L36 28L94.5 122.5L-5.11423e-06 64L-5.11423e-06 181L94.5 122.5L36 217L153 217Z" fill="url(#paint0_radial_135_4596)" fill-opacity="0.05"/>
<path d="M36 28L153 28L164 53.0001L25 53.0001L36 28Z" fill="url(#paint1_linear_135_4596)" fill-opacity="0.51"/>
<path d="M189 64L189 181L164 192L164 53.0001L189 64Z" fill="url(#paint2_linear_135_4596)" fill-opacity="0.51"/>
<path d="M4.80827e-07 181L5.59506e-06 64L25 53L25 192L4.80827e-07 181Z" fill="url(#paint3_linear_135_4596)" fill-opacity="0.51"/>
<path fill-rule="evenodd" clip-rule="evenodd" d="M164 192L25 192L25 53.0001L164 53.0001L164 192ZM164 192L176 173L176 72.0001L164 53.0001L145 41.0001L44 41.0001L25 53.0001L13 72.0001L13 173L25 192L44 204L145 204L164 192Z" fill="black" fill-opacity="0.05"/>
<path d="M164 53.0001L94.5 53.0001L94.5 122.5L164 122.5L164 53.0001Z" fill="url(#paint4_linear_135_4596)"/>
<path d="M94.5 122.5L94.5 53.0001L25 53.0001L25 122.5L94.5 122.5Z" fill="url(#paint5_linear_135_4596)"/>
<path fill-rule="evenodd" clip-rule="evenodd" d="M94 192H95L95 123L164 123V122L95 122V53.0001H94V122L25 122V123L94 123L94 192Z" fill="black" fill-opacity="0.1"/>
<path d="M36 28L0 64L25 53L36 28Z" fill="url(#paint6_linear_135_4596)" fill-opacity="0.33"/>
<path d="M189 64L153 28L164 53L189 64Z" fill="url(#paint7_linear_135_4596)" fill-opacity="0.33"/>
</g>
<g clip-path="url(#clip2_135_4596)">
<path d="M125.251 60.9766C125.251 61.1396 125.22 61.2925 125.157 61.4353C125.097 61.5782 125.013 61.7032 124.906 61.8103C124.799 61.9175 124.673 62.0023 124.528 62.0648C124.385 62.1251 124.232 62.1552 124.069 62.1552L122.981 62.1552L122.981 64.0001L122.549 64.0001L122.549 59.1987L124.069 59.1987C124.232 59.1987 124.385 59.23 124.528 59.2925C124.673 59.3527 124.799 59.4364 124.906 59.5436C125.013 59.6507 125.097 59.7768 125.157 59.9219C125.22 60.0648 125.251 60.2177 125.251 60.3806L125.251 60.9766ZM124.819 60.3806C124.819 60.2735 124.799 60.1742 124.759 60.0827C124.719 59.9889 124.663 59.9074 124.592 59.8382C124.522 59.7668 124.441 59.711 124.347 59.6708C124.256 59.6306 124.156 59.6106 124.049 59.6106L122.981 59.6106L122.981 61.7434L124.049 61.7434C124.156 61.7434 124.256 61.7233 124.347 61.6831C124.441 61.6429 124.522 61.5882 124.592 61.519C124.663 61.4498 124.719 61.3695 124.759 61.278C124.799 61.1842 124.819 61.0838 124.819 60.9766L124.819 60.3806ZM128.094 64.0001L127.866 63.6585C127.772 63.7813 127.655 63.8806 127.515 63.9565C127.374 64.0302 127.22 64.067 127.052 64.067L126.949 64.067C126.81 64.067 126.68 64.0414 126.557 63.99C126.434 63.9364 126.327 63.8639 126.235 63.7724C126.144 63.6809 126.071 63.5737 126.018 63.451C125.967 63.3282 125.941 63.1976 125.941 63.0592L125.941 63.0257C125.941 62.8873 125.967 62.7568 126.018 62.634C126.071 62.5112 126.144 62.4041 126.235 62.3126C126.327 62.221 126.434 62.1496 126.557 62.0983C126.68 62.0447 126.81 62.0179 126.949 62.0179L127.819 62.0179L127.819 61.4889C127.819 61.4063 127.804 61.3293 127.772 61.2579C127.741 61.1842 127.699 61.1206 127.645 61.067C127.592 61.0135 127.528 60.971 127.454 60.9398C127.383 60.9085 127.306 60.8929 127.223 60.8929L126.982 60.8929C126.9 60.8929 126.821 60.9085 126.748 60.9398C126.676 60.971 126.614 61.0135 126.56 61.067C126.507 61.1206 126.464 61.1842 126.433 61.2579C126.402 61.3293 126.386 61.4063 126.386 61.4889L126.386 61.6128L125.974 61.5458L125.974 61.5123C125.974 61.3739 126 61.2434 126.051 61.1206C126.105 60.9978 126.177 60.8907 126.269 60.7992C126.36 60.7077 126.468 60.6362 126.59 60.5849C126.713 60.5313 126.844 60.5045 126.982 60.5045L127.223 60.5045C127.362 60.5045 127.492 60.5313 127.615 60.5849C127.738 60.6362 127.845 60.7077 127.936 60.7992C128.028 60.8907 128.099 60.9978 128.151 61.1206C128.204 61.2434 128.231 61.3739 128.231 61.5123L128.231 64.0001L128.094 64.0001ZM127.819 62.3393L126.949 62.3393C126.866 62.3393 126.788 62.355 126.714 62.3862C126.643 62.4175 126.58 62.461 126.527 62.5168C126.473 62.5704 126.431 62.634 126.4 62.7077C126.368 62.7791 126.353 62.8561 126.353 62.9387L126.353 63.0827C126.353 63.1652 126.368 63.2434 126.4 63.317C126.431 63.3885 126.473 63.451 126.527 63.5045C126.58 63.5581 126.643 63.6005 126.714 63.6318C126.788 63.663 126.866 63.6786 126.949 63.6786L127.223 63.6786C127.306 63.6786 127.383 63.663 127.454 63.6318C127.528 63.6005 127.592 63.5581 127.645 63.5045C127.699 63.451 127.741 63.3885 127.772 63.317C127.804 63.2434 127.819 63.1652 127.819 63.0827L127.819 62.3393ZM131.412 63.1295C131.412 63.2679 131.384 63.3952 131.328 63.5112C131.272 63.6251 131.196 63.7233 131.1 63.8059C131.004 63.8885 130.893 63.9532 130.766 64.0001C130.641 64.0447 130.509 64.067 130.371 64.067L130.096 64.067C129.958 64.067 129.825 64.0414 129.698 63.99C129.573 63.9364 129.462 63.8639 129.366 63.7724C129.272 63.6809 129.196 63.5737 129.138 63.451C129.083 63.3282 129.055 63.1976 129.055 63.0592L129.055 62.9219L129.467 62.855L129.467 63.0827C129.467 63.1652 129.483 63.2434 129.517 63.317C129.552 63.3885 129.599 63.451 129.657 63.5045C129.715 63.5581 129.782 63.6005 129.858 63.6318C129.934 63.663 130.013 63.6786 130.096 63.6786L130.371 63.6786C130.453 63.6786 130.532 63.6664 130.608 63.6418C130.684 63.6172 130.751 63.5827 130.809 63.538C130.869 63.4911 130.916 63.4353 130.95 63.3706C130.985 63.3059 131.003 63.2322 131.003 63.1496C131.003 63.0268 130.977 62.9264 130.923 62.8483C130.869 62.7702 130.798 62.7054 130.709 62.6541C130.622 62.6005 130.521 62.557 130.407 62.5235C130.296 62.4878 130.181 62.4532 130.062 62.4197C129.944 62.384 129.828 62.3438 129.714 62.2992C129.603 62.2545 129.502 62.1965 129.413 62.1251C129.326 62.0514 129.256 61.9599 129.202 61.8505C129.148 61.7411 129.122 61.605 129.122 61.442C129.122 61.3036 129.148 61.1775 129.202 61.0637C129.256 60.9476 129.328 60.8483 129.42 60.7657C129.511 60.6831 129.617 60.6195 129.738 60.5748C129.86 60.528 129.991 60.5045 130.129 60.5045L130.371 60.5045C130.509 60.5045 130.64 60.5313 130.762 60.5849C130.885 60.6362 130.992 60.7077 131.084 60.7992C131.175 60.8907 131.247 60.9978 131.298 61.1206C131.352 61.2434 131.378 61.3739 131.378 61.5123L131.378 61.5257L130.967 61.5927L130.967 61.4889C130.967 61.4063 130.951 61.3293 130.92 61.2579C130.888 61.1842 130.846 61.1206 130.792 61.067C130.739 61.0135 130.675 60.971 130.602 60.9398C130.53 60.9085 130.453 60.8929 130.371 60.8929L130.129 60.8929C130.047 60.8929 129.969 60.9052 129.895 60.9297C129.824 60.9543 129.761 60.99 129.708 61.0369C129.654 61.0815 129.612 61.1362 129.58 61.201C129.549 61.2657 129.533 61.3393 129.533 61.4219C129.533 61.5402 129.56 61.6373 129.614 61.7132C129.667 61.7869 129.738 61.8494 129.825 61.9007C129.914 61.9521 130.015 61.9956 130.126 62.0313C130.24 62.0648 130.355 62.1005 130.471 62.1385C130.589 62.1742 130.704 62.2155 130.816 62.2623C130.93 62.3092 131.03 62.3695 131.117 62.4431C131.206 62.5168 131.278 62.6094 131.331 62.721C131.385 62.8304 131.412 62.9666 131.412 63.1295ZM133.451 64.0001C133.326 64.0001 133.208 63.9766 133.096 63.9297C132.987 63.8829 132.891 63.8181 132.808 63.7356C132.728 63.653 132.663 63.557 132.614 63.4476C132.567 63.3382 132.544 63.221 132.544 63.096L132.544 60.9632L131.927 60.9632L131.927 60.5715L132.544 60.5715L132.544 59.7478L132.955 59.6809L132.955 60.5715L133.826 60.5715L133.826 60.9632L132.955 60.9632L132.955 63.1161C132.955 63.1853 132.968 63.2501 132.992 63.3103C133.019 63.3684 133.055 63.4197 133.099 63.4643C133.144 63.509 133.196 63.5447 133.257 63.5715C133.317 63.596 133.382 63.6083 133.451 63.6083L133.826 63.6083L133.826 64.0001L133.451 64.0001Z" fill="#B8D7FF"/>
<g opacity="0.3">
<path fill-rule="evenodd" clip-rule="evenodd" d="M150.299 63.0669L152.011 64.7786C152.206 64.9736 152.522 64.9736 152.717 64.7786C152.912 64.5836 152.912 64.2675 152.717 64.0725L151.756 63.1118C152.791 63.1214 153.569 63.3141 154.028 63.8173C154.507 64.3413 154.692 64.7564 154.692 66.1301C154.692 66.4059 154.916 66.6294 155.192 66.6294C155.467 66.6294 155.691 66.4059 155.691 66.1301C155.691 64.5692 155.45 63.893 154.766 63.1437C154.124 62.4419 153.138 62.1551 151.955 62.1172L152.72 61.3525C152.915 61.1575 152.915 60.8413 152.72 60.6463C152.525 60.4513 152.209 60.4513 152.014 60.6463L150.299 62.3607C150.104 62.5557 150.104 62.8719 150.299 63.0669Z" fill="black"/>
<path fill-rule="evenodd" clip-rule="evenodd" d="M107.007 63.0669L105.294 64.7786C105.099 64.9736 104.783 64.9736 104.588 64.7786C104.393 64.5836 104.393 64.2675 104.588 64.0725L105.549 63.1118C104.514 63.1214 103.736 63.314 103.276 63.8172C102.797 64.3413 102.612 64.7564 102.612 66.1301C102.612 66.4058 102.388 66.6294 102.112 66.6294C101.836 66.6294 101.613 66.4058 101.613 66.1301C101.613 64.5692 101.854 63.8929 102.538 63.1437C103.18 62.4418 104.167 62.1551 105.35 62.1171L104.585 61.3525C104.39 61.1575 104.39 60.8413 104.585 60.6463C104.78 60.4513 105.096 60.4513 105.291 60.6463L107.007 62.3607C107.202 62.5557 107.202 62.8719 107.007 63.0669Z" fill="black"/>
</g>
</g>
<g clip-path="url(#clip3_135_4596)">
<path d="M52.2511 60.9766C52.2511 61.1396 52.2199 61.2925 52.1574 61.4353C52.0971 61.5782 52.0134 61.7032 51.9062 61.8103C51.7991 61.9175 51.673 62.0023 51.5279 62.0648C51.385 62.1251 51.2321 62.1552 51.0692 62.1552L49.981 62.1552L49.981 64.0001L49.5491 64.0001L49.5491 59.1987L51.0692 59.1987C51.2321 59.1987 51.385 59.23 51.5279 59.2925C51.673 59.3527 51.7991 59.4364 51.9062 59.5436C52.0134 59.6507 52.0971 59.7768 52.1574 59.9219C52.2199 60.0648 52.2511 60.2177 52.2511 60.3806L52.2511 60.9766ZM51.8192 60.3806C51.8192 60.2735 51.7991 60.1742 51.7589 60.0827C51.7187 59.9889 51.6629 59.9074 51.5915 59.8382C51.5223 59.7668 51.4408 59.711 51.3471 59.6708C51.2556 59.6306 51.1562 59.6106 51.0491 59.6106L49.981 59.6106L49.981 61.7434L51.0491 61.7434C51.1562 61.7434 51.2556 61.7233 51.3471 61.6831C51.4408 61.6429 51.5223 61.5882 51.5915 61.519C51.6629 61.4498 51.7187 61.3695 51.7589 61.278C51.7991 61.1842 51.8192 61.0838 51.8192 60.9766L51.8192 60.3806ZM53.9487 60.9632C53.8661 60.9632 53.7879 60.9789 53.7143 61.0101C53.6429 61.0414 53.5804 61.0838 53.5268 61.1373C53.4732 61.1909 53.4308 61.2545 53.3996 61.3282C53.3683 61.3996 53.3527 61.4766 53.3527 61.5592L53.3527 64.0001L52.9408 64.0001L52.9408 60.5715L53.0781 60.5715L53.3025 60.9197C53.3962 60.7925 53.5134 60.692 53.654 60.6184C53.7969 60.5425 53.952 60.5045 54.1194 60.5045L54.3605 60.5045L54.3605 60.9632L53.9487 60.9632ZM57.1998 63.0592C57.1998 63.1976 57.173 63.3282 57.1194 63.451C57.0681 63.5737 56.9967 63.6809 56.9051 63.7724C56.8136 63.8639 56.7065 63.9364 56.5837 63.99C56.4609 64.0414 56.3304 64.067 56.192 64.067L55.9174 64.067C55.779 64.067 55.6484 64.0414 55.5257 63.99C55.4029 63.9364 55.2958 63.8639 55.2042 63.7724C55.1127 63.6809 55.0402 63.5737 54.9866 63.451C54.9353 63.3282 54.9096 63.1976 54.9096 63.0592L54.9096 61.5123C54.9096 61.3739 54.9353 61.2434 54.9866 61.1206C55.0402 60.9978 55.1127 60.8907 55.2042 60.7992C55.2958 60.7077 55.4029 60.6362 55.5257 60.5849C55.6484 60.5313 55.779 60.5045 55.9174 60.5045L56.192 60.5045C56.3304 60.5045 56.4609 60.5313 56.5837 60.5849C56.7065 60.6362 56.8136 60.7077 56.9051 60.7992C56.9967 60.8907 57.0681 60.9978 57.1194 61.1206C57.173 61.2434 57.1998 61.3739 57.1998 61.5123L57.1998 62.3193L55.3214 62.3193L55.3214 63.0827C55.3214 63.1652 55.3371 63.2434 55.3683 63.317C55.3996 63.3885 55.442 63.451 55.4955 63.5045C55.5491 63.5581 55.6116 63.6005 55.683 63.6318C55.7567 63.663 55.8348 63.6786 55.9174 63.6786L56.192 63.6786C56.2746 63.6786 56.3516 63.663 56.423 63.6318C56.4967 63.6005 56.5603 63.5581 56.6138 63.5045C56.6674 63.451 56.7098 63.3885 56.7411 63.317C56.7723 63.2434 56.7879 63.1652 56.7879 63.0827L56.7879 62.855L57.1998 62.9219L57.1998 63.0592ZM56.7879 61.4889C56.7879 61.4063 56.7723 61.3293 56.7411 61.2579C56.7098 61.1842 56.6674 61.1206 56.6138 61.067C56.5603 61.0135 56.4967 60.971 56.423 60.9398C56.3516 60.9085 56.2746 60.8929 56.192 60.8929L55.9174 60.8929C55.8348 60.8929 55.7567 60.9085 55.683 60.9398C55.6116 60.971 55.5491 61.0135 55.4955 61.067C55.442 61.1206 55.3996 61.1842 55.3683 61.2579C55.3371 61.3293 55.3214 61.4063 55.3214 61.4889L55.3214 61.9978L56.7879 61.9978L56.7879 61.4889ZM60.3806 63.1295C60.3806 63.2679 60.3527 63.3952 60.2969 63.5112C60.2411 63.6251 60.1652 63.7233 60.0692 63.8059C59.9732 63.8885 59.8616 63.9532 59.7344 64.0001C59.6094 64.0447 59.4777 64.067 59.3393 64.067L59.0647 64.067C58.9263 64.067 58.7935 64.0414 58.6663 63.99C58.5413 63.9364 58.4308 63.8639 58.3348 63.7724C58.2411 63.6809 58.1652 63.5737 58.1071 63.451C58.0513 63.3282 58.0234 63.1976 58.0234 63.0592L58.0234 62.9219L58.4353 62.855L58.4353 63.0827C58.4353 63.1652 58.452 63.2434 58.4855 63.317C58.5212 63.3885 58.5681 63.451 58.6261 63.5045C58.6842 63.5581 58.7511 63.6005 58.827 63.6318C58.9029 63.663 58.9821 63.6786 59.0647 63.6786L59.3393 63.6786C59.4219 63.6786 59.5011 63.6664 59.577 63.6418C59.6529 63.6172 59.7199 63.5827 59.7779 63.538C59.8382 63.4911 59.885 63.4353 59.9185 63.3706C59.9542 63.3059 59.9721 63.2322 59.9721 63.1496C59.9721 63.0268 59.9453 62.9264 59.8917 62.8483C59.8382 62.7702 59.7667 62.7054 59.6775 62.6541C59.5904 62.6005 59.49 62.557 59.3761 62.5235C59.2645 62.4878 59.1496 62.4532 59.0312 62.4197C58.9129 62.384 58.7969 62.3438 58.683 62.2992C58.5714 62.2545 58.471 62.1965 58.3817 62.1251C58.2946 62.0514 58.2243 61.9599 58.1708 61.8505C58.1172 61.7411 58.0904 61.605 58.0904 61.442C58.0904 61.3036 58.1172 61.1775 58.1708 61.0637C58.2243 60.9476 58.2969 60.8483 58.3884 60.7657C58.4799 60.6831 58.5859 60.6195 58.7065 60.5748C58.8292 60.528 58.9598 60.5045 59.0982 60.5045L59.3393 60.5045C59.4777 60.5045 59.6083 60.5313 59.731 60.5849C59.8538 60.6362 59.9609 60.7077 60.0525 60.7992C60.144 60.8907 60.2154 60.9978 60.2667 61.1206C60.3203 61.2434 60.3471 61.3739 60.3471 61.5123L60.3471 61.5257L59.9353 61.5927L59.9353 61.4889C59.9353 61.4063 59.9196 61.3293 59.8884 61.2579C59.8571 61.1842 59.8147 61.1206 59.7612 61.067C59.7076 61.0135 59.644 60.971 59.5703 60.9398C59.4989 60.9085 59.4219 60.8929 59.3393 60.8929L59.0982 60.8929C59.0156 60.8929 58.9375 60.9052 58.8638 60.9297C58.7924 60.9543 58.7299 60.99 58.6763 61.0369C58.6228 61.0815 58.5804 61.1362 58.5491 61.201C58.5179 61.2657 58.5022 61.3393 58.5022 61.4219C58.5022 61.5402 58.529 61.6373 58.5826 61.7132C58.6362 61.7869 58.7065 61.8494 58.7935 61.9007C58.8828 61.9521 58.9833 61.9956 59.0949 62.0313C59.2087 62.0648 59.3237 62.1005 59.4397 62.1385C59.558 62.1742 59.673 62.2155 59.7846 62.2623C59.8984 62.3092 59.9989 62.3695 60.0859 62.4431C60.1752 62.5168 60.2467 62.6094 60.3002 62.721C60.3538 62.8304 60.3806 62.9666 60.3806 63.1295ZM63.4609 63.0592C63.4609 63.1976 63.4342 63.3282 63.3806 63.451C63.3292 63.5737 63.2578 63.6809 63.1663 63.7724C63.0748 63.8639 62.9676 63.9364 62.8449 63.99C62.7221 64.0414 62.5915 64.067 62.4531 64.067L62.1786 64.067C62.0402 64.067 61.9096 64.0414 61.7868 63.99C61.6641 63.9364 61.5569 63.8639 61.4654 63.7724C61.3739 63.6809 61.3013 63.5737 61.2478 63.451C61.1964 63.3282 61.1708 63.1976 61.1708 63.0592L61.1708 61.5123C61.1708 61.3739 61.1964 61.2434 61.2478 61.1206C61.3013 60.9978 61.3739 60.8907 61.4654 60.7992C61.5569 60.7077 61.6641 60.6362 61.7868 60.5849C61.9096 60.5313 62.0402 60.5045 62.1786 60.5045L62.4531 60.5045C62.5915 60.5045 62.7221 60.5313 62.8449 60.5849C62.9676 60.6362 63.0748 60.7077 63.1663 60.7992C63.2578 60.8907 63.3292 60.9978 63.3806 61.1206C63.4342 61.2434 63.4609 61.3739 63.4609 61.5123L63.4609 62.3193L61.5826 62.3193L61.5826 63.0827C61.5826 63.1652 61.5982 63.2434 61.6295 63.317C61.6607 63.3885 61.7031 63.451 61.7567 63.5045C61.8103 63.5581 61.8728 63.6005 61.9442 63.6318C62.0179 63.663 62.096 63.6786 62.1786 63.6786L62.4531 63.6786C62.5357 63.6786 62.6127 63.663 62.6842 63.6318C62.7578 63.6005 62.8214 63.5581 62.875 63.5045C62.9286 63.451 62.971 63.3885 63.0022 63.317C63.0335 63.2434 63.0491 63.1652 63.0491 63.0827L63.0491 62.855L63.4609 62.9219L63.4609 63.0592ZM63.0491 61.4889C63.0491 61.4063 63.0335 61.3293 63.0022 61.2579C62.971 61.1842 62.9286 61.1206 62.875 61.067C62.8214 61.0135 62.7578 60.971 62.6842 60.9398C62.6127 60.9085 62.5357 60.8929 62.4531 60.8929L62.1786 60.8929C62.096 60.8929 62.0179 60.9085 61.9442 60.9398C61.8728 60.971 61.8103 61.0135 61.7567 61.067C61.7031 61.1206 61.6607 61.1842 61.6295 61.2579C61.5982 61.3293 61.5826 61.4063 61.5826 61.4889L61.5826 61.9978L63.0491 61.9978L63.0491 61.4889ZM66.1629 64.0001L66.1629 61.4889C66.1629 61.4063 66.1473 61.3293 66.1161 61.2579C66.0848 61.1842 66.0424 61.1206 65.9888 61.067C65.9353 61.0135 65.8717 60.971 65.798 60.9398C65.7266 60.9085 65.6496 60.8929 65.567 60.8929L65.2924 60.8929C65.2098 60.8929 65.1317 60.9085 65.058 60.9398C64.9866 60.971 64.9241 61.0135 64.8705 61.067C64.817 61.1206 64.7746 61.1842 64.7433 61.2579C64.7121 61.3293 64.6964 61.4063 64.6964 61.4889L64.6964 64.0001L64.2846 64.0001L64.2846 60.5715L64.4219 60.5715L64.6462 60.9197C64.74 60.7925 64.8571 60.692 64.9978 60.6184C65.1406 60.5425 65.2958 60.5045 65.4632 60.5045L65.567 60.5045C65.7054 60.5045 65.8359 60.5313 65.9587 60.5849C66.0815 60.6362 66.1886 60.7077 66.2801 60.7992C66.3717 60.8907 66.4431 60.9978 66.4944 61.1206C66.548 61.2434 66.5748 61.3739 66.5748 61.5123L66.5748 64.0001L66.1629 64.0001ZM68.6473 64.0001C68.5223 64.0001 68.404 63.9766 68.2924 63.9298C68.183 63.8829 68.0871 63.8181 68.0045 63.7356C67.9241 63.653 67.8594 63.557 67.8103 63.4476C67.7634 63.3382 67.74 63.221 67.74 63.096L67.74 60.9632L67.1239 60.9632L67.1239 60.5715L67.74 60.5715L67.74 59.7478L68.1518 59.6809L68.1518 60.5715L69.0223 60.5715L69.0223 60.9632L68.1518 60.9632L68.1518 63.1161C68.1518 63.1853 68.1641 63.2501 68.1886 63.3103C68.2154 63.3684 68.2511 63.4197 68.2958 63.4643C68.3404 63.509 68.3929 63.5447 68.4531 63.5715C68.5134 63.596 68.5781 63.6083 68.6473 63.6083L69.0223 63.6083L69.0223 64.0001L68.6473 64.0001Z" fill="#B8D7FF"/>
<g opacity="0.3">
<path fill-rule="evenodd" clip-rule="evenodd" d="M81.2991 63.0669L83.0109 64.7786C83.2059 64.9736 83.522 64.9736 83.717 64.7786C83.912 64.5836 83.912 64.2675 83.717 64.0725L82.7563 63.1118C83.7905 63.1214 84.5686 63.3141 85.0282 63.8173C85.507 64.3413 85.6923 64.7564 85.6923 66.1301C85.6923 66.4059 85.9158 66.6294 86.1916 66.6294C86.4674 66.6294 86.6909 66.4059 86.6909 66.1301C86.6909 64.5692 86.45 63.893 85.7655 63.1437C85.1244 62.4419 84.1379 62.1551 82.955 62.1172L83.7197 61.3525C83.9147 61.1575 83.9147 60.8413 83.7197 60.6463C83.5247 60.4513 83.2086 60.4513 83.0136 60.6463L81.2991 62.3607C81.1041 62.5557 81.1041 62.8719 81.2991 63.0669Z" fill="black"/>
<path fill-rule="evenodd" clip-rule="evenodd" d="M38.0065 63.0669L36.2941 64.7786C36.0991 64.9736 35.7828 64.9736 35.5877 64.7786C35.3927 64.5836 35.3927 64.2675 35.5877 64.0725L36.5488 63.1118C35.5142 63.1214 34.7358 63.314 34.2759 63.8172C33.797 64.3413 33.6116 64.7564 33.6116 66.1301C33.6116 66.4058 33.388 66.6294 33.1121 66.6294C32.8363 66.6294 32.6126 66.4058 32.6126 66.1301C32.6126 64.5692 32.8536 63.8929 33.5383 63.1437C34.1797 62.4418 35.1666 62.1551 36.35 62.1171L35.585 61.3525C35.39 61.1575 35.39 60.8413 35.585 60.6463C35.7801 60.4513 36.0964 60.4513 36.2914 60.6463L38.0065 62.3607C38.2016 62.5557 38.2016 62.8719 38.0065 63.0669Z" fill="black"/>
</g>
</g>
<g style="mix-blend-mode:luminosity">
<g filter="url(#filter0_d_135_4596)">
<path d="M90.015 34.5741C90.585 34.5741 91.128 34.5981 91.644 34.6461C91.68 34.7061 91.698 34.7931 91.698 34.9071C91.698 34.9971 91.686 35.0751 91.662 35.1411C91.182 35.0871 90.603 35.0631 89.925 35.0691L89.925 40.1451C89.925 40.4751 89.958 40.6401 90.024 40.6401L90.591 40.6221C90.615 40.6641 90.627 40.7211 90.627 40.7931C90.627 40.8411 90.618 40.8921 90.6 40.9461C90.204 41.0601 89.82 41.1171 89.448 41.1171C89.256 41.1171 89.118 41.1081 89.034 41.0901C88.956 41.0781 88.902 41.0481 88.872 41.0001C88.848 40.9461 88.839 40.8561 88.845 40.7301L88.845 35.1411C88.143 35.1951 87.534 35.2821 87.018 35.4021C86.982 35.3181 86.964 35.2341 86.964 35.1501C86.964 35.1021 86.976 35.0241 87 34.9161C87.864 34.6881 88.869 34.5741 90.015 34.5741ZM96.1321 40.7931C96.1321 40.8411 96.1231 40.8921 96.1051 40.9461C95.7211 41.0601 95.3161 41.1171 94.8901 41.1171C94.7281 41.1171 94.6081 41.1081 94.5301 41.0901C94.4581 41.0781 94.4101 41.0511 94.3861 41.0091C94.3621 40.9731 94.3501 40.9101 94.3501 40.8201C93.6601 41.0181 93.0661 41.1171 92.5681 41.1171C92.2381 41.1171 92.0041 41.0661 91.8661 40.9641C91.7281 40.8621 91.6591 40.6851 91.6591 40.4331L91.6591 39.1731C91.6591 38.9211 91.7221 38.7261 91.8481 38.5881C91.9741 38.4441 92.1751 38.3421 92.4511 38.2821C93.1171 38.1801 93.7501 38.1141 94.3501 38.0841L94.3501 37.3821C94.3501 37.1541 94.3051 37.0041 94.2151 36.9321C94.1311 36.8601 93.9541 36.8241 93.6841 36.8241C93.5161 36.8241 93.1801 36.8661 92.6761 36.9501C92.2381 37.0341 91.9501 37.0971 91.8121 37.1391C91.7821 37.0671 91.7671 36.9921 91.7671 36.9141C91.7671 36.8361 91.7791 36.7761 91.8031 36.7341C92.5651 36.4941 93.4471 36.3741 94.4491 36.3741C94.7731 36.3741 95.0071 36.4251 95.1511 36.5271C95.3011 36.6291 95.3761 36.7971 95.3761 37.0311L95.3761 40.1451C95.3761 40.4751 95.4091 40.6401 95.4751 40.6401L96.0961 40.6221C96.1201 40.6641 96.1321 40.7211 96.1321 40.7931ZM93.2521 40.6131C93.5341 40.6131 93.9001 40.5471 94.3501 40.4151L94.3501 38.4891C94.0201 38.5011 93.7081 38.5341 93.4141 38.5881C93.1141 38.6421 92.9101 38.7141 92.8021 38.8041C92.7241 38.8641 92.6851 38.9991 92.6851 39.2091L92.6851 40.2081C92.6851 40.4781 92.8741 40.6131 93.2521 40.6131ZM97.0042 37.3461C97.0042 37.0161 96.9712 36.8511 96.9052 36.8511L96.2842 36.8691C96.2602 36.8271 96.2482 36.7701 96.2482 36.6981C96.2482 36.6501 96.2572 36.5991 96.2752 36.5451C96.6712 36.4311 97.0762 36.3741 97.4902 36.3741C97.6702 36.3741 97.7962 36.3831 97.8682 36.4011C97.9402 36.4131 97.9852 36.4461 98.0032 36.5001C98.0272 36.5481 98.0362 36.6351 98.0302 36.7611L98.3632 36.6621C98.5732 36.6021 98.7232 36.5631 98.8132 36.5451C98.8072 36.5451 98.8732 36.5301 99.0112 36.5001C99.1792 36.4581 99.3832 36.4221 99.6232 36.3921C99.7672 36.3801 99.8692 36.3741 99.9292 36.3741C100.259 36.3741 100.493 36.4281 100.631 36.5361C100.769 36.6381 100.838 36.8121 100.838 37.0581L100.838 39.9471C100.844 40.4391 100.58 40.7301 100.046 40.8201C99.3982 40.9461 98.7262 41.0211 98.0302 41.0451L98.0302 42.8901C98.0302 42.9741 97.9822 43.0341 97.8862 43.0701C97.6582 43.1361 97.4152 43.1691 97.1572 43.1691C97.0552 43.1691 97.0042 43.1181 97.0042 43.0161L97.0042 37.3461ZM99.3082 36.9141C99.1222 36.9141 98.6962 37.0011 98.0302 37.1751L98.0302 40.6401C98.5282 40.6101 98.9212 40.5651 99.2092 40.5051C99.4552 40.4571 99.6172 40.3971 99.6952 40.3251C99.7732 40.2531 99.8122 40.1211 99.8122 39.9291L99.8122 37.2831C99.8122 37.0371 99.6442 36.9141 99.3082 36.9141Z" fill="#256CD0"/>
</g>
</g>
</g>
</g>
<path d="M69.5391 89C69.4141 89 69.2958 88.9766 69.1842 88.9297C69.0748 88.8828 68.9788 88.8181 68.8962 88.7355C68.8158 88.6529 68.7511 88.5569 68.702 88.4475C68.6551 88.3382 68.6317 88.221 68.6317 88.096V85.9632H68.0156V85.5714H68.6317V84.7478L69.0435 84.6808V85.5714H69.9141V85.9632H69.0435V88.1161C69.0435 88.1853 69.0558 88.25 69.0804 88.3103C69.1071 88.3683 69.1429 88.4196 69.1875 88.4643C69.2321 88.5089 69.2846 88.5446 69.3449 88.5714C69.4051 88.596 69.4699 88.6083 69.5391 88.6083H69.9141V89H69.5391ZM72.5525 89V86.4888C72.5525 86.4062 72.5368 86.3292 72.5056 86.2578C72.4743 86.1842 72.4319 86.1205 72.3783 86.067C72.3248 86.0134 72.2612 85.971 72.1875 85.9397C72.1161 85.9085 72.0391 85.8929 71.9565 85.8929H71.6819C71.5993 85.8929 71.5212 85.9085 71.4475 85.9397C71.3761 85.971 71.3136 86.0134 71.26 86.067C71.2065 86.1205 71.1641 86.1842 71.1328 86.2578C71.1016 86.3292 71.0859 86.4062 71.0859 86.4888V89H70.6741V84.1987H71.0859V85.8594C71.1797 85.7478 71.2924 85.6607 71.4241 85.5982C71.5558 85.5357 71.6987 85.5045 71.8527 85.5045H71.9565C72.0949 85.5045 72.2254 85.5312 72.3482 85.5848C72.471 85.6362 72.5781 85.7076 72.6696 85.7991C72.7612 85.8906 72.8326 85.9978 72.8839 86.1205C72.9375 86.2433 72.9643 86.3739 72.9643 86.5123V89H72.5525ZM75.9408 89L75.7132 88.6585C75.6194 88.7812 75.5022 88.8806 75.3616 88.9565C75.221 89.0301 75.067 89.067 74.8996 89.067H74.7958C74.6574 89.067 74.5268 89.0413 74.404 88.99C74.2812 88.9364 74.1741 88.8638 74.0826 88.7723C73.9911 88.6808 73.9185 88.5737 73.865 88.4509C73.8136 88.3281 73.7879 88.1975 73.7879 88.0592V88.0257C73.7879 87.8873 73.8136 87.7567 73.865 87.6339C73.9185 87.5112 73.9911 87.404 74.0826 87.3125C74.1741 87.221 74.2812 87.1496 74.404 87.0982C74.5268 87.0446 74.6574 87.0179 74.7958 87.0179H75.6663V86.4888C75.6663 86.4062 75.6507 86.3292 75.6194 86.2578C75.5882 86.1842 75.5458 86.1205 75.4922 86.067C75.4386 86.0134 75.375 85.971 75.3013 85.9397C75.2299 85.9085 75.1529 85.8929 75.0703 85.8929H74.8292C74.7467 85.8929 74.6685 85.9085 74.5949 85.9397C74.5234 85.971 74.4609 86.0134 74.4074 86.067C74.3538 86.1205 74.3114 86.1842 74.2801 86.2578C74.2489 86.3292 74.2333 86.4062 74.2333 86.4888V86.6127L73.8214 86.5458V86.5123C73.8214 86.3739 73.8471 86.2433 73.8984 86.1205C73.952 85.9978 74.0246 85.8906 74.1161 85.7991C74.2076 85.7076 74.3147 85.6362 74.4375 85.5848C74.5603 85.5312 74.6908 85.5045 74.8292 85.5045H75.0703C75.2087 85.5045 75.3393 85.5312 75.4621 85.5848C75.5848 85.6362 75.692 85.7076 75.7835 85.7991C75.875 85.8906 75.9464 85.9978 75.9978 86.1205C76.0513 86.2433 76.0781 86.3739 76.0781 86.5123V89H75.9408ZM75.6663 87.3393H74.7958C74.7132 87.3393 74.635 87.3549 74.5614 87.3862C74.49 87.4174 74.4275 87.4609 74.3739 87.5167C74.3203 87.5703 74.2779 87.6339 74.2467 87.7076C74.2154 87.779 74.1998 87.856 74.1998 87.9386V88.0826C74.1998 88.1652 74.2154 88.2433 74.2467 88.317C74.2779 88.3884 74.3203 88.4509 74.3739 88.5045C74.4275 88.558 74.49 88.6004 74.5614 88.6317C74.635 88.6629 74.7132 88.6786 74.7958 88.6786H75.0703C75.1529 88.6786 75.2299 88.6629 75.3013 88.6317C75.375 88.6004 75.4386 88.558 75.4922 88.5045C75.5458 88.4509 75.5882 88.3884 75.6194 88.317C75.6507 88.2433 75.6663 88.1652 75.6663 88.0826V87.3393ZM78.1507 89C78.0257 89 77.9074 88.9766 77.7958 88.9297C77.6864 88.8828 77.5904 88.8181 77.5078 88.7355C77.4275 88.6529 77.3627 88.5569 77.3136 88.4475C77.2667 88.3382 77.2433 88.221 77.2433 88.096V85.9632H76.6272V85.5714H77.2433V84.7478L77.6551 84.6808V85.5714H78.5257V85.9632H77.6551V88.1161C77.6551 88.1853 77.6674 88.25 77.692 88.3103C77.7187 88.3683 77.7545 88.4196 77.7991 88.4643C77.8437 88.5089 77.8962 88.5446 77.9565 88.5714C78.0167 88.596 78.0815 88.6083 78.1507 88.6083H78.5257V89H78.1507ZM83.1562 88.0592C83.1562 88.1975 83.1295 88.3281 83.0759 88.4509C83.0246 88.5737 82.9531 88.6808 82.8616 88.7723C82.7701 88.8638 82.6629 88.9364 82.5402 88.99C82.4174 89.0413 82.2868 89.067 82.1484 89.067H81.8739C81.7355 89.067 81.6049 89.0413 81.4821 88.99C81.3594 88.9364 81.2522 88.8638 81.1607 88.7723C81.0692 88.6808 80.9967 88.5737 80.9431 88.4509C80.8917 88.3281 80.8661 88.1975 80.8661 88.0592V86.5123C80.8661 86.3739 80.8917 86.2433 80.9431 86.1205C80.9967 85.9978 81.0692 85.8906 81.1607 85.7991C81.2522 85.7076 81.3594 85.6362 81.4821 85.5848C81.6049 85.5312 81.7355 85.5045 81.8739 85.5045H82.1484C82.2868 85.5045 82.4174 85.5312 82.5402 85.5848C82.6629 85.6362 82.7701 85.7076 82.8616 85.7991C82.9531 85.8906 83.0246 85.9978 83.0759 86.1205C83.1295 86.2433 83.1562 86.3739 83.1562 86.5123V86.6496L82.7444 86.7165V86.4888C82.7444 86.4062 82.7288 86.3292 82.6975 86.2578C82.6663 86.1842 82.6239 86.1205 82.5703 86.067C82.5167 86.0134 82.4531 85.971 82.3795 85.9397C82.308 85.9085 82.231 85.8929 82.1484 85.8929H81.8739C81.7913 85.8929 81.7132 85.9085 81.6395 85.9397C81.5681 85.971 81.5056 86.0134 81.452 86.067C81.3984 86.1205 81.356 86.1842 81.3248 86.2578C81.2935 86.3292 81.2779 86.4062 81.2779 86.4888V88.0826C81.2779 88.1652 81.2935 88.2433 81.3248 88.317C81.356 88.3884 81.3984 88.4509 81.452 88.5045C81.5056 88.558 81.5681 88.6004 81.6395 88.6317C81.7132 88.6629 81.7913 88.6786 81.8739 88.6786H82.1484C82.231 88.6786 82.308 88.6629 82.3795 88.6317C82.4531 88.6004 82.5167 88.558 82.5703 88.5045C82.6239 88.4509 82.6663 88.3884 82.6975 88.317C82.7288 88.2433 82.7444 88.1652 82.7444 88.0826V87.8549L83.1562 87.9219V88.0592ZM86.2701 88.0592C86.2701 88.1975 86.2433 88.3281 86.1897 88.4509C86.1384 88.5737 86.067 88.6808 85.9754 88.7723C85.8839 88.8638 85.7768 88.9364 85.654 88.99C85.5313 89.0413 85.4007 89.067 85.2623 89.067H84.9877C84.8493 89.067 84.7188 89.0413 84.596 88.99C84.4732 88.9364 84.3661 88.8638 84.2746 88.7723C84.183 88.6808 84.1105 88.5737 84.0569 88.4509C84.0056 88.3281 83.9799 88.1975 83.9799 88.0592V86.5123C83.9799 86.3739 84.0056 86.2433 84.0569 86.1205C84.1105 85.9978 84.183 85.8906 84.2746 85.7991C84.3661 85.7076 84.4732 85.6362 84.596 85.5848C84.7188 85.5312 84.8493 85.5045 84.9877 85.5045H85.2623C85.4007 85.5045 85.5313 85.5312 85.654 85.5848C85.7768 85.6362 85.8839 85.7076 85.9754 85.7991C86.067 85.8906 86.1384 85.9978 86.1897 86.1205C86.2433 86.2433 86.2701 86.3739 86.2701 86.5123V88.0592ZM85.8583 86.4888C85.8583 86.4062 85.8426 86.3292 85.8114 86.2578C85.7801 86.1842 85.7377 86.1205 85.6842 86.067C85.6306 86.0134 85.567 85.971 85.4933 85.9397C85.4219 85.9085 85.3449 85.8929 85.2623 85.8929H84.9877C84.9051 85.8929 84.827 85.9085 84.7533 85.9397C84.6819 85.971 84.6194 86.0134 84.5658 86.067C84.5123 86.1205 84.4699 86.1842 84.4386 86.2578C84.4074 86.3292 84.3917 86.4062 84.3917 86.4888V88.0826C84.3917 88.1652 84.4074 88.2433 84.4386 88.317C84.4699 88.3884 84.5123 88.4509 84.5658 88.5045C84.6194 88.558 84.6819 88.6004 84.7533 88.6317C84.827 88.6629 84.9051 88.6786 84.9877 88.6786H85.2623C85.3449 88.6786 85.4219 88.6629 85.4933 88.6317C85.567 88.6004 85.6306 88.558 85.6842 88.5045C85.7377 88.4509 85.7801 88.3884 85.8114 88.317C85.8426 88.2433 85.8583 88.1652 85.8583 88.0826V86.4888ZM88.9721 89V86.4888C88.9721 86.4062 88.9565 86.3292 88.9252 86.2578C88.894 86.1842 88.8516 86.1205 88.798 86.067C88.7444 86.0134 88.6808 85.971 88.6071 85.9397C88.5357 85.9085 88.4587 85.8929 88.3761 85.8929H88.1016C88.019 85.8929 87.9408 85.9085 87.8672 85.9397C87.7958 85.971 87.7333 86.0134 87.6797 86.067C87.6261 86.1205 87.5837 86.1842 87.5525 86.2578C87.5212 86.3292 87.5056 86.4062 87.5056 86.4888V89H87.0937V85.5714H87.231L87.4554 85.9196C87.5491 85.7924 87.6663 85.692 87.8069 85.6183C87.9498 85.5424 88.1049 85.5045 88.2723 85.5045H88.3761C88.5145 85.5045 88.6451 85.5312 88.7679 85.5848C88.8906 85.6362 88.9978 85.7076 89.0893 85.7991C89.1808 85.8906 89.2522 85.9978 89.3036 86.1205C89.3571 86.2433 89.3839 86.3739 89.3839 86.5123V89H88.9721ZM92.0859 89V86.4888C92.0859 86.4062 92.0703 86.3292 92.0391 86.2578C92.0078 86.1842 91.9654 86.1205 91.9118 86.067C91.8583 86.0134 91.7946 85.971 91.721 85.9397C91.6496 85.9085 91.5725 85.8929 91.49 85.8929H91.2154C91.1328 85.8929 91.0547 85.9085 90.981 85.9397C90.9096 85.971 90.8471 86.0134 90.7935 86.067C90.74 86.1205 90.6975 86.1842 90.6663 86.2578C90.635 86.3292 90.6194 86.4062 90.6194 86.4888V89H90.2076V85.5714H90.3449L90.5692 85.9196C90.6629 85.7924 90.7801 85.692 90.9208 85.6183C91.0636 85.5424 91.2188 85.5045 91.3862 85.5045H91.49C91.6283 85.5045 91.7589 85.5312 91.8817 85.5848C92.0045 85.6362 92.1116 85.7076 92.2031 85.7991C92.2946 85.8906 92.3661 85.9978 92.4174 86.1205C92.471 86.2433 92.4978 86.3739 92.4978 86.5123V89H92.0859ZM95.6116 88.0592C95.6116 88.1975 95.5848 88.3281 95.5312 88.4509C95.4799 88.5737 95.4085 88.6808 95.317 88.7723C95.2254 88.8638 95.1183 88.9364 94.9955 88.99C94.8728 89.0413 94.7422 89.067 94.6038 89.067H94.3292C94.1908 89.067 94.0603 89.0413 93.9375 88.99C93.8147 88.9364 93.7076 88.8638 93.6161 88.7723C93.5246 88.6808 93.452 88.5737 93.3984 88.4509C93.3471 88.3281 93.3214 88.1975 93.3214 88.0592V86.5123C93.3214 86.3739 93.3471 86.2433 93.3984 86.1205C93.452 85.9978 93.5246 85.8906 93.6161 85.7991C93.7076 85.7076 93.8147 85.6362 93.9375 85.5848C94.0603 85.5312 94.1908 85.5045 94.3292 85.5045H94.6038C94.7422 85.5045 94.8728 85.5312 94.9955 85.5848C95.1183 85.6362 95.2254 85.7076 95.317 85.7991C95.4085 85.8906 95.4799 85.9978 95.5312 86.1205C95.5848 86.2433 95.6116 86.3739 95.6116 86.5123V87.3192H93.7333V88.0826C93.7333 88.1652 93.7489 88.2433 93.7801 88.317C93.8114 88.3884 93.8538 88.4509 93.9074 88.5045C93.9609 88.558 94.0234 88.6004 94.0949 88.6317C94.1685 88.6629 94.2467 88.6786 94.3292 88.6786H94.6038C94.6864 88.6786 94.7634 88.6629 94.8348 88.6317C94.9085 88.6004 94.9721 88.558 95.0257 88.5045C95.0792 88.4509 95.1217 88.3884 95.1529 88.317C95.1842 88.2433 95.1998 88.1652 95.1998 88.0826V87.8549L95.6116 87.9219V88.0592ZM95.1998 86.4888C95.1998 86.4062 95.1842 86.3292 95.1529 86.2578C95.1217 86.1842 95.0792 86.1205 95.0257 86.067C94.9721 86.0134 94.9085 85.971 94.8348 85.9397C94.7634 85.9085 94.6864 85.8929 94.6038 85.8929H94.3292C94.2467 85.8929 94.1685 85.9085 94.0949 85.9397C94.0234 85.971 93.9609 86.0134 93.9074 86.067C93.8538 86.1205 93.8114 86.1842 93.7801 86.2578C93.7489 86.3292 93.7333 86.4062 93.7333 86.4888V86.9978H95.1998V86.4888ZM98.7254 88.0592C98.7254 88.1975 98.6987 88.3281 98.6451 88.4509C98.5938 88.5737 98.5223 88.6808 98.4308 88.7723C98.3393 88.8638 98.2321 88.9364 98.1094 88.99C97.9866 89.0413 97.856 89.067 97.7176 89.067H97.4431C97.3047 89.067 97.1741 89.0413 97.0513 88.99C96.9286 88.9364 96.8214 88.8638 96.7299 88.7723C96.6384 88.6808 96.5658 88.5737 96.5123 88.4509C96.4609 88.3281 96.4353 88.1975 96.4353 88.0592V86.5123C96.4353 86.3739 96.4609 86.2433 96.5123 86.1205C96.5658 85.9978 96.6384 85.8906 96.7299 85.7991C96.8214 85.7076 96.9286 85.6362 97.0513 85.5848C97.1741 85.5312 97.3047 85.5045 97.4431 85.5045H97.7176C97.856 85.5045 97.9866 85.5312 98.1094 85.5848C98.2321 85.6362 98.3393 85.7076 98.4308 85.7991C98.5223 85.8906 98.5938 85.9978 98.6451 86.1205C98.6987 86.2433 98.7254 86.3739 98.7254 86.5123V86.6496L98.3136 86.7165V86.4888C98.3136 86.4062 98.298 86.3292 98.2667 86.2578C98.2355 86.1842 98.1931 86.1205 98.1395 86.067C98.0859 86.0134 98.0223 85.971 97.9487 85.9397C97.8772 85.9085 97.8002 85.8929 97.7176 85.8929H97.4431C97.3605 85.8929 97.2824 85.9085 97.2087 85.9397C97.1373 85.971 97.0748 86.0134 97.0212 86.067C96.9676 86.1205 96.9252 86.1842 96.894 86.2578C96.8627 86.3292 96.8471 86.4062 96.8471 86.4888V88.0826C96.8471 88.1652 96.8627 88.2433 96.894 88.317C96.9252 88.3884 96.9676 88.4509 97.0212 88.5045C97.0748 88.558 97.1373 88.6004 97.2087 88.6317C97.2824 88.6629 97.3605 88.6786 97.4431 88.6786H97.7176C97.8002 88.6786 97.8772 88.6629 97.9487 88.6317C98.0223 88.6004 98.0859 88.558 98.1395 88.5045C98.1931 88.4509 98.2355 88.3884 98.2667 88.317C98.298 88.2433 98.3136 88.1652 98.3136 88.0826V87.8549L98.7254 87.9219V88.0592ZM100.798 89C100.673 89 100.555 88.9766 100.443 88.9297C100.334 88.8828 100.238 88.8181 100.155 88.7355C100.075 88.6529 100.01 88.5569 99.9609 88.4475C99.9141 88.3382 99.8906 88.221 99.8906 88.096V85.9632H99.2746V85.5714H99.8906V84.7478L100.302 84.6808V85.5714H101.173V85.9632H100.302V88.1161C100.302 88.1853 100.315 88.25 100.339 88.3103C100.366 88.3683 100.402 88.4196 100.446 88.4643C100.491 88.5089 100.544 88.5446 100.604 88.5714C100.664 88.596 100.729 88.6083 100.798 88.6083H101.173V89H100.798ZM104.29 88.1295C104.29 88.2679 104.262 88.3951 104.206 88.5112C104.151 88.625 104.075 88.7232 103.979 88.8058C103.883 88.8884 103.771 88.9531 103.644 89C103.519 89.0446 103.387 89.067 103.249 89.067H102.974C102.836 89.067 102.703 89.0413 102.576 88.99C102.451 88.9364 102.34 88.8638 102.244 88.7723C102.151 88.6808 102.075 88.5737 102.017 88.4509C101.961 88.3281 101.933 88.1975 101.933 88.0592V87.9219L102.345 87.8549V88.0826C102.345 88.1652 102.362 88.2433 102.395 88.317C102.431 88.3884 102.478 88.4509 102.536 88.5045C102.594 88.558 102.661 88.6004 102.737 88.6317C102.812 88.6629 102.892 88.6786 102.974 88.6786H103.249C103.331 88.6786 103.411 88.6663 103.487 88.6417C103.562 88.6172 103.629 88.5826 103.687 88.5379C103.748 88.4911 103.795 88.4353 103.828 88.3705C103.864 88.3058 103.882 88.2321 103.882 88.1496C103.882 88.0268 103.855 87.9263 103.801 87.8482C103.748 87.7701 103.676 87.7054 103.587 87.654C103.5 87.6004 103.4 87.5569 103.286 87.5234C103.174 87.4877 103.059 87.4531 102.941 87.4196C102.823 87.3839 102.706 87.3437 102.593 87.2991C102.481 87.2545 102.381 87.1964 102.291 87.125C102.204 87.0513 102.134 86.9598 102.08 86.8504C102.027 86.7411 102 86.6049 102 86.442C102 86.3036 102.027 86.1775 102.08 86.0636C102.134 85.9475 102.206 85.8482 102.298 85.7656C102.39 85.683 102.496 85.6194 102.616 85.5748C102.739 85.5279 102.869 85.5045 103.008 85.5045H103.249C103.387 85.5045 103.518 85.5312 103.641 85.5848C103.763 85.6362 103.871 85.7076 103.962 85.7991C104.054 85.8906 104.125 85.9978 104.176 86.1205C104.23 86.2433 104.257 86.3739 104.257 86.5123V86.5257L103.845 86.5926V86.4888C103.845 86.4062 103.829 86.3292 103.798 86.2578C103.767 86.1842 103.724 86.1205 103.671 86.067C103.617 86.0134 103.554 85.971 103.48 85.9397C103.408 85.9085 103.331 85.8929 103.249 85.8929H103.008C102.925 85.8929 102.847 85.9051 102.773 85.9297C102.702 85.9542 102.64 85.99 102.586 86.0368C102.532 86.0815 102.49 86.1362 102.459 86.2009C102.427 86.2656 102.412 86.3393 102.412 86.4219C102.412 86.5402 102.439 86.6373 102.492 86.7132C102.546 86.7868 102.616 86.8493 102.703 86.9007C102.792 86.952 102.893 86.9955 103.004 87.0312C103.118 87.0647 103.233 87.1004 103.349 87.1384C103.468 87.1741 103.583 87.2154 103.694 87.2623C103.808 87.3092 103.908 87.3694 103.996 87.4431C104.085 87.5167 104.156 87.6094 104.21 87.721C104.263 87.8304 104.29 87.9665 104.29 88.1295ZM107.91 89C107.785 89 107.666 88.9766 107.555 88.9297C107.445 88.8828 107.349 88.8181 107.267 88.7355C107.186 88.6529 107.122 88.5569 107.073 88.4475C107.026 88.3382 107.002 88.221 107.002 88.096V85.9632H106.386V85.5714H107.002V84.7478L107.414 84.6808V85.5714H108.285V85.9632H107.414V88.1161C107.414 88.1853 107.426 88.25 107.451 88.3103C107.478 88.3683 107.513 88.4196 107.558 88.4643C107.603 88.5089 107.655 88.5446 107.715 88.5714C107.776 88.596 107.84 88.6083 107.91 88.6083H108.285V89H107.91ZM110.923 89V86.4888C110.923 86.4062 110.907 86.3292 110.876 86.2578C110.845 86.1842 110.802 86.1205 110.749 86.067C110.695 86.0134 110.632 85.971 110.558 85.9397C110.487 85.9085 110.41 85.8929 110.327 85.8929H110.052C109.97 85.8929 109.892 85.9085 109.818 85.9397C109.747 85.971 109.684 86.0134 109.631 86.067C109.577 86.1205 109.535 86.1842 109.503 86.2578C109.472 86.3292 109.456 86.4062 109.456 86.4888V89H109.045V84.1987H109.456V85.8594C109.55 85.7478 109.663 85.6607 109.795 85.5982C109.926 85.5357 110.069 85.5045 110.223 85.5045H110.327C110.465 85.5045 110.596 85.5312 110.719 85.5848C110.842 85.6362 110.949 85.7076 111.04 85.7991C111.132 85.8906 111.203 85.9978 111.254 86.1205C111.308 86.2433 111.335 86.3739 111.335 86.5123V89H110.923ZM114.449 88.0592C114.449 88.1975 114.422 88.3281 114.368 88.4509C114.317 88.5737 114.246 88.6808 114.154 88.7723C114.062 88.8638 113.955 88.9364 113.833 88.99C113.71 89.0413 113.579 89.067 113.441 89.067H113.166C113.028 89.067 112.897 89.0413 112.775 88.99C112.652 88.9364 112.545 88.8638 112.453 88.7723C112.362 88.6808 112.289 88.5737 112.235 88.4509C112.184 88.3281 112.158 88.1975 112.158 88.0592V86.5123C112.158 86.3739 112.184 86.2433 112.235 86.1205C112.289 85.9978 112.362 85.8906 112.453 85.7991C112.545 85.7076 112.652 85.6362 112.775 85.5848C112.897 85.5312 113.028 85.5045 113.166 85.5045H113.441C113.579 85.5045 113.71 85.5312 113.833 85.5848C113.955 85.6362 114.062 85.7076 114.154 85.7991C114.246 85.8906 114.317 85.9978 114.368 86.1205C114.422 86.2433 114.449 86.3739 114.449 86.5123V87.3192H112.57V88.0826C112.57 88.1652 112.586 88.2433 112.617 88.317C112.648 88.3884 112.691 88.4509 112.744 88.5045C112.798 88.558 112.86 88.6004 112.932 88.6317C113.006 88.6629 113.084 88.6786 113.166 88.6786H113.441C113.523 88.6786 113.6 88.6629 113.672 88.6317C113.746 88.6004 113.809 88.558 113.863 88.5045C113.916 88.4509 113.959 88.3884 113.99 88.317C114.021 88.2433 114.037 88.1652 114.037 88.0826V87.8549L114.449 87.9219V88.0592ZM114.037 86.4888C114.037 86.4062 114.021 86.3292 113.99 86.2578C113.959 86.1842 113.916 86.1205 113.863 86.067C113.809 86.0134 113.746 85.971 113.672 85.9397C113.6 85.9085 113.523 85.8929 113.441 85.8929H113.166C113.084 85.8929 113.006 85.9085 112.932 85.9397C112.86 85.971 112.798 86.0134 112.744 86.067C112.691 86.1205 112.648 86.1842 112.617 86.2578C112.586 86.3292 112.57 86.4062 112.57 86.4888V86.9978H114.037V86.4888ZM117.629 88.1295C117.629 88.2679 117.602 88.3951 117.546 88.5112C117.49 88.625 117.414 88.7232 117.318 88.8058C117.222 88.8884 117.11 88.9531 116.983 89C116.858 89.0446 116.727 89.067 116.588 89.067H116.314C116.175 89.067 116.042 89.0413 115.915 88.99C115.79 88.9364 115.68 88.8638 115.584 88.7723C115.49 88.6808 115.414 88.5737 115.356 88.4509C115.3 88.3281 115.272 88.1975 115.272 88.0592V87.9219L115.684 87.8549V88.0826C115.684 88.1652 115.701 88.2433 115.734 88.317C115.77 88.3884 115.817 88.4509 115.875 88.5045C115.933 88.558 116 88.6004 116.076 88.6317C116.152 88.6629 116.231 88.6786 116.314 88.6786H116.588C116.671 88.6786 116.75 88.6663 116.826 88.6417C116.902 88.6172 116.969 88.5826 117.027 88.5379C117.087 88.4911 117.134 88.4353 117.167 88.3705C117.203 88.3058 117.221 88.2321 117.221 88.1496C117.221 88.0268 117.194 87.9263 117.141 87.8482C117.087 87.7701 117.016 87.7054 116.926 87.654C116.839 87.6004 116.739 87.5569 116.625 87.5234C116.513 87.4877 116.398 87.4531 116.28 87.4196C116.162 87.3839 116.046 87.3437 115.932 87.2991C115.82 87.2545 115.72 87.1964 115.631 87.125C115.544 87.0513 115.473 86.9598 115.42 86.8504C115.366 86.7411 115.339 86.6049 115.339 86.442C115.339 86.3036 115.366 86.1775 115.42 86.0636C115.473 85.9475 115.546 85.8482 115.637 85.7656C115.729 85.683 115.835 85.6194 115.955 85.5748C116.078 85.5279 116.209 85.5045 116.347 85.5045H116.588C116.727 85.5045 116.857 85.5312 116.98 85.5848C117.103 85.6362 117.21 85.7076 117.301 85.7991C117.393 85.8906 117.464 85.9978 117.516 86.1205C117.569 86.2433 117.596 86.3739 117.596 86.5123V86.5257L117.184 86.5926V86.4888C117.184 86.4062 117.169 86.3292 117.137 86.2578C117.106 86.1842 117.064 86.1205 117.01 86.067C116.956 86.0134 116.893 85.971 116.819 85.9397C116.748 85.9085 116.671 85.8929 116.588 85.8929H116.347C116.265 85.8929 116.186 85.9051 116.113 85.9297C116.041 85.9542 115.979 85.99 115.925 86.0368C115.872 86.0815 115.829 86.1362 115.798 86.2009C115.767 86.2656 115.751 86.3393 115.751 86.4219C115.751 86.5402 115.778 86.6373 115.831 86.7132C115.885 86.7868 115.955 86.8493 116.042 86.9007C116.132 86.952 116.232 86.9955 116.344 87.0312C116.458 87.0647 116.573 87.1004 116.689 87.1384C116.807 87.1741 116.922 87.2154 117.033 87.2623C117.147 87.3092 117.248 87.3694 117.335 87.4431C117.424 87.5167 117.496 87.6094 117.549 87.721C117.603 87.8304 117.629 87.9665 117.629 88.1295ZM120.71 88.0592C120.71 88.1975 120.683 88.3281 120.629 88.4509C120.578 88.5737 120.507 88.6808 120.415 88.7723C120.324 88.8638 120.217 88.9364 120.094 88.99C119.971 89.0413 119.84 89.067 119.702 89.067H119.427C119.289 89.067 119.158 89.0413 119.036 88.99C118.913 88.9364 118.806 88.8638 118.714 88.7723C118.623 88.6808 118.55 88.5737 118.497 88.4509C118.445 88.3281 118.42 88.1975 118.42 88.0592V86.5123C118.42 86.3739 118.445 86.2433 118.497 86.1205C118.55 85.9978 118.623 85.8906 118.714 85.7991C118.806 85.7076 118.913 85.6362 119.036 85.5848C119.158 85.5312 119.289 85.5045 119.427 85.5045H119.702C119.84 85.5045 119.971 85.5312 120.094 85.5848C120.217 85.6362 120.324 85.7076 120.415 85.7991C120.507 85.8906 120.578 85.9978 120.629 86.1205C120.683 86.2433 120.71 86.3739 120.71 86.5123V87.3192H118.831V88.0826C118.831 88.1652 118.847 88.2433 118.878 88.317C118.91 88.3884 118.952 88.4509 119.006 88.5045C119.059 88.558 119.122 88.6004 119.193 88.6317C119.267 88.6629 119.345 88.6786 119.427 88.6786H119.702C119.785 88.6786 119.862 88.6629 119.933 88.6317C120.007 88.6004 120.07 88.558 120.124 88.5045C120.177 88.4509 120.22 88.3884 120.251 88.317C120.282 88.2433 120.298 88.1652 120.298 88.0826V87.8549L120.71 87.9219V88.0592ZM120.298 86.4888C120.298 86.4062 120.282 86.3292 120.251 86.2578C120.22 86.1842 120.177 86.1205 120.124 86.067C120.07 86.0134 120.007 85.971 119.933 85.9397C119.862 85.9085 119.785 85.8929 119.702 85.8929H119.427C119.345 85.8929 119.267 85.9085 119.193 85.9397C119.122 85.971 119.059 86.0134 119.006 86.067C118.952 86.1205 118.91 86.1842 118.878 86.2578C118.847 86.3292 118.831 86.4062 118.831 86.4888V86.9978H120.298V86.4888Z" fill="#66A6FF"/>
<path d="M94.1464 32.5669C94.3417 32.7622 94.6583 32.7622 94.8536 32.5669L98.0355 29.3849C98.2308 29.1897 98.2308 28.8731 98.0355 28.6778C97.8403 28.4826 97.5237 28.4826 97.3284 28.6778L94.5 31.5062L91.6716 28.6778C91.4763 28.4826 91.1597 28.4826 90.9645 28.6778C90.7692 28.8731 90.7692 29.1897 90.9645 29.3849L94.1464 32.5669ZM94 16.5L94 32.2133L95 32.2133L95 16.5L94 16.5Z" fill="#FFD666"/>
<path d="M123.578 68.4219C123.578 68.1458 123.355 67.9219 123.078 67.9219L118.578 67.9219C118.302 67.9219 118.078 68.1458 118.078 68.4219C118.078 68.6981 118.302 68.9219 118.578 68.9219H122.578V72.9219C122.578 73.1981 122.802 73.4219 123.078 73.4219C123.355 73.4219 123.578 73.1981 123.578 72.9219L123.578 68.4219ZM111.672 80.5355L123.432 68.7755L122.725 68.0684L110.965 79.8284L111.672 80.5355Z" fill="#FFD666"/>
<path d="M65.7616 67.7615C65.4855 67.7615 65.2616 67.9853 65.2616 68.2615L65.2616 72.7615C65.2616 73.0376 65.4855 73.2615 65.7616 73.2615C66.0378 73.2615 66.2616 73.0376 66.2616 72.7615L66.2616 68.7615L70.2616 68.7615C70.5378 68.7615 70.7616 68.5376 70.7616 68.2615C70.7616 67.9853 70.5378 67.7615 70.2616 67.7615L65.7616 67.7615ZM78.0357 79.8284L66.1152 67.9079L65.4081 68.615L77.3286 80.5355L78.0357 79.8284Z" fill="#FFD666"/>
<defs>
<filter id="filter0_d_135_4596" x="86.4639" y="33.5741" width="14.8833" height="9.595" filterUnits="userSpaceOnUse" color-interpolation-filters="sRGB">
<feFlood flood-opacity="0" result="BackgroundImageFix"/>
<feColorMatrix in="SourceAlpha" type="matrix" values="0 0 0 0 0 0 0 0 0 0 0 0 0 0 0 0 0 0 127 0" result="hardAlpha"/>
<feOffset dy="-0.5"/>
<feGaussianBlur stdDeviation="0.25"/>
<feComposite in2="hardAlpha" operator="out"/>
<feColorMatrix type="matrix" values="0 0 0 0 0 0 0 0 0 0 0 0 0 0 0 0 0 0 0.6 0"/>
<feBlend mode="normal" in2="BackgroundImageFix" result="effect1_dropShadow_135_4596"/>
<feBlend mode="normal" in="SourceGraphic" in2="effect1_dropShadow_135_4596" result="shape"/>
</filter>
<radialGradient id="paint0_radial_135_4596" cx="0" cy="0" r="1" gradientUnits="userSpaceOnUse" gradientTransform="translate(94.5 122.5) rotate(-90) scale(94.5 94.5)">
<stop stop-opacity="0"/>
<stop offset="1"/>
</radialGradient>
<linearGradient id="paint1_linear_135_4596" x1="94.5" y1="28" x2="94.5" y2="53.0001" gradientUnits="userSpaceOnUse">
<stop stop-opacity="0.61"/>
<stop offset="1" stop-opacity="0.89"/>
</linearGradient>
<linearGradient id="paint2_linear_135_4596" x1="189" y1="122.5" x2="164" y2="122.5" gradientUnits="userSpaceOnUse">
<stop stop-opacity="0.61"/>
<stop offset="1" stop-opacity="0.89"/>
</linearGradient>
<linearGradient id="paint3_linear_135_4596" x1="3.03794e-06" y1="122.5" x2="25" y2="122.5" gradientUnits="userSpaceOnUse">
<stop stop-opacity="0.61"/>
<stop offset="1" stop-opacity="0.89"/>
</linearGradient>
<linearGradient id="paint4_linear_135_4596" x1="164" y1="53.0001" x2="96.5" y2="123" gradientUnits="userSpaceOnUse">
<stop stop-opacity="0.59"/>
<stop offset="1" stop-opacity="0.13"/>
</linearGradient>
<linearGradient id="paint5_linear_135_4596" x1="25" y1="53.0001" x2="95" y2="120.5" gradientUnits="userSpaceOnUse">
<stop stop-opacity="0.59"/>
<stop offset="1" stop-opacity="0.13"/>
</linearGradient>
<linearGradient id="paint6_linear_135_4596" x1="7.86805e-07" y1="46" x2="36" y2="46" gradientUnits="userSpaceOnUse">
<stop stop-opacity="0.12"/>
<stop offset="1" stop-color="#0B0A0A"/>
</linearGradient>
<linearGradient id="paint7_linear_135_4596" x1="171" y1="28" x2="171" y2="64" gradientUnits="userSpaceOnUse">
<stop stop-opacity="0.12"/>
<stop offset="1" stop-color="#0B0A0A"/>
</linearGradient>
<clipPath id="clip0_135_4596">
<rect width="189" height="42" fill="white" transform="matrix(-1 0 0 -1 189 70)"/>
</clipPath>
<clipPath id="clip1_135_4596">
<rect width="189" height="189" fill="white" transform="matrix(-1 0 0 -1 189 217)"/>
</clipPath>
<clipPath id="clip2_135_4596">
<rect width="64" height="64" fill="white" transform="matrix(-1 0 0 -1 161 120)"/>
</clipPath>
<clipPath id="clip3_135_4596">
<rect width="64" height="64" fill="white" transform="matrix(-1 0 0 -1 92 120)"/>
</clipPath>
</defs>
</svg>
