<svg width="189" height="182" viewBox="0 0 189 182" fill="none" xmlns="http://www.w3.org/2000/svg">
<g clip-path="url(#clip0_137_5919)">
<g clip-path="url(#clip1_137_5919)">
<path fill-rule="evenodd" clip-rule="evenodd" d="M36 194L153 194L189 158L189 41.0001L168.291 33.0352L189 41L153 5.00008L36 5.00006L0 41.0001L1.52588e-05 158L36 194Z" fill="#FF1428" fill-opacity="0.8"/>
<g style="mix-blend-mode:luminosity">
<path fill-rule="evenodd" clip-rule="evenodd" d="M153 194L94.5 99.5001L189 158L189 41L94.5 99.5001L153 5.00002L36 5L94.5 99.5001L0 41L0 158L94.5 99.5001L36 194L153 194Z" fill="url(#paint0_radial_137_5919)" fill-opacity="0.05"/>
<path d="M36 5L153 5.00001L164 30L25 30L36 5Z" fill="url(#paint1_linear_137_5919)" fill-opacity="0.51"/>
<path d="M189 41L189 158L164 169L164 30.0001L189 41Z" fill="url(#paint2_linear_137_5919)" fill-opacity="0.51"/>
<path d="M4.80827e-07 158L5.59506e-06 41L25 30L25 169L4.80827e-07 158Z" fill="url(#paint3_linear_137_5919)" fill-opacity="0.51"/>
<path fill-rule="evenodd" clip-rule="evenodd" d="M164 169L25 169L25 30.0001L164 30.0001L164 169ZM164 169L176 150L176 49.0001L164 30.0001L145 18.0001L44 18.0001L25 30.0001L13 49.0001L13 150L25 169L44 181L145 181L164 169Z" fill="black" fill-opacity="0.05"/>
<path d="M164 30.0001L94.5 30.0001L94.5 99.5001L164 99.5001L164 30.0001Z" fill="url(#paint4_linear_137_5919)"/>
<path d="M94.5 99.5001L94.5 30.0001L25 30.0001L25 99.5L94.5 99.5001Z" fill="url(#paint5_linear_137_5919)"/>
<path fill-rule="evenodd" clip-rule="evenodd" d="M94 169H95L95 100L164 100V99.0001L95 99.0001V30.0001H94V99.0001H25V100H94L94 169Z" fill="black" fill-opacity="0.1"/>
<path d="M36 5L0 41L25 30L36 5Z" fill="url(#paint6_linear_137_5919)" fill-opacity="0.33"/>
<path d="M189 41L153 5L164 30L189 41Z" fill="url(#paint7_linear_137_5919)" fill-opacity="0.33"/>
</g>
<g clip-path="url(#clip2_137_5919)">
<path d="M125.751 37.9766C125.751 38.1396 125.72 38.2925 125.657 38.4353C125.597 38.5782 125.513 38.7032 125.406 38.8103C125.299 38.9175 125.173 39.0023 125.028 39.0648C124.885 39.1251 124.732 39.1552 124.569 39.1552L123.481 39.1552L123.481 41.0001L123.049 41.0001L123.049 36.1987L124.569 36.1987C124.732 36.1987 124.885 36.23 125.028 36.2925C125.173 36.3527 125.299 36.4364 125.406 36.5436C125.513 36.6507 125.597 36.7768 125.657 36.9219C125.72 37.0648 125.751 37.2177 125.751 37.3806L125.751 37.9766ZM125.319 37.3806C125.319 37.2735 125.299 37.1742 125.259 37.0827C125.219 36.9889 125.163 36.9074 125.092 36.8382C125.022 36.7668 124.941 36.711 124.847 36.6708C124.756 36.6306 124.656 36.6106 124.549 36.6106L123.481 36.6106L123.481 38.7434L124.549 38.7434C124.656 38.7434 124.756 38.7233 124.847 38.6831C124.941 38.6429 125.022 38.5882 125.092 38.519C125.163 38.4498 125.219 38.3695 125.259 38.278C125.299 38.1842 125.319 38.0838 125.319 37.9766L125.319 37.3806ZM128.594 41.0001L128.366 40.6585C128.272 40.7813 128.155 40.8806 128.015 40.9565C127.874 41.0302 127.72 41.067 127.552 41.067L127.449 41.067C127.31 41.067 127.18 41.0414 127.057 40.99C126.934 40.9364 126.827 40.8639 126.735 40.7724C126.644 40.6809 126.571 40.5737 126.518 40.451C126.467 40.3282 126.441 40.1976 126.441 40.0592L126.441 40.0257C126.441 39.8873 126.467 39.7568 126.518 39.634C126.571 39.5112 126.644 39.4041 126.735 39.3126C126.827 39.221 126.934 39.1496 127.057 39.0983C127.18 39.0447 127.31 39.0179 127.449 39.0179L128.319 39.0179L128.319 38.4889C128.319 38.4063 128.304 38.3293 128.272 38.2579C128.241 38.1842 128.199 38.1206 128.145 38.067C128.092 38.0135 128.028 37.971 127.954 37.9398C127.883 37.9085 127.806 37.8929 127.723 37.8929L127.482 37.8929C127.4 37.8929 127.321 37.9085 127.248 37.9398C127.176 37.971 127.114 38.0135 127.06 38.067C127.007 38.1206 126.964 38.1842 126.933 38.2579C126.902 38.3293 126.886 38.4063 126.886 38.4889L126.886 38.6128L126.474 38.5458L126.474 38.5123C126.474 38.3739 126.5 38.2434 126.551 38.1206C126.605 37.9978 126.677 37.8907 126.769 37.7992C126.86 37.7077 126.968 37.6362 127.09 37.5849C127.213 37.5313 127.344 37.5045 127.482 37.5045L127.723 37.5045C127.862 37.5045 127.992 37.5313 128.115 37.5849C128.238 37.6362 128.345 37.7077 128.436 37.7992C128.528 37.8907 128.599 37.9978 128.651 38.1206C128.704 38.2434 128.731 38.3739 128.731 38.5123L128.731 41.0001L128.594 41.0001ZM128.319 39.3393L127.449 39.3393C127.366 39.3393 127.288 39.355 127.214 39.3862C127.143 39.4175 127.08 39.461 127.027 39.5168C126.973 39.5704 126.931 39.634 126.9 39.7077C126.868 39.7791 126.853 39.8561 126.853 39.9387L126.853 40.0827C126.853 40.1652 126.868 40.2434 126.9 40.317C126.931 40.3885 126.973 40.451 127.027 40.5045C127.08 40.5581 127.143 40.6005 127.214 40.6318C127.288 40.663 127.366 40.6786 127.449 40.6786L127.723 40.6786C127.806 40.6786 127.883 40.663 127.954 40.6318C128.028 40.6005 128.092 40.5581 128.145 40.5045C128.199 40.451 128.241 40.3885 128.272 40.317C128.304 40.2434 128.319 40.1652 128.319 40.0827L128.319 39.3393ZM131.912 40.1295C131.912 40.2679 131.884 40.3952 131.828 40.5112C131.772 40.6251 131.696 40.7233 131.6 40.8059C131.504 40.8885 131.393 40.9532 131.266 41.0001C131.141 41.0447 131.009 41.067 130.871 41.067L130.596 41.067C130.458 41.067 130.325 41.0414 130.198 40.99C130.073 40.9364 129.962 40.8639 129.866 40.7724C129.772 40.6809 129.696 40.5737 129.638 40.451C129.583 40.3282 129.555 40.1976 129.555 40.0592L129.555 39.9219L129.967 39.855L129.967 40.0827C129.967 40.1652 129.983 40.2434 130.017 40.317C130.052 40.3885 130.099 40.451 130.157 40.5045C130.215 40.5581 130.282 40.6005 130.358 40.6318C130.434 40.663 130.513 40.6786 130.596 40.6786L130.871 40.6786C130.953 40.6786 131.032 40.6664 131.108 40.6418C131.184 40.6172 131.251 40.5827 131.309 40.538C131.369 40.4911 131.416 40.4353 131.45 40.3706C131.485 40.3059 131.503 40.2322 131.503 40.1496C131.503 40.0268 131.477 39.9264 131.423 39.8483C131.369 39.7702 131.298 39.7054 131.209 39.6541C131.122 39.6005 131.021 39.557 130.907 39.5235C130.796 39.4878 130.681 39.4532 130.562 39.4197C130.444 39.384 130.328 39.3438 130.214 39.2992C130.103 39.2545 130.002 39.1965 129.913 39.1251C129.826 39.0514 129.756 38.9599 129.702 38.8505C129.648 38.7411 129.622 38.605 129.622 38.442C129.622 38.3036 129.648 38.1775 129.702 38.0637C129.756 37.9476 129.828 37.8483 129.92 37.7657C130.011 37.6831 130.117 37.6195 130.238 37.5748C130.36 37.528 130.491 37.5045 130.629 37.5045L130.871 37.5045C131.009 37.5045 131.14 37.5313 131.262 37.5849C131.385 37.6362 131.492 37.7077 131.584 37.7992C131.675 37.8907 131.747 37.9978 131.798 38.1206C131.852 38.2434 131.878 38.3739 131.878 38.5123L131.878 38.5257L131.467 38.5927L131.467 38.4889C131.467 38.4063 131.451 38.3293 131.42 38.2579C131.388 38.1842 131.346 38.1206 131.292 38.067C131.239 38.0135 131.175 37.971 131.102 37.9398C131.03 37.9085 130.953 37.8929 130.871 37.8929L130.629 37.8929C130.547 37.8929 130.469 37.9052 130.395 37.9297C130.324 37.9543 130.261 37.99 130.208 38.0369C130.154 38.0815 130.112 38.1362 130.08 38.201C130.049 38.2657 130.033 38.3393 130.033 38.4219C130.033 38.5402 130.06 38.6373 130.114 38.7132C130.167 38.7869 130.238 38.8494 130.325 38.9007C130.414 38.9521 130.515 38.9956 130.626 39.0313C130.74 39.0648 130.855 39.1005 130.971 39.1385C131.089 39.1742 131.204 39.2155 131.316 39.2623C131.43 39.3092 131.53 39.3695 131.617 39.4431C131.706 39.5168 131.778 39.6094 131.831 39.721C131.885 39.8304 131.912 39.9666 131.912 40.1295ZM133.951 41.0001C133.826 41.0001 133.708 40.9766 133.596 40.9297C133.487 40.8829 133.391 40.8181 133.308 40.7356C133.228 40.653 133.163 40.557 133.114 40.4476C133.067 40.3382 133.044 40.221 133.044 40.096L133.044 37.9632L132.427 37.9632L132.427 37.5715L133.044 37.5715L133.044 36.7478L133.455 36.6809L133.455 37.5715L134.326 37.5715L134.326 37.9632L133.455 37.9632L133.455 40.1161C133.455 40.1853 133.468 40.2501 133.492 40.3103C133.519 40.3684 133.555 40.4197 133.599 40.4643C133.644 40.509 133.696 40.5447 133.757 40.5715C133.817 40.596 133.882 40.6083 133.951 40.6083L134.326 40.6083L134.326 41.0001L133.951 41.0001Z" fill="#FDCED2"/>
<path d="M154.112 55.1809C153.949 55.1809 153.796 55.1474 153.653 55.0804C153.51 55.0157 153.385 54.9275 153.278 54.8159C153.171 54.7065 153.086 54.5782 153.023 54.4309C152.963 54.2858 152.933 54.1318 152.933 53.9688L152.933 53.6239C152.933 53.461 152.963 53.3059 153.023 53.1585C153.086 53.0135 153.171 52.8851 153.278 52.7735C153.385 52.6641 153.51 52.576 153.653 52.509C153.796 52.4443 153.949 52.4119 154.112 52.4119L154.302 52.4119L154.373 52.8438L154.112 52.8438C154.004 52.8438 153.904 52.865 153.81 52.9074C153.719 52.9521 153.637 53.0112 153.566 53.0849C153.497 53.1585 153.442 53.2434 153.402 53.3393C153.362 53.4376 153.342 53.5402 153.342 53.6474L153.342 53.9487C153.342 54.0559 153.362 54.1574 153.402 54.2534C153.442 54.3494 153.497 54.4342 153.566 54.5079C153.637 54.5815 153.719 54.6396 153.81 54.682C153.904 54.7266 154.004 54.7489 154.112 54.7489L154.256 54.7489C154.421 54.7489 154.558 54.7166 154.667 54.6518C154.777 54.5871 154.869 54.5012 154.945 54.394C155.023 54.2869 155.089 54.1652 155.143 54.0291C155.196 53.8952 155.25 53.7568 155.304 53.6139C155.357 53.471 155.416 53.3315 155.481 53.1954C155.546 53.0614 155.626 52.9409 155.722 52.8338C155.82 52.7266 155.94 52.6407 156.08 52.576C156.221 52.5112 156.394 52.4789 156.599 52.4789L156.69 52.4789C156.853 52.4789 157.006 52.509 157.148 52.5693C157.291 52.6318 157.416 52.7166 157.523 52.8237C157.631 52.9309 157.714 53.0559 157.775 53.1987C157.837 53.3438 157.868 53.4978 157.868 53.6608L157.868 53.9688C157.868 54.1318 157.837 54.2847 157.775 54.4275C157.714 54.5704 157.631 54.6954 157.523 54.8025C157.416 54.9097 157.291 54.9934 157.148 55.0536C157.006 55.1161 156.853 55.1474 156.69 55.1474L156.566 55.1474L156.496 54.7155L156.69 54.7155C156.797 54.7155 156.896 54.6954 156.988 54.6552C157.081 54.615 157.163 54.5603 157.232 54.4911C157.301 54.4219 157.356 54.3405 157.396 54.2467C157.436 54.1552 157.456 54.0559 157.456 53.9487L157.456 53.6809C157.456 53.5737 157.436 53.4733 157.396 53.3795C157.356 53.288 157.301 53.2065 157.232 53.1351C157.163 53.0659 157.081 53.0112 156.988 52.971C156.896 52.9309 156.797 52.9108 156.69 52.9108L156.599 52.9108C156.445 52.9108 156.316 52.9431 156.211 53.0079C156.106 53.0726 156.016 53.1585 155.94 53.2657C155.866 53.3728 155.801 53.4934 155.746 53.6273C155.692 53.7635 155.636 53.903 155.578 54.0458C155.522 54.1887 155.46 54.3271 155.391 54.461C155.324 54.5972 155.24 54.7188 155.14 54.826C155.041 54.9331 154.921 55.019 154.778 55.0838C154.635 55.1485 154.461 55.1809 154.256 55.1809L154.112 55.1809ZM153 58.1273L153.348 57.8996C153.221 57.8059 153.119 57.6887 153.044 57.5481C152.97 57.4074 152.933 57.2534 152.933 57.086L152.933 56.9822C152.933 56.8438 152.959 56.7132 153.01 56.5905C153.064 56.4677 153.136 56.3606 153.228 56.269C153.319 56.1775 153.426 56.105 153.549 56.0514C153.672 56.0001 153.802 55.9744 153.941 55.9744L156.429 55.9744L156.429 56.3862L153.917 56.3862C153.835 56.3862 153.757 56.4018 153.683 56.4331C153.612 56.4643 153.549 56.5068 153.496 56.5603C153.442 56.6139 153.4 56.6764 153.368 56.7478C153.337 56.8215 153.321 56.8996 153.321 56.9822L153.321 57.2568C153.321 57.3393 153.337 57.4164 153.368 57.4878C153.4 57.5614 153.442 57.6251 153.496 57.6786C153.549 57.7322 153.612 57.7746 153.683 57.8059C153.757 57.8371 153.835 57.8527 153.917 57.8527L156.429 57.8527L156.429 58.2646L153 58.2646L153 58.1273ZM153 60.9666L155.511 60.9666C155.594 60.9666 155.671 60.951 155.742 60.9197C155.816 60.8885 155.879 60.846 155.933 60.7925C155.987 60.7389 156.029 60.6753 156.06 60.6016C156.092 60.5302 156.107 60.4532 156.107 60.3706L156.107 60.096C156.107 60.0135 156.092 59.9353 156.06 59.8617C156.029 59.7902 155.987 59.7277 155.933 59.6742C155.879 59.6206 155.816 59.5782 155.742 59.5469C155.671 59.5157 155.594 59.5001 155.511 59.5001L153 59.5001L153 59.0882L156.429 59.0882L156.429 59.2255L156.08 59.4498C156.208 59.5436 156.308 59.6608 156.382 59.8014C156.458 59.9443 156.496 60.0994 156.496 60.2668L156.496 60.3706C156.496 60.509 156.469 60.6396 156.415 60.7623C156.364 60.8851 156.292 60.9922 156.201 61.0838C156.109 61.1753 156.002 61.2467 155.879 61.2981C155.757 61.3516 155.626 61.3784 155.488 61.3784L153 61.3784L153 60.9666ZM157.41 63.3806C157.41 63.3114 157.396 63.2467 157.369 63.1864C157.345 63.1284 157.31 63.0771 157.266 63.0324C157.221 62.9878 157.169 62.9521 157.108 62.9253C157.048 62.9007 156.983 62.8885 156.914 62.8885L156.429 62.8885L156.429 63.6887L156.037 63.6887L156.037 62.8885L153 62.8885L153 62.4766L156.037 62.4766L156.037 61.8572L156.429 61.8572L156.429 62.4766L156.894 62.4766C157.019 62.4766 157.136 62.5001 157.246 62.5469C157.357 62.5938 157.454 62.6585 157.537 62.7411C157.619 62.8237 157.684 62.9197 157.731 63.0291C157.778 63.1385 157.801 63.2556 157.801 63.3806L157.801 63.759L157.41 63.759L157.41 63.3806ZM153 64.3081L157.801 64.3081L157.801 64.7199L153 64.7199L153 64.3081ZM153.941 67.9074C153.802 67.9074 153.672 67.8806 153.549 67.8271C153.426 67.7757 153.319 67.7043 153.228 67.6128C153.136 67.5213 153.064 67.4141 153.01 67.2914C152.959 67.1686 152.933 67.038 152.933 66.8996L152.933 66.6251C152.933 66.4867 152.959 66.3561 153.01 66.2333C153.064 66.1106 153.136 66.0034 153.228 65.9119C153.319 65.8204 153.426 65.7478 153.549 65.6943C153.672 65.6429 153.802 65.6172 153.941 65.6172L155.488 65.6172C155.626 65.6172 155.757 65.6429 155.879 65.6943C156.002 65.7478 156.109 65.8204 156.201 65.9119C156.292 66.0034 156.364 66.1106 156.415 66.2333C156.469 66.3561 156.496 66.4867 156.496 66.6251L156.496 66.8996C156.496 67.038 156.469 67.1686 156.415 67.2914C156.364 67.4141 156.292 67.5213 156.201 67.6128C156.109 67.7043 156.002 67.7757 155.879 67.8271C155.757 67.8806 155.626 67.9074 155.488 67.9074L153.941 67.9074ZM155.511 67.4956C155.594 67.4956 155.671 67.48 155.742 67.4487C155.816 67.4175 155.879 67.3751 155.933 67.3215C155.987 67.2679 156.029 67.2043 156.06 67.1306C156.092 67.0592 156.107 66.9822 156.107 66.8996L156.107 66.6251C156.107 66.5425 156.092 66.4643 156.06 66.3907C156.029 66.3193 155.987 66.2568 155.933 66.2032C155.879 66.1496 155.816 66.1072 155.742 66.076C155.671 66.0447 155.594 66.0291 155.511 66.0291L153.917 66.0291C153.835 66.0291 153.757 66.0447 153.683 66.076C153.612 66.1072 153.549 66.1496 153.496 66.2032C153.442 66.2568 153.4 66.3193 153.368 66.3907C153.337 66.4643 153.321 66.5425 153.321 66.6251L153.321 66.8996C153.321 66.9822 153.337 67.0592 153.368 67.1306C153.4 67.2043 153.442 67.2679 153.496 67.3215C153.549 67.3751 153.612 67.4175 153.683 67.4487C153.757 67.48 153.835 67.4956 153.917 67.4956L155.511 67.4956ZM153 71.6172L153 71.3929L155.585 70.5893L155.762 70.576L155.585 70.5626L153 69.759L153 69.5313L156.429 68.3862L156.429 68.8047L153.837 69.6217L153.66 69.6351L153.837 69.6485L156.429 70.4521L156.429 70.6998L153.837 71.5001L153.66 71.5135L153.837 71.5268L156.429 72.3438L156.429 72.7623L153 71.6172ZM153.941 75.5347C153.802 75.5347 153.672 75.5079 153.549 75.4543C153.426 75.403 153.319 75.3315 153.228 75.24C153.136 75.1485 153.064 75.0414 153.01 74.9186C152.959 74.7958 152.933 74.6652 152.933 74.5268L152.933 74.2523C152.933 74.1139 152.959 73.9833 153.01 73.8606C153.064 73.7378 153.136 73.6306 153.228 73.5391C153.319 73.4476 153.426 73.3751 153.549 73.3215C153.672 73.2702 153.802 73.2445 153.941 73.2445L155.488 73.2445C155.626 73.2445 155.757 73.2702 155.879 73.3215C156.002 73.3751 156.109 73.4476 156.201 73.5391C156.292 73.6306 156.364 73.7378 156.415 73.8606C156.469 73.9833 156.496 74.1139 156.496 74.2523L156.496 74.5268C156.496 74.6652 156.469 74.7958 156.415 74.9186C156.364 75.0414 156.292 75.1485 156.201 75.24C156.109 75.3315 156.002 75.403 155.879 75.4543C155.757 75.5079 155.626 75.5347 155.488 75.5347L154.681 75.5347L154.681 73.6563L153.917 73.6563C153.835 73.6563 153.757 73.6719 153.683 73.7032C153.612 73.7344 153.549 73.7768 153.496 73.8304C153.442 73.884 153.4 73.9465 153.368 74.0179C153.337 74.0916 153.321 74.1697 153.321 74.2523L153.321 74.5268C153.321 74.6094 153.337 74.6864 153.368 74.7579C153.4 74.8315 153.442 74.8952 153.496 74.9487C153.549 75.0023 153.612 75.0447 153.683 75.076C153.757 75.1072 153.835 75.1228 153.917 75.1228L154.145 75.1228L154.078 75.5347L153.941 75.5347ZM155.511 75.1228C155.594 75.1228 155.671 75.1072 155.742 75.076C155.816 75.0447 155.879 75.0023 155.933 74.9487C155.987 74.8952 156.029 74.8315 156.06 74.7579C156.092 74.6864 156.107 74.6094 156.107 74.5268L156.107 74.2523C156.107 74.1697 156.092 74.0916 156.06 74.0179C156.029 73.9465 155.987 73.884 155.933 73.8304C155.879 73.7768 155.816 73.7344 155.742 73.7032C155.671 73.6719 155.594 73.6563 155.511 73.6563L155.002 73.6563L155.002 75.1228L155.511 75.1228ZM156.037 77.3661C156.037 77.2835 156.021 77.2054 155.99 77.1318C155.959 77.0603 155.916 76.9978 155.863 76.9443C155.809 76.8907 155.746 76.8483 155.672 76.817C155.6 76.7858 155.523 76.7702 155.441 76.7702L153 76.7702L153 76.3583L156.429 76.3583L156.429 76.4956L156.08 76.7199C156.208 76.8137 156.308 76.9309 156.382 77.0715C156.458 77.2143 156.496 77.3695 156.496 77.5369L156.496 77.778L156.037 77.778L156.037 77.3661Z" fill="#FDCED2"/>
<g opacity="0.7">
<path d="M102.703 71.1887L105 71.1887L105 71.6206L102.71 71.6206L100.199 72.8628L100.199 72.3974L102.194 71.4097L100.199 70.4219L100.199 69.9565L102.703 71.1887ZM105 67.4621L104.652 67.6898C104.779 67.7835 104.881 67.9007 104.956 68.0414C105.03 68.182 105.067 68.336 105.067 68.5034L105.067 68.6072C105.067 68.7456 105.041 68.8762 104.99 68.9989C104.936 69.1217 104.864 69.2289 104.772 69.3204C104.681 69.4119 104.574 69.4844 104.451 69.538C104.328 69.5893 104.198 69.615 104.059 69.615L101.571 69.615L101.571 69.2032L104.083 69.2032C104.165 69.2032 104.243 69.1876 104.317 69.1563C104.388 69.1251 104.451 69.0827 104.504 69.0291C104.558 68.9755 104.6 68.913 104.632 68.8416C104.663 68.7679 104.679 68.6898 104.679 68.6072L104.679 68.3327C104.679 68.2501 104.663 68.1731 104.632 68.1016C104.6 68.028 104.558 67.9643 104.504 67.9108C104.451 67.8572 104.388 67.8148 104.317 67.7835C104.243 67.7523 104.165 67.7367 104.083 67.7367L101.571 67.7367L101.571 67.3248L105 67.3248L105 67.4621ZM104.059 64.211C104.198 64.211 104.328 64.2378 104.451 64.2914C104.574 64.3427 104.681 64.4141 104.772 64.5056C104.864 64.5972 104.936 64.7043 104.99 64.8271C105.041 64.9498 105.067 65.0804 105.067 65.2188L105.067 65.4934C105.067 65.6318 105.041 65.7623 104.99 65.8851C104.936 66.0079 104.864 66.115 104.772 66.2065C104.681 66.2981 104.574 66.3706 104.451 66.4242C104.328 66.4755 104.198 66.5012 104.059 66.5012L102.512 66.5012C102.374 66.5012 102.243 66.4755 102.121 66.4242C101.998 66.3706 101.891 66.2981 101.799 66.2065C101.708 66.115 101.636 66.0079 101.585 65.8851C101.531 65.7623 101.504 65.6318 101.504 65.4934L101.504 65.2188C101.504 65.0804 101.531 64.9498 101.585 64.8271C101.636 64.7043 101.708 64.5972 101.799 64.5056C101.891 64.4141 101.998 64.3427 102.121 64.2914C102.243 64.2378 102.374 64.211 102.512 64.211L102.65 64.211L102.717 64.6228L102.489 64.6228C102.406 64.6228 102.329 64.6385 102.258 64.6697C102.184 64.701 102.121 64.7434 102.067 64.7969C102.013 64.8505 101.971 64.9141 101.94 64.9878C101.908 65.0592 101.893 65.1362 101.893 65.2188L101.893 65.4934C101.893 65.576 101.908 65.6541 101.94 65.7277C101.971 65.7992 102.013 65.8617 102.067 65.9152C102.121 65.9688 102.184 66.0112 102.258 66.0425C102.329 66.0737 102.406 66.0893 102.489 66.0893L104.083 66.0893C104.165 66.0893 104.243 66.0737 104.317 66.0425C104.388 66.0112 104.451 65.9688 104.504 65.9152C104.558 65.8617 104.6 65.7992 104.632 65.7277C104.663 65.6541 104.679 65.576 104.679 65.4934L104.679 65.2188C104.679 65.1362 104.663 65.0592 104.632 64.9878C104.6 64.9141 104.558 64.8505 104.504 64.7969C104.451 64.7434 104.388 64.701 104.317 64.6697C104.243 64.6385 104.165 64.6228 104.083 64.6228L103.855 64.6228L103.922 64.211L104.059 64.211ZM104.059 61.0972C104.198 61.0972 104.328 61.1239 104.451 61.1775C104.574 61.2289 104.681 61.3003 104.772 61.3918C104.864 61.4833 104.936 61.5905 104.99 61.7132C105.041 61.836 105.067 61.9666 105.067 62.105L105.067 62.3795C105.067 62.5179 105.041 62.6485 104.99 62.7713C104.936 62.894 104.864 63.0012 104.772 63.0927C104.681 63.1842 104.574 63.2568 104.451 63.3103C104.328 63.3617 104.198 63.3873 104.059 63.3873L102.512 63.3873C102.374 63.3873 102.243 63.3617 102.121 63.3103C101.998 63.2568 101.891 63.1842 101.799 63.0927C101.708 63.0012 101.636 62.894 101.585 62.7713C101.531 62.6485 101.504 62.5179 101.504 62.3795L101.504 62.105C101.504 61.9666 101.531 61.836 101.585 61.7132C101.636 61.5905 101.708 61.4833 101.799 61.3918C101.891 61.3003 101.998 61.2289 102.121 61.1775C102.243 61.1239 102.374 61.0972 102.512 61.0972L102.65 61.0972L102.717 61.509L102.489 61.509C102.406 61.509 102.329 61.5246 102.258 61.5559C102.184 61.5871 102.121 61.6295 102.067 61.6831C102.013 61.7367 101.971 61.8003 101.94 61.8739C101.908 61.9454 101.893 62.0224 101.893 62.105L101.893 62.3795C101.893 62.4621 101.908 62.5402 101.94 62.6139C101.971 62.6853 102.013 62.7478 102.067 62.8014C102.121 62.855 102.184 62.8974 102.258 62.9286C102.329 62.9599 102.406 62.9755 102.489 62.9755L104.083 62.9755C104.165 62.9755 104.243 62.9599 104.317 62.9286C104.388 62.8974 104.451 62.855 104.504 62.8014C104.558 62.7478 104.6 62.6853 104.632 62.6139C104.663 62.5402 104.679 62.4621 104.679 62.3795L104.679 62.105C104.679 62.0224 104.663 61.9454 104.632 61.8739C104.6 61.8003 104.558 61.7367 104.504 61.6831C104.451 61.6295 104.388 61.5871 104.317 61.5559C104.243 61.5246 104.165 61.509 104.083 61.509L103.855 61.509L103.922 61.0972L104.059 61.0972ZM105 58.1206L104.658 58.3483C104.781 58.442 104.881 58.5592 104.956 58.6998C105.03 58.8405 105.067 58.9945 105.067 59.1619L105.067 59.2657C105.067 59.4041 105.041 59.5347 104.99 59.6574C104.936 59.7802 104.864 59.8873 104.772 59.9789C104.681 60.0704 104.574 60.1429 104.451 60.1965C104.328 60.2478 104.198 60.2735 104.059 60.2735L104.026 60.2735C103.887 60.2735 103.757 60.2478 103.634 60.1965C103.511 60.1429 103.404 60.0704 103.313 59.9789C103.221 59.8873 103.15 59.7802 103.098 59.6574C103.045 59.5347 103.018 59.4041 103.018 59.2657L103.018 58.3952L102.489 58.3952C102.406 58.3952 102.329 58.4108 102.258 58.442C102.184 58.4733 102.121 58.5157 102.067 58.5693C102.013 58.6228 101.971 58.6864 101.94 58.7601C101.908 58.8315 101.893 58.9085 101.893 58.9911L101.893 59.2322C101.893 59.3148 101.908 59.3929 101.94 59.4666C101.971 59.538 102.013 59.6005 102.067 59.6541C102.121 59.7077 102.184 59.7501 102.258 59.7813C102.329 59.8126 102.406 59.8282 102.489 59.8282L102.613 59.8282L102.546 60.24L102.512 60.24C102.374 60.24 102.243 60.2143 102.121 60.163C101.998 60.1094 101.891 60.0369 101.799 59.9454C101.708 59.8539 101.636 59.7467 101.585 59.6239C101.531 59.5012 101.504 59.3706 101.504 59.2322L101.504 58.9911C101.504 58.8527 101.531 58.7222 101.585 58.5994C101.636 58.4766 101.708 58.3695 101.799 58.278C101.891 58.1864 101.998 58.115 102.121 58.0637C102.243 58.0101 102.374 57.9833 102.512 57.9833L105 57.9833L105 58.1206ZM103.339 58.3952L103.339 59.2657C103.339 59.3483 103.355 59.4264 103.386 59.5001C103.417 59.5715 103.461 59.634 103.517 59.6876C103.57 59.7411 103.634 59.7835 103.708 59.8148C103.779 59.846 103.856 59.8617 103.939 59.8617L104.083 59.8617C104.165 59.8617 104.243 59.846 104.317 59.8148C104.388 59.7835 104.451 59.7411 104.504 59.6876C104.558 59.634 104.6 59.5715 104.632 59.5001C104.663 59.4264 104.679 59.3483 104.679 59.2657L104.679 58.9911C104.679 58.9085 104.663 58.8315 104.632 58.7601C104.6 58.6864 104.558 58.6228 104.504 58.5693C104.451 58.5157 104.388 58.4733 104.317 58.442C104.243 58.4108 104.165 58.3952 104.083 58.3952L103.339 58.3952Z" fill="#FDCED2"/>
</g>
<g opacity="0.7">
<path d="M130.819 90.1117C130.819 89.9487 130.85 89.7958 130.913 89.653C130.973 89.5101 131.057 89.3851 131.164 89.278C131.271 89.1708 131.396 89.086 131.539 89.0235C131.682 88.9632 131.835 88.9331 131.998 88.9331H132.339C132.502 88.9331 132.656 88.9632 132.801 89.0235C132.944 89.086 133.069 89.1708 133.176 89.278C133.283 89.3851 133.368 89.5101 133.431 89.653C133.491 89.7958 133.521 89.9487 133.521 90.1117V92.6898C133.521 92.8527 133.491 93.0056 133.431 93.1485C133.368 93.2914 133.283 93.4164 133.176 93.5235C133.069 93.6306 132.944 93.7143 132.801 93.7746C132.656 93.8371 132.502 93.8684 132.339 93.8684H131.998C131.835 93.8684 131.682 93.8371 131.539 93.7746C131.396 93.7143 131.271 93.6306 131.164 93.5235C131.057 93.4164 130.973 93.2914 130.913 93.1485C130.85 93.0056 130.819 92.8527 130.819 92.6898V90.1117ZM131.251 92.6898C131.251 92.7969 131.271 92.8963 131.311 92.9878C131.352 93.0815 131.406 93.163 131.475 93.2322C131.545 93.3014 131.626 93.3561 131.72 93.3963C131.811 93.4364 131.911 93.4565 132.018 93.4565H132.319C132.426 93.4565 132.527 93.4364 132.621 93.3963C132.712 93.3561 132.794 93.3014 132.865 93.2322C132.934 93.163 132.989 93.0815 133.029 92.9878C133.069 92.8963 133.089 92.7969 133.089 92.6898V90.1117C133.089 90.0045 133.069 89.9041 133.029 89.8103C132.989 89.7188 132.934 89.6373 132.865 89.5659C132.794 89.4967 132.712 89.442 132.621 89.4018C132.527 89.3617 132.426 89.3416 132.319 89.3416H132.018C131.911 89.3416 131.811 89.3617 131.72 89.4018C131.626 89.442 131.545 89.4967 131.475 89.5659C131.406 89.6373 131.352 89.7188 131.311 89.8103C131.271 89.9041 131.251 90.0045 131.251 90.1117V92.6898ZM127.039 89.0001H127.263L128.067 91.5849L128.08 91.7623L128.094 91.5849L128.897 89.0001H129.125L130.27 92.4286H129.852L129.035 89.8371L129.021 89.6597L129.008 89.8371L128.204 92.4286H127.956L127.156 89.8371L127.143 89.6597L127.129 89.8371L126.312 92.4286H125.894L127.039 89.0001ZM125.275 89.0001V93.8014H124.863V89.0001H125.275Z" fill="#FDCED2"/>
</g>
<g opacity="0.3">
<path fill-rule="evenodd" clip-rule="evenodd" d="M105.005 92.0626L103.293 90.3509C103.098 90.1559 102.782 90.1559 102.587 90.3509C102.392 90.5459 102.392 90.862 102.587 91.057L103.547 92.0177C102.513 92.0081 101.735 91.8154 101.275 91.3122C100.797 90.7882 100.611 90.3731 100.611 88.9994C100.611 88.7236 100.388 88.5001 100.112 88.5001C99.8364 88.5001 99.6128 88.7236 99.6128 88.9994C99.6128 90.5603 99.8537 91.2366 100.538 91.9858C101.179 92.6876 102.166 92.9744 103.349 93.0123L102.584 93.777C102.389 93.972 102.389 94.2882 102.584 94.4832C102.779 94.6782 103.095 94.6782 103.29 94.4832L105.005 92.7688C105.2 92.5738 105.2 92.2576 105.005 92.0626Z" fill="black"/>
<path fill-rule="evenodd" clip-rule="evenodd" d="M152.297 92.0626L154.009 90.3509C154.204 90.1559 154.52 90.1559 154.715 90.3509C154.911 90.5459 154.911 90.862 154.715 91.057L153.754 92.0177C154.789 92.0082 155.567 91.8155 156.027 91.3123C156.506 90.7883 156.692 90.3732 156.692 88.9995C156.692 88.7237 156.915 88.5001 157.191 88.5001C157.467 88.5001 157.691 88.7237 157.691 88.9995C157.691 90.5604 157.45 91.2366 156.765 91.9858C156.123 92.6877 155.137 92.9744 153.953 93.0124L154.718 93.777C154.913 93.972 154.913 94.2882 154.718 94.4832C154.523 94.6782 154.207 94.6782 154.012 94.4832L152.297 92.7688C152.102 92.5738 152.102 92.2576 152.297 92.0626Z" fill="black"/>
<path fill-rule="evenodd" clip-rule="evenodd" d="M152.299 38.0669L154.01 39.7786C154.205 39.9736 154.522 39.9736 154.717 39.7786C154.912 39.5836 154.912 39.2675 154.717 39.0725L153.756 38.1118C154.79 38.1214 155.568 38.3141 156.028 38.8173C156.506 39.3413 156.692 39.7564 156.692 41.1301C156.692 41.4059 156.915 41.6294 157.191 41.6294C157.467 41.6294 157.69 41.4059 157.69 41.1301C157.69 39.5692 157.45 38.893 156.765 38.1437C156.124 37.4419 155.137 37.1551 153.954 37.1172L154.719 36.3525C154.914 36.1575 154.914 35.8413 154.719 35.6463C154.524 35.4513 154.208 35.4513 154.013 35.6463L152.299 37.3607C152.104 37.5557 152.104 37.8719 152.299 38.0669Z" fill="black"/>
<path fill-rule="evenodd" clip-rule="evenodd" d="M105.006 38.0669L103.294 39.7786C103.099 39.9736 102.782 39.9736 102.587 39.7786C102.392 39.5836 102.392 39.2675 102.587 39.0725L103.548 38.1118C102.514 38.1214 101.735 38.314 101.275 38.8172C100.797 39.3413 100.611 39.7564 100.611 41.1301C100.611 41.4058 100.388 41.6294 100.112 41.6294C99.8358 41.6294 99.6122 41.4058 99.6122 41.1301C99.6122 39.5692 99.8531 38.8929 100.538 38.1437C101.179 37.4418 102.166 37.1551 103.35 37.1171L102.585 36.3525C102.389 36.1575 102.389 35.8413 102.585 35.6463C102.78 35.4513 103.096 35.4513 103.291 35.6463L105.006 37.3607C105.201 37.5557 105.201 37.8719 105.006 38.0669Z" fill="black"/>
</g>
</g>
<g clip-path="url(#clip3_137_5919)">
<g opacity="0.7">
<path d="M87.0234 57.7512C86.8605 57.7512 86.7076 57.7199 86.5647 57.6574C86.4219 57.5972 86.2969 57.5135 86.1897 57.4063C86.0826 57.2992 85.9978 57.1731 85.9353 57.028C85.875 56.8851 85.8449 56.7322 85.8449 56.5693L85.8449 55.4811L84 55.4811L84 55.0492L88.8013 55.0492L88.8013 56.5693C88.8013 56.7322 88.7701 56.8851 88.7076 57.028C88.6473 57.1731 88.5636 57.2992 88.4565 57.4063C88.3493 57.5135 88.2232 57.5972 88.0781 57.6574C87.9353 57.7199 87.7824 57.7512 87.6194 57.7512L87.0234 57.7512ZM87.6194 57.3193C87.7266 57.3193 87.8259 57.2992 87.9174 57.259C88.0112 57.2188 88.0926 57.163 88.1618 57.0916C88.2333 57.0224 88.2891 56.9409 88.3292 56.8472C88.3694 56.7556 88.3895 56.6563 88.3895 56.5492L88.3895 55.4811L86.2567 55.4811L86.2567 56.5492C86.2567 56.6563 86.2768 56.7556 86.317 56.8472C86.3571 56.9409 86.4118 57.0224 86.481 57.0916C86.5502 57.163 86.6306 57.2188 86.7221 57.259C86.8158 57.2992 86.9163 57.3193 87.0234 57.3193L87.6194 57.3193ZM87.0368 59.4487C87.0368 59.3661 87.0212 59.288 86.99 59.2143C86.9587 59.1429 86.9163 59.0804 86.8627 59.0268C86.8092 58.9733 86.7455 58.9309 86.6719 58.8996C86.6004 58.8684 86.5234 58.8527 86.4408 58.8527L84 58.8527L84 58.4409L87.4286 58.4409L87.4286 58.5782L87.0804 58.8025C87.2076 58.8963 87.308 59.0135 87.3817 59.1541C87.4576 59.2969 87.4955 59.4521 87.4955 59.6195L87.4955 59.8606L87.0368 59.8606L87.0368 59.4487ZM84.9408 62.6998C84.8025 62.6998 84.6719 62.6731 84.5491 62.6195C84.4263 62.5681 84.3192 62.4967 84.2277 62.4052C84.1362 62.3137 84.0636 62.2065 84.01 62.0838C83.9587 61.961 83.933 61.8304 83.933 61.692L83.933 61.4175C83.933 61.2791 83.9587 61.1485 84.01 61.0257C84.0636 60.903 84.1362 60.7958 84.2277 60.7043C84.3192 60.6128 84.4263 60.5402 84.5491 60.4867C84.6719 60.4353 84.8025 60.4097 84.9408 60.4097L86.4877 60.4097C86.6261 60.4097 86.7567 60.4353 86.8795 60.4867C87.0022 60.5402 87.1094 60.6128 87.2009 60.7043C87.2924 60.7958 87.3638 60.903 87.4152 61.0257C87.4687 61.1485 87.4955 61.2791 87.4955 61.4175L87.4955 61.692C87.4955 61.8304 87.4687 61.961 87.4152 62.0838C87.3638 62.2065 87.2924 62.3137 87.2009 62.4052C87.1094 62.4967 87.0022 62.5681 86.8795 62.6195C86.7567 62.6731 86.6261 62.6998 86.4877 62.6998L85.6808 62.6998L85.6808 60.8215L84.9174 60.8215C84.8348 60.8215 84.7567 60.8371 84.683 60.8684C84.6116 60.8996 84.5491 60.942 84.4955 60.9956C84.442 61.0492 84.3996 61.1117 84.3683 61.1831C84.3371 61.2568 84.3214 61.3349 84.3214 61.4175L84.3214 61.692C84.3214 61.7746 84.3371 61.8516 84.3683 61.9231C84.3996 61.9967 84.442 62.0603 84.4955 62.1139C84.5491 62.1675 84.6116 62.2099 84.683 62.2411C84.7567 62.2724 84.8348 62.288 84.9174 62.288L85.1451 62.288L85.0781 62.6998L84.9408 62.6998ZM86.5112 62.288C86.5937 62.288 86.6708 62.2724 86.7422 62.2411C86.8158 62.2099 86.8795 62.1675 86.933 62.1139C86.9866 62.0603 87.029 61.9967 87.0603 61.9231C87.0915 61.8516 87.1071 61.7746 87.1071 61.692L87.1071 61.4175C87.1071 61.3349 87.0915 61.2568 87.0603 61.1831C87.029 61.1117 86.9866 61.0492 86.933 60.9956C86.8795 60.942 86.8158 60.8996 86.7422 60.8684C86.6708 60.8371 86.5937 60.8215 86.5112 60.8215L86.0022 60.8215L86.0022 62.288L86.5112 62.288ZM84.8705 65.8806C84.7321 65.8806 84.6049 65.8527 84.4888 65.7969C84.375 65.7411 84.2768 65.6652 84.1942 65.5693C84.1116 65.4733 84.0469 65.3617 84 65.2344C83.9554 65.1094 83.933 64.9777 83.933 64.8393L83.933 64.5648C83.933 64.4264 83.9587 64.2936 84.01 64.1664C84.0636 64.0414 84.1362 63.9309 84.2277 63.8349C84.3192 63.7411 84.4263 63.6652 84.5491 63.6072C84.6719 63.5514 84.8025 63.5235 84.9408 63.5235L85.0781 63.5235L85.1451 63.9353L84.9174 63.9353C84.8348 63.9353 84.7567 63.9521 84.683 63.9856C84.6116 64.0213 84.5491 64.0681 84.4955 64.1262C84.442 64.1842 84.3996 64.2512 84.3683 64.3271C84.3371 64.403 84.3214 64.4822 84.3214 64.5648L84.3214 64.8393C84.3214 64.9219 84.3337 65.0012 84.3583 65.0771C84.3828 65.153 84.4174 65.2199 84.4621 65.278C84.5089 65.3382 84.5647 65.3851 84.6295 65.4186C84.6942 65.4543 84.7679 65.4722 84.8504 65.4722C84.9732 65.4722 85.0737 65.4454 85.1518 65.3918C85.2299 65.3382 85.2946 65.2668 85.346 65.1775C85.3996 65.0905 85.4431 64.99 85.4766 64.8762C85.5123 64.7646 85.5469 64.6496 85.5804 64.5313C85.6161 64.413 85.6562 64.2969 85.7009 64.1831C85.7455 64.0715 85.8036 63.971 85.875 63.8818C85.9487 63.7947 86.0402 63.7244 86.1496 63.6708C86.2589 63.6172 86.3951 63.5905 86.558 63.5905C86.6964 63.5905 86.8225 63.6172 86.9364 63.6708C87.0525 63.7244 87.1518 63.7969 87.2344 63.8885C87.317 63.98 87.3806 64.086 87.4252 64.2065C87.4721 64.3293 87.4955 64.4599 87.4955 64.5983L87.4955 64.8393C87.4955 64.9777 87.4687 65.1083 87.4152 65.2311C87.3638 65.3539 87.2924 65.461 87.2009 65.5525C87.1094 65.644 87.0022 65.7155 86.8795 65.7668C86.7567 65.8204 86.6261 65.8472 86.4877 65.8472L86.4743 65.8472L86.4074 65.4353L86.5112 65.4353C86.5937 65.4353 86.6708 65.4197 86.7422 65.3885C86.8158 65.3572 86.8795 65.3148 86.933 65.2612C86.9866 65.2077 87.029 65.144 87.0603 65.0704C87.0915 64.9989 87.1071 64.9219 87.1071 64.8393L87.1071 64.5983C87.1071 64.5157 87.0949 64.4376 87.0703 64.3639C87.0458 64.2925 87.01 64.23 86.9632 64.1764C86.9185 64.1228 86.8638 64.0804 86.7991 64.0492C86.7344 64.0179 86.6607 64.0023 86.5781 64.0023C86.4598 64.0023 86.3627 64.0291 86.2868 64.0827C86.2132 64.1362 86.1507 64.2065 86.0993 64.2936C86.048 64.3829 86.0045 64.4833 85.9687 64.5949C85.9353 64.7088 85.8996 64.8237 85.8616 64.9398C85.8259 65.0581 85.7846 65.1731 85.7377 65.2847C85.6908 65.3985 85.6306 65.4989 85.5569 65.586C85.4833 65.6753 85.3906 65.7467 85.279 65.8003C85.1696 65.8539 85.0335 65.8806 84.8705 65.8806ZM84.9408 68.961C84.8025 68.961 84.6719 68.9342 84.5491 68.8806C84.4263 68.8293 84.3192 68.7579 84.2277 68.6664C84.1362 68.5748 84.0636 68.4677 84.01 68.3449C83.9587 68.2222 83.933 68.0916 83.933 67.9532L83.933 67.6786C83.933 67.5402 83.9587 67.4097 84.01 67.2869C84.0636 67.1641 84.1362 67.057 84.2277 66.9655C84.3192 66.8739 84.4263 66.8014 84.5491 66.7478C84.6719 66.6965 84.8025 66.6708 84.9408 66.6708L86.4877 66.6708C86.6261 66.6708 86.7567 66.6965 86.8795 66.7478C87.0022 66.8014 87.1094 66.8739 87.2009 66.9655C87.2924 67.057 87.3638 67.1641 87.4152 67.2869C87.4687 67.4097 87.4955 67.5402 87.4955 67.6786L87.4955 67.9532C87.4955 68.0916 87.4687 68.2222 87.4152 68.3449C87.3638 68.4677 87.2924 68.5748 87.2009 68.6664C87.1094 68.7579 87.0022 68.8293 86.8795 68.8806C86.7567 68.9342 86.6261 68.961 86.4877 68.961L85.6808 68.961L85.6808 67.0826L84.9174 67.0826C84.8348 67.0826 84.7567 67.0983 84.683 67.1295C84.6116 67.1608 84.5491 67.2032 84.4955 67.2568C84.442 67.3103 84.3996 67.3728 84.3683 67.4443C84.3371 67.5179 84.3214 67.596 84.3214 67.6786L84.3214 67.9532C84.3214 68.0358 84.3371 68.1128 84.3683 68.1842C84.3996 68.2579 84.442 68.3215 84.4955 68.3751C84.5491 68.4286 84.6116 68.471 84.683 68.5023C84.7567 68.5335 84.8348 68.5492 84.9174 68.5492L85.1451 68.5492L85.0781 68.961L84.9408 68.961ZM86.5112 68.5492C86.5937 68.5492 86.6708 68.5335 86.7422 68.5023C86.8158 68.471 86.8795 68.4286 86.933 68.3751C86.9866 68.3215 87.029 68.2579 87.0603 68.1842C87.0915 68.1128 87.1071 68.0358 87.1071 67.9532L87.1071 67.6786C87.1071 67.596 87.0915 67.5179 87.0603 67.4443C87.029 67.3728 86.9866 67.3103 86.933 67.2568C86.8795 67.2032 86.8158 67.1608 86.7422 67.1295C86.6708 67.0983 86.5937 67.0826 86.5112 67.0826L86.0022 67.0826L86.0022 68.5492L86.5112 68.5492ZM84 71.663L86.5112 71.663C86.5937 71.663 86.6708 71.6474 86.7422 71.6161C86.8158 71.5849 86.8795 71.5425 86.933 71.4889C86.9866 71.4353 87.029 71.3717 87.0603 71.2981C87.0915 71.2266 87.1071 71.1496 87.1071 71.067L87.1071 70.7925C87.1071 70.7099 87.0915 70.6318 87.0603 70.5581C87.029 70.4867 86.9866 70.4242 86.933 70.3706C86.8795 70.317 86.8158 70.2746 86.7422 70.2434C86.6708 70.2121 86.5937 70.1965 86.5112 70.1965L84 70.1965L84 69.7847L87.4286 69.7847L87.4286 69.9219L87.0804 70.1463C87.2076 70.24 87.308 70.3572 87.3817 70.4978C87.4576 70.6407 87.4955 70.7958 87.4955 70.9632L87.4955 71.067C87.4955 71.2054 87.4687 71.336 87.4152 71.4588C87.3638 71.5815 87.2924 71.6887 87.2009 71.7802C87.1094 71.8717 87.0022 71.9431 86.8795 71.9945C86.7567 72.0481 86.6261 72.0748 86.4877 72.0748L84 72.0748L84 71.663ZM84 74.1474C84 74.0224 84.0234 73.9041 84.0703 73.7925C84.1172 73.6831 84.1819 73.5871 84.2645 73.5045C84.3471 73.4242 84.4431 73.3594 84.5525 73.3103C84.6618 73.2635 84.779 73.24 84.904 73.24L87.0368 73.24L87.0368 72.6239L87.4286 72.6239L87.4286 73.24L88.2522 73.24L88.3192 73.6518L87.4286 73.6518L87.4286 74.5224L87.0368 74.5224L87.0368 73.6518L84.8839 73.6518C84.8147 73.6518 84.75 73.6641 84.6897 73.6887C84.6317 73.7155 84.5804 73.7512 84.5357 73.7958C84.4911 73.8405 84.4554 73.8929 84.4286 73.9532C84.404 74.0135 84.3917 74.0782 84.3917 74.1474L84.3917 74.5224L84 74.5224L84 74.1474Z" fill="#FDCED2"/>
</g>
<g opacity="0.7">
<path d="M64.298 90.1117C64.298 89.9487 64.3292 89.7958 64.3917 89.653C64.452 89.5101 64.5357 89.3851 64.6429 89.278C64.75 89.1708 64.875 89.086 65.0179 89.0235C65.1607 88.9632 65.3136 88.9331 65.4766 88.9331L65.6138 88.9331C65.7768 88.9331 65.9308 88.9632 66.0759 89.0235C66.2187 89.086 66.3437 89.1708 66.4509 89.278C66.558 89.3851 66.6429 89.5101 66.7054 89.653C66.7656 89.7958 66.7958 89.9487 66.7958 90.1117L66.7958 90.3025L66.3638 90.3728L66.3638 90.1117C66.3638 90.0045 66.3437 89.9041 66.3036 89.8103C66.2634 89.7188 66.2087 89.6373 66.1395 89.5659C66.0681 89.4967 65.9866 89.442 65.8951 89.4018C65.8013 89.3617 65.7009 89.3416 65.5937 89.3416L65.4967 89.3416C65.3917 89.3416 65.2924 89.3617 65.1987 89.4018C65.1049 89.442 65.0234 89.4967 64.9542 89.5659C64.885 89.6373 64.8304 89.7188 64.7902 89.8103C64.75 89.9041 64.7299 90.0045 64.7299 90.1117L64.7299 93.8014L64.298 93.8014L64.298 90.1117ZM61.3214 89.0001L61.5491 89.3483C61.6429 89.221 61.76 89.1195 61.9007 89.0436C62.0413 88.9699 62.1953 88.9331 62.3627 88.9331L62.4665 88.9331C62.6049 88.9331 62.7355 88.9588 62.8583 89.0101C62.981 89.0637 63.0882 89.1362 63.1797 89.2277C63.2712 89.3193 63.3437 89.4264 63.3973 89.5492C63.4487 89.6719 63.4743 89.8025 63.4743 89.9409L63.4743 92.4286L63.0625 92.4286L63.0625 89.9175C63.0625 89.8349 63.0469 89.7568 63.0156 89.6831C62.9844 89.6117 62.942 89.5492 62.8884 89.4956C62.8348 89.442 62.7723 89.3996 62.7009 89.3684C62.6272 89.3371 62.5491 89.3215 62.4665 89.3215L62.192 89.3215C62.1094 89.3215 62.0324 89.3371 61.9609 89.3684C61.8873 89.3996 61.8237 89.442 61.7701 89.4956C61.7165 89.5492 61.6741 89.6117 61.6429 89.6831C61.6116 89.7568 61.596 89.8349 61.596 89.9175L61.596 92.4286L61.1842 92.4286L61.1842 89.0001L61.3214 89.0001ZM60.2567 93.2523L60.2567 93.8014L59.7779 93.8014L59.7779 93.2523L60.2567 93.2523ZM60.2232 89.0001L60.2232 92.4286L59.8114 92.4286L59.8114 89.0001L60.2232 89.0001ZM56.5569 89.9409C56.5569 89.8025 56.5837 89.6719 56.6373 89.5492C56.6886 89.4264 56.76 89.3193 56.8516 89.2277C56.9431 89.1362 57.0502 89.0637 57.173 89.0101C57.2958 88.9588 57.4263 88.9331 57.5647 88.9331L57.8393 88.9331C57.9777 88.9331 58.1083 88.9588 58.231 89.0101C58.3538 89.0637 58.4609 89.1362 58.5525 89.2277C58.644 89.3193 58.7165 89.4264 58.7701 89.5492C58.8214 89.6719 58.8471 89.8025 58.8471 89.9409L58.8471 91.4878C58.8471 91.6262 58.8214 91.7568 58.7701 91.8795C58.7165 92.0023 58.644 92.1094 58.5525 92.201C58.4609 92.2925 58.3538 92.3639 58.231 92.4152C58.1083 92.4688 57.9777 92.4956 57.8393 92.4956L57.5647 92.4956C57.4263 92.4956 57.2958 92.4688 57.173 92.4152C57.0502 92.3639 56.9431 92.2925 56.8516 92.201C56.76 92.1094 56.6886 92.0023 56.6373 91.8795C56.5837 91.7568 56.5569 91.6262 56.5569 91.4878L56.5569 91.3505L56.9687 91.2835L56.9687 91.5112C56.9687 91.5938 56.9844 91.6708 57.0156 91.7422C57.0469 91.8159 57.0893 91.8795 57.1429 91.9331C57.1964 91.9867 57.26 92.0291 57.3337 92.0603C57.4051 92.0916 57.4821 92.1072 57.5647 92.1072L57.8393 92.1072C57.9219 92.1072 58 92.0916 58.0737 92.0603C58.1451 92.0291 58.2076 91.9867 58.2612 91.9331C58.3147 91.8795 58.3571 91.8159 58.3884 91.7422C58.4196 91.6708 58.4353 91.5938 58.4353 91.5112L58.4353 89.9175C58.4353 89.8349 58.4196 89.7568 58.3884 89.6831C58.3571 89.6117 58.3147 89.5492 58.2612 89.4956C58.2076 89.442 58.1451 89.3996 58.0737 89.3684C58 89.3371 57.9219 89.3215 57.8393 89.3215L57.5647 89.3215C57.4821 89.3215 57.4051 89.3371 57.3337 89.3684C57.26 89.3996 57.1964 89.442 57.1429 89.4956C57.0893 89.5492 57.0469 89.6117 57.0156 89.6831C56.9844 89.7568 56.9687 89.8349 56.9687 89.9175L56.9687 90.1452L56.5569 90.0782L56.5569 89.9409ZM53.4431 89.9409C53.4431 89.8025 53.4699 89.6719 53.5234 89.5492C53.5748 89.4264 53.6462 89.3193 53.7377 89.2277C53.8292 89.1362 53.9364 89.0637 54.0592 89.0101C54.1819 88.9588 54.3125 88.9331 54.4509 88.9331L54.7254 88.9331C54.8638 88.9331 54.9944 88.9588 55.1172 89.0101C55.24 89.0637 55.3471 89.1362 55.4386 89.2277C55.5301 89.3193 55.6027 89.4264 55.6562 89.5492C55.7076 89.6719 55.7333 89.8025 55.7333 89.9409L55.7333 91.4878C55.7333 91.6262 55.7076 91.7568 55.6562 91.8795C55.6027 92.0023 55.5301 92.1094 55.4386 92.201C55.3471 92.2925 55.24 92.3639 55.1172 92.4152C54.9944 92.4688 54.8638 92.4956 54.7254 92.4956L54.4509 92.4956C54.3125 92.4956 54.1819 92.4688 54.0592 92.4152C53.9364 92.3639 53.8292 92.2925 53.7377 92.201C53.6462 92.1094 53.5748 92.0023 53.5234 91.8795C53.4699 91.7568 53.4431 91.6262 53.4431 91.4878L53.4431 90.6809L55.3214 90.6809L55.3214 89.9175C55.3214 89.8349 55.3058 89.7568 55.2746 89.6831C55.2433 89.6117 55.2009 89.5492 55.1473 89.4956C55.0937 89.442 55.0312 89.3996 54.9598 89.3684C54.8862 89.3371 54.808 89.3215 54.7254 89.3215L54.4509 89.3215C54.3683 89.3215 54.2913 89.3371 54.2199 89.3684C54.1462 89.3996 54.0826 89.442 54.029 89.4956C53.9754 89.5492 53.933 89.6117 53.9018 89.6831C53.8705 89.7568 53.8549 89.8349 53.8549 89.9175L53.8549 90.1452L53.4431 90.0782L53.4431 89.9409ZM53.8549 91.5112C53.8549 91.5938 53.8705 91.6708 53.9018 91.7422C53.933 91.8159 53.9754 91.8795 54.029 91.9331C54.0826 91.9867 54.1462 92.0291 54.2199 92.0603C54.2913 92.0916 54.3683 92.1072 54.4509 92.1072L54.7254 92.1072C54.808 92.1072 54.8862 92.0916 54.9598 92.0603C55.0312 92.0291 55.0937 91.9867 55.1473 91.9331C55.2009 91.8795 55.2433 91.8159 55.2746 91.7422C55.3058 91.6708 55.3214 91.5938 55.3214 91.5112L55.3214 91.0023L53.8549 91.0023L53.8549 91.5112Z" fill="#FDCED2"/>
</g>
<path d="M57.2511 39.8215C57.2511 39.9844 57.2199 40.1373 57.1574 40.2802C57.0971 40.4231 57.0134 40.5481 56.9062 40.6552C56.7991 40.7623 56.673 40.8472 56.5279 40.9097C56.385 40.9699 56.2321 41.0001 56.0692 41.0001L54.5491 41.0001L54.5491 36.1987L56.0692 36.1987C56.2321 36.1987 56.385 36.23 56.5279 36.2925C56.673 36.3527 56.7991 36.4364 56.9062 36.5436C57.0134 36.6507 57.0971 36.7768 57.1574 36.9219C57.2199 37.0648 57.2511 37.2177 57.2511 37.3806L57.2511 39.8215ZM56.8192 37.3806C56.8192 37.2735 56.7991 37.1742 56.7589 37.0827C56.7187 36.9889 56.6629 36.9074 56.5915 36.8382C56.5223 36.7668 56.4408 36.711 56.3471 36.6708C56.2556 36.6306 56.1562 36.6106 56.0491 36.6106L54.981 36.6106L54.981 40.5882L56.0491 40.5882C56.1562 40.5882 56.2556 40.5681 56.3471 40.528C56.4408 40.4878 56.5223 40.4331 56.5915 40.3639C56.6629 40.2947 56.7187 40.2143 56.7589 40.1228C56.7991 40.0291 56.8192 39.9286 56.8192 39.8215L56.8192 37.3806ZM60.4319 40.0592C60.4319 40.1976 60.4051 40.3282 60.3516 40.451C60.3002 40.5737 60.2288 40.6809 60.1373 40.7724C60.0458 40.8639 59.9386 40.9364 59.8158 40.99C59.6931 41.0414 59.5625 41.067 59.4241 41.067L59.1496 41.067C59.0112 41.067 58.8806 41.0414 58.7578 40.99C58.635 40.9364 58.5279 40.8639 58.4364 40.7724C58.3449 40.6809 58.2723 40.5737 58.2187 40.451C58.1674 40.3282 58.1417 40.1976 58.1417 40.0592L58.1417 38.5123C58.1417 38.3739 58.1674 38.2434 58.2187 38.1206C58.2723 37.9978 58.3449 37.8907 58.4364 37.7992C58.5279 37.7077 58.635 37.6362 58.7578 37.5849C58.8806 37.5313 59.0112 37.5045 59.1496 37.5045L59.4241 37.5045C59.5625 37.5045 59.6931 37.5313 59.8158 37.5849C59.9386 37.6362 60.0458 37.7077 60.1373 37.7992C60.2288 37.8907 60.3002 37.9978 60.3516 38.1206C60.4051 38.2434 60.4319 38.3739 60.4319 38.5123L60.4319 40.0592ZM60.0201 38.4889C60.0201 38.4063 60.0045 38.3293 59.9732 38.2579C59.942 38.1842 59.8996 38.1206 59.846 38.067C59.7924 38.0135 59.7288 37.971 59.6551 37.9398C59.5837 37.9085 59.5067 37.8929 59.4241 37.8929L59.1496 37.8929C59.067 37.8929 58.9888 37.9085 58.9152 37.9398C58.8437 37.971 58.7812 38.0135 58.7277 38.067C58.6741 38.1206 58.6317 38.1842 58.6004 38.2579C58.5692 38.3293 58.5536 38.4063 58.5536 38.4889L58.5536 40.0827C58.5536 40.1652 58.5692 40.2434 58.6004 40.317C58.6317 40.3885 58.6741 40.451 58.7277 40.5045C58.7812 40.5581 58.8437 40.6005 58.9152 40.6318C58.9888 40.663 59.067 40.6786 59.1496 40.6786L59.4241 40.6786C59.5067 40.6786 59.5837 40.663 59.6551 40.6318C59.7288 40.6005 59.7924 40.5581 59.846 40.5045C59.8996 40.451 59.942 40.3885 59.9732 40.317C60.0045 40.2434 60.0201 40.1652 60.0201 40.0827L60.0201 38.4889ZM63.5458 40.0592C63.5458 40.1976 63.519 40.3282 63.4654 40.451C63.4141 40.5737 63.3426 40.6809 63.2511 40.7724C63.1596 40.8639 63.0525 40.9364 62.9297 40.99C62.8069 41.0414 62.6763 41.067 62.5379 41.067L62.2634 41.067C62.125 41.067 61.9944 41.0414 61.8717 40.99C61.7489 40.9364 61.6417 40.8639 61.5502 40.7724C61.4587 40.6809 61.3862 40.5737 61.3326 40.451C61.2812 40.3282 61.2556 40.1976 61.2556 40.0592L61.2556 38.5123C61.2556 38.3739 61.2812 38.2434 61.3326 38.1206C61.3862 37.9978 61.4587 37.8907 61.5502 37.7992C61.6417 37.7077 61.7489 37.6362 61.8717 37.5849C61.9944 37.5313 62.125 37.5045 62.2634 37.5045L62.5379 37.5045C62.6763 37.5045 62.8069 37.5313 62.9297 37.5849C63.0525 37.6362 63.1596 37.7077 63.2511 37.7992C63.3426 37.8907 63.4141 37.9978 63.4654 38.1206C63.519 38.2434 63.5458 38.3739 63.5458 38.5123L63.5458 40.0592ZM63.1339 38.4889C63.1339 38.4063 63.1183 38.3293 63.0871 38.2579C63.0558 38.1842 63.0134 38.1206 62.9598 38.067C62.9062 38.0135 62.8426 37.971 62.769 37.9398C62.6975 37.9085 62.6205 37.8929 62.5379 37.8929L62.2634 37.8929C62.1808 37.8929 62.1027 37.9085 62.029 37.9398C61.9576 37.971 61.8951 38.0135 61.8415 38.067C61.7879 38.1206 61.7455 38.1842 61.7143 38.2579C61.683 38.3293 61.6674 38.4063 61.6674 38.4889L61.6674 40.0827C61.6674 40.1652 61.683 40.2434 61.7143 40.317C61.7455 40.3885 61.7879 40.451 61.8415 40.5045C61.8951 40.5581 61.9576 40.6005 62.029 40.6318C62.1027 40.663 62.1808 40.6786 62.2634 40.6786L62.5379 40.6786C62.6205 40.6786 62.6975 40.663 62.769 40.6318C62.8426 40.6005 62.9062 40.5581 62.9598 40.5045C63.0134 40.451 63.0558 40.3885 63.0871 40.317C63.1183 40.2434 63.1339 40.1652 63.1339 40.0827L63.1339 38.4889ZM65.3772 37.9632C65.2946 37.9632 65.2165 37.9789 65.1429 38.0101C65.0714 38.0414 65.0089 38.0838 64.9554 38.1373C64.9018 38.1909 64.8594 38.2545 64.8281 38.3282C64.7969 38.3996 64.7813 38.4766 64.7813 38.5592L64.7813 41.0001L64.3694 41.0001L64.3694 37.5715L64.5067 37.5715L64.731 37.9197C64.8248 37.7925 64.942 37.692 65.0826 37.6184C65.2254 37.5425 65.3806 37.5045 65.548 37.5045L65.7891 37.5045L65.7891 37.9632L65.3772 37.9632Z" fill="#FDCED2"/>
<path d="M31.6105 69.2858H36V69.7177H31.6105V70.8628H31.1987V68.1407H31.6105V69.2858ZM35.0592 65.5726C35.1975 65.5726 35.3281 65.5994 35.4509 65.653C35.5737 65.7043 35.6808 65.7757 35.7723 65.8672C35.8638 65.9588 35.9364 66.0659 35.99 66.1887C36.0413 66.3114 36.067 66.442 36.067 66.5804V66.855C36.067 66.9934 36.0413 67.1239 35.99 67.2467C35.9364 67.3695 35.8638 67.4766 35.7723 67.5681C35.6808 67.6597 35.5737 67.7322 35.4509 67.7858C35.3281 67.8371 35.1975 67.8628 35.0592 67.8628H33.5123C33.3739 67.8628 33.2433 67.8371 33.1205 67.7858C32.9978 67.7322 32.8906 67.6597 32.7991 67.5681C32.7076 67.4766 32.6362 67.3695 32.5848 67.2467C32.5312 67.1239 32.5045 66.9934 32.5045 66.855V66.5804C32.5045 66.442 32.5312 66.3114 32.5848 66.1887C32.6362 66.0659 32.7076 65.9588 32.7991 65.8672C32.8906 65.7757 32.9978 65.7043 33.1205 65.653C33.2433 65.5994 33.3739 65.5726 33.5123 65.5726H34.3192V67.451H35.0826C35.1652 67.451 35.2433 67.4353 35.317 67.4041C35.3884 67.3728 35.4509 67.3304 35.5045 67.2768C35.558 67.2233 35.6004 67.1608 35.6317 67.0893C35.6629 67.0157 35.6786 66.9376 35.6786 66.855V66.5804C35.6786 66.4978 35.6629 66.4208 35.6317 66.3494C35.6004 66.2757 35.558 66.2121 35.5045 66.1585C35.4509 66.105 35.3884 66.0626 35.317 66.0313C35.2433 66.0001 35.1652 65.9844 35.0826 65.9844H34.8549L34.9219 65.5726H35.0592ZM33.4888 65.9844C33.4062 65.9844 33.3292 66.0001 33.2578 66.0313C33.1842 66.0626 33.1205 66.105 33.067 66.1585C33.0134 66.2121 32.971 66.2757 32.9397 66.3494C32.9085 66.4208 32.8929 66.4978 32.8929 66.5804V66.855C32.8929 66.9376 32.9085 67.0157 32.9397 67.0893C32.971 67.1608 33.0134 67.2233 33.067 67.2768C33.1205 67.3304 33.1842 67.3728 33.2578 67.4041C33.3292 67.4353 33.4062 67.451 33.4888 67.451H33.9978V65.9844H33.4888ZM36 62.9744L34.6842 63.7077L36 64.4409V64.8862L34.2857 63.9253L32.5714 64.8862V64.4409L33.8873 63.7077L32.5714 62.9744V62.5291L34.2857 63.4867L36 62.5291V62.9744ZM36 60.5938C36 60.7188 35.9766 60.8371 35.9297 60.9487C35.8828 61.0581 35.8181 61.1541 35.7355 61.2367C35.6529 61.317 35.5569 61.3818 35.4475 61.4309C35.3382 61.4777 35.221 61.5012 35.096 61.5012H32.9632V62.1172H32.5714V61.5012H31.7478L31.6808 61.0893H32.5714V60.2188H32.9632V61.0893H35.1161C35.1853 61.0893 35.25 61.0771 35.3103 61.0525C35.3683 61.0257 35.4196 60.99 35.4643 60.9454C35.5089 60.9007 35.5446 60.8483 35.5714 60.788C35.596 60.7277 35.6083 60.663 35.6083 60.5938V60.2188H36V60.5938Z" fill="#FDCED2"/>
<g opacity="0.3">
<path fill-rule="evenodd" clip-rule="evenodd" d="M36.0046 92.0626L34.2928 90.3509C34.0978 90.1559 33.7817 90.1559 33.5867 90.3509C33.3917 90.5459 33.3917 90.862 33.5867 91.057L34.5474 92.0177C33.5132 92.0081 32.7351 91.8154 32.2755 91.3122C31.7967 90.7882 31.6115 90.3731 31.6115 88.9994C31.6115 88.7236 31.3879 88.5001 31.1121 88.5001C30.8364 88.5001 30.6128 88.7236 30.6128 88.9994C30.6128 90.5603 30.8537 91.2366 31.5382 91.9858C32.1793 92.6876 33.1658 92.9744 34.3488 93.0123L33.584 93.777C33.389 93.972 33.389 94.2882 33.584 94.4832C33.779 94.6782 34.0951 94.6782 34.2901 94.4832L36.0046 92.7688C36.1996 92.5738 36.1996 92.2576 36.0046 92.0626Z" fill="black"/>
<path fill-rule="evenodd" clip-rule="evenodd" d="M83.2967 92.0626L85.0091 90.3509C85.2041 90.1559 85.5204 90.1559 85.7155 90.3509C85.9106 90.5459 85.9106 90.862 85.7155 91.057L84.7544 92.0177C85.789 92.0082 86.5675 91.8155 87.0273 91.3123C87.5062 90.7883 87.6916 90.3732 87.6916 88.9995C87.6916 88.7237 87.9152 88.5001 88.1911 88.5001C88.4669 88.5001 88.6906 88.7237 88.6906 88.9995C88.6906 90.5604 88.4496 91.2366 87.7649 91.9858C87.1235 92.6877 86.1366 92.9744 84.9532 93.0124L85.7182 93.777C85.9133 93.972 85.9133 94.2882 85.7182 94.4832C85.5231 94.6782 85.2069 94.6782 85.0118 94.4832L83.2967 92.7688C83.1016 92.5738 83.1016 92.2576 83.2967 92.0626Z" fill="black"/>
<path fill-rule="evenodd" clip-rule="evenodd" d="M83.2986 38.0669L85.0104 39.7787C85.2054 39.9737 85.5215 39.9737 85.7165 39.7787C85.9115 39.5837 85.9115 39.2675 85.7165 39.0725L84.7559 38.1119C85.79 38.1215 86.5681 38.3142 87.0278 38.8174C87.5065 39.3414 87.6918 39.7565 87.6918 41.1302C87.6918 41.4059 87.9153 41.6295 88.1911 41.6295C88.4669 41.6295 88.6904 41.4059 88.6904 41.1302C88.6904 39.5693 88.4495 38.893 87.7651 38.1438C87.1239 37.442 86.1374 37.1552 84.9545 37.1173L85.7192 36.3525C85.9142 36.1575 85.9142 35.8414 85.7192 35.6464C85.5242 35.4514 85.2081 35.4514 85.0131 35.6464L83.2986 37.3608C83.1036 37.5558 83.1036 37.8719 83.2986 38.0669Z" fill="black"/>
<path fill-rule="evenodd" clip-rule="evenodd" d="M36.006 38.0669L34.2937 39.7787C34.0986 39.9737 33.7823 39.9737 33.5873 39.7787C33.3922 39.5837 33.3922 39.2675 33.5873 39.0725L34.5483 38.1118C33.5137 38.1214 32.7353 38.3141 32.2754 38.8173C31.7965 39.3413 31.6112 39.7564 31.6112 41.1301C31.6112 41.4059 31.3875 41.6295 31.1117 41.6295C30.8358 41.6295 30.6122 41.4059 30.6122 41.1301C30.6122 39.5692 30.8531 38.893 31.5378 38.1437C32.1792 37.4419 33.1662 37.1551 34.3495 37.1172L33.5845 36.3525C33.3895 36.1575 33.3895 35.8414 33.5845 35.6464C33.7796 35.4514 34.0959 35.4514 34.291 35.6464L36.006 37.3608C36.2011 37.5558 36.2011 37.8719 36.006 38.0669Z" fill="black"/>
</g>
</g>
<g style="mix-blend-mode:luminosity">
<path d="M9.229 105.693C9.277 105.693 9.346 105.708 9.436 105.738C9.436 106.308 9.475 106.947 9.553 107.655L14.026 107.655C14.314 107.655 14.53 107.712 14.674 107.826C14.818 107.934 14.92 108.123 14.98 108.393C15.034 108.645 15.058 108.954 15.052 109.32C14.98 109.35 14.902 109.365 14.818 109.365C14.74 109.365 14.674 109.353 14.62 109.329C14.608 109.107 14.557 108.954 14.467 108.87C14.377 108.78 14.218 108.735 13.99 108.735L7.915 108.735C7.585 108.735 7.42 108.768 7.42 108.834L7.438 109.149C7.372 109.185 7.294 109.203 7.204 109.203C7.114 109.203 7.042 109.191 6.988 109.167C6.712 108.267 6.574 107.259 6.574 106.143C6.574 105.645 6.592 105.234 6.628 104.91C6.7 104.874 6.778 104.856 6.862 104.856C6.916 104.856 6.988 104.871 7.078 104.901C7.054 105.027 7.042 105.276 7.042 105.648C7.042 106.422 7.081 107.094 7.159 107.664C7.177 107.658 7.234 107.655 7.33 107.655L9.067 107.655C9.007 107.073 8.974 106.437 8.968 105.747C9.04 105.711 9.127 105.693 9.229 105.693ZM8.752 101.041C8.89 100.969 9.088 100.933 9.346 100.933L12.109 100.933C12.469 100.933 12.727 101.14 12.883 101.554C13.033 101.968 13.108 102.637 13.108 103.561C13.108 103.867 13.078 104.104 13.018 104.272C12.958 104.44 12.859 104.563 12.721 104.641C12.583 104.713 12.385 104.749 12.127 104.749L9.373 104.749C9.001 104.749 8.74 104.539 8.59 104.119C8.446 103.693 8.374 103.021 8.374 102.103C8.374 101.797 8.404 101.563 8.464 101.401C8.518 101.233 8.614 101.113 8.752 101.041ZM12.568 102.175C12.472 102.025 12.307 101.953 12.073 101.959L9.454 101.959C9.184 101.959 9.001 101.998 8.905 102.076C8.803 102.148 8.752 102.283 8.752 102.481C8.752 103.003 8.8 103.339 8.896 103.489C8.998 103.651 9.169 103.729 9.409 103.723L12.028 103.723C12.298 103.723 12.481 103.687 12.577 103.615C12.673 103.543 12.721 103.399 12.721 103.183C12.709 102.655 12.658 102.319 12.568 102.175ZM14.179 96.7776C14.107 96.7416 14.005 96.7236 13.873 96.7236L12.73 96.7236L12.82 97.0566C12.88 97.2666 12.937 97.4796 12.991 97.6956C13.033 97.8696 13.069 98.0766 13.099 98.3166C13.111 98.4606 13.117 98.5626 13.117 98.6226C13.117 98.9526 13.066 99.1866 12.964 99.3246C12.856 99.4626 12.679 99.5316 12.433 99.5316L9.346 99.5316C9.016 99.5316 8.851 99.5646 8.851 99.6306L8.869 100.252C8.827 100.276 8.77 100.288 8.698 100.288C8.65 100.288 8.599 100.279 8.545 100.261C8.431 99.8646 8.374 99.4596 8.374 99.0456C8.374 98.8656 8.383 98.7396 8.401 98.6676C8.413 98.5956 8.446 98.5506 8.5 98.5326C8.548 98.5086 8.635 98.4996 8.761 98.5056L12.208 98.5056C12.454 98.5056 12.577 98.3376 12.577 98.0016C12.577 97.7436 12.493 97.3176 12.325 96.7236L9.346 96.7236C9.016 96.7236 8.851 96.7566 8.851 96.8226L8.869 97.4436C8.827 97.4676 8.77 97.4796 8.698 97.4796C8.65 97.4796 8.599 97.4706 8.545 97.4526C8.431 97.0566 8.374 96.6516 8.374 96.2376C8.374 96.0576 8.383 95.9316 8.401 95.8596C8.413 95.7876 8.446 95.7426 8.5 95.7246C8.548 95.7006 8.635 95.6916 8.761 95.6976L13.945 95.6976C14.443 95.6856 14.743 95.9496 14.845 96.4896C15.001 97.2276 15.076 98.1396 15.07 99.2256C14.974 99.2796 14.896 99.3066 14.836 99.3066C14.734 99.3066 14.656 99.2946 14.602 99.2706C14.59 98.4306 14.554 97.8396 14.494 97.4976C14.452 97.2696 14.407 97.1016 14.359 96.9936C14.311 96.8856 14.251 96.8136 14.179 96.7776ZM12.568 91.7928C12.502 91.3788 12.445 91.0788 12.397 90.8928C12.457 90.8628 12.532 90.8478 12.622 90.8478C12.7 90.8478 12.76 90.8598 12.802 90.8838C13.012 91.6878 13.117 92.5698 13.117 93.5298C13.117 93.8538 13.066 94.0908 12.964 94.2408C12.862 94.3848 12.694 94.4568 12.46 94.4568L9.373 94.4568C9.001 94.4568 8.74 94.2588 8.59 93.8628C8.446 93.4788 8.374 92.8548 8.374 91.9908C8.374 91.6848 8.404 91.4508 8.464 91.2888C8.518 91.1208 8.614 91.0008 8.752 90.9288C8.89 90.8568 9.088 90.8208 9.346 90.8208L9.985 90.8208C10.237 90.8208 10.435 90.8838 10.579 91.0098C10.717 91.1358 10.816 91.3368 10.876 91.6128C10.978 92.2788 11.047 92.8848 11.083 93.4308L12.109 93.4308C12.337 93.4308 12.487 93.3888 12.559 93.3048C12.631 93.2148 12.667 93.0348 12.667 92.7648C12.667 92.5248 12.634 92.2008 12.568 91.7928ZM8.905 93.2238C9.001 93.3738 9.169 93.4428 9.409 93.4308L10.669 93.4308C10.633 93.0288 10.591 92.7018 10.543 92.4498C10.489 92.2038 10.426 92.0418 10.354 91.9638C10.282 91.8858 10.15 91.8468 9.958 91.8468L9.409 91.8468C9.157 91.8468 8.986 91.8858 8.896 91.9638C8.8 92.0358 8.752 92.1708 8.752 92.3688C8.752 92.7888 8.803 93.0738 8.905 93.2238ZM9.346 89.5642C9.016 89.5642 8.851 89.5972 8.851 89.6632L8.869 90.2842C8.827 90.3082 8.77 90.3202 8.698 90.3202C8.65 90.3202 8.599 90.3112 8.545 90.2932C8.431 89.8972 8.374 89.4922 8.374 89.0782C8.374 88.8982 8.383 88.7722 8.401 88.7002C8.413 88.6282 8.446 88.5832 8.5 88.5652C8.548 88.5412 8.635 88.5322 8.761 88.5382C8.503 87.9442 8.374 87.5212 8.374 87.2692C8.374 86.9392 8.428 86.7052 8.536 86.5672C8.638 86.4292 8.812 86.3602 9.058 86.3602L9.904 86.3602C9.988 86.3602 10.048 86.4082 10.084 86.5042C10.15 86.7322 10.183 86.9752 10.183 87.2332C10.183 87.3352 10.132 87.3862 10.03 87.3862L9.283 87.3862C9.061 87.3862 8.95 87.5032 8.95 87.7372C8.95 87.9232 9.022 88.1902 9.166 88.5382L12.145 88.5382C12.475 88.5382 12.64 88.5052 12.64 88.4392L12.622 87.8182C12.664 87.7942 12.721 87.7822 12.793 87.7822C12.841 87.7822 12.892 87.7912 12.946 87.8092C13.06 88.2052 13.117 88.6102 13.117 89.0242C13.117 89.2042 13.108 89.3302 13.09 89.4022C13.078 89.4742 13.048 89.5222 13 89.5462C12.946 89.5642 12.856 89.5702 12.73 89.5642L9.346 89.5642Z" fill="#FC9CA4"/>
</g>
<g style="mix-blend-mode:luminosity">
<path d="M79.515 11.5741C80.085 11.5741 80.628 11.5981 81.144 11.6461C81.18 11.7061 81.198 11.7931 81.198 11.9071C81.198 11.9971 81.186 12.0751 81.162 12.1411C80.682 12.0871 80.103 12.0631 79.425 12.0691L79.425 17.1451C79.425 17.4751 79.458 17.6401 79.524 17.6401L80.091 17.6221C80.115 17.6641 80.127 17.7211 80.127 17.7931C80.127 17.8411 80.118 17.8921 80.1 17.9461C79.704 18.0601 79.32 18.1171 78.948 18.1171C78.756 18.1171 78.618 18.1081 78.534 18.0901C78.456 18.0781 78.402 18.0481 78.372 18.0001C78.348 17.9461 78.339 17.8561 78.345 17.7301L78.345 12.1411C77.643 12.1951 77.034 12.2821 76.518 12.4021C76.482 12.3181 76.464 12.2341 76.464 12.1501C76.464 12.1021 76.476 12.0241 76.5 11.9161C77.364 11.6881 78.369 11.5741 79.515 11.5741ZM82.1176 12.6361C82.0096 12.6481 81.9616 12.5521 81.9736 12.3481L81.9736 11.8891C81.9736 11.7871 81.9826 11.7181 82.0006 11.6821C82.0246 11.6461 82.0756 11.6221 82.1536 11.6101L82.8556 11.5831C82.9636 11.5711 83.0116 11.6671 82.9996 11.8711L82.9996 12.3301C82.9996 12.4321 82.9876 12.5011 82.9636 12.5371C82.9456 12.5731 82.8976 12.5971 82.8196 12.6091L82.1176 12.6361ZM83.9356 17.7931C83.9356 17.8411 83.9266 17.8921 83.9086 17.9461C83.5126 18.0601 83.1076 18.1171 82.6936 18.1171C82.5136 18.1171 82.3876 18.1081 82.3156 18.0901C82.2436 18.0781 82.1956 18.0481 82.1716 18.0001C82.1536 17.9461 82.1476 17.8561 82.1536 17.7301L82.1536 14.3461C82.1536 14.0161 82.1206 13.8511 82.0546 13.8511L81.4336 13.8691C81.4096 13.8271 81.3976 13.7701 81.3976 13.6981C81.3976 13.6501 81.4066 13.5991 81.4246 13.5451C81.8206 13.4311 82.2256 13.3741 82.6396 13.3741C82.8196 13.3741 82.9456 13.3831 83.0176 13.4011C83.0896 13.4131 83.1346 13.4461 83.1526 13.5001C83.1766 13.5481 83.1856 13.6351 83.1796 13.7611L83.1796 17.1451C83.1796 17.4631 83.2096 17.6221 83.2696 17.6221L83.8996 17.6221C83.9236 17.6641 83.9356 17.7211 83.9356 17.7931ZM87.1104 13.9141C86.8764 13.9141 86.4714 14.0011 85.8954 14.1751L85.8954 17.8381C85.8954 17.9221 85.8474 17.9821 85.7514 18.0181C85.5234 18.0841 85.2804 18.1171 85.0224 18.1171C84.9204 18.1171 84.8694 18.0661 84.8694 17.9641L84.8694 14.3461C84.8694 14.0161 84.8364 13.8511 84.7704 13.8511L84.1494 13.8691C84.1254 13.8271 84.1134 13.7701 84.1134 13.6981C84.1134 13.6501 84.1224 13.5991 84.1404 13.5451C84.5364 13.4311 84.9414 13.3741 85.3554 13.3741C85.5354 13.3741 85.6614 13.3831 85.7334 13.4011C85.8054 13.4131 85.8504 13.4461 85.8684 13.5001C85.8924 13.5481 85.9014 13.6351 85.8954 13.7611C86.3334 13.6291 86.6874 13.5331 86.9574 13.4731C87.2634 13.4071 87.5364 13.3741 87.7764 13.3741C88.2324 13.3741 88.5054 13.5091 88.5954 13.7791C88.7334 13.7311 88.9524 13.6681 89.2524 13.5901C89.6004 13.5001 89.8104 13.4461 89.8824 13.4281C90.1104 13.3921 90.3084 13.3741 90.4764 13.3741C90.8064 13.3741 91.0404 13.4281 91.1784 13.5361C91.3164 13.6381 91.3854 13.8121 91.3854 14.0581L91.3854 17.1451C91.3854 17.3431 91.3914 17.4781 91.4034 17.5501C91.4094 17.6101 91.4364 17.6401 91.4844 17.6401L92.1054 17.6221C92.1294 17.6881 92.1414 17.7451 92.1414 17.7931C92.1414 17.8111 92.1354 17.8441 92.1234 17.8921L92.1144 17.9461C91.7184 18.0601 91.3134 18.1171 90.8994 18.1171C90.7194 18.1171 90.5934 18.1081 90.5214 18.0901C90.4494 18.0781 90.4014 18.0481 90.3774 18.0001C90.3594 17.9461 90.3534 17.8561 90.3594 17.7301L90.3594 14.2831C90.3594 14.0371 90.1914 13.9141 89.8554 13.9141C89.6334 13.9141 89.2284 14.0011 88.6404 14.1751L88.6404 17.8381C88.6404 17.9221 88.5924 17.9821 88.4964 18.0181C88.2684 18.0841 88.0254 18.1171 87.7674 18.1171C87.6654 18.1171 87.6144 18.0661 87.6144 17.9641L87.6144 14.2831C87.6144 14.0371 87.4464 13.9141 87.1104 13.9141ZM95.4641 17.5681C95.8781 17.5021 96.1781 17.4451 96.3641 17.3971C96.3941 17.4571 96.4091 17.5321 96.4091 17.6221C96.4091 17.7001 96.3971 17.7601 96.3731 17.8021C95.5691 18.0121 94.6871 18.1171 93.7271 18.1171C93.4031 18.1171 93.1661 18.0661 93.0161 17.9641C92.8721 17.8621 92.8001 17.6941 92.8001 17.4601L92.8001 14.3731C92.8001 14.0011 92.9981 13.7401 93.3941 13.5901C93.7781 13.4461 94.4021 13.3741 95.2661 13.3741C95.5721 13.3741 95.8061 13.4041 95.9681 13.4641C96.1361 13.5181 96.2561 13.6141 96.3281 13.7521C96.4001 13.8901 96.4361 14.0881 96.4361 14.3461L96.4361 14.9851C96.4361 15.2371 96.3731 15.4351 96.2471 15.5791C96.1211 15.7171 95.9201 15.8161 95.6441 15.8761C94.9781 15.9781 94.3721 16.0471 93.8261 16.0831L93.8261 17.1091C93.8261 17.3371 93.8681 17.4871 93.9521 17.5591C94.0421 17.6311 94.2221 17.6671 94.4921 17.6671C94.7321 17.6671 95.0561 17.6341 95.4641 17.5681ZM94.0331 13.9051C93.8831 14.0011 93.8141 14.1691 93.8261 14.4091L93.8261 15.6691C94.2281 15.6331 94.5551 15.5911 94.8071 15.5431C95.0531 15.4891 95.2151 15.4261 95.2931 15.3541C95.3711 15.2821 95.4101 15.1501 95.4101 14.9581L95.4101 14.4091C95.4101 14.1571 95.3711 13.9861 95.2931 13.8961C95.2211 13.8001 95.0861 13.7521 94.8881 13.7521C94.4681 13.7521 94.1831 13.8031 94.0331 13.9051ZM99.3757 17.7931C99.3757 17.8411 99.3667 17.8921 99.3487 17.9461C98.9527 18.0601 98.5477 18.1171 98.1337 18.1171C97.9537 18.1171 97.8277 18.1081 97.7557 18.0901C97.6837 18.0781 97.6357 18.0481 97.6117 18.0001C97.5937 17.9461 97.5877 17.8561 97.5937 17.7301L97.5937 12.5551C97.5937 12.2251 97.5607 12.0601 97.4947 12.0601L96.8737 12.0781C96.8497 12.0361 96.8377 11.9791 96.8377 11.9071C96.8377 11.8591 96.8467 11.8081 96.8647 11.7541C97.2607 11.6401 97.6657 11.5831 98.0797 11.5831C98.2597 11.5831 98.3857 11.5921 98.4577 11.6101C98.5297 11.6221 98.5747 11.6551 98.5927 11.7091C98.6167 11.7571 98.6257 11.8441 98.6197 11.9701L98.6197 17.1451C98.6197 17.4751 98.6527 17.6401 98.7187 17.6401L99.3397 17.6221C99.3637 17.6641 99.3757 17.7211 99.3757 17.7931ZM100.276 12.6361C100.168 12.6481 100.12 12.5521 100.132 12.3481L100.132 11.8891C100.132 11.7871 100.141 11.7181 100.159 11.6821C100.183 11.6461 100.234 11.6221 100.312 11.6101L101.014 11.5831C101.122 11.5711 101.17 11.6671 101.158 11.8711L101.158 12.3301C101.158 12.4321 101.146 12.5011 101.122 12.5371C101.104 12.5731 101.056 12.5971 100.978 12.6091L100.276 12.6361ZM102.094 17.7931C102.094 17.8411 102.085 17.8921 102.067 17.9461C101.671 18.0601 101.266 18.1171 100.852 18.1171C100.672 18.1171 100.546 18.1081 100.474 18.0901C100.402 18.0781 100.354 18.0481 100.33 18.0001C100.312 17.9461 100.306 17.8561 100.312 17.7301L100.312 14.3461C100.312 14.0161 100.279 13.8511 100.213 13.8511L99.5918 13.8691C99.5678 13.8271 99.5558 13.7701 99.5558 13.6981C99.5558 13.6501 99.5648 13.5991 99.5828 13.5451C99.9788 13.4311 100.384 13.3741 100.798 13.3741C100.978 13.3741 101.104 13.3831 101.176 13.4011C101.248 13.4131 101.293 13.4461 101.311 13.5001C101.335 13.5481 101.344 13.6351 101.338 13.7611L101.338 17.1451C101.338 17.4631 101.368 17.6221 101.428 17.6221L102.058 17.6221C102.082 17.6641 102.094 17.7211 102.094 17.7931ZM105.332 13.9141C105.062 13.9141 104.636 13.9981 104.054 14.1661L104.054 17.8381C104.054 17.9221 104.006 17.9821 103.91 18.0181C103.682 18.0841 103.439 18.1171 103.181 18.1171C103.079 18.1171 103.028 18.0661 103.028 17.9641L103.028 14.3461C103.028 14.0161 102.995 13.8511 102.929 13.8511L102.308 13.8691C102.284 13.8271 102.272 13.7701 102.272 13.6981C102.272 13.6501 102.281 13.5991 102.299 13.5451C102.695 13.4311 103.1 13.3741 103.514 13.3741C103.694 13.3741 103.82 13.3831 103.892 13.4011C103.964 13.4131 104.009 13.4461 104.027 13.5001C104.051 13.5481 104.06 13.6351 104.054 13.7611L104.387 13.6621C104.597 13.6021 104.747 13.5631 104.837 13.5451C104.831 13.5451 104.897 13.5301 105.035 13.5001C105.203 13.4581 105.407 13.4221 105.647 13.3921C105.791 13.3801 105.893 13.3741 105.953 13.3741C106.283 13.3741 106.517 13.4281 106.655 13.5361C106.793 13.6381 106.862 13.8121 106.862 14.0581L106.862 17.1451C106.862 17.4751 106.895 17.6401 106.961 17.6401L107.582 17.6221C107.606 17.6641 107.618 17.7211 107.618 17.7931C107.618 17.8411 107.609 17.8921 107.591 17.9461C107.195 18.0601 106.79 18.1171 106.376 18.1171C106.196 18.1171 106.07 18.1081 105.998 18.0901C105.926 18.0781 105.878 18.0481 105.854 18.0001C105.836 17.9461 105.83 17.8561 105.836 17.7301L105.836 14.2831C105.836 14.0371 105.668 13.9141 105.332 13.9141ZM110.942 17.5681C111.356 17.5021 111.656 17.4451 111.842 17.3971C111.872 17.4571 111.887 17.5321 111.887 17.6221C111.887 17.7001 111.875 17.7601 111.851 17.8021C111.047 18.0121 110.165 18.1171 109.205 18.1171C108.881 18.1171 108.644 18.0661 108.494 17.9641C108.35 17.8621 108.278 17.6941 108.278 17.4601L108.278 14.3731C108.278 14.0011 108.476 13.7401 108.872 13.5901C109.256 13.4461 109.88 13.3741 110.744 13.3741C111.05 13.3741 111.284 13.4041 111.446 13.4641C111.614 13.5181 111.734 13.6141 111.806 13.7521C111.878 13.8901 111.914 14.0881 111.914 14.3461L111.914 14.9851C111.914 15.2371 111.851 15.4351 111.725 15.5791C111.599 15.7171 111.398 15.8161 111.122 15.8761C110.456 15.9781 109.85 16.0471 109.304 16.0831L109.304 17.1091C109.304 17.3371 109.346 17.4871 109.43 17.5591C109.52 17.6311 109.7 17.6671 109.97 17.6671C110.21 17.6671 110.534 17.6341 110.942 17.5681ZM109.511 13.9051C109.361 14.0011 109.292 14.1691 109.304 14.4091L109.304 15.6691C109.706 15.6331 110.033 15.5911 110.285 15.5431C110.531 15.4891 110.693 15.4261 110.771 15.3541C110.849 15.2821 110.888 15.1501 110.888 14.9581L110.888 14.4091C110.888 14.1571 110.849 13.9861 110.771 13.8961C110.699 13.8001 110.564 13.7521 110.366 13.7521C109.946 13.7521 109.661 13.8031 109.511 13.9051Z" fill="#FC9CA4"/>
</g>
<g style="mix-blend-mode:luminosity">
<path d="M182.12 83.4141C182.048 83.4141 181.979 83.4021 181.913 83.3781C181.949 83.1981 181.967 82.8711 181.967 82.3971C181.967 81.6291 181.913 81.0501 181.805 80.6601C181.721 80.3541 181.499 80.2041 181.139 80.2101L177.224 80.2101C177.002 80.2101 176.831 80.2341 176.711 80.2821C176.597 80.3361 176.516 80.4231 176.468 80.5431C176.42 80.6631 176.396 80.8401 176.396 81.0741C176.396 81.4821 176.426 81.9231 176.486 82.3971C176.546 82.8771 176.606 83.2221 176.666 83.4321C176.552 83.4681 176.468 83.4861 176.414 83.4861C176.36 83.4861 176.294 83.4711 176.216 83.4411C175.982 82.6851 175.865 81.7791 175.865 80.7231C175.865 80.3091 175.901 79.9881 175.973 79.7601C176.045 79.5381 176.168 79.3761 176.342 79.2741C176.516 79.1781 176.768 79.1301 177.098 79.1301L181.184 79.1301C181.376 79.1301 181.547 79.1781 181.697 79.2741C181.847 79.3761 181.967 79.5171 182.057 79.6971C182.225 80.0451 182.33 80.4531 182.372 80.9211C182.408 81.3291 182.426 81.7881 182.426 82.2981C182.426 82.6461 182.405 83.0001 182.363 83.3601C182.291 83.3961 182.21 83.4141 182.12 83.4141ZM180.248 87.9259C180.11 87.9979 179.912 88.0339 179.654 88.0339L176.891 88.0339C176.531 88.0339 176.273 87.8269 176.117 87.4129C175.967 86.9989 175.892 86.3299 175.892 85.4059C175.892 85.0999 175.922 84.8629 175.982 84.6949C176.042 84.5269 176.141 84.4039 176.279 84.3259C176.417 84.2539 176.615 84.2179 176.873 84.2179L179.627 84.2179C179.999 84.2179 180.26 84.4279 180.41 84.8479C180.554 85.2739 180.626 85.9459 180.626 86.8639C180.626 87.1699 180.596 87.4039 180.536 87.5659C180.482 87.7339 180.386 87.8539 180.248 87.9259ZM176.432 86.7919C176.528 86.9419 176.693 87.0139 176.927 87.0079L179.546 87.0079C179.816 87.0079 179.999 86.9689 180.095 86.8909C180.197 86.8189 180.248 86.6839 180.248 86.4859C180.248 85.9639 180.2 85.6279 180.104 85.4779C180.002 85.3159 179.831 85.2379 179.591 85.2439L176.972 85.2439C176.702 85.2439 176.519 85.2799 176.423 85.3519C176.327 85.4239 176.279 85.5679 176.279 85.7839C176.291 86.3119 176.342 86.6479 176.432 86.7919ZM176.207 91.1453C176.159 91.1453 176.108 91.1363 176.054 91.1183C175.94 90.7223 175.883 90.3173 175.883 89.9033C175.883 89.7233 175.892 89.5973 175.91 89.5253C175.922 89.4533 175.952 89.4053 176 89.3813C176.054 89.3633 176.144 89.3573 176.27 89.3633L181.445 89.3633C181.775 89.3633 181.94 89.3303 181.94 89.2643L181.922 88.6433C181.964 88.6193 182.021 88.6073 182.093 88.6073C182.141 88.6073 182.192 88.6163 182.246 88.6343C182.36 89.0303 182.417 89.4353 182.417 89.8493C182.417 90.0293 182.408 90.1553 182.39 90.2273C182.378 90.2993 182.345 90.3443 182.291 90.3623C182.243 90.3863 182.156 90.3953 182.03 90.3893L176.855 90.3893C176.525 90.3893 176.36 90.4223 176.36 90.4883L176.378 91.1093C176.336 91.1333 176.279 91.1453 176.207 91.1453ZM180.248 95.5284C180.11 95.6004 179.912 95.6364 179.654 95.6364L176.891 95.6364C176.531 95.6364 176.273 95.4294 176.117 95.0154C175.967 94.6014 175.892 93.9324 175.892 93.0084C175.892 92.7024 175.922 92.4654 175.982 92.2974C176.042 92.1294 176.141 92.0064 176.279 91.9284C176.417 91.8564 176.615 91.8204 176.873 91.8204L179.627 91.8204C179.999 91.8204 180.26 92.0304 180.41 92.4504C180.554 92.8764 180.626 93.5484 180.626 94.4664C180.626 94.7724 180.596 95.0064 180.536 95.1684C180.482 95.3364 180.386 95.4564 180.248 95.5284ZM176.432 94.3944C176.528 94.5444 176.693 94.6164 176.927 94.6104L179.546 94.6104C179.816 94.6104 179.999 94.5714 180.095 94.4934C180.197 94.4214 180.248 94.2864 180.248 94.0884C180.248 93.5664 180.2 93.2304 180.104 93.0804C180.002 92.9184 179.831 92.8404 179.591 92.8464L176.972 92.8464C176.702 92.8464 176.519 92.8824 176.423 92.9544C176.327 93.0264 176.279 93.1704 176.279 93.3864C176.291 93.9144 176.342 94.2504 176.432 94.3944ZM179.654 97.0648C179.984 97.0648 180.149 97.0318 180.149 96.9658L180.131 96.3448C180.173 96.3208 180.23 96.3088 180.302 96.3088C180.35 96.3088 180.401 96.3178 180.455 96.3358C180.569 96.7318 180.626 97.1368 180.626 97.5508C180.626 97.7308 180.617 97.8568 180.599 97.9288C180.587 98.0008 180.554 98.0458 180.5 98.0638C180.452 98.0878 180.365 98.0968 180.239 98.0908C180.497 98.6848 180.626 99.1078 180.626 99.3598C180.626 99.6898 180.572 99.9238 180.464 100.062C180.362 100.2 180.188 100.269 179.942 100.269L179.096 100.269C179.012 100.269 178.952 100.221 178.916 100.125C178.85 99.8968 178.817 99.6538 178.817 99.3958C178.817 99.2938 178.868 99.2428 178.97 99.2428L179.717 99.2428C179.939 99.2428 180.05 99.1258 180.05 98.8918C180.05 98.7058 179.978 98.4388 179.834 98.0908L176.855 98.0908C176.525 98.0908 176.36 98.1238 176.36 98.1898L176.378 98.8108C176.336 98.8348 176.279 98.8468 176.207 98.8468C176.159 98.8468 176.108 98.8378 176.054 98.8198C175.94 98.4238 175.883 98.0188 175.883 97.6048C175.883 97.4248 175.892 97.2988 175.91 97.2268C175.922 97.1548 175.952 97.1068 176 97.0828C176.054 97.0648 176.144 97.0588 176.27 97.0648L179.654 97.0648ZM176.207 105.342C176.159 105.342 176.108 105.333 176.054 105.315C175.94 104.931 175.883 104.526 175.883 104.1C175.883 103.938 175.892 103.818 175.91 103.74C175.922 103.668 175.949 103.62 175.991 103.596C176.027 103.572 176.09 103.56 176.18 103.56C175.982 102.87 175.883 102.276 175.883 101.778C175.883 101.448 175.934 101.214 176.036 101.076C176.138 100.938 176.315 100.869 176.567 100.869L177.827 100.869C178.079 100.869 178.274 100.932 178.412 101.058C178.556 101.184 178.658 101.385 178.718 101.661C178.82 102.327 178.886 102.96 178.916 103.56L179.618 103.56C179.846 103.56 179.996 103.515 180.068 103.425C180.14 103.341 180.176 103.164 180.176 102.894C180.176 102.726 180.134 102.39 180.05 101.886C179.966 101.448 179.903 101.16 179.861 101.022C179.933 100.992 180.008 100.977 180.086 100.977C180.164 100.977 180.224 100.989 180.266 101.013C180.506 101.775 180.626 102.657 180.626 103.659C180.626 103.983 180.575 104.217 180.473 104.361C180.371 104.511 180.203 104.586 179.969 104.586L176.855 104.586C176.525 104.586 176.36 104.619 176.36 104.685L176.378 105.306C176.336 105.33 176.279 105.342 176.207 105.342ZM176.387 102.462C176.387 102.744 176.453 103.11 176.585 103.56L178.511 103.56C178.499 103.23 178.466 102.918 178.412 102.624C178.358 102.324 178.286 102.12 178.196 102.012C178.136 101.934 178.001 101.895 177.791 101.895L176.792 101.895C176.522 101.895 176.387 102.084 176.387 102.462ZM176.207 110.552C176.159 110.552 176.108 110.543 176.054 110.525C175.94 110.129 175.883 109.724 175.883 109.31C175.883 109.13 175.892 109.004 175.91 108.932C175.922 108.86 175.952 108.812 176 108.788C176.054 108.77 176.144 108.764 176.27 108.77L176.18 108.437C176.12 108.227 176.063 108.014 176.009 107.798C175.967 107.624 175.931 107.417 175.901 107.177C175.889 107.033 175.883 106.931 175.883 106.871C175.883 106.541 175.934 106.307 176.036 106.169C176.144 106.031 176.321 105.962 176.567 105.962L179.573 105.962C180.047 105.962 180.332 106.226 180.428 106.754C180.536 107.324 180.602 107.996 180.626 108.77L181.445 108.77C181.775 108.77 181.94 108.737 181.94 108.671L181.922 108.05C181.964 108.026 182.021 108.014 182.093 108.014C182.141 108.014 182.192 108.023 182.246 108.041C182.36 108.437 182.417 108.842 182.417 109.256C182.417 109.436 182.408 109.562 182.39 109.634C182.378 109.706 182.345 109.751 182.291 109.769C182.243 109.793 182.156 109.802 182.03 109.796L176.855 109.796C176.537 109.796 176.378 109.826 176.378 109.886L176.378 110.516C176.336 110.54 176.279 110.552 176.207 110.552ZM176.423 107.492C176.423 107.75 176.507 108.176 176.675 108.77L180.212 108.77C180.182 108.218 180.143 107.825 180.095 107.591C180.047 107.351 179.987 107.189 179.915 107.105C179.843 107.027 179.726 106.988 179.564 106.988L176.792 106.988C176.546 106.988 176.423 107.156 176.423 107.492ZM180.248 114.891C180.11 114.963 179.912 114.999 179.654 114.999L176.891 114.999C176.531 114.999 176.273 114.792 176.117 114.378C175.967 113.964 175.892 113.295 175.892 112.371C175.892 112.065 175.922 111.828 175.982 111.66C176.042 111.492 176.141 111.369 176.279 111.291C176.417 111.219 176.615 111.183 176.873 111.183L179.627 111.183C179.999 111.183 180.26 111.393 180.41 111.813C180.554 112.239 180.626 112.911 180.626 113.829C180.626 114.135 180.596 114.369 180.536 114.531C180.482 114.699 180.386 114.819 180.248 114.891ZM176.432 113.757C176.528 113.907 176.693 113.979 176.927 113.973L179.546 113.973C179.816 113.973 179.999 113.934 180.095 113.856C180.197 113.784 180.248 113.649 180.248 113.451C180.248 112.929 180.2 112.593 180.104 112.443C180.002 112.281 179.831 112.203 179.591 112.209L176.972 112.209C176.702 112.209 176.519 112.245 176.423 112.317C176.327 112.389 176.279 112.533 176.279 112.749C176.291 113.277 176.342 113.613 176.432 113.757Z" fill="#FC9CA4"/>
</g>
</g>
</g>
<g clip-path="url(#clip4_137_5919)">
<rect x="27.25" y="113" width="64" height="64" fill="black" fill-opacity="0.5"/>
</g>
<rect x="27.55" y="113.3" width="63.4" height="63.4" stroke="#FF6673" stroke-opacity="0.7" stroke-width="0.6" stroke-dasharray="0.66 0.66"/>
<g clip-path="url(#clip5_137_5919)">
<rect x="97.75" y="113" width="64" height="64" fill="black" fill-opacity="0.5"/>
</g>
<rect x="98.05" y="113.3" width="63.4" height="63.4" stroke="#FF6673" stroke-opacity="0.7" stroke-width="0.6" stroke-dasharray="0.66 0.66"/>
<rect y="58.7903" width="189" height="40.2097" fill="url(#paint8_linear_137_5919)"/>
<path d="M60.25 64.5005C60.25 64.2243 60.0261 64.0005 59.75 64.0005C59.4738 64.0005 59.25 64.2243 59.25 64.5005L60.25 64.5005ZM59.3963 144.692C59.5916 144.887 59.9082 144.887 60.1034 144.692L63.2854 141.51C63.4807 141.315 63.4807 140.998 63.2854 140.803C63.0902 140.608 62.7736 140.608 62.5783 140.803L59.7499 143.631L56.9215 140.803C56.7262 140.608 56.4096 140.608 56.2144 140.803C56.0191 140.998 56.0191 141.315 56.2144 141.51L59.3963 144.692ZM59.25 65.4984C59.25 65.7746 59.4738 65.9984 59.75 65.9984C60.0261 65.9984 60.25 65.7746 60.25 65.4984L59.25 65.4984ZM60.25 68.4924C60.25 68.2162 60.0261 67.9924 59.75 67.9924C59.4738 67.9924 59.25 68.2162 59.25 68.4924L60.25 68.4924ZM59.25 70.4883C59.25 70.7644 59.4738 70.9883 59.75 70.9883C60.0261 70.9883 60.25 70.7644 60.25 70.4883L59.25 70.4883ZM60.25 73.4822C60.25 73.2061 60.0261 72.9822 59.75 72.9822C59.4738 72.9822 59.25 73.2061 59.25 73.4822L60.25 73.4822ZM59.25 75.4782C59.25 75.7543 59.4738 75.9782 59.75 75.9782C60.0261 75.9782 60.25 75.7543 60.25 75.4782L59.25 75.4782ZM60.25 78.4721C60.25 78.1959 60.0261 77.9721 59.75 77.9721C59.4738 77.9721 59.25 78.1959 59.25 78.4721L60.25 78.4721ZM59.25 80.468C59.25 80.7442 59.4738 80.968 59.75 80.968C60.0261 80.968 60.25 80.7442 60.25 80.468L59.25 80.468ZM60.25 83.462C60.25 83.1858 60.0261 82.962 59.75 82.962C59.4738 82.962 59.25 83.1858 59.25 83.462L60.25 83.462ZM59.25 85.4579C59.25 85.734 59.4738 85.9579 59.75 85.9579C60.0261 85.9579 60.25 85.734 60.25 85.4579L59.25 85.4579ZM60.25 88.4518C60.25 88.1757 60.0261 87.9518 59.75 87.9518C59.4738 87.9518 59.25 88.1757 59.25 88.4518L60.25 88.4518ZM59.25 90.4478C59.2499 90.7239 59.4738 90.9478 59.7499 90.9478C60.0261 90.9478 60.2499 90.7239 60.2499 90.4478L59.25 90.4478ZM60.2499 93.4417C60.2499 93.1655 60.0261 92.9417 59.7499 92.9417C59.4738 92.9417 59.2499 93.1655 59.2499 93.4417L60.2499 93.4417ZM59.2499 95.4376C59.2499 95.7138 59.4738 95.9376 59.7499 95.9376C60.0261 95.9376 60.2499 95.7138 60.2499 95.4376L59.2499 95.4376ZM60.2499 98.4316C60.2499 98.1554 60.0261 97.9316 59.7499 97.9316C59.4738 97.9316 59.2499 98.1554 59.2499 98.4316L60.2499 98.4316ZM59.2499 100.427C59.2499 100.704 59.4738 100.927 59.7499 100.927C60.0261 100.927 60.2499 100.704 60.2499 100.427L59.2499 100.427ZM60.2499 103.421C60.2499 103.145 60.0261 102.921 59.7499 102.921C59.4738 102.921 59.2499 103.145 59.2499 103.421L60.2499 103.421ZM59.2499 105.417C59.2499 105.694 59.4738 105.917 59.7499 105.917C60.0261 105.917 60.2499 105.694 60.2499 105.417L59.2499 105.417ZM60.2499 108.411C60.2499 108.135 60.0261 107.911 59.7499 107.911C59.4738 107.911 59.2499 108.135 59.2499 108.411L60.2499 108.411ZM59.2499 110.407C59.2499 110.683 59.4738 110.907 59.7499 110.907C60.0261 110.907 60.2499 110.683 60.2499 110.407L59.2499 110.407ZM60.2499 113.401C60.2499 113.125 60.0261 112.901 59.7499 112.901C59.4738 112.901 59.2499 113.125 59.2499 113.401L60.2499 113.401ZM59.2499 115.397C59.2499 115.673 59.4738 115.897 59.7499 115.897C60.0261 115.897 60.2499 115.673 60.2499 115.397L59.2499 115.397ZM60.2499 118.391C60.2499 118.115 60.0261 117.891 59.7499 117.891C59.4738 117.891 59.2499 118.115 59.2499 118.391L60.2499 118.391ZM59.2499 120.387C59.2499 120.663 59.4738 120.887 59.7499 120.887C60.0261 120.887 60.2499 120.663 60.2499 120.387L59.2499 120.387ZM60.2499 123.381C60.2499 123.105 60.0261 122.881 59.7499 122.881C59.4738 122.881 59.2499 123.105 59.2499 123.381L60.2499 123.381ZM59.2499 125.377C59.2499 125.653 59.4738 125.877 59.7499 125.877C60.0261 125.877 60.2499 125.653 60.2499 125.377L59.2499 125.377ZM60.2499 128.371C60.2499 128.095 60.0261 127.871 59.7499 127.871C59.4738 127.871 59.2499 128.095 59.2499 128.371L60.2499 128.371ZM59.2499 130.367C59.2499 130.643 59.4738 130.867 59.7499 130.867C60.026 130.867 60.2499 130.643 60.2499 130.367L59.2499 130.367ZM60.2499 133.361C60.2499 133.084 60.026 132.861 59.7499 132.861C59.4738 132.861 59.2499 133.084 59.2499 133.361L60.2499 133.361ZM59.2499 135.357C59.2499 135.633 59.4738 135.857 59.7499 135.857C60.026 135.857 60.2499 135.633 60.2499 135.357L59.2499 135.357ZM60.2499 138.35C60.2499 138.074 60.026 137.85 59.7499 137.85C59.4738 137.85 59.2499 138.074 59.2499 138.35L60.2499 138.35ZM59.2499 140.346C59.2499 140.623 59.4738 140.846 59.7499 140.846C60.026 140.846 60.2499 140.623 60.2499 140.346L59.2499 140.346ZM60.2499 143.34C60.2499 143.064 60.026 142.84 59.7499 142.84C59.4737 142.84 59.2499 143.064 59.2499 143.34L60.2499 143.34ZM59.25 64.5005L59.25 65.4984L60.25 65.4984L60.25 64.5005L59.25 64.5005ZM59.25 68.4924L59.25 70.4883L60.25 70.4883L60.25 68.4924L59.25 68.4924ZM59.25 73.4822L59.25 75.4782L60.25 75.4782L60.25 73.4822L59.25 73.4822ZM59.25 78.4721L59.25 80.468L60.25 80.468L60.25 78.4721L59.25 78.4721ZM59.25 83.462L59.25 85.4579L60.25 85.4579L60.25 83.462L59.25 83.462ZM59.25 88.4518L59.25 90.4478L60.2499 90.4478L60.25 88.4518L59.25 88.4518ZM59.2499 93.4417L59.2499 95.4376L60.2499 95.4376L60.2499 93.4417L59.2499 93.4417ZM59.2499 98.4316L59.2499 100.427L60.2499 100.427L60.2499 98.4316L59.2499 98.4316ZM59.2499 103.421L59.2499 105.417L60.2499 105.417L60.2499 103.421L59.2499 103.421ZM59.2499 108.411L59.2499 110.407L60.2499 110.407L60.2499 108.411L59.2499 108.411ZM59.2499 113.401L59.2499 115.397L60.2499 115.397L60.2499 113.401L59.2499 113.401ZM59.2499 118.391L59.2499 120.387L60.2499 120.387L60.2499 118.391L59.2499 118.391ZM59.2499 123.381L59.2499 125.377L60.2499 125.377L60.2499 123.381L59.2499 123.381ZM59.2499 128.371L59.2499 130.367L60.2499 130.367L60.2499 128.371L59.2499 128.371ZM59.2499 133.361L59.2499 135.357L60.2499 135.357L60.2499 133.361L59.2499 133.361ZM59.2499 138.35L59.2499 140.346L60.2499 140.346L60.2499 138.35L59.2499 138.35ZM59.2499 143.34L59.2499 144.338L60.2499 144.338L60.2499 143.34L59.2499 143.34Z" fill="url(#paint9_linear_137_5919)"/>
<defs>
<radialGradient id="paint0_radial_137_5919" cx="0" cy="0" r="1" gradientUnits="userSpaceOnUse" gradientTransform="translate(94.5 99.5) rotate(-90) scale(94.5 94.5)">
<stop stop-opacity="0"/>
<stop offset="1"/>
</radialGradient>
<linearGradient id="paint1_linear_137_5919" x1="94.5" y1="5.00001" x2="94.5" y2="30" gradientUnits="userSpaceOnUse">
<stop stop-opacity="0.61"/>
<stop offset="1" stop-opacity="0.89"/>
</linearGradient>
<linearGradient id="paint2_linear_137_5919" x1="189" y1="99.5001" x2="164" y2="99.5001" gradientUnits="userSpaceOnUse">
<stop stop-opacity="0.61"/>
<stop offset="1" stop-opacity="0.89"/>
</linearGradient>
<linearGradient id="paint3_linear_137_5919" x1="3.03794e-06" y1="99.5" x2="25" y2="99.5" gradientUnits="userSpaceOnUse">
<stop stop-opacity="0.61"/>
<stop offset="1" stop-opacity="0.89"/>
</linearGradient>
<linearGradient id="paint4_linear_137_5919" x1="164" y1="30.0001" x2="96.5" y2="100" gradientUnits="userSpaceOnUse">
<stop stop-opacity="0.59"/>
<stop offset="1" stop-opacity="0.13"/>
</linearGradient>
<linearGradient id="paint5_linear_137_5919" x1="25" y1="30.0001" x2="95" y2="97.5001" gradientUnits="userSpaceOnUse">
<stop stop-opacity="0.59"/>
<stop offset="1" stop-opacity="0.13"/>
</linearGradient>
<linearGradient id="paint6_linear_137_5919" x1="7.86805e-07" y1="23" x2="36" y2="23" gradientUnits="userSpaceOnUse">
<stop stop-opacity="0.12"/>
<stop offset="1" stop-color="#0B0A0A"/>
</linearGradient>
<linearGradient id="paint7_linear_137_5919" x1="171" y1="5" x2="171" y2="41" gradientUnits="userSpaceOnUse">
<stop stop-opacity="0.12"/>
<stop offset="1" stop-color="#0B0A0A"/>
</linearGradient>
<linearGradient id="paint8_linear_137_5919" x1="94.5" y1="58.7903" x2="94.5" y2="99" gradientUnits="userSpaceOnUse">
<stop stop-color="#00090F" stop-opacity="0"/>
<stop offset="1" stop-color="#00090F"/>
</linearGradient>
<linearGradient id="paint9_linear_137_5919" x1="79.6135" y1="126.333" x2="39.8864" y2="82.5058" gradientUnits="userSpaceOnUse">
<stop offset="0.415" stop-color="#FFD666"/>
<stop offset="1" stop-color="#FFD666" stop-opacity="0"/>
</linearGradient>
<clipPath id="clip0_137_5919">
<rect width="189" height="94" fill="white" transform="matrix(-1 0 0 -1 189 99)"/>
</clipPath>
<clipPath id="clip1_137_5919">
<rect width="189" height="189" fill="white" transform="matrix(-1 0 0 -1 189 194)"/>
</clipPath>
<clipPath id="clip2_137_5919">
<rect width="64" height="64" fill="white" transform="matrix(-1 0 0 -1 161 97.0001)"/>
</clipPath>
<clipPath id="clip3_137_5919">
<rect width="64" height="64" fill="white" transform="matrix(-1 0 0 -1 92 97.0001)"/>
</clipPath>
<clipPath id="clip4_137_5919">
<rect x="27.25" y="113" width="64" height="64" fill="white"/>
</clipPath>
<clipPath id="clip5_137_5919">
<rect x="97.75" y="113" width="64" height="64" fill="white"/>
</clipPath>
</defs>
</svg>
