<svg width="189" height="182" viewBox="0 0 189 182" fill="none" xmlns="http://www.w3.org/2000/svg">
<g clip-path="url(#clip0_137_5919)">
<g clip-path="url(#clip1_137_5919)">
<path fill-rule="evenodd" clip-rule="evenodd" d="M36 194L153 194L189 158L189 41.0001L168.291 33.0352L189 41L153 5.00008L36 5.00006L0 41.0001L1.52588e-05 158L36 194Z" fill="#FF1428" fill-opacity="0.8"/>
<g style="mix-blend-mode:luminosity">
<path fill-rule="evenodd" clip-rule="evenodd" d="M153 194L94.5 99.5001L189 158L189 41L94.5 99.5001L153 5.00002L36 5L94.5 99.5001L-5.11423e-06 41L-5.11423e-06 158L94.5 99.5001L36 194L153 194Z" fill="url(#paint0_radial_137_5919)" fill-opacity="0.05"/>
<path d="M36 5L153 5.00001L164 30L25 30L36 5Z" fill="url(#paint1_linear_137_5919)" fill-opacity="0.51"/>
<path d="M189 41L189 158L164 169L164 30.0001L189 41Z" fill="url(#paint2_linear_137_5919)" fill-opacity="0.51"/>
<path d="M4.80827e-07 158L5.59506e-06 41L25 30L25 169L4.80827e-07 158Z" fill="url(#paint3_linear_137_5919)" fill-opacity="0.51"/>
<path fill-rule="evenodd" clip-rule="evenodd" d="M164 169L25 169L25 30.0001L164 30.0001L164 169ZM164 169L176 150L176 49.0001L164 30.0001L145 18.0001L44 18.0001L25 30.0001L13 49.0001L13 150L25 169L44 181L145 181L164 169Z" fill="black" fill-opacity="0.05"/>
<path d="M164 30.0001L94.5 30.0001L94.5 99.5001L164 99.5001L164 30.0001Z" fill="url(#paint4_linear_137_5919)"/>
<path d="M94.5 99.5001L94.5 30.0001L25 30.0001L25 99.5L94.5 99.5001Z" fill="url(#paint5_linear_137_5919)"/>
<path fill-rule="evenodd" clip-rule="evenodd" d="M94 169H95L95 100L164 100V99.0001L95 99.0001V30.0001H94V99.0001H25V100H94L94 169Z" fill="black" fill-opacity="0.1"/>
<path d="M36 5L0 41L25 30L36 5Z" fill="url(#paint6_linear_137_5919)" fill-opacity="0.33"/>
<path d="M189 41L153 5L164 30L189 41Z" fill="url(#paint7_linear_137_5919)" fill-opacity="0.33"/>
</g>
<g clip-path="url(#clip2_137_5919)">
<path d="M125.251 37.9766C125.251 38.1396 125.22 38.2925 125.157 38.4353C125.097 38.5782 125.013 38.7032 124.906 38.8103C124.799 38.9175 124.673 39.0023 124.528 39.0648C124.385 39.1251 124.232 39.1552 124.069 39.1552L122.981 39.1552L122.981 41.0001L122.549 41.0001L122.549 36.1987L124.069 36.1987C124.232 36.1987 124.385 36.23 124.528 36.2925C124.673 36.3527 124.799 36.4364 124.906 36.5436C125.013 36.6507 125.097 36.7768 125.157 36.9219C125.22 37.0648 125.251 37.2177 125.251 37.3806L125.251 37.9766ZM124.819 37.3806C124.819 37.2735 124.799 37.1742 124.759 37.0827C124.719 36.9889 124.663 36.9074 124.592 36.8382C124.522 36.7668 124.441 36.711 124.347 36.6708C124.256 36.6306 124.156 36.6106 124.049 36.6106L122.981 36.6106L122.981 38.7434L124.049 38.7434C124.156 38.7434 124.256 38.7233 124.347 38.6831C124.441 38.6429 124.522 38.5882 124.592 38.519C124.663 38.4498 124.719 38.3695 124.759 38.278C124.799 38.1842 124.819 38.0838 124.819 37.9766L124.819 37.3806ZM128.094 41.0001L127.866 40.6585C127.772 40.7813 127.655 40.8806 127.515 40.9565C127.374 41.0302 127.22 41.067 127.052 41.067L126.949 41.067C126.81 41.067 126.68 41.0414 126.557 40.99C126.434 40.9364 126.327 40.8639 126.235 40.7724C126.144 40.6809 126.071 40.5737 126.018 40.451C125.967 40.3282 125.941 40.1976 125.941 40.0592L125.941 40.0257C125.941 39.8873 125.967 39.7568 126.018 39.634C126.071 39.5112 126.144 39.4041 126.235 39.3126C126.327 39.221 126.434 39.1496 126.557 39.0983C126.68 39.0447 126.81 39.0179 126.949 39.0179L127.819 39.0179L127.819 38.4889C127.819 38.4063 127.804 38.3293 127.772 38.2579C127.741 38.1842 127.699 38.1206 127.645 38.067C127.592 38.0135 127.528 37.971 127.454 37.9398C127.383 37.9085 127.306 37.8929 127.223 37.8929L126.982 37.8929C126.9 37.8929 126.821 37.9085 126.748 37.9398C126.676 37.971 126.614 38.0135 126.56 38.067C126.507 38.1206 126.464 38.1842 126.433 38.2579C126.402 38.3293 126.386 38.4063 126.386 38.4889L126.386 38.6128L125.974 38.5458L125.974 38.5123C125.974 38.3739 126 38.2434 126.051 38.1206C126.105 37.9978 126.177 37.8907 126.269 37.7992C126.36 37.7077 126.468 37.6362 126.59 37.5849C126.713 37.5313 126.844 37.5045 126.982 37.5045L127.223 37.5045C127.362 37.5045 127.492 37.5313 127.615 37.5849C127.738 37.6362 127.845 37.7077 127.936 37.7992C128.028 37.8907 128.099 37.9978 128.151 38.1206C128.204 38.2434 128.231 38.3739 128.231 38.5123L128.231 41.0001L128.094 41.0001ZM127.819 39.3393L126.949 39.3393C126.866 39.3393 126.788 39.355 126.714 39.3862C126.643 39.4175 126.58 39.461 126.527 39.5168C126.473 39.5704 126.431 39.634 126.4 39.7077C126.368 39.7791 126.353 39.8561 126.353 39.9387L126.353 40.0827C126.353 40.1652 126.368 40.2434 126.4 40.317C126.431 40.3885 126.473 40.451 126.527 40.5045C126.58 40.5581 126.643 40.6005 126.714 40.6318C126.788 40.663 126.866 40.6786 126.949 40.6786L127.223 40.6786C127.306 40.6786 127.383 40.663 127.454 40.6318C127.528 40.6005 127.592 40.5581 127.645 40.5045C127.699 40.451 127.741 40.3885 127.772 40.317C127.804 40.2434 127.819 40.1652 127.819 40.0827L127.819 39.3393ZM131.412 40.1295C131.412 40.2679 131.384 40.3952 131.328 40.5112C131.272 40.6251 131.196 40.7233 131.1 40.8059C131.004 40.8885 130.893 40.9532 130.766 41.0001C130.641 41.0447 130.509 41.067 130.371 41.067L130.096 41.067C129.958 41.067 129.825 41.0414 129.698 40.99C129.573 40.9364 129.462 40.8639 129.366 40.7724C129.272 40.6809 129.196 40.5737 129.138 40.451C129.083 40.3282 129.055 40.1976 129.055 40.0592L129.055 39.9219L129.467 39.855L129.467 40.0827C129.467 40.1652 129.483 40.2434 129.517 40.317C129.552 40.3885 129.599 40.451 129.657 40.5045C129.715 40.5581 129.782 40.6005 129.858 40.6318C129.934 40.663 130.013 40.6786 130.096 40.6786L130.371 40.6786C130.453 40.6786 130.532 40.6664 130.608 40.6418C130.684 40.6172 130.751 40.5827 130.809 40.538C130.869 40.4911 130.916 40.4353 130.95 40.3706C130.985 40.3059 131.003 40.2322 131.003 40.1496C131.003 40.0268 130.977 39.9264 130.923 39.8483C130.869 39.7702 130.798 39.7054 130.709 39.6541C130.622 39.6005 130.521 39.557 130.407 39.5235C130.296 39.4878 130.181 39.4532 130.062 39.4197C129.944 39.384 129.828 39.3438 129.714 39.2992C129.603 39.2545 129.502 39.1965 129.413 39.1251C129.326 39.0514 129.256 38.9599 129.202 38.8505C129.148 38.7411 129.122 38.605 129.122 38.442C129.122 38.3036 129.148 38.1775 129.202 38.0637C129.256 37.9476 129.328 37.8483 129.42 37.7657C129.511 37.6831 129.617 37.6195 129.738 37.5748C129.86 37.528 129.991 37.5045 130.129 37.5045L130.371 37.5045C130.509 37.5045 130.64 37.5313 130.762 37.5849C130.885 37.6362 130.992 37.7077 131.084 37.7992C131.175 37.8907 131.247 37.9978 131.298 38.1206C131.352 38.2434 131.378 38.3739 131.378 38.5123L131.378 38.5257L130.967 38.5927L130.967 38.4889C130.967 38.4063 130.951 38.3293 130.92 38.2579C130.888 38.1842 130.846 38.1206 130.792 38.067C130.739 38.0135 130.675 37.971 130.602 37.9398C130.53 37.9085 130.453 37.8929 130.371 37.8929L130.129 37.8929C130.047 37.8929 129.969 37.9052 129.895 37.9297C129.824 37.9543 129.761 37.99 129.708 38.0369C129.654 38.0815 129.612 38.1362 129.58 38.201C129.549 38.2657 129.533 38.3393 129.533 38.4219C129.533 38.5402 129.56 38.6373 129.614 38.7132C129.667 38.7869 129.738 38.8494 129.825 38.9007C129.914 38.9521 130.015 38.9956 130.126 39.0313C130.24 39.0648 130.355 39.1005 130.471 39.1385C130.589 39.1742 130.704 39.2155 130.816 39.2623C130.93 39.3092 131.03 39.3695 131.117 39.4431C131.206 39.5168 131.278 39.6094 131.331 39.721C131.385 39.8304 131.412 39.9666 131.412 40.1295ZM133.451 41.0001C133.326 41.0001 133.208 40.9766 133.096 40.9297C132.987 40.8829 132.891 40.8181 132.808 40.7356C132.728 40.653 132.663 40.557 132.614 40.4476C132.567 40.3382 132.544 40.221 132.544 40.096L132.544 37.9632L131.927 37.9632L131.927 37.5715L132.544 37.5715L132.544 36.7478L132.955 36.6809L132.955 37.5715L133.826 37.5715L133.826 37.9632L132.955 37.9632L132.955 40.1161C132.955 40.1853 132.968 40.2501 132.992 40.3103C133.019 40.3684 133.055 40.4197 133.099 40.4643C133.144 40.509 133.196 40.5447 133.257 40.5715C133.317 40.596 133.382 40.6083 133.451 40.6083L133.826 40.6083L133.826 41.0001L133.451 41.0001Z" fill="#FDCED2"/>
<path d="M154.112 54.6809C153.949 54.6809 153.796 54.6474 153.653 54.5804C153.51 54.5157 153.385 54.4275 153.278 54.3159C153.171 54.2065 153.086 54.0782 153.023 53.9309C152.963 53.7858 152.933 53.6318 152.933 53.4688L152.933 53.1239C152.933 52.961 152.963 52.8059 153.023 52.6585C153.086 52.5135 153.171 52.3851 153.278 52.2735C153.385 52.1641 153.51 52.076 153.653 52.009C153.796 51.9443 153.949 51.9119 154.112 51.9119L154.302 51.9119L154.373 52.3438L154.112 52.3438C154.004 52.3438 153.904 52.365 153.81 52.4074C153.719 52.4521 153.637 52.5112 153.566 52.5849C153.497 52.6585 153.442 52.7434 153.402 52.8393C153.362 52.9376 153.342 53.0402 153.342 53.1474L153.342 53.4487C153.342 53.5559 153.362 53.6574 153.402 53.7534C153.442 53.8494 153.497 53.9342 153.566 54.0079C153.637 54.0815 153.719 54.1396 153.81 54.182C153.904 54.2266 154.004 54.2489 154.112 54.2489L154.256 54.2489C154.421 54.2489 154.558 54.2166 154.667 54.1518C154.777 54.0871 154.869 54.0012 154.945 53.894C155.023 53.7869 155.089 53.6652 155.143 53.5291C155.196 53.3952 155.25 53.2568 155.304 53.1139C155.357 52.971 155.416 52.8315 155.481 52.6954C155.546 52.5614 155.626 52.4409 155.722 52.3338C155.82 52.2266 155.94 52.1407 156.08 52.076C156.221 52.0112 156.394 51.9789 156.599 51.9789L156.69 51.9789C156.853 51.9789 157.006 52.009 157.148 52.0693C157.291 52.1318 157.416 52.2166 157.523 52.3237C157.631 52.4309 157.714 52.5559 157.775 52.6987C157.837 52.8438 157.868 52.9978 157.868 53.1608L157.868 53.4688C157.868 53.6318 157.837 53.7847 157.775 53.9275C157.714 54.0704 157.631 54.1954 157.523 54.3025C157.416 54.4097 157.291 54.4934 157.148 54.5536C157.006 54.6161 156.853 54.6474 156.69 54.6474L156.566 54.6474L156.496 54.2155L156.69 54.2155C156.797 54.2155 156.896 54.1954 156.988 54.1552C157.081 54.115 157.163 54.0603 157.232 53.9911C157.301 53.9219 157.356 53.8405 157.396 53.7467C157.436 53.6552 157.456 53.5559 157.456 53.4487L157.456 53.1809C157.456 53.0737 157.436 52.9733 157.396 52.8795C157.356 52.788 157.301 52.7065 157.232 52.6351C157.163 52.5659 157.081 52.5112 156.988 52.471C156.896 52.4309 156.797 52.4108 156.69 52.4108L156.599 52.4108C156.445 52.4108 156.316 52.4431 156.211 52.5079C156.106 52.5726 156.016 52.6585 155.94 52.7657C155.866 52.8728 155.801 52.9934 155.746 53.1273C155.692 53.2635 155.636 53.403 155.578 53.5458C155.522 53.6887 155.46 53.8271 155.391 53.961C155.324 54.0972 155.24 54.2188 155.14 54.326C155.041 54.4331 154.921 54.519 154.778 54.5838C154.635 54.6485 154.461 54.6809 154.256 54.6809L154.112 54.6809ZM153 57.6273L153.348 57.3996C153.221 57.3059 153.119 57.1887 153.044 57.0481C152.97 56.9074 152.933 56.7534 152.933 56.586L152.933 56.4822C152.933 56.3438 152.959 56.2132 153.01 56.0905C153.064 55.9677 153.136 55.8606 153.228 55.769C153.319 55.6775 153.426 55.605 153.549 55.5514C153.672 55.5001 153.802 55.4744 153.941 55.4744L156.429 55.4744L156.429 55.8862L153.917 55.8862C153.835 55.8862 153.757 55.9018 153.683 55.9331C153.612 55.9643 153.549 56.0068 153.496 56.0603C153.442 56.1139 153.4 56.1764 153.368 56.2478C153.337 56.3215 153.321 56.3996 153.321 56.4822L153.321 56.7568C153.321 56.8393 153.337 56.9164 153.368 56.9878C153.4 57.0614 153.442 57.1251 153.496 57.1786C153.549 57.2322 153.612 57.2746 153.683 57.3059C153.757 57.3371 153.835 57.3527 153.917 57.3527L156.429 57.3527L156.429 57.7646L153 57.7646L153 57.6273ZM153 60.4666L155.511 60.4666C155.594 60.4666 155.671 60.451 155.742 60.4197C155.816 60.3885 155.879 60.346 155.933 60.2925C155.987 60.2389 156.029 60.1753 156.06 60.1016C156.092 60.0302 156.107 59.9532 156.107 59.8706L156.107 59.596C156.107 59.5135 156.092 59.4353 156.06 59.3617C156.029 59.2902 155.987 59.2277 155.933 59.1742C155.879 59.1206 155.816 59.0782 155.742 59.0469C155.671 59.0157 155.594 59.0001 155.511 59.0001L153 59.0001L153 58.5882L156.429 58.5882L156.429 58.7255L156.08 58.9498C156.208 59.0436 156.308 59.1608 156.382 59.3014C156.458 59.4443 156.496 59.5994 156.496 59.7668L156.496 59.8706C156.496 60.009 156.469 60.1396 156.415 60.2623C156.364 60.3851 156.292 60.4922 156.201 60.5838C156.109 60.6753 156.002 60.7467 155.879 60.7981C155.757 60.8516 155.626 60.8784 155.488 60.8784L153 60.8784L153 60.4666ZM157.41 62.8806C157.41 62.8114 157.396 62.7467 157.369 62.6864C157.345 62.6284 157.31 62.5771 157.266 62.5324C157.221 62.4878 157.169 62.4521 157.108 62.4253C157.048 62.4007 156.983 62.3885 156.914 62.3885L156.429 62.3885L156.429 63.1887L156.037 63.1887L156.037 62.3885L153 62.3885L153 61.9766L156.037 61.9766L156.037 61.3572L156.429 61.3572L156.429 61.9766L156.894 61.9766C157.019 61.9766 157.136 62.0001 157.246 62.0469C157.357 62.0938 157.454 62.1585 157.537 62.2411C157.619 62.3237 157.684 62.4197 157.731 62.5291C157.778 62.6385 157.801 62.7556 157.801 62.8806L157.801 63.259L157.41 63.259L157.41 62.8806ZM153 63.8081L157.801 63.8081L157.801 64.2199L153 64.2199L153 63.8081ZM153.941 67.4074C153.802 67.4074 153.672 67.3806 153.549 67.3271C153.426 67.2757 153.319 67.2043 153.228 67.1128C153.136 67.0213 153.064 66.9141 153.01 66.7914C152.959 66.6686 152.933 66.538 152.933 66.3996L152.933 66.1251C152.933 65.9867 152.959 65.8561 153.01 65.7333C153.064 65.6106 153.136 65.5034 153.228 65.4119C153.319 65.3204 153.426 65.2478 153.549 65.1943C153.672 65.1429 153.802 65.1172 153.941 65.1172L155.488 65.1172C155.626 65.1172 155.757 65.1429 155.879 65.1943C156.002 65.2478 156.109 65.3204 156.201 65.4119C156.292 65.5034 156.364 65.6106 156.415 65.7333C156.469 65.8561 156.496 65.9867 156.496 66.1251L156.496 66.3996C156.496 66.538 156.469 66.6686 156.415 66.7914C156.364 66.9141 156.292 67.0213 156.201 67.1128C156.109 67.2043 156.002 67.2757 155.879 67.3271C155.757 67.3806 155.626 67.4074 155.488 67.4074L153.941 67.4074ZM155.511 66.9956C155.594 66.9956 155.671 66.98 155.742 66.9487C155.816 66.9175 155.879 66.8751 155.933 66.8215C155.987 66.7679 156.029 66.7043 156.06 66.6306C156.092 66.5592 156.107 66.4822 156.107 66.3996L156.107 66.1251C156.107 66.0425 156.092 65.9643 156.06 65.8907C156.029 65.8193 155.987 65.7568 155.933 65.7032C155.879 65.6496 155.816 65.6072 155.742 65.576C155.671 65.5447 155.594 65.5291 155.511 65.5291L153.917 65.5291C153.835 65.5291 153.757 65.5447 153.683 65.576C153.612 65.6072 153.549 65.6496 153.496 65.7032C153.442 65.7568 153.4 65.8193 153.368 65.8907C153.337 65.9643 153.321 66.0425 153.321 66.1251L153.321 66.3996C153.321 66.4822 153.337 66.5592 153.368 66.6306C153.4 66.7043 153.442 66.7679 153.496 66.8215C153.549 66.8751 153.612 66.9175 153.683 66.9487C153.757 66.98 153.835 66.9956 153.917 66.9956L155.511 66.9956ZM153 71.1172L153 70.8929L155.585 70.0893L155.762 70.076L155.585 70.0626L153 69.259L153 69.0313L156.429 67.8862L156.429 68.3047L153.837 69.1217L153.66 69.1351L153.837 69.1485L156.429 69.9521L156.429 70.1998L153.837 71.0001L153.66 71.0135L153.837 71.0268L156.429 71.8438L156.429 72.2623L153 71.1172ZM153.941 75.0347C153.802 75.0347 153.672 75.0079 153.549 74.9543C153.426 74.903 153.319 74.8315 153.228 74.74C153.136 74.6485 153.064 74.5414 153.01 74.4186C152.959 74.2958 152.933 74.1652 152.933 74.0268L152.933 73.7523C152.933 73.6139 152.959 73.4833 153.01 73.3606C153.064 73.2378 153.136 73.1306 153.228 73.0391C153.319 72.9476 153.426 72.8751 153.549 72.8215C153.672 72.7702 153.802 72.7445 153.941 72.7445L155.488 72.7445C155.626 72.7445 155.757 72.7702 155.879 72.8215C156.002 72.8751 156.109 72.9476 156.201 73.0391C156.292 73.1306 156.364 73.2378 156.415 73.3606C156.469 73.4833 156.496 73.6139 156.496 73.7523L156.496 74.0268C156.496 74.1652 156.469 74.2958 156.415 74.4186C156.364 74.5414 156.292 74.6485 156.201 74.74C156.109 74.8315 156.002 74.903 155.879 74.9543C155.757 75.0079 155.626 75.0347 155.488 75.0347L154.681 75.0347L154.681 73.1563L153.917 73.1563C153.835 73.1563 153.757 73.1719 153.683 73.2032C153.612 73.2344 153.549 73.2768 153.496 73.3304C153.442 73.384 153.4 73.4465 153.368 73.5179C153.337 73.5916 153.321 73.6697 153.321 73.7523L153.321 74.0268C153.321 74.1094 153.337 74.1864 153.368 74.2579C153.4 74.3315 153.442 74.3952 153.496 74.4487C153.549 74.5023 153.612 74.5447 153.683 74.576C153.757 74.6072 153.835 74.6228 153.917 74.6228L154.145 74.6228L154.078 75.0347L153.941 75.0347ZM155.511 74.6228C155.594 74.6228 155.671 74.6072 155.742 74.576C155.816 74.5447 155.879 74.5023 155.933 74.4487C155.987 74.3952 156.029 74.3315 156.06 74.2579C156.092 74.1864 156.107 74.1094 156.107 74.0268L156.107 73.7523C156.107 73.6697 156.092 73.5916 156.06 73.5179C156.029 73.4465 155.987 73.384 155.933 73.3304C155.879 73.2768 155.816 73.2344 155.742 73.2032C155.671 73.1719 155.594 73.1563 155.511 73.1563L155.002 73.1563L155.002 74.6228L155.511 74.6228ZM156.037 76.8661C156.037 76.7835 156.021 76.7054 155.99 76.6318C155.959 76.5603 155.916 76.4978 155.863 76.4443C155.809 76.3907 155.746 76.3483 155.672 76.317C155.6 76.2858 155.523 76.2702 155.441 76.2702L153 76.2702L153 75.8583L156.429 75.8583L156.429 75.9956L156.08 76.2199C156.208 76.3137 156.308 76.4309 156.382 76.5715C156.458 76.7143 156.496 76.8695 156.496 77.0369L156.496 77.278L156.037 77.278L156.037 76.8661Z" fill="#FDCED2"/>
<g opacity="0.7">
<path d="M102.703 71.6887L105 71.6887L105 72.1206L102.71 72.1206L100.199 73.3628L100.199 72.8974L102.194 71.9097L100.199 70.9219L100.199 70.4565L102.703 71.6887ZM105 67.9621L104.652 68.1898C104.779 68.2835 104.881 68.4007 104.956 68.5414C105.03 68.682 105.067 68.836 105.067 69.0034L105.067 69.1072C105.067 69.2456 105.041 69.3762 104.99 69.4989C104.936 69.6217 104.864 69.7289 104.772 69.8204C104.681 69.9119 104.574 69.9844 104.451 70.038C104.328 70.0893 104.198 70.115 104.059 70.115L101.571 70.115L101.571 69.7032L104.083 69.7032C104.165 69.7032 104.243 69.6876 104.317 69.6563C104.388 69.6251 104.451 69.5827 104.504 69.5291C104.558 69.4755 104.6 69.413 104.632 69.3416C104.663 69.2679 104.679 69.1898 104.679 69.1072L104.679 68.8327C104.679 68.7501 104.663 68.6731 104.632 68.6016C104.6 68.528 104.558 68.4643 104.504 68.4108C104.451 68.3572 104.388 68.3148 104.317 68.2835C104.243 68.2523 104.165 68.2367 104.083 68.2367L101.571 68.2367L101.571 67.8248L105 67.8248L105 67.9621ZM104.059 64.711C104.198 64.711 104.328 64.7378 104.451 64.7914C104.574 64.8427 104.681 64.9141 104.772 65.0056C104.864 65.0972 104.936 65.2043 104.99 65.3271C105.041 65.4498 105.067 65.5804 105.067 65.7188L105.067 65.9934C105.067 66.1318 105.041 66.2623 104.99 66.3851C104.936 66.5079 104.864 66.615 104.772 66.7065C104.681 66.7981 104.574 66.8706 104.451 66.9242C104.328 66.9755 104.198 67.0012 104.059 67.0012L102.512 67.0012C102.374 67.0012 102.243 66.9755 102.121 66.9242C101.998 66.8706 101.891 66.7981 101.799 66.7065C101.708 66.615 101.636 66.5079 101.585 66.3851C101.531 66.2623 101.504 66.1318 101.504 65.9934L101.504 65.7188C101.504 65.5804 101.531 65.4498 101.585 65.3271C101.636 65.2043 101.708 65.0972 101.799 65.0056C101.891 64.9141 101.998 64.8427 102.121 64.7914C102.243 64.7378 102.374 64.711 102.512 64.711L102.65 64.711L102.717 65.1228L102.489 65.1228C102.406 65.1228 102.329 65.1385 102.258 65.1697C102.184 65.201 102.121 65.2434 102.067 65.2969C102.013 65.3505 101.971 65.4141 101.94 65.4878C101.908 65.5592 101.893 65.6362 101.893 65.7188L101.893 65.9934C101.893 66.076 101.908 66.1541 101.94 66.2277C101.971 66.2992 102.013 66.3617 102.067 66.4152C102.121 66.4688 102.184 66.5112 102.258 66.5425C102.329 66.5737 102.406 66.5893 102.489 66.5893L104.083 66.5893C104.165 66.5893 104.243 66.5737 104.317 66.5425C104.388 66.5112 104.451 66.4688 104.504 66.4152C104.558 66.3617 104.6 66.2992 104.632 66.2277C104.663 66.1541 104.679 66.076 104.679 65.9934L104.679 65.7188C104.679 65.6362 104.663 65.5592 104.632 65.4878C104.6 65.4141 104.558 65.3505 104.504 65.2969C104.451 65.2434 104.388 65.201 104.317 65.1697C104.243 65.1385 104.165 65.1228 104.083 65.1228L103.855 65.1228L103.922 64.711L104.059 64.711ZM104.059 61.5972C104.198 61.5972 104.328 61.6239 104.451 61.6775C104.574 61.7289 104.681 61.8003 104.772 61.8918C104.864 61.9833 104.936 62.0905 104.99 62.2132C105.041 62.336 105.067 62.4666 105.067 62.605L105.067 62.8795C105.067 63.0179 105.041 63.1485 104.99 63.2713C104.936 63.394 104.864 63.5012 104.772 63.5927C104.681 63.6842 104.574 63.7568 104.451 63.8103C104.328 63.8617 104.198 63.8873 104.059 63.8873L102.512 63.8873C102.374 63.8873 102.243 63.8617 102.121 63.8103C101.998 63.7568 101.891 63.6842 101.799 63.5927C101.708 63.5012 101.636 63.394 101.585 63.2713C101.531 63.1485 101.504 63.0179 101.504 62.8795L101.504 62.605C101.504 62.4666 101.531 62.336 101.585 62.2132C101.636 62.0905 101.708 61.9833 101.799 61.8918C101.891 61.8003 101.998 61.7289 102.121 61.6775C102.243 61.6239 102.374 61.5972 102.512 61.5972L102.65 61.5972L102.717 62.009L102.489 62.009C102.406 62.009 102.329 62.0246 102.258 62.0559C102.184 62.0871 102.121 62.1295 102.067 62.1831C102.013 62.2367 101.971 62.3003 101.94 62.3739C101.908 62.4454 101.893 62.5224 101.893 62.605L101.893 62.8795C101.893 62.9621 101.908 63.0402 101.94 63.1139C101.971 63.1853 102.013 63.2478 102.067 63.3014C102.121 63.355 102.184 63.3974 102.258 63.4286C102.329 63.4599 102.406 63.4755 102.489 63.4755L104.083 63.4755C104.165 63.4755 104.243 63.4599 104.317 63.4286C104.388 63.3974 104.451 63.355 104.504 63.3014C104.558 63.2478 104.6 63.1853 104.632 63.1139C104.663 63.0402 104.679 62.9621 104.679 62.8795L104.679 62.605C104.679 62.5224 104.663 62.4454 104.632 62.3739C104.6 62.3003 104.558 62.2367 104.504 62.1831C104.451 62.1295 104.388 62.0871 104.317 62.0559C104.243 62.0246 104.165 62.009 104.083 62.009L103.855 62.009L103.922 61.5972L104.059 61.5972ZM105 58.6206L104.658 58.8483C104.781 58.942 104.881 59.0592 104.956 59.1998C105.03 59.3405 105.067 59.4945 105.067 59.6619L105.067 59.7657C105.067 59.9041 105.041 60.0347 104.99 60.1574C104.936 60.2802 104.864 60.3873 104.772 60.4789C104.681 60.5704 104.574 60.6429 104.451 60.6965C104.328 60.7478 104.198 60.7735 104.059 60.7735L104.026 60.7735C103.887 60.7735 103.757 60.7478 103.634 60.6965C103.511 60.6429 103.404 60.5704 103.313 60.4789C103.221 60.3873 103.15 60.2802 103.098 60.1574C103.045 60.0347 103.018 59.9041 103.018 59.7657L103.018 58.8952L102.489 58.8952C102.406 58.8952 102.329 58.9108 102.258 58.942C102.184 58.9733 102.121 59.0157 102.067 59.0693C102.013 59.1228 101.971 59.1864 101.94 59.2601C101.908 59.3315 101.893 59.4085 101.893 59.4911L101.893 59.7322C101.893 59.8148 101.908 59.8929 101.94 59.9666C101.971 60.038 102.013 60.1005 102.067 60.1541C102.121 60.2077 102.184 60.2501 102.258 60.2813C102.329 60.3126 102.406 60.3282 102.489 60.3282L102.613 60.3282L102.546 60.74L102.512 60.74C102.374 60.74 102.243 60.7143 102.121 60.663C101.998 60.6094 101.891 60.5369 101.799 60.4454C101.708 60.3539 101.636 60.2467 101.585 60.1239C101.531 60.0012 101.504 59.8706 101.504 59.7322L101.504 59.4911C101.504 59.3527 101.531 59.2222 101.585 59.0994C101.636 58.9766 101.708 58.8695 101.799 58.778C101.891 58.6864 101.998 58.615 102.121 58.5637C102.243 58.5101 102.374 58.4833 102.512 58.4833L105 58.4833L105 58.6206ZM103.339 58.8952L103.339 59.7657C103.339 59.8483 103.355 59.9264 103.386 60.0001C103.417 60.0715 103.461 60.134 103.517 60.1876C103.57 60.2411 103.634 60.2835 103.708 60.3148C103.779 60.346 103.856 60.3617 103.939 60.3617L104.083 60.3617C104.165 60.3617 104.243 60.346 104.317 60.3148C104.388 60.2835 104.451 60.2411 104.504 60.1876C104.558 60.134 104.6 60.0715 104.632 60.0001C104.663 59.9264 104.679 59.8483 104.679 59.7657L104.679 59.4911C104.679 59.4085 104.663 59.3315 104.632 59.2601C104.6 59.1864 104.558 59.1228 104.504 59.0693C104.451 59.0157 104.388 58.9733 104.317 58.942C104.243 58.9108 104.165 58.8952 104.083 58.8952L103.339 58.8952Z" fill="#FDCED2"/>
</g>
<g opacity="0.7">
<path d="M131.319 90.1117C131.319 89.9487 131.35 89.7958 131.413 89.653C131.473 89.5101 131.557 89.3851 131.664 89.278C131.771 89.1708 131.896 89.086 132.039 89.0235C132.182 88.9632 132.335 88.9331 132.498 88.9331H132.839C133.002 88.9331 133.156 88.9632 133.301 89.0235C133.444 89.086 133.569 89.1708 133.676 89.278C133.783 89.3851 133.868 89.5101 133.931 89.653C133.991 89.7958 134.021 89.9487 134.021 90.1117V92.6898C134.021 92.8527 133.991 93.0056 133.931 93.1485C133.868 93.2914 133.783 93.4164 133.676 93.5235C133.569 93.6306 133.444 93.7143 133.301 93.7746C133.156 93.8371 133.002 93.8684 132.839 93.8684H132.498C132.335 93.8684 132.182 93.8371 132.039 93.7746C131.896 93.7143 131.771 93.6306 131.664 93.5235C131.557 93.4164 131.473 93.2914 131.413 93.1485C131.35 93.0056 131.319 92.8527 131.319 92.6898V90.1117ZM131.751 92.6898C131.751 92.7969 131.771 92.8963 131.811 92.9878C131.852 93.0815 131.906 93.163 131.975 93.2322C132.045 93.3014 132.126 93.3561 132.22 93.3963C132.311 93.4364 132.411 93.4565 132.518 93.4565H132.819C132.926 93.4565 133.027 93.4364 133.121 93.3963C133.212 93.3561 133.294 93.3014 133.365 93.2322C133.434 93.163 133.489 93.0815 133.529 92.9878C133.569 92.8963 133.589 92.7969 133.589 92.6898V90.1117C133.589 90.0045 133.569 89.9041 133.529 89.8103C133.489 89.7188 133.434 89.6373 133.365 89.5659C133.294 89.4967 133.212 89.442 133.121 89.4018C133.027 89.3617 132.926 89.3416 132.819 89.3416H132.518C132.411 89.3416 132.311 89.3617 132.22 89.4018C132.126 89.442 132.045 89.4967 131.975 89.5659C131.906 89.6373 131.852 89.7188 131.811 89.8103C131.771 89.9041 131.751 90.0045 131.751 90.1117V92.6898ZM127.539 89.0001H127.763L128.567 91.5849L128.58 91.7623L128.594 91.5849L129.397 89.0001H129.625L130.77 92.4286H130.352L129.535 89.8371L129.521 89.6597L129.508 89.8371L128.704 92.4286H128.456L127.656 89.8371L127.643 89.6597L127.629 89.8371L126.812 92.4286H126.394L127.539 89.0001ZM125.775 89.0001V93.8014H125.363V89.0001H125.775Z" fill="#FDCED2"/>
</g>
<g opacity="0.3">
<path fill-rule="evenodd" clip-rule="evenodd" d="M107.005 90.0626L105.293 88.3509C105.098 88.1559 104.782 88.1559 104.587 88.3509C104.392 88.5459 104.392 88.862 104.587 89.057L105.547 90.0177C104.513 90.0081 103.735 89.8154 103.275 89.3122C102.797 88.7882 102.611 88.3731 102.611 86.9994C102.611 86.7236 102.388 86.5001 102.112 86.5001C101.836 86.5001 101.613 86.7236 101.613 86.9994C101.613 88.5603 101.854 89.2366 102.538 89.9858C103.179 90.6876 104.166 90.9744 105.349 91.0123L104.584 91.777C104.389 91.972 104.389 92.2882 104.584 92.4832C104.779 92.6782 105.095 92.6782 105.29 92.4832L107.005 90.7688C107.2 90.5738 107.2 90.2576 107.005 90.0626Z" fill="black"/>
<path fill-rule="evenodd" clip-rule="evenodd" d="M150.297 90.0626L152.01 88.3509C152.205 88.1559 152.521 88.1559 152.716 88.3509C152.911 88.5459 152.911 88.862 152.716 89.057L151.755 90.0177C152.79 90.0082 153.568 89.8155 154.028 89.3123C154.507 88.7883 154.692 88.3732 154.692 86.9995C154.692 86.7237 154.916 86.5001 155.192 86.5001C155.467 86.5001 155.691 86.7237 155.691 86.9995C155.691 88.5604 155.45 89.2366 154.765 89.9858C154.124 90.6877 153.137 90.9744 151.954 91.0124L152.719 91.777C152.914 91.972 152.914 92.2882 152.719 92.4832C152.524 92.6782 152.207 92.6782 152.012 92.4832L150.297 90.7688C150.102 90.5738 150.102 90.2576 150.297 90.0626Z" fill="black"/>
<path fill-rule="evenodd" clip-rule="evenodd" d="M150.299 40.0669L152.011 41.7786C152.206 41.9736 152.522 41.9736 152.717 41.7786C152.912 41.5836 152.912 41.2675 152.717 41.0725L151.756 40.1118C152.791 40.1214 153.569 40.3141 154.028 40.8173C154.507 41.3413 154.692 41.7564 154.692 43.1301C154.692 43.4059 154.916 43.6294 155.192 43.6294C155.467 43.6294 155.691 43.4059 155.691 43.1301C155.691 41.5692 155.45 40.893 154.766 40.1437C154.124 39.4419 153.138 39.1551 151.955 39.1172L152.72 38.3525C152.915 38.1575 152.915 37.8413 152.72 37.6463C152.525 37.4513 152.209 37.4513 152.014 37.6463L150.299 39.3607C150.104 39.5557 150.104 39.8719 150.299 40.0669Z" fill="black"/>
<path fill-rule="evenodd" clip-rule="evenodd" d="M107.007 40.0669L105.294 41.7786C105.099 41.9736 104.783 41.9736 104.588 41.7786C104.393 41.5836 104.393 41.2675 104.588 41.0725L105.549 40.1118C104.514 40.1214 103.736 40.314 103.276 40.8172C102.797 41.3413 102.612 41.7564 102.612 43.1301C102.612 43.4058 102.388 43.6294 102.112 43.6294C101.836 43.6294 101.613 43.4058 101.613 43.1301C101.613 41.5692 101.854 40.8929 102.538 40.1437C103.18 39.4418 104.167 39.1551 105.35 39.1171L104.585 38.3525C104.39 38.1575 104.39 37.8413 104.585 37.6463C104.78 37.4513 105.096 37.4513 105.291 37.6463L107.007 39.3607C107.202 39.5557 107.202 39.8719 107.007 40.0669Z" fill="black"/>
</g>
</g>
<g clip-path="url(#clip3_137_5919)">
<g opacity="0.7">
<path d="M87.0234 57.2512C86.8605 57.2512 86.7076 57.2199 86.5647 57.1574C86.4219 57.0972 86.2969 57.0135 86.1897 56.9063C86.0826 56.7992 85.9978 56.6731 85.9353 56.528C85.875 56.3851 85.8449 56.2322 85.8449 56.0693L85.8449 54.9811L84 54.9811L84 54.5492L88.8013 54.5492L88.8013 56.0693C88.8013 56.2322 88.7701 56.3851 88.7076 56.528C88.6473 56.6731 88.5636 56.7992 88.4565 56.9063C88.3493 57.0135 88.2232 57.0972 88.0781 57.1574C87.9353 57.2199 87.7824 57.2512 87.6194 57.2512L87.0234 57.2512ZM87.6194 56.8193C87.7266 56.8193 87.8259 56.7992 87.9174 56.759C88.0112 56.7188 88.0926 56.663 88.1618 56.5916C88.2333 56.5224 88.2891 56.4409 88.3292 56.3472C88.3694 56.2556 88.3895 56.1563 88.3895 56.0492L88.3895 54.9811L86.2567 54.9811L86.2567 56.0492C86.2567 56.1563 86.2768 56.2556 86.317 56.3472C86.3571 56.4409 86.4118 56.5224 86.481 56.5916C86.5502 56.663 86.6306 56.7188 86.7221 56.759C86.8158 56.7992 86.9163 56.8193 87.0234 56.8193L87.6194 56.8193ZM87.0368 58.9487C87.0368 58.8661 87.0212 58.788 86.99 58.7143C86.9587 58.6429 86.9163 58.5804 86.8627 58.5268C86.8092 58.4733 86.7455 58.4309 86.6719 58.3996C86.6004 58.3684 86.5234 58.3527 86.4408 58.3527L84 58.3527L84 57.9409L87.4286 57.9409L87.4286 58.0782L87.0804 58.3025C87.2076 58.3963 87.308 58.5135 87.3817 58.6541C87.4576 58.7969 87.4955 58.9521 87.4955 59.1195L87.4955 59.3606L87.0368 59.3606L87.0368 58.9487ZM84.9408 62.1998C84.8025 62.1998 84.6719 62.1731 84.5491 62.1195C84.4263 62.0681 84.3192 61.9967 84.2277 61.9052C84.1362 61.8137 84.0636 61.7065 84.01 61.5838C83.9587 61.461 83.933 61.3304 83.933 61.192L83.933 60.9175C83.933 60.7791 83.9587 60.6485 84.01 60.5257C84.0636 60.403 84.1362 60.2958 84.2277 60.2043C84.3192 60.1128 84.4263 60.0402 84.5491 59.9867C84.6719 59.9353 84.8025 59.9097 84.9408 59.9097L86.4877 59.9097C86.6261 59.9097 86.7567 59.9353 86.8795 59.9867C87.0022 60.0402 87.1094 60.1128 87.2009 60.2043C87.2924 60.2958 87.3638 60.403 87.4152 60.5257C87.4687 60.6485 87.4955 60.7791 87.4955 60.9175L87.4955 61.192C87.4955 61.3304 87.4687 61.461 87.4152 61.5838C87.3638 61.7065 87.2924 61.8137 87.2009 61.9052C87.1094 61.9967 87.0022 62.0681 86.8795 62.1195C86.7567 62.1731 86.6261 62.1998 86.4877 62.1998L85.6808 62.1998L85.6808 60.3215L84.9174 60.3215C84.8348 60.3215 84.7567 60.3371 84.683 60.3684C84.6116 60.3996 84.5491 60.442 84.4955 60.4956C84.442 60.5492 84.3996 60.6117 84.3683 60.6831C84.3371 60.7568 84.3214 60.8349 84.3214 60.9175L84.3214 61.192C84.3214 61.2746 84.3371 61.3516 84.3683 61.4231C84.3996 61.4967 84.442 61.5603 84.4955 61.6139C84.5491 61.6675 84.6116 61.7099 84.683 61.7411C84.7567 61.7724 84.8348 61.788 84.9174 61.788L85.1451 61.788L85.0781 62.1998L84.9408 62.1998ZM86.5112 61.788C86.5937 61.788 86.6708 61.7724 86.7422 61.7411C86.8158 61.7099 86.8795 61.6675 86.933 61.6139C86.9866 61.5603 87.029 61.4967 87.0603 61.4231C87.0915 61.3516 87.1071 61.2746 87.1071 61.192L87.1071 60.9175C87.1071 60.8349 87.0915 60.7568 87.0603 60.6831C87.029 60.6117 86.9866 60.5492 86.933 60.4956C86.8795 60.442 86.8158 60.3996 86.7422 60.3684C86.6708 60.3371 86.5937 60.3215 86.5112 60.3215L86.0022 60.3215L86.0022 61.788L86.5112 61.788ZM84.8705 65.3806C84.7321 65.3806 84.6049 65.3527 84.4888 65.2969C84.375 65.2411 84.2768 65.1652 84.1942 65.0693C84.1116 64.9733 84.0469 64.8617 84 64.7344C83.9554 64.6094 83.933 64.4777 83.933 64.3393L83.933 64.0648C83.933 63.9264 83.9587 63.7936 84.01 63.6664C84.0636 63.5414 84.1362 63.4309 84.2277 63.3349C84.3192 63.2411 84.4263 63.1652 84.5491 63.1072C84.6719 63.0514 84.8025 63.0235 84.9408 63.0235L85.0781 63.0235L85.1451 63.4353L84.9174 63.4353C84.8348 63.4353 84.7567 63.4521 84.683 63.4856C84.6116 63.5213 84.5491 63.5681 84.4955 63.6262C84.442 63.6842 84.3996 63.7512 84.3683 63.8271C84.3371 63.903 84.3214 63.9822 84.3214 64.0648L84.3214 64.3393C84.3214 64.4219 84.3337 64.5012 84.3583 64.5771C84.3828 64.653 84.4174 64.7199 84.4621 64.778C84.5089 64.8382 84.5647 64.8851 84.6295 64.9186C84.6942 64.9543 84.7679 64.9722 84.8504 64.9722C84.9732 64.9722 85.0737 64.9454 85.1518 64.8918C85.2299 64.8382 85.2946 64.7668 85.346 64.6775C85.3996 64.5905 85.4431 64.49 85.4766 64.3762C85.5123 64.2646 85.5469 64.1496 85.5804 64.0313C85.6161 63.913 85.6562 63.7969 85.7009 63.6831C85.7455 63.5715 85.8036 63.471 85.875 63.3818C85.9487 63.2947 86.0402 63.2244 86.1496 63.1708C86.2589 63.1172 86.3951 63.0905 86.558 63.0905C86.6964 63.0905 86.8225 63.1172 86.9364 63.1708C87.0525 63.2244 87.1518 63.2969 87.2344 63.3885C87.317 63.48 87.3806 63.586 87.4252 63.7065C87.4721 63.8293 87.4955 63.9599 87.4955 64.0983L87.4955 64.3393C87.4955 64.4777 87.4687 64.6083 87.4152 64.7311C87.3638 64.8539 87.2924 64.961 87.2009 65.0525C87.1094 65.144 87.0022 65.2155 86.8795 65.2668C86.7567 65.3204 86.6261 65.3472 86.4877 65.3472L86.4743 65.3472L86.4074 64.9353L86.5112 64.9353C86.5937 64.9353 86.6708 64.9197 86.7422 64.8885C86.8158 64.8572 86.8795 64.8148 86.933 64.7612C86.9866 64.7077 87.029 64.644 87.0603 64.5704C87.0915 64.4989 87.1071 64.4219 87.1071 64.3393L87.1071 64.0983C87.1071 64.0157 87.0949 63.9376 87.0703 63.8639C87.0458 63.7925 87.01 63.73 86.9632 63.6764C86.9185 63.6228 86.8638 63.5804 86.7991 63.5492C86.7344 63.5179 86.6607 63.5023 86.5781 63.5023C86.4598 63.5023 86.3627 63.5291 86.2868 63.5827C86.2132 63.6362 86.1507 63.7065 86.0993 63.7936C86.048 63.8829 86.0045 63.9833 85.9687 64.0949C85.9353 64.2088 85.8996 64.3237 85.8616 64.4398C85.8259 64.5581 85.7846 64.6731 85.7377 64.7847C85.6908 64.8985 85.6306 64.9989 85.5569 65.086C85.4833 65.1753 85.3906 65.2467 85.279 65.3003C85.1696 65.3539 85.0335 65.3806 84.8705 65.3806ZM84.9408 68.461C84.8025 68.461 84.6719 68.4342 84.5491 68.3806C84.4263 68.3293 84.3192 68.2579 84.2277 68.1664C84.1362 68.0748 84.0636 67.9677 84.01 67.8449C83.9587 67.7222 83.933 67.5916 83.933 67.4532L83.933 67.1786C83.933 67.0402 83.9587 66.9097 84.01 66.7869C84.0636 66.6641 84.1362 66.557 84.2277 66.4655C84.3192 66.3739 84.4263 66.3014 84.5491 66.2478C84.6719 66.1965 84.8025 66.1708 84.9408 66.1708L86.4877 66.1708C86.6261 66.1708 86.7567 66.1965 86.8795 66.2478C87.0022 66.3014 87.1094 66.3739 87.2009 66.4655C87.2924 66.557 87.3638 66.6641 87.4152 66.7869C87.4687 66.9097 87.4955 67.0402 87.4955 67.1786L87.4955 67.4532C87.4955 67.5916 87.4687 67.7222 87.4152 67.8449C87.3638 67.9677 87.2924 68.0748 87.2009 68.1664C87.1094 68.2579 87.0022 68.3293 86.8795 68.3806C86.7567 68.4342 86.6261 68.461 86.4877 68.461L85.6808 68.461L85.6808 66.5826L84.9174 66.5826C84.8348 66.5826 84.7567 66.5983 84.683 66.6295C84.6116 66.6608 84.5491 66.7032 84.4955 66.7568C84.442 66.8103 84.3996 66.8728 84.3683 66.9443C84.3371 67.0179 84.3214 67.096 84.3214 67.1786L84.3214 67.4532C84.3214 67.5358 84.3371 67.6128 84.3683 67.6842C84.3996 67.7579 84.442 67.8215 84.4955 67.8751C84.5491 67.9286 84.6116 67.971 84.683 68.0023C84.7567 68.0335 84.8348 68.0492 84.9174 68.0492L85.1451 68.0492L85.0781 68.461L84.9408 68.461ZM86.5112 68.0492C86.5937 68.0492 86.6708 68.0335 86.7422 68.0023C86.8158 67.971 86.8795 67.9286 86.933 67.8751C86.9866 67.8215 87.029 67.7579 87.0603 67.6842C87.0915 67.6128 87.1071 67.5358 87.1071 67.4532L87.1071 67.1786C87.1071 67.096 87.0915 67.0179 87.0603 66.9443C87.029 66.8728 86.9866 66.8103 86.933 66.7568C86.8795 66.7032 86.8158 66.6608 86.7422 66.6295C86.6708 66.5983 86.5937 66.5826 86.5112 66.5826L86.0022 66.5826L86.0022 68.0492L86.5112 68.0492ZM84 71.163L86.5112 71.163C86.5937 71.163 86.6708 71.1474 86.7422 71.1161C86.8158 71.0849 86.8795 71.0425 86.933 70.9889C86.9866 70.9353 87.029 70.8717 87.0603 70.7981C87.0915 70.7266 87.1071 70.6496 87.1071 70.567L87.1071 70.2925C87.1071 70.2099 87.0915 70.1318 87.0603 70.0581C87.029 69.9867 86.9866 69.9242 86.933 69.8706C86.8795 69.817 86.8158 69.7746 86.7422 69.7434C86.6708 69.7121 86.5937 69.6965 86.5112 69.6965L84 69.6965L84 69.2847L87.4286 69.2847L87.4286 69.4219L87.0804 69.6463C87.2076 69.74 87.308 69.8572 87.3817 69.9978C87.4576 70.1407 87.4955 70.2958 87.4955 70.4632L87.4955 70.567C87.4955 70.7054 87.4687 70.836 87.4152 70.9588C87.3638 71.0815 87.2924 71.1887 87.2009 71.2802C87.1094 71.3717 87.0022 71.4431 86.8795 71.4945C86.7567 71.5481 86.6261 71.5748 86.4877 71.5748L84 71.5748L84 71.163ZM84 73.6474C84 73.5224 84.0234 73.4041 84.0703 73.2925C84.1172 73.1831 84.1819 73.0871 84.2645 73.0045C84.3471 72.9242 84.4431 72.8594 84.5525 72.8103C84.6618 72.7635 84.779 72.74 84.904 72.74L87.0368 72.74L87.0368 72.1239L87.4286 72.1239L87.4286 72.74L88.2522 72.74L88.3192 73.1518L87.4286 73.1518L87.4286 74.0224L87.0368 74.0224L87.0368 73.1518L84.8839 73.1518C84.8147 73.1518 84.75 73.1641 84.6897 73.1887C84.6317 73.2155 84.5804 73.2512 84.5357 73.2958C84.4911 73.3405 84.4554 73.3929 84.4286 73.4532C84.404 73.5135 84.3917 73.5782 84.3917 73.6474L84.3917 74.0224L84 74.0224L84 73.6474Z" fill="#FDCED2"/>
</g>
<g opacity="0.7">
<path d="M64.798 90.1117C64.798 89.9487 64.8292 89.7958 64.8917 89.653C64.952 89.5101 65.0357 89.3851 65.1429 89.278C65.25 89.1708 65.375 89.086 65.5179 89.0235C65.6607 88.9632 65.8136 88.9331 65.9766 88.9331L66.1138 88.9331C66.2768 88.9331 66.4308 88.9632 66.5759 89.0235C66.7187 89.086 66.8437 89.1708 66.9509 89.278C67.058 89.3851 67.1429 89.5101 67.2054 89.653C67.2656 89.7958 67.2958 89.9487 67.2958 90.1117L67.2958 90.3025L66.8638 90.3728L66.8638 90.1117C66.8638 90.0045 66.8437 89.9041 66.8036 89.8103C66.7634 89.7188 66.7087 89.6373 66.6395 89.5659C66.5681 89.4967 66.4866 89.442 66.3951 89.4018C66.3013 89.3617 66.2009 89.3416 66.0937 89.3416L65.9967 89.3416C65.8917 89.3416 65.7924 89.3617 65.6987 89.4018C65.6049 89.442 65.5234 89.4967 65.4542 89.5659C65.385 89.6373 65.3304 89.7188 65.2902 89.8103C65.25 89.9041 65.2299 90.0045 65.2299 90.1117L65.2299 93.8014L64.798 93.8014L64.798 90.1117ZM61.8214 89.0001L62.0491 89.3483C62.1429 89.221 62.26 89.1195 62.4007 89.0436C62.5413 88.9699 62.6953 88.9331 62.8627 88.9331L62.9665 88.9331C63.1049 88.9331 63.2355 88.9588 63.3583 89.0101C63.481 89.0637 63.5882 89.1362 63.6797 89.2277C63.7712 89.3193 63.8437 89.4264 63.8973 89.5492C63.9487 89.6719 63.9743 89.8025 63.9743 89.9409L63.9743 92.4286L63.5625 92.4286L63.5625 89.9175C63.5625 89.8349 63.5469 89.7568 63.5156 89.6831C63.4844 89.6117 63.442 89.5492 63.3884 89.4956C63.3348 89.442 63.2723 89.3996 63.2009 89.3684C63.1272 89.3371 63.0491 89.3215 62.9665 89.3215L62.692 89.3215C62.6094 89.3215 62.5324 89.3371 62.4609 89.3684C62.3873 89.3996 62.3237 89.442 62.2701 89.4956C62.2165 89.5492 62.1741 89.6117 62.1429 89.6831C62.1116 89.7568 62.096 89.8349 62.096 89.9175L62.096 92.4286L61.6842 92.4286L61.6842 89.0001L61.8214 89.0001ZM60.7567 93.2523L60.7567 93.8014L60.2779 93.8014L60.2779 93.2523L60.7567 93.2523ZM60.7232 89.0001L60.7232 92.4286L60.3114 92.4286L60.3114 89.0001L60.7232 89.0001ZM57.0569 89.9409C57.0569 89.8025 57.0837 89.6719 57.1373 89.5492C57.1886 89.4264 57.26 89.3193 57.3516 89.2277C57.4431 89.1362 57.5502 89.0637 57.673 89.0101C57.7958 88.9588 57.9263 88.9331 58.0647 88.9331L58.3393 88.9331C58.4777 88.9331 58.6083 88.9588 58.731 89.0101C58.8538 89.0637 58.9609 89.1362 59.0525 89.2277C59.144 89.3193 59.2165 89.4264 59.2701 89.5492C59.3214 89.6719 59.3471 89.8025 59.3471 89.9409L59.3471 91.4878C59.3471 91.6262 59.3214 91.7568 59.2701 91.8795C59.2165 92.0023 59.144 92.1094 59.0525 92.201C58.9609 92.2925 58.8538 92.3639 58.731 92.4152C58.6083 92.4688 58.4777 92.4956 58.3393 92.4956L58.0647 92.4956C57.9263 92.4956 57.7958 92.4688 57.673 92.4152C57.5502 92.3639 57.4431 92.2925 57.3516 92.201C57.26 92.1094 57.1886 92.0023 57.1373 91.8795C57.0837 91.7568 57.0569 91.6262 57.0569 91.4878L57.0569 91.3505L57.4687 91.2835L57.4687 91.5112C57.4687 91.5938 57.4844 91.6708 57.5156 91.7422C57.5469 91.8159 57.5893 91.8795 57.6429 91.9331C57.6964 91.9867 57.76 92.0291 57.8337 92.0603C57.9051 92.0916 57.9821 92.1072 58.0647 92.1072L58.3393 92.1072C58.4219 92.1072 58.5 92.0916 58.5737 92.0603C58.6451 92.0291 58.7076 91.9867 58.7612 91.9331C58.8147 91.8795 58.8571 91.8159 58.8884 91.7422C58.9196 91.6708 58.9353 91.5938 58.9353 91.5112L58.9353 89.9175C58.9353 89.8349 58.9196 89.7568 58.8884 89.6831C58.8571 89.6117 58.8147 89.5492 58.7612 89.4956C58.7076 89.442 58.6451 89.3996 58.5737 89.3684C58.5 89.3371 58.4219 89.3215 58.3393 89.3215L58.0647 89.3215C57.9821 89.3215 57.9051 89.3371 57.8337 89.3684C57.76 89.3996 57.6964 89.442 57.6429 89.4956C57.5893 89.5492 57.5469 89.6117 57.5156 89.6831C57.4844 89.7568 57.4687 89.8349 57.4687 89.9175L57.4687 90.1452L57.0569 90.0782L57.0569 89.9409ZM53.9431 89.9409C53.9431 89.8025 53.9699 89.6719 54.0234 89.5492C54.0748 89.4264 54.1462 89.3193 54.2377 89.2277C54.3292 89.1362 54.4364 89.0637 54.5592 89.0101C54.6819 88.9588 54.8125 88.9331 54.9509 88.9331L55.2254 88.9331C55.3638 88.9331 55.4944 88.9588 55.6172 89.0101C55.74 89.0637 55.8471 89.1362 55.9386 89.2277C56.0301 89.3193 56.1027 89.4264 56.1562 89.5492C56.2076 89.6719 56.2333 89.8025 56.2333 89.9409L56.2333 91.4878C56.2333 91.6262 56.2076 91.7568 56.1562 91.8795C56.1027 92.0023 56.0301 92.1094 55.9386 92.201C55.8471 92.2925 55.74 92.3639 55.6172 92.4152C55.4944 92.4688 55.3638 92.4956 55.2254 92.4956L54.9509 92.4956C54.8125 92.4956 54.6819 92.4688 54.5592 92.4152C54.4364 92.3639 54.3292 92.2925 54.2377 92.201C54.1462 92.1094 54.0748 92.0023 54.0234 91.8795C53.9699 91.7568 53.9431 91.6262 53.9431 91.4878L53.9431 90.6809L55.8214 90.6809L55.8214 89.9175C55.8214 89.8349 55.8058 89.7568 55.7746 89.6831C55.7433 89.6117 55.7009 89.5492 55.6473 89.4956C55.5937 89.442 55.5312 89.3996 55.4598 89.3684C55.3862 89.3371 55.308 89.3215 55.2254 89.3215L54.9509 89.3215C54.8683 89.3215 54.7913 89.3371 54.7199 89.3684C54.6462 89.3996 54.5826 89.442 54.529 89.4956C54.4754 89.5492 54.433 89.6117 54.4018 89.6831C54.3705 89.7568 54.3549 89.8349 54.3549 89.9175L54.3549 90.1452L53.9431 90.0782L53.9431 89.9409ZM54.3549 91.5112C54.3549 91.5938 54.3705 91.6708 54.4018 91.7422C54.433 91.8159 54.4754 91.8795 54.529 91.9331C54.5826 91.9867 54.6462 92.0291 54.7199 92.0603C54.7913 92.0916 54.8683 92.1072 54.9509 92.1072L55.2254 92.1072C55.308 92.1072 55.3862 92.0916 55.4598 92.0603C55.5312 92.0291 55.5937 91.9867 55.6473 91.9331C55.7009 91.8795 55.7433 91.8159 55.7746 91.7422C55.8058 91.6708 55.8214 91.5938 55.8214 91.5112L55.8214 91.0023L54.3549 91.0023L54.3549 91.5112Z" fill="#FDCED2"/>
</g>
<path d="M56.7511 39.8215C56.7511 39.9844 56.7199 40.1373 56.6574 40.2802C56.5971 40.4231 56.5134 40.5481 56.4062 40.6552C56.2991 40.7623 56.173 40.8472 56.0279 40.9097C55.885 40.9699 55.7321 41.0001 55.5692 41.0001L54.0491 41.0001L54.0491 36.1987L55.5692 36.1987C55.7321 36.1987 55.885 36.23 56.0279 36.2925C56.173 36.3527 56.2991 36.4364 56.4062 36.5436C56.5134 36.6507 56.5971 36.7768 56.6574 36.9219C56.7199 37.0648 56.7511 37.2177 56.7511 37.3806L56.7511 39.8215ZM56.3192 37.3806C56.3192 37.2735 56.2991 37.1742 56.2589 37.0827C56.2187 36.9889 56.1629 36.9074 56.0915 36.8382C56.0223 36.7668 55.9408 36.711 55.8471 36.6708C55.7556 36.6306 55.6562 36.6106 55.5491 36.6106L54.481 36.6106L54.481 40.5882L55.5491 40.5882C55.6562 40.5882 55.7556 40.5681 55.8471 40.528C55.9408 40.4878 56.0223 40.4331 56.0915 40.3639C56.1629 40.2947 56.2187 40.2143 56.2589 40.1228C56.2991 40.0291 56.3192 39.9286 56.3192 39.8215L56.3192 37.3806ZM59.9319 40.0592C59.9319 40.1976 59.9051 40.3282 59.8516 40.451C59.8002 40.5737 59.7288 40.6809 59.6373 40.7724C59.5458 40.8639 59.4386 40.9364 59.3158 40.99C59.1931 41.0414 59.0625 41.067 58.9241 41.067L58.6496 41.067C58.5112 41.067 58.3806 41.0414 58.2578 40.99C58.135 40.9364 58.0279 40.8639 57.9364 40.7724C57.8449 40.6809 57.7723 40.5737 57.7187 40.451C57.6674 40.3282 57.6417 40.1976 57.6417 40.0592L57.6417 38.5123C57.6417 38.3739 57.6674 38.2434 57.7187 38.1206C57.7723 37.9978 57.8449 37.8907 57.9364 37.7992C58.0279 37.7077 58.135 37.6362 58.2578 37.5849C58.3806 37.5313 58.5112 37.5045 58.6496 37.5045L58.9241 37.5045C59.0625 37.5045 59.1931 37.5313 59.3158 37.5849C59.4386 37.6362 59.5458 37.7077 59.6373 37.7992C59.7288 37.8907 59.8002 37.9978 59.8516 38.1206C59.9051 38.2434 59.9319 38.3739 59.9319 38.5123L59.9319 40.0592ZM59.5201 38.4889C59.5201 38.4063 59.5045 38.3293 59.4732 38.2579C59.442 38.1842 59.3996 38.1206 59.346 38.067C59.2924 38.0135 59.2288 37.971 59.1551 37.9398C59.0837 37.9085 59.0067 37.8929 58.9241 37.8929L58.6496 37.8929C58.567 37.8929 58.4888 37.9085 58.4152 37.9398C58.3437 37.971 58.2812 38.0135 58.2277 38.067C58.1741 38.1206 58.1317 38.1842 58.1004 38.2579C58.0692 38.3293 58.0536 38.4063 58.0536 38.4889L58.0536 40.0827C58.0536 40.1652 58.0692 40.2434 58.1004 40.317C58.1317 40.3885 58.1741 40.451 58.2277 40.5045C58.2812 40.5581 58.3437 40.6005 58.4152 40.6318C58.4888 40.663 58.567 40.6786 58.6496 40.6786L58.9241 40.6786C59.0067 40.6786 59.0837 40.663 59.1551 40.6318C59.2288 40.6005 59.2924 40.5581 59.346 40.5045C59.3996 40.451 59.442 40.3885 59.4732 40.317C59.5045 40.2434 59.5201 40.1652 59.5201 40.0827L59.5201 38.4889ZM63.0458 40.0592C63.0458 40.1976 63.019 40.3282 62.9654 40.451C62.9141 40.5737 62.8426 40.6809 62.7511 40.7724C62.6596 40.8639 62.5525 40.9364 62.4297 40.99C62.3069 41.0414 62.1763 41.067 62.0379 41.067L61.7634 41.067C61.625 41.067 61.4944 41.0414 61.3717 40.99C61.2489 40.9364 61.1417 40.8639 61.0502 40.7724C60.9587 40.6809 60.8862 40.5737 60.8326 40.451C60.7812 40.3282 60.7556 40.1976 60.7556 40.0592L60.7556 38.5123C60.7556 38.3739 60.7812 38.2434 60.8326 38.1206C60.8862 37.9978 60.9587 37.8907 61.0502 37.7992C61.1417 37.7077 61.2489 37.6362 61.3717 37.5849C61.4944 37.5313 61.625 37.5045 61.7634 37.5045L62.0379 37.5045C62.1763 37.5045 62.3069 37.5313 62.4297 37.5849C62.5525 37.6362 62.6596 37.7077 62.7511 37.7992C62.8426 37.8907 62.9141 37.9978 62.9654 38.1206C63.019 38.2434 63.0458 38.3739 63.0458 38.5123L63.0458 40.0592ZM62.6339 38.4889C62.6339 38.4063 62.6183 38.3293 62.5871 38.2579C62.5558 38.1842 62.5134 38.1206 62.4598 38.067C62.4062 38.0135 62.3426 37.971 62.269 37.9398C62.1975 37.9085 62.1205 37.8929 62.0379 37.8929L61.7634 37.8929C61.6808 37.8929 61.6027 37.9085 61.529 37.9398C61.4576 37.971 61.3951 38.0135 61.3415 38.067C61.2879 38.1206 61.2455 38.1842 61.2143 38.2579C61.183 38.3293 61.1674 38.4063 61.1674 38.4889L61.1674 40.0827C61.1674 40.1652 61.183 40.2434 61.2143 40.317C61.2455 40.3885 61.2879 40.451 61.3415 40.5045C61.3951 40.5581 61.4576 40.6005 61.529 40.6318C61.6027 40.663 61.6808 40.6786 61.7634 40.6786L62.0379 40.6786C62.1205 40.6786 62.1975 40.663 62.269 40.6318C62.3426 40.6005 62.4062 40.5581 62.4598 40.5045C62.5134 40.451 62.5558 40.3885 62.5871 40.317C62.6183 40.2434 62.6339 40.1652 62.6339 40.0827L62.6339 38.4889ZM64.8772 37.9632C64.7946 37.9632 64.7165 37.9789 64.6429 38.0101C64.5714 38.0414 64.5089 38.0838 64.4554 38.1373C64.4018 38.1909 64.3594 38.2545 64.3281 38.3282C64.2969 38.3996 64.2813 38.4766 64.2813 38.5592L64.2813 41.0001L63.8694 41.0001L63.8694 37.5715L64.0067 37.5715L64.231 37.9197C64.3248 37.7925 64.442 37.692 64.5826 37.6184C64.7254 37.5425 64.8806 37.5045 65.048 37.5045L65.2891 37.5045L65.2891 37.9632L64.8772 37.9632Z" fill="#FDCED2"/>
<path d="M31.6105 69.7858H36V70.2177H31.6105V71.3628H31.1987V68.6407H31.6105V69.7858ZM35.0592 66.0726C35.1975 66.0726 35.3281 66.0994 35.4509 66.153C35.5737 66.2043 35.6808 66.2757 35.7723 66.3672C35.8638 66.4588 35.9364 66.5659 35.99 66.6887C36.0413 66.8114 36.067 66.942 36.067 67.0804V67.355C36.067 67.4934 36.0413 67.6239 35.99 67.7467C35.9364 67.8695 35.8638 67.9766 35.7723 68.0681C35.6808 68.1597 35.5737 68.2322 35.4509 68.2858C35.3281 68.3371 35.1975 68.3628 35.0592 68.3628H33.5123C33.3739 68.3628 33.2433 68.3371 33.1205 68.2858C32.9978 68.2322 32.8906 68.1597 32.7991 68.0681C32.7076 67.9766 32.6362 67.8695 32.5848 67.7467C32.5312 67.6239 32.5045 67.4934 32.5045 67.355V67.0804C32.5045 66.942 32.5312 66.8114 32.5848 66.6887C32.6362 66.5659 32.7076 66.4588 32.7991 66.3672C32.8906 66.2757 32.9978 66.2043 33.1205 66.153C33.2433 66.0994 33.3739 66.0726 33.5123 66.0726H34.3192V67.951H35.0826C35.1652 67.951 35.2433 67.9353 35.317 67.9041C35.3884 67.8728 35.4509 67.8304 35.5045 67.7768C35.558 67.7233 35.6004 67.6608 35.6317 67.5893C35.6629 67.5157 35.6786 67.4376 35.6786 67.355V67.0804C35.6786 66.9978 35.6629 66.9208 35.6317 66.8494C35.6004 66.7757 35.558 66.7121 35.5045 66.6585C35.4509 66.605 35.3884 66.5626 35.317 66.5313C35.2433 66.5001 35.1652 66.4844 35.0826 66.4844H34.8549L34.9219 66.0726H35.0592ZM33.4888 66.4844C33.4062 66.4844 33.3292 66.5001 33.2578 66.5313C33.1842 66.5626 33.1205 66.605 33.067 66.6585C33.0134 66.7121 32.971 66.7757 32.9397 66.8494C32.9085 66.9208 32.8929 66.9978 32.8929 67.0804V67.355C32.8929 67.4376 32.9085 67.5157 32.9397 67.5893C32.971 67.6608 33.0134 67.7233 33.067 67.7768C33.1205 67.8304 33.1842 67.8728 33.2578 67.9041C33.3292 67.9353 33.4062 67.951 33.4888 67.951H33.9978V66.4844H33.4888ZM36 63.4744L34.6842 64.2077L36 64.9409V65.3862L34.2857 64.4253L32.5714 65.3862V64.9409L33.8873 64.2077L32.5714 63.4744V63.0291L34.2857 63.9867L36 63.0291V63.4744ZM36 61.0938C36 61.2188 35.9766 61.3371 35.9297 61.4487C35.8828 61.5581 35.8181 61.6541 35.7355 61.7367C35.6529 61.817 35.5569 61.8818 35.4475 61.9309C35.3382 61.9777 35.221 62.0012 35.096 62.0012H32.9632V62.6172H32.5714V62.0012H31.7478L31.6808 61.5893H32.5714V60.7188H32.9632V61.5893H35.1161C35.1853 61.5893 35.25 61.5771 35.3103 61.5525C35.3683 61.5257 35.4196 61.49 35.4643 61.4454C35.5089 61.4007 35.5446 61.3483 35.5714 61.288C35.596 61.2277 35.6083 61.163 35.6083 61.0938V60.7188H36V61.0938Z" fill="#FDCED2"/>
<g opacity="0.3">
<path fill-rule="evenodd" clip-rule="evenodd" d="M38.0046 90.0626L36.2928 88.3509C36.0978 88.1559 35.7817 88.1559 35.5867 88.3509C35.3917 88.5459 35.3917 88.862 35.5867 89.057L36.5474 90.0177C35.5132 90.0081 34.7351 89.8154 34.2755 89.3122C33.7967 88.7882 33.6115 88.3731 33.6115 86.9994C33.6115 86.7236 33.3879 86.5001 33.1121 86.5001C32.8364 86.5001 32.6128 86.7236 32.6128 86.9994C32.6128 88.5603 32.8537 89.2366 33.5382 89.9858C34.1793 90.6876 35.1658 90.9744 36.3488 91.0123L35.584 91.777C35.389 91.972 35.389 92.2882 35.584 92.4832C35.779 92.6782 36.0951 92.6782 36.2901 92.4832L38.0046 90.7688C38.1996 90.5738 38.1996 90.2576 38.0046 90.0626Z" fill="black"/>
<path fill-rule="evenodd" clip-rule="evenodd" d="M81.2972 90.0626L83.0096 88.3509C83.2046 88.1559 83.5209 88.1559 83.716 88.3509C83.911 88.5459 83.911 88.862 83.716 89.057L82.7549 90.0177C83.7895 90.0082 84.5679 89.8155 85.0278 89.3123C85.5067 88.7883 85.6921 88.3732 85.6921 86.9995C85.6921 86.7237 85.9157 86.5001 86.1916 86.5001C86.4674 86.5001 86.6911 86.7237 86.6911 86.9995C86.6911 88.5604 86.4501 89.2366 85.7654 89.9858C85.124 90.6877 84.1371 90.9744 82.9537 91.0124L83.7187 91.777C83.9137 91.972 83.9137 92.2882 83.7187 92.4832C83.5236 92.6782 83.2073 92.6782 83.0123 92.4832L81.2972 90.7688C81.1021 90.5738 81.1021 90.2576 81.2972 90.0626Z" fill="black"/>
<path fill-rule="evenodd" clip-rule="evenodd" d="M81.2991 40.0669L83.0109 41.7786C83.2059 41.9736 83.522 41.9736 83.717 41.7786C83.912 41.5836 83.912 41.2675 83.717 41.0725L82.7563 40.1118C83.7905 40.1214 84.5686 40.3141 85.0282 40.8173C85.507 41.3413 85.6923 41.7564 85.6923 43.1301C85.6923 43.4059 85.9158 43.6294 86.1916 43.6294C86.4674 43.6294 86.6909 43.4059 86.6909 43.1301C86.6909 41.5692 86.45 40.893 85.7655 40.1437C85.1244 39.4419 84.1379 39.1551 82.955 39.1172L83.7197 38.3525C83.9147 38.1575 83.9147 37.8413 83.7197 37.6463C83.5247 37.4513 83.2086 37.4513 83.0136 37.6463L81.2991 39.3607C81.1041 39.5557 81.1041 39.8719 81.2991 40.0669Z" fill="black"/>
<path fill-rule="evenodd" clip-rule="evenodd" d="M38.0065 40.0669L36.2941 41.7786C36.0991 41.9736 35.7828 41.9736 35.5877 41.7786C35.3927 41.5836 35.3927 41.2675 35.5877 41.0725L36.5488 40.1118C35.5142 40.1214 34.7358 40.314 34.2759 40.8172C33.797 41.3413 33.6116 41.7564 33.6116 43.1301C33.6116 43.4058 33.388 43.6294 33.1121 43.6294C32.8363 43.6294 32.6126 43.4058 32.6126 43.1301C32.6126 41.5692 32.8536 40.8929 33.5383 40.1437C34.1797 39.4418 35.1666 39.1551 36.35 39.1171L35.585 38.3525C35.39 38.1575 35.39 37.8413 35.585 37.6463C35.7801 37.4513 36.0964 37.4513 36.2914 37.6463L38.0065 39.3607C38.2016 39.5557 38.2016 39.8719 38.0065 40.0669Z" fill="black"/>
</g>
</g>
<g style="mix-blend-mode:luminosity">
<path d="M9.229 105.693C9.277 105.693 9.346 105.708 9.436 105.738C9.436 106.308 9.475 106.947 9.553 107.655L14.026 107.655C14.314 107.655 14.53 107.712 14.674 107.826C14.818 107.934 14.92 108.123 14.98 108.393C15.034 108.645 15.058 108.954 15.052 109.32C14.98 109.35 14.902 109.365 14.818 109.365C14.74 109.365 14.674 109.353 14.62 109.329C14.608 109.107 14.557 108.954 14.467 108.87C14.377 108.78 14.218 108.735 13.99 108.735L7.915 108.735C7.585 108.735 7.42 108.768 7.42 108.834L7.438 109.149C7.372 109.185 7.294 109.203 7.204 109.203C7.114 109.203 7.042 109.191 6.988 109.167C6.712 108.267 6.574 107.259 6.574 106.143C6.574 105.645 6.592 105.234 6.628 104.91C6.7 104.874 6.778 104.856 6.862 104.856C6.916 104.856 6.988 104.871 7.078 104.901C7.054 105.027 7.042 105.276 7.042 105.648C7.042 106.422 7.081 107.094 7.159 107.664C7.177 107.658 7.234 107.655 7.33 107.655L9.067 107.655C9.007 107.073 8.974 106.437 8.968 105.747C9.04 105.711 9.127 105.693 9.229 105.693ZM8.752 101.041C8.89 100.969 9.088 100.933 9.346 100.933L12.109 100.933C12.469 100.933 12.727 101.14 12.883 101.554C13.033 101.968 13.108 102.637 13.108 103.561C13.108 103.867 13.078 104.104 13.018 104.272C12.958 104.44 12.859 104.563 12.721 104.641C12.583 104.713 12.385 104.749 12.127 104.749L9.373 104.749C9.001 104.749 8.74 104.539 8.59 104.119C8.446 103.693 8.374 103.021 8.374 102.103C8.374 101.797 8.404 101.563 8.464 101.401C8.518 101.233 8.614 101.113 8.752 101.041ZM12.568 102.175C12.472 102.025 12.307 101.953 12.073 101.959L9.454 101.959C9.184 101.959 9.001 101.998 8.905 102.076C8.803 102.148 8.752 102.283 8.752 102.481C8.752 103.003 8.8 103.339 8.896 103.489C8.998 103.651 9.169 103.729 9.409 103.723L12.028 103.723C12.298 103.723 12.481 103.687 12.577 103.615C12.673 103.543 12.721 103.399 12.721 103.183C12.709 102.655 12.658 102.319 12.568 102.175ZM14.179 96.7776C14.107 96.7416 14.005 96.7236 13.873 96.7236L12.73 96.7236L12.82 97.0566C12.88 97.2666 12.937 97.4796 12.991 97.6956C13.033 97.8696 13.069 98.0766 13.099 98.3166C13.111 98.4606 13.117 98.5626 13.117 98.6226C13.117 98.9526 13.066 99.1866 12.964 99.3246C12.856 99.4626 12.679 99.5316 12.433 99.5316L9.346 99.5316C9.016 99.5316 8.851 99.5646 8.851 99.6306L8.869 100.252C8.827 100.276 8.77 100.288 8.698 100.288C8.65 100.288 8.599 100.279 8.545 100.261C8.431 99.8646 8.374 99.4596 8.374 99.0456C8.374 98.8656 8.383 98.7396 8.401 98.6676C8.413 98.5956 8.446 98.5506 8.5 98.5326C8.548 98.5086 8.635 98.4996 8.761 98.5056L12.208 98.5056C12.454 98.5056 12.577 98.3376 12.577 98.0016C12.577 97.7436 12.493 97.3176 12.325 96.7236L9.346 96.7236C9.016 96.7236 8.851 96.7566 8.851 96.8226L8.869 97.4436C8.827 97.4676 8.77 97.4796 8.698 97.4796C8.65 97.4796 8.599 97.4706 8.545 97.4526C8.431 97.0566 8.374 96.6516 8.374 96.2376C8.374 96.0576 8.383 95.9316 8.401 95.8596C8.413 95.7876 8.446 95.7426 8.5 95.7246C8.548 95.7006 8.635 95.6916 8.761 95.6976L13.945 95.6976C14.443 95.6856 14.743 95.9496 14.845 96.4896C15.001 97.2276 15.076 98.1396 15.07 99.2256C14.974 99.2796 14.896 99.3066 14.836 99.3066C14.734 99.3066 14.656 99.2946 14.602 99.2706C14.59 98.4306 14.554 97.8396 14.494 97.4976C14.452 97.2696 14.407 97.1016 14.359 96.9936C14.311 96.8856 14.251 96.8136 14.179 96.7776ZM12.568 91.7928C12.502 91.3788 12.445 91.0788 12.397 90.8928C12.457 90.8628 12.532 90.8478 12.622 90.8478C12.7 90.8478 12.76 90.8598 12.802 90.8838C13.012 91.6878 13.117 92.5698 13.117 93.5298C13.117 93.8538 13.066 94.0908 12.964 94.2408C12.862 94.3848 12.694 94.4568 12.46 94.4568L9.373 94.4568C9.001 94.4568 8.74 94.2588 8.59 93.8628C8.446 93.4788 8.374 92.8548 8.374 91.9908C8.374 91.6848 8.404 91.4508 8.464 91.2888C8.518 91.1208 8.614 91.0008 8.752 90.9288C8.89 90.8568 9.088 90.8208 9.346 90.8208L9.985 90.8208C10.237 90.8208 10.435 90.8838 10.579 91.0098C10.717 91.1358 10.816 91.3368 10.876 91.6128C10.978 92.2788 11.047 92.8848 11.083 93.4308L12.109 93.4308C12.337 93.4308 12.487 93.3888 12.559 93.3048C12.631 93.2148 12.667 93.0348 12.667 92.7648C12.667 92.5248 12.634 92.2008 12.568 91.7928ZM8.905 93.2238C9.001 93.3738 9.169 93.4428 9.409 93.4308L10.669 93.4308C10.633 93.0288 10.591 92.7018 10.543 92.4498C10.489 92.2038 10.426 92.0418 10.354 91.9638C10.282 91.8858 10.15 91.8468 9.958 91.8468L9.409 91.8468C9.157 91.8468 8.986 91.8858 8.896 91.9638C8.8 92.0358 8.752 92.1708 8.752 92.3688C8.752 92.7888 8.803 93.0738 8.905 93.2238ZM9.346 89.5642C9.016 89.5642 8.851 89.5972 8.851 89.6632L8.869 90.2842C8.827 90.3082 8.77 90.3202 8.698 90.3202C8.65 90.3202 8.599 90.3112 8.545 90.2932C8.431 89.8972 8.374 89.4922 8.374 89.0782C8.374 88.8982 8.383 88.7722 8.401 88.7002C8.413 88.6282 8.446 88.5832 8.5 88.5652C8.548 88.5412 8.635 88.5322 8.761 88.5382C8.503 87.9442 8.374 87.5212 8.374 87.2692C8.374 86.9392 8.428 86.7052 8.536 86.5672C8.638 86.4292 8.812 86.3602 9.058 86.3602L9.904 86.3602C9.988 86.3602 10.048 86.4082 10.084 86.5042C10.15 86.7322 10.183 86.9752 10.183 87.2332C10.183 87.3352 10.132 87.3862 10.03 87.3862L9.283 87.3862C9.061 87.3862 8.95 87.5032 8.95 87.7372C8.95 87.9232 9.022 88.1902 9.166 88.5382L12.145 88.5382C12.475 88.5382 12.64 88.5052 12.64 88.4392L12.622 87.8182C12.664 87.7942 12.721 87.7822 12.793 87.7822C12.841 87.7822 12.892 87.7912 12.946 87.8092C13.06 88.2052 13.117 88.6102 13.117 89.0242C13.117 89.2042 13.108 89.3302 13.09 89.4022C13.078 89.4742 13.048 89.5222 13 89.5462C12.946 89.5642 12.856 89.5702 12.73 89.5642L9.346 89.5642Z" fill="#FC9CA4"/>
</g>
<g style="mix-blend-mode:luminosity">
<path d="M79.515 11.5741C80.085 11.5741 80.628 11.5981 81.144 11.6461C81.18 11.7061 81.198 11.7931 81.198 11.9071C81.198 11.9971 81.186 12.0751 81.162 12.1411C80.682 12.0871 80.103 12.0631 79.425 12.0691L79.425 17.1451C79.425 17.4751 79.458 17.6401 79.524 17.6401L80.091 17.6221C80.115 17.6641 80.127 17.7211 80.127 17.7931C80.127 17.8411 80.118 17.8921 80.1 17.9461C79.704 18.0601 79.32 18.1171 78.948 18.1171C78.756 18.1171 78.618 18.1081 78.534 18.0901C78.456 18.0781 78.402 18.0481 78.372 18.0001C78.348 17.9461 78.339 17.8561 78.345 17.7301L78.345 12.1411C77.643 12.1951 77.034 12.2821 76.518 12.4021C76.482 12.3181 76.464 12.2341 76.464 12.1501C76.464 12.1021 76.476 12.0241 76.5 11.9161C77.364 11.6881 78.369 11.5741 79.515 11.5741ZM82.1176 12.6361C82.0096 12.6481 81.9616 12.5521 81.9736 12.3481L81.9736 11.8891C81.9736 11.7871 81.9826 11.7181 82.0006 11.6821C82.0246 11.6461 82.0756 11.6221 82.1536 11.6101L82.8556 11.5831C82.9636 11.5711 83.0116 11.6671 82.9996 11.8711L82.9996 12.3301C82.9996 12.4321 82.9876 12.5011 82.9636 12.5371C82.9456 12.5731 82.8976 12.5971 82.8196 12.6091L82.1176 12.6361ZM83.9356 17.7931C83.9356 17.8411 83.9266 17.8921 83.9086 17.9461C83.5126 18.0601 83.1076 18.1171 82.6936 18.1171C82.5136 18.1171 82.3876 18.1081 82.3156 18.0901C82.2436 18.0781 82.1956 18.0481 82.1716 18.0001C82.1536 17.9461 82.1476 17.8561 82.1536 17.7301L82.1536 14.3461C82.1536 14.0161 82.1206 13.8511 82.0546 13.8511L81.4336 13.8691C81.4096 13.8271 81.3976 13.7701 81.3976 13.6981C81.3976 13.6501 81.4066 13.5991 81.4246 13.5451C81.8206 13.4311 82.2256 13.3741 82.6396 13.3741C82.8196 13.3741 82.9456 13.3831 83.0176 13.4011C83.0896 13.4131 83.1346 13.4461 83.1526 13.5001C83.1766 13.5481 83.1856 13.6351 83.1796 13.7611L83.1796 17.1451C83.1796 17.4631 83.2096 17.6221 83.2696 17.6221L83.8996 17.6221C83.9236 17.6641 83.9356 17.7211 83.9356 17.7931ZM87.1104 13.9141C86.8764 13.9141 86.4714 14.0011 85.8954 14.1751L85.8954 17.8381C85.8954 17.9221 85.8474 17.9821 85.7514 18.0181C85.5234 18.0841 85.2804 18.1171 85.0224 18.1171C84.9204 18.1171 84.8694 18.0661 84.8694 17.9641L84.8694 14.3461C84.8694 14.0161 84.8364 13.8511 84.7704 13.8511L84.1494 13.8691C84.1254 13.8271 84.1134 13.7701 84.1134 13.6981C84.1134 13.6501 84.1224 13.5991 84.1404 13.5451C84.5364 13.4311 84.9414 13.3741 85.3554 13.3741C85.5354 13.3741 85.6614 13.3831 85.7334 13.4011C85.8054 13.4131 85.8504 13.4461 85.8684 13.5001C85.8924 13.5481 85.9014 13.6351 85.8954 13.7611C86.3334 13.6291 86.6874 13.5331 86.9574 13.4731C87.2634 13.4071 87.5364 13.3741 87.7764 13.3741C88.2324 13.3741 88.5054 13.5091 88.5954 13.7791C88.7334 13.7311 88.9524 13.6681 89.2524 13.5901C89.6004 13.5001 89.8104 13.4461 89.8824 13.4281C90.1104 13.3921 90.3084 13.3741 90.4764 13.3741C90.8064 13.3741 91.0404 13.4281 91.1784 13.5361C91.3164 13.6381 91.3854 13.8121 91.3854 14.0581L91.3854 17.1451C91.3854 17.3431 91.3914 17.4781 91.4034 17.5501C91.4094 17.6101 91.4364 17.6401 91.4844 17.6401L92.1054 17.6221C92.1294 17.6881 92.1414 17.7451 92.1414 17.7931C92.1414 17.8111 92.1354 17.8441 92.1234 17.8921L92.1144 17.9461C91.7184 18.0601 91.3134 18.1171 90.8994 18.1171C90.7194 18.1171 90.5934 18.1081 90.5214 18.0901C90.4494 18.0781 90.4014 18.0481 90.3774 18.0001C90.3594 17.9461 90.3534 17.8561 90.3594 17.7301L90.3594 14.2831C90.3594 14.0371 90.1914 13.9141 89.8554 13.9141C89.6334 13.9141 89.2284 14.0011 88.6404 14.1751L88.6404 17.8381C88.6404 17.9221 88.5924 17.9821 88.4964 18.0181C88.2684 18.0841 88.0254 18.1171 87.7674 18.1171C87.6654 18.1171 87.6144 18.0661 87.6144 17.9641L87.6144 14.2831C87.6144 14.0371 87.4464 13.9141 87.1104 13.9141ZM95.4641 17.5681C95.8781 17.5021 96.1781 17.4451 96.3641 17.3971C96.3941 17.4571 96.4091 17.5321 96.4091 17.6221C96.4091 17.7001 96.3971 17.7601 96.3731 17.8021C95.5691 18.0121 94.6871 18.1171 93.7271 18.1171C93.4031 18.1171 93.1661 18.0661 93.0161 17.9641C92.8721 17.8621 92.8001 17.6941 92.8001 17.4601L92.8001 14.3731C92.8001 14.0011 92.9981 13.7401 93.3941 13.5901C93.7781 13.4461 94.4021 13.3741 95.2661 13.3741C95.5721 13.3741 95.8061 13.4041 95.9681 13.4641C96.1361 13.5181 96.2561 13.6141 96.3281 13.7521C96.4001 13.8901 96.4361 14.0881 96.4361 14.3461L96.4361 14.9851C96.4361 15.2371 96.3731 15.4351 96.2471 15.5791C96.1211 15.7171 95.9201 15.8161 95.6441 15.8761C94.9781 15.9781 94.3721 16.0471 93.8261 16.0831L93.8261 17.1091C93.8261 17.3371 93.8681 17.4871 93.9521 17.5591C94.0421 17.6311 94.2221 17.6671 94.4921 17.6671C94.7321 17.6671 95.0561 17.6341 95.4641 17.5681ZM94.0331 13.9051C93.8831 14.0011 93.8141 14.1691 93.8261 14.4091L93.8261 15.6691C94.2281 15.6331 94.5551 15.5911 94.8071 15.5431C95.0531 15.4891 95.2151 15.4261 95.2931 15.3541C95.3711 15.2821 95.4101 15.1501 95.4101 14.9581L95.4101 14.4091C95.4101 14.1571 95.3711 13.9861 95.2931 13.8961C95.2211 13.8001 95.0861 13.7521 94.8881 13.7521C94.4681 13.7521 94.1831 13.8031 94.0331 13.9051ZM99.3757 17.7931C99.3757 17.8411 99.3667 17.8921 99.3487 17.9461C98.9527 18.0601 98.5477 18.1171 98.1337 18.1171C97.9537 18.1171 97.8277 18.1081 97.7557 18.0901C97.6837 18.0781 97.6357 18.0481 97.6117 18.0001C97.5937 17.9461 97.5877 17.8561 97.5937 17.7301L97.5937 12.5551C97.5937 12.2251 97.5607 12.0601 97.4947 12.0601L96.8737 12.0781C96.8497 12.0361 96.8377 11.9791 96.8377 11.9071C96.8377 11.8591 96.8467 11.8081 96.8647 11.7541C97.2607 11.6401 97.6657 11.5831 98.0797 11.5831C98.2597 11.5831 98.3857 11.5921 98.4577 11.6101C98.5297 11.6221 98.5747 11.6551 98.5927 11.7091C98.6167 11.7571 98.6257 11.8441 98.6197 11.9701L98.6197 17.1451C98.6197 17.4751 98.6527 17.6401 98.7187 17.6401L99.3397 17.6221C99.3637 17.6641 99.3757 17.7211 99.3757 17.7931ZM100.276 12.6361C100.168 12.6481 100.12 12.5521 100.132 12.3481L100.132 11.8891C100.132 11.7871 100.141 11.7181 100.159 11.6821C100.183 11.6461 100.234 11.6221 100.312 11.6101L101.014 11.5831C101.122 11.5711 101.17 11.6671 101.158 11.8711L101.158 12.3301C101.158 12.4321 101.146 12.5011 101.122 12.5371C101.104 12.5731 101.056 12.5971 100.978 12.6091L100.276 12.6361ZM102.094 17.7931C102.094 17.8411 102.085 17.8921 102.067 17.9461C101.671 18.0601 101.266 18.1171 100.852 18.1171C100.672 18.1171 100.546 18.1081 100.474 18.0901C100.402 18.0781 100.354 18.0481 100.33 18.0001C100.312 17.9461 100.306 17.8561 100.312 17.7301L100.312 14.3461C100.312 14.0161 100.279 13.8511 100.213 13.8511L99.5918 13.8691C99.5678 13.8271 99.5558 13.7701 99.5558 13.6981C99.5558 13.6501 99.5648 13.5991 99.5828 13.5451C99.9788 13.4311 100.384 13.3741 100.798 13.3741C100.978 13.3741 101.104 13.3831 101.176 13.4011C101.248 13.4131 101.293 13.4461 101.311 13.5001C101.335 13.5481 101.344 13.6351 101.338 13.7611L101.338 17.1451C101.338 17.4631 101.368 17.6221 101.428 17.6221L102.058 17.6221C102.082 17.6641 102.094 17.7211 102.094 17.7931ZM105.332 13.9141C105.062 13.9141 104.636 13.9981 104.054 14.1661L104.054 17.8381C104.054 17.9221 104.006 17.9821 103.91 18.0181C103.682 18.0841 103.439 18.1171 103.181 18.1171C103.079 18.1171 103.028 18.0661 103.028 17.9641L103.028 14.3461C103.028 14.0161 102.995 13.8511 102.929 13.8511L102.308 13.8691C102.284 13.8271 102.272 13.7701 102.272 13.6981C102.272 13.6501 102.281 13.5991 102.299 13.5451C102.695 13.4311 103.1 13.3741 103.514 13.3741C103.694 13.3741 103.82 13.3831 103.892 13.4011C103.964 13.4131 104.009 13.4461 104.027 13.5001C104.051 13.5481 104.06 13.6351 104.054 13.7611L104.387 13.6621C104.597 13.6021 104.747 13.5631 104.837 13.5451C104.831 13.5451 104.897 13.5301 105.035 13.5001C105.203 13.4581 105.407 13.4221 105.647 13.3921C105.791 13.3801 105.893 13.3741 105.953 13.3741C106.283 13.3741 106.517 13.4281 106.655 13.5361C106.793 13.6381 106.862 13.8121 106.862 14.0581L106.862 17.1451C106.862 17.4751 106.895 17.6401 106.961 17.6401L107.582 17.6221C107.606 17.6641 107.618 17.7211 107.618 17.7931C107.618 17.8411 107.609 17.8921 107.591 17.9461C107.195 18.0601 106.79 18.1171 106.376 18.1171C106.196 18.1171 106.07 18.1081 105.998 18.0901C105.926 18.0781 105.878 18.0481 105.854 18.0001C105.836 17.9461 105.83 17.8561 105.836 17.7301L105.836 14.2831C105.836 14.0371 105.668 13.9141 105.332 13.9141ZM110.942 17.5681C111.356 17.5021 111.656 17.4451 111.842 17.3971C111.872 17.4571 111.887 17.5321 111.887 17.6221C111.887 17.7001 111.875 17.7601 111.851 17.8021C111.047 18.0121 110.165 18.1171 109.205 18.1171C108.881 18.1171 108.644 18.0661 108.494 17.9641C108.35 17.8621 108.278 17.6941 108.278 17.4601L108.278 14.3731C108.278 14.0011 108.476 13.7401 108.872 13.5901C109.256 13.4461 109.88 13.3741 110.744 13.3741C111.05 13.3741 111.284 13.4041 111.446 13.4641C111.614 13.5181 111.734 13.6141 111.806 13.7521C111.878 13.8901 111.914 14.0881 111.914 14.3461L111.914 14.9851C111.914 15.2371 111.851 15.4351 111.725 15.5791C111.599 15.7171 111.398 15.8161 111.122 15.8761C110.456 15.9781 109.85 16.0471 109.304 16.0831L109.304 17.1091C109.304 17.3371 109.346 17.4871 109.43 17.5591C109.52 17.6311 109.7 17.6671 109.97 17.6671C110.21 17.6671 110.534 17.6341 110.942 17.5681ZM109.511 13.9051C109.361 14.0011 109.292 14.1691 109.304 14.4091L109.304 15.6691C109.706 15.6331 110.033 15.5911 110.285 15.5431C110.531 15.4891 110.693 15.4261 110.771 15.3541C110.849 15.2821 110.888 15.1501 110.888 14.9581L110.888 14.4091C110.888 14.1571 110.849 13.9861 110.771 13.8961C110.699 13.8001 110.564 13.7521 110.366 13.7521C109.946 13.7521 109.661 13.8031 109.511 13.9051Z" fill="#FC9CA4"/>
</g>
<g style="mix-blend-mode:luminosity">
<path d="M182.12 83.4141C182.048 83.4141 181.979 83.4021 181.913 83.3781C181.949 83.1981 181.967 82.8711 181.967 82.3971C181.967 81.6291 181.913 81.0501 181.805 80.6601C181.721 80.3541 181.499 80.2041 181.139 80.2101L177.224 80.2101C177.002 80.2101 176.831 80.2341 176.711 80.2821C176.597 80.3361 176.516 80.4231 176.468 80.5431C176.42 80.6631 176.396 80.8401 176.396 81.0741C176.396 81.4821 176.426 81.9231 176.486 82.3971C176.546 82.8771 176.606 83.2221 176.666 83.4321C176.552 83.4681 176.468 83.4861 176.414 83.4861C176.36 83.4861 176.294 83.4711 176.216 83.4411C175.982 82.6851 175.865 81.7791 175.865 80.7231C175.865 80.3091 175.901 79.9881 175.973 79.7601C176.045 79.5381 176.168 79.3761 176.342 79.2741C176.516 79.1781 176.768 79.1301 177.098 79.1301L181.184 79.1301C181.376 79.1301 181.547 79.1781 181.697 79.2741C181.847 79.3761 181.967 79.5171 182.057 79.6971C182.225 80.0451 182.33 80.4531 182.372 80.9211C182.408 81.3291 182.426 81.7881 182.426 82.2981C182.426 82.6461 182.405 83.0001 182.363 83.3601C182.291 83.3961 182.21 83.4141 182.12 83.4141ZM180.248 87.9259C180.11 87.9979 179.912 88.0339 179.654 88.0339L176.891 88.0339C176.531 88.0339 176.273 87.8269 176.117 87.4129C175.967 86.9989 175.892 86.3299 175.892 85.4059C175.892 85.0999 175.922 84.8629 175.982 84.6949C176.042 84.5269 176.141 84.4039 176.279 84.3259C176.417 84.2539 176.615 84.2179 176.873 84.2179L179.627 84.2179C179.999 84.2179 180.26 84.4279 180.41 84.8479C180.554 85.2739 180.626 85.9459 180.626 86.8639C180.626 87.1699 180.596 87.4039 180.536 87.5659C180.482 87.7339 180.386 87.8539 180.248 87.9259ZM176.432 86.7919C176.528 86.9419 176.693 87.0139 176.927 87.0079L179.546 87.0079C179.816 87.0079 179.999 86.9689 180.095 86.8909C180.197 86.8189 180.248 86.6839 180.248 86.4859C180.248 85.9639 180.2 85.6279 180.104 85.4779C180.002 85.3159 179.831 85.2379 179.591 85.2439L176.972 85.2439C176.702 85.2439 176.519 85.2799 176.423 85.3519C176.327 85.4239 176.279 85.5679 176.279 85.7839C176.291 86.3119 176.342 86.6479 176.432 86.7919ZM176.207 91.1453C176.159 91.1453 176.108 91.1363 176.054 91.1183C175.94 90.7223 175.883 90.3173 175.883 89.9033C175.883 89.7233 175.892 89.5973 175.91 89.5253C175.922 89.4533 175.952 89.4053 176 89.3813C176.054 89.3633 176.144 89.3573 176.27 89.3633L181.445 89.3633C181.775 89.3633 181.94 89.3303 181.94 89.2643L181.922 88.6433C181.964 88.6193 182.021 88.6073 182.093 88.6073C182.141 88.6073 182.192 88.6163 182.246 88.6343C182.36 89.0303 182.417 89.4353 182.417 89.8493C182.417 90.0293 182.408 90.1553 182.39 90.2273C182.378 90.2993 182.345 90.3443 182.291 90.3623C182.243 90.3863 182.156 90.3953 182.03 90.3893L176.855 90.3893C176.525 90.3893 176.36 90.4223 176.36 90.4883L176.378 91.1093C176.336 91.1333 176.279 91.1453 176.207 91.1453ZM180.248 95.5284C180.11 95.6004 179.912 95.6364 179.654 95.6364L176.891 95.6364C176.531 95.6364 176.273 95.4294 176.117 95.0154C175.967 94.6014 175.892 93.9324 175.892 93.0084C175.892 92.7024 175.922 92.4654 175.982 92.2974C176.042 92.1294 176.141 92.0064 176.279 91.9284C176.417 91.8564 176.615 91.8204 176.873 91.8204L179.627 91.8204C179.999 91.8204 180.26 92.0304 180.41 92.4504C180.554 92.8764 180.626 93.5484 180.626 94.4664C180.626 94.7724 180.596 95.0064 180.536 95.1684C180.482 95.3364 180.386 95.4564 180.248 95.5284ZM176.432 94.3944C176.528 94.5444 176.693 94.6164 176.927 94.6104L179.546 94.6104C179.816 94.6104 179.999 94.5714 180.095 94.4934C180.197 94.4214 180.248 94.2864 180.248 94.0884C180.248 93.5664 180.2 93.2304 180.104 93.0804C180.002 92.9184 179.831 92.8404 179.591 92.8464L176.972 92.8464C176.702 92.8464 176.519 92.8824 176.423 92.9544C176.327 93.0264 176.279 93.1704 176.279 93.3864C176.291 93.9144 176.342 94.2504 176.432 94.3944ZM179.654 97.0648C179.984 97.0648 180.149 97.0318 180.149 96.9658L180.131 96.3448C180.173 96.3208 180.23 96.3088 180.302 96.3088C180.35 96.3088 180.401 96.3178 180.455 96.3358C180.569 96.7318 180.626 97.1368 180.626 97.5508C180.626 97.7308 180.617 97.8568 180.599 97.9288C180.587 98.0008 180.554 98.0458 180.5 98.0638C180.452 98.0878 180.365 98.0968 180.239 98.0908C180.497 98.6848 180.626 99.1078 180.626 99.3598C180.626 99.6898 180.572 99.9238 180.464 100.062C180.362 100.2 180.188 100.269 179.942 100.269L179.096 100.269C179.012 100.269 178.952 100.221 178.916 100.125C178.85 99.8968 178.817 99.6538 178.817 99.3958C178.817 99.2938 178.868 99.2428 178.97 99.2428L179.717 99.2428C179.939 99.2428 180.05 99.1258 180.05 98.8918C180.05 98.7058 179.978 98.4388 179.834 98.0908L176.855 98.0908C176.525 98.0908 176.36 98.1238 176.36 98.1898L176.378 98.8108C176.336 98.8348 176.279 98.8468 176.207 98.8468C176.159 98.8468 176.108 98.8378 176.054 98.8198C175.94 98.4238 175.883 98.0188 175.883 97.6048C175.883 97.4248 175.892 97.2988 175.91 97.2268C175.922 97.1548 175.952 97.1068 176 97.0828C176.054 97.0648 176.144 97.0588 176.27 97.0648L179.654 97.0648ZM176.207 105.342C176.159 105.342 176.108 105.333 176.054 105.315C175.94 104.931 175.883 104.526 175.883 104.1C175.883 103.938 175.892 103.818 175.91 103.74C175.922 103.668 175.949 103.62 175.991 103.596C176.027 103.572 176.09 103.56 176.18 103.56C175.982 102.87 175.883 102.276 175.883 101.778C175.883 101.448 175.934 101.214 176.036 101.076C176.138 100.938 176.315 100.869 176.567 100.869L177.827 100.869C178.079 100.869 178.274 100.932 178.412 101.058C178.556 101.184 178.658 101.385 178.718 101.661C178.82 102.327 178.886 102.96 178.916 103.56L179.618 103.56C179.846 103.56 179.996 103.515 180.068 103.425C180.14 103.341 180.176 103.164 180.176 102.894C180.176 102.726 180.134 102.39 180.05 101.886C179.966 101.448 179.903 101.16 179.861 101.022C179.933 100.992 180.008 100.977 180.086 100.977C180.164 100.977 180.224 100.989 180.266 101.013C180.506 101.775 180.626 102.657 180.626 103.659C180.626 103.983 180.575 104.217 180.473 104.361C180.371 104.511 180.203 104.586 179.969 104.586L176.855 104.586C176.525 104.586 176.36 104.619 176.36 104.685L176.378 105.306C176.336 105.33 176.279 105.342 176.207 105.342ZM176.387 102.462C176.387 102.744 176.453 103.11 176.585 103.56L178.511 103.56C178.499 103.23 178.466 102.918 178.412 102.624C178.358 102.324 178.286 102.12 178.196 102.012C178.136 101.934 178.001 101.895 177.791 101.895L176.792 101.895C176.522 101.895 176.387 102.084 176.387 102.462ZM176.207 110.552C176.159 110.552 176.108 110.543 176.054 110.525C175.94 110.129 175.883 109.724 175.883 109.31C175.883 109.13 175.892 109.004 175.91 108.932C175.922 108.86 175.952 108.812 176 108.788C176.054 108.77 176.144 108.764 176.27 108.77L176.18 108.437C176.12 108.227 176.063 108.014 176.009 107.798C175.967 107.624 175.931 107.417 175.901 107.177C175.889 107.033 175.883 106.931 175.883 106.871C175.883 106.541 175.934 106.307 176.036 106.169C176.144 106.031 176.321 105.962 176.567 105.962L179.573 105.962C180.047 105.962 180.332 106.226 180.428 106.754C180.536 107.324 180.602 107.996 180.626 108.77L181.445 108.77C181.775 108.77 181.94 108.737 181.94 108.671L181.922 108.05C181.964 108.026 182.021 108.014 182.093 108.014C182.141 108.014 182.192 108.023 182.246 108.041C182.36 108.437 182.417 108.842 182.417 109.256C182.417 109.436 182.408 109.562 182.39 109.634C182.378 109.706 182.345 109.751 182.291 109.769C182.243 109.793 182.156 109.802 182.03 109.796L176.855 109.796C176.537 109.796 176.378 109.826 176.378 109.886L176.378 110.516C176.336 110.54 176.279 110.552 176.207 110.552ZM176.423 107.492C176.423 107.75 176.507 108.176 176.675 108.77L180.212 108.77C180.182 108.218 180.143 107.825 180.095 107.591C180.047 107.351 179.987 107.189 179.915 107.105C179.843 107.027 179.726 106.988 179.564 106.988L176.792 106.988C176.546 106.988 176.423 107.156 176.423 107.492ZM180.248 114.891C180.11 114.963 179.912 114.999 179.654 114.999L176.891 114.999C176.531 114.999 176.273 114.792 176.117 114.378C175.967 113.964 175.892 113.295 175.892 112.371C175.892 112.065 175.922 111.828 175.982 111.66C176.042 111.492 176.141 111.369 176.279 111.291C176.417 111.219 176.615 111.183 176.873 111.183L179.627 111.183C179.999 111.183 180.26 111.393 180.41 111.813C180.554 112.239 180.626 112.911 180.626 113.829C180.626 114.135 180.596 114.369 180.536 114.531C180.482 114.699 180.386 114.819 180.248 114.891ZM176.432 113.757C176.528 113.907 176.693 113.979 176.927 113.973L179.546 113.973C179.816 113.973 179.999 113.934 180.095 113.856C180.197 113.784 180.248 113.649 180.248 113.451C180.248 112.929 180.2 112.593 180.104 112.443C180.002 112.281 179.831 112.203 179.591 112.209L176.972 112.209C176.702 112.209 176.519 112.245 176.423 112.317C176.327 112.389 176.279 112.533 176.279 112.749C176.291 113.277 176.342 113.613 176.432 113.757Z" fill="#FC9CA4"/>
</g>
</g>
</g>
<g clip-path="url(#clip4_137_5919)">
<rect x="27.25" y="113" width="64" height="64" fill="black" fill-opacity="0.5"/>
</g>
<rect x="27.415" y="113.165" width="63.67" height="63.67" stroke="#FF6673" stroke-opacity="0.7" stroke-width="0.33" stroke-dasharray="0.66 0.66"/>
<g clip-path="url(#clip5_137_5919)">
<rect x="97.75" y="113" width="64" height="64" fill="black" fill-opacity="0.5"/>
</g>
<rect x="97.915" y="113.165" width="63.67" height="63.67" stroke="#FF6673" stroke-opacity="0.7" stroke-width="0.33" stroke-dasharray="0.66 0.66"/>
<path d="M59.3963 144.692C59.5916 144.887 59.9082 144.887 60.1034 144.692L63.2854 141.51C63.4807 141.315 63.4807 140.998 63.2854 140.803C63.0902 140.608 62.7736 140.608 62.5783 140.803L59.7499 143.631L56.9215 140.803C56.7262 140.608 56.4096 140.608 56.2144 140.803C56.0191 140.998 56.0191 141.315 56.2144 141.51L59.3963 144.692ZM59.25 64.5005L59.2499 144.338L60.2499 144.338L60.25 64.5005L59.25 64.5005Z" fill="#FFD666"/>
<defs>
<radialGradient id="paint0_radial_137_5919" cx="0" cy="0" r="1" gradientUnits="userSpaceOnUse" gradientTransform="translate(94.5 99.5) rotate(-90) scale(94.5 94.5)">
<stop stop-opacity="0"/>
<stop offset="1"/>
</radialGradient>
<linearGradient id="paint1_linear_137_5919" x1="94.5" y1="5.00001" x2="94.5" y2="30" gradientUnits="userSpaceOnUse">
<stop stop-opacity="0.61"/>
<stop offset="1" stop-opacity="0.89"/>
</linearGradient>
<linearGradient id="paint2_linear_137_5919" x1="189" y1="99.5001" x2="164" y2="99.5001" gradientUnits="userSpaceOnUse">
<stop stop-opacity="0.61"/>
<stop offset="1" stop-opacity="0.89"/>
</linearGradient>
<linearGradient id="paint3_linear_137_5919" x1="3.03794e-06" y1="99.5" x2="25" y2="99.5" gradientUnits="userSpaceOnUse">
<stop stop-opacity="0.61"/>
<stop offset="1" stop-opacity="0.89"/>
</linearGradient>
<linearGradient id="paint4_linear_137_5919" x1="164" y1="30.0001" x2="96.5" y2="100" gradientUnits="userSpaceOnUse">
<stop stop-opacity="0.59"/>
<stop offset="1" stop-opacity="0.13"/>
</linearGradient>
<linearGradient id="paint5_linear_137_5919" x1="25" y1="30.0001" x2="95" y2="97.5001" gradientUnits="userSpaceOnUse">
<stop stop-opacity="0.59"/>
<stop offset="1" stop-opacity="0.13"/>
</linearGradient>
<linearGradient id="paint6_linear_137_5919" x1="7.86805e-07" y1="23" x2="36" y2="23" gradientUnits="userSpaceOnUse">
<stop stop-opacity="0.12"/>
<stop offset="1" stop-color="#0B0A0A"/>
</linearGradient>
<linearGradient id="paint7_linear_137_5919" x1="171" y1="5" x2="171" y2="41" gradientUnits="userSpaceOnUse">
<stop stop-opacity="0.12"/>
<stop offset="1" stop-color="#0B0A0A"/>
</linearGradient>
<clipPath id="clip0_137_5919">
<rect width="189" height="94" fill="white" transform="matrix(-1 0 0 -1 189 99)"/>
</clipPath>
<clipPath id="clip1_137_5919">
<rect width="189" height="189" fill="white" transform="matrix(-1 0 0 -1 189 194)"/>
</clipPath>
<clipPath id="clip2_137_5919">
<rect width="64" height="64" fill="white" transform="matrix(-1 0 0 -1 161 97.0001)"/>
</clipPath>
<clipPath id="clip3_137_5919">
<rect width="64" height="64" fill="white" transform="matrix(-1 0 0 -1 92 97.0001)"/>
</clipPath>
<clipPath id="clip4_137_5919">
<rect x="27.25" y="113" width="64" height="64" fill="white"/>
</clipPath>
<clipPath id="clip5_137_5919">
<rect x="97.75" y="113" width="64" height="64" fill="white"/>
</clipPath>
</defs>
</svg>
