<svg width="189" height="102" viewBox="0 0 189 102" fill="none" xmlns="http://www.w3.org/2000/svg">
<path d="M69.0273 7.87891V13H68.5234V7.87891H67.1875V7.39844H70.3633V7.87891H69.0273ZM71.6562 14.6016H71.1914L71.9023 12.6562L70.6055 9H71.0859L72.1289 12.0312L72.1445 12.2383L72.1602 12.0312L73.1992 9H73.6797L71.6562 14.6016ZM76.8359 11.9023C76.8359 12.0638 76.8047 12.2161 76.7422 12.3594C76.6823 12.5026 76.599 12.6276 76.4922 12.7344C76.3854 12.8411 76.2604 12.9258 76.1172 12.9883C75.974 13.0482 75.8216 13.0781 75.6602 13.0781H75.5391C75.3594 13.0781 75.1927 13.0417 75.0391 12.9688C74.8854 12.8958 74.7539 12.7943 74.6445 12.6641V14.6016H74.1641V9H74.3242L74.5859 9.40625C74.6953 9.25781 74.832 9.14062 74.9961 9.05469C75.1628 8.96615 75.3438 8.92188 75.5391 8.92188H75.6602C75.8216 8.92188 75.974 8.95312 76.1172 9.01562C76.2604 9.07552 76.3854 9.15885 76.4922 9.26562C76.599 9.3724 76.6823 9.4974 76.7422 9.64062C76.8047 9.78385 76.8359 9.9362 76.8359 10.0977V11.9023ZM76.3555 10.0703C76.3555 9.97396 76.3372 9.88411 76.3008 9.80078C76.2643 9.71484 76.2148 9.64062 76.1523 9.57812C76.0898 9.51562 76.0156 9.46615 75.9297 9.42969C75.8464 9.39323 75.7565 9.375 75.6602 9.375H75.3398C75.2435 9.375 75.1523 9.39323 75.0664 9.42969C74.9831 9.46615 74.9102 9.51562 74.8477 9.57812C74.7852 9.64062 74.7357 9.71484 74.6992 9.80078C74.6628 9.88411 74.6445 9.97396 74.6445 10.0703V11.9297C74.6445 12.026 74.6628 12.1172 74.6992 12.2031C74.7357 12.2865 74.7852 12.3594 74.8477 12.4219C74.9102 12.4844 74.9831 12.5339 75.0664 12.5703C75.1523 12.6068 75.2435 12.625 75.3398 12.625H75.6602C75.7565 12.625 75.8464 12.6068 75.9297 12.5703C76.0156 12.5339 76.0898 12.4844 76.1523 12.4219C76.2148 12.3594 76.2643 12.2865 76.3008 12.2031C76.3372 12.1172 76.3555 12.026 76.3555 11.9297V10.0703ZM80.4688 11.9023C80.4688 12.0638 80.4375 12.2161 80.375 12.3594C80.3151 12.5026 80.2318 12.6276 80.125 12.7344C80.0182 12.8411 79.8932 12.9258 79.75 12.9883C79.6068 13.0482 79.4544 13.0781 79.293 13.0781H78.9727C78.8112 13.0781 78.6589 13.0482 78.5156 12.9883C78.3724 12.9258 78.2474 12.8411 78.1406 12.7344C78.0339 12.6276 77.9492 12.5026 77.8867 12.3594C77.8268 12.2161 77.7969 12.0638 77.7969 11.9023V10.0977C77.7969 9.9362 77.8268 9.78385 77.8867 9.64062C77.9492 9.4974 78.0339 9.3724 78.1406 9.26562C78.2474 9.15885 78.3724 9.07552 78.5156 9.01562C78.6589 8.95312 78.8112 8.92188 78.9727 8.92188H79.293C79.4544 8.92188 79.6068 8.95312 79.75 9.01562C79.8932 9.07552 80.0182 9.15885 80.125 9.26562C80.2318 9.3724 80.3151 9.4974 80.375 9.64062C80.4375 9.78385 80.4688 9.9362 80.4688 10.0977V11.0391H78.2773V11.9297C78.2773 12.026 78.2956 12.1172 78.332 12.2031C78.3685 12.2865 78.418 12.3594 78.4805 12.4219C78.543 12.4844 78.6159 12.5339 78.6992 12.5703C78.7852 12.6068 78.8763 12.625 78.9727 12.625H79.293C79.3893 12.625 79.4792 12.6068 79.5625 12.5703C79.6484 12.5339 79.7227 12.4844 79.7852 12.4219C79.8477 12.3594 79.8971 12.2865 79.9336 12.2031C79.9701 12.1172 79.9883 12.026 79.9883 11.9297V11.6641L80.4688 11.7422V11.9023ZM79.9883 10.0703C79.9883 9.97396 79.9701 9.88411 79.9336 9.80078C79.8971 9.71484 79.8477 9.64062 79.7852 9.57812C79.7227 9.51562 79.6484 9.46615 79.5625 9.42969C79.4792 9.39323 79.3893 9.375 79.293 9.375H78.9727C78.8763 9.375 78.7852 9.39323 78.6992 9.42969C78.6159 9.46615 78.543 9.51562 78.4805 9.57812C78.418 9.64062 78.3685 9.71484 78.332 9.80078C78.2956 9.88411 78.2773 9.97396 78.2773 10.0703V10.6641H79.9883V10.0703ZM85.7852 13L85.5195 12.6016C85.4102 12.7448 85.2734 12.8607 85.1094 12.9492C84.9453 13.0352 84.7656 13.0781 84.5703 13.0781H84.4492C84.2878 13.0781 84.1354 13.0482 83.9922 12.9883C83.849 12.9258 83.724 12.8411 83.6172 12.7344C83.5104 12.6276 83.4258 12.5026 83.3633 12.3594C83.3034 12.2161 83.2734 12.0638 83.2734 11.9023V11.8633C83.2734 11.7018 83.3034 11.5495 83.3633 11.4062C83.4258 11.263 83.5104 11.138 83.6172 11.0312C83.724 10.9245 83.849 10.8411 83.9922 10.7812C84.1354 10.7188 84.2878 10.6875 84.4492 10.6875H85.4648V10.0703C85.4648 9.97396 85.4466 9.88411 85.4102 9.80078C85.3737 9.71484 85.3242 9.64062 85.2617 9.57812C85.1992 9.51562 85.125 9.46615 85.0391 9.42969C84.9557 9.39323 84.8659 9.375 84.7695 9.375H84.4883C84.3919 9.375 84.3008 9.39323 84.2148 9.42969C84.1315 9.46615 84.0586 9.51562 83.9961 9.57812C83.9336 9.64062 83.8841 9.71484 83.8477 9.80078C83.8112 9.88411 83.793 9.97396 83.793 10.0703V10.2148L83.3125 10.1367V10.0977C83.3125 9.9362 83.3424 9.78385 83.4023 9.64062C83.4648 9.4974 83.5495 9.3724 83.6562 9.26562C83.763 9.15885 83.888 9.07552 84.0312 9.01562C84.1745 8.95312 84.3268 8.92188 84.4883 8.92188H84.7695C84.931 8.92188 85.0833 8.95312 85.2266 9.01562C85.3698 9.07552 85.4948 9.15885 85.6016 9.26562C85.7083 9.3724 85.7917 9.4974 85.8516 9.64062C85.9141 9.78385 85.9453 9.9362 85.9453 10.0977V13H85.7852ZM85.4648 11.0625H84.4492C84.3529 11.0625 84.2617 11.0807 84.1758 11.1172C84.0924 11.1536 84.0195 11.2044 83.957 11.2695C83.8945 11.332 83.8451 11.4062 83.8086 11.4922C83.7721 11.5755 83.7539 11.6654 83.7539 11.7617V11.9297C83.7539 12.026 83.7721 12.1172 83.8086 12.2031C83.8451 12.2865 83.8945 12.3594 83.957 12.4219C84.0195 12.4844 84.0924 12.5339 84.1758 12.5703C84.2617 12.6068 84.3529 12.625 84.4492 12.625H84.7695C84.8659 12.625 84.9557 12.6068 85.0391 12.5703C85.125 12.5339 85.1992 12.4844 85.2617 12.4219C85.3242 12.3594 85.3737 12.2865 85.4102 12.2031C85.4466 12.1172 85.4648 12.026 85.4648 11.9297V11.0625ZM91.4219 11.9023C91.4219 12.0638 91.3906 12.2161 91.3281 12.3594C91.2682 12.5026 91.1849 12.6276 91.0781 12.7344C90.9714 12.8411 90.8464 12.9258 90.7031 12.9883C90.5599 13.0482 90.4076 13.0781 90.2461 13.0781H89.9258C89.7643 13.0781 89.612 13.0482 89.4688 12.9883C89.3255 12.9258 89.2005 12.8411 89.0938 12.7344C88.987 12.6276 88.9023 12.5026 88.8398 12.3594C88.7799 12.2161 88.75 12.0638 88.75 11.9023V10.0977C88.75 9.9362 88.7799 9.78385 88.8398 9.64062C88.9023 9.4974 88.987 9.3724 89.0938 9.26562C89.2005 9.15885 89.3255 9.07552 89.4688 9.01562C89.612 8.95312 89.7643 8.92188 89.9258 8.92188H90.2461C90.4076 8.92188 90.5599 8.95312 90.7031 9.01562C90.8464 9.07552 90.9714 9.15885 91.0781 9.26562C91.1849 9.3724 91.2682 9.4974 91.3281 9.64062C91.3906 9.78385 91.4219 9.9362 91.4219 10.0977V10.2578L90.9414 10.3359V10.0703C90.9414 9.97396 90.9232 9.88411 90.8867 9.80078C90.8503 9.71484 90.8008 9.64062 90.7383 9.57812C90.6758 9.51562 90.6016 9.46615 90.5156 9.42969C90.4323 9.39323 90.3424 9.375 90.2461 9.375H89.9258C89.8294 9.375 89.7383 9.39323 89.6523 9.42969C89.569 9.46615 89.4961 9.51562 89.4336 9.57812C89.3711 9.64062 89.3216 9.71484 89.2852 9.80078C89.2487 9.88411 89.2305 9.97396 89.2305 10.0703V11.9297C89.2305 12.026 89.2487 12.1172 89.2852 12.2031C89.3216 12.2865 89.3711 12.3594 89.4336 12.4219C89.4961 12.4844 89.569 12.5339 89.6523 12.5703C89.7383 12.6068 89.8294 12.625 89.9258 12.625H90.2461C90.3424 12.625 90.4323 12.6068 90.5156 12.5703C90.6016 12.5339 90.6758 12.4844 90.7383 12.4219C90.8008 12.3594 90.8503 12.2865 90.8867 12.2031C90.9232 12.1172 90.9414 12.026 90.9414 11.9297V11.6641L91.4219 11.7422V11.9023ZM92.4648 13V7.39844H92.9453V13H92.4648ZM96.582 13L96.3164 12.5938C96.207 12.7422 96.0703 12.8607 95.9062 12.9492C95.7422 13.0352 95.5625 13.0781 95.3672 13.0781H95.2461C95.0846 13.0781 94.9323 13.0482 94.7891 12.9883C94.6458 12.9258 94.5208 12.8411 94.4141 12.7344C94.3073 12.6276 94.2227 12.5026 94.1602 12.3594C94.1003 12.2161 94.0703 12.0638 94.0703 11.9023V9H94.5508V11.9297C94.5508 12.026 94.569 12.1172 94.6055 12.2031C94.6419 12.2865 94.6914 12.3594 94.7539 12.4219C94.8164 12.4844 94.8893 12.5339 94.9727 12.5703C95.0586 12.6068 95.1497 12.625 95.2461 12.625H95.5664C95.6628 12.625 95.7526 12.6068 95.8359 12.5703C95.9219 12.5339 95.9961 12.4844 96.0586 12.4219C96.1211 12.3594 96.1706 12.2865 96.207 12.2031C96.2435 12.1172 96.2617 12.026 96.2617 11.9297V9H96.7422V13H96.582ZM100.375 11.9023C100.375 12.0638 100.344 12.2161 100.281 12.3594C100.221 12.5026 100.138 12.6276 100.031 12.7344C99.9245 12.8411 99.7995 12.9258 99.6562 12.9883C99.513 13.0482 99.3607 13.0781 99.1992 13.0781H98.8789C98.7174 13.0781 98.5651 13.0482 98.4219 12.9883C98.2786 12.9258 98.1536 12.8411 98.0469 12.7344C97.9401 12.6276 97.8555 12.5026 97.793 12.3594C97.7331 12.2161 97.7031 12.0638 97.7031 11.9023V10.0977C97.7031 9.9362 97.7331 9.78385 97.793 9.64062C97.8555 9.4974 97.9401 9.3724 98.0469 9.26562C98.1536 9.15885 98.2786 9.07552 98.4219 9.01562C98.5651 8.95312 98.7174 8.92188 98.8789 8.92188H99.1992C99.3607 8.92188 99.513 8.95312 99.6562 9.01562C99.7995 9.07552 99.9245 9.15885 100.031 9.26562C100.138 9.3724 100.221 9.4974 100.281 9.64062C100.344 9.78385 100.375 9.9362 100.375 10.0977V11.0391H98.1836V11.9297C98.1836 12.026 98.2018 12.1172 98.2383 12.2031C98.2747 12.2865 98.3242 12.3594 98.3867 12.4219C98.4492 12.4844 98.5221 12.5339 98.6055 12.5703C98.6914 12.6068 98.7826 12.625 98.8789 12.625H99.1992C99.2956 12.625 99.3854 12.6068 99.4688 12.5703C99.5547 12.5339 99.6289 12.4844 99.6914 12.4219C99.7539 12.3594 99.8034 12.2865 99.8398 12.2031C99.8763 12.1172 99.8945 12.026 99.8945 11.9297V11.6641L100.375 11.7422V11.9023ZM99.8945 10.0703C99.8945 9.97396 99.8763 9.88411 99.8398 9.80078C99.8034 9.71484 99.7539 9.64062 99.6914 9.57812C99.6289 9.51562 99.5547 9.46615 99.4688 9.42969C99.3854 9.39323 99.2956 9.375 99.1992 9.375H98.8789C98.7826 9.375 98.6914 9.39323 98.6055 9.42969C98.5221 9.46615 98.4492 9.51562 98.3867 9.57812C98.3242 9.64062 98.2747 9.71484 98.2383 9.80078C98.2018 9.88411 98.1836 9.97396 98.1836 10.0703V10.6641H99.8945V10.0703ZM105.371 13V10.0703C105.371 9.97396 105.353 9.88411 105.316 9.80078C105.28 9.71484 105.23 9.64062 105.168 9.57812C105.105 9.51562 105.031 9.46615 104.945 9.42969C104.862 9.39323 104.772 9.375 104.676 9.375H104.355C104.259 9.375 104.168 9.39323 104.082 9.42969C103.999 9.46615 103.926 9.51562 103.863 9.57812C103.801 9.64062 103.751 9.71484 103.715 9.80078C103.678 9.88411 103.66 9.97396 103.66 10.0703V13H103.18V7.39844H103.66V9.33594C103.77 9.20573 103.901 9.10417 104.055 9.03125C104.208 8.95833 104.375 8.92188 104.555 8.92188H104.676C104.837 8.92188 104.99 8.95312 105.133 9.01562C105.276 9.07552 105.401 9.15885 105.508 9.26562C105.615 9.3724 105.698 9.4974 105.758 9.64062C105.82 9.78385 105.852 9.9362 105.852 10.0977V13H105.371ZM109.484 11.9023C109.484 12.0638 109.453 12.2161 109.391 12.3594C109.331 12.5026 109.247 12.6276 109.141 12.7344C109.034 12.8411 108.909 12.9258 108.766 12.9883C108.622 13.0482 108.47 13.0781 108.309 13.0781H107.988C107.827 13.0781 107.674 13.0482 107.531 12.9883C107.388 12.9258 107.263 12.8411 107.156 12.7344C107.049 12.6276 106.965 12.5026 106.902 12.3594C106.842 12.2161 106.812 12.0638 106.812 11.9023V10.0977C106.812 9.9362 106.842 9.78385 106.902 9.64062C106.965 9.4974 107.049 9.3724 107.156 9.26562C107.263 9.15885 107.388 9.07552 107.531 9.01562C107.674 8.95312 107.827 8.92188 107.988 8.92188H108.309C108.47 8.92188 108.622 8.95312 108.766 9.01562C108.909 9.07552 109.034 9.15885 109.141 9.26562C109.247 9.3724 109.331 9.4974 109.391 9.64062C109.453 9.78385 109.484 9.9362 109.484 10.0977V11.0391H107.293V11.9297C107.293 12.026 107.311 12.1172 107.348 12.2031C107.384 12.2865 107.434 12.3594 107.496 12.4219C107.559 12.4844 107.632 12.5339 107.715 12.5703C107.801 12.6068 107.892 12.625 107.988 12.625H108.309C108.405 12.625 108.495 12.6068 108.578 12.5703C108.664 12.5339 108.738 12.4844 108.801 12.4219C108.863 12.3594 108.913 12.2865 108.949 12.2031C108.986 12.1172 109.004 12.026 109.004 11.9297V11.6641L109.484 11.7422V11.9023ZM109.004 10.0703C109.004 9.97396 108.986 9.88411 108.949 9.80078C108.913 9.71484 108.863 9.64062 108.801 9.57812C108.738 9.51562 108.664 9.46615 108.578 9.42969C108.495 9.39323 108.405 9.375 108.309 9.375H107.988C107.892 9.375 107.801 9.39323 107.715 9.42969C107.632 9.46615 107.559 9.51562 107.496 9.57812C107.434 9.64062 107.384 9.71484 107.348 9.80078C107.311 9.88411 107.293 9.97396 107.293 10.0703V10.6641H109.004V10.0703ZM111.621 9.45703C111.525 9.45703 111.434 9.47526 111.348 9.51172C111.264 9.54818 111.191 9.59766 111.129 9.66016C111.066 9.72266 111.017 9.79688 110.98 9.88281C110.944 9.96615 110.926 10.056 110.926 10.1523V13H110.445V9H110.605L110.867 9.40625C110.977 9.25781 111.113 9.14062 111.277 9.05469C111.444 8.96615 111.625 8.92188 111.82 8.92188H112.102V9.45703H111.621ZM115.414 11.9023C115.414 12.0638 115.383 12.2161 115.32 12.3594C115.26 12.5026 115.177 12.6276 115.07 12.7344C114.964 12.8411 114.839 12.9258 114.695 12.9883C114.552 13.0482 114.4 13.0781 114.238 13.0781H113.918C113.757 13.0781 113.604 13.0482 113.461 12.9883C113.318 12.9258 113.193 12.8411 113.086 12.7344C112.979 12.6276 112.895 12.5026 112.832 12.3594C112.772 12.2161 112.742 12.0638 112.742 11.9023V10.0977C112.742 9.9362 112.772 9.78385 112.832 9.64062C112.895 9.4974 112.979 9.3724 113.086 9.26562C113.193 9.15885 113.318 9.07552 113.461 9.01562C113.604 8.95312 113.757 8.92188 113.918 8.92188H114.238C114.4 8.92188 114.552 8.95312 114.695 9.01562C114.839 9.07552 114.964 9.15885 115.07 9.26562C115.177 9.3724 115.26 9.4974 115.32 9.64062C115.383 9.78385 115.414 9.9362 115.414 10.0977V11.0391H113.223V11.9297C113.223 12.026 113.241 12.1172 113.277 12.2031C113.314 12.2865 113.363 12.3594 113.426 12.4219C113.488 12.4844 113.561 12.5339 113.645 12.5703C113.73 12.6068 113.822 12.625 113.918 12.625H114.238C114.335 12.625 114.424 12.6068 114.508 12.5703C114.594 12.5339 114.668 12.4844 114.73 12.4219C114.793 12.3594 114.842 12.2865 114.879 12.2031C114.915 12.1172 114.934 12.026 114.934 11.9297V11.6641L115.414 11.7422V11.9023ZM114.934 10.0703C114.934 9.97396 114.915 9.88411 114.879 9.80078C114.842 9.71484 114.793 9.64062 114.73 9.57812C114.668 9.51562 114.594 9.46615 114.508 9.42969C114.424 9.39323 114.335 9.375 114.238 9.375H113.918C113.822 9.375 113.73 9.39323 113.645 9.42969C113.561 9.46615 113.488 9.51562 113.426 9.57812C113.363 9.64062 113.314 9.71484 113.277 9.80078C113.241 9.88411 113.223 9.97396 113.223 10.0703V10.6641H114.934V10.0703ZM116.375 13V12.3984H116.977V13H116.375ZM118.094 13V12.3984H118.695V13H118.094ZM119.812 13V12.3984H120.414V13H119.812Z" fill="#FFD666"/>
<g clip-path="url(#clip0_135_4596)">
<g clip-path="url(#clip1_135_4596)">
<path fill-rule="evenodd" clip-rule="evenodd" d="M36 217L153 217L189 181L189 64.0001L168.291 56.0352L189 64L153 28.0001L36 28.0001L0 64.0001L1.52588e-05 181L36 217Z" fill="#006AFF" fill-opacity="0.8"/>
<g style="mix-blend-mode:luminosity">
<path fill-rule="evenodd" clip-rule="evenodd" d="M153 217L94.5 122.5L189 181L189 64L94.5 122.5L153 28L36 28L94.5 122.5L-5.11423e-06 64L-5.11423e-06 181L94.5 122.5L36 217L153 217Z" fill="url(#paint0_radial_135_4596)" fill-opacity="0.05"/>
<path d="M36 28L153 28L164 53.0001L25 53.0001L36 28Z" fill="url(#paint1_linear_135_4596)" fill-opacity="0.51"/>
<path d="M189 64L189 181L164 192L164 53.0001L189 64Z" fill="url(#paint2_linear_135_4596)" fill-opacity="0.51"/>
<path d="M4.80827e-07 181L5.59506e-06 64L25 53L25 192L4.80827e-07 181Z" fill="url(#paint3_linear_135_4596)" fill-opacity="0.51"/>
<path fill-rule="evenodd" clip-rule="evenodd" d="M164 192L25 192L25 53.0001L164 53.0001L164 192ZM164 192L176 173L176 72.0001L164 53.0001L145 41.0001L44 41.0001L25 53.0001L13 72.0001L13 173L25 192L44 204L145 204L164 192Z" fill="black" fill-opacity="0.05"/>
<path d="M164 53.0001L94.5 53.0001L94.5 122.5L164 122.5L164 53.0001Z" fill="url(#paint4_linear_135_4596)"/>
<path d="M94.5 122.5L94.5 53.0001L25 53.0001L25 122.5L94.5 122.5Z" fill="url(#paint5_linear_135_4596)"/>
<path fill-rule="evenodd" clip-rule="evenodd" d="M94 192H95L95 123L164 123V122L95 122V53.0001H94V122L25 122V123L94 123L94 192Z" fill="black" fill-opacity="0.1"/>
<path d="M36 28L0 64L25 53L36 28Z" fill="url(#paint6_linear_135_4596)" fill-opacity="0.33"/>
<path d="M189 64L153 28L164 53L189 64Z" fill="url(#paint7_linear_135_4596)" fill-opacity="0.33"/>
</g>
<g clip-path="url(#clip2_135_4596)">
<path d="M125.751 60.9766C125.751 61.1396 125.72 61.2925 125.657 61.4353C125.597 61.5782 125.513 61.7032 125.406 61.8103C125.299 61.9175 125.173 62.0023 125.028 62.0648C124.885 62.1251 124.732 62.1552 124.569 62.1552L123.481 62.1552L123.481 64.0001L123.049 64.0001L123.049 59.1987L124.569 59.1987C124.732 59.1987 124.885 59.23 125.028 59.2925C125.173 59.3527 125.299 59.4364 125.406 59.5436C125.513 59.6507 125.597 59.7768 125.657 59.9219C125.72 60.0648 125.751 60.2177 125.751 60.3806L125.751 60.9766ZM125.319 60.3806C125.319 60.2735 125.299 60.1742 125.259 60.0827C125.219 59.9889 125.163 59.9074 125.092 59.8382C125.022 59.7668 124.941 59.711 124.847 59.6708C124.756 59.6306 124.656 59.6106 124.549 59.6106L123.481 59.6106L123.481 61.7434L124.549 61.7434C124.656 61.7434 124.756 61.7233 124.847 61.6831C124.941 61.6429 125.022 61.5882 125.092 61.519C125.163 61.4498 125.219 61.3695 125.259 61.278C125.299 61.1842 125.319 61.0838 125.319 60.9766L125.319 60.3806ZM128.594 64.0001L128.366 63.6585C128.272 63.7813 128.155 63.8806 128.015 63.9565C127.874 64.0302 127.72 64.067 127.552 64.067L127.449 64.067C127.31 64.067 127.18 64.0414 127.057 63.99C126.934 63.9364 126.827 63.8639 126.735 63.7724C126.644 63.6809 126.571 63.5737 126.518 63.451C126.467 63.3282 126.441 63.1976 126.441 63.0592L126.441 63.0257C126.441 62.8873 126.467 62.7568 126.518 62.634C126.571 62.5112 126.644 62.4041 126.735 62.3126C126.827 62.221 126.934 62.1496 127.057 62.0983C127.18 62.0447 127.31 62.0179 127.449 62.0179L128.319 62.0179L128.319 61.4889C128.319 61.4063 128.304 61.3293 128.272 61.2579C128.241 61.1842 128.199 61.1206 128.145 61.067C128.092 61.0135 128.028 60.971 127.954 60.9398C127.883 60.9085 127.806 60.8929 127.723 60.8929L127.482 60.8929C127.4 60.8929 127.321 60.9085 127.248 60.9398C127.176 60.971 127.114 61.0135 127.06 61.067C127.007 61.1206 126.964 61.1842 126.933 61.2579C126.902 61.3293 126.886 61.4063 126.886 61.4889L126.886 61.6128L126.474 61.5458L126.474 61.5123C126.474 61.3739 126.5 61.2434 126.551 61.1206C126.605 60.9978 126.677 60.8907 126.769 60.7992C126.86 60.7077 126.968 60.6362 127.09 60.5849C127.213 60.5313 127.344 60.5045 127.482 60.5045L127.723 60.5045C127.862 60.5045 127.992 60.5313 128.115 60.5849C128.238 60.6362 128.345 60.7077 128.436 60.7992C128.528 60.8907 128.599 60.9978 128.651 61.1206C128.704 61.2434 128.731 61.3739 128.731 61.5123L128.731 64.0001L128.594 64.0001ZM128.319 62.3393L127.449 62.3393C127.366 62.3393 127.288 62.355 127.214 62.3862C127.143 62.4175 127.08 62.461 127.027 62.5168C126.973 62.5704 126.931 62.634 126.9 62.7077C126.868 62.7791 126.853 62.8561 126.853 62.9387L126.853 63.0827C126.853 63.1652 126.868 63.2434 126.9 63.317C126.931 63.3885 126.973 63.451 127.027 63.5045C127.08 63.5581 127.143 63.6005 127.214 63.6318C127.288 63.663 127.366 63.6786 127.449 63.6786L127.723 63.6786C127.806 63.6786 127.883 63.663 127.954 63.6318C128.028 63.6005 128.092 63.5581 128.145 63.5045C128.199 63.451 128.241 63.3885 128.272 63.317C128.304 63.2434 128.319 63.1652 128.319 63.0827L128.319 62.3393ZM131.912 63.1295C131.912 63.2679 131.884 63.3952 131.828 63.5112C131.772 63.6251 131.696 63.7233 131.6 63.8059C131.504 63.8885 131.393 63.9532 131.266 64.0001C131.141 64.0447 131.009 64.067 130.871 64.067L130.596 64.067C130.458 64.067 130.325 64.0414 130.198 63.99C130.073 63.9364 129.962 63.8639 129.866 63.7724C129.772 63.6809 129.696 63.5737 129.638 63.451C129.583 63.3282 129.555 63.1976 129.555 63.0592L129.555 62.9219L129.967 62.855L129.967 63.0827C129.967 63.1652 129.983 63.2434 130.017 63.317C130.052 63.3885 130.099 63.451 130.157 63.5045C130.215 63.5581 130.282 63.6005 130.358 63.6318C130.434 63.663 130.513 63.6786 130.596 63.6786L130.871 63.6786C130.953 63.6786 131.032 63.6664 131.108 63.6418C131.184 63.6172 131.251 63.5827 131.309 63.538C131.369 63.4911 131.416 63.4353 131.45 63.3706C131.485 63.3059 131.503 63.2322 131.503 63.1496C131.503 63.0268 131.477 62.9264 131.423 62.8483C131.369 62.7702 131.298 62.7054 131.209 62.6541C131.122 62.6005 131.021 62.557 130.907 62.5235C130.796 62.4878 130.681 62.4532 130.562 62.4197C130.444 62.384 130.328 62.3438 130.214 62.2992C130.103 62.2545 130.002 62.1965 129.913 62.1251C129.826 62.0514 129.756 61.9599 129.702 61.8505C129.648 61.7411 129.622 61.605 129.622 61.442C129.622 61.3036 129.648 61.1775 129.702 61.0637C129.756 60.9476 129.828 60.8483 129.92 60.7657C130.011 60.6831 130.117 60.6195 130.238 60.5748C130.36 60.528 130.491 60.5045 130.629 60.5045L130.871 60.5045C131.009 60.5045 131.14 60.5313 131.262 60.5849C131.385 60.6362 131.492 60.7077 131.584 60.7992C131.675 60.8907 131.747 60.9978 131.798 61.1206C131.852 61.2434 131.878 61.3739 131.878 61.5123L131.878 61.5257L131.467 61.5927L131.467 61.4889C131.467 61.4063 131.451 61.3293 131.42 61.2579C131.388 61.1842 131.346 61.1206 131.292 61.067C131.239 61.0135 131.175 60.971 131.102 60.9398C131.03 60.9085 130.953 60.8929 130.871 60.8929L130.629 60.8929C130.547 60.8929 130.469 60.9052 130.395 60.9297C130.324 60.9543 130.261 60.99 130.208 61.0369C130.154 61.0815 130.112 61.1362 130.08 61.201C130.049 61.2657 130.033 61.3393 130.033 61.4219C130.033 61.5402 130.06 61.6373 130.114 61.7132C130.167 61.7869 130.238 61.8494 130.325 61.9007C130.414 61.9521 130.515 61.9956 130.626 62.0313C130.74 62.0648 130.855 62.1005 130.971 62.1385C131.089 62.1742 131.204 62.2155 131.316 62.2623C131.43 62.3092 131.53 62.3695 131.617 62.4431C131.706 62.5168 131.778 62.6094 131.831 62.721C131.885 62.8304 131.912 62.9666 131.912 63.1295ZM133.951 64.0001C133.826 64.0001 133.708 63.9766 133.596 63.9297C133.487 63.8829 133.391 63.8181 133.308 63.7356C133.228 63.653 133.163 63.557 133.114 63.4476C133.067 63.3382 133.044 63.221 133.044 63.096L133.044 60.9632L132.427 60.9632L132.427 60.5715L133.044 60.5715L133.044 59.7478L133.455 59.6809L133.455 60.5715L134.326 60.5715L134.326 60.9632L133.455 60.9632L133.455 63.1161C133.455 63.1853 133.468 63.2501 133.492 63.3103C133.519 63.3684 133.555 63.4197 133.599 63.4643C133.644 63.509 133.696 63.5447 133.757 63.5715C133.817 63.596 133.882 63.6083 133.951 63.6083L134.326 63.6083L134.326 64.0001L133.951 64.0001Z" fill="#B8D7FF"/>
<path d="M154.112 78.1809C153.949 78.1809 153.796 78.1474 153.653 78.0804C153.51 78.0157 153.385 77.9275 153.278 77.8159C153.171 77.7065 153.086 77.5782 153.023 77.4309C152.963 77.2858 152.933 77.1318 152.933 76.9688L152.933 76.6239C152.933 76.461 152.963 76.3059 153.023 76.1585C153.086 76.0135 153.171 75.8851 153.278 75.7735C153.385 75.6641 153.51 75.576 153.653 75.509C153.796 75.4443 153.949 75.4119 154.112 75.4119L154.302 75.4119L154.373 75.8438L154.112 75.8438C154.004 75.8438 153.904 75.865 153.81 75.9074C153.719 75.9521 153.637 76.0112 153.566 76.0849C153.497 76.1585 153.442 76.2434 153.402 76.3393C153.362 76.4376 153.342 76.5402 153.342 76.6474L153.342 76.9487C153.342 77.0559 153.362 77.1574 153.402 77.2534C153.442 77.3494 153.497 77.4342 153.566 77.5079C153.637 77.5815 153.719 77.6396 153.81 77.682C153.904 77.7266 154.004 77.7489 154.112 77.7489L154.256 77.7489C154.421 77.7489 154.558 77.7166 154.667 77.6518C154.777 77.5871 154.869 77.5012 154.945 77.394C155.023 77.2869 155.089 77.1652 155.143 77.0291C155.196 76.8952 155.25 76.7568 155.304 76.6139C155.357 76.471 155.416 76.3315 155.481 76.1954C155.546 76.0614 155.626 75.9409 155.722 75.8338C155.82 75.7266 155.94 75.6407 156.08 75.576C156.221 75.5112 156.394 75.4789 156.599 75.4789L156.69 75.4789C156.853 75.4789 157.006 75.509 157.148 75.5693C157.291 75.6318 157.416 75.7166 157.523 75.8237C157.631 75.9309 157.714 76.0559 157.775 76.1987C157.837 76.3438 157.868 76.4978 157.868 76.6608L157.868 76.9688C157.868 77.1318 157.837 77.2847 157.775 77.4275C157.714 77.5704 157.631 77.6954 157.523 77.8025C157.416 77.9097 157.291 77.9934 157.148 78.0536C157.006 78.1161 156.853 78.1474 156.69 78.1474L156.566 78.1474L156.496 77.7155L156.69 77.7155C156.797 77.7155 156.896 77.6954 156.988 77.6552C157.081 77.615 157.163 77.5603 157.232 77.4911C157.301 77.4219 157.356 77.3405 157.396 77.2467C157.436 77.1552 157.456 77.0559 157.456 76.9487L157.456 76.6809C157.456 76.5737 157.436 76.4733 157.396 76.3795C157.356 76.288 157.301 76.2065 157.232 76.1351C157.163 76.0659 157.081 76.0112 156.988 75.971C156.896 75.9309 156.797 75.9108 156.69 75.9108L156.599 75.9108C156.445 75.9108 156.316 75.9431 156.211 76.0079C156.106 76.0726 156.016 76.1585 155.94 76.2657C155.866 76.3728 155.801 76.4934 155.746 76.6273C155.692 76.7635 155.636 76.903 155.578 77.0458C155.522 77.1887 155.46 77.3271 155.391 77.461C155.324 77.5972 155.24 77.7188 155.14 77.826C155.041 77.9331 154.921 78.019 154.778 78.0838C154.635 78.1485 154.461 78.1809 154.256 78.1809L154.112 78.1809ZM153 81.1273L153.348 80.8996C153.221 80.8059 153.119 80.6887 153.044 80.5481C152.97 80.4074 152.933 80.2534 152.933 80.086L152.933 79.9822C152.933 79.8438 152.959 79.7132 153.01 79.5905C153.064 79.4677 153.136 79.3606 153.228 79.269C153.319 79.1775 153.426 79.105 153.549 79.0514C153.672 79.0001 153.802 78.9744 153.941 78.9744L156.429 78.9744L156.429 79.3862L153.917 79.3862C153.835 79.3862 153.757 79.4018 153.683 79.4331C153.612 79.4643 153.549 79.5068 153.496 79.5603C153.442 79.6139 153.4 79.6764 153.368 79.7478C153.337 79.8215 153.321 79.8996 153.321 79.9822L153.321 80.2568C153.321 80.3393 153.337 80.4164 153.368 80.4878C153.4 80.5614 153.442 80.6251 153.496 80.6786C153.549 80.7322 153.612 80.7746 153.683 80.8059C153.757 80.8371 153.835 80.8527 153.917 80.8527L156.429 80.8527L156.429 81.2646L153 81.2646L153 81.1273ZM153 83.9666L155.511 83.9666C155.594 83.9666 155.671 83.951 155.742 83.9197C155.816 83.8885 155.879 83.846 155.933 83.7925C155.987 83.7389 156.029 83.6753 156.06 83.6016C156.092 83.5302 156.107 83.4532 156.107 83.3706L156.107 83.096C156.107 83.0135 156.092 82.9353 156.06 82.8617C156.029 82.7902 155.987 82.7277 155.933 82.6742C155.879 82.6206 155.816 82.5782 155.742 82.5469C155.671 82.5157 155.594 82.5001 155.511 82.5001L153 82.5001L153 82.0882L156.429 82.0882L156.429 82.2255L156.08 82.4498C156.208 82.5436 156.308 82.6608 156.382 82.8014C156.458 82.9443 156.496 83.0994 156.496 83.2668L156.496 83.3706C156.496 83.509 156.469 83.6396 156.415 83.7623C156.364 83.8851 156.292 83.9922 156.201 84.0838C156.109 84.1753 156.002 84.2467 155.879 84.2981C155.757 84.3516 155.626 84.3784 155.488 84.3784L153 84.3784L153 83.9666ZM157.41 86.3806C157.41 86.3114 157.396 86.2467 157.369 86.1864C157.345 86.1284 157.31 86.0771 157.266 86.0324C157.221 85.9878 157.169 85.9521 157.108 85.9253C157.048 85.9007 156.983 85.8885 156.914 85.8885L156.429 85.8885L156.429 86.6887L156.037 86.6887L156.037 85.8885L153 85.8885L153 85.4766L156.037 85.4766L156.037 84.8572L156.429 84.8572L156.429 85.4766L156.894 85.4766C157.019 85.4766 157.136 85.5001 157.246 85.5469C157.357 85.5938 157.454 85.6585 157.537 85.7411C157.619 85.8237 157.684 85.9197 157.731 86.0291C157.778 86.1385 157.801 86.2556 157.801 86.3806L157.801 86.759L157.41 86.759L157.41 86.3806ZM153 87.3081L157.801 87.3081L157.801 87.7199L153 87.7199L153 87.3081ZM153.941 90.9074C153.802 90.9074 153.672 90.8806 153.549 90.8271C153.426 90.7757 153.319 90.7043 153.228 90.6128C153.136 90.5213 153.064 90.4141 153.01 90.2914C152.959 90.1686 152.933 90.038 152.933 89.8996L152.933 89.6251C152.933 89.4867 152.959 89.3561 153.01 89.2333C153.064 89.1106 153.136 89.0034 153.228 88.9119C153.319 88.8204 153.426 88.7478 153.549 88.6943C153.672 88.6429 153.802 88.6172 153.941 88.6172L155.488 88.6172C155.626 88.6172 155.757 88.6429 155.879 88.6943C156.002 88.7478 156.109 88.8204 156.201 88.9119C156.292 89.0034 156.364 89.1106 156.415 89.2333C156.469 89.3561 156.496 89.4867 156.496 89.6251L156.496 89.8996C156.496 90.038 156.469 90.1686 156.415 90.2914C156.364 90.4141 156.292 90.5213 156.201 90.6128C156.109 90.7043 156.002 90.7757 155.879 90.8271C155.757 90.8806 155.626 90.9074 155.488 90.9074L153.941 90.9074ZM155.511 90.4956C155.594 90.4956 155.671 90.48 155.742 90.4487C155.816 90.4175 155.879 90.3751 155.933 90.3215C155.987 90.2679 156.029 90.2043 156.06 90.1306C156.092 90.0592 156.107 89.9822 156.107 89.8996L156.107 89.6251C156.107 89.5425 156.092 89.4643 156.06 89.3907C156.029 89.3193 155.987 89.2568 155.933 89.2032C155.879 89.1496 155.816 89.1072 155.742 89.076C155.671 89.0447 155.594 89.0291 155.511 89.0291L153.917 89.0291C153.835 89.0291 153.757 89.0447 153.683 89.076C153.612 89.1072 153.549 89.1496 153.496 89.2032C153.442 89.2568 153.4 89.3193 153.368 89.3907C153.337 89.4643 153.321 89.5425 153.321 89.6251L153.321 89.8996C153.321 89.9822 153.337 90.0592 153.368 90.1306C153.4 90.2043 153.442 90.2679 153.496 90.3215C153.549 90.3751 153.612 90.4175 153.683 90.4487C153.757 90.48 153.835 90.4956 153.917 90.4956L155.511 90.4956ZM153 94.6172L153 94.3929L155.585 93.5893L155.762 93.576L155.585 93.5626L153 92.759L153 92.5313L156.429 91.3862L156.429 91.8047L153.837 92.6217L153.66 92.6351L153.837 92.6485L156.429 93.4521L156.429 93.6998L153.837 94.5001L153.66 94.5135L153.837 94.5268L156.429 95.3438L156.429 95.7623L153 94.6172ZM153.941 98.5347C153.802 98.5347 153.672 98.5079 153.549 98.4543C153.426 98.403 153.319 98.3315 153.228 98.24C153.136 98.1485 153.064 98.0414 153.01 97.9186C152.959 97.7958 152.933 97.6652 152.933 97.5268L152.933 97.2523C152.933 97.1139 152.959 96.9833 153.01 96.8606C153.064 96.7378 153.136 96.6306 153.228 96.5391C153.319 96.4476 153.426 96.3751 153.549 96.3215C153.672 96.2702 153.802 96.2445 153.941 96.2445L155.488 96.2445C155.626 96.2445 155.757 96.2702 155.879 96.3215C156.002 96.3751 156.109 96.4476 156.201 96.5391C156.292 96.6306 156.364 96.7378 156.415 96.8606C156.469 96.9833 156.496 97.1139 156.496 97.2523L156.496 97.5268C156.496 97.6652 156.469 97.7958 156.415 97.9186C156.364 98.0414 156.292 98.1485 156.201 98.24C156.109 98.3315 156.002 98.403 155.879 98.4543C155.757 98.5079 155.626 98.5347 155.488 98.5347L154.681 98.5347L154.681 96.6563L153.917 96.6563C153.835 96.6563 153.757 96.6719 153.683 96.7032C153.612 96.7344 153.549 96.7768 153.496 96.8304C153.442 96.884 153.4 96.9465 153.368 97.0179C153.337 97.0916 153.321 97.1697 153.321 97.2523L153.321 97.5268C153.321 97.6094 153.337 97.6864 153.368 97.7579C153.4 97.8315 153.442 97.8952 153.496 97.9487C153.549 98.0023 153.612 98.0447 153.683 98.076C153.757 98.1072 153.835 98.1228 153.917 98.1228L154.145 98.1228L154.078 98.5347L153.941 98.5347ZM155.511 98.1228C155.594 98.1228 155.671 98.1072 155.742 98.076C155.816 98.0447 155.879 98.0023 155.933 97.9487C155.987 97.8952 156.029 97.8315 156.06 97.7579C156.092 97.6864 156.107 97.6094 156.107 97.5268L156.107 97.2523C156.107 97.1697 156.092 97.0916 156.06 97.0179C156.029 96.9465 155.987 96.884 155.933 96.8304C155.879 96.7768 155.816 96.7344 155.742 96.7032C155.671 96.6719 155.594 96.6563 155.511 96.6563L155.002 96.6563L155.002 98.1228L155.511 98.1228ZM156.037 100.366C156.037 100.284 156.021 100.205 155.99 100.132C155.959 100.06 155.916 99.9978 155.863 99.9443C155.809 99.8907 155.746 99.8483 155.672 99.817C155.6 99.7858 155.523 99.7702 155.441 99.7702L153 99.7702L153 99.3583L156.429 99.3583L156.429 99.4956L156.08 99.7199C156.208 99.8137 156.308 99.9309 156.382 100.071C156.458 100.214 156.496 100.369 156.496 100.537L156.496 100.778L156.037 100.778L156.037 100.366Z" fill="#B8D7FF"/>
<path d="M102.703 94.1887L105 94.1887L105 94.6206L102.71 94.6206L100.199 95.8628L100.199 95.3974L102.194 94.4097L100.199 93.4219L100.199 92.9565L102.703 94.1887ZM105 90.4621L104.652 90.6898C104.779 90.7835 104.881 90.9007 104.956 91.0414C105.03 91.182 105.067 91.336 105.067 91.5034L105.067 91.6072C105.067 91.7456 105.041 91.8762 104.99 91.9989C104.936 92.1217 104.864 92.2289 104.772 92.3204C104.681 92.4119 104.574 92.4844 104.451 92.538C104.328 92.5893 104.198 92.615 104.059 92.615L101.571 92.615L101.571 92.2032L104.083 92.2032C104.165 92.2032 104.243 92.1876 104.317 92.1563C104.388 92.1251 104.451 92.0827 104.504 92.0291C104.558 91.9755 104.6 91.913 104.632 91.8416C104.663 91.7679 104.679 91.6898 104.679 91.6072L104.679 91.3327C104.679 91.2501 104.663 91.1731 104.632 91.1016C104.6 91.028 104.558 90.9643 104.504 90.9108C104.451 90.8572 104.388 90.8148 104.317 90.7835C104.243 90.7523 104.165 90.7367 104.083 90.7367L101.571 90.7367L101.571 90.3248L105 90.3248L105 90.4621ZM104.059 87.211C104.198 87.211 104.328 87.2378 104.451 87.2914C104.574 87.3427 104.681 87.4141 104.772 87.5056C104.864 87.5972 104.936 87.7043 104.99 87.8271C105.041 87.9498 105.067 88.0804 105.067 88.2188L105.067 88.4934C105.067 88.6318 105.041 88.7623 104.99 88.8851C104.936 89.0079 104.864 89.115 104.772 89.2065C104.681 89.2981 104.574 89.3706 104.451 89.4242C104.328 89.4755 104.198 89.5012 104.059 89.5012L102.512 89.5012C102.374 89.5012 102.243 89.4755 102.121 89.4242C101.998 89.3706 101.891 89.2981 101.799 89.2065C101.708 89.115 101.636 89.0079 101.585 88.8851C101.531 88.7623 101.504 88.6318 101.504 88.4934L101.504 88.2188C101.504 88.0804 101.531 87.9498 101.585 87.8271C101.636 87.7043 101.708 87.5972 101.799 87.5056C101.891 87.4141 101.998 87.3427 102.121 87.2914C102.243 87.2378 102.374 87.211 102.512 87.211L102.65 87.211L102.717 87.6228L102.489 87.6228C102.406 87.6228 102.329 87.6385 102.258 87.6697C102.184 87.701 102.121 87.7434 102.067 87.7969C102.013 87.8505 101.971 87.9141 101.94 87.9878C101.908 88.0592 101.893 88.1362 101.893 88.2188L101.893 88.4934C101.893 88.576 101.908 88.6541 101.94 88.7277C101.971 88.7992 102.013 88.8617 102.067 88.9152C102.121 88.9688 102.184 89.0112 102.258 89.0425C102.329 89.0737 102.406 89.0893 102.489 89.0893L104.083 89.0893C104.165 89.0893 104.243 89.0737 104.317 89.0425C104.388 89.0112 104.451 88.9688 104.504 88.9152C104.558 88.8617 104.6 88.7992 104.632 88.7277C104.663 88.6541 104.679 88.576 104.679 88.4934L104.679 88.2188C104.679 88.1362 104.663 88.0592 104.632 87.9878C104.6 87.9141 104.558 87.8505 104.504 87.7969C104.451 87.7434 104.388 87.701 104.317 87.6697C104.243 87.6385 104.165 87.6228 104.083 87.6228L103.855 87.6228L103.922 87.211L104.059 87.211ZM104.059 84.0972C104.198 84.0972 104.328 84.1239 104.451 84.1775C104.574 84.2289 104.681 84.3003 104.772 84.3918C104.864 84.4833 104.936 84.5905 104.99 84.7132C105.041 84.836 105.067 84.9666 105.067 85.105L105.067 85.3795C105.067 85.5179 105.041 85.6485 104.99 85.7713C104.936 85.894 104.864 86.0012 104.772 86.0927C104.681 86.1842 104.574 86.2568 104.451 86.3103C104.328 86.3617 104.198 86.3873 104.059 86.3873L102.512 86.3873C102.374 86.3873 102.243 86.3617 102.121 86.3103C101.998 86.2568 101.891 86.1842 101.799 86.0927C101.708 86.0012 101.636 85.894 101.585 85.7713C101.531 85.6485 101.504 85.5179 101.504 85.3795L101.504 85.105C101.504 84.9666 101.531 84.836 101.585 84.7132C101.636 84.5905 101.708 84.4833 101.799 84.3918C101.891 84.3003 101.998 84.2289 102.121 84.1775C102.243 84.1239 102.374 84.0972 102.512 84.0972L102.65 84.0972L102.717 84.509L102.489 84.509C102.406 84.509 102.329 84.5246 102.258 84.5559C102.184 84.5871 102.121 84.6295 102.067 84.6831C102.013 84.7367 101.971 84.8003 101.94 84.8739C101.908 84.9454 101.893 85.0224 101.893 85.105L101.893 85.3795C101.893 85.4621 101.908 85.5402 101.94 85.6139C101.971 85.6853 102.013 85.7478 102.067 85.8014C102.121 85.855 102.184 85.8974 102.258 85.9286C102.329 85.9599 102.406 85.9755 102.489 85.9755L104.083 85.9755C104.165 85.9755 104.243 85.9599 104.317 85.9286C104.388 85.8974 104.451 85.855 104.504 85.8014C104.558 85.7478 104.6 85.6853 104.632 85.6139C104.663 85.5402 104.679 85.4621 104.679 85.3795L104.679 85.105C104.679 85.0224 104.663 84.9454 104.632 84.8739C104.6 84.8003 104.558 84.7367 104.504 84.6831C104.451 84.6295 104.388 84.5871 104.317 84.5559C104.243 84.5246 104.165 84.509 104.083 84.509L103.855 84.509L103.922 84.0972L104.059 84.0972ZM105 81.1206L104.658 81.3483C104.781 81.442 104.881 81.5592 104.956 81.6998C105.03 81.8405 105.067 81.9945 105.067 82.1619L105.067 82.2657C105.067 82.4041 105.041 82.5347 104.99 82.6574C104.936 82.7802 104.864 82.8873 104.772 82.9789C104.681 83.0704 104.574 83.1429 104.451 83.1965C104.328 83.2478 104.198 83.2735 104.059 83.2735L104.026 83.2735C103.887 83.2735 103.757 83.2478 103.634 83.1965C103.511 83.1429 103.404 83.0704 103.313 82.9789C103.221 82.8873 103.15 82.7802 103.098 82.6574C103.045 82.5347 103.018 82.4041 103.018 82.2657L103.018 81.3952L102.489 81.3952C102.406 81.3952 102.329 81.4108 102.258 81.442C102.184 81.4733 102.121 81.5157 102.067 81.5693C102.013 81.6228 101.971 81.6864 101.94 81.7601C101.908 81.8315 101.893 81.9085 101.893 81.9911L101.893 82.2322C101.893 82.3148 101.908 82.3929 101.94 82.4666C101.971 82.538 102.013 82.6005 102.067 82.6541C102.121 82.7077 102.184 82.7501 102.258 82.7813C102.329 82.8126 102.406 82.8282 102.489 82.8282L102.613 82.8282L102.546 83.24L102.512 83.24C102.374 83.24 102.243 83.2143 102.121 83.163C101.998 83.1094 101.891 83.0369 101.799 82.9454C101.708 82.8539 101.636 82.7467 101.585 82.6239C101.531 82.5012 101.504 82.3706 101.504 82.2322L101.504 81.9911C101.504 81.8527 101.531 81.7222 101.585 81.5994C101.636 81.4766 101.708 81.3695 101.799 81.278C101.891 81.1864 101.998 81.115 102.121 81.0637C102.243 81.0101 102.374 80.9833 102.512 80.9833L105 80.9833L105 81.1206ZM103.339 81.3952L103.339 82.2657C103.339 82.3483 103.355 82.4264 103.386 82.5001C103.417 82.5715 103.461 82.634 103.517 82.6876C103.57 82.7411 103.634 82.7835 103.708 82.8148C103.779 82.846 103.856 82.8617 103.939 82.8617L104.083 82.8617C104.165 82.8617 104.243 82.846 104.317 82.8148C104.388 82.7835 104.451 82.7411 104.504 82.6876C104.558 82.634 104.6 82.5715 104.632 82.5001C104.663 82.4264 104.679 82.3483 104.679 82.2657L104.679 81.9911C104.679 81.9085 104.663 81.8315 104.632 81.7601C104.6 81.6864 104.558 81.6228 104.504 81.5693C104.451 81.5157 104.388 81.4733 104.317 81.442C104.243 81.4108 104.165 81.3952 104.083 81.3952L103.339 81.3952Z" fill="#B8D7FF"/>
</g>
<g clip-path="url(#clip3_135_4596)">
<path d="M52.7511 60.9766C52.7511 61.1396 52.7199 61.2925 52.6574 61.4353C52.5971 61.5782 52.5134 61.7032 52.4062 61.8103C52.2991 61.9175 52.173 62.0023 52.0279 62.0648C51.885 62.1251 51.7321 62.1552 51.5692 62.1552L50.481 62.1552L50.481 64.0001L50.0491 64.0001L50.0491 59.1987L51.5692 59.1987C51.7321 59.1987 51.885 59.23 52.0279 59.2925C52.173 59.3527 52.2991 59.4364 52.4062 59.5436C52.5134 59.6507 52.5971 59.7768 52.6574 59.9219C52.7199 60.0648 52.7511 60.2177 52.7511 60.3806L52.7511 60.9766ZM52.3192 60.3806C52.3192 60.2735 52.2991 60.1742 52.2589 60.0827C52.2187 59.9889 52.1629 59.9074 52.0915 59.8382C52.0223 59.7668 51.9408 59.711 51.8471 59.6708C51.7556 59.6306 51.6562 59.6106 51.5491 59.6106L50.481 59.6106L50.481 61.7434L51.5491 61.7434C51.6562 61.7434 51.7556 61.7233 51.8471 61.6831C51.9408 61.6429 52.0223 61.5882 52.0915 61.519C52.1629 61.4498 52.2187 61.3695 52.2589 61.278C52.2991 61.1842 52.3192 61.0838 52.3192 60.9766L52.3192 60.3806ZM54.4487 60.9632C54.3661 60.9632 54.2879 60.9789 54.2143 61.0101C54.1429 61.0414 54.0804 61.0838 54.0268 61.1373C53.9732 61.1909 53.9308 61.2545 53.8996 61.3282C53.8683 61.3996 53.8527 61.4766 53.8527 61.5592L53.8527 64.0001L53.4408 64.0001L53.4408 60.5715L53.5781 60.5715L53.8025 60.9197C53.8962 60.7925 54.0134 60.692 54.154 60.6184C54.2969 60.5425 54.452 60.5045 54.6194 60.5045L54.8605 60.5045L54.8605 60.9632L54.4487 60.9632ZM57.6998 63.0592C57.6998 63.1976 57.673 63.3282 57.6194 63.451C57.5681 63.5737 57.4967 63.6809 57.4051 63.7724C57.3136 63.8639 57.2065 63.9364 57.0837 63.99C56.9609 64.0414 56.8304 64.067 56.692 64.067L56.4174 64.067C56.279 64.067 56.1484 64.0414 56.0257 63.99C55.9029 63.9364 55.7958 63.8639 55.7042 63.7724C55.6127 63.6809 55.5402 63.5737 55.4866 63.451C55.4353 63.3282 55.4096 63.1976 55.4096 63.0592L55.4096 61.5123C55.4096 61.3739 55.4353 61.2434 55.4866 61.1206C55.5402 60.9978 55.6127 60.8907 55.7042 60.7992C55.7958 60.7077 55.9029 60.6362 56.0257 60.5849C56.1484 60.5313 56.279 60.5045 56.4174 60.5045L56.692 60.5045C56.8304 60.5045 56.9609 60.5313 57.0837 60.5849C57.2065 60.6362 57.3136 60.7077 57.4051 60.7992C57.4967 60.8907 57.5681 60.9978 57.6194 61.1206C57.673 61.2434 57.6998 61.3739 57.6998 61.5123L57.6998 62.3193L55.8214 62.3193L55.8214 63.0827C55.8214 63.1652 55.8371 63.2434 55.8683 63.317C55.8996 63.3885 55.942 63.451 55.9955 63.5045C56.0491 63.5581 56.1116 63.6005 56.183 63.6318C56.2567 63.663 56.3348 63.6786 56.4174 63.6786L56.692 63.6786C56.7746 63.6786 56.8516 63.663 56.923 63.6318C56.9967 63.6005 57.0603 63.5581 57.1138 63.5045C57.1674 63.451 57.2098 63.3885 57.2411 63.317C57.2723 63.2434 57.2879 63.1652 57.2879 63.0827L57.2879 62.855L57.6998 62.9219L57.6998 63.0592ZM57.2879 61.4889C57.2879 61.4063 57.2723 61.3293 57.2411 61.2579C57.2098 61.1842 57.1674 61.1206 57.1138 61.067C57.0603 61.0135 56.9967 60.971 56.923 60.9398C56.8516 60.9085 56.7746 60.8929 56.692 60.8929L56.4174 60.8929C56.3348 60.8929 56.2567 60.9085 56.183 60.9398C56.1116 60.971 56.0491 61.0135 55.9955 61.067C55.942 61.1206 55.8996 61.1842 55.8683 61.2579C55.8371 61.3293 55.8214 61.4063 55.8214 61.4889L55.8214 61.9978L57.2879 61.9978L57.2879 61.4889ZM60.8806 63.1295C60.8806 63.2679 60.8527 63.3952 60.7969 63.5112C60.7411 63.6251 60.6652 63.7233 60.5692 63.8059C60.4732 63.8885 60.3616 63.9532 60.2344 64.0001C60.1094 64.0447 59.9777 64.067 59.8393 64.067L59.5647 64.067C59.4263 64.067 59.2935 64.0414 59.1663 63.99C59.0413 63.9364 58.9308 63.8639 58.8348 63.7724C58.7411 63.6809 58.6652 63.5737 58.6071 63.451C58.5513 63.3282 58.5234 63.1976 58.5234 63.0592L58.5234 62.9219L58.9353 62.855L58.9353 63.0827C58.9353 63.1652 58.952 63.2434 58.9855 63.317C59.0212 63.3885 59.0681 63.451 59.1261 63.5045C59.1842 63.5581 59.2511 63.6005 59.327 63.6318C59.4029 63.663 59.4821 63.6786 59.5647 63.6786L59.8393 63.6786C59.9219 63.6786 60.0011 63.6664 60.077 63.6418C60.1529 63.6172 60.2199 63.5827 60.2779 63.538C60.3382 63.4911 60.385 63.4353 60.4185 63.3706C60.4542 63.3059 60.4721 63.2322 60.4721 63.1496C60.4721 63.0268 60.4453 62.9264 60.3917 62.8483C60.3382 62.7702 60.2667 62.7054 60.1775 62.6541C60.0904 62.6005 59.99 62.557 59.8761 62.5235C59.7645 62.4878 59.6496 62.4532 59.5312 62.4197C59.4129 62.384 59.2969 62.3438 59.183 62.2992C59.0714 62.2545 58.971 62.1965 58.8817 62.1251C58.7946 62.0514 58.7243 61.9599 58.6708 61.8505C58.6172 61.7411 58.5904 61.605 58.5904 61.442C58.5904 61.3036 58.6172 61.1775 58.6708 61.0637C58.7243 60.9476 58.7969 60.8483 58.8884 60.7657C58.9799 60.6831 59.0859 60.6195 59.2065 60.5748C59.3292 60.528 59.4598 60.5045 59.5982 60.5045L59.8393 60.5045C59.9777 60.5045 60.1083 60.5313 60.231 60.5849C60.3538 60.6362 60.4609 60.7077 60.5525 60.7992C60.644 60.8907 60.7154 60.9978 60.7667 61.1206C60.8203 61.2434 60.8471 61.3739 60.8471 61.5123L60.8471 61.5257L60.4353 61.5927L60.4353 61.4889C60.4353 61.4063 60.4196 61.3293 60.3884 61.2579C60.3571 61.1842 60.3147 61.1206 60.2612 61.067C60.2076 61.0135 60.144 60.971 60.0703 60.9398C59.9989 60.9085 59.9219 60.8929 59.8393 60.8929L59.5982 60.8929C59.5156 60.8929 59.4375 60.9052 59.3638 60.9297C59.2924 60.9543 59.2299 60.99 59.1763 61.0369C59.1228 61.0815 59.0804 61.1362 59.0491 61.201C59.0179 61.2657 59.0022 61.3393 59.0022 61.4219C59.0022 61.5402 59.029 61.6373 59.0826 61.7132C59.1362 61.7869 59.2065 61.8494 59.2935 61.9007C59.3828 61.9521 59.4833 61.9956 59.5949 62.0313C59.7087 62.0648 59.8237 62.1005 59.9397 62.1385C60.058 62.1742 60.173 62.2155 60.2846 62.2623C60.3984 62.3092 60.4989 62.3695 60.5859 62.4431C60.6752 62.5168 60.7467 62.6094 60.8002 62.721C60.8538 62.8304 60.8806 62.9666 60.8806 63.1295ZM63.9609 63.0592C63.9609 63.1976 63.9342 63.3282 63.8806 63.451C63.8292 63.5737 63.7578 63.6809 63.6663 63.7724C63.5748 63.8639 63.4676 63.9364 63.3449 63.99C63.2221 64.0414 63.0915 64.067 62.9531 64.067L62.6786 64.067C62.5402 64.067 62.4096 64.0414 62.2868 63.99C62.1641 63.9364 62.0569 63.8639 61.9654 63.7724C61.8739 63.6809 61.8013 63.5737 61.7478 63.451C61.6964 63.3282 61.6708 63.1976 61.6708 63.0592L61.6708 61.5123C61.6708 61.3739 61.6964 61.2434 61.7478 61.1206C61.8013 60.9978 61.8739 60.8907 61.9654 60.7992C62.0569 60.7077 62.1641 60.6362 62.2868 60.5849C62.4096 60.5313 62.5402 60.5045 62.6786 60.5045L62.9531 60.5045C63.0915 60.5045 63.2221 60.5313 63.3449 60.5849C63.4676 60.6362 63.5748 60.7077 63.6663 60.7992C63.7578 60.8907 63.8292 60.9978 63.8806 61.1206C63.9342 61.2434 63.9609 61.3739 63.9609 61.5123L63.9609 62.3193L62.0826 62.3193L62.0826 63.0827C62.0826 63.1652 62.0982 63.2434 62.1295 63.317C62.1607 63.3885 62.2031 63.451 62.2567 63.5045C62.3103 63.5581 62.3728 63.6005 62.4442 63.6318C62.5179 63.663 62.596 63.6786 62.6786 63.6786L62.9531 63.6786C63.0357 63.6786 63.1127 63.663 63.1842 63.6318C63.2578 63.6005 63.3214 63.5581 63.375 63.5045C63.4286 63.451 63.471 63.3885 63.5022 63.317C63.5335 63.2434 63.5491 63.1652 63.5491 63.0827L63.5491 62.855L63.9609 62.9219L63.9609 63.0592ZM63.5491 61.4889C63.5491 61.4063 63.5335 61.3293 63.5022 61.2579C63.471 61.1842 63.4286 61.1206 63.375 61.067C63.3214 61.0135 63.2578 60.971 63.1842 60.9398C63.1127 60.9085 63.0357 60.8929 62.9531 60.8929L62.6786 60.8929C62.596 60.8929 62.5179 60.9085 62.4442 60.9398C62.3728 60.971 62.3103 61.0135 62.2567 61.067C62.2031 61.1206 62.1607 61.1842 62.1295 61.2579C62.0982 61.3293 62.0826 61.4063 62.0826 61.4889L62.0826 61.9978L63.5491 61.9978L63.5491 61.4889ZM66.6629 64.0001L66.6629 61.4889C66.6629 61.4063 66.6473 61.3293 66.6161 61.2579C66.5848 61.1842 66.5424 61.1206 66.4888 61.067C66.4353 61.0135 66.3717 60.971 66.298 60.9398C66.2266 60.9085 66.1496 60.8929 66.067 60.8929L65.7924 60.8929C65.7098 60.8929 65.6317 60.9085 65.558 60.9398C65.4866 60.971 65.4241 61.0135 65.3705 61.067C65.317 61.1206 65.2746 61.1842 65.2433 61.2579C65.2121 61.3293 65.1964 61.4063 65.1964 61.4889L65.1964 64.0001L64.7846 64.0001L64.7846 60.5715L64.9219 60.5715L65.1462 60.9197C65.24 60.7925 65.3571 60.692 65.4978 60.6184C65.6406 60.5425 65.7958 60.5045 65.9632 60.5045L66.067 60.5045C66.2054 60.5045 66.3359 60.5313 66.4587 60.5849C66.5815 60.6362 66.6886 60.7077 66.7801 60.7992C66.8717 60.8907 66.9431 60.9978 66.9944 61.1206C67.048 61.2434 67.0748 61.3739 67.0748 61.5123L67.0748 64.0001L66.6629 64.0001ZM69.1473 64.0001C69.0223 64.0001 68.904 63.9766 68.7924 63.9298C68.683 63.8829 68.5871 63.8181 68.5045 63.7356C68.4241 63.653 68.3594 63.557 68.3103 63.4476C68.2634 63.3382 68.24 63.221 68.24 63.096L68.24 60.9632L67.6239 60.9632L67.6239 60.5715L68.24 60.5715L68.24 59.7478L68.6518 59.6809L68.6518 60.5715L69.5223 60.5715L69.5223 60.9632L68.6518 60.9632L68.6518 63.1161C68.6518 63.1853 68.6641 63.2501 68.6886 63.3103C68.7154 63.3684 68.7511 63.4197 68.7958 63.4643C68.8404 63.509 68.8929 63.5447 68.9531 63.5715C69.0134 63.596 69.0781 63.6083 69.1473 63.6083L69.5223 63.6083L69.5223 64.0001L69.1473 64.0001Z" fill="#B8D7FF"/>
<path d="M85.1116 83.7021C84.9487 83.7021 84.7958 83.6708 84.6529 83.6083C84.51 83.5481 84.385 83.4643 84.2779 83.3572C84.1708 83.2501 84.0859 83.1251 84.0234 82.9822C83.9632 82.8393 83.933 82.6864 83.933 82.5235L83.933 82.3862C83.933 82.2233 83.9632 82.0693 84.0234 81.9242C84.0859 81.7813 84.1708 81.6563 84.2779 81.5492C84.385 81.442 84.51 81.3572 84.6529 81.2947C84.7958 81.2344 84.9487 81.2043 85.1116 81.2043L85.3025 81.2043L85.3728 81.6362L85.1116 81.6362C85.0045 81.6362 84.904 81.6563 84.8103 81.6965C84.7188 81.7367 84.6373 81.7914 84.5658 81.8606C84.4967 81.932 84.442 82.0135 84.4018 82.105C84.3616 82.1987 84.3415 82.2992 84.3415 82.4063L84.3415 82.5034C84.3415 82.6083 84.3616 82.7077 84.4018 82.8014C84.442 82.8952 84.4967 82.9766 84.5658 83.0458C84.6373 83.115 84.7188 83.1697 84.8103 83.2099C84.904 83.2501 85.0045 83.2702 85.1116 83.2702L88.8013 83.2702L88.8013 83.7021L85.1116 83.7021ZM84 86.6786L84.3482 86.451C84.221 86.3572 84.1194 86.24 84.0435 86.0994C83.9699 85.9588 83.933 85.8047 83.933 85.6373L83.933 85.5335C83.933 85.3952 83.9587 85.2646 84.01 85.1418C84.0636 85.019 84.1362 84.9119 84.2277 84.8204C84.3192 84.7289 84.4263 84.6563 84.5491 84.6027C84.6719 84.5514 84.8025 84.5257 84.9408 84.5257L87.4286 84.5257L87.4286 84.9376L84.9174 84.9376C84.8348 84.9376 84.7567 84.9532 84.683 84.9844C84.6116 85.0157 84.5491 85.0581 84.4955 85.1117C84.442 85.1652 84.3996 85.2277 84.3683 85.2992C84.3371 85.3728 84.3214 85.451 84.3214 85.5335L84.3214 85.8081C84.3214 85.8907 84.3371 85.9677 84.3683 86.0391C84.3996 86.1128 84.442 86.1764 84.4955 86.23C84.5491 86.2835 84.6116 86.326 84.683 86.3572C84.7567 86.3885 84.8348 86.4041 84.9174 86.4041L87.4286 86.4041L87.4286 86.8159L84 86.8159L84 86.6786ZM88.2522 87.7434L88.8013 87.7434L88.8013 88.2222L88.2522 88.2222L88.2522 87.7434ZM84 87.7768L87.4286 87.7768L87.4286 88.1887L84 88.1887L84 87.7768ZM84.9408 91.4431C84.8025 91.4431 84.6719 91.4164 84.5491 91.3628C84.4263 91.3114 84.3192 91.24 84.2277 91.1485C84.1362 91.057 84.0636 90.9498 84.01 90.8271C83.9587 90.7043 83.933 90.5737 83.933 90.4353L83.933 90.1608C83.933 90.0224 83.9587 89.8918 84.01 89.769C84.0636 89.6463 84.1362 89.5391 84.2277 89.4476C84.3192 89.3561 84.4263 89.2835 84.5491 89.23C84.6719 89.1786 84.8025 89.153 84.9408 89.153L86.4877 89.153C86.6261 89.153 86.7567 89.1786 86.8795 89.23C87.0022 89.2835 87.1094 89.3561 87.2009 89.4476C87.2924 89.5391 87.3638 89.6463 87.4152 89.769C87.4688 89.8918 87.4955 90.0224 87.4955 90.1608L87.4955 90.4353C87.4955 90.5737 87.4688 90.7043 87.4152 90.8271C87.3638 90.9498 87.2924 91.057 87.2009 91.1485C87.1094 91.24 87.0022 91.3114 86.8795 91.3628C86.7567 91.4164 86.6261 91.4431 86.4877 91.4431L86.3504 91.4431L86.2835 91.0313L86.5112 91.0313C86.5938 91.0313 86.6708 91.0157 86.7422 90.9844C86.8158 90.9532 86.8795 90.9108 86.933 90.8572C86.9866 90.8036 87.029 90.74 87.0603 90.6664C87.0915 90.5949 87.1071 90.5179 87.1071 90.4353L87.1071 90.1608C87.1071 90.0782 87.0915 90.0001 87.0603 89.9264C87.029 89.855 86.9866 89.7925 86.933 89.7389C86.8795 89.6853 86.8158 89.6429 86.7422 89.6117C86.6708 89.5804 86.5938 89.5648 86.5112 89.5648L84.9174 89.5648C84.8348 89.5648 84.7567 89.5804 84.683 89.6117C84.6116 89.6429 84.5491 89.6853 84.4955 89.7389C84.442 89.7925 84.3996 89.855 84.3683 89.9264C84.3371 90.0001 84.3214 90.0782 84.3214 90.1608L84.3214 90.4353C84.3214 90.5179 84.3371 90.5949 84.3683 90.6664C84.3996 90.74 84.442 90.8036 84.4955 90.8572C84.5491 90.9108 84.6116 90.9532 84.683 90.9844C84.7567 91.0157 84.8348 91.0313 84.9174 91.0313L85.1451 91.0313L85.0781 91.4431L84.9408 91.4431ZM84.9408 94.557C84.8025 94.557 84.6719 94.5302 84.5491 94.4766C84.4263 94.4253 84.3192 94.3539 84.2277 94.2623C84.1362 94.1708 84.0636 94.0637 84.01 93.9409C83.9587 93.8181 83.933 93.6876 83.933 93.5492L83.933 93.2746C83.933 93.1362 83.9587 93.0056 84.01 92.8829C84.0636 92.7601 84.1362 92.653 84.2277 92.5614C84.3192 92.4699 84.4263 92.3974 84.5491 92.3438C84.6719 92.2925 84.8025 92.2668 84.9408 92.2668L86.4877 92.2668C86.6261 92.2668 86.7567 92.2925 86.8795 92.3438C87.0022 92.3974 87.1094 92.4699 87.2009 92.5614C87.2924 92.653 87.3638 92.7601 87.4152 92.8829C87.4688 93.0056 87.4955 93.1362 87.4955 93.2746L87.4955 93.5492C87.4955 93.6876 87.4688 93.8181 87.4152 93.9409C87.3638 94.0637 87.2924 94.1708 87.2009 94.2623C87.1094 94.3539 87.0022 94.4253 86.8795 94.4766C86.7567 94.5302 86.6261 94.557 86.4877 94.557L85.6808 94.557L85.6808 92.6786L84.9174 92.6786C84.8348 92.6786 84.7567 92.6943 84.683 92.7255C84.6116 92.7568 84.5491 92.7992 84.4955 92.8527C84.442 92.9063 84.3996 92.9688 84.3683 93.0402C84.3371 93.1139 84.3214 93.192 84.3214 93.2746L84.3214 93.5492C84.3214 93.6318 84.3371 93.7088 84.3683 93.7802C84.3996 93.8539 84.442 93.9175 84.4955 93.971C84.5491 94.0246 84.6116 94.067 84.683 94.0983C84.7567 94.1295 84.8348 94.1452 84.9174 94.1452L85.1451 94.1452L85.0781 94.557L84.9408 94.557ZM86.5112 94.1452C86.5938 94.1452 86.6708 94.1295 86.7422 94.0983C86.8158 94.067 86.8795 94.0246 86.933 93.971C86.9866 93.9175 87.029 93.8539 87.0603 93.7802C87.0915 93.7088 87.1071 93.6318 87.1071 93.5492L87.1071 93.2746C87.1071 93.192 87.0915 93.1139 87.0603 93.0402C87.029 92.9688 86.9866 92.9063 86.933 92.8527C86.8795 92.7992 86.8158 92.7568 86.7422 92.7255C86.6708 92.6943 86.5938 92.6786 86.5112 92.6786L86.0022 92.6786L86.0022 94.1452L86.5112 94.1452Z" fill="#B8D7FF"/>
<path d="M34.8214 90.7489C34.9844 90.7489 35.1373 90.7802 35.2801 90.8427C35.423 90.903 35.548 90.9867 35.6551 91.0938C35.7623 91.201 35.8471 91.3271 35.9096 91.4722C35.9699 91.615 36 91.7679 36 91.9309L36 93.451L31.1987 93.451L31.1987 91.9309C31.1987 91.7679 31.2299 91.615 31.2924 91.4722C31.3527 91.3271 31.4364 91.201 31.5435 91.0938C31.6507 90.9867 31.7768 90.903 31.9219 90.8427C32.0647 90.7802 32.2176 90.7489 32.3806 90.7489L34.8214 90.7489ZM32.3806 91.1809C32.2734 91.1809 32.1741 91.201 32.0826 91.2411C31.9888 91.2813 31.9074 91.3371 31.8382 91.4085C31.7667 91.4777 31.7109 91.5592 31.6708 91.653C31.6306 91.7445 31.6105 91.8438 31.6105 91.951L31.6105 93.019L35.5882 93.019L35.5882 91.951C35.5882 91.8438 35.5681 91.7445 35.5279 91.653C35.4877 91.5592 35.433 91.4777 35.3638 91.4085C35.2946 91.3371 35.2143 91.2813 35.1228 91.2411C35.029 91.201 34.9286 91.1809 34.8214 91.1809L32.3806 91.1809ZM35.0592 87.5681C35.1975 87.5681 35.3281 87.5949 35.4509 87.6485C35.5737 87.6998 35.6808 87.7713 35.7723 87.8628C35.8638 87.9543 35.9364 88.0614 35.99 88.1842C36.0413 88.307 36.067 88.4376 36.067 88.576L36.067 88.8505C36.067 88.9889 36.0413 89.1195 35.99 89.2422C35.9364 89.365 35.8638 89.4722 35.7723 89.5637C35.6808 89.6552 35.5737 89.7277 35.4509 89.7813C35.3281 89.8327 35.1975 89.8583 35.0592 89.8583L33.5123 89.8583C33.3739 89.8583 33.2433 89.8327 33.1205 89.7813C32.9978 89.7277 32.8906 89.6552 32.7991 89.5637C32.7076 89.4722 32.6362 89.365 32.5848 89.2422C32.5313 89.1195 32.5045 88.9889 32.5045 88.8505L32.5045 88.576C32.5045 88.4376 32.5313 88.307 32.5848 88.1842C32.6362 88.0614 32.7076 87.9543 32.7991 87.8628C32.8906 87.7713 32.9978 87.6998 33.1205 87.6485C33.2433 87.5949 33.3739 87.5681 33.5123 87.5681L35.0592 87.5681ZM33.4888 87.98C33.4063 87.98 33.3292 87.9956 33.2578 88.0268C33.1842 88.0581 33.1205 88.1005 33.067 88.1541C33.0134 88.2077 32.971 88.2713 32.9397 88.3449C32.9085 88.4164 32.8929 88.4934 32.8929 88.576L32.8929 88.8505C32.8929 88.9331 32.9085 89.0112 32.9397 89.0849C32.971 89.1563 33.0134 89.2188 33.067 89.2724C33.1205 89.326 33.1842 89.3684 33.2578 89.3996C33.3292 89.4309 33.4063 89.4465 33.4888 89.4465L35.0826 89.4465C35.1652 89.4465 35.2433 89.4309 35.317 89.3996C35.3884 89.3684 35.4509 89.326 35.5045 89.2724C35.558 89.2188 35.6004 89.1563 35.6317 89.0849C35.6629 89.0112 35.6786 88.9331 35.6786 88.8505L35.6786 88.576C35.6786 88.4934 35.6629 88.4164 35.6317 88.3449C35.6004 88.2713 35.558 88.2077 35.5045 88.1541C35.4509 88.1005 35.3884 88.0581 35.317 88.0268C35.2433 87.9956 35.1652 87.98 35.0826 87.98L33.4888 87.98ZM35.0592 84.4543C35.1975 84.4543 35.3281 84.4811 35.4509 84.5347C35.5737 84.586 35.6808 84.6574 35.7723 84.7489C35.8638 84.8405 35.9364 84.9476 35.99 85.0704C36.0413 85.1931 36.067 85.3237 36.067 85.4621L36.067 85.7367C36.067 85.8751 36.0413 86.0056 35.99 86.1284C35.9364 86.2512 35.8638 86.3583 35.7723 86.4498C35.6808 86.5414 35.5737 86.6139 35.4509 86.6675C35.3281 86.7188 35.1975 86.7445 35.0592 86.7445L33.5123 86.7445C33.3739 86.7445 33.2433 86.7188 33.1205 86.6675C32.9978 86.6139 32.8906 86.5414 32.7991 86.4498C32.7076 86.3583 32.6362 86.2512 32.5848 86.1284C32.5313 86.0056 32.5045 85.8751 32.5045 85.7367L32.5045 85.4621C32.5045 85.3237 32.5313 85.1931 32.5848 85.0704C32.6362 84.9476 32.7076 84.8405 32.7991 84.7489C32.8906 84.6574 32.9978 84.586 33.1205 84.5347C33.2433 84.4811 33.3739 84.4543 33.5123 84.4543L35.0592 84.4543ZM33.4888 84.8661C33.4063 84.8661 33.3292 84.8818 33.2578 84.913C33.1842 84.9443 33.1205 84.9867 33.067 85.0402C33.0134 85.0938 32.971 85.1574 32.9397 85.2311C32.9085 85.3025 32.8929 85.3795 32.8929 85.4621L32.8929 85.7367C32.8929 85.8193 32.9085 85.8974 32.9397 85.971C32.971 86.0425 33.0134 86.105 33.067 86.1585C33.1205 86.2121 33.1842 86.2545 33.2578 86.2858C33.3292 86.317 33.4063 86.3327 33.4888 86.3327L35.0826 86.3327C35.1652 86.3327 35.2433 86.317 35.317 86.2858C35.3884 86.2545 35.4509 86.2121 35.5045 86.1585C35.558 86.105 35.6004 86.0425 35.6317 85.971C35.6629 85.8974 35.6786 85.8193 35.6786 85.7367L35.6786 85.4621C35.6786 85.3795 35.6629 85.3025 35.6317 85.2311C35.6004 85.1574 35.558 85.0938 35.5045 85.0402C35.4509 84.9867 35.3884 84.9443 35.317 84.913C35.2433 84.8818 35.1652 84.8661 35.0826 84.8661L33.4888 84.8661ZM32.9632 82.6228C32.9632 82.7054 32.9788 82.7835 33.01 82.8572C33.0413 82.9286 33.0837 82.9911 33.1373 83.0447C33.1908 83.0983 33.2545 83.1407 33.3281 83.1719C33.3996 83.2032 33.4766 83.2188 33.5592 83.2188L36 83.2188L36 83.6306L32.5714 83.6306L32.5714 83.4934L32.9196 83.269C32.7924 83.1753 32.692 83.0581 32.6183 82.9175C32.5424 82.7746 32.5045 82.6195 32.5045 82.4521L32.5045 82.211L32.9632 82.211L32.9632 82.6228Z" fill="#B8D7FF"/>
</g>
<g style="mix-blend-mode:luminosity">
<path d="M90.015 34.5741C90.585 34.5741 91.128 34.5981 91.644 34.6461C91.68 34.7061 91.698 34.7931 91.698 34.9071C91.698 34.9971 91.686 35.0751 91.662 35.1411C91.182 35.0871 90.603 35.0631 89.925 35.0691L89.925 40.1451C89.925 40.4751 89.958 40.6401 90.024 40.6401L90.591 40.6221C90.615 40.6641 90.627 40.7211 90.627 40.7931C90.627 40.8411 90.618 40.8921 90.6 40.9461C90.204 41.0601 89.82 41.1171 89.448 41.1171C89.256 41.1171 89.118 41.1081 89.034 41.0901C88.956 41.0781 88.902 41.0481 88.872 41.0001C88.848 40.9461 88.839 40.8561 88.845 40.7301L88.845 35.1411C88.143 35.1951 87.534 35.2821 87.018 35.4021C86.982 35.3181 86.964 35.2341 86.964 35.1501C86.964 35.1021 86.976 35.0241 87 34.9161C87.864 34.6881 88.869 34.5741 90.015 34.5741ZM96.1321 40.7931C96.1321 40.8411 96.1231 40.8921 96.1051 40.9461C95.7211 41.0601 95.3161 41.1171 94.8901 41.1171C94.7281 41.1171 94.6081 41.1081 94.5301 41.0901C94.4581 41.0781 94.4101 41.0511 94.3861 41.0091C94.3621 40.9731 94.3501 40.9101 94.3501 40.8201C93.6601 41.0181 93.0661 41.1171 92.5681 41.1171C92.2381 41.1171 92.0041 41.0661 91.8661 40.9641C91.7281 40.8621 91.6591 40.6851 91.6591 40.4331L91.6591 39.1731C91.6591 38.9211 91.7221 38.7261 91.8481 38.5881C91.9741 38.4441 92.1751 38.3421 92.4511 38.2821C93.1171 38.1801 93.7501 38.1141 94.3501 38.0841L94.3501 37.3821C94.3501 37.1541 94.3051 37.0041 94.2151 36.9321C94.1311 36.8601 93.9541 36.8241 93.6841 36.8241C93.5161 36.8241 93.1801 36.8661 92.6761 36.9501C92.2381 37.0341 91.9501 37.0971 91.8121 37.1391C91.7821 37.0671 91.7671 36.9921 91.7671 36.9141C91.7671 36.8361 91.7791 36.7761 91.8031 36.7341C92.5651 36.4941 93.4471 36.3741 94.4491 36.3741C94.7731 36.3741 95.0071 36.4251 95.1511 36.5271C95.3011 36.6291 95.3761 36.7971 95.3761 37.0311L95.3761 40.1451C95.3761 40.4751 95.4091 40.6401 95.4751 40.6401L96.0961 40.6221C96.1201 40.6641 96.1321 40.7211 96.1321 40.7931ZM93.2521 40.6131C93.5341 40.6131 93.9001 40.5471 94.3501 40.4151L94.3501 38.4891C94.0201 38.5011 93.7081 38.5341 93.4141 38.5881C93.1141 38.6421 92.9101 38.7141 92.8021 38.8041C92.7241 38.8641 92.6851 38.9991 92.6851 39.2091L92.6851 40.2081C92.6851 40.4781 92.8741 40.6131 93.2521 40.6131ZM97.0042 37.3461C97.0042 37.0161 96.9712 36.8511 96.9052 36.8511L96.2842 36.8691C96.2602 36.8271 96.2482 36.7701 96.2482 36.6981C96.2482 36.6501 96.2572 36.5991 96.2752 36.5451C96.6712 36.4311 97.0762 36.3741 97.4902 36.3741C97.6702 36.3741 97.7962 36.3831 97.8682 36.4011C97.9402 36.4131 97.9852 36.4461 98.0032 36.5001C98.0272 36.5481 98.0362 36.6351 98.0302 36.7611L98.3632 36.6621C98.5732 36.6021 98.7232 36.5631 98.8132 36.5451C98.8072 36.5451 98.8732 36.5301 99.0112 36.5001C99.1792 36.4581 99.3832 36.4221 99.6232 36.3921C99.7672 36.3801 99.8692 36.3741 99.9292 36.3741C100.259 36.3741 100.493 36.4281 100.631 36.5361C100.769 36.6381 100.838 36.8121 100.838 37.0581L100.838 39.9471C100.844 40.4391 100.58 40.7301 100.046 40.8201C99.3982 40.9461 98.7262 41.0211 98.0302 41.0451L98.0302 42.8901C98.0302 42.9741 97.9822 43.0341 97.8862 43.0701C97.6582 43.1361 97.4152 43.1691 97.1572 43.1691C97.0552 43.1691 97.0042 43.1181 97.0042 43.0161L97.0042 37.3461ZM99.3082 36.9141C99.1222 36.9141 98.6962 37.0011 98.0302 37.1751L98.0302 40.6401C98.5282 40.6101 98.9212 40.5651 99.2092 40.5051C99.4552 40.4571 99.6172 40.3971 99.6952 40.3251C99.7732 40.2531 99.8122 40.1211 99.8122 39.9291L99.8122 37.2831C99.8122 37.0371 99.6442 36.9141 99.3082 36.9141Z" fill="#256CD0"/>
</g>
</g>
</g>
<rect y="64.8475" width="189" height="25.1525" fill="url(#paint8_linear_135_4596)"/>
<path d="M48.4062 93V92.3984H49.0078V93H48.4062ZM50.125 93V92.3984H50.7266V93H50.125ZM51.8438 93V92.3984H52.4453V93H51.8438ZM54.9414 93C54.7956 93 54.6576 92.9727 54.5273 92.918C54.3997 92.8633 54.2878 92.7878 54.1914 92.6914C54.0977 92.5951 54.0221 92.4831 53.9648 92.3555C53.9102 92.2279 53.8828 92.0911 53.8828 91.9453V89.457H53.1641V89H53.8828V88.0391L54.3633 87.9609V89H55.3789V89.457H54.3633V91.9688C54.3633 92.0495 54.3776 92.125 54.4062 92.1953C54.4375 92.263 54.4792 92.3229 54.5312 92.375C54.5833 92.4271 54.6445 92.4688 54.7148 92.5C54.7852 92.5286 54.8607 92.543 54.9414 92.543H55.3789V93H54.9414ZM58.457 93V90.0703C58.457 89.974 58.4388 89.8841 58.4023 89.8008C58.3659 89.7148 58.3164 89.6406 58.2539 89.5781C58.1914 89.5156 58.1172 89.4661 58.0312 89.4297C57.9479 89.3932 57.8581 89.375 57.7617 89.375H57.4414C57.3451 89.375 57.2539 89.3932 57.168 89.4297C57.0846 89.4661 57.0117 89.5156 56.9492 89.5781C56.8867 89.6406 56.8372 89.7148 56.8008 89.8008C56.7643 89.8841 56.7461 89.974 56.7461 90.0703V93H56.2656V87.3984H56.7461V89.3359C56.8555 89.2057 56.987 89.1042 57.1406 89.0312C57.2943 88.9583 57.4609 88.9219 57.6406 88.9219H57.7617C57.9232 88.9219 58.0755 88.9531 58.2188 89.0156C58.362 89.0755 58.487 89.1589 58.5938 89.2656C58.7005 89.3724 58.7839 89.4974 58.8438 89.6406C58.9062 89.7839 58.9375 89.9362 58.9375 90.0977V93H58.457ZM62.4102 93L62.1445 92.6016C62.0352 92.7448 61.8984 92.8607 61.7344 92.9492C61.5703 93.0352 61.3906 93.0781 61.1953 93.0781H61.0742C60.9128 93.0781 60.7604 93.0482 60.6172 92.9883C60.474 92.9258 60.349 92.8411 60.2422 92.7344C60.1354 92.6276 60.0508 92.5026 59.9883 92.3594C59.9284 92.2161 59.8984 92.0638 59.8984 91.9023V91.8633C59.8984 91.7018 59.9284 91.5495 59.9883 91.4062C60.0508 91.263 60.1354 91.138 60.2422 91.0312C60.349 90.9245 60.474 90.8411 60.6172 90.7812C60.7604 90.7188 60.9128 90.6875 61.0742 90.6875H62.0898V90.0703C62.0898 89.974 62.0716 89.8841 62.0352 89.8008C61.9987 89.7148 61.9492 89.6406 61.8867 89.5781C61.8242 89.5156 61.75 89.4661 61.6641 89.4297C61.5807 89.3932 61.4909 89.375 61.3945 89.375H61.1133C61.0169 89.375 60.9258 89.3932 60.8398 89.4297C60.7565 89.4661 60.6836 89.5156 60.6211 89.5781C60.5586 89.6406 60.5091 89.7148 60.4727 89.8008C60.4362 89.8841 60.418 89.974 60.418 90.0703V90.2148L59.9375 90.1367V90.0977C59.9375 89.9362 59.9674 89.7839 60.0273 89.6406C60.0898 89.4974 60.1745 89.3724 60.2812 89.2656C60.388 89.1589 60.513 89.0755 60.6562 89.0156C60.7995 88.9531 60.9518 88.9219 61.1133 88.9219H61.3945C61.556 88.9219 61.7083 88.9531 61.8516 89.0156C61.9948 89.0755 62.1198 89.1589 62.2266 89.2656C62.3333 89.3724 62.4167 89.4974 62.4766 89.6406C62.5391 89.7839 62.5703 89.9362 62.5703 90.0977V93H62.4102ZM62.0898 91.0625H61.0742C60.9779 91.0625 60.8867 91.0807 60.8008 91.1172C60.7174 91.1536 60.6445 91.2044 60.582 91.2695C60.5195 91.332 60.4701 91.4062 60.4336 91.4922C60.3971 91.5755 60.3789 91.6654 60.3789 91.7617V91.9297C60.3789 92.026 60.3971 92.1172 60.4336 92.2031C60.4701 92.2865 60.5195 92.3594 60.582 92.4219C60.6445 92.4844 60.7174 92.5339 60.8008 92.5703C60.8867 92.6068 60.9779 92.625 61.0742 92.625H61.3945C61.4909 92.625 61.5807 92.6068 61.6641 92.5703C61.75 92.5339 61.8242 92.4844 61.8867 92.4219C61.9492 92.3594 61.9987 92.2865 62.0352 92.2031C62.0716 92.1172 62.0898 92.026 62.0898 91.9297V91.0625ZM64.9883 93C64.8424 93 64.7044 92.9727 64.5742 92.918C64.4466 92.8633 64.3346 92.7878 64.2383 92.6914C64.1445 92.5951 64.069 92.4831 64.0117 92.3555C63.957 92.2279 63.9297 92.0911 63.9297 91.9453V89.457H63.2109V89H63.9297V88.0391L64.4102 87.9609V89H65.4258V89.457H64.4102V91.9688C64.4102 92.0495 64.4245 92.125 64.4531 92.1953C64.4844 92.263 64.526 92.3229 64.5781 92.375C64.6302 92.4271 64.6914 92.4688 64.7617 92.5C64.832 92.5286 64.9076 92.543 64.9883 92.543H65.4258V93H64.9883ZM70.8281 91.9023C70.8281 92.0638 70.7969 92.2161 70.7344 92.3594C70.6745 92.5026 70.5911 92.6276 70.4844 92.7344C70.3776 92.8411 70.2526 92.9258 70.1094 92.9883C69.9661 93.0482 69.8138 93.0781 69.6523 93.0781H69.332C69.1706 93.0781 69.0182 93.0482 68.875 92.9883C68.7318 92.9258 68.6068 92.8411 68.5 92.7344C68.3932 92.6276 68.3086 92.5026 68.2461 92.3594C68.1862 92.2161 68.1562 92.0638 68.1562 91.9023V90.0977C68.1562 89.9362 68.1862 89.7839 68.2461 89.6406C68.3086 89.4974 68.3932 89.3724 68.5 89.2656C68.6068 89.1589 68.7318 89.0755 68.875 89.0156C69.0182 88.9531 69.1706 88.9219 69.332 88.9219H69.6523C69.8138 88.9219 69.9661 88.9531 70.1094 89.0156C70.2526 89.0755 70.3776 89.1589 70.4844 89.2656C70.5911 89.3724 70.6745 89.4974 70.7344 89.6406C70.7969 89.7839 70.8281 89.9362 70.8281 90.0977V90.2578L70.3477 90.3359V90.0703C70.3477 89.974 70.3294 89.8841 70.293 89.8008C70.2565 89.7148 70.207 89.6406 70.1445 89.5781C70.082 89.5156 70.0078 89.4661 69.9219 89.4297C69.8385 89.3932 69.7487 89.375 69.6523 89.375H69.332C69.2357 89.375 69.1445 89.3932 69.0586 89.4297C68.9753 89.4661 68.9023 89.5156 68.8398 89.5781C68.7773 89.6406 68.7279 89.7148 68.6914 89.8008C68.6549 89.8841 68.6367 89.974 68.6367 90.0703V91.9297C68.6367 92.026 68.6549 92.1172 68.6914 92.2031C68.7279 92.2865 68.7773 92.3594 68.8398 92.4219C68.9023 92.4844 68.9753 92.5339 69.0586 92.5703C69.1445 92.6068 69.2357 92.625 69.332 92.625H69.6523C69.7487 92.625 69.8385 92.6068 69.9219 92.5703C70.0078 92.5339 70.082 92.4844 70.1445 92.4219C70.207 92.3594 70.2565 92.2865 70.293 92.2031C70.3294 92.1172 70.3477 92.026 70.3477 91.9297V91.6641L70.8281 91.7422V91.9023ZM74.4609 91.9023C74.4609 92.0638 74.4297 92.2161 74.3672 92.3594C74.3073 92.5026 74.224 92.6276 74.1172 92.7344C74.0104 92.8411 73.8854 92.9258 73.7422 92.9883C73.599 93.0482 73.4466 93.0781 73.2852 93.0781H72.9648C72.8034 93.0781 72.651 93.0482 72.5078 92.9883C72.3646 92.9258 72.2396 92.8411 72.1328 92.7344C72.026 92.6276 71.9414 92.5026 71.8789 92.3594C71.819 92.2161 71.7891 92.0638 71.7891 91.9023V90.0977C71.7891 89.9362 71.819 89.7839 71.8789 89.6406C71.9414 89.4974 72.026 89.3724 72.1328 89.2656C72.2396 89.1589 72.3646 89.0755 72.5078 89.0156C72.651 88.9531 72.8034 88.9219 72.9648 88.9219H73.2852C73.4466 88.9219 73.599 88.9531 73.7422 89.0156C73.8854 89.0755 74.0104 89.1589 74.1172 89.2656C74.224 89.3724 74.3073 89.4974 74.3672 89.6406C74.4297 89.7839 74.4609 89.9362 74.4609 90.0977V91.9023ZM73.9805 90.0703C73.9805 89.974 73.9622 89.8841 73.9258 89.8008C73.8893 89.7148 73.8398 89.6406 73.7773 89.5781C73.7148 89.5156 73.6406 89.4661 73.5547 89.4297C73.4714 89.3932 73.3815 89.375 73.2852 89.375H72.9648C72.8685 89.375 72.7773 89.3932 72.6914 89.4297C72.6081 89.4661 72.5352 89.5156 72.4727 89.5781C72.4102 89.6406 72.3607 89.7148 72.3242 89.8008C72.2878 89.8841 72.2695 89.974 72.2695 90.0703V91.9297C72.2695 92.026 72.2878 92.1172 72.3242 92.2031C72.3607 92.2865 72.4102 92.3594 72.4727 92.4219C72.5352 92.4844 72.6081 92.5339 72.6914 92.5703C72.7773 92.6068 72.8685 92.625 72.9648 92.625H73.2852C73.3815 92.625 73.4714 92.6068 73.5547 92.5703C73.6406 92.5339 73.7148 92.4844 73.7773 92.4219C73.8398 92.3594 73.8893 92.2865 73.9258 92.2031C73.9622 92.1172 73.9805 92.026 73.9805 91.9297V90.0703ZM77.6133 93V90.0703C77.6133 89.974 77.5951 89.8841 77.5586 89.8008C77.5221 89.7148 77.4727 89.6406 77.4102 89.5781C77.3477 89.5156 77.2734 89.4661 77.1875 89.4297C77.1042 89.3932 77.0143 89.375 76.918 89.375H76.5977C76.5013 89.375 76.4102 89.3932 76.3242 89.4297C76.2409 89.4661 76.168 89.5156 76.1055 89.5781C76.043 89.6406 75.9935 89.7148 75.957 89.8008C75.9206 89.8841 75.9023 89.974 75.9023 90.0703V93H75.4219V89H75.582L75.8438 89.4062C75.9531 89.2578 76.0898 89.1406 76.2539 89.0547C76.4206 88.9661 76.6016 88.9219 76.7969 88.9219H76.918C77.0794 88.9219 77.2318 88.9531 77.375 89.0156C77.5182 89.0755 77.6432 89.1589 77.75 89.2656C77.8568 89.3724 77.9401 89.4974 78 89.6406C78.0625 89.7839 78.0938 89.9362 78.0938 90.0977V93H77.6133ZM81.2461 93V90.0703C81.2461 89.974 81.2279 89.8841 81.1914 89.8008C81.1549 89.7148 81.1055 89.6406 81.043 89.5781C80.9805 89.5156 80.9062 89.4661 80.8203 89.4297C80.737 89.3932 80.6471 89.375 80.5508 89.375H80.2305C80.1341 89.375 80.043 89.3932 79.957 89.4297C79.8737 89.4661 79.8008 89.5156 79.7383 89.5781C79.6758 89.6406 79.6263 89.7148 79.5898 89.8008C79.5534 89.8841 79.5352 89.974 79.5352 90.0703V93H79.0547V89H79.2148L79.4766 89.4062C79.5859 89.2578 79.7227 89.1406 79.8867 89.0547C80.0534 88.9661 80.2344 88.9219 80.4297 88.9219H80.5508C80.7122 88.9219 80.8646 88.9531 81.0078 89.0156C81.151 89.0755 81.276 89.1589 81.3828 89.2656C81.4896 89.3724 81.5729 89.4974 81.6328 89.6406C81.6953 89.7839 81.7266 89.9362 81.7266 90.0977V93H81.2461ZM85.3594 91.9023C85.3594 92.0638 85.3281 92.2161 85.2656 92.3594C85.2057 92.5026 85.1224 92.6276 85.0156 92.7344C84.9089 92.8411 84.7839 92.9258 84.6406 92.9883C84.4974 93.0482 84.3451 93.0781 84.1836 93.0781H83.8633C83.7018 93.0781 83.5495 93.0482 83.4062 92.9883C83.263 92.9258 83.138 92.8411 83.0312 92.7344C82.9245 92.6276 82.8398 92.5026 82.7773 92.3594C82.7174 92.2161 82.6875 92.0638 82.6875 91.9023V90.0977C82.6875 89.9362 82.7174 89.7839 82.7773 89.6406C82.8398 89.4974 82.9245 89.3724 83.0312 89.2656C83.138 89.1589 83.263 89.0755 83.4062 89.0156C83.5495 88.9531 83.7018 88.9219 83.8633 88.9219H84.1836C84.3451 88.9219 84.4974 88.9531 84.6406 89.0156C84.7839 89.0755 84.9089 89.1589 85.0156 89.2656C85.1224 89.3724 85.2057 89.4974 85.2656 89.6406C85.3281 89.7839 85.3594 89.9362 85.3594 90.0977V91.0391H83.168V91.9297C83.168 92.026 83.1862 92.1172 83.2227 92.2031C83.2591 92.2865 83.3086 92.3594 83.3711 92.4219C83.4336 92.4844 83.5065 92.5339 83.5898 92.5703C83.6758 92.6068 83.7669 92.625 83.8633 92.625H84.1836C84.2799 92.625 84.3698 92.6068 84.4531 92.5703C84.5391 92.5339 84.6133 92.4844 84.6758 92.4219C84.7383 92.3594 84.7878 92.2865 84.8242 92.2031C84.8607 92.1172 84.8789 92.026 84.8789 91.9297V91.6641L85.3594 91.7422V91.9023ZM84.8789 90.0703C84.8789 89.974 84.8607 89.8841 84.8242 89.8008C84.7878 89.7148 84.7383 89.6406 84.6758 89.5781C84.6133 89.5156 84.5391 89.4661 84.4531 89.4297C84.3698 89.3932 84.2799 89.375 84.1836 89.375H83.8633C83.7669 89.375 83.6758 89.3932 83.5898 89.4297C83.5065 89.4661 83.4336 89.5156 83.3711 89.5781C83.3086 89.6406 83.2591 89.7148 83.2227 89.8008C83.1862 89.8841 83.168 89.974 83.168 90.0703V90.6641H84.8789V90.0703ZM88.9922 91.9023C88.9922 92.0638 88.9609 92.2161 88.8984 92.3594C88.8385 92.5026 88.7552 92.6276 88.6484 92.7344C88.5417 92.8411 88.4167 92.9258 88.2734 92.9883C88.1302 93.0482 87.9779 93.0781 87.8164 93.0781H87.4961C87.3346 93.0781 87.1823 93.0482 87.0391 92.9883C86.8958 92.9258 86.7708 92.8411 86.6641 92.7344C86.5573 92.6276 86.4727 92.5026 86.4102 92.3594C86.3503 92.2161 86.3203 92.0638 86.3203 91.9023V90.0977C86.3203 89.9362 86.3503 89.7839 86.4102 89.6406C86.4727 89.4974 86.5573 89.3724 86.6641 89.2656C86.7708 89.1589 86.8958 89.0755 87.0391 89.0156C87.1823 88.9531 87.3346 88.9219 87.4961 88.9219H87.8164C87.9779 88.9219 88.1302 88.9531 88.2734 89.0156C88.4167 89.0755 88.5417 89.1589 88.6484 89.2656C88.7552 89.3724 88.8385 89.4974 88.8984 89.6406C88.9609 89.7839 88.9922 89.9362 88.9922 90.0977V90.2578L88.5117 90.3359V90.0703C88.5117 89.974 88.4935 89.8841 88.457 89.8008C88.4206 89.7148 88.3711 89.6406 88.3086 89.5781C88.2461 89.5156 88.1719 89.4661 88.0859 89.4297C88.0026 89.3932 87.9128 89.375 87.8164 89.375H87.4961C87.3997 89.375 87.3086 89.3932 87.2227 89.4297C87.1393 89.4661 87.0664 89.5156 87.0039 89.5781C86.9414 89.6406 86.8919 89.7148 86.8555 89.8008C86.819 89.8841 86.8008 89.974 86.8008 90.0703V91.9297C86.8008 92.026 86.819 92.1172 86.8555 92.2031C86.8919 92.2865 86.9414 92.3594 87.0039 92.4219C87.0664 92.4844 87.1393 92.5339 87.2227 92.5703C87.3086 92.6068 87.3997 92.625 87.4961 92.625H87.8164C87.9128 92.625 88.0026 92.6068 88.0859 92.5703C88.1719 92.5339 88.2461 92.4844 88.3086 92.4219C88.3711 92.3594 88.4206 92.2865 88.457 92.2031C88.4935 92.1172 88.5117 92.026 88.5117 91.9297V91.6641L88.9922 91.7422V91.9023ZM91.4102 93C91.2643 93 91.1263 92.9727 90.9961 92.918C90.8685 92.8633 90.7565 92.7878 90.6602 92.6914C90.5664 92.5951 90.4909 92.4831 90.4336 92.3555C90.3789 92.2279 90.3516 92.0911 90.3516 91.9453V89.457H89.6328V89H90.3516V88.0391L90.832 87.9609V89H91.8477V89.457H90.832V91.9688C90.832 92.0495 90.8464 92.125 90.875 92.1953C90.9062 92.263 90.9479 92.3229 91 92.375C91.0521 92.4271 91.1133 92.4688 91.1836 92.5C91.2539 92.5286 91.3294 92.543 91.4102 92.543H91.8477V93H91.4102ZM95.4844 91.9844C95.4844 92.1458 95.4518 92.2943 95.3867 92.4297C95.3216 92.5625 95.2331 92.6771 95.1211 92.7734C95.0091 92.8698 94.8789 92.9453 94.7305 93C94.5846 93.0521 94.431 93.0781 94.2695 93.0781H93.9492C93.7878 93.0781 93.6328 93.0482 93.4844 92.9883C93.3385 92.9258 93.2096 92.8411 93.0977 92.7344C92.9883 92.6276 92.8997 92.5026 92.832 92.3594C92.7669 92.2161 92.7344 92.0638 92.7344 91.9023V91.7422L93.2148 91.6641V91.9297C93.2148 92.026 93.2344 92.1172 93.2734 92.2031C93.3151 92.2865 93.3698 92.3594 93.4375 92.4219C93.5052 92.4844 93.5833 92.5339 93.6719 92.5703C93.7604 92.6068 93.8529 92.625 93.9492 92.625H94.2695C94.3659 92.625 94.4583 92.6107 94.5469 92.582C94.6354 92.5534 94.7135 92.513 94.7812 92.4609C94.8516 92.4062 94.9062 92.3411 94.9453 92.2656C94.987 92.1901 95.0078 92.1042 95.0078 92.0078C95.0078 91.8646 94.9766 91.7474 94.9141 91.6562C94.8516 91.5651 94.7682 91.4896 94.6641 91.4297C94.5625 91.3672 94.4453 91.3164 94.3125 91.2773C94.1823 91.2357 94.0482 91.1953 93.9102 91.1562C93.7721 91.1146 93.6367 91.0677 93.5039 91.0156C93.3737 90.9635 93.2565 90.8958 93.1523 90.8125C93.0508 90.7266 92.9688 90.6198 92.9062 90.4922C92.8438 90.3646 92.8125 90.2057 92.8125 90.0156C92.8125 89.8542 92.8438 89.707 92.9062 89.5742C92.9688 89.4388 93.0534 89.3229 93.1602 89.2266C93.2669 89.1302 93.3906 89.056 93.5312 89.0039C93.6745 88.9492 93.8268 88.9219 93.9883 88.9219H94.2695C94.431 88.9219 94.5833 88.9531 94.7266 89.0156C94.8698 89.0755 94.9948 89.1589 95.1016 89.2656C95.2083 89.3724 95.2917 89.4974 95.3516 89.6406C95.4141 89.7839 95.4453 89.9362 95.4453 90.0977V90.1133L94.9648 90.1914V90.0703C94.9648 89.974 94.9466 89.8841 94.9102 89.8008C94.8737 89.7148 94.8242 89.6406 94.7617 89.5781C94.6992 89.5156 94.625 89.4661 94.5391 89.4297C94.4557 89.3932 94.3659 89.375 94.2695 89.375H93.9883C93.8919 89.375 93.8008 89.3893 93.7148 89.418C93.6315 89.4466 93.5586 89.4883 93.4961 89.543C93.4336 89.5951 93.3841 89.6589 93.3477 89.7344C93.3112 89.8099 93.293 89.8958 93.293 89.9922C93.293 90.1302 93.3242 90.2435 93.3867 90.332C93.4492 90.418 93.5312 90.4909 93.6328 90.5508C93.737 90.6107 93.8542 90.6615 93.9844 90.7031C94.1172 90.7422 94.2513 90.7839 94.3867 90.8281C94.5247 90.8698 94.6589 90.918 94.7891 90.9727C94.9219 91.0273 95.0391 91.0977 95.1406 91.1836C95.2448 91.2695 95.3281 91.3776 95.3906 91.5078C95.4531 91.6354 95.4844 91.7943 95.4844 91.9844ZM99.707 93C99.5612 93 99.4232 92.9727 99.293 92.918C99.1654 92.8633 99.0534 92.7878 98.957 92.6914C98.8633 92.5951 98.7878 92.4831 98.7305 92.3555C98.6758 92.2279 98.6484 92.0911 98.6484 91.9453V89.457H97.9297V89H98.6484V88.0391L99.1289 87.9609V89H100.145V89.457H99.1289V91.9688C99.1289 92.0495 99.1432 92.125 99.1719 92.1953C99.2031 92.263 99.2448 92.3229 99.2969 92.375C99.349 92.4271 99.4102 92.4688 99.4805 92.5C99.5508 92.5286 99.6263 92.543 99.707 92.543H100.145V93H99.707ZM103.223 93V90.0703C103.223 89.974 103.204 89.8841 103.168 89.8008C103.132 89.7148 103.082 89.6406 103.02 89.5781C102.957 89.5156 102.883 89.4661 102.797 89.4297C102.714 89.3932 102.624 89.375 102.527 89.375H102.207C102.111 89.375 102.02 89.3932 101.934 89.4297C101.85 89.4661 101.777 89.5156 101.715 89.5781C101.652 89.6406 101.603 89.7148 101.566 89.8008C101.53 89.8841 101.512 89.974 101.512 90.0703V93H101.031V87.3984H101.512V89.3359C101.621 89.2057 101.753 89.1042 101.906 89.0312C102.06 88.9583 102.227 88.9219 102.406 88.9219H102.527C102.689 88.9219 102.841 88.9531 102.984 89.0156C103.128 89.0755 103.253 89.1589 103.359 89.2656C103.466 89.3724 103.549 89.4974 103.609 89.6406C103.672 89.7839 103.703 89.9362 103.703 90.0977V93H103.223ZM104.785 88.0391V87.3984H105.344V88.0391H104.785ZM104.824 93V89H105.305V93H104.824ZM109.18 91.9844C109.18 92.1458 109.147 92.2943 109.082 92.4297C109.017 92.5625 108.928 92.6771 108.816 92.7734C108.704 92.8698 108.574 92.9453 108.426 93C108.28 93.0521 108.126 93.0781 107.965 93.0781H107.645C107.483 93.0781 107.328 93.0482 107.18 92.9883C107.034 92.9258 106.905 92.8411 106.793 92.7344C106.684 92.6276 106.595 92.5026 106.527 92.3594C106.462 92.2161 106.43 92.0638 106.43 91.9023V91.7422L106.91 91.6641V91.9297C106.91 92.026 106.93 92.1172 106.969 92.2031C107.01 92.2865 107.065 92.3594 107.133 92.4219C107.201 92.4844 107.279 92.5339 107.367 92.5703C107.456 92.6068 107.548 92.625 107.645 92.625H107.965C108.061 92.625 108.154 92.6107 108.242 92.582C108.331 92.5534 108.409 92.513 108.477 92.4609C108.547 92.4062 108.602 92.3411 108.641 92.2656C108.682 92.1901 108.703 92.1042 108.703 92.0078C108.703 91.8646 108.672 91.7474 108.609 91.6562C108.547 91.5651 108.464 91.4896 108.359 91.4297C108.258 91.3672 108.141 91.3164 108.008 91.2773C107.878 91.2357 107.743 91.1953 107.605 91.1562C107.467 91.1146 107.332 91.0677 107.199 91.0156C107.069 90.9635 106.952 90.8958 106.848 90.8125C106.746 90.7266 106.664 90.6198 106.602 90.4922C106.539 90.3646 106.508 90.2057 106.508 90.0156C106.508 89.8542 106.539 89.707 106.602 89.5742C106.664 89.4388 106.749 89.3229 106.855 89.2266C106.962 89.1302 107.086 89.056 107.227 89.0039C107.37 88.9492 107.522 88.9219 107.684 88.9219H107.965C108.126 88.9219 108.279 88.9531 108.422 89.0156C108.565 89.0755 108.69 89.1589 108.797 89.2656C108.904 89.3724 108.987 89.4974 109.047 89.6406C109.109 89.7839 109.141 89.9362 109.141 90.0977V90.1133L108.66 90.1914V90.0703C108.66 89.974 108.642 89.8841 108.605 89.8008C108.569 89.7148 108.52 89.6406 108.457 89.5781C108.395 89.5156 108.32 89.4661 108.234 89.4297C108.151 89.3932 108.061 89.375 107.965 89.375H107.684C107.587 89.375 107.496 89.3893 107.41 89.418C107.327 89.4466 107.254 89.4883 107.191 89.543C107.129 89.5951 107.079 89.6589 107.043 89.7344C107.007 89.8099 106.988 89.8958 106.988 89.9922C106.988 90.1302 107.02 90.2435 107.082 90.332C107.145 90.418 107.227 90.4909 107.328 90.5508C107.432 90.6107 107.549 90.6615 107.68 90.7031C107.812 90.7422 107.947 90.7839 108.082 90.8281C108.22 90.8698 108.354 90.918 108.484 90.9727C108.617 91.0273 108.734 91.0977 108.836 91.1836C108.94 91.2695 109.023 91.3776 109.086 91.5078C109.148 91.6354 109.18 91.7943 109.18 91.9844ZM115.312 93H115.051L114.113 89.9844L114.098 89.7773L114.082 89.9844L113.145 93H112.879L111.543 89H112.031L112.984 92.0234L113 92.2305L113.016 92.0234L113.953 89H114.242L115.176 92.0234L115.191 92.2305L115.207 92.0234L116.16 89H116.648L115.312 93ZM119.883 91.9023C119.883 92.0638 119.852 92.2161 119.789 92.3594C119.729 92.5026 119.646 92.6276 119.539 92.7344C119.432 92.8411 119.307 92.9258 119.164 92.9883C119.021 93.0482 118.868 93.0781 118.707 93.0781H118.387C118.225 93.0781 118.073 93.0482 117.93 92.9883C117.786 92.9258 117.661 92.8411 117.555 92.7344C117.448 92.6276 117.363 92.5026 117.301 92.3594C117.241 92.2161 117.211 92.0638 117.211 91.9023V90.0977C117.211 89.9362 117.241 89.7839 117.301 89.6406C117.363 89.4974 117.448 89.3724 117.555 89.2656C117.661 89.1589 117.786 89.0755 117.93 89.0156C118.073 88.9531 118.225 88.9219 118.387 88.9219H118.707C118.868 88.9219 119.021 88.9531 119.164 89.0156C119.307 89.0755 119.432 89.1589 119.539 89.2656C119.646 89.3724 119.729 89.4974 119.789 89.6406C119.852 89.7839 119.883 89.9362 119.883 90.0977V91.9023ZM119.402 90.0703C119.402 89.974 119.384 89.8841 119.348 89.8008C119.311 89.7148 119.262 89.6406 119.199 89.5781C119.137 89.5156 119.062 89.4661 118.977 89.4297C118.893 89.3932 118.803 89.375 118.707 89.375H118.387C118.29 89.375 118.199 89.3932 118.113 89.4297C118.03 89.4661 117.957 89.5156 117.895 89.5781C117.832 89.6406 117.783 89.7148 117.746 89.8008C117.71 89.8841 117.691 89.974 117.691 90.0703V91.9297C117.691 92.026 117.71 92.1172 117.746 92.2031C117.783 92.2865 117.832 92.3594 117.895 92.4219C117.957 92.4844 118.03 92.5339 118.113 92.5703C118.199 92.6068 118.29 92.625 118.387 92.625H118.707C118.803 92.625 118.893 92.6068 118.977 92.5703C119.062 92.5339 119.137 92.4844 119.199 92.4219C119.262 92.3594 119.311 92.2865 119.348 92.2031C119.384 92.1172 119.402 92.026 119.402 91.9297V90.0703ZM122.02 89.457C121.923 89.457 121.832 89.4753 121.746 89.5117C121.663 89.5482 121.59 89.5977 121.527 89.6602C121.465 89.7227 121.415 89.7969 121.379 89.8828C121.342 89.9661 121.324 90.056 121.324 90.1523V93H120.844V89H121.004L121.266 89.4062C121.375 89.2578 121.512 89.1406 121.676 89.0547C121.842 88.9661 122.023 88.9219 122.219 88.9219H122.5V89.457H122.02ZM125.652 93L125.387 92.5938C125.277 92.7422 125.141 92.8607 124.977 92.9492C124.812 93.0352 124.633 93.0781 124.438 93.0781H124.316C124.155 93.0781 124.003 93.0482 123.859 92.9883C123.716 92.9258 123.591 92.8411 123.484 92.7344C123.378 92.6276 123.293 92.5026 123.23 92.3594C123.171 92.2161 123.141 92.0638 123.141 91.9023V90.0977C123.141 89.9362 123.171 89.7839 123.23 89.6406C123.293 89.4974 123.378 89.3724 123.484 89.2656C123.591 89.1589 123.716 89.0755 123.859 89.0156C124.003 88.9531 124.155 88.9219 124.316 88.9219H124.438C124.617 88.9219 124.784 88.9583 124.938 89.0312C125.091 89.1042 125.223 89.2057 125.332 89.3359V87.3984H125.812V93H125.652ZM125.332 90.0703C125.332 89.974 125.314 89.8841 125.277 89.8008C125.241 89.7148 125.191 89.6406 125.129 89.5781C125.066 89.5156 124.992 89.4661 124.906 89.4297C124.823 89.3932 124.733 89.375 124.637 89.375H124.316C124.22 89.375 124.129 89.3932 124.043 89.4297C123.96 89.4661 123.887 89.5156 123.824 89.5781C123.762 89.6406 123.712 89.7148 123.676 89.8008C123.639 89.8841 123.621 89.974 123.621 90.0703V91.9297C123.621 92.026 123.639 92.1172 123.676 92.2031C123.712 92.2865 123.762 92.3594 123.824 92.4219C123.887 92.4844 123.96 92.5339 124.043 92.5703C124.129 92.6068 124.22 92.625 124.316 92.625H124.637C124.733 92.625 124.823 92.6068 124.906 92.5703C124.992 92.5339 125.066 92.4844 125.129 92.4219C125.191 92.3594 125.241 92.2865 125.277 92.2031C125.314 92.1172 125.332 92.026 125.332 91.9297V90.0703ZM126.691 90.5508V90.0977H128.188V90.5508H126.691ZM131.742 91.9023C131.742 92.0638 131.711 92.2161 131.648 92.3594C131.589 92.5026 131.505 92.6276 131.398 92.7344C131.292 92.8411 131.167 92.9258 131.023 92.9883C130.88 93.0482 130.728 93.0781 130.566 93.0781H130.445C130.266 93.0781 130.099 93.0417 129.945 92.9688C129.792 92.8958 129.66 92.7943 129.551 92.6641V94.6016H129.07V89H129.23L129.492 89.4062C129.602 89.2578 129.738 89.1406 129.902 89.0547C130.069 88.9661 130.25 88.9219 130.445 88.9219H130.566C130.728 88.9219 130.88 88.9531 131.023 89.0156C131.167 89.0755 131.292 89.1589 131.398 89.2656C131.505 89.3724 131.589 89.4974 131.648 89.6406C131.711 89.7839 131.742 89.9362 131.742 90.0977V91.9023ZM131.262 90.0703C131.262 89.974 131.243 89.8841 131.207 89.8008C131.171 89.7148 131.121 89.6406 131.059 89.5781C130.996 89.5156 130.922 89.4661 130.836 89.4297C130.753 89.3932 130.663 89.375 130.566 89.375H130.246C130.15 89.375 130.059 89.3932 129.973 89.4297C129.889 89.4661 129.816 89.5156 129.754 89.5781C129.691 89.6406 129.642 89.7148 129.605 89.8008C129.569 89.8841 129.551 89.974 129.551 90.0703V91.9297C129.551 92.026 129.569 92.1172 129.605 92.2031C129.642 92.2865 129.691 92.3594 129.754 92.4219C129.816 92.4844 129.889 92.5339 129.973 92.5703C130.059 92.6068 130.15 92.625 130.246 92.625H130.566C130.663 92.625 130.753 92.6068 130.836 92.5703C130.922 92.5339 130.996 92.4844 131.059 92.4219C131.121 92.3594 131.171 92.2865 131.207 92.2031C131.243 92.1172 131.262 92.026 131.262 91.9297V90.0703ZM135.215 93L134.949 92.6016C134.84 92.7448 134.703 92.8607 134.539 92.9492C134.375 93.0352 134.195 93.0781 134 93.0781H133.879C133.717 93.0781 133.565 93.0482 133.422 92.9883C133.279 92.9258 133.154 92.8411 133.047 92.7344C132.94 92.6276 132.855 92.5026 132.793 92.3594C132.733 92.2161 132.703 92.0638 132.703 91.9023V91.8633C132.703 91.7018 132.733 91.5495 132.793 91.4062C132.855 91.263 132.94 91.138 133.047 91.0312C133.154 90.9245 133.279 90.8411 133.422 90.7812C133.565 90.7188 133.717 90.6875 133.879 90.6875H134.895V90.0703C134.895 89.974 134.876 89.8841 134.84 89.8008C134.803 89.7148 134.754 89.6406 134.691 89.5781C134.629 89.5156 134.555 89.4661 134.469 89.4297C134.385 89.3932 134.296 89.375 134.199 89.375H133.918C133.822 89.375 133.73 89.3932 133.645 89.4297C133.561 89.4661 133.488 89.5156 133.426 89.5781C133.363 89.6406 133.314 89.7148 133.277 89.8008C133.241 89.8841 133.223 89.974 133.223 90.0703V90.2148L132.742 90.1367V90.0977C132.742 89.9362 132.772 89.7839 132.832 89.6406C132.895 89.4974 132.979 89.3724 133.086 89.2656C133.193 89.1589 133.318 89.0755 133.461 89.0156C133.604 88.9531 133.757 88.9219 133.918 88.9219H134.199C134.361 88.9219 134.513 88.9531 134.656 89.0156C134.799 89.0755 134.924 89.1589 135.031 89.2656C135.138 89.3724 135.221 89.4974 135.281 89.6406C135.344 89.7839 135.375 89.9362 135.375 90.0977V93H135.215ZM134.895 91.0625H133.879C133.783 91.0625 133.691 91.0807 133.605 91.1172C133.522 91.1536 133.449 91.2044 133.387 91.2695C133.324 91.332 133.275 91.4062 133.238 91.4922C133.202 91.5755 133.184 91.6654 133.184 91.7617V91.9297C133.184 92.026 133.202 92.1172 133.238 92.2031C133.275 92.2865 133.324 92.3594 133.387 92.4219C133.449 92.4844 133.522 92.5339 133.605 92.5703C133.691 92.6068 133.783 92.625 133.879 92.625H134.199C134.296 92.625 134.385 92.6068 134.469 92.5703C134.555 92.5339 134.629 92.4844 134.691 92.4219C134.754 92.3594 134.803 92.2865 134.84 92.2031C134.876 92.1172 134.895 92.026 134.895 91.9297V91.0625ZM136.457 88.0391V87.3984H137.016V88.0391H136.457ZM136.496 93V89H136.977V93H136.496ZM139.277 89.457C139.181 89.457 139.09 89.4753 139.004 89.5117C138.921 89.5482 138.848 89.5977 138.785 89.6602C138.723 89.7227 138.673 89.7969 138.637 89.8828C138.6 89.9661 138.582 90.056 138.582 90.1523V93H138.102V89H138.262L138.523 89.4062C138.633 89.2578 138.77 89.1406 138.934 89.0547C139.1 88.9661 139.281 88.9219 139.477 88.9219H139.758V89.457H139.277ZM139.992 93V92.3984H140.594V93H139.992Z" fill="#FFD666"/>
<path d="M95 18.5C95 18.2239 94.7761 18 94.5 18C94.2239 18 94 18.2239 94 18.5L95 18.5ZM94.1464 29.2551C94.3417 29.4503 94.6583 29.4503 94.8536 29.2551L98.0355 26.0731C98.2308 25.8778 98.2308 25.5612 98.0355 25.366C97.8403 25.1707 97.5237 25.1707 97.3284 25.366L94.5 28.1944L91.6716 25.366C91.4763 25.1707 91.1597 25.1707 90.9645 25.366C90.7692 25.5612 90.7692 25.8778 90.9645 26.0731L94.1464 29.2551ZM94 18.5L94 28.9015L95 28.9015L95 18.5L94 18.5Z" fill="#FFD666"/>
<path d="M107.661 80.6257C107.46 80.8149 107.143 80.8052 106.954 80.6041C106.765 80.4029 106.775 80.0865 106.976 79.8973L107.661 80.6257ZM116.094 71.5218C116.37 71.5302 116.587 71.7608 116.578 72.0368L116.441 76.5347C116.432 76.8107 116.202 77.0276 115.926 77.0192C115.649 77.0108 115.433 76.7802 115.441 76.5041L115.563 72.506L111.565 72.3837C111.289 72.3752 111.072 72.1446 111.081 71.8686C111.089 71.5926 111.32 71.3757 111.596 71.3842L116.094 71.5218ZM106.976 79.8973L115.736 71.6573L116.421 72.3857L107.661 80.6257L106.976 79.8973Z" fill="#FFD666"/>
<path d="M82.0178 79.8909C82.2224 80.0763 82.2381 80.3924 82.0527 80.5971C81.8673 80.8018 81.5511 80.8174 81.3465 80.6321L82.0178 79.8909ZM72.2622 72.2067C72.2486 71.9309 72.4611 71.6962 72.7369 71.6826L77.2314 71.4602C77.5072 71.4466 77.7419 71.6591 77.7555 71.9349C77.7691 72.2107 77.5566 72.4454 77.2808 72.459L73.2857 72.6567L73.4834 76.6518C73.497 76.9276 73.2845 77.1622 73.0087 77.1759C72.7329 77.1895 72.4982 76.977 72.4846 76.7012L72.2622 72.2067ZM81.3465 80.6321L72.426 72.5526L73.0973 71.8114L82.0178 79.8909L81.3465 80.6321Z" fill="#FFD666"/>
<defs>
<radialGradient id="paint0_radial_135_4596" cx="0" cy="0" r="1" gradientUnits="userSpaceOnUse" gradientTransform="translate(94.5 122.5) rotate(-90) scale(94.5 94.5)">
<stop stop-opacity="0"/>
<stop offset="1"/>
</radialGradient>
<linearGradient id="paint1_linear_135_4596" x1="94.5" y1="28" x2="94.5" y2="53.0001" gradientUnits="userSpaceOnUse">
<stop stop-opacity="0.61"/>
<stop offset="1" stop-opacity="0.89"/>
</linearGradient>
<linearGradient id="paint2_linear_135_4596" x1="189" y1="122.5" x2="164" y2="122.5" gradientUnits="userSpaceOnUse">
<stop stop-opacity="0.61"/>
<stop offset="1" stop-opacity="0.89"/>
</linearGradient>
<linearGradient id="paint3_linear_135_4596" x1="3.03794e-06" y1="122.5" x2="25" y2="122.5" gradientUnits="userSpaceOnUse">
<stop stop-opacity="0.61"/>
<stop offset="1" stop-opacity="0.89"/>
</linearGradient>
<linearGradient id="paint4_linear_135_4596" x1="164" y1="53.0001" x2="96.5" y2="123" gradientUnits="userSpaceOnUse">
<stop stop-opacity="0.59"/>
<stop offset="1" stop-opacity="0.13"/>
</linearGradient>
<linearGradient id="paint5_linear_135_4596" x1="25" y1="53.0001" x2="95" y2="120.5" gradientUnits="userSpaceOnUse">
<stop stop-opacity="0.59"/>
<stop offset="1" stop-opacity="0.13"/>
</linearGradient>
<linearGradient id="paint6_linear_135_4596" x1="7.86805e-07" y1="46" x2="36" y2="46" gradientUnits="userSpaceOnUse">
<stop stop-opacity="0.12"/>
<stop offset="1" stop-color="#0B0A0A"/>
</linearGradient>
<linearGradient id="paint7_linear_135_4596" x1="171" y1="28" x2="171" y2="64" gradientUnits="userSpaceOnUse">
<stop stop-opacity="0.12"/>
<stop offset="1" stop-color="#0B0A0A"/>
</linearGradient>
<linearGradient id="paint8_linear_135_4596" x1="94.5" y1="64.8475" x2="94.5" y2="90" gradientUnits="userSpaceOnUse">
<stop stop-color="#040B10" stop-opacity="0"/>
<stop offset="1" stop-color="#040B10"/>
</linearGradient>
<clipPath id="clip0_135_4596">
<rect width="189" height="62" fill="white" transform="matrix(-1 0 0 -1 189 90)"/>
</clipPath>
<clipPath id="clip1_135_4596">
<rect width="189" height="189" fill="white" transform="matrix(-1 0 0 -1 189 217)"/>
</clipPath>
<clipPath id="clip2_135_4596">
<rect width="64" height="64" fill="white" transform="matrix(-1 0 0 -1 161 120)"/>
</clipPath>
<clipPath id="clip3_135_4596">
<rect width="64" height="64" fill="white" transform="matrix(-1 0 0 -1 92 120)"/>
</clipPath>
</defs>
</svg>
