<svg width="189" height="182" viewBox="0 0 189 182" fill="none" xmlns="http://www.w3.org/2000/svg">
<g clip-path="url(#clip0_135_4616)">
<g clip-path="url(#clip1_135_4616)">
<g clip-path="url(#clip2_135_4616)">
<path fill-rule="evenodd" clip-rule="evenodd" d="M36 194L153 194L189 158L189 41.0001L168.291 33.0352L189 41L153 5.00008L36 5.00006L0 41.0001L1.52588e-05 158L36 194Z" fill="#0BCB4B" fill-opacity="0.8"/>
<g style="mix-blend-mode:luminosity">
<path fill-rule="evenodd" clip-rule="evenodd" d="M153 194L94.5 99.5001L189 158L189 41L94.5 99.5001L153 5.00002L36 5L94.5 99.5001L-5.11423e-06 41L-5.11423e-06 158L94.5 99.5001L36 194L153 194Z" fill="url(#paint0_radial_135_4616)" fill-opacity="0.05"/>
<path d="M36 5L153 5.00001L164 30L25 30L36 5Z" fill="url(#paint1_linear_135_4616)" fill-opacity="0.51"/>
<path d="M189 41L189 158L164 169L164 30.0001L189 41Z" fill="url(#paint2_linear_135_4616)" fill-opacity="0.51"/>
<path d="M4.80827e-07 158L5.59506e-06 41L25 30L25 169L4.80827e-07 158Z" fill="url(#paint3_linear_135_4616)" fill-opacity="0.51"/>
<path fill-rule="evenodd" clip-rule="evenodd" d="M164 169L25 169L25 30.0001L164 30.0001L164 169ZM164 169L176 150L176 49.0001L164 30.0001L145 18.0001L44 18.0001L25 30.0001L13 49.0001L13 150L25 169L44 181L145 181L164 169Z" fill="black" fill-opacity="0.05"/>
<path d="M164 30.0001L94.5 30.0001L94.5 99.5001L164 99.5001L164 30.0001Z" fill="url(#paint4_linear_135_4616)"/>
<path d="M94.5 99.5001L94.5 30.0001L25 30.0001L25 99.5L94.5 99.5001Z" fill="url(#paint5_linear_135_4616)"/>
<path fill-rule="evenodd" clip-rule="evenodd" d="M94 169H95L95 100L164 100V99.0001L95 99.0001V30.0001H94V99.0001H25V100H94L94 169Z" fill="black" fill-opacity="0.1"/>
<path d="M36 5L0 41L25 30L36 5Z" fill="url(#paint6_linear_135_4616)" fill-opacity="0.33"/>
<path d="M189 41L153 5L164 30L189 41Z" fill="url(#paint7_linear_135_4616)" fill-opacity="0.33"/>
</g>
<g clip-path="url(#clip3_135_4616)">
<path d="M156.023 61.7512C155.86 61.7512 155.708 61.7199 155.565 61.6574C155.422 61.5972 155.297 61.5135 155.19 61.4063C155.083 61.2992 154.998 61.1731 154.935 61.028C154.875 60.8851 154.845 60.7322 154.845 60.5693L154.845 59.4811L153 59.4811L153 59.0492L157.801 59.0492L157.801 60.5693C157.801 60.7322 157.77 60.8851 157.708 61.028C157.647 61.1731 157.564 61.2992 157.456 61.4063C157.349 61.5135 157.223 61.5972 157.078 61.6574C156.935 61.7199 156.782 61.7512 156.619 61.7512L156.023 61.7512ZM156.619 61.3193C156.727 61.3193 156.826 61.2992 156.917 61.259C157.011 61.2188 157.093 61.163 157.162 61.0916C157.233 61.0224 157.289 60.9409 157.329 60.8472C157.369 60.7556 157.39 60.6563 157.39 60.5492L157.39 59.4811L155.257 59.4811L155.257 60.5492C155.257 60.6563 155.277 60.7556 155.317 60.8472C155.357 60.9409 155.412 61.0224 155.481 61.0916C155.55 61.163 155.631 61.2188 155.722 61.259C155.816 61.2992 155.916 61.3193 156.023 61.3193L156.619 61.3193ZM153 64.5938L153.342 64.3661C153.219 64.2724 153.119 64.1552 153.044 64.0146C152.97 63.8739 152.933 63.7199 152.933 63.5525L152.933 63.4487C152.933 63.3103 152.959 63.1797 153.01 63.057C153.064 62.9342 153.136 62.8271 153.228 62.7356C153.319 62.644 153.426 62.5715 153.549 62.5179C153.672 62.4666 153.802 62.4409 153.941 62.4409L153.974 62.4409C154.113 62.4409 154.243 62.4666 154.366 62.5179C154.489 62.5715 154.596 62.644 154.687 62.7356C154.779 62.8271 154.85 62.9342 154.902 63.057C154.955 63.1797 154.982 63.3103 154.982 63.4487L154.982 64.3193L155.511 64.3193C155.594 64.3193 155.671 64.3036 155.742 64.2724C155.816 64.2411 155.879 64.1987 155.933 64.1452C155.987 64.0916 156.029 64.028 156.06 63.9543C156.092 63.8829 156.107 63.8059 156.107 63.7233L156.107 63.4822C156.107 63.3996 156.092 63.3215 156.06 63.2478C156.029 63.1764 155.987 63.1139 155.933 63.0603C155.879 63.0068 155.816 62.9643 155.742 62.9331C155.671 62.9018 155.594 62.8862 155.511 62.8862L155.387 62.8862L155.454 62.4744L155.488 62.4744C155.626 62.4744 155.757 62.5001 155.879 62.5514C156.002 62.605 156.109 62.6775 156.201 62.769C156.292 62.8606 156.364 62.9677 156.415 63.0905C156.469 63.2132 156.496 63.3438 156.496 63.4822L156.496 63.7233C156.496 63.8617 156.469 63.9922 156.415 64.115C156.364 64.2378 156.292 64.3449 156.201 64.4364C156.109 64.528 156.002 64.5994 155.879 64.6507C155.757 64.7043 155.626 64.7311 155.488 64.7311L153 64.7311L153 64.5938ZM154.661 64.3193L154.661 63.4487C154.661 63.3661 154.645 63.288 154.614 63.2143C154.583 63.1429 154.539 63.0804 154.483 63.0268C154.43 62.9733 154.366 62.9309 154.292 62.8996C154.221 62.8684 154.144 62.8527 154.061 62.8527L153.917 62.8527C153.835 62.8527 153.757 62.8684 153.683 62.8996C153.612 62.9309 153.549 62.9733 153.496 63.0268C153.442 63.0804 153.4 63.1429 153.368 63.2143C153.337 63.288 153.321 63.3661 153.321 63.4487L153.321 63.7233C153.321 63.8059 153.337 63.8829 153.368 63.9543C153.4 64.028 153.442 64.0916 153.496 64.1451C153.549 64.1987 153.612 64.2411 153.683 64.2724C153.757 64.3036 153.835 64.3193 153.917 64.3193L154.661 64.3193ZM153.871 67.9119C153.732 67.9119 153.605 67.884 153.489 67.8282C153.375 67.7724 153.277 67.6965 153.194 67.6005C153.112 67.5045 153.047 67.3929 153 67.2657C152.955 67.1407 152.933 67.009 152.933 66.8706L152.933 66.596C152.933 66.4577 152.959 66.3248 153.01 66.1976C153.064 66.0726 153.136 65.9621 153.228 65.8661C153.319 65.7724 153.426 65.6965 153.549 65.6385C153.672 65.5827 153.802 65.5547 153.941 65.5547L154.078 65.5547L154.145 65.9666L153.917 65.9666C153.835 65.9666 153.757 65.9833 153.683 66.0168C153.612 66.0525 153.549 66.0994 153.496 66.1574C153.442 66.2155 153.4 66.2824 153.368 66.3583C153.337 66.4342 153.321 66.5135 153.321 66.596L153.321 66.8706C153.321 66.9532 153.334 67.0324 153.358 67.1083C153.383 67.1842 153.417 67.2512 153.462 67.3092C153.509 67.3695 153.565 67.4164 153.629 67.4498C153.694 67.4856 153.768 67.5034 153.85 67.5034C153.973 67.5034 154.074 67.4766 154.152 67.4231C154.23 67.3695 154.295 67.2981 154.346 67.2088C154.4 67.1217 154.443 67.0213 154.477 66.9074C154.512 66.7958 154.547 66.6809 154.58 66.5626C154.616 66.4443 154.656 66.3282 154.701 66.2143C154.746 66.1027 154.804 66.0023 154.875 65.913C154.949 65.826 155.04 65.7556 155.15 65.7021C155.259 65.6485 155.395 65.6217 155.558 65.6217C155.696 65.6217 155.823 65.6485 155.936 65.7021C156.052 65.7556 156.152 65.8282 156.234 65.9197C156.317 66.0112 156.381 66.1172 156.425 66.2378C156.472 66.3606 156.496 66.4911 156.496 66.6295L156.496 66.8706C156.496 67.009 156.469 67.1396 156.415 67.2623C156.364 67.3851 156.292 67.4922 156.201 67.5838C156.109 67.6753 156.002 67.7467 155.879 67.7981C155.757 67.8516 155.626 67.8784 155.488 67.8784L155.474 67.8784L155.407 67.4666L155.511 67.4666C155.594 67.4666 155.671 67.451 155.742 67.4197C155.816 67.3885 155.879 67.346 155.933 67.2925C155.987 67.2389 156.029 67.1753 156.06 67.1016C156.092 67.0302 156.107 66.9532 156.107 66.8706L156.107 66.6295C156.107 66.5469 156.095 66.4688 156.07 66.3952C156.046 66.3237 156.01 66.2612 155.963 66.2077C155.919 66.1541 155.864 66.1117 155.799 66.0804C155.734 66.0492 155.661 66.0335 155.578 66.0335C155.46 66.0335 155.363 66.0603 155.287 66.1139C155.213 66.1675 155.151 66.2378 155.099 66.3248C155.048 66.4141 155.004 66.5146 154.969 66.6262C154.935 66.74 154.9 66.855 154.862 66.971C154.826 67.0893 154.785 67.2043 154.738 67.3159C154.691 67.4297 154.631 67.5302 154.557 67.6172C154.483 67.7065 154.391 67.778 154.279 67.8315C154.17 67.8851 154.033 67.9119 153.871 67.9119ZM153 69.951C153 69.826 153.023 69.7076 153.07 69.596C153.117 69.4867 153.182 69.3907 153.265 69.3081C153.347 69.2277 153.443 69.163 153.552 69.1139C153.662 69.067 153.779 69.0436 153.904 69.0436L156.037 69.0436L156.037 68.4275L156.429 68.4275L156.429 69.0436L157.252 69.0436L157.319 69.4554L156.429 69.4554L156.429 70.326L156.037 70.326L156.037 69.4554L153.884 69.4554C153.815 69.4554 153.75 69.4677 153.69 69.4922C153.632 69.519 153.58 69.5547 153.536 69.5994C153.491 69.644 153.455 69.6965 153.429 69.7568C153.404 69.817 153.392 69.8818 153.392 69.951L153.392 70.326L153 70.326L153 69.951Z" fill="#CEFDDE"/>
<path d="M138.819 90.1117C138.819 89.9487 138.853 89.7958 138.92 89.653C138.984 89.5101 139.073 89.3851 139.184 89.278C139.294 89.1708 139.422 89.086 139.569 89.0235C139.714 88.9632 139.868 88.9331 140.031 88.9331L140.376 88.9331C140.539 88.9331 140.694 88.9632 140.842 89.0235C140.987 89.086 141.115 89.1708 141.227 89.278C141.336 89.3851 141.424 89.5101 141.491 89.653C141.556 89.7958 141.588 89.9487 141.588 90.1117L141.588 90.3025L141.156 90.3728L141.156 90.1117C141.156 90.0045 141.135 89.9041 141.093 89.8103C141.048 89.7188 140.989 89.6373 140.915 89.5659C140.842 89.4967 140.757 89.442 140.661 89.4018C140.562 89.3617 140.46 89.3416 140.353 89.3416L140.051 89.3416C139.944 89.3416 139.843 89.3617 139.747 89.4018C139.651 89.442 139.566 89.4967 139.492 89.5659C139.419 89.6373 139.36 89.7188 139.318 89.8103C139.273 89.9041 139.251 90.0045 139.251 90.1117L139.251 90.2556C139.251 90.4208 139.283 90.5581 139.348 90.6675C139.413 90.7768 139.499 90.8695 139.606 90.9454C139.713 91.0235 139.835 91.0893 139.971 91.1429C140.105 91.1965 140.243 91.2501 140.386 91.3036C140.529 91.3572 140.669 91.4164 140.805 91.4811C140.939 91.5458 141.059 91.6262 141.166 91.7222C141.273 91.8204 141.359 91.9398 141.424 92.0804C141.489 92.221 141.521 92.394 141.521 92.5994L141.521 92.6898C141.521 92.8527 141.491 93.0056 141.431 93.1485C141.368 93.2914 141.283 93.4164 141.176 93.5235C141.069 93.6306 140.944 93.7143 140.801 93.7746C140.656 93.8371 140.502 93.8684 140.339 93.8684L140.031 93.8684C139.868 93.8684 139.715 93.8371 139.573 93.7746C139.43 93.7143 139.305 93.6306 139.198 93.5235C139.09 93.4164 139.007 93.2914 138.946 93.1485C138.884 93.0056 138.853 92.8527 138.853 92.6898L138.853 92.5659L139.285 92.4956L139.285 92.6898C139.285 92.7969 139.305 92.8963 139.345 92.9878C139.385 93.0815 139.44 93.163 139.509 93.2322C139.578 93.3014 139.66 93.3561 139.753 93.3963C139.845 93.4364 139.944 93.4565 140.051 93.4565L140.319 93.4565C140.426 93.4565 140.527 93.4364 140.621 93.3963C140.712 93.3561 140.794 93.3014 140.865 93.2322C140.934 93.163 140.989 93.0815 141.029 92.9878C141.069 92.8963 141.089 92.7969 141.089 92.6898L141.089 92.5994C141.089 92.4454 141.057 92.3159 140.992 92.211C140.927 92.1061 140.842 92.0157 140.734 91.9398C140.627 91.8661 140.507 91.8014 140.373 91.7456C140.237 91.692 140.097 91.6362 139.954 91.5782C139.811 91.5224 139.673 91.4599 139.539 91.3907C139.403 91.3237 139.281 91.24 139.174 91.1396C139.067 91.0414 138.981 90.9208 138.916 90.778C138.852 90.6351 138.819 90.461 138.819 90.2556L138.819 90.1117ZM135.873 89.0001L136.1 89.3483C136.194 89.221 136.311 89.1195 136.452 89.0436C136.593 88.9699 136.747 88.9331 136.914 88.9331L137.018 88.9331C137.156 88.9331 137.287 88.9588 137.41 89.0101C137.532 89.0637 137.64 89.1362 137.731 89.2277C137.823 89.3193 137.895 89.4264 137.949 89.5492C138 89.6719 138.026 89.8025 138.026 89.9409L138.026 92.4286L137.614 92.4286L137.614 89.9175C137.614 89.8349 137.598 89.7568 137.567 89.6831C137.536 89.6117 137.493 89.5492 137.44 89.4956C137.386 89.442 137.324 89.3996 137.252 89.3684C137.179 89.3371 137.1 89.3215 137.018 89.3215L136.743 89.3215C136.661 89.3215 136.584 89.3371 136.512 89.3684C136.439 89.3996 136.375 89.442 136.321 89.4956C136.268 89.5492 136.225 89.6117 136.194 89.6831C136.163 89.7568 136.147 89.8349 136.147 89.9175L136.147 92.4286L135.735 92.4286L135.735 89.0001L135.873 89.0001ZM133.033 89.0001L133.033 91.5112C133.033 91.5938 133.049 91.6708 133.08 91.7422C133.112 91.8159 133.154 91.8795 133.208 91.9331C133.261 91.9867 133.325 92.0291 133.398 92.0603C133.47 92.0916 133.547 92.1072 133.629 92.1072L133.904 92.1072C133.987 92.1072 134.065 92.0916 134.138 92.0603C134.21 92.0291 134.272 91.9867 134.326 91.9331C134.379 91.8795 134.422 91.8159 134.453 91.7422C134.484 91.6708 134.5 91.5938 134.5 91.5112L134.5 89.0001L134.912 89.0001L134.912 92.4286L134.775 92.4286L134.55 92.0804C134.456 92.2077 134.339 92.3081 134.199 92.3818C134.056 92.4577 133.901 92.4956 133.733 92.4956L133.629 92.4956C133.491 92.4956 133.36 92.4688 133.238 92.4152C133.115 92.3639 133.008 92.2925 132.916 92.201C132.825 92.1094 132.753 92.0023 132.702 91.8795C132.648 91.7568 132.622 91.6262 132.622 91.4878L132.622 89.0001L133.033 89.0001ZM130.619 93.4097C130.689 93.4097 130.753 93.3963 130.814 93.3695C130.872 93.3449 130.923 93.3103 130.968 93.2657C131.012 93.221 131.048 93.1686 131.075 93.1083C131.099 93.0481 131.112 92.9833 131.112 92.9141L131.112 92.4286L130.311 92.4286L130.311 92.0369L131.112 92.0369L131.112 89.0001L131.523 89.0001L131.523 92.0369L132.143 92.0369L132.143 92.4286L131.523 92.4286L131.523 92.894C131.523 93.019 131.5 93.1362 131.453 93.2456C131.406 93.3572 131.342 93.4543 131.259 93.5369C131.176 93.6195 131.08 93.6842 130.971 93.7311C130.862 93.778 130.744 93.8014 130.619 93.8014L130.241 93.8014L130.241 93.4097L130.619 93.4097ZM129.692 89.0001L129.692 93.8014L129.28 93.8014L129.28 89.0001L129.692 89.0001ZM126.093 89.9409C126.093 89.8025 126.119 89.6719 126.173 89.5492C126.224 89.4264 126.296 89.3193 126.387 89.2277C126.479 89.1362 126.586 89.0637 126.709 89.0101C126.831 88.9588 126.962 88.9331 127.1 88.9331L127.375 88.9331C127.513 88.9331 127.644 88.9588 127.767 89.0101C127.89 89.0637 127.997 89.1362 128.088 89.2277C128.18 89.3193 128.252 89.4264 128.306 89.5492C128.357 89.6719 128.383 89.8025 128.383 89.9409L128.383 91.4878C128.383 91.6262 128.357 91.7568 128.306 91.8795C128.252 92.0023 128.18 92.1094 128.088 92.201C127.997 92.2925 127.89 92.3639 127.767 92.4152C127.644 92.4688 127.513 92.4956 127.375 92.4956L127.1 92.4956C126.962 92.4956 126.831 92.4688 126.709 92.4152C126.586 92.3639 126.479 92.2925 126.387 92.201C126.296 92.1094 126.224 92.0023 126.173 91.8795C126.119 91.7568 126.093 91.6262 126.093 91.4878L126.093 89.9409ZM126.504 91.5112C126.504 91.5938 126.52 91.6708 126.551 91.7422C126.583 91.8159 126.625 91.8795 126.679 91.9331C126.732 91.9867 126.796 92.0291 126.869 92.0603C126.941 92.0916 127.018 92.1072 127.1 92.1072L127.375 92.1072C127.458 92.1072 127.536 92.0916 127.609 92.0603C127.681 92.0291 127.743 91.9867 127.797 91.9331C127.85 91.8795 127.893 91.8159 127.924 91.7422C127.955 91.6708 127.971 91.5938 127.971 91.5112L127.971 89.9175C127.971 89.8349 127.955 89.7568 127.924 89.6831C127.893 89.6117 127.85 89.5492 127.797 89.4956C127.743 89.442 127.681 89.3996 127.609 89.3684C127.536 89.3371 127.458 89.3215 127.375 89.3215L127.1 89.3215C127.018 89.3215 126.941 89.3371 126.869 89.3684C126.796 89.3996 126.732 89.442 126.679 89.4956C126.625 89.5492 126.583 89.6117 126.551 89.6831C126.52 89.7568 126.504 89.8349 126.504 89.9175L126.504 91.5112ZM122.383 89.0001L122.607 89.0001L123.411 91.5849L123.424 91.7623L123.437 91.5849L124.241 89.0001L124.469 89.0001L125.614 92.4286L125.195 92.4286L124.378 89.8371L124.365 89.6597L124.352 89.8371L123.548 92.4286L123.3 92.4286L122.5 89.8371L122.487 89.6597L122.473 89.8371L121.656 92.4286L121.238 92.4286L122.383 89.0001ZM118.465 89.9409C118.465 89.8025 118.492 89.6719 118.546 89.5492C118.597 89.4264 118.669 89.3193 118.76 89.2277C118.852 89.1362 118.959 89.0637 119.081 89.0101C119.204 88.9588 119.335 88.9331 119.473 88.9331L119.748 88.9331C119.886 88.9331 120.017 88.9588 120.14 89.0101C120.262 89.0637 120.369 89.1362 120.461 89.2277C120.552 89.3193 120.625 89.4264 120.679 89.5492C120.73 89.6719 120.756 89.8025 120.756 89.9409L120.756 91.4878C120.756 91.6262 120.73 91.7568 120.679 91.8795C120.625 92.0023 120.552 92.1094 120.461 92.201C120.369 92.2925 120.262 92.3639 120.14 92.4152C120.017 92.4688 119.886 92.4956 119.748 92.4956L119.473 92.4956C119.335 92.4956 119.204 92.4688 119.081 92.4152C118.959 92.3639 118.852 92.2925 118.76 92.201C118.669 92.1094 118.597 92.0023 118.546 91.8795C118.492 91.7568 118.465 91.6262 118.465 91.4878L118.465 90.6809L120.344 90.6809L120.344 89.9175C120.344 89.8349 120.328 89.7568 120.297 89.6831C120.266 89.6117 120.223 89.5492 120.17 89.4956C120.116 89.442 120.054 89.3996 119.982 89.3684C119.908 89.3371 119.83 89.3215 119.748 89.3215L119.473 89.3215C119.391 89.3215 119.314 89.3371 119.242 89.3684C119.169 89.3996 119.105 89.442 119.051 89.4956C118.998 89.5492 118.955 89.6117 118.924 89.6831C118.893 89.7568 118.877 89.8349 118.877 89.9175L118.877 90.1452L118.465 90.0782L118.465 89.9409ZM118.877 91.5112C118.877 91.5938 118.893 91.6708 118.924 91.7422C118.955 91.8159 118.998 91.8795 119.051 91.9331C119.105 91.9867 119.169 92.0291 119.242 92.0603C119.314 92.0916 119.391 92.1072 119.473 92.1072L119.748 92.1072C119.83 92.1072 119.908 92.0916 119.982 92.0603C120.054 92.0291 120.116 91.9867 120.17 91.9331C120.223 91.8795 120.266 91.8159 120.297 91.7422C120.328 91.6708 120.344 91.5938 120.344 91.5112L120.344 91.0023L118.877 91.0023L118.877 91.5112ZM116.634 92.0369C116.717 92.0369 116.795 92.0213 116.868 91.99C116.94 91.9588 117.002 91.9164 117.056 91.8628C117.109 91.8092 117.152 91.7456 117.183 91.6719C117.214 91.6005 117.23 91.5235 117.23 91.4409L117.23 89.0001L117.642 89.0001L117.642 92.4286L117.504 92.4286L117.28 92.0804C117.186 92.2077 117.069 92.3081 116.929 92.3818C116.786 92.4577 116.631 92.4956 116.463 92.4956L116.222 92.4956L116.222 92.0369L116.634 92.0369Z" fill="#CEFDDE"/>
<path d="M122.811 38.7032L122.811 41.0001L122.379 41.0001L122.379 38.7099L121.137 36.1987L121.603 36.1987L122.59 38.1943L123.578 36.1987L124.044 36.1987L122.811 38.7032ZM126.538 41.0001L126.31 40.6518C126.217 40.7791 126.099 40.8806 125.959 40.9565C125.818 41.0302 125.664 41.067 125.497 41.067L125.393 41.067C125.254 41.067 125.124 41.0414 125.001 40.99C124.878 40.9364 124.771 40.8639 124.68 40.7724C124.588 40.6809 124.516 40.5737 124.462 40.451C124.411 40.3282 124.385 40.1976 124.385 40.0592L124.385 37.5715L124.797 37.5715L124.797 40.0827C124.797 40.1652 124.812 40.2434 124.844 40.317C124.875 40.3885 124.917 40.451 124.971 40.5045C125.025 40.5581 125.087 40.6005 125.158 40.6318C125.232 40.663 125.31 40.6786 125.393 40.6786L125.667 40.6786C125.75 40.6786 125.827 40.663 125.898 40.6318C125.972 40.6005 126.036 40.5581 126.089 40.5045C126.143 40.451 126.185 40.3885 126.217 40.317C126.248 40.2434 126.263 40.1652 126.263 40.0827L126.263 37.5715L126.675 37.5715L126.675 41.0001L126.538 41.0001ZM129.789 40.0592C129.789 40.1976 129.762 40.3282 129.709 40.451C129.657 40.5737 129.586 40.6809 129.494 40.7724C129.403 40.8639 129.296 40.9364 129.173 40.99C129.05 41.0414 128.92 41.067 128.781 41.067L128.507 41.067C128.368 41.067 128.238 41.0414 128.115 40.99C127.992 40.9364 127.885 40.8639 127.794 40.7724C127.702 40.6809 127.629 40.5737 127.576 40.451C127.525 40.3282 127.499 40.1976 127.499 40.0592L127.499 38.5123C127.499 38.3739 127.525 38.2434 127.576 38.1206C127.629 37.9978 127.702 37.8907 127.794 37.7992C127.885 37.7077 127.992 37.6362 128.115 37.5849C128.238 37.5313 128.368 37.5045 128.507 37.5045L128.781 37.5045C128.92 37.5045 129.05 37.5313 129.173 37.5849C129.296 37.6362 129.403 37.7077 129.494 37.7992C129.586 37.8907 129.657 37.9978 129.709 38.1206C129.762 38.2434 129.789 38.3739 129.789 38.5123L129.789 38.6496L129.377 38.7166L129.377 38.4889C129.377 38.4063 129.362 38.3293 129.33 38.2579C129.299 38.1842 129.257 38.1206 129.203 38.067C129.15 38.0135 129.086 37.971 129.012 37.9398C128.941 37.9085 128.864 37.8929 128.781 37.8929L128.507 37.8929C128.424 37.8929 128.346 37.9085 128.272 37.9398C128.201 37.971 128.138 38.0135 128.085 38.067C128.031 38.1206 127.989 38.1842 127.958 38.2579C127.926 38.3293 127.911 38.4063 127.911 38.4889L127.911 40.0827C127.911 40.1652 127.926 40.2434 127.958 40.317C127.989 40.3885 128.031 40.451 128.085 40.5045C128.138 40.5581 128.201 40.6005 128.272 40.6318C128.346 40.663 128.424 40.6786 128.507 40.6786L128.781 40.6786C128.864 40.6786 128.941 40.663 129.012 40.6318C129.086 40.6005 129.15 40.5581 129.203 40.5045C129.257 40.451 129.299 40.3885 129.33 40.317C129.362 40.2434 129.377 40.1652 129.377 40.0827L129.377 39.855L129.789 39.9219L129.789 40.0592ZM132.903 40.0592C132.903 40.1976 132.876 40.3282 132.823 40.451C132.771 40.5737 132.7 40.6809 132.608 40.7724C132.517 40.8639 132.41 40.9364 132.287 40.99C132.164 41.0414 132.033 41.067 131.895 41.067L131.621 41.067C131.482 41.067 131.352 41.0414 131.229 40.99C131.106 40.9364 130.999 40.8639 130.907 40.7724C130.816 40.6809 130.743 40.5737 130.69 40.451C130.638 40.3282 130.613 40.1976 130.613 40.0592L130.613 38.5123C130.613 38.3739 130.638 38.2434 130.69 38.1206C130.743 37.9978 130.816 37.8907 130.907 37.7992C130.999 37.7077 131.106 37.6362 131.229 37.5849C131.352 37.5313 131.482 37.5045 131.621 37.5045L131.895 37.5045C132.033 37.5045 132.164 37.5313 132.287 37.5849C132.41 37.6362 132.517 37.7077 132.608 37.7992C132.7 37.8907 132.771 37.9978 132.823 38.1206C132.876 38.2434 132.903 38.3739 132.903 38.5123L132.903 38.6496L132.491 38.7166L132.491 38.4889C132.491 38.4063 132.475 38.3293 132.444 38.2579C132.413 38.1842 132.371 38.1206 132.317 38.067C132.263 38.0135 132.2 37.971 132.126 37.9398C132.055 37.9085 131.978 37.8929 131.895 37.8929L131.621 37.8929C131.538 37.8929 131.46 37.9085 131.386 37.9398C131.315 37.971 131.252 38.0135 131.199 38.067C131.145 38.1206 131.103 38.1842 131.071 38.2579C131.04 38.3293 131.025 38.4063 131.025 38.4889L131.025 40.0827C131.025 40.1652 131.04 40.2434 131.071 40.317C131.103 40.3885 131.145 40.451 131.199 40.5045C131.252 40.5581 131.315 40.6005 131.386 40.6318C131.46 40.663 131.538 40.6786 131.621 40.6786L131.895 40.6786C131.978 40.6786 132.055 40.663 132.126 40.6318C132.2 40.6005 132.263 40.5581 132.317 40.5045C132.371 40.451 132.413 40.3885 132.444 40.317C132.475 40.2434 132.491 40.1652 132.491 40.0827L132.491 39.855L132.903 39.9219L132.903 40.0592ZM135.879 41.0001L135.652 40.6585C135.558 40.7813 135.441 40.8806 135.3 40.9565C135.16 41.0302 135.006 41.067 134.838 41.067L134.734 41.067C134.596 41.067 134.465 41.0414 134.343 40.99C134.22 40.9364 134.113 40.8639 134.021 40.7724C133.93 40.6809 133.857 40.5737 133.804 40.451C133.752 40.3282 133.727 40.1976 133.727 40.0592L133.727 40.0257C133.727 39.8873 133.752 39.7568 133.804 39.634C133.857 39.5112 133.93 39.4041 134.021 39.3126C134.113 39.221 134.22 39.1496 134.343 39.0983C134.465 39.0447 134.596 39.0179 134.734 39.0179L135.605 39.0179L135.605 38.4889C135.605 38.4063 135.589 38.3293 135.558 38.2579C135.527 38.1842 135.484 38.1206 135.431 38.067C135.377 38.0135 135.314 37.971 135.24 37.9398C135.169 37.9085 135.092 37.8929 135.009 37.8929L134.768 37.8929C134.685 37.8929 134.607 37.9085 134.533 37.9398C134.462 37.971 134.4 38.0135 134.346 38.067C134.292 38.1206 134.25 38.1842 134.219 38.2579C134.188 38.3293 134.172 38.4063 134.172 38.4889L134.172 38.6128L133.76 38.5458L133.76 38.5123C133.76 38.3739 133.786 38.2434 133.837 38.1206C133.891 37.9978 133.963 37.8907 134.055 37.7992C134.146 37.7077 134.253 37.6362 134.376 37.5849C134.499 37.5313 134.629 37.5045 134.768 37.5045L135.009 37.5045C135.147 37.5045 135.278 37.5313 135.401 37.5849C135.523 37.6362 135.631 37.7077 135.722 37.7992C135.814 37.8907 135.885 37.9978 135.936 38.1206C135.99 38.2434 136.017 38.3739 136.017 38.5123L136.017 41.0001L135.879 41.0001ZM135.605 39.3393L134.734 39.3393C134.652 39.3393 134.574 39.355 134.5 39.3862C134.429 39.4175 134.366 39.461 134.313 39.5168C134.259 39.5704 134.217 39.634 134.185 39.7077C134.154 39.7791 134.138 39.8561 134.138 39.9387L134.138 40.0827C134.138 40.1652 134.154 40.2434 134.185 40.317C134.217 40.3885 134.259 40.451 134.313 40.5045C134.366 40.5581 134.429 40.6005 134.5 40.6318C134.574 40.663 134.652 40.6786 134.734 40.6786L135.009 40.6786C135.092 40.6786 135.169 40.663 135.24 40.6318C135.314 40.6005 135.377 40.5581 135.431 40.5045C135.484 40.451 135.527 40.3885 135.558 40.317C135.589 40.2434 135.605 40.1652 135.605 40.0827L135.605 39.3393Z" fill="#CEFDDE"/>
<path d="M103.888 66.8193C104.051 66.8193 104.204 66.8505 104.347 66.913C104.49 66.9733 104.615 67.057 104.722 67.1641C104.829 67.2713 104.914 67.3963 104.977 67.5391C105.037 67.682 105.067 67.8349 105.067 67.9978V68.3393C105.067 68.5023 105.037 68.6563 104.977 68.8014C104.914 68.9443 104.829 69.0693 104.722 69.1764C104.615 69.2835 104.49 69.3684 104.347 69.4309C104.204 69.4911 104.051 69.5213 103.888 69.5213H101.31C101.147 69.5213 100.994 69.4911 100.852 69.4309C100.709 69.3684 100.584 69.2835 100.477 69.1764C100.369 69.0693 100.286 68.9443 100.225 68.8014C100.163 68.6563 100.132 68.5023 100.132 68.3393V67.9978C100.132 67.8349 100.163 67.682 100.225 67.5391C100.286 67.3963 100.369 67.2713 100.477 67.1641C100.584 67.057 100.709 66.9733 100.852 66.913C100.994 66.8505 101.147 66.8193 101.31 66.8193H103.888ZM101.31 67.2512C101.203 67.2512 101.104 67.2713 101.012 67.3114C100.919 67.3516 100.837 67.4063 100.768 67.4755C100.699 67.5447 100.644 67.6262 100.604 67.7199C100.564 67.8114 100.544 67.9108 100.544 68.0179V68.3193C100.544 68.4264 100.564 68.5268 100.604 68.6206C100.644 68.7121 100.699 68.7936 100.768 68.865C100.837 68.9342 100.919 68.9889 101.012 69.0291C101.104 69.0693 101.203 69.0893 101.31 69.0893H103.888C103.996 69.0893 104.096 69.0693 104.19 69.0291C104.281 68.9889 104.363 68.9342 104.434 68.865C104.503 68.7936 104.558 68.7121 104.598 68.6206C104.638 68.5268 104.658 68.4264 104.658 68.3193V68.0179C104.658 67.9108 104.638 67.8114 104.598 67.7199C104.558 67.6262 104.503 67.5447 104.434 67.4755C104.363 67.4063 104.281 67.3516 104.19 67.3114C104.096 67.2713 103.996 67.2512 103.888 67.2512H101.31ZM105 63.0391V63.2635L102.415 64.067L102.238 64.0804L102.415 64.0938L105 64.8974V65.1251L101.571 66.2702V65.8516L104.163 65.0347L104.34 65.0213L104.163 65.0079L101.571 64.2043V63.9565L104.163 63.1563L104.34 63.1429L104.163 63.1295L101.571 62.3126V61.894L105 63.0391ZM105 61.2746H100.199V60.8628H105V61.2746Z" fill="#CEFDDE"/>
<path fill-rule="evenodd" clip-rule="evenodd" d="M105.005 92.0626L103.293 90.3509C103.098 90.1559 102.782 90.1559 102.587 90.3509C102.392 90.5459 102.392 90.862 102.587 91.057L103.547 92.0177C102.513 92.0081 101.735 91.8154 101.275 91.3122C100.797 90.7882 100.611 90.3731 100.611 88.9994C100.611 88.7236 100.388 88.5001 100.112 88.5001C99.8364 88.5001 99.6128 88.7236 99.6128 88.9994C99.6128 90.5603 99.8537 91.2366 100.538 91.9858C101.179 92.6876 102.166 92.9744 103.349 93.0123L102.584 93.777C102.389 93.972 102.389 94.2882 102.584 94.4832C102.779 94.6782 103.095 94.6782 103.29 94.4832L105.005 92.7688C105.2 92.5738 105.2 92.2576 105.005 92.0626Z" fill="#FFD666"/>
<path fill-rule="evenodd" clip-rule="evenodd" d="M152.297 92.0626L154.009 90.3509C154.204 90.1559 154.52 90.1559 154.715 90.3509C154.911 90.5459 154.911 90.862 154.715 91.057L153.754 92.0177C154.789 92.0082 155.567 91.8155 156.027 91.3123C156.506 90.7883 156.692 90.3732 156.692 88.9995C156.692 88.7237 156.915 88.5001 157.191 88.5001C157.467 88.5001 157.691 88.7237 157.691 88.9995C157.691 90.5604 157.45 91.2366 156.765 91.9858C156.123 92.6877 155.137 92.9744 153.953 93.0124L154.718 93.777C154.913 93.972 154.913 94.2882 154.718 94.4832C154.523 94.6782 154.207 94.6782 154.012 94.4832L152.297 92.7688C152.102 92.5738 152.102 92.2576 152.297 92.0626Z" fill="#FFD666"/>
<path fill-rule="evenodd" clip-rule="evenodd" d="M152.299 38.0669L154.01 39.7787C154.205 39.9737 154.522 39.9737 154.717 39.7787C154.912 39.5837 154.912 39.2675 154.717 39.0725L153.756 38.1119C154.79 38.1215 155.568 38.3142 156.028 38.8174C156.506 39.3414 156.692 39.7565 156.692 41.1302C156.692 41.4059 156.915 41.6295 157.191 41.6295C157.467 41.6295 157.69 41.4059 157.69 41.1302C157.69 39.5693 157.45 38.893 156.765 38.1438C156.124 37.442 155.137 37.1552 153.954 37.1173L154.719 36.3525C154.914 36.1575 154.914 35.8414 154.719 35.6464C154.524 35.4514 154.208 35.4514 154.013 35.6464L152.299 37.3608C152.104 37.5558 152.104 37.8719 152.299 38.0669Z" fill="#FFD666"/>
<path fill-rule="evenodd" clip-rule="evenodd" d="M105.006 38.0669L103.294 39.7787C103.099 39.9737 102.782 39.9737 102.587 39.7787C102.392 39.5837 102.392 39.2675 102.587 39.0725L103.548 38.1118C102.514 38.1214 101.735 38.3141 101.275 38.8173C100.797 39.3413 100.611 39.7564 100.611 41.1301C100.611 41.4059 100.388 41.6295 100.112 41.6295C99.8358 41.6295 99.6122 41.4059 99.6122 41.1301C99.6122 39.5692 99.8531 38.893 100.538 38.1437C101.179 37.4419 102.166 37.1551 103.35 37.1172L102.585 36.3525C102.389 36.1575 102.389 35.8414 102.585 35.6464C102.78 35.4514 103.096 35.4514 103.291 35.6464L105.006 37.3608C105.201 37.5558 105.201 37.8719 105.006 38.0669Z" fill="#FFD666"/>
</g>
<g style="mix-blend-mode:luminosity">
<path d="M9.229 105.693C9.277 105.693 9.346 105.708 9.436 105.738C9.436 106.308 9.475 106.947 9.553 107.655L14.026 107.655C14.314 107.655 14.53 107.712 14.674 107.826C14.818 107.934 14.92 108.123 14.98 108.393C15.034 108.645 15.058 108.954 15.052 109.32C14.98 109.35 14.902 109.365 14.818 109.365C14.74 109.365 14.674 109.353 14.62 109.329C14.608 109.107 14.557 108.954 14.467 108.87C14.377 108.78 14.218 108.735 13.99 108.735L7.915 108.735C7.585 108.735 7.42 108.768 7.42 108.834L7.438 109.149C7.372 109.185 7.294 109.203 7.204 109.203C7.114 109.203 7.042 109.191 6.988 109.167C6.712 108.267 6.574 107.259 6.574 106.143C6.574 105.645 6.592 105.234 6.628 104.91C6.7 104.874 6.778 104.856 6.862 104.856C6.916 104.856 6.988 104.871 7.078 104.901C7.054 105.027 7.042 105.276 7.042 105.648C7.042 106.422 7.081 107.094 7.159 107.664C7.177 107.658 7.234 107.655 7.33 107.655L9.067 107.655C9.007 107.073 8.974 106.437 8.968 105.747C9.04 105.711 9.127 105.693 9.229 105.693ZM8.752 101.041C8.89 100.969 9.088 100.933 9.346 100.933L12.109 100.933C12.469 100.933 12.727 101.14 12.883 101.554C13.033 101.968 13.108 102.637 13.108 103.561C13.108 103.867 13.078 104.104 13.018 104.272C12.958 104.44 12.859 104.563 12.721 104.641C12.583 104.713 12.385 104.749 12.127 104.749L9.373 104.749C9.001 104.749 8.74 104.539 8.59 104.119C8.446 103.693 8.374 103.021 8.374 102.103C8.374 101.797 8.404 101.563 8.464 101.401C8.518 101.233 8.614 101.113 8.752 101.041ZM12.568 102.175C12.472 102.025 12.307 101.953 12.073 101.959L9.454 101.959C9.184 101.959 9.001 101.998 8.905 102.076C8.803 102.148 8.752 102.283 8.752 102.481C8.752 103.003 8.8 103.339 8.896 103.489C8.998 103.651 9.169 103.729 9.409 103.723L12.028 103.723C12.298 103.723 12.481 103.687 12.577 103.615C12.673 103.543 12.721 103.399 12.721 103.183C12.709 102.655 12.658 102.319 12.568 102.175ZM14.179 96.7776C14.107 96.7416 14.005 96.7236 13.873 96.7236L12.73 96.7236L12.82 97.0566C12.88 97.2666 12.937 97.4796 12.991 97.6956C13.033 97.8696 13.069 98.0766 13.099 98.3166C13.111 98.4606 13.117 98.5626 13.117 98.6226C13.117 98.9526 13.066 99.1866 12.964 99.3246C12.856 99.4626 12.679 99.5316 12.433 99.5316L9.346 99.5316C9.016 99.5316 8.851 99.5646 8.851 99.6306L8.869 100.252C8.827 100.276 8.77 100.288 8.698 100.288C8.65 100.288 8.599 100.279 8.545 100.261C8.431 99.8646 8.374 99.4596 8.374 99.0456C8.374 98.8656 8.383 98.7396 8.401 98.6676C8.413 98.5956 8.446 98.5506 8.5 98.5326C8.548 98.5086 8.635 98.4996 8.761 98.5056L12.208 98.5056C12.454 98.5056 12.577 98.3376 12.577 98.0016C12.577 97.7436 12.493 97.3176 12.325 96.7236L9.346 96.7236C9.016 96.7236 8.851 96.7566 8.851 96.8226L8.869 97.4436C8.827 97.4676 8.77 97.4796 8.698 97.4796C8.65 97.4796 8.599 97.4706 8.545 97.4526C8.431 97.0566 8.374 96.6516 8.374 96.2376C8.374 96.0576 8.383 95.9316 8.401 95.8596C8.413 95.7876 8.446 95.7426 8.5 95.7246C8.548 95.7006 8.635 95.6916 8.761 95.6976L13.945 95.6976C14.443 95.6856 14.743 95.9496 14.845 96.4896C15.001 97.2276 15.076 98.1396 15.07 99.2256C14.974 99.2796 14.896 99.3066 14.836 99.3066C14.734 99.3066 14.656 99.2946 14.602 99.2706C14.59 98.4306 14.554 97.8396 14.494 97.4976C14.452 97.2696 14.407 97.1016 14.359 96.9936C14.311 96.8856 14.251 96.8136 14.179 96.7776ZM12.568 91.7928C12.502 91.3788 12.445 91.0788 12.397 90.8928C12.457 90.8628 12.532 90.8478 12.622 90.8478C12.7 90.8478 12.76 90.8598 12.802 90.8838C13.012 91.6878 13.117 92.5698 13.117 93.5298C13.117 93.8538 13.066 94.0908 12.964 94.2408C12.862 94.3848 12.694 94.4568 12.46 94.4568L9.373 94.4568C9.001 94.4568 8.74 94.2588 8.59 93.8628C8.446 93.4788 8.374 92.8548 8.374 91.9908C8.374 91.6848 8.404 91.4508 8.464 91.2888C8.518 91.1208 8.614 91.0008 8.752 90.9288C8.89 90.8568 9.088 90.8208 9.346 90.8208L9.985 90.8208C10.237 90.8208 10.435 90.8838 10.579 91.0098C10.717 91.1358 10.816 91.3368 10.876 91.6128C10.978 92.2788 11.047 92.8848 11.083 93.4308L12.109 93.4308C12.337 93.4308 12.487 93.3888 12.559 93.3048C12.631 93.2148 12.667 93.0348 12.667 92.7648C12.667 92.5248 12.634 92.2008 12.568 91.7928ZM8.905 93.2238C9.001 93.3738 9.169 93.4428 9.409 93.4308L10.669 93.4308C10.633 93.0288 10.591 92.7018 10.543 92.4498C10.489 92.2038 10.426 92.0418 10.354 91.9638C10.282 91.8858 10.15 91.8468 9.958 91.8468L9.409 91.8468C9.157 91.8468 8.986 91.8858 8.896 91.9638C8.8 92.0358 8.752 92.1708 8.752 92.3688C8.752 92.7888 8.803 93.0738 8.905 93.2238ZM9.346 89.5642C9.016 89.5642 8.851 89.5972 8.851 89.6632L8.869 90.2842C8.827 90.3082 8.77 90.3202 8.698 90.3202C8.65 90.3202 8.599 90.3112 8.545 90.2932C8.431 89.8972 8.374 89.4922 8.374 89.0782C8.374 88.8982 8.383 88.7722 8.401 88.7002C8.413 88.6282 8.446 88.5832 8.5 88.5652C8.548 88.5412 8.635 88.5322 8.761 88.5382C8.503 87.9442 8.374 87.5212 8.374 87.2692C8.374 86.9392 8.428 86.7052 8.536 86.5672C8.638 86.4292 8.812 86.3602 9.058 86.3602L9.904 86.3602C9.988 86.3602 10.048 86.4082 10.084 86.5042C10.15 86.7322 10.183 86.9752 10.183 87.2332C10.183 87.3352 10.132 87.3862 10.03 87.3862L9.283 87.3862C9.061 87.3862 8.95 87.5032 8.95 87.7372C8.95 87.9232 9.022 88.1902 9.166 88.5382L12.145 88.5382C12.475 88.5382 12.64 88.5052 12.64 88.4392L12.622 87.8182C12.664 87.7942 12.721 87.7822 12.793 87.7822C12.841 87.7822 12.892 87.7912 12.946 87.8092C13.06 88.2052 13.117 88.6102 13.117 89.0242C13.117 89.2042 13.108 89.3302 13.09 89.4022C13.078 89.4742 13.048 89.5222 13 89.5462C12.946 89.5642 12.856 89.5702 12.73 89.5642L9.346 89.5642Z" fill="#9CFCBC"/>
</g>
<g style="mix-blend-mode:luminosity">
<path d="M79.515 11.5741C80.085 11.5741 80.628 11.5981 81.144 11.6461C81.18 11.7061 81.198 11.7931 81.198 11.9071C81.198 11.9971 81.186 12.0751 81.162 12.1411C80.682 12.0871 80.103 12.0631 79.425 12.0691L79.425 17.1451C79.425 17.4751 79.458 17.6401 79.524 17.6401L80.091 17.6221C80.115 17.6641 80.127 17.7211 80.127 17.7931C80.127 17.8411 80.118 17.8921 80.1 17.9461C79.704 18.0601 79.32 18.1171 78.948 18.1171C78.756 18.1171 78.618 18.1081 78.534 18.0901C78.456 18.0781 78.402 18.0481 78.372 18.0001C78.348 17.9461 78.339 17.8561 78.345 17.7301L78.345 12.1411C77.643 12.1951 77.034 12.2821 76.518 12.4021C76.482 12.3181 76.464 12.2341 76.464 12.1501C76.464 12.1021 76.476 12.0241 76.5 11.9161C77.364 11.6881 78.369 11.5741 79.515 11.5741ZM82.1176 12.6361C82.0096 12.6481 81.9616 12.5521 81.9736 12.3481L81.9736 11.8891C81.9736 11.7871 81.9826 11.7181 82.0006 11.6821C82.0246 11.6461 82.0756 11.6221 82.1536 11.6101L82.8556 11.5831C82.9636 11.5711 83.0116 11.6671 82.9996 11.8711L82.9996 12.3301C82.9996 12.4321 82.9876 12.5011 82.9636 12.5371C82.9456 12.5731 82.8976 12.5971 82.8196 12.6091L82.1176 12.6361ZM83.9356 17.7931C83.9356 17.8411 83.9266 17.8921 83.9086 17.9461C83.5126 18.0601 83.1076 18.1171 82.6936 18.1171C82.5136 18.1171 82.3876 18.1081 82.3156 18.0901C82.2436 18.0781 82.1956 18.0481 82.1716 18.0001C82.1536 17.9461 82.1476 17.8561 82.1536 17.7301L82.1536 14.3461C82.1536 14.0161 82.1206 13.8511 82.0546 13.8511L81.4336 13.8691C81.4096 13.8271 81.3976 13.7701 81.3976 13.6981C81.3976 13.6501 81.4066 13.5991 81.4246 13.5451C81.8206 13.4311 82.2256 13.3741 82.6396 13.3741C82.8196 13.3741 82.9456 13.3831 83.0176 13.4011C83.0896 13.4131 83.1346 13.4461 83.1526 13.5001C83.1766 13.5481 83.1856 13.6351 83.1796 13.7611L83.1796 17.1451C83.1796 17.4631 83.2096 17.6221 83.2696 17.6221L83.8996 17.6221C83.9236 17.6641 83.9356 17.7211 83.9356 17.7931ZM87.1104 13.9141C86.8764 13.9141 86.4714 14.0011 85.8954 14.1751L85.8954 17.8381C85.8954 17.9221 85.8474 17.9821 85.7514 18.0181C85.5234 18.0841 85.2804 18.1171 85.0224 18.1171C84.9204 18.1171 84.8694 18.0661 84.8694 17.9641L84.8694 14.3461C84.8694 14.0161 84.8364 13.8511 84.7704 13.8511L84.1494 13.8691C84.1254 13.8271 84.1134 13.7701 84.1134 13.6981C84.1134 13.6501 84.1224 13.5991 84.1404 13.5451C84.5364 13.4311 84.9414 13.3741 85.3554 13.3741C85.5354 13.3741 85.6614 13.3831 85.7334 13.4011C85.8054 13.4131 85.8504 13.4461 85.8684 13.5001C85.8924 13.5481 85.9014 13.6351 85.8954 13.7611C86.3334 13.6291 86.6874 13.5331 86.9574 13.4731C87.2634 13.4071 87.5364 13.3741 87.7764 13.3741C88.2324 13.3741 88.5054 13.5091 88.5954 13.7791C88.7334 13.7311 88.9524 13.6681 89.2524 13.5901C89.6004 13.5001 89.8104 13.4461 89.8824 13.4281C90.1104 13.3921 90.3084 13.3741 90.4764 13.3741C90.8064 13.3741 91.0404 13.4281 91.1784 13.5361C91.3164 13.6381 91.3854 13.8121 91.3854 14.0581L91.3854 17.1451C91.3854 17.3431 91.3914 17.4781 91.4034 17.5501C91.4094 17.6101 91.4364 17.6401 91.4844 17.6401L92.1054 17.6221C92.1294 17.6881 92.1414 17.7451 92.1414 17.7931C92.1414 17.8111 92.1354 17.8441 92.1234 17.8921L92.1144 17.9461C91.7184 18.0601 91.3134 18.1171 90.8994 18.1171C90.7194 18.1171 90.5934 18.1081 90.5214 18.0901C90.4494 18.0781 90.4014 18.0481 90.3774 18.0001C90.3594 17.9461 90.3534 17.8561 90.3594 17.7301L90.3594 14.2831C90.3594 14.0371 90.1914 13.9141 89.8554 13.9141C89.6334 13.9141 89.2284 14.0011 88.6404 14.1751L88.6404 17.8381C88.6404 17.9221 88.5924 17.9821 88.4964 18.0181C88.2684 18.0841 88.0254 18.1171 87.7674 18.1171C87.6654 18.1171 87.6144 18.0661 87.6144 17.9641L87.6144 14.2831C87.6144 14.0371 87.4464 13.9141 87.1104 13.9141ZM95.4641 17.5681C95.8781 17.5021 96.1781 17.4451 96.3641 17.3971C96.3941 17.4571 96.4091 17.5321 96.4091 17.6221C96.4091 17.7001 96.3971 17.7601 96.3731 17.8021C95.5691 18.0121 94.6871 18.1171 93.7271 18.1171C93.4031 18.1171 93.1661 18.0661 93.0161 17.9641C92.8721 17.8621 92.8001 17.6941 92.8001 17.4601L92.8001 14.3731C92.8001 14.0011 92.9981 13.7401 93.3941 13.5901C93.7781 13.4461 94.4021 13.3741 95.2661 13.3741C95.5721 13.3741 95.8061 13.4041 95.9681 13.4641C96.1361 13.5181 96.2561 13.6141 96.3281 13.7521C96.4001 13.8901 96.4361 14.0881 96.4361 14.3461L96.4361 14.9851C96.4361 15.2371 96.3731 15.4351 96.2471 15.5791C96.1211 15.7171 95.9201 15.8161 95.6441 15.8761C94.9781 15.9781 94.3721 16.0471 93.8261 16.0831L93.8261 17.1091C93.8261 17.3371 93.8681 17.4871 93.9521 17.5591C94.0421 17.6311 94.2221 17.6671 94.4921 17.6671C94.7321 17.6671 95.0561 17.6341 95.4641 17.5681ZM94.0331 13.9051C93.8831 14.0011 93.8141 14.1691 93.8261 14.4091L93.8261 15.6691C94.2281 15.6331 94.5551 15.5911 94.8071 15.5431C95.0531 15.4891 95.2151 15.4261 95.2931 15.3541C95.3711 15.2821 95.4101 15.1501 95.4101 14.9581L95.4101 14.4091C95.4101 14.1571 95.3711 13.9861 95.2931 13.8961C95.2211 13.8001 95.0861 13.7521 94.8881 13.7521C94.4681 13.7521 94.1831 13.8031 94.0331 13.9051ZM99.3757 17.7931C99.3757 17.8411 99.3667 17.8921 99.3487 17.9461C98.9527 18.0601 98.5477 18.1171 98.1337 18.1171C97.9537 18.1171 97.8277 18.1081 97.7557 18.0901C97.6837 18.0781 97.6357 18.0481 97.6117 18.0001C97.5937 17.9461 97.5877 17.8561 97.5937 17.7301L97.5937 12.5551C97.5937 12.2251 97.5607 12.0601 97.4947 12.0601L96.8737 12.0781C96.8497 12.0361 96.8377 11.9791 96.8377 11.9071C96.8377 11.8591 96.8467 11.8081 96.8647 11.7541C97.2607 11.6401 97.6657 11.5831 98.0797 11.5831C98.2597 11.5831 98.3857 11.5921 98.4577 11.6101C98.5297 11.6221 98.5747 11.6551 98.5927 11.7091C98.6167 11.7571 98.6257 11.8441 98.6197 11.9701L98.6197 17.1451C98.6197 17.4751 98.6527 17.6401 98.7187 17.6401L99.3397 17.6221C99.3637 17.6641 99.3757 17.7211 99.3757 17.7931ZM100.276 12.6361C100.168 12.6481 100.12 12.5521 100.132 12.3481L100.132 11.8891C100.132 11.7871 100.141 11.7181 100.159 11.6821C100.183 11.6461 100.234 11.6221 100.312 11.6101L101.014 11.5831C101.122 11.5711 101.17 11.6671 101.158 11.8711L101.158 12.3301C101.158 12.4321 101.146 12.5011 101.122 12.5371C101.104 12.5731 101.056 12.5971 100.978 12.6091L100.276 12.6361ZM102.094 17.7931C102.094 17.8411 102.085 17.8921 102.067 17.9461C101.671 18.0601 101.266 18.1171 100.852 18.1171C100.672 18.1171 100.546 18.1081 100.474 18.0901C100.402 18.0781 100.354 18.0481 100.33 18.0001C100.312 17.9461 100.306 17.8561 100.312 17.7301L100.312 14.3461C100.312 14.0161 100.279 13.8511 100.213 13.8511L99.5918 13.8691C99.5678 13.8271 99.5558 13.7701 99.5558 13.6981C99.5558 13.6501 99.5648 13.5991 99.5828 13.5451C99.9788 13.4311 100.384 13.3741 100.798 13.3741C100.978 13.3741 101.104 13.3831 101.176 13.4011C101.248 13.4131 101.293 13.4461 101.311 13.5001C101.335 13.5481 101.344 13.6351 101.338 13.7611L101.338 17.1451C101.338 17.4631 101.368 17.6221 101.428 17.6221L102.058 17.6221C102.082 17.6641 102.094 17.7211 102.094 17.7931ZM105.332 13.9141C105.062 13.9141 104.636 13.9981 104.054 14.1661L104.054 17.8381C104.054 17.9221 104.006 17.9821 103.91 18.0181C103.682 18.0841 103.439 18.1171 103.181 18.1171C103.079 18.1171 103.028 18.0661 103.028 17.9641L103.028 14.3461C103.028 14.0161 102.995 13.8511 102.929 13.8511L102.308 13.8691C102.284 13.8271 102.272 13.7701 102.272 13.6981C102.272 13.6501 102.281 13.5991 102.299 13.5451C102.695 13.4311 103.1 13.3741 103.514 13.3741C103.694 13.3741 103.82 13.3831 103.892 13.4011C103.964 13.4131 104.009 13.4461 104.027 13.5001C104.051 13.5481 104.06 13.6351 104.054 13.7611L104.387 13.6621C104.597 13.6021 104.747 13.5631 104.837 13.5451C104.831 13.5451 104.897 13.5301 105.035 13.5001C105.203 13.4581 105.407 13.4221 105.647 13.3921C105.791 13.3801 105.893 13.3741 105.953 13.3741C106.283 13.3741 106.517 13.4281 106.655 13.5361C106.793 13.6381 106.862 13.8121 106.862 14.0581L106.862 17.1451C106.862 17.4751 106.895 17.6401 106.961 17.6401L107.582 17.6221C107.606 17.6641 107.618 17.7211 107.618 17.7931C107.618 17.8411 107.609 17.8921 107.591 17.9461C107.195 18.0601 106.79 18.1171 106.376 18.1171C106.196 18.1171 106.07 18.1081 105.998 18.0901C105.926 18.0781 105.878 18.0481 105.854 18.0001C105.836 17.9461 105.83 17.8561 105.836 17.7301L105.836 14.2831C105.836 14.0371 105.668 13.9141 105.332 13.9141ZM110.942 17.5681C111.356 17.5021 111.656 17.4451 111.842 17.3971C111.872 17.4571 111.887 17.5321 111.887 17.6221C111.887 17.7001 111.875 17.7601 111.851 17.8021C111.047 18.0121 110.165 18.1171 109.205 18.1171C108.881 18.1171 108.644 18.0661 108.494 17.9641C108.35 17.8621 108.278 17.6941 108.278 17.4601L108.278 14.3731C108.278 14.0011 108.476 13.7401 108.872 13.5901C109.256 13.4461 109.88 13.3741 110.744 13.3741C111.05 13.3741 111.284 13.4041 111.446 13.4641C111.614 13.5181 111.734 13.6141 111.806 13.7521C111.878 13.8901 111.914 14.0881 111.914 14.3461L111.914 14.9851C111.914 15.2371 111.851 15.4351 111.725 15.5791C111.599 15.7171 111.398 15.8161 111.122 15.8761C110.456 15.9781 109.85 16.0471 109.304 16.0831L109.304 17.1091C109.304 17.3371 109.346 17.4871 109.43 17.5591C109.52 17.6311 109.7 17.6671 109.97 17.6671C110.21 17.6671 110.534 17.6341 110.942 17.5681ZM109.511 13.9051C109.361 14.0011 109.292 14.1691 109.304 14.4091L109.304 15.6691C109.706 15.6331 110.033 15.5911 110.285 15.5431C110.531 15.4891 110.693 15.4261 110.771 15.3541C110.849 15.2821 110.888 15.1501 110.888 14.9581L110.888 14.4091C110.888 14.1571 110.849 13.9861 110.771 13.8961C110.699 13.8001 110.564 13.7521 110.366 13.7521C109.946 13.7521 109.661 13.8031 109.511 13.9051Z" fill="#9CFCBC"/>
</g>
<g style="mix-blend-mode:luminosity">
<path d="M182.12 83.4141C182.048 83.4141 181.979 83.4021 181.913 83.3781C181.949 83.1981 181.967 82.8711 181.967 82.3971C181.967 81.6291 181.913 81.0501 181.805 80.6601C181.721 80.3541 181.499 80.2041 181.139 80.2101L177.224 80.2101C177.002 80.2101 176.831 80.2341 176.711 80.2821C176.597 80.3361 176.516 80.4231 176.468 80.5431C176.42 80.6631 176.396 80.8401 176.396 81.0741C176.396 81.4821 176.426 81.9231 176.486 82.3971C176.546 82.8771 176.606 83.2221 176.666 83.4321C176.552 83.4681 176.468 83.4861 176.414 83.4861C176.36 83.4861 176.294 83.4711 176.216 83.4411C175.982 82.6851 175.865 81.7791 175.865 80.7231C175.865 80.3091 175.901 79.9881 175.973 79.7601C176.045 79.5381 176.168 79.3761 176.342 79.2741C176.516 79.1781 176.768 79.1301 177.098 79.1301L181.184 79.1301C181.376 79.1301 181.547 79.1781 181.697 79.2741C181.847 79.3761 181.967 79.5171 182.057 79.6971C182.225 80.0451 182.33 80.4531 182.372 80.9211C182.408 81.3291 182.426 81.7881 182.426 82.2981C182.426 82.6461 182.405 83.0001 182.363 83.3601C182.291 83.3961 182.21 83.4141 182.12 83.4141ZM180.248 87.9259C180.11 87.9979 179.912 88.0339 179.654 88.0339L176.891 88.0339C176.531 88.0339 176.273 87.8269 176.117 87.4129C175.967 86.9989 175.892 86.3299 175.892 85.4059C175.892 85.0999 175.922 84.8629 175.982 84.6949C176.042 84.5269 176.141 84.4039 176.279 84.3259C176.417 84.2539 176.615 84.2179 176.873 84.2179L179.627 84.2179C179.999 84.2179 180.26 84.4279 180.41 84.8479C180.554 85.2739 180.626 85.9459 180.626 86.8639C180.626 87.1699 180.596 87.4039 180.536 87.5659C180.482 87.7339 180.386 87.8539 180.248 87.9259ZM176.432 86.7919C176.528 86.9419 176.693 87.0139 176.927 87.0079L179.546 87.0079C179.816 87.0079 179.999 86.9689 180.095 86.8909C180.197 86.8189 180.248 86.6839 180.248 86.4859C180.248 85.9639 180.2 85.6279 180.104 85.4779C180.002 85.3159 179.831 85.2379 179.591 85.2439L176.972 85.2439C176.702 85.2439 176.519 85.2799 176.423 85.3519C176.327 85.4239 176.279 85.5679 176.279 85.7839C176.291 86.3119 176.342 86.6479 176.432 86.7919ZM176.207 91.1453C176.159 91.1453 176.108 91.1363 176.054 91.1183C175.94 90.7223 175.883 90.3173 175.883 89.9033C175.883 89.7233 175.892 89.5973 175.91 89.5253C175.922 89.4533 175.952 89.4053 176 89.3813C176.054 89.3633 176.144 89.3573 176.27 89.3633L181.445 89.3633C181.775 89.3633 181.94 89.3303 181.94 89.2643L181.922 88.6433C181.964 88.6193 182.021 88.6073 182.093 88.6073C182.141 88.6073 182.192 88.6163 182.246 88.6343C182.36 89.0303 182.417 89.4353 182.417 89.8493C182.417 90.0293 182.408 90.1553 182.39 90.2273C182.378 90.2993 182.345 90.3443 182.291 90.3623C182.243 90.3863 182.156 90.3953 182.03 90.3893L176.855 90.3893C176.525 90.3893 176.36 90.4223 176.36 90.4883L176.378 91.1093C176.336 91.1333 176.279 91.1453 176.207 91.1453ZM180.248 95.5284C180.11 95.6004 179.912 95.6364 179.654 95.6364L176.891 95.6364C176.531 95.6364 176.273 95.4294 176.117 95.0154C175.967 94.6014 175.892 93.9324 175.892 93.0084C175.892 92.7024 175.922 92.4654 175.982 92.2974C176.042 92.1294 176.141 92.0064 176.279 91.9284C176.417 91.8564 176.615 91.8204 176.873 91.8204L179.627 91.8204C179.999 91.8204 180.26 92.0304 180.41 92.4504C180.554 92.8764 180.626 93.5484 180.626 94.4664C180.626 94.7724 180.596 95.0064 180.536 95.1684C180.482 95.3364 180.386 95.4564 180.248 95.5284ZM176.432 94.3944C176.528 94.5444 176.693 94.6164 176.927 94.6104L179.546 94.6104C179.816 94.6104 179.999 94.5714 180.095 94.4934C180.197 94.4214 180.248 94.2864 180.248 94.0884C180.248 93.5664 180.2 93.2304 180.104 93.0804C180.002 92.9184 179.831 92.8404 179.591 92.8464L176.972 92.8464C176.702 92.8464 176.519 92.8824 176.423 92.9544C176.327 93.0264 176.279 93.1704 176.279 93.3864C176.291 93.9144 176.342 94.2504 176.432 94.3944ZM179.654 97.0648C179.984 97.0648 180.149 97.0318 180.149 96.9658L180.131 96.3448C180.173 96.3208 180.23 96.3088 180.302 96.3088C180.35 96.3088 180.401 96.3178 180.455 96.3358C180.569 96.7318 180.626 97.1368 180.626 97.5508C180.626 97.7308 180.617 97.8568 180.599 97.9288C180.587 98.0008 180.554 98.0458 180.5 98.0638C180.452 98.0878 180.365 98.0968 180.239 98.0908C180.497 98.6848 180.626 99.1078 180.626 99.3598C180.626 99.6898 180.572 99.9238 180.464 100.062C180.362 100.2 180.188 100.269 179.942 100.269L179.096 100.269C179.012 100.269 178.952 100.221 178.916 100.125C178.85 99.8968 178.817 99.6538 178.817 99.3958C178.817 99.2938 178.868 99.2428 178.97 99.2428L179.717 99.2428C179.939 99.2428 180.05 99.1258 180.05 98.8918C180.05 98.7058 179.978 98.4388 179.834 98.0908L176.855 98.0908C176.525 98.0908 176.36 98.1238 176.36 98.1898L176.378 98.8108C176.336 98.8348 176.279 98.8468 176.207 98.8468C176.159 98.8468 176.108 98.8378 176.054 98.8198C175.94 98.4238 175.883 98.0188 175.883 97.6048C175.883 97.4248 175.892 97.2988 175.91 97.2268C175.922 97.1548 175.952 97.1068 176 97.0828C176.054 97.0648 176.144 97.0588 176.27 97.0648L179.654 97.0648ZM176.207 105.342C176.159 105.342 176.108 105.333 176.054 105.315C175.94 104.931 175.883 104.526 175.883 104.1C175.883 103.938 175.892 103.818 175.91 103.74C175.922 103.668 175.949 103.62 175.991 103.596C176.027 103.572 176.09 103.56 176.18 103.56C175.982 102.87 175.883 102.276 175.883 101.778C175.883 101.448 175.934 101.214 176.036 101.076C176.138 100.938 176.315 100.869 176.567 100.869L177.827 100.869C178.079 100.869 178.274 100.932 178.412 101.058C178.556 101.184 178.658 101.385 178.718 101.661C178.82 102.327 178.886 102.96 178.916 103.56L179.618 103.56C179.846 103.56 179.996 103.515 180.068 103.425C180.14 103.341 180.176 103.164 180.176 102.894C180.176 102.726 180.134 102.39 180.05 101.886C179.966 101.448 179.903 101.16 179.861 101.022C179.933 100.992 180.008 100.977 180.086 100.977C180.164 100.977 180.224 100.989 180.266 101.013C180.506 101.775 180.626 102.657 180.626 103.659C180.626 103.983 180.575 104.217 180.473 104.361C180.371 104.511 180.203 104.586 179.969 104.586L176.855 104.586C176.525 104.586 176.36 104.619 176.36 104.685L176.378 105.306C176.336 105.33 176.279 105.342 176.207 105.342ZM176.387 102.462C176.387 102.744 176.453 103.11 176.585 103.56L178.511 103.56C178.499 103.23 178.466 102.918 178.412 102.624C178.358 102.324 178.286 102.12 178.196 102.012C178.136 101.934 178.001 101.895 177.791 101.895L176.792 101.895C176.522 101.895 176.387 102.084 176.387 102.462ZM176.207 110.552C176.159 110.552 176.108 110.543 176.054 110.525C175.94 110.129 175.883 109.724 175.883 109.31C175.883 109.13 175.892 109.004 175.91 108.932C175.922 108.86 175.952 108.812 176 108.788C176.054 108.77 176.144 108.764 176.27 108.77L176.18 108.437C176.12 108.227 176.063 108.014 176.009 107.798C175.967 107.624 175.931 107.417 175.901 107.177C175.889 107.033 175.883 106.931 175.883 106.871C175.883 106.541 175.934 106.307 176.036 106.169C176.144 106.031 176.321 105.962 176.567 105.962L179.573 105.962C180.047 105.962 180.332 106.226 180.428 106.754C180.536 107.324 180.602 107.996 180.626 108.77L181.445 108.77C181.775 108.77 181.94 108.737 181.94 108.671L181.922 108.05C181.964 108.026 182.021 108.014 182.093 108.014C182.141 108.014 182.192 108.023 182.246 108.041C182.36 108.437 182.417 108.842 182.417 109.256C182.417 109.436 182.408 109.562 182.39 109.634C182.378 109.706 182.345 109.751 182.291 109.769C182.243 109.793 182.156 109.802 182.03 109.796L176.855 109.796C176.537 109.796 176.378 109.826 176.378 109.886L176.378 110.516C176.336 110.54 176.279 110.552 176.207 110.552ZM176.423 107.492C176.423 107.75 176.507 108.176 176.675 108.77L180.212 108.77C180.182 108.218 180.143 107.825 180.095 107.591C180.047 107.351 179.987 107.189 179.915 107.105C179.843 107.027 179.726 106.988 179.564 106.988L176.792 106.988C176.546 106.988 176.423 107.156 176.423 107.492ZM180.248 114.891C180.11 114.963 179.912 114.999 179.654 114.999L176.891 114.999C176.531 114.999 176.273 114.792 176.117 114.378C175.967 113.964 175.892 113.295 175.892 112.371C175.892 112.065 175.922 111.828 175.982 111.66C176.042 111.492 176.141 111.369 176.279 111.291C176.417 111.219 176.615 111.183 176.873 111.183L179.627 111.183C179.999 111.183 180.26 111.393 180.41 111.813C180.554 112.239 180.626 112.911 180.626 113.829C180.626 114.135 180.596 114.369 180.536 114.531C180.482 114.699 180.386 114.819 180.248 114.891ZM176.432 113.757C176.528 113.907 176.693 113.979 176.927 113.973L179.546 113.973C179.816 113.973 179.999 113.934 180.095 113.856C180.197 113.784 180.248 113.649 180.248 113.451C180.248 112.929 180.2 112.593 180.104 112.443C180.002 112.281 179.831 112.203 179.591 112.209L176.972 112.209C176.702 112.209 176.519 112.245 176.423 112.317C176.327 112.389 176.279 112.533 176.279 112.749C176.291 113.277 176.342 113.613 176.432 113.757Z" fill="#9CFCBC"/>
</g>
</g>
</g>
<g clip-path="url(#clip4_135_4616)">
<rect x="27.25" y="113" width="64" height="64" fill="black" fill-opacity="0.5"/>
</g>
<rect x="27.55" y="113.3" width="63.4" height="63.4" stroke="#66FF99" stroke-opacity="0.7" stroke-width="0.6" stroke-dasharray="0.66 0.66"/>
<g clip-path="url(#clip5_135_4616)">
<rect x="97.75" y="113" width="64" height="64" fill="black" fill-opacity="0.5"/>
<path d="M101.36 149.286L105.75 149.286L105.75 149.718L101.36 149.718L101.36 150.863L100.949 150.863L100.949 148.141L101.36 148.141L101.36 149.286ZM104.809 145.573C104.948 145.573 105.078 145.599 105.201 145.653C105.324 145.704 105.431 145.776 105.522 145.867C105.614 145.959 105.686 146.066 105.74 146.189C105.791 146.311 105.817 146.442 105.817 146.58L105.817 146.855C105.817 146.993 105.791 147.124 105.74 147.247C105.686 147.369 105.614 147.477 105.522 147.568C105.431 147.66 105.324 147.732 105.201 147.786C105.078 147.837 104.948 147.863 104.809 147.863L103.262 147.863C103.124 147.863 102.993 147.837 102.871 147.786C102.748 147.732 102.641 147.66 102.549 147.568C102.458 147.477 102.386 147.369 102.335 147.247C102.281 147.124 102.254 146.993 102.254 146.855L102.254 146.58C102.254 146.442 102.281 146.311 102.335 146.189C102.386 146.066 102.458 145.959 102.549 145.867C102.641 145.776 102.748 145.704 102.871 145.653C102.993 145.599 103.124 145.573 103.262 145.573L104.069 145.573L104.069 147.451L104.833 147.451C104.915 147.451 104.993 147.435 105.067 147.404C105.138 147.373 105.201 147.33 105.254 147.277C105.308 147.223 105.35 147.161 105.382 147.089C105.413 147.016 105.429 146.938 105.429 146.855L105.429 146.58C105.429 146.498 105.413 146.421 105.382 146.349C105.35 146.276 105.308 146.212 105.254 146.158C105.201 146.105 105.138 146.063 105.067 146.031C104.993 146 104.915 145.984 104.833 145.984L104.605 145.984L104.672 145.573L104.809 145.573ZM103.239 145.984C103.156 145.984 103.079 146 103.008 146.031C102.934 146.063 102.871 146.105 102.817 146.158C102.763 146.212 102.721 146.276 102.69 146.349C102.658 146.421 102.643 146.498 102.643 146.58L102.643 146.855C102.643 146.938 102.658 147.016 102.69 147.089C102.721 147.161 102.763 147.223 102.817 147.277C102.871 147.33 102.934 147.373 103.008 147.404C103.079 147.435 103.156 147.451 103.239 147.451L103.748 147.451L103.748 145.984L103.239 145.984ZM105.75 142.974L104.434 143.708L105.75 144.441L105.75 144.886L104.036 143.925L102.321 144.886L102.321 144.441L103.637 143.708L102.321 142.974L102.321 142.529L104.036 143.487L105.75 142.529L105.75 142.974ZM105.75 140.594C105.75 140.719 105.727 140.837 105.68 140.949C105.633 141.058 105.568 141.154 105.485 141.237C105.403 141.317 105.307 141.382 105.198 141.431C105.088 141.478 104.971 141.501 104.846 141.501L102.713 141.501L102.713 142.117L102.321 142.117L102.321 141.501L101.498 141.501L101.431 141.089L102.321 141.089L102.321 140.219L102.713 140.219L102.713 141.089L104.866 141.089C104.935 141.089 105 141.077 105.06 141.052C105.118 141.026 105.17 140.99 105.214 140.945C105.259 140.901 105.295 140.848 105.321 140.788C105.346 140.728 105.358 140.663 105.358 140.594L105.358 140.219L105.75 140.219L105.75 140.594Z" fill="#CCFFDC"/>
<path d="M127.001 119.821C127.001 119.984 126.97 120.137 126.907 120.28C126.847 120.423 126.763 120.548 126.656 120.655C126.549 120.762 126.423 120.847 126.278 120.91C126.135 120.97 125.982 121 125.819 121L124.299 121L124.299 116.199L125.819 116.199C125.982 116.199 126.135 116.23 126.278 116.292C126.423 116.353 126.549 116.436 126.656 116.544C126.763 116.651 126.847 116.777 126.907 116.922C126.97 117.065 127.001 117.218 127.001 117.381L127.001 119.821ZM126.569 117.381C126.569 117.273 126.549 117.174 126.509 117.083C126.469 116.989 126.413 116.907 126.342 116.838C126.272 116.767 126.191 116.711 126.097 116.671C126.006 116.631 125.906 116.61 125.799 116.61L124.731 116.61L124.731 120.588L125.799 120.588C125.906 120.588 126.006 120.568 126.097 120.528C126.191 120.488 126.272 120.433 126.342 120.364C126.413 120.295 126.469 120.214 126.509 120.123C126.549 120.029 126.569 119.929 126.569 119.821L126.569 117.381ZM130.182 120.059C130.182 120.198 130.155 120.328 130.102 120.451C130.05 120.574 129.979 120.681 129.887 120.772C129.796 120.864 129.689 120.936 129.566 120.99C129.443 121.041 129.313 121.067 129.174 121.067L128.9 121.067C128.761 121.067 128.631 121.041 128.508 120.99C128.385 120.936 128.278 120.864 128.186 120.772C128.095 120.681 128.022 120.574 127.969 120.451C127.917 120.328 127.892 120.198 127.892 120.059L127.892 118.512C127.892 118.374 127.917 118.243 127.969 118.121C128.022 117.998 128.095 117.891 128.186 117.799C128.278 117.708 128.385 117.636 128.508 117.585C128.631 117.531 128.761 117.504 128.9 117.504L129.174 117.504C129.313 117.504 129.443 117.531 129.566 117.585C129.689 117.636 129.796 117.708 129.887 117.799C129.979 117.891 130.05 117.998 130.102 118.121C130.155 118.243 130.182 118.374 130.182 118.512L130.182 120.059ZM129.77 118.489C129.77 118.406 129.754 118.329 129.723 118.258C129.692 118.184 129.65 118.121 129.596 118.067C129.542 118.013 129.479 117.971 129.405 117.94C129.334 117.908 129.257 117.893 129.174 117.893L128.9 117.893C128.817 117.893 128.739 117.908 128.665 117.94C128.594 117.971 128.531 118.013 128.478 118.067C128.424 118.121 128.382 118.184 128.35 118.258C128.319 118.329 128.304 118.406 128.304 118.489L128.304 120.083C128.304 120.165 128.319 120.243 128.35 120.317C128.382 120.388 128.424 120.451 128.478 120.504C128.531 120.558 128.594 120.6 128.665 120.632C128.739 120.663 128.817 120.679 128.9 120.679L129.174 120.679C129.257 120.679 129.334 120.663 129.405 120.632C129.479 120.6 129.542 120.558 129.596 120.504C129.65 120.451 129.692 120.388 129.723 120.317C129.754 120.243 129.77 120.165 129.77 120.083L129.77 118.489ZM133.296 120.059C133.296 120.198 133.269 120.328 133.215 120.451C133.164 120.574 133.093 120.681 133.001 120.772C132.91 120.864 132.802 120.936 132.68 120.99C132.557 121.041 132.426 121.067 132.288 121.067L132.013 121.067C131.875 121.067 131.744 121.041 131.622 120.99C131.499 120.936 131.392 120.864 131.3 120.772C131.209 120.681 131.136 120.574 131.083 120.451C131.031 120.328 131.006 120.198 131.006 120.059L131.006 118.512C131.006 118.374 131.031 118.243 131.083 118.121C131.136 117.998 131.209 117.891 131.3 117.799C131.392 117.708 131.499 117.636 131.622 117.585C131.744 117.531 131.875 117.504 132.013 117.504L132.288 117.504C132.426 117.504 132.557 117.531 132.68 117.585C132.802 117.636 132.91 117.708 133.001 117.799C133.093 117.891 133.164 117.998 133.215 118.121C133.269 118.243 133.296 118.374 133.296 118.512L133.296 120.059ZM132.884 118.489C132.884 118.406 132.868 118.329 132.837 118.258C132.806 118.184 132.763 118.121 132.71 118.067C132.656 118.013 132.593 117.971 132.519 117.94C132.448 117.908 132.371 117.893 132.288 117.893L132.013 117.893C131.931 117.893 131.853 117.908 131.779 117.94C131.708 117.971 131.645 118.013 131.592 118.067C131.538 118.121 131.496 118.184 131.464 118.258C131.433 118.329 131.417 118.406 131.417 118.489L131.417 120.083C131.417 120.165 131.433 120.243 131.464 120.317C131.496 120.388 131.538 120.451 131.592 120.504C131.645 120.558 131.708 120.6 131.779 120.632C131.853 120.663 131.931 120.679 132.013 120.679L132.288 120.679C132.371 120.679 132.448 120.663 132.519 120.632C132.593 120.6 132.656 120.558 132.71 120.504C132.763 120.451 132.806 120.388 132.837 120.317C132.868 120.243 132.884 120.165 132.884 120.083L132.884 118.489ZM135.127 117.963C135.045 117.963 134.967 117.979 134.893 118.01C134.821 118.041 134.759 118.084 134.705 118.137C134.652 118.191 134.609 118.254 134.578 118.328C134.547 118.4 134.531 118.477 134.531 118.559L134.531 121L134.119 121L134.119 117.571L134.257 117.571L134.481 117.92C134.575 117.792 134.692 117.692 134.833 117.618C134.975 117.542 135.131 117.504 135.298 117.504L135.539 117.504L135.539 117.963L135.127 117.963Z" fill="#CCFFDC"/>
<path d="M134.048 170.112C134.048 169.949 134.079 169.796 134.142 169.653C134.202 169.51 134.286 169.385 134.393 169.278C134.5 169.171 134.625 169.086 134.768 169.023C134.911 168.963 135.064 168.933 135.227 168.933L135.364 168.933C135.527 168.933 135.681 168.963 135.826 169.023C135.969 169.086 136.094 169.171 136.201 169.278C136.308 169.385 136.393 169.51 136.455 169.653C136.516 169.796 136.546 169.949 136.546 170.112L136.546 170.302L136.114 170.373L136.114 170.112C136.114 170.004 136.094 169.904 136.054 169.81C136.013 169.719 135.959 169.637 135.89 169.566C135.818 169.497 135.737 169.442 135.645 169.402C135.551 169.362 135.451 169.342 135.344 169.342L135.247 169.342C135.142 169.342 135.042 169.362 134.949 169.402C134.855 169.442 134.773 169.497 134.704 169.566C134.635 169.637 134.58 169.719 134.54 169.81C134.5 169.904 134.48 170.004 134.48 170.112L134.48 173.801L134.048 173.801L134.048 170.112ZM131.071 169L131.299 169.348C131.393 169.221 131.51 169.119 131.651 169.044C131.791 168.97 131.945 168.933 132.113 168.933L132.217 168.933C132.355 168.933 132.485 168.959 132.608 169.01C132.731 169.064 132.838 169.136 132.93 169.228C133.021 169.319 133.094 169.426 133.147 169.549C133.199 169.672 133.224 169.802 133.224 169.941L133.224 172.429L132.813 172.429L132.813 169.917C132.813 169.835 132.797 169.757 132.766 169.683C132.734 169.612 132.692 169.549 132.638 169.496C132.585 169.442 132.522 169.4 132.451 169.368C132.377 169.337 132.299 169.321 132.217 169.321L131.942 169.321C131.859 169.321 131.782 169.337 131.711 169.368C131.637 169.4 131.574 169.442 131.52 169.496C131.467 169.549 131.424 169.612 131.393 169.683C131.362 169.757 131.346 169.835 131.346 169.917L131.346 172.429L130.934 172.429L130.934 169L131.071 169ZM130.007 173.252L130.007 173.801L129.528 173.801L129.528 173.252L130.007 173.252ZM129.973 169L129.973 172.429L129.561 172.429L129.561 169L129.973 169ZM126.307 169.941C126.307 169.802 126.334 169.672 126.387 169.549C126.439 169.426 126.51 169.319 126.602 169.228C126.693 169.136 126.8 169.064 126.923 169.01C127.046 168.959 127.176 168.933 127.315 168.933L127.589 168.933C127.728 168.933 127.858 168.959 127.981 169.01C128.104 169.064 128.211 169.136 128.302 169.228C128.394 169.319 128.467 169.426 128.52 169.549C128.571 169.672 128.597 169.802 128.597 169.941L128.597 171.488C128.597 171.626 128.571 171.757 128.52 171.879C128.467 172.002 128.394 172.109 128.302 172.201C128.211 172.292 128.104 172.364 127.981 172.415C127.858 172.469 127.728 172.496 127.589 172.496L127.315 172.496C127.176 172.496 127.046 172.469 126.923 172.415C126.8 172.364 126.693 172.292 126.602 172.201C126.51 172.109 126.439 172.002 126.387 171.879C126.334 171.757 126.307 171.626 126.307 171.488L126.307 171.35L126.719 171.283L126.719 171.511C126.719 171.594 126.734 171.671 126.766 171.742C126.797 171.816 126.839 171.879 126.893 171.933C126.946 171.987 127.01 172.029 127.084 172.06C127.155 172.092 127.232 172.107 127.315 172.107L127.589 172.107C127.672 172.107 127.75 172.092 127.824 172.06C127.895 172.029 127.958 171.987 128.011 171.933C128.065 171.879 128.107 171.816 128.138 171.742C128.17 171.671 128.185 171.594 128.185 171.511L128.185 169.917C128.185 169.835 128.17 169.757 128.138 169.683C128.107 169.612 128.065 169.549 128.011 169.496C127.958 169.442 127.895 169.4 127.824 169.368C127.75 169.337 127.672 169.321 127.589 169.321L127.315 169.321C127.232 169.321 127.155 169.337 127.084 169.368C127.01 169.4 126.946 169.442 126.893 169.496C126.839 169.549 126.797 169.612 126.766 169.683C126.734 169.757 126.719 169.835 126.719 169.917L126.719 170.145L126.307 170.078L126.307 169.941ZM123.193 169.941C123.193 169.802 123.22 169.672 123.273 169.549C123.325 169.426 123.396 169.319 123.488 169.228C123.579 169.136 123.686 169.064 123.809 169.01C123.932 168.959 124.063 168.933 124.201 168.933L124.475 168.933C124.614 168.933 124.744 168.959 124.867 169.01C124.99 169.064 125.097 169.136 125.189 169.228C125.28 169.319 125.353 169.426 125.406 169.549C125.458 169.672 125.483 169.802 125.483 169.941L125.483 171.488C125.483 171.626 125.458 171.757 125.406 171.879C125.353 172.002 125.28 172.109 125.189 172.201C125.097 172.292 124.99 172.364 124.867 172.415C124.744 172.469 124.614 172.496 124.475 172.496L124.201 172.496C124.062 172.496 123.932 172.469 123.809 172.415C123.686 172.364 123.579 172.292 123.488 172.201C123.396 172.109 123.325 172.002 123.273 171.879C123.22 171.757 123.193 171.626 123.193 171.488L123.193 170.681L125.071 170.681L125.071 169.917C125.071 169.835 125.056 169.757 125.025 169.683C124.993 169.612 124.951 169.549 124.897 169.496C124.844 169.442 124.781 169.4 124.71 169.368C124.636 169.337 124.558 169.321 124.475 169.321L124.201 169.321C124.118 169.321 124.041 169.337 123.97 169.368C123.896 169.4 123.833 169.442 123.779 169.496C123.725 169.549 123.683 169.612 123.652 169.683C123.621 169.757 123.605 169.835 123.605 169.917L123.605 170.145L123.193 170.078L123.193 169.941ZM123.605 171.511C123.605 171.594 123.621 171.671 123.652 171.742C123.683 171.816 123.725 171.879 123.779 171.933C123.833 171.987 123.896 172.029 123.97 172.06C124.041 172.092 124.118 172.107 124.201 172.107L124.475 172.107C124.558 172.107 124.636 172.092 124.71 172.06C124.781 172.029 124.844 171.987 124.897 171.933C124.951 171.879 124.993 171.816 125.025 171.742C125.056 171.671 125.071 171.594 125.071 171.511L125.071 171.002L123.605 171.002L123.605 171.511Z" fill="#CCFFDC"/>
<path d="M156.773 137.751C156.61 137.751 156.458 137.72 156.315 137.657C156.172 137.597 156.047 137.513 155.94 137.406C155.833 137.299 155.748 137.173 155.685 137.028C155.625 136.885 155.595 136.732 155.595 136.569V135.481H153.75V135.049H158.551V136.569C158.551 136.732 158.52 136.885 158.458 137.028C158.397 137.173 158.314 137.299 158.206 137.406C158.099 137.513 157.973 137.597 157.828 137.657C157.685 137.72 157.532 137.751 157.369 137.751H156.773ZM157.369 137.319C157.477 137.319 157.576 137.299 157.667 137.259C157.761 137.219 157.843 137.163 157.912 137.092C157.983 137.022 158.039 136.941 158.079 136.847C158.119 136.756 158.14 136.656 158.14 136.549V135.481H156.007V136.549C156.007 136.656 156.027 136.756 156.067 136.847C156.107 136.941 156.162 137.022 156.231 137.092C156.3 137.163 156.381 137.219 156.472 137.259C156.566 137.299 156.666 137.319 156.773 137.319H157.369ZM156.787 139.449C156.787 139.366 156.771 139.288 156.74 139.214C156.709 139.143 156.666 139.08 156.613 139.027C156.559 138.973 156.496 138.931 156.422 138.9C156.35 138.868 156.273 138.853 156.191 138.853H153.75V138.441H157.179V138.578L156.83 138.802C156.958 138.896 157.058 139.013 157.132 139.154C157.208 139.297 157.246 139.452 157.246 139.619V139.86H156.787V139.449ZM154.691 142.7C154.552 142.7 154.422 142.673 154.299 142.619C154.176 142.568 154.069 142.497 153.978 142.405C153.886 142.314 153.814 142.206 153.76 142.084C153.709 141.961 153.683 141.83 153.683 141.692V141.417C153.683 141.279 153.709 141.148 153.76 141.026C153.814 140.903 153.886 140.796 153.978 140.704C154.069 140.613 154.176 140.54 154.299 140.487C154.422 140.435 154.552 140.41 154.691 140.41H156.238C156.376 140.41 156.507 140.435 156.629 140.487C156.752 140.54 156.859 140.613 156.951 140.704C157.042 140.796 157.114 140.903 157.165 141.026C157.219 141.148 157.246 141.279 157.246 141.417V141.692C157.246 141.83 157.219 141.961 157.165 142.084C157.114 142.206 157.042 142.314 156.951 142.405C156.859 142.497 156.752 142.568 156.629 142.619C156.507 142.673 156.376 142.7 156.238 142.7H155.431V140.821H154.667C154.585 140.821 154.507 140.837 154.433 140.868C154.362 140.9 154.299 140.942 154.246 140.996C154.192 141.049 154.15 141.112 154.118 141.183C154.087 141.257 154.071 141.335 154.071 141.417V141.692C154.071 141.775 154.087 141.852 154.118 141.923C154.15 141.997 154.192 142.06 154.246 142.114C154.299 142.167 154.362 142.21 154.433 142.241C154.507 142.272 154.585 142.288 154.667 142.288H154.895L154.828 142.7H154.691ZM156.261 142.288C156.344 142.288 156.421 142.272 156.492 142.241C156.566 142.21 156.629 142.167 156.683 142.114C156.737 142.06 156.779 141.997 156.81 141.923C156.842 141.852 156.857 141.775 156.857 141.692V141.417C156.857 141.335 156.842 141.257 156.81 141.183C156.779 141.112 156.737 141.049 156.683 140.996C156.629 140.942 156.566 140.9 156.492 140.868C156.421 140.837 156.344 140.821 156.261 140.821H155.752V142.288H156.261ZM154.621 145.881C154.482 145.881 154.355 145.853 154.239 145.797C154.125 145.741 154.027 145.665 153.944 145.569C153.862 145.473 153.797 145.362 153.75 145.234C153.705 145.109 153.683 144.978 153.683 144.839V144.565C153.683 144.426 153.709 144.294 153.76 144.166C153.814 144.041 153.886 143.931 153.978 143.835C154.069 143.741 154.176 143.665 154.299 143.607C154.422 143.551 154.552 143.523 154.691 143.523H154.828L154.895 143.935H154.667C154.585 143.935 154.507 143.952 154.433 143.985C154.362 144.021 154.299 144.068 154.246 144.126C154.192 144.184 154.15 144.251 154.118 144.327C154.087 144.403 154.071 144.482 154.071 144.565V144.839C154.071 144.922 154.084 145.001 154.108 145.077C154.133 145.153 154.167 145.22 154.212 145.278C154.259 145.338 154.315 145.385 154.379 145.419C154.444 145.454 154.518 145.472 154.6 145.472C154.723 145.472 154.824 145.445 154.902 145.392C154.98 145.338 155.045 145.267 155.096 145.177C155.15 145.09 155.193 144.99 155.227 144.876C155.262 144.765 155.297 144.65 155.33 144.531C155.366 144.413 155.406 144.297 155.451 144.183C155.496 144.071 155.554 143.971 155.625 143.882C155.699 143.795 155.79 143.724 155.9 143.671C156.009 143.617 156.145 143.59 156.308 143.59C156.446 143.59 156.573 143.617 156.686 143.671C156.802 143.724 156.902 143.797 156.984 143.888C157.067 143.98 157.131 144.086 157.175 144.206C157.222 144.329 157.246 144.46 157.246 144.598V144.839C157.246 144.978 157.219 145.108 157.165 145.231C157.114 145.354 157.042 145.461 156.951 145.552C156.859 145.644 156.752 145.715 156.629 145.767C156.507 145.82 156.376 145.847 156.238 145.847H156.224L156.157 145.435H156.261C156.344 145.435 156.421 145.42 156.492 145.388C156.566 145.357 156.629 145.315 156.683 145.261C156.737 145.208 156.779 145.144 156.81 145.07C156.842 144.999 156.857 144.922 156.857 144.839V144.598C156.857 144.516 156.845 144.438 156.82 144.364C156.796 144.292 156.76 144.23 156.713 144.176C156.669 144.123 156.614 144.08 156.549 144.049C156.484 144.018 156.411 144.002 156.328 144.002C156.21 144.002 156.113 144.029 156.037 144.083C155.963 144.136 155.901 144.206 155.849 144.294C155.798 144.383 155.754 144.483 155.719 144.595C155.685 144.709 155.65 144.824 155.612 144.94C155.576 145.058 155.535 145.173 155.488 145.285C155.441 145.398 155.381 145.499 155.307 145.586C155.233 145.675 155.141 145.747 155.029 145.8C154.92 145.854 154.783 145.881 154.621 145.881ZM154.691 148.961C154.552 148.961 154.422 148.934 154.299 148.881C154.176 148.829 154.069 148.758 153.978 148.666C153.886 148.575 153.814 148.468 153.76 148.345C153.709 148.222 153.683 148.092 153.683 147.953V147.679C153.683 147.54 153.709 147.41 153.76 147.287C153.814 147.164 153.886 147.057 153.978 146.965C154.069 146.874 154.176 146.801 154.299 146.748C154.422 146.696 154.552 146.671 154.691 146.671H156.238C156.376 146.671 156.507 146.696 156.629 146.748C156.752 146.801 156.859 146.874 156.951 146.965C157.042 147.057 157.114 147.164 157.165 147.287C157.219 147.41 157.246 147.54 157.246 147.679V147.953C157.246 148.092 157.219 148.222 157.165 148.345C157.114 148.468 157.042 148.575 156.951 148.666C156.859 148.758 156.752 148.829 156.629 148.881C156.507 148.934 156.376 148.961 156.238 148.961H155.431V147.083H154.667C154.585 147.083 154.507 147.098 154.433 147.129C154.362 147.161 154.299 147.203 154.246 147.257C154.192 147.31 154.15 147.373 154.118 147.444C154.087 147.518 154.071 147.596 154.071 147.679V147.953C154.071 148.036 154.087 148.113 154.118 148.184C154.15 148.258 154.192 148.321 154.246 148.375C154.299 148.429 154.362 148.471 154.433 148.502C154.507 148.533 154.585 148.549 154.667 148.549H154.895L154.828 148.961H154.691ZM156.261 148.549C156.344 148.549 156.421 148.533 156.492 148.502C156.566 148.471 156.629 148.429 156.683 148.375C156.737 148.321 156.779 148.258 156.81 148.184C156.842 148.113 156.857 148.036 156.857 147.953V147.679C156.857 147.596 156.842 147.518 156.81 147.444C156.779 147.373 156.737 147.31 156.683 147.257C156.629 147.203 156.566 147.161 156.492 147.129C156.421 147.098 156.344 147.083 156.261 147.083H155.752V148.549H156.261ZM153.75 151.663H156.261C156.344 151.663 156.421 151.647 156.492 151.616C156.566 151.585 156.629 151.542 156.683 151.489C156.737 151.435 156.779 151.372 156.81 151.298C156.842 151.227 156.857 151.15 156.857 151.067V150.792C156.857 150.71 156.842 150.632 156.81 150.558C156.779 150.487 156.737 150.424 156.683 150.371C156.629 150.317 156.566 150.275 156.492 150.243C156.421 150.212 156.344 150.196 156.261 150.196H153.75V149.785H157.179V149.922L156.83 150.146C156.958 150.24 157.058 150.357 157.132 150.498C157.208 150.641 157.246 150.796 157.246 150.963V151.067C157.246 151.205 157.219 151.336 157.165 151.459C157.114 151.581 157.042 151.689 156.951 151.78C156.859 151.872 156.752 151.943 156.629 151.994C156.507 152.048 156.376 152.075 156.238 152.075H153.75V151.663ZM153.75 154.147C153.75 154.022 153.773 153.904 153.82 153.792C153.867 153.683 153.932 153.587 154.015 153.504C154.097 153.424 154.193 153.359 154.302 153.31C154.412 153.263 154.529 153.24 154.654 153.24H156.787V152.624H157.179V153.24H158.002L158.069 153.652H157.179V154.522H156.787V153.652H154.634C154.565 153.652 154.5 153.664 154.44 153.689C154.382 153.715 154.33 153.751 154.286 153.796C154.241 153.84 154.205 153.893 154.179 153.953C154.154 154.013 154.142 154.078 154.142 154.147V154.522H153.75V154.147Z" fill="#CCFFDC"/>
</g>
<rect x="98.05" y="113.3" width="63.4" height="63.4" stroke="#4EBD7B" stroke-width="0.6"/>
<rect y="58.7903" width="189" height="40.2097" fill="url(#paint8_linear_135_4616)"/>
<path d="M129.795 144.588C129.975 144.797 129.951 145.113 129.741 145.293C129.532 145.473 129.216 145.449 129.036 145.239L129.795 144.588ZM59.6107 64.2287C59.6315 63.9534 59.8716 63.747 60.1469 63.7679L64.6341 64.1072C64.9095 64.1281 65.1158 64.3682 65.095 64.6435C65.0742 64.9189 64.8341 65.1252 64.5587 65.1044L60.5701 64.8027L60.2684 68.7913C60.2476 69.0667 60.0075 69.273 59.7322 69.2522C59.4568 69.2314 59.2505 68.9913 59.2713 68.7159L59.6107 64.2287ZM128.376 144.471C128.196 144.262 128.22 143.946 128.43 143.766C128.639 143.586 128.955 143.61 129.135 143.82L128.376 144.471ZM127.154 141.515C127.334 141.725 127.311 142.04 127.101 142.22C126.892 142.4 126.576 142.377 126.396 142.167L127.154 141.515ZM125.076 140.631C124.896 140.422 124.92 140.106 125.129 139.926C125.339 139.746 125.654 139.77 125.834 139.979L125.076 140.631ZM123.854 137.675C124.034 137.884 124.01 138.2 123.801 138.38C123.591 138.56 123.276 138.536 123.096 138.327L123.854 137.675ZM121.776 136.791C121.596 136.581 121.62 136.266 121.829 136.086C122.038 135.906 122.354 135.929 122.534 136.139L121.776 136.791ZM120.554 133.835C120.734 134.044 120.71 134.36 120.501 134.54C120.291 134.72 119.975 134.696 119.795 134.486L120.554 133.835ZM118.475 132.95C118.295 132.741 118.319 132.425 118.529 132.245C118.738 132.065 119.054 132.089 119.234 132.299L118.475 132.95ZM117.254 129.994C117.434 130.204 117.41 130.519 117.2 130.699C116.991 130.879 116.675 130.856 116.495 130.646L117.254 129.994ZM115.175 129.11C114.995 128.901 115.019 128.585 115.228 128.405C115.438 128.225 115.753 128.249 115.933 128.458L115.175 129.11ZM113.953 126.154C114.133 126.363 114.109 126.679 113.9 126.859C113.691 127.039 113.375 127.015 113.195 126.806L113.953 126.154ZM111.875 125.27C111.695 125.06 111.719 124.745 111.928 124.565C112.138 124.385 112.453 124.408 112.633 124.618L111.875 125.27ZM110.653 122.314C110.833 122.523 110.809 122.839 110.6 123.019C110.39 123.199 110.075 123.175 109.895 122.965L110.653 122.314ZM108.574 121.429C108.394 121.22 108.418 120.904 108.628 120.724C108.837 120.544 109.153 120.568 109.333 120.778L108.574 121.429ZM107.353 118.473C107.533 118.683 107.509 118.998 107.299 119.178C107.09 119.358 106.774 119.335 106.594 119.125L107.353 118.473ZM105.274 117.589C105.094 117.38 105.118 117.064 105.327 116.884C105.537 116.704 105.853 116.728 106.033 116.937L105.274 117.589ZM104.052 114.633C104.232 114.842 104.209 115.158 103.999 115.338C103.79 115.518 103.474 115.494 103.294 115.285L104.052 114.633ZM101.974 113.749C101.794 113.539 101.818 113.224 102.027 113.044C102.237 112.864 102.552 112.887 102.732 113.097L101.974 113.749ZM100.752 110.793C100.932 111.002 100.908 111.318 100.699 111.498C100.489 111.678 100.174 111.654 99.9937 111.444L100.752 110.793ZM98.6736 109.908C98.4936 109.699 98.5175 109.383 98.7269 109.203C98.9363 109.023 99.252 109.047 99.432 109.257L98.6736 109.908ZM97.4518 106.952C97.6318 107.162 97.6079 107.477 97.3985 107.657C97.189 107.837 96.8734 107.814 96.6934 107.604L97.4518 106.952ZM95.3733 106.068C95.1933 105.859 95.2172 105.543 95.4266 105.363C95.636 105.183 95.9517 105.207 96.1317 105.416L95.3733 106.068ZM94.1515 103.112C94.3315 103.321 94.3076 103.637 94.0982 103.817C93.8887 103.997 93.5731 103.973 93.3931 103.764L94.1515 103.112ZM92.073 102.228C91.893 102.018 91.9169 101.703 92.1263 101.523C92.3357 101.343 92.6514 101.366 92.8314 101.576L92.073 102.228ZM90.8512 99.2717C91.0312 99.4811 91.0073 99.7968 90.7979 99.9768C90.5884 100.157 90.2728 100.133 90.0928 99.9234L90.8512 99.2717ZM88.7727 98.3873C88.5927 98.1779 88.6166 97.8622 88.826 97.6822C89.0354 97.5022 89.3511 97.5261 89.5311 97.7355L88.7727 98.3873ZM87.5509 95.4313C87.7309 95.6408 87.707 95.9565 87.4976 96.1364C87.2881 96.3164 86.9725 96.2925 86.7925 96.0831L87.5509 95.4313ZM85.4724 94.547C85.2924 94.3375 85.3163 94.0219 85.5257 93.8419C85.7351 93.6619 86.0508 93.6858 86.2308 93.8952L85.4724 94.547ZM84.2506 91.591C84.4306 91.8004 84.4067 92.1161 84.1973 92.2961C83.9878 92.4761 83.6722 92.4522 83.4922 92.2428L84.2506 91.591ZM82.1721 90.7066C81.9921 90.4972 82.016 90.1815 82.2254 90.0015C82.4348 89.8216 82.7505 89.8454 82.9305 90.0549L82.1721 90.7066ZM80.9503 87.7507C81.1303 87.9601 81.1064 88.2758 80.897 88.4558C80.6875 88.6357 80.3719 88.6119 80.1919 88.4024L80.9503 87.7507ZM78.8718 86.8663C78.6918 86.6569 78.7157 86.3412 78.9251 86.1612C79.1345 85.9812 79.4502 86.0051 79.6302 86.2145L78.8718 86.8663ZM77.65 83.9103C77.83 84.1198 77.8061 84.4354 77.5967 84.6154C77.3872 84.7954 77.0716 84.7715 76.8916 84.5621L77.65 83.9103ZM75.5715 83.026C75.3915 82.8165 75.4154 82.5008 75.6248 82.3209C75.8342 82.1409 76.1499 82.1648 76.3299 82.3742L75.5715 83.026ZM74.3497 80.07C74.5297 80.2794 74.5058 80.5951 74.2964 80.7751C74.0869 80.9551 73.7713 80.9312 73.5913 80.7217L74.3497 80.07ZM72.2712 79.1856C72.0912 78.9762 72.1151 78.6605 72.3245 78.4805C72.5339 78.3005 72.8496 78.3244 73.0296 78.5339L72.2712 79.1856ZM71.0494 76.2296C71.2294 76.4391 71.2055 76.7548 70.9961 76.9347C70.7866 77.1147 70.471 77.0908 70.291 76.8814L71.0494 76.2296ZM68.9709 75.3453C68.7909 75.1358 68.8148 74.8202 69.0242 74.6402C69.2336 74.4602 69.5493 74.4841 69.7293 74.6935L68.9709 75.3453ZM67.7491 72.3893C67.9291 72.5987 67.9052 72.9144 67.6958 73.0944C67.4863 73.2744 67.1707 73.2505 66.9907 73.0411L67.7491 72.3893ZM65.6706 71.5049C65.4906 71.2955 65.5145 70.9798 65.7239 70.7998C65.9333 70.6199 66.249 70.6437 66.429 70.8532L65.6706 71.5049ZM64.4488 68.549C64.6288 68.7584 64.6049 69.0741 64.3955 69.2541C64.186 69.434 63.8704 69.4102 63.6904 69.2007L64.4488 68.549ZM62.3703 67.6646C62.1903 67.4552 62.2142 67.1395 62.4236 66.9595C62.633 66.7795 62.9487 66.8034 63.1287 67.0128L62.3703 67.6646ZM61.1485 64.7086C61.3285 64.9181 61.3046 65.2337 61.0952 65.4137C60.8857 65.5937 60.5701 65.5698 60.3901 65.3604L61.1485 64.7086ZM129.036 145.239L128.376 144.471L129.135 143.82L129.795 144.588L129.036 145.239ZM126.396 142.167L125.076 140.631L125.834 139.979L127.154 141.515L126.396 142.167ZM123.096 138.327L121.776 136.791L122.534 136.139L123.854 137.675L123.096 138.327ZM119.795 134.486L118.475 132.95L119.234 132.299L120.554 133.835L119.795 134.486ZM116.495 130.646L115.175 129.11L115.933 128.458L117.254 129.994L116.495 130.646ZM113.195 126.806L111.875 125.27L112.633 124.618L113.953 126.154L113.195 126.806ZM109.895 122.965L108.574 121.429L109.333 120.778L110.653 122.314L109.895 122.965ZM106.594 119.125L105.274 117.589L106.033 116.937L107.353 118.473L106.594 119.125ZM103.294 115.285L101.974 113.749L102.732 113.097L104.052 114.633L103.294 115.285ZM99.9937 111.444L98.6736 109.908L99.432 109.257L100.752 110.793L99.9937 111.444ZM96.6934 107.604L95.3733 106.068L96.1317 105.416L97.4518 106.952L96.6934 107.604ZM93.3931 103.764L92.073 102.228L92.8314 101.576L94.1515 103.112L93.3931 103.764ZM90.0928 99.9234L88.7727 98.3873L89.5311 97.7355L90.8512 99.2717L90.0928 99.9234ZM86.7925 96.0831L85.4724 94.547L86.2308 93.8952L87.5509 95.4313L86.7925 96.0831ZM83.4922 92.2428L82.1721 90.7066L82.9305 90.0549L84.2506 91.591L83.4922 92.2428ZM80.1919 88.4024L78.8718 86.8663L79.6302 86.2145L80.9503 87.7507L80.1919 88.4024ZM76.8916 84.5621L75.5715 83.026L76.3299 82.3742L77.65 83.9103L76.8916 84.5621ZM73.5913 80.7217L72.2712 79.1856L73.0296 78.5339L74.3497 80.07L73.5913 80.7217ZM70.291 76.8814L68.9709 75.3453L69.7293 74.6935L71.0494 76.2296L70.291 76.8814ZM66.9907 73.0411L65.6706 71.5049L66.429 70.8532L67.7491 72.3893L66.9907 73.0411ZM63.6904 69.2007L62.3703 67.6646L63.1287 67.0128L64.4488 68.549L63.6904 69.2007ZM60.3901 65.3604L59.73 64.5923L60.4884 63.9406L61.1485 64.7086L60.3901 65.3604Z" fill="url(#paint9_linear_135_4616)"/>
</g>
<defs>
<radialGradient id="paint0_radial_135_4616" cx="0" cy="0" r="1" gradientUnits="userSpaceOnUse" gradientTransform="translate(94.5 99.5) rotate(-90) scale(94.5 94.5)">
<stop stop-opacity="0"/>
<stop offset="1"/>
</radialGradient>
<linearGradient id="paint1_linear_135_4616" x1="94.5" y1="5.00001" x2="94.5" y2="30" gradientUnits="userSpaceOnUse">
<stop stop-opacity="0.61"/>
<stop offset="1" stop-opacity="0.89"/>
</linearGradient>
<linearGradient id="paint2_linear_135_4616" x1="189" y1="99.5001" x2="164" y2="99.5001" gradientUnits="userSpaceOnUse">
<stop stop-opacity="0.61"/>
<stop offset="1" stop-opacity="0.89"/>
</linearGradient>
<linearGradient id="paint3_linear_135_4616" x1="3.03794e-06" y1="99.5" x2="25" y2="99.5" gradientUnits="userSpaceOnUse">
<stop stop-opacity="0.61"/>
<stop offset="1" stop-opacity="0.89"/>
</linearGradient>
<linearGradient id="paint4_linear_135_4616" x1="164" y1="30.0001" x2="96.5" y2="100" gradientUnits="userSpaceOnUse">
<stop stop-opacity="0.59"/>
<stop offset="1" stop-opacity="0.13"/>
</linearGradient>
<linearGradient id="paint5_linear_135_4616" x1="25" y1="30.0001" x2="95" y2="97.5001" gradientUnits="userSpaceOnUse">
<stop stop-opacity="0.59"/>
<stop offset="1" stop-opacity="0.13"/>
</linearGradient>
<linearGradient id="paint6_linear_135_4616" x1="7.86805e-07" y1="23" x2="36" y2="23" gradientUnits="userSpaceOnUse">
<stop stop-opacity="0.12"/>
<stop offset="1" stop-color="#0B0A0A"/>
</linearGradient>
<linearGradient id="paint7_linear_135_4616" x1="171" y1="5" x2="171" y2="41" gradientUnits="userSpaceOnUse">
<stop stop-opacity="0.12"/>
<stop offset="1" stop-color="#0B0A0A"/>
</linearGradient>
<linearGradient id="paint8_linear_135_4616" x1="94.5" y1="58.7903" x2="94.5" y2="99" gradientUnits="userSpaceOnUse">
<stop stop-color="#040B10" stop-opacity="0"/>
<stop offset="1" stop-color="#040B10"/>
</linearGradient>
<linearGradient id="paint9_linear_135_4616" x1="94.7624" y1="64.2664" x2="94.7624" y2="144.914" gradientUnits="userSpaceOnUse">
<stop stop-color="#FFD666"/>
<stop offset="1" stop-color="#FFD666" stop-opacity="0"/>
</linearGradient>
<clipPath id="clip0_135_4616">
<rect width="189" height="182" fill="white"/>
</clipPath>
<clipPath id="clip1_135_4616">
<rect width="189" height="94" fill="white" transform="matrix(-1 0 0 -1 189 99)"/>
</clipPath>
<clipPath id="clip2_135_4616">
<rect width="189" height="189" fill="white" transform="matrix(-1 0 0 -1 189 194)"/>
</clipPath>
<clipPath id="clip3_135_4616">
<rect width="64" height="64" fill="white" transform="matrix(-1 0 0 -1 161 97.0001)"/>
</clipPath>
<clipPath id="clip4_135_4616">
<rect x="27.25" y="113" width="64" height="64" fill="white"/>
</clipPath>
<clipPath id="clip5_135_4616">
<rect x="97.75" y="113" width="64" height="64" fill="white"/>
</clipPath>
</defs>
</svg>
