<svg width="189" height="182" viewBox="0 0 189 182" fill="none" xmlns="http://www.w3.org/2000/svg">
<g clip-path="url(#clip0_209_3187)">
<g clip-path="url(#clip1_209_3187)">
<g clip-path="url(#clip2_209_3187)">
<path d="M153 193.999L36.0014 194L0.0022583 157.969L0 157.968L0.00106812 40.8639L36.0009 4.83124L153 4.83133L188.999 40.8635L189 157.968L153 193.999Z" fill="#FF66A6" fill-opacity="0.8"/>
<g clip-path="url(#clip3_209_3187)">
<path fill-rule="evenodd" clip-rule="evenodd" d="M36 4.99988L94.5 99.4999L0 40.9999L5.11423e-06 158L94.5 99.4999L36 194L153 194L94.5 99.4999L189 158V40.9999L94.5 99.4999L153 4.99988H36Z" fill="url(#paint0_radial_209_3187)" fill-opacity="0.05"/>
<path d="M36 4.99988H153L164 29.9998H25L36 4.99988Z" fill="url(#paint1_linear_209_3187)" fill-opacity="0.51"/>
<path d="M-4.80825e-07 158L-5.59506e-06 40.9999L25 29.9999L25 169L-4.80825e-07 158Z" fill="url(#paint2_linear_209_3187)" fill-opacity="0.51"/>
<path d="M189 40.9999L189 158L164 169L164 29.9999L189 40.9999Z" fill="url(#paint3_linear_209_3187)" fill-opacity="0.51"/>
<path fill-rule="evenodd" clip-rule="evenodd" d="M25 29.9999H164V169H25L25 29.9999ZM25 29.9999L13 48.9999L13 150L25 169L44 181L145 181L164 169L176 150V48.9999L164 29.9999L145 17.9999L44 17.9999L25 29.9999Z" fill="white" fill-opacity="0.05"/>
<path d="M25.0005 29.9999L25.0005 99.4999H94.5005V29.9999L25.0005 29.9999Z" fill="url(#paint4_linear_209_3187)"/>
<path d="M164 99.4999L164 29.9999L94.5 29.9999L94.5 99.4999L164 99.4999Z" fill="url(#paint5_linear_209_3187)"/>
<path fill-rule="evenodd" clip-rule="evenodd" d="M95 29.9999H94V98.9999H25V99.9999H94V169H95V99.9999H164V98.9999H95V29.9999Z" fill="white" fill-opacity="0.1"/>
<path d="M189 40.9999L153 4.99988L164 29.9998L189 40.9999Z" fill="url(#paint6_linear_209_3187)" fill-opacity="0.33"/>
<path d="M36 5L0 41L25 30L36 5Z" fill="url(#paint7_linear_209_3187)" fill-opacity="0.33"/>
</g>
<g clip-path="url(#clip4_209_3187)">
<path d="M126.164 37.9766C126.164 38.1395 126.133 38.2924 126.07 38.4353C126.01 38.5781 125.926 38.7031 125.819 38.8103C125.712 38.9174 125.586 39.0022 125.441 39.0647C125.298 39.125 125.145 39.1551 124.982 39.1551L123.894 39.1551L123.894 41L123.462 41L123.462 36.1987L124.982 36.1987C125.145 36.1987 125.298 36.2299 125.441 36.2924C125.586 36.3527 125.712 36.4364 125.819 36.5435C125.926 36.6507 126.01 36.7768 126.07 36.9219C126.133 37.0647 126.164 37.2176 126.164 37.3806L126.164 37.9766ZM125.732 37.3806C125.732 37.2734 125.712 37.1741 125.672 37.0826C125.632 36.9888 125.576 36.9074 125.504 36.8382C125.435 36.7667 125.354 36.7109 125.26 36.6708C125.169 36.6306 125.069 36.6105 124.962 36.6105L123.894 36.6105L123.894 38.7433L124.962 38.7433C125.069 38.7433 125.169 38.7232 125.26 38.683C125.354 38.6429 125.435 38.5882 125.504 38.519C125.576 38.4498 125.632 38.3694 125.672 38.2779C125.712 38.1842 125.732 38.0837 125.732 37.9766L125.732 37.3806ZM129.007 41L128.779 40.6585C128.685 40.7813 128.568 40.8806 128.427 40.9565C128.287 41.0301 128.133 41.067 127.965 41.067L127.862 41.067C127.723 41.067 127.593 41.0413 127.47 40.99C127.347 40.9364 127.24 40.8638 127.148 40.7723C127.057 40.6808 126.984 40.5737 126.931 40.4509C126.879 40.3281 126.854 40.1975 126.854 40.0592L126.854 40.0257C126.854 39.8873 126.879 39.7567 126.931 39.6339C126.984 39.5112 127.057 39.404 127.148 39.3125C127.24 39.221 127.347 39.1496 127.47 39.0982C127.593 39.0446 127.723 39.0179 127.862 39.0179L128.732 39.0179L128.732 38.4888C128.732 38.4063 128.717 38.3292 128.685 38.2578C128.654 38.1842 128.612 38.1205 128.558 38.067C128.504 38.0134 128.441 37.971 128.367 37.9397C128.296 37.9085 128.219 37.8929 128.136 37.8929L127.895 37.8929C127.812 37.8929 127.734 37.9085 127.661 37.9397C127.589 37.971 127.527 38.0134 127.473 38.067C127.42 38.1205 127.377 38.1842 127.346 38.2578C127.315 38.3292 127.299 38.4063 127.299 38.4888L127.299 38.6127L126.887 38.5458L126.887 38.5123C126.887 38.3739 126.913 38.2433 126.964 38.1205C127.018 37.9978 127.09 37.8906 127.182 37.7991C127.273 37.7076 127.381 37.6362 127.503 37.5848C127.626 37.5313 127.757 37.5045 127.895 37.5045L128.136 37.5045C128.275 37.5045 128.405 37.5313 128.528 37.5848C128.651 37.6362 128.758 37.7076 128.849 37.7991C128.941 37.8906 129.012 37.9978 129.064 38.1205C129.117 38.2433 129.144 38.3739 129.144 38.5123L129.144 41L129.007 41ZM128.732 39.3393L127.862 39.3393C127.779 39.3393 127.701 39.3549 127.627 39.3862C127.556 39.4174 127.493 39.4609 127.44 39.5167C127.386 39.5703 127.344 39.6339 127.312 39.7076C127.281 39.779 127.266 39.856 127.266 39.9386L127.266 40.0826C127.266 40.1652 127.281 40.2433 127.312 40.317C127.344 40.3884 127.386 40.4509 127.44 40.5045C127.493 40.558 127.556 40.6004 127.627 40.6317C127.701 40.6629 127.779 40.6786 127.862 40.6786L128.136 40.6786C128.219 40.6786 128.296 40.6629 128.367 40.6317C128.441 40.6004 128.504 40.558 128.558 40.5045C128.612 40.4509 128.654 40.3884 128.685 40.317C128.717 40.2433 128.732 40.1652 128.732 40.0826L128.732 39.3393ZM132.325 40.1295C132.325 40.2679 132.297 40.3951 132.241 40.5112C132.185 40.625 132.109 40.7232 132.013 40.8058C131.917 40.8884 131.806 40.9531 131.679 41C131.554 41.0446 131.422 41.067 131.283 41.067L131.009 41.067C130.871 41.067 130.738 41.0413 130.61 40.99C130.485 40.9364 130.375 40.8638 130.279 40.7723C130.185 40.6808 130.109 40.5737 130.051 40.4509C129.996 40.3281 129.968 40.1975 129.968 40.0592L129.968 39.9219L130.379 39.8549L130.379 40.0826C130.379 40.1652 130.396 40.2433 130.43 40.317C130.465 40.3884 130.512 40.4509 130.57 40.5045C130.628 40.558 130.695 40.6004 130.771 40.6317C130.847 40.6629 130.926 40.6786 131.009 40.6786L131.283 40.6786C131.366 40.6786 131.445 40.6663 131.521 40.6417C131.597 40.6172 131.664 40.5826 131.722 40.5379C131.782 40.4911 131.829 40.4353 131.863 40.3705C131.898 40.3058 131.916 40.2321 131.916 40.1496C131.916 40.0268 131.89 39.9263 131.836 39.8482C131.782 39.7701 131.711 39.7054 131.622 39.654C131.535 39.6004 131.434 39.5569 131.32 39.5234C131.209 39.4877 131.094 39.4531 130.975 39.4196C130.857 39.3839 130.741 39.3438 130.627 39.2991C130.516 39.2545 130.415 39.1964 130.326 39.125C130.239 39.0513 130.169 38.9598 130.115 38.8504C130.061 38.7411 130.035 38.6049 130.035 38.442C130.035 38.3036 130.061 38.1775 130.115 38.0636C130.169 37.9475 130.241 37.8482 130.333 37.7656C130.424 37.683 130.53 37.6194 130.651 37.5748C130.773 37.5279 130.904 37.5045 131.042 37.5045L131.283 37.5045C131.422 37.5045 131.552 37.5313 131.675 37.5848C131.798 37.6362 131.905 37.7076 131.997 37.7991C132.088 37.8906 132.16 37.9978 132.211 38.1205C132.265 38.2433 132.291 38.3739 132.291 38.5123L132.291 38.5257L131.879 38.5926L131.879 38.4888C131.879 38.4063 131.864 38.3292 131.833 38.2578C131.801 38.1842 131.759 38.1205 131.705 38.067C131.652 38.0134 131.588 37.971 131.515 37.9397C131.443 37.9085 131.366 37.8929 131.283 37.8929L131.042 37.8929C130.96 37.8929 130.882 37.9051 130.808 37.9297C130.737 37.9542 130.674 37.99 130.621 38.0368C130.567 38.0815 130.525 38.1362 130.493 38.2009C130.462 38.2656 130.446 38.3393 130.446 38.4219C130.446 38.5402 130.473 38.6373 130.527 38.7132C130.58 38.7868 130.651 38.8493 130.738 38.9007C130.827 38.952 130.927 38.9955 131.039 39.0313C131.153 39.0647 131.268 39.1004 131.384 39.1384C131.502 39.1741 131.617 39.2154 131.729 39.2623C131.843 39.3092 131.943 39.3694 132.03 39.4431C132.119 39.5167 132.191 39.6094 132.244 39.721C132.298 39.8304 132.325 39.9665 132.325 40.1295ZM134.364 41C134.239 41 134.121 40.9766 134.009 40.9297C133.9 40.8828 133.804 40.8181 133.721 40.7355C133.641 40.6529 133.576 40.5569 133.527 40.4475C133.48 40.3382 133.456 40.221 133.456 40.096L133.456 37.9632L132.84 37.9632L132.84 37.5714L133.456 37.5714L133.456 36.7478L133.868 36.6808L133.868 37.5714L134.739 37.5714L134.739 37.9632L133.868 37.9632L133.868 40.1161C133.868 40.1853 133.881 40.25 133.905 40.3103C133.932 40.3683 133.968 40.4196 134.012 40.4643C134.057 40.5089 134.109 40.5446 134.17 40.5714C134.23 40.596 134.295 40.6083 134.364 40.6083L134.739 40.6083L134.739 41L134.364 41Z" fill="#070C08"/>
<path d="M154.112 55.2232C153.949 55.2232 153.796 55.1897 153.653 55.1228C153.51 55.058 153.385 54.9699 153.278 54.8583C153.171 54.7489 153.086 54.6205 153.023 54.4732C152.963 54.3281 152.933 54.1741 152.933 54.0112L152.933 53.6663C152.933 53.5033 152.963 53.3482 153.023 53.2009C153.086 53.0558 153.171 52.9275 153.278 52.8158C153.385 52.7065 153.51 52.6183 153.653 52.5513C153.796 52.4866 153.949 52.4542 154.112 52.4542L154.302 52.4542L154.373 52.8862L154.112 52.8862C154.004 52.8862 153.904 52.9074 153.81 52.9498C153.719 52.9944 153.637 53.0536 153.566 53.1272C153.497 53.2009 153.442 53.2857 153.402 53.3817C153.362 53.4799 153.342 53.5826 153.342 53.6897L153.342 53.9911C153.342 54.0982 153.362 54.1998 153.402 54.2958C153.442 54.3917 153.497 54.4766 153.566 54.5502C153.637 54.6239 153.719 54.6819 153.81 54.7243C153.904 54.769 154.004 54.7913 154.112 54.7913L154.256 54.7913C154.421 54.7913 154.558 54.7589 154.667 54.6942C154.777 54.6295 154.869 54.5435 154.945 54.4364C155.023 54.3292 155.089 54.2076 155.143 54.0714C155.196 53.9375 155.25 53.7991 155.304 53.6563C155.357 53.5134 155.416 53.3739 155.481 53.2377C155.546 53.1038 155.626 52.9833 155.722 52.8761C155.82 52.769 155.94 52.683 156.08 52.6183C156.221 52.5536 156.394 52.5212 156.599 52.5212L156.69 52.5212C156.853 52.5212 157.006 52.5513 157.148 52.6116C157.291 52.6741 157.416 52.7589 157.523 52.8661C157.631 52.9732 157.714 53.0982 157.775 53.2411C157.837 53.3862 157.868 53.5402 157.868 53.7031L157.868 54.0112C157.868 54.1741 157.837 54.327 157.775 54.4699C157.714 54.6127 157.631 54.7377 157.523 54.8449C157.416 54.952 157.291 55.0357 157.148 55.096C157.006 55.1585 156.853 55.1897 156.69 55.1897L156.566 55.1897L156.496 54.7578L156.69 54.7578C156.797 54.7578 156.896 54.7377 156.988 54.6975C157.081 54.6574 157.163 54.6027 157.232 54.5335C157.301 54.4643 157.356 54.3828 157.396 54.2891C157.436 54.1975 157.456 54.0982 157.456 53.9911L157.456 53.7232C157.456 53.6161 157.436 53.5156 157.396 53.4219C157.356 53.3304 157.301 53.2489 157.232 53.1775C157.163 53.1083 157.081 53.0536 156.988 53.0134C156.896 52.9732 156.797 52.9531 156.69 52.9531L156.599 52.9531C156.445 52.9531 156.316 52.9855 156.211 53.0502C156.106 53.115 156.016 53.2009 155.94 53.308C155.866 53.4152 155.801 53.5357 155.746 53.6696C155.692 53.8058 155.636 53.9453 155.578 54.0882C155.522 54.231 155.46 54.3694 155.391 54.5033C155.324 54.6395 155.24 54.7612 155.14 54.8683C155.041 54.9754 154.921 55.0614 154.778 55.1261C154.635 55.1908 154.461 55.2232 154.256 55.2232L154.112 55.2232ZM153 58.1696L153.348 57.942C153.221 57.8482 153.119 57.731 153.044 57.5904C152.97 57.4498 152.933 57.2958 152.933 57.1283L152.933 57.0246C152.933 56.8862 152.959 56.7556 153.01 56.6328C153.064 56.51 153.136 56.4029 153.228 56.3114C153.319 56.2199 153.426 56.1473 153.549 56.0938C153.672 56.0424 153.802 56.0167 153.941 56.0167L156.429 56.0167L156.429 56.4286L153.917 56.4286C153.835 56.4286 153.757 56.4442 153.683 56.4754C153.612 56.5067 153.549 56.5491 153.496 56.6027C153.442 56.6563 153.4 56.7188 153.368 56.7902C153.337 56.8638 153.321 56.942 153.321 57.0246L153.321 57.2991C153.321 57.3817 153.337 57.4587 153.368 57.5301C153.4 57.6038 153.442 57.6674 153.496 57.721C153.549 57.7746 153.612 57.817 153.683 57.8482C153.757 57.8795 153.835 57.8951 153.917 57.8951L156.429 57.8951L156.429 58.3069L153 58.3069L153 58.1696ZM153 61.0089L155.511 61.0089C155.594 61.0089 155.671 60.9933 155.742 60.9621C155.816 60.9308 155.879 60.8884 155.933 60.8348C155.987 60.7813 156.029 60.7176 156.06 60.644C156.092 60.5725 156.107 60.4955 156.107 60.4129L156.107 60.1384C156.107 60.0558 156.092 59.9777 156.06 59.904C156.029 59.8326 155.987 59.7701 155.933 59.7165C155.879 59.6629 155.816 59.6205 155.742 59.5893C155.671 59.558 155.594 59.5424 155.511 59.5424L153 59.5424L153 59.1306L156.429 59.1306L156.429 59.2679L156.08 59.4922C156.208 59.5859 156.308 59.7031 156.382 59.8438C156.458 59.9866 156.496 60.1417 156.496 60.3092L156.496 60.4129C156.496 60.5513 156.469 60.6819 156.415 60.8047C156.364 60.9275 156.292 61.0346 156.201 61.1261C156.109 61.2176 156.002 61.2891 155.879 61.3404C155.757 61.394 155.626 61.4208 155.488 61.4208L153 61.4208L153 61.0089ZM157.41 63.423C157.41 63.3538 157.396 63.2891 157.369 63.2288C157.345 63.1708 157.31 63.1194 157.266 63.0748C157.221 63.0301 157.169 62.9944 157.108 62.9676C157.048 62.9431 156.983 62.9308 156.914 62.9308L156.429 62.9308L156.429 63.731L156.037 63.731L156.037 62.9308L153 62.9308L153 62.519L156.037 62.519L156.037 61.8996L156.429 61.8996L156.429 62.519L156.894 62.519C157.019 62.519 157.136 62.5424 157.246 62.5893C157.357 62.6362 157.454 62.7009 157.537 62.7835C157.619 62.8661 157.684 62.9621 157.731 63.0714C157.778 63.1808 157.801 63.298 157.801 63.423L157.801 63.8013L157.41 63.8013L157.41 63.423ZM153 64.3504L157.801 64.3504L157.801 64.7623L153 64.7623L153 64.3504ZM153.941 67.9498C153.802 67.9498 153.672 67.923 153.549 67.8694C153.426 67.8181 153.319 67.7467 153.228 67.6551C153.136 67.5636 153.064 67.4565 153.01 67.3337C152.959 67.2109 152.933 67.0804 152.933 66.942L152.933 66.6674C152.933 66.529 152.959 66.3984 153.01 66.2757C153.064 66.1529 153.136 66.0458 153.228 65.9542C153.319 65.8627 153.426 65.7902 153.549 65.7366C153.672 65.6853 153.802 65.6596 153.941 65.6596L155.488 65.6596C155.626 65.6596 155.757 65.6853 155.879 65.7366C156.002 65.7902 156.109 65.8627 156.201 65.9542C156.292 66.0458 156.364 66.1529 156.415 66.2757C156.469 66.3984 156.496 66.529 156.496 66.6674L156.496 66.942C156.496 67.0804 156.469 67.2109 156.415 67.3337C156.364 67.4565 156.292 67.5636 156.201 67.6551C156.109 67.7467 156.002 67.8181 155.879 67.8694C155.757 67.923 155.626 67.9498 155.488 67.9498L153.941 67.9498ZM155.511 67.5379C155.594 67.5379 155.671 67.5223 155.742 67.4911C155.816 67.4598 155.879 67.4174 155.933 67.3638C155.987 67.3103 156.029 67.2467 156.06 67.173C156.092 67.1016 156.107 67.0246 156.107 66.942L156.107 66.6674C156.107 66.5848 156.092 66.5067 156.06 66.433C156.029 66.3616 155.987 66.2991 155.933 66.2455C155.879 66.192 155.816 66.1496 155.742 66.1183C155.671 66.0871 155.594 66.0714 155.511 66.0714L153.917 66.0714C153.835 66.0714 153.757 66.0871 153.683 66.1183C153.612 66.1496 153.549 66.192 153.496 66.2455C153.442 66.2991 153.4 66.3616 153.368 66.433C153.337 66.5067 153.321 66.5848 153.321 66.6674L153.321 66.942C153.321 67.0246 153.337 67.1016 153.368 67.173C153.4 67.2467 153.442 67.3103 153.496 67.3638C153.549 67.4174 153.612 67.4598 153.683 67.4911C153.757 67.5223 153.835 67.5379 153.917 67.5379L155.511 67.5379ZM153 71.6596L153 71.4353L155.585 70.6317L155.762 70.6183L155.585 70.6049L153 69.8013L153 69.5737L156.429 68.4286L156.429 68.8471L153.837 69.6641L153.66 69.6775L153.837 69.6908L156.429 70.4944L156.429 70.7422L153.837 71.5424L153.66 71.5558L153.837 71.5692L156.429 72.3862L156.429 72.8047L153 71.6596ZM153.941 75.577C153.802 75.577 153.672 75.5502 153.549 75.4967C153.426 75.4453 153.319 75.3739 153.228 75.2824C153.136 75.1908 153.064 75.0837 153.01 74.9609C152.959 74.8382 152.933 74.7076 152.933 74.5692L152.933 74.2946C152.933 74.1563 152.959 74.0257 153.01 73.9029C153.064 73.7801 153.136 73.673 153.228 73.5815C153.319 73.49 153.426 73.4174 153.549 73.3638C153.672 73.3125 153.802 73.2868 153.941 73.2868L155.488 73.2868C155.626 73.2868 155.757 73.3125 155.879 73.3638C156.002 73.4174 156.109 73.49 156.201 73.5815C156.292 73.673 156.364 73.7801 156.415 73.9029C156.469 74.0257 156.496 74.1563 156.496 74.2946L156.496 74.5692C156.496 74.7076 156.469 74.8382 156.415 74.9609C156.364 75.0837 156.292 75.1908 156.201 75.2824C156.109 75.3739 156.002 75.4453 155.879 75.4967C155.757 75.5502 155.626 75.577 155.488 75.577L154.681 75.577L154.681 73.6987L153.917 73.6987C153.835 73.6987 153.757 73.7143 153.683 73.7455C153.612 73.7768 153.549 73.8192 153.496 73.8728C153.442 73.9263 153.4 73.9888 153.368 74.0603C153.337 74.1339 153.321 74.2121 153.321 74.2946L153.321 74.5692C153.321 74.6518 153.337 74.7288 153.368 74.8002C153.4 74.8739 153.442 74.9375 153.496 74.9911C153.549 75.0446 153.612 75.0871 153.683 75.1183C153.757 75.1496 153.835 75.1652 153.917 75.1652L154.145 75.1652L154.078 75.577L153.941 75.577ZM155.511 75.1652C155.594 75.1652 155.671 75.1496 155.742 75.1183C155.816 75.0871 155.879 75.0446 155.933 74.9911C155.987 74.9375 156.029 74.8739 156.06 74.8002C156.092 74.7288 156.107 74.6518 156.107 74.5692L156.107 74.2946C156.107 74.2121 156.092 74.1339 156.06 74.0603C156.029 73.9888 155.987 73.9263 155.933 73.8728C155.879 73.8192 155.816 73.7768 155.742 73.7455C155.671 73.7143 155.594 73.6987 155.511 73.6987L155.002 73.6987L155.002 75.1652L155.511 75.1652ZM156.037 77.4085C156.037 77.3259 156.021 77.2478 155.99 77.1741C155.959 77.1027 155.916 77.0402 155.863 76.9866C155.809 76.933 155.746 76.8906 155.672 76.8594C155.6 76.8281 155.523 76.8125 155.441 76.8125L153 76.8125L153 76.4007L156.429 76.4007L156.429 76.5379L156.08 76.7623C156.208 76.856 156.308 76.9732 156.382 77.1138C156.458 77.2567 156.496 77.4118 156.496 77.5792L156.496 77.8203L156.037 77.8203L156.037 77.4085Z" fill="#070C08"/>
<g opacity="0.7">
<path d="M102.703 70.9029L105 70.9029L105 71.3348L102.71 71.3348L100.199 72.577L100.199 72.1116L102.194 71.1239L100.199 70.1362L100.199 69.6708L102.703 70.9029ZM105 67.1763L104.652 67.404C104.779 67.4978 104.881 67.615 104.956 67.7556C105.03 67.8962 105.067 68.0502 105.067 68.2176L105.067 68.3214C105.067 68.4598 105.041 68.5904 104.99 68.7132C104.936 68.8359 104.864 68.9431 104.772 69.0346C104.681 69.1261 104.574 69.1987 104.451 69.2522C104.328 69.3036 104.198 69.3292 104.059 69.3292L101.571 69.3292L101.571 68.9174L104.083 68.9174C104.165 68.9174 104.243 68.9018 104.317 68.8705C104.388 68.8393 104.451 68.7969 104.504 68.7433C104.558 68.6897 104.6 68.6272 104.632 68.5558C104.663 68.4821 104.679 68.404 104.679 68.3214L104.679 68.0469C104.679 67.9643 104.663 67.8873 104.632 67.8158C104.6 67.7422 104.558 67.6786 104.504 67.625C104.451 67.5714 104.388 67.529 104.317 67.4978C104.243 67.4665 104.165 67.4509 104.083 67.4509L101.571 67.4509L101.571 67.0391L105 67.0391L105 67.1763ZM104.059 63.9252C104.198 63.9252 104.328 63.952 104.451 64.0056C104.574 64.0569 104.681 64.1283 104.772 64.2199C104.864 64.3114 104.936 64.4185 104.99 64.5413C105.041 64.6641 105.067 64.7946 105.067 64.933L105.067 65.2076C105.067 65.346 105.041 65.4766 104.99 65.5993C104.936 65.7221 104.864 65.8292 104.772 65.9208C104.681 66.0123 104.574 66.0848 104.451 66.1384C104.328 66.1897 104.198 66.2154 104.059 66.2154L102.512 66.2154C102.374 66.2154 102.243 66.1897 102.121 66.1384C101.998 66.0848 101.891 66.0123 101.799 65.9208C101.708 65.8292 101.636 65.7221 101.585 65.5993C101.531 65.4766 101.504 65.346 101.504 65.2076L101.504 64.933C101.504 64.7946 101.531 64.6641 101.585 64.5413C101.636 64.4185 101.708 64.3114 101.799 64.2199C101.891 64.1283 101.998 64.0569 102.121 64.0056C102.243 63.952 102.374 63.9252 102.512 63.9252L102.65 63.9252L102.717 64.3371L102.489 64.3371C102.406 64.3371 102.329 64.3527 102.258 64.3839C102.184 64.4152 102.121 64.4576 102.067 64.5112C102.013 64.5647 101.971 64.6283 101.94 64.702C101.908 64.7734 101.893 64.8504 101.893 64.933L101.893 65.2076C101.893 65.2902 101.908 65.3683 101.94 65.442C101.971 65.5134 102.013 65.5759 102.067 65.6295C102.121 65.683 102.184 65.7254 102.258 65.7567C102.329 65.7879 102.406 65.8036 102.489 65.8036L104.083 65.8036C104.165 65.8036 104.243 65.7879 104.317 65.7567C104.388 65.7254 104.451 65.683 104.504 65.6295C104.558 65.5759 104.6 65.5134 104.632 65.442C104.663 65.3683 104.679 65.2902 104.679 65.2076L104.679 64.933C104.679 64.8504 104.663 64.7734 104.632 64.702C104.6 64.6283 104.558 64.5647 104.504 64.5112C104.451 64.4576 104.388 64.4152 104.317 64.3839C104.243 64.3527 104.165 64.3371 104.083 64.3371L103.855 64.3371L103.922 63.9252L104.059 63.9252ZM104.059 60.8114C104.198 60.8114 104.328 60.8382 104.451 60.8917C104.574 60.9431 104.681 61.0145 104.772 61.106C104.864 61.1975 104.936 61.3047 104.99 61.4275C105.041 61.5502 105.067 61.6808 105.067 61.8192L105.067 62.0937C105.067 62.2321 105.041 62.3627 104.99 62.4855C104.936 62.6083 104.864 62.7154 104.772 62.8069C104.681 62.8984 104.574 62.971 104.451 63.0246C104.328 63.0759 104.198 63.1016 104.059 63.1016L102.512 63.1016C102.374 63.1016 102.243 63.0759 102.121 63.0246C101.998 62.971 101.891 62.8984 101.799 62.8069C101.708 62.7154 101.636 62.6083 101.585 62.4855C101.531 62.3627 101.504 62.2321 101.504 62.0937L101.504 61.8192C101.504 61.6808 101.531 61.5502 101.585 61.4275C101.636 61.3047 101.708 61.1975 101.799 61.106C101.891 61.0145 101.998 60.9431 102.121 60.8917C102.243 60.8382 102.374 60.8114 102.512 60.8114L102.65 60.8114L102.717 61.2232L102.489 61.2232C102.406 61.2232 102.329 61.2388 102.258 61.2701C102.184 61.3013 102.121 61.3437 102.067 61.3973C102.013 61.4509 101.971 61.5145 101.94 61.5882C101.908 61.6596 101.893 61.7366 101.893 61.8192L101.893 62.0937C101.893 62.1763 101.908 62.2545 101.94 62.3281C101.971 62.3996 102.013 62.4621 102.067 62.5156C102.121 62.5692 102.184 62.6116 102.258 62.6429C102.329 62.6741 102.406 62.6897 102.489 62.6897L104.083 62.6897C104.165 62.6897 104.243 62.6741 104.317 62.6429C104.388 62.6116 104.451 62.5692 104.504 62.5156C104.558 62.4621 104.6 62.3996 104.632 62.3281C104.663 62.2545 104.679 62.1763 104.679 62.0937L104.679 61.8192C104.679 61.7366 104.663 61.6596 104.632 61.5882C104.6 61.5145 104.558 61.4509 104.504 61.3973C104.451 61.3437 104.388 61.3013 104.317 61.2701C104.243 61.2388 104.165 61.2232 104.083 61.2232L103.855 61.2232L103.922 60.8114L104.059 60.8114ZM105 57.8348L104.658 58.0625C104.781 58.1563 104.881 58.2734 104.956 58.4141C105.03 58.5547 105.067 58.7087 105.067 58.8761L105.067 58.9799C105.067 59.1183 105.041 59.2489 104.99 59.3717C104.936 59.4944 104.864 59.6016 104.772 59.6931C104.681 59.7846 104.574 59.8571 104.451 59.9107C104.328 59.9621 104.198 59.9877 104.059 59.9877L104.026 59.9877C103.887 59.9877 103.757 59.9621 103.634 59.9107C103.511 59.8571 103.404 59.7846 103.313 59.6931C103.221 59.6016 103.15 59.4944 103.098 59.3717C103.045 59.2489 103.018 59.1183 103.018 58.9799L103.018 58.1094L102.489 58.1094C102.406 58.1094 102.329 58.125 102.258 58.1562C102.184 58.1875 102.121 58.2299 102.067 58.2835C102.013 58.3371 101.971 58.4007 101.94 58.4743C101.908 58.5458 101.893 58.6228 101.893 58.7054L101.893 58.9464C101.893 59.029 101.908 59.1071 101.94 59.1808C101.971 59.2522 102.013 59.3147 102.067 59.3683C102.121 59.4219 102.184 59.4643 102.258 59.4955C102.329 59.5268 102.406 59.5424 102.489 59.5424L102.613 59.5424L102.546 59.9542L102.512 59.9542C102.374 59.9542 102.243 59.9286 102.121 59.8772C101.998 59.8237 101.891 59.7511 101.799 59.6596C101.708 59.5681 101.636 59.4609 101.585 59.3382C101.531 59.2154 101.504 59.0848 101.504 58.9464L101.504 58.7054C101.504 58.567 101.531 58.4364 101.585 58.3136C101.636 58.1908 101.708 58.0837 101.799 57.9922C101.891 57.9007 101.998 57.8292 102.121 57.7779C102.243 57.7243 102.374 57.6975 102.512 57.6975L105 57.6975L105 57.8348ZM103.339 58.1094L103.339 58.9799C103.339 59.0625 103.355 59.1406 103.386 59.2143C103.417 59.2857 103.461 59.3482 103.517 59.4018C103.57 59.4554 103.634 59.4978 103.708 59.529C103.779 59.5603 103.856 59.5759 103.939 59.5759L104.083 59.5759C104.165 59.5759 104.243 59.5603 104.317 59.529C104.388 59.4978 104.451 59.4554 104.504 59.4018C104.558 59.3482 104.6 59.2857 104.632 59.2143C104.663 59.1406 104.679 59.0625 104.679 58.9799L104.679 58.7054C104.679 58.6228 104.663 58.5458 104.632 58.4743C104.6 58.4007 104.558 58.3371 104.504 58.2835C104.451 58.2299 104.388 58.1875 104.317 58.1562C104.243 58.125 104.165 58.1094 104.083 58.1094L103.339 58.1094Z" fill="#070C08"/>
</g>
<g opacity="0.7">
<path d="M130.664 90.1116C130.664 89.9487 130.695 89.7958 130.758 89.6529C130.818 89.51 130.902 89.385 131.009 89.2779C131.116 89.1708 131.241 89.0859 131.384 89.0234C131.527 88.9632 131.68 88.933 131.843 88.933H132.184C132.347 88.933 132.501 88.9632 132.646 89.0234C132.789 89.0859 132.914 89.1708 133.021 89.2779C133.128 89.385 133.213 89.51 133.276 89.6529C133.336 89.7958 133.366 89.9487 133.366 90.1116V92.6897C133.366 92.8527 133.336 93.0056 133.276 93.1484C133.213 93.2913 133.128 93.4163 133.021 93.5234C132.914 93.6306 132.789 93.7143 132.646 93.7746C132.501 93.8371 132.347 93.8683 132.184 93.8683H131.843C131.68 93.8683 131.527 93.8371 131.384 93.7746C131.241 93.7143 131.116 93.6306 131.009 93.5234C130.902 93.4163 130.818 93.2913 130.758 93.1484C130.695 93.0056 130.664 92.8527 130.664 92.6897V90.1116ZM131.096 92.6897C131.096 92.7969 131.116 92.8962 131.156 92.9877C131.196 93.0815 131.251 93.1629 131.32 93.2321C131.39 93.3013 131.471 93.356 131.565 93.3962C131.656 93.4364 131.756 93.4565 131.863 93.4565H132.164C132.271 93.4565 132.372 93.4364 132.465 93.3962C132.557 93.356 132.638 93.3013 132.71 93.2321C132.779 93.1629 132.834 93.0815 132.874 92.9877C132.914 92.8962 132.934 92.7969 132.934 92.6897V90.1116C132.934 90.0045 132.914 89.904 132.874 89.8103C132.834 89.7188 132.779 89.6373 132.71 89.5658C132.638 89.4967 132.557 89.442 132.465 89.4018C132.372 89.3616 132.271 89.3415 132.164 89.3415H131.863C131.756 89.3415 131.656 89.3616 131.565 89.4018C131.471 89.442 131.39 89.4967 131.32 89.5658C131.251 89.6373 131.196 89.7188 131.156 89.8103C131.116 89.904 131.096 90.0045 131.096 90.1116V92.6897ZM126.884 89H127.108L127.912 91.5848L127.925 91.7623L127.939 91.5848L128.742 89H128.97L130.115 92.4286H129.696L128.879 89.8371L128.866 89.6596L128.853 89.8371L128.049 92.4286H127.801L127.001 89.8371L126.988 89.6596L126.974 89.8371L126.157 92.4286H125.739L126.884 89ZM125.119 89V93.8013H124.708V89H125.119Z" fill="#070C08"/>
</g>
</g>
<g clip-path="url(#clip5_209_3187)">
<path d="M53.0658 37.9766C53.0658 38.1395 53.0346 38.2924 52.9721 38.4353C52.9118 38.5781 52.8281 38.7031 52.721 38.8103C52.6138 38.9174 52.4877 39.0022 52.3426 39.0647C52.1998 39.125 52.0469 39.1551 51.8839 39.1551L50.7958 39.1551L50.7958 41L50.3638 41L50.3638 36.1987L51.8839 36.1987C52.0469 36.1987 52.1998 36.2299 52.3426 36.2924C52.4877 36.3527 52.6138 36.4364 52.721 36.5435C52.8281 36.6507 52.9118 36.7768 52.9721 36.9219C53.0346 37.0647 53.0658 37.2176 53.0658 37.3806L53.0658 37.9766ZM52.6339 37.3806C52.6339 37.2734 52.6138 37.1741 52.5737 37.0826C52.5335 36.9888 52.4777 36.9074 52.4062 36.8382C52.3371 36.7667 52.2556 36.7109 52.1618 36.6708C52.0703 36.6306 51.971 36.6105 51.8638 36.6105L50.7958 36.6105L50.7958 38.7433L51.8638 38.7433C51.971 38.7433 52.0703 38.7232 52.1618 38.683C52.2556 38.6429 52.3371 38.5882 52.4062 38.519C52.4777 38.4498 52.5335 38.3694 52.5737 38.2779C52.6138 38.1842 52.6339 38.0837 52.6339 37.9766L52.6339 37.3806ZM54.7634 37.9632C54.6808 37.9632 54.6027 37.9788 54.529 38.01C54.4576 38.0413 54.3951 38.0837 54.3415 38.1373C54.2879 38.1908 54.2455 38.2545 54.2143 38.3281C54.183 38.3996 54.1674 38.4766 54.1674 38.5592L54.1674 41L53.7556 41L53.7556 37.5714L53.8929 37.5714L54.1172 37.9196C54.2109 37.7924 54.3281 37.692 54.4687 37.6183C54.6116 37.5424 54.7667 37.5045 54.9342 37.5045L55.1752 37.5045L55.1752 37.9632L54.7634 37.9632ZM58.0145 40.0592C58.0145 40.1975 57.9877 40.3281 57.9342 40.4509C57.8828 40.5737 57.8114 40.6808 57.7199 40.7723C57.6283 40.8638 57.5212 40.9364 57.3984 40.99C57.2757 41.0413 57.1451 41.067 57.0067 41.067L56.7321 41.067C56.5937 41.067 56.4632 41.0413 56.3404 40.99C56.2176 40.9364 56.1105 40.8638 56.019 40.7723C55.9275 40.6808 55.8549 40.5737 55.8013 40.4509C55.75 40.3281 55.7243 40.1975 55.7243 40.0592L55.7243 38.5123C55.7243 38.3739 55.75 38.2433 55.8013 38.1205C55.8549 37.9978 55.9275 37.8906 56.019 37.7991C56.1105 37.7076 56.2176 37.6362 56.3404 37.5848C56.4632 37.5313 56.5937 37.5045 56.7321 37.5045L57.0067 37.5045C57.1451 37.5045 57.2757 37.5313 57.3984 37.5848C57.5212 37.6362 57.6283 37.7076 57.7199 37.7991C57.8114 37.8906 57.8828 37.9978 57.9342 38.1205C57.9877 38.2433 58.0145 38.3739 58.0145 38.5123L58.0145 39.3192L56.1362 39.3192L56.1362 40.0826C56.1362 40.1652 56.1518 40.2433 56.183 40.317C56.2143 40.3884 56.2567 40.4509 56.3103 40.5045C56.3638 40.558 56.4263 40.6004 56.4978 40.6317C56.5714 40.6629 56.6496 40.6786 56.7321 40.6786L57.0067 40.6786C57.0893 40.6786 57.1663 40.6629 57.2377 40.6317C57.3114 40.6004 57.375 40.558 57.4286 40.5045C57.4821 40.4509 57.5246 40.3884 57.5558 40.317C57.5871 40.2433 57.6027 40.1652 57.6027 40.0826L57.6027 39.8549L58.0145 39.9219L58.0145 40.0592ZM57.6027 38.4888C57.6027 38.4063 57.5871 38.3292 57.5558 38.2578C57.5246 38.1842 57.4821 38.1205 57.4286 38.067C57.375 38.0134 57.3114 37.971 57.2377 37.9397C57.1663 37.9085 57.0893 37.8929 57.0067 37.8929L56.7321 37.8929C56.6496 37.8929 56.5714 37.9085 56.4978 37.9397C56.4263 37.971 56.3638 38.0134 56.3103 38.067C56.2567 38.1205 56.2143 38.1842 56.183 38.2578C56.1518 38.3292 56.1362 38.4063 56.1362 38.4888L56.1362 38.9978L57.6027 38.9978L57.6027 38.4888ZM61.1953 40.1295C61.1953 40.2679 61.1674 40.3951 61.1116 40.5112C61.0558 40.625 60.9799 40.7232 60.8839 40.8058C60.7879 40.8884 60.6763 40.9531 60.5491 41C60.4241 41.0446 60.2924 41.067 60.154 41.067L59.8795 41.067C59.7411 41.067 59.6083 41.0413 59.481 40.99C59.356 40.9364 59.2455 40.8638 59.1496 40.7723C59.0558 40.6808 58.9799 40.5737 58.9219 40.4509C58.8661 40.3281 58.8382 40.1975 58.8382 40.0592L58.8382 39.9219L59.25 39.8549L59.25 40.0826C59.25 40.1652 59.2667 40.2433 59.3002 40.317C59.3359 40.3884 59.3828 40.4509 59.4408 40.5045C59.4989 40.558 59.5658 40.6004 59.6417 40.6317C59.7176 40.6629 59.7969 40.6786 59.8795 40.6786L60.154 40.6786C60.2366 40.6786 60.3158 40.6663 60.3917 40.6417C60.4676 40.6172 60.5346 40.5826 60.5926 40.5379C60.6529 40.4911 60.6998 40.4353 60.7333 40.3705C60.769 40.3058 60.7868 40.2321 60.7868 40.1496C60.7868 40.0268 60.76 39.9263 60.7065 39.8482C60.6529 39.7701 60.5815 39.7054 60.4922 39.654C60.4051 39.6004 60.3047 39.5569 60.1908 39.5234C60.0792 39.4877 59.9643 39.4531 59.846 39.4196C59.7277 39.3839 59.6116 39.3438 59.4978 39.2991C59.3862 39.2545 59.2857 39.1964 59.1964 39.125C59.1094 39.0513 59.0391 38.9598 58.9855 38.8504C58.9319 38.7411 58.9051 38.6049 58.9051 38.442C58.9051 38.3036 58.9319 38.1775 58.9855 38.0636C59.0391 37.9475 59.1116 37.8482 59.2031 37.7656C59.2946 37.683 59.4007 37.6194 59.5212 37.5748C59.644 37.5279 59.7746 37.5045 59.9129 37.5045L60.154 37.5045C60.2924 37.5045 60.423 37.5313 60.5458 37.5848C60.6685 37.6362 60.7757 37.7076 60.8672 37.7991C60.9587 37.8906 61.0301 37.9978 61.0815 38.1205C61.135 38.2433 61.1618 38.3739 61.1618 38.5123L61.1618 38.5257L60.75 38.5926L60.75 38.4888C60.75 38.4063 60.7344 38.3292 60.7031 38.2578C60.6719 38.1842 60.6295 38.1205 60.5759 38.067C60.5223 38.0134 60.4587 37.971 60.385 37.9397C60.3136 37.9085 60.2366 37.8929 60.154 37.8929L59.9129 37.8929C59.8304 37.8929 59.7522 37.9051 59.6786 37.9297C59.6071 37.9542 59.5446 37.99 59.4911 38.0368C59.4375 38.0815 59.3951 38.1362 59.3638 38.2009C59.3326 38.2656 59.317 38.3393 59.317 38.4219C59.317 38.5402 59.3437 38.6373 59.3973 38.7132C59.4509 38.7868 59.5212 38.8493 59.6083 38.9007C59.6975 38.952 59.798 38.9955 59.9096 39.0313C60.0234 39.0647 60.1384 39.1004 60.2545 39.1384C60.3728 39.1741 60.4877 39.2154 60.5993 39.2623C60.7132 39.3092 60.8136 39.3694 60.9007 39.4431C60.99 39.5167 61.0614 39.6094 61.115 39.721C61.1685 39.8304 61.1953 39.9665 61.1953 40.1295ZM64.2757 40.0592C64.2757 40.1975 64.2489 40.3281 64.1953 40.4509C64.144 40.5737 64.0725 40.6808 63.981 40.7723C63.8895 40.8638 63.7824 40.9364 63.6596 40.99C63.5368 41.0413 63.4062 41.067 63.2679 41.067L62.9933 41.067C62.8549 41.067 62.7243 41.0413 62.6016 40.99C62.4788 40.9364 62.3717 40.8638 62.2801 40.7723C62.1886 40.6808 62.1161 40.5737 62.0625 40.4509C62.0112 40.3281 61.9855 40.1975 61.9855 40.0592L61.9855 38.5123C61.9855 38.3739 62.0112 38.2433 62.0625 38.1205C62.1161 37.9978 62.1886 37.8906 62.2801 37.7991C62.3717 37.7076 62.4788 37.6362 62.6016 37.5848C62.7243 37.5313 62.8549 37.5045 62.9933 37.5045L63.2679 37.5045C63.4062 37.5045 63.5368 37.5313 63.6596 37.5848C63.7824 37.6362 63.8895 37.7076 63.981 37.7991C64.0725 37.8906 64.144 37.9978 64.1953 38.1205C64.2489 38.2433 64.2757 38.3739 64.2757 38.5123L64.2757 39.3192L62.3973 39.3192L62.3973 40.0826C62.3973 40.1652 62.4129 40.2433 62.4442 40.317C62.4754 40.3884 62.5179 40.4509 62.5714 40.5045C62.625 40.558 62.6875 40.6004 62.7589 40.6317C62.8326 40.6629 62.9107 40.6786 62.9933 40.6786L63.2679 40.6786C63.3504 40.6786 63.4275 40.6629 63.4989 40.6317C63.5725 40.6004 63.6362 40.558 63.6897 40.5045C63.7433 40.4509 63.7857 40.3884 63.817 40.317C63.8482 40.2433 63.8638 40.1652 63.8638 40.0826L63.8638 39.8549L64.2757 39.9219L64.2757 40.0592ZM63.8638 38.4888C63.8638 38.4063 63.8482 38.3292 63.817 38.2578C63.7857 38.1842 63.7433 38.1205 63.6897 38.067C63.6362 38.0134 63.5725 37.971 63.4989 37.9397C63.4275 37.9085 63.3504 37.8929 63.2679 37.8929L62.9933 37.8929C62.9107 37.8929 62.8326 37.9085 62.7589 37.9397C62.6875 37.971 62.625 38.0134 62.5714 38.067C62.5179 38.1205 62.4754 38.1842 62.4442 38.2578C62.4129 38.3292 62.3973 38.4063 62.3973 38.4888L62.3973 38.9978L63.8638 38.9978L63.8638 38.4888ZM66.9777 41L66.9777 38.4888C66.9777 38.4063 66.9621 38.3292 66.9308 38.2578C66.8996 38.1842 66.8571 38.1205 66.8036 38.067C66.75 38.0134 66.6864 37.971 66.6127 37.9397C66.5413 37.9085 66.4643 37.8929 66.3817 37.8929L66.1071 37.8929C66.0246 37.8929 65.9464 37.9085 65.8728 37.9397C65.8013 37.971 65.7388 38.0134 65.6853 38.067C65.6317 38.1205 65.5893 38.1842 65.558 38.2578C65.5268 38.3292 65.5112 38.4063 65.5112 38.4888L65.5112 41L65.0993 41L65.0993 37.5714L65.2366 37.5714L65.4609 37.9196C65.5547 37.7924 65.6719 37.692 65.8125 37.6183C65.9554 37.5424 66.1105 37.5045 66.2779 37.5045L66.3817 37.5045C66.5201 37.5045 66.6507 37.5313 66.7734 37.5848C66.8962 37.6362 67.0033 37.7076 67.0949 37.7991C67.1864 37.8906 67.2578 37.9978 67.3092 38.1205C67.3627 38.2433 67.3895 38.3739 67.3895 38.5123L67.3895 41L66.9777 41ZM69.4621 41C69.3371 41 69.2187 40.9766 69.1071 40.9297C68.9978 40.8828 68.9018 40.8181 68.8192 40.7355C68.7388 40.6529 68.6741 40.5569 68.625 40.4475C68.5781 40.3382 68.5547 40.221 68.5547 40.096L68.5547 37.9632L67.9386 37.9632L67.9386 37.5714L68.5547 37.5714L68.5547 36.7478L68.9665 36.6808L68.9665 37.5714L69.8371 37.5714L69.8371 37.9632L68.9665 37.9632L68.9665 40.1161C68.9665 40.1853 68.9788 40.25 69.0033 40.3103C69.0301 40.3683 69.0658 40.4196 69.1105 40.4643C69.1551 40.5089 69.2076 40.5446 69.2679 40.5714C69.3281 40.596 69.3929 40.6083 69.4621 40.6083L69.8371 40.6083L69.8371 41L69.4621 41Z" fill="#070C08"/>
<g opacity="0.7">
<path d="M85.1116 60.7176C84.9487 60.7176 84.7958 60.6864 84.6529 60.6239C84.51 60.5636 84.385 60.4799 84.2779 60.3728C84.1708 60.2656 84.0859 60.1406 84.0234 59.9978C83.9632 59.8549 83.933 59.702 83.933 59.5391L83.933 59.4018C83.933 59.2388 83.9632 59.0848 84.0234 58.9397C84.0859 58.7969 84.1708 58.6719 84.2779 58.5647C84.385 58.4576 84.51 58.3728 84.6529 58.3103C84.7958 58.25 84.9487 58.2199 85.1116 58.2199L85.3025 58.2199L85.3728 58.6518L85.1116 58.6518C85.0045 58.6518 84.904 58.6719 84.8103 58.7121C84.7188 58.7522 84.6373 58.8069 84.5658 58.8761C84.4967 58.9475 84.442 59.029 84.4018 59.1205C84.3616 59.2143 84.3415 59.3147 84.3415 59.4219L84.3415 59.519C84.3415 59.6239 84.3616 59.7232 84.4018 59.817C84.442 59.9107 84.4967 59.9922 84.5658 60.0614C84.6373 60.1306 84.7188 60.1853 84.8103 60.2254C84.904 60.2656 85.0045 60.2857 85.1116 60.2857L88.8013 60.2857L88.8013 60.7176L85.1116 60.7176ZM84 63.6942L84.3482 63.4665C84.221 63.3728 84.1194 63.2556 84.0435 63.115C83.9699 62.9743 83.933 62.8203 83.933 62.6529L83.933 62.5491C83.933 62.4107 83.9587 62.2801 84.01 62.1574C84.0636 62.0346 84.1362 61.9275 84.2277 61.8359C84.3192 61.7444 84.4263 61.6719 84.5491 61.6183C84.6719 61.567 84.8025 61.5413 84.9408 61.5413L87.4286 61.5413L87.4286 61.9531L84.9174 61.9531C84.8348 61.9531 84.7567 61.9688 84.683 62C84.6116 62.0313 84.5491 62.0737 84.4955 62.1272C84.442 62.1808 84.3996 62.2433 84.3683 62.3147C84.3371 62.3884 84.3214 62.4665 84.3214 62.5491L84.3214 62.8237C84.3214 62.9063 84.3371 62.9833 84.3683 63.0547C84.3996 63.1283 84.442 63.192 84.4955 63.2455C84.5491 63.2991 84.6116 63.3415 84.683 63.3728C84.7567 63.404 84.8348 63.4196 84.9174 63.4196L87.4286 63.4196L87.4286 63.8315L84 63.8315L84 63.6942ZM88.2522 64.7589L88.8013 64.7589L88.8013 65.2377L88.2522 65.2377L88.2522 64.7589ZM84 64.7924L87.4286 64.7924L87.4286 65.2042L84 65.2042L84 64.7924ZM84.9408 68.4587C84.8025 68.4587 84.6719 68.4319 84.5491 68.3783C84.4263 68.327 84.3192 68.2556 84.2277 68.1641C84.1362 68.0725 84.0636 67.9654 84.01 67.8426C83.9587 67.7199 83.933 67.5893 83.933 67.4509L83.933 67.1763C83.933 67.0379 83.9587 66.9074 84.01 66.7846C84.0636 66.6618 84.1362 66.5547 84.2277 66.4632C84.3192 66.3717 84.4263 66.2991 84.5491 66.2455C84.6719 66.1942 84.8025 66.1685 84.9408 66.1685L86.4877 66.1685C86.6261 66.1685 86.7567 66.1942 86.8795 66.2455C87.0022 66.2991 87.1094 66.3717 87.2009 66.4632C87.2924 66.5547 87.3638 66.6618 87.4152 66.7846C87.4688 66.9074 87.4955 67.0379 87.4955 67.1763L87.4955 67.4509C87.4955 67.5893 87.4688 67.7199 87.4152 67.8426C87.3638 67.9654 87.2924 68.0725 87.2009 68.1641C87.1094 68.2556 87.0022 68.327 86.8795 68.3783C86.7567 68.4319 86.6261 68.4587 86.4877 68.4587L86.3504 68.4587L86.2835 68.0469L86.5112 68.0469C86.5938 68.0469 86.6708 68.0313 86.7422 68C86.8158 67.9688 86.8795 67.9263 86.933 67.8728C86.9866 67.8192 87.029 67.7556 87.0603 67.6819C87.0915 67.6105 87.1071 67.5335 87.1071 67.4509L87.1071 67.1763C87.1071 67.0938 87.0915 67.0156 87.0603 66.942C87.029 66.8705 86.9866 66.808 86.933 66.7545C86.8795 66.7009 86.8158 66.6585 86.7422 66.6272C86.6708 66.596 86.5938 66.5804 86.5112 66.5804L84.9174 66.5804C84.8348 66.5804 84.7567 66.596 84.683 66.6272C84.6116 66.6585 84.5491 66.7009 84.4955 66.7545C84.442 66.808 84.3996 66.8705 84.3683 66.942C84.3371 67.0156 84.3214 67.0938 84.3214 67.1763L84.3214 67.4509C84.3214 67.5335 84.3371 67.6105 84.3683 67.6819C84.3996 67.7556 84.442 67.8192 84.4955 67.8728C84.5491 67.9263 84.6116 67.9688 84.683 68C84.7567 68.0313 84.8348 68.0469 84.9174 68.0469L85.1451 68.0469L85.0781 68.4587L84.9408 68.4587ZM84.9408 71.5725C84.8025 71.5725 84.6719 71.5458 84.5491 71.4922C84.4263 71.4408 84.3192 71.3694 84.2277 71.2779C84.1362 71.1864 84.0636 71.0792 84.01 70.9565C83.9587 70.8337 83.933 70.7031 83.933 70.5647L83.933 70.2902C83.933 70.1518 83.9587 70.0212 84.01 69.8984C84.0636 69.7757 84.1362 69.6685 84.2277 69.577C84.3192 69.4855 84.4263 69.4129 84.5491 69.3594C84.6719 69.308 84.8025 69.2824 84.9408 69.2824L86.4877 69.2824C86.6261 69.2824 86.7567 69.308 86.8795 69.3594C87.0022 69.4129 87.1094 69.4855 87.2009 69.577C87.2924 69.6685 87.3638 69.7757 87.4152 69.8984C87.4688 70.0212 87.4955 70.1518 87.4955 70.2902L87.4955 70.5647C87.4955 70.7031 87.4688 70.8337 87.4152 70.9565C87.3638 71.0792 87.2924 71.1864 87.2009 71.2779C87.1094 71.3694 87.0022 71.4408 86.8795 71.4922C86.7567 71.5458 86.6261 71.5725 86.4877 71.5725L85.6808 71.5725L85.6808 69.6942L84.9174 69.6942C84.8348 69.6942 84.7567 69.7098 84.683 69.7411C84.6116 69.7723 84.5491 69.8147 84.4955 69.8683C84.442 69.9219 84.3996 69.9844 84.3683 70.0558C84.3371 70.1295 84.3214 70.2076 84.3214 70.2902L84.3214 70.5647C84.3214 70.6473 84.3371 70.7243 84.3683 70.7958C84.3996 70.8694 84.442 70.933 84.4955 70.9866C84.5491 71.0402 84.6116 71.0826 84.683 71.1138C84.7567 71.1451 84.8348 71.1607 84.9174 71.1607L85.1451 71.1607L85.0781 71.5725L84.9408 71.5725ZM86.5112 71.1607C86.5938 71.1607 86.6708 71.1451 86.7422 71.1138C86.8158 71.0826 86.8795 71.0402 86.933 70.9866C86.9866 70.933 87.029 70.8694 87.0603 70.7958C87.0915 70.7243 87.1071 70.6473 87.1071 70.5647L87.1071 70.2902C87.1071 70.2076 87.0915 70.1295 87.0603 70.0558C87.029 69.9844 86.9866 69.9219 86.933 69.8683C86.8795 69.8147 86.8158 69.7723 86.7422 69.7411C86.6708 69.7098 86.5938 69.6942 86.5112 69.6942L86.0022 69.6942L86.0022 71.1607L86.5112 71.1607Z" fill="#070C08"/>
</g>
<path d="M34.8214 67.7121C34.9844 67.7121 35.1373 67.7433 35.2801 67.8058C35.423 67.8661 35.548 67.9498 35.6551 68.0569C35.7623 68.1641 35.8471 68.2902 35.9096 68.4353C35.9699 68.5781 36 68.731 36 68.894L36 70.4141L31.1987 70.4141L31.1987 68.894C31.1987 68.731 31.2299 68.5781 31.2924 68.4353C31.3527 68.2902 31.4364 68.1641 31.5435 68.0569C31.6507 67.9498 31.7768 67.8661 31.9219 67.8058C32.0647 67.7433 32.2176 67.7121 32.3806 67.7121L34.8214 67.7121ZM32.3806 68.144C32.2734 68.144 32.1741 68.1641 32.0826 68.2042C31.9888 68.2444 31.9074 68.3002 31.8382 68.3717C31.7667 68.4408 31.7109 68.5223 31.6708 68.6161C31.6306 68.7076 31.6105 68.8069 31.6105 68.9141L31.6105 69.9821L35.5882 69.9821L35.5882 68.9141C35.5882 68.8069 35.5681 68.7076 35.5279 68.6161C35.4877 68.5223 35.433 68.4408 35.3638 68.3717C35.2946 68.3002 35.2143 68.2444 35.1228 68.2042C35.029 68.1641 34.9286 68.144 34.8214 68.144L32.3806 68.144ZM35.0592 64.5313C35.1975 64.5313 35.3281 64.558 35.4509 64.6116C35.5737 64.6629 35.6808 64.7344 35.7723 64.8259C35.8638 64.9174 35.9364 65.0246 35.99 65.1473C36.0413 65.2701 36.067 65.4007 36.067 65.5391L36.067 65.8136C36.067 65.952 36.0413 66.0826 35.99 66.2054C35.9364 66.3281 35.8638 66.4353 35.7723 66.5268C35.6808 66.6183 35.5737 66.6908 35.4509 66.7444C35.3281 66.7958 35.1975 66.8214 35.0592 66.8214L33.5123 66.8214C33.3739 66.8214 33.2433 66.7958 33.1205 66.7444C32.9978 66.6908 32.8906 66.6183 32.7991 66.5268C32.7076 66.4353 32.6362 66.3281 32.5848 66.2054C32.5313 66.0826 32.5045 65.952 32.5045 65.8136L32.5045 65.5391C32.5045 65.4007 32.5313 65.2701 32.5848 65.1473C32.6362 65.0246 32.7076 64.9174 32.7991 64.8259C32.8906 64.7344 32.9978 64.6629 33.1205 64.6116C33.2433 64.558 33.3739 64.5313 33.5123 64.5313L35.0592 64.5313ZM33.4888 64.9431C33.4063 64.9431 33.3292 64.9587 33.2578 64.99C33.1842 65.0212 33.1205 65.0636 33.067 65.1172C33.0134 65.1708 32.971 65.2344 32.9397 65.308C32.9085 65.3795 32.8929 65.4565 32.8929 65.5391L32.8929 65.8136C32.8929 65.8962 32.9085 65.9743 32.9397 66.048C32.971 66.1194 33.0134 66.1819 33.067 66.2355C33.1205 66.2891 33.1842 66.3315 33.2578 66.3627C33.3292 66.394 33.4063 66.4096 33.4888 66.4096L35.0826 66.4096C35.1652 66.4096 35.2433 66.394 35.317 66.3627C35.3884 66.3315 35.4509 66.2891 35.5045 66.2355C35.558 66.1819 35.6004 66.1194 35.6317 66.048C35.6629 65.9743 35.6786 65.8962 35.6786 65.8136L35.6786 65.5391C35.6786 65.4565 35.6629 65.3795 35.6317 65.308C35.6004 65.2344 35.558 65.1708 35.5045 65.1172C35.4509 65.0636 35.3884 65.0212 35.317 64.99C35.2433 64.9587 35.1652 64.9431 35.0826 64.9431L33.4888 64.9431ZM35.0592 61.4174C35.1975 61.4174 35.3281 61.4442 35.4509 61.4978C35.5737 61.5491 35.6808 61.6205 35.7723 61.7121C35.8638 61.8036 35.9364 61.9107 35.99 62.0335C36.0413 62.1563 36.067 62.2868 36.067 62.4252L36.067 62.6998C36.067 62.8382 36.0413 62.9688 35.99 63.0915C35.9364 63.2143 35.8638 63.3214 35.7723 63.4129C35.6808 63.5045 35.5737 63.577 35.4509 63.6306C35.3281 63.6819 35.1975 63.7076 35.0592 63.7076L33.5123 63.7076C33.3739 63.7076 33.2433 63.6819 33.1205 63.6306C32.9978 63.577 32.8906 63.5045 32.7991 63.4129C32.7076 63.3214 32.6362 63.2143 32.5848 63.0915C32.5313 62.9688 32.5045 62.8382 32.5045 62.6998L32.5045 62.4252C32.5045 62.2868 32.5313 62.1563 32.5848 62.0335C32.6362 61.9107 32.7076 61.8036 32.7991 61.7121C32.8906 61.6205 32.9978 61.5491 33.1205 61.4978C33.2433 61.4442 33.3739 61.4174 33.5123 61.4174L35.0592 61.4174ZM33.4888 61.8292C33.4063 61.8292 33.3292 61.8449 33.2578 61.8761C33.1842 61.9074 33.1205 61.9498 33.067 62.0033C33.0134 62.0569 32.971 62.1205 32.9397 62.1942C32.9085 62.2656 32.8929 62.3426 32.8929 62.4252L32.8929 62.6998C32.8929 62.7824 32.9085 62.8605 32.9397 62.9342C32.971 63.0056 33.0134 63.0681 33.067 63.1217C33.1205 63.1752 33.1842 63.2176 33.2578 63.2489C33.3292 63.2801 33.4063 63.2958 33.4888 63.2958L35.0826 63.2958C35.1652 63.2958 35.2433 63.2801 35.317 63.2489C35.3884 63.2176 35.4509 63.1752 35.5045 63.1217C35.558 63.0681 35.6004 63.0056 35.6317 62.9342C35.6629 62.8605 35.6786 62.7824 35.6786 62.6998L35.6786 62.4252C35.6786 62.3426 35.6629 62.2656 35.6317 62.1942C35.6004 62.1205 35.558 62.0569 35.5045 62.0033C35.4509 61.9498 35.3884 61.9074 35.317 61.8761C35.2433 61.8449 35.1652 61.8292 35.0826 61.8292L33.4888 61.8292ZM32.9632 59.5859C32.9632 59.6685 32.9788 59.7467 33.01 59.8203C33.0413 59.8917 33.0837 59.9542 33.1373 60.0078C33.1908 60.0614 33.2545 60.1038 33.3281 60.135C33.3996 60.1663 33.4766 60.1819 33.5592 60.1819L36 60.1819L36 60.5937L32.5714 60.5937L32.5714 60.4565L32.9196 60.2321C32.7924 60.1384 32.692 60.0212 32.6183 59.8806C32.5424 59.7377 32.5045 59.5826 32.5045 59.4152L32.5045 59.1741L32.9632 59.1741L32.9632 59.5859Z" fill="#070C08"/>
<g opacity="0.7">
<path d="M63.8504 93.3895V89H64.2824V93.3895H65.4275V93.8013H62.7054V93.3895H63.8504ZM60.1373 89.9408C60.1373 89.8025 60.1641 89.6719 60.2176 89.5491C60.269 89.4263 60.3404 89.3192 60.4319 89.2277C60.5234 89.1362 60.6306 89.0636 60.7533 89.01C60.8761 88.9587 61.0067 88.933 61.1451 88.933H61.4196C61.558 88.933 61.6886 88.9587 61.8114 89.01C61.9342 89.0636 62.0413 89.1362 62.1328 89.2277C62.2243 89.3192 62.2969 89.4263 62.3504 89.5491C62.4018 89.6719 62.4275 89.8025 62.4275 89.9408V91.4877C62.4275 91.6261 62.4018 91.7567 62.3504 91.8795C62.2969 92.0022 62.2243 92.1094 62.1328 92.2009C62.0413 92.2924 61.9342 92.3638 61.8114 92.4152C61.6886 92.4688 61.558 92.4955 61.4196 92.4955H61.1451C61.0067 92.4955 60.8761 92.4688 60.7533 92.4152C60.6306 92.3638 60.5234 92.2924 60.4319 92.2009C60.3404 92.1094 60.269 92.0022 60.2176 91.8795C60.1641 91.7567 60.1373 91.6261 60.1373 91.4877V90.6808H62.0156V89.9174C62.0156 89.8348 62 89.7567 61.9687 89.683C61.9375 89.6116 61.8951 89.5491 61.8415 89.4955C61.7879 89.442 61.7254 89.3996 61.654 89.3683C61.5804 89.3371 61.5022 89.3214 61.4196 89.3214H61.1451C61.0625 89.3214 60.9855 89.3371 60.9141 89.3683C60.8404 89.3996 60.7768 89.442 60.7232 89.4955C60.6696 89.5491 60.6272 89.6116 60.596 89.683C60.5647 89.7567 60.5491 89.8348 60.5491 89.9174V90.1451L60.1373 90.0781V89.9408ZM60.5491 91.5112C60.5491 91.5938 60.5647 91.6708 60.596 91.7422C60.6272 91.8158 60.6696 91.8795 60.7232 91.933C60.7768 91.9866 60.8404 92.029 60.9141 92.0603C60.9855 92.0915 61.0625 92.1071 61.1451 92.1071H61.4196C61.5022 92.1071 61.5804 92.0915 61.654 92.0603C61.7254 92.029 61.7879 91.9866 61.8415 91.933C61.8951 91.8795 61.9375 91.8158 61.9687 91.7422C62 91.6708 62.0156 91.5938 62.0156 91.5112V91.0022H60.5491V91.5112ZM57.5391 89L58.2723 90.3158L59.0056 89H59.4509L58.49 90.7143L59.4509 92.4286H59.0056L58.2723 91.1127L57.5391 92.4286H57.0937L58.0513 90.7143L57.0937 89H57.5391ZM55.1585 89C55.2835 89 55.4018 89.0234 55.5134 89.0703C55.6228 89.1172 55.7188 89.1819 55.8013 89.2645C55.8817 89.3471 55.9464 89.4431 55.9955 89.5525C56.0424 89.6618 56.0658 89.779 56.0658 89.904V92.0368H56.6819V92.4286H56.0658V93.2522L55.654 93.3192V92.4286H54.7835V92.0368H55.654V89.8839C55.654 89.8147 55.6417 89.75 55.6172 89.6897C55.5904 89.6317 55.5547 89.5804 55.51 89.5357C55.4654 89.4911 55.4129 89.4554 55.3527 89.4286C55.2924 89.404 55.2277 89.3917 55.1585 89.3917H54.7835V89H55.1585Z" fill="#070C08"/>
</g>
</g>
<g style="mix-blend-mode:luminosity">
<path d="M14.2344 113.828L5.44531 113.828L5.15234 113.207L5.15234 109.492L5.21094 109.492L6.21875 109.967L6.21875 112.656L9.04297 112.656L9.04297 109.492L9.10156 109.492L10.1094 109.967L10.1094 112.656L13.707 112.656L14.2344 113.77L14.2344 113.828ZM12.4766 106.68C12.6719 106.68 12.8184 106.559 12.916 106.316C13.0137 106.07 13.0625 105.771 13.0625 105.42C13.0625 105.068 13.0137 104.771 12.916 104.529C12.8184 104.283 12.6719 104.16 12.4766 104.16L9.07813 104.16C8.88281 104.16 8.73633 104.283 8.63867 104.529C8.54102 104.771 8.49219 105.068 8.49219 105.42C8.49219 105.771 8.54102 106.07 8.63867 106.316C8.73633 106.559 8.88281 106.68 9.07813 106.68L12.4766 106.68ZM12.6816 107.852L8.87305 107.852C8.35742 107.852 7.95508 107.486 7.66602 106.756C7.51367 106.361 7.4375 105.916 7.4375 105.42C7.4375 104.924 7.51367 104.479 7.66602 104.084C7.95508 103.354 8.35742 102.988 8.87305 102.988L12.6816 102.988C13.1973 102.988 13.5996 103.354 13.8887 104.084C14.041 104.479 14.1172 104.924 14.1172 105.42C14.1172 105.916 14.041 106.361 13.8887 106.756C13.5996 107.486 13.1973 107.852 12.6816 107.852ZM7.84766 101.23L7.32031 100.117L7.32031 100.059L12.4766 100.059C12.6719 100.059 12.8184 99.9375 12.916 99.6953C13.0137 99.4492 13.0625 99.1504 13.0625 98.7988C13.0625 98.4473 13.0137 98.1504 12.916 97.9082C12.8184 97.6621 12.6719 97.5391 12.4766 97.5391L7.84766 97.5391L7.32031 96.4258L7.32031 96.3672L15.084 96.3672C15.6074 96.3672 16.0098 96.7324 16.291 97.4629C16.4434 97.8574 16.5195 98.3027 16.5195 98.7988L16.5195 100.621L16.4609 100.621L15.4648 100.152L15.4648 98.7988C15.4648 98.4473 15.416 98.1504 15.3184 97.9082C15.2207 97.6621 15.0742 97.5391 14.8789 97.5391L13.918 97.5391C14.0508 97.9141 14.1172 98.334 14.1172 98.7988C14.1172 99.2949 14.041 99.7402 13.8887 100.135C13.6074 100.865 13.2051 101.23 12.6816 101.23L7.84766 101.23ZM11.4043 89.4531L12.6816 89.4531C13.1973 89.4531 13.5996 89.8184 13.8887 90.5488C14.041 90.9434 14.1172 91.3887 14.1172 91.8848C14.1172 92.3809 14.041 92.8262 13.8887 93.2207C13.5996 93.9512 13.1973 94.3164 12.6816 94.3164L8.87305 94.3164C8.35742 94.3164 7.95508 93.9512 7.66602 93.2207C7.51367 92.8262 7.4375 92.3809 7.4375 91.8848C7.4375 91.3887 7.51367 90.9434 7.66602 90.5488C7.95508 89.8184 8.35742 89.4531 8.87305 89.4531L9.62305 89.4531L12.4766 93.1445C12.6719 93.1445 12.8184 93.0234 12.916 92.7813C13.0137 92.5352 13.0625 92.2363 13.0625 91.8848C13.0625 91.5332 13.0137 91.2363 12.916 90.9941C12.8184 90.748 12.6719 90.625 12.4766 90.625L11.9316 90.625L11.4043 89.5117L11.4043 89.4531ZM11.2402 93.1445L9.21289 90.625L9.07813 90.625C8.88281 90.625 8.73633 90.748 8.63867 90.9941C8.54102 91.2363 8.49219 91.5332 8.49219 91.8848C8.49219 92.2363 8.54102 92.5352 8.63867 92.7813C8.73633 93.0234 8.88281 93.1445 9.07813 93.1445L11.2402 93.1445ZM14.2344 87.6953L8.87305 87.6953C8.34961 87.6953 7.94727 87.3301 7.66602 86.5996C7.51367 86.2051 7.4375 85.7598 7.4375 85.2637L7.4375 84.4727L7.4961 84.4727L8.49219 84.9414L8.49219 85.2637C8.49219 85.6152 8.54102 85.9141 8.63867 86.1602C8.73633 86.4023 8.88281 86.5234 9.07813 86.5234L13.707 86.5234L14.2344 87.6367L14.2344 87.6953Z" fill="#265636"/>
</g>
<g style="mix-blend-mode:luminosity">
<path d="M73.5371 20.9601L73.5371 12.9445L71.0293 12.9445L71.0293 12.8859L71.5039 11.8781L77.2168 11.8781L77.2168 11.9366L76.7422 12.9445L74.709 12.9445L74.709 20.4327L73.5957 20.9601L73.5371 20.9601ZM77.9199 12.9855C77.7832 12.8448 77.7148 12.6769 77.7148 12.4816C77.7148 12.2823 77.7832 12.1124 77.9199 11.9718C78.0566 11.8312 78.2227 11.7609 78.418 11.7609C78.6133 11.7609 78.7793 11.8312 78.916 11.9718C79.0527 12.1124 79.1211 12.2823 79.1211 12.4816C79.1211 12.6769 79.0527 12.8448 78.916 12.9855C78.7793 13.1261 78.6133 13.1964 78.418 13.1964C78.2227 13.1964 78.0566 13.1261 77.9199 12.9855ZM77.832 20.9601L77.832 14.5734L78.9453 14.046L79.0039 14.046L79.0039 20.4327L77.8906 20.9601L77.832 20.9601ZM81.0547 20.9601L81.0547 15.5988C81.0547 15.0753 81.4199 14.673 82.1504 14.3917C82.5449 14.2394 82.9902 14.1632 83.4863 14.1632C83.9746 14.1632 84.4199 14.2394 84.8223 14.3917C85.0176 14.4659 85.1875 14.5499 85.332 14.6437C85.4766 14.5499 85.6465 14.4659 85.8418 14.3917C86.2441 14.2394 86.6895 14.1632 87.1777 14.1632C87.6738 14.1632 88.1191 14.2394 88.5137 14.3917C89.2441 14.673 89.6094 15.0753 89.6094 15.5988L89.6094 20.4327L88.4961 20.9601L88.4375 20.9601L88.4375 15.8038C88.4375 15.6085 88.3145 15.462 88.0684 15.3644C87.8262 15.2667 87.5293 15.2179 87.1777 15.2179C86.8262 15.2179 86.5273 15.2667 86.2813 15.3644C86.0391 15.462 85.918 15.6085 85.918 15.8038L85.918 20.4327L84.8047 20.9601L84.7461 20.9601L84.7461 15.8038C84.7461 15.6085 84.623 15.462 84.377 15.3644C84.1348 15.2667 83.8379 15.2179 83.4863 15.2179C83.1348 15.2179 82.8359 15.2667 82.5898 15.3644C82.3477 15.462 82.2266 15.6085 82.2266 15.8038L82.2266 20.4327L81.1133 20.9601L81.0547 20.9601ZM96.2305 18.13L96.2305 19.4073C96.2305 19.923 95.8652 20.3253 95.1348 20.6144C94.7402 20.7667 94.2949 20.8429 93.7988 20.8429C93.3027 20.8429 92.8574 20.7667 92.4629 20.6144C91.7324 20.3253 91.3672 19.923 91.3672 19.4073L91.3672 15.5988C91.3672 15.0831 91.7324 14.6808 92.4629 14.3917C92.8574 14.2394 93.3027 14.1632 93.7988 14.1632C94.2949 14.1632 94.7402 14.2394 95.1348 14.3917C95.8652 14.6808 96.2305 15.0831 96.2305 15.5988L96.2305 16.3488L92.5391 19.2023C92.5391 19.3976 92.6602 19.5441 92.9023 19.6417C93.1484 19.7394 93.4473 19.7882 93.7988 19.7882C94.1504 19.7882 94.4473 19.7394 94.6895 19.6417C94.9355 19.5441 95.0586 19.3976 95.0586 19.2023L95.0586 18.6573L96.1719 18.13L96.2305 18.13ZM92.5391 17.9659L95.0586 15.9386L95.0586 15.8038C95.0586 15.6085 94.9355 15.462 94.6895 15.3644C94.4473 15.2667 94.1504 15.2179 93.7988 15.2179C93.4473 15.2179 93.1484 15.2667 92.9023 15.3644C92.6602 15.462 92.5391 15.6085 92.5391 15.8038L92.5391 17.9659ZM98.2813 20.9601L98.2813 12.171L99.3945 11.6437L99.4531 11.6437L99.4531 20.4327L98.3398 20.9601L98.2813 20.9601ZM101.885 12.9855C101.748 12.8448 101.68 12.6769 101.68 12.4816C101.68 12.2823 101.748 12.1124 101.885 11.9718C102.021 11.8312 102.188 11.7609 102.383 11.7609C102.578 11.7609 102.744 11.8312 102.881 11.9718C103.018 12.1124 103.086 12.2823 103.086 12.4816C103.086 12.6769 103.018 12.8448 102.881 12.9855C102.744 13.1261 102.578 13.1964 102.383 13.1964C102.188 13.1964 102.021 13.1261 101.885 12.9855ZM101.797 20.9601L101.797 14.5734L102.91 14.046L102.969 14.046L102.969 20.4327L101.855 20.9601L101.797 20.9601ZM105.02 20.9601L105.02 15.5988C105.02 15.0753 105.385 14.673 106.115 14.3917C106.51 14.2394 106.955 14.1632 107.451 14.1632C107.947 14.1632 108.393 14.2394 108.787 14.3917C109.518 14.673 109.883 15.0753 109.883 15.5988L109.883 20.4327L108.77 20.9601L108.711 20.9601L108.711 15.8038C108.711 15.6085 108.588 15.462 108.342 15.3644C108.1 15.2667 107.803 15.2179 107.451 15.2179C107.1 15.2179 106.801 15.2667 106.555 15.3644C106.313 15.462 106.191 15.6085 106.191 15.8038L106.191 20.4327L105.078 20.9601L105.02 20.9601ZM116.504 18.13L116.504 19.4073C116.504 19.923 116.139 20.3253 115.408 20.6144C115.014 20.7667 114.568 20.8429 114.072 20.8429C113.576 20.8429 113.131 20.7667 112.736 20.6144C112.006 20.3253 111.641 19.923 111.641 19.4073L111.641 15.5988C111.641 15.0831 112.006 14.6808 112.736 14.3917C113.131 14.2394 113.576 14.1632 114.072 14.1632C114.568 14.1632 115.014 14.2394 115.408 14.3917C116.139 14.6808 116.504 15.0831 116.504 15.5988L116.504 16.3488L112.813 19.2023C112.813 19.3976 112.934 19.5441 113.176 19.6417C113.422 19.7394 113.721 19.7882 114.072 19.7882C114.424 19.7882 114.721 19.7394 114.963 19.6417C115.209 19.5441 115.332 19.3976 115.332 19.2023L115.332 18.6573L116.445 18.13L116.504 18.13ZM112.813 17.9659L115.332 15.9386L115.332 15.8038C115.332 15.6085 115.209 15.462 114.963 15.3644C114.721 15.2667 114.424 15.2179 114.072 15.2179C113.721 15.2179 113.422 15.2667 113.176 15.3644C112.934 15.462 112.813 15.6085 112.813 15.8038L112.813 17.9659Z" fill="#265636"/>
</g>
<g style="mix-blend-mode:luminosity">
<path d="M178.223 82.0898L176.816 82.0898C176.102 82.0898 175.561 81.6465 175.193 80.7598C174.986 80.2637 174.883 79.7207 174.883 79.1309C174.883 78.541 174.986 77.998 175.193 77.502C175.561 76.6152 176.102 76.1719 176.816 76.1719L182.031 76.1719C182.746 76.1719 183.287 76.6152 183.654 77.502C183.861 77.998 183.965 78.541 183.965 79.1309C183.965 79.7207 183.861 80.2637 183.654 80.7598C183.287 81.6465 182.746 82.0898 182.031 82.0898L181.152 82.0898L180.625 80.9766L180.625 80.918L182.031 80.918C182.297 80.918 182.525 80.6816 182.717 80.209C182.846 79.8809 182.91 79.5215 182.91 79.1309C182.91 78.7402 182.846 78.3809 182.717 78.0527C182.529 77.5801 182.301 77.3438 182.031 77.3438L176.816 77.3438C176.551 77.3438 176.322 77.5801 176.131 78.0527C176.002 78.3809 175.938 78.7402 175.938 79.1309C175.938 79.5215 176.002 79.8809 176.131 80.209C176.318 80.6816 176.547 80.918 176.816 80.918L177.695 80.918L178.223 82.0313L178.223 82.0898ZM176.523 85.3125C176.328 85.3125 176.182 85.4336 176.084 85.6758C175.986 85.9219 175.938 86.2207 175.938 86.5723C175.938 86.9238 175.986 87.2207 176.084 87.4629C176.182 87.709 176.328 87.832 176.523 87.832L179.922 87.832C180.117 87.832 180.264 87.709 180.361 87.4629C180.459 87.2207 180.508 86.9238 180.508 86.5723C180.508 86.2207 180.459 85.9219 180.361 85.6758C180.264 85.4336 180.117 85.3125 179.922 85.3125L176.523 85.3125ZM176.318 84.1406L180.127 84.1406C180.643 84.1406 181.045 84.5059 181.334 85.2363C181.486 85.6309 181.563 86.0762 181.563 86.5723C181.563 87.0684 181.486 87.5137 181.334 87.9082C181.045 88.6387 180.643 89.0039 180.127 89.0039L176.318 89.0039C175.803 89.0039 175.4 88.6387 175.111 87.9082C174.959 87.5137 174.883 87.0684 174.883 86.5723C174.883 86.0762 174.959 85.6309 175.111 85.2363C175.4 84.5059 175.803 84.1406 176.318 84.1406ZM174.766 91.0547L183.555 91.0547L184.082 92.168L184.082 92.2266L175.293 92.2266L174.766 91.1133L174.766 91.0547ZM176.523 95.4492C176.328 95.4492 176.182 95.5703 176.084 95.8125C175.986 96.0586 175.938 96.3574 175.938 96.709C175.938 97.0605 175.986 97.3574 176.084 97.5996C176.182 97.8457 176.328 97.9688 176.523 97.9688L179.922 97.9688C180.117 97.9688 180.264 97.8457 180.361 97.5996C180.459 97.3574 180.508 97.0605 180.508 96.709C180.508 96.3574 180.459 96.0586 180.361 95.8125C180.264 95.5703 180.117 95.4492 179.922 95.4492L176.523 95.4492ZM176.318 94.2773L180.127 94.2773C180.643 94.2773 181.045 94.6426 181.334 95.373C181.486 95.7676 181.563 96.2129 181.563 96.709C181.563 97.2051 181.486 97.6504 181.334 98.0449C181.045 98.7754 180.643 99.1406 180.127 99.1406L176.318 99.1406C175.803 99.1406 175.4 98.7754 175.111 98.0449C174.959 97.6504 174.883 97.2051 174.883 96.709C174.883 96.2129 174.959 95.7676 175.111 95.373C175.4 94.6426 175.803 94.2773 176.318 94.2773ZM174.766 100.898L180.127 100.898C180.65 100.898 181.053 101.264 181.334 101.994C181.486 102.389 181.563 102.834 181.563 103.33L181.563 104.121L181.504 104.121L180.508 103.652L180.508 103.33C180.508 102.979 180.459 102.68 180.361 102.434C180.264 102.191 180.117 102.07 179.922 102.07L175.293 102.07L174.766 100.957L174.766 100.898ZM175.293 109.57L174.766 108.457L174.766 108.398L175.082 108.398C174.949 108.023 174.883 107.623 174.883 107.197C174.883 106.74 174.959 106.314 175.111 105.92C175.4 105.189 175.803 104.824 176.318 104.824L177.9 104.824C178.424 104.824 178.826 105.189 179.107 105.92C179.26 106.314 179.336 106.74 179.336 107.197C179.336 107.627 179.27 108.027 179.137 108.398L179.922 108.398C180.117 108.398 180.264 108.275 180.361 108.029C180.459 107.787 180.508 107.49 180.508 107.139L180.508 105.715L180.566 105.715L181.563 106.184L181.563 107.139C181.563 107.635 181.486 108.08 181.334 108.475C181.053 109.205 180.65 109.57 180.127 109.57L175.293 109.57ZM176.523 105.996C176.328 105.996 176.182 106.117 176.084 106.359C175.986 106.605 175.938 106.885 175.938 107.197C175.938 107.51 175.986 107.787 176.084 108.029C176.182 108.275 176.328 108.398 176.523 108.398L177.695 108.398C177.891 108.398 178.037 108.275 178.135 108.029C178.232 107.787 178.281 107.51 178.281 107.197C178.281 106.885 178.232 106.605 178.135 106.359C178.037 106.117 177.891 105.996 177.695 105.996L176.523 105.996ZM176.318 111.328C176.318 111.328 177.588 111.328 180.127 111.328C180.65 111.328 181.053 111.693 181.334 112.424C181.486 112.818 181.563 113.264 181.563 113.76C181.563 114.225 181.496 114.645 181.363 115.02L183.555 115.02L184.082 116.133L184.082 116.191L176.318 116.191C175.795 116.191 175.393 115.826 175.111 115.096C174.959 114.701 174.883 114.256 174.883 113.76C174.883 113.264 174.959 112.818 175.111 112.424C175.4 111.693 175.803 111.328 176.318 111.328ZM176.523 112.5C176.328 112.5 176.182 112.621 176.084 112.863C175.986 113.109 175.938 113.408 175.938 113.76C175.938 114.111 175.986 114.408 176.084 114.65C176.182 114.896 176.328 115.02 176.523 115.02L179.922 115.02C180.117 115.02 180.264 114.896 180.361 114.65C180.459 114.408 180.508 114.111 180.508 113.76C180.508 113.408 180.459 113.109 180.361 112.863C180.264 112.621 180.117 112.5 179.922 112.5L176.523 112.5ZM176.523 119.414C176.328 119.414 176.182 119.535 176.084 119.777C175.986 120.023 175.938 120.322 175.938 120.674C175.938 121.025 175.986 121.322 176.084 121.564C176.182 121.811 176.328 121.934 176.523 121.934L179.922 121.934C180.117 121.934 180.264 121.811 180.361 121.564C180.459 121.322 180.508 121.025 180.508 120.674C180.508 120.322 180.459 120.023 180.361 119.777C180.264 119.535 180.117 119.414 179.922 119.414L176.523 119.414ZM176.318 118.242L180.127 118.242C180.643 118.242 181.045 118.607 181.334 119.338C181.486 119.732 181.563 120.178 181.563 120.674C181.563 121.17 181.486 121.615 181.334 122.01C181.045 122.74 180.643 123.105 180.127 123.105L176.318 123.105C175.803 123.105 175.4 122.74 175.111 122.01C174.959 121.615 174.883 121.17 174.883 120.674C174.883 120.178 174.959 119.732 175.111 119.338C175.4 118.607 175.803 118.242 176.318 118.242Z" fill="#265636"/>
</g>
</g>
</g>
<g clip-path="url(#clip6_209_3187)">
<rect x="27.2451" y="113" width="64.0045" height="64.0045" fill="white" fill-opacity="0.76"/>
</g>
<rect x="27.5451" y="113.3" width="63.4045" height="63.4045" stroke="#FF66A6" stroke-opacity="0.7" stroke-width="0.6" stroke-dasharray="0.66 0.66"/>
<g clip-path="url(#clip7_209_3187)">
<rect x="97.75" y="113" width="64.0045" height="64.0045" fill="white" fill-opacity="0.76"/>
</g>
<rect x="98.05" y="113.3" width="63.4045" height="63.4045" stroke="#FF66A6" stroke-opacity="0.7" stroke-width="0.6" stroke-dasharray="0.66 0.66"/>
<rect y="59.2654" width="189" height="40.2097" fill="url(#paint8_linear_209_3187)"/>
<path d="M60.25 56.0811C60.25 55.8049 60.0261 55.5811 59.75 55.5811C59.4738 55.5811 59.25 55.8049 59.25 56.0811L60.25 56.0811ZM59.3963 136.273C59.5916 136.468 59.9082 136.468 60.1034 136.273L63.2854 133.091C63.4807 132.895 63.4807 132.579 63.2854 132.383C63.0902 132.188 62.7736 132.188 62.5783 132.383L59.7499 135.212L56.9215 132.383C56.7262 132.188 56.4096 132.188 56.2144 132.383C56.0191 132.579 56.0191 132.895 56.2144 133.091L59.3963 136.273ZM59.25 57.0791C59.25 57.3552 59.4738 57.5791 59.75 57.5791C60.0261 57.5791 60.25 57.3552 60.25 57.0791L59.25 57.0791ZM60.25 60.073C60.25 59.7968 60.0261 59.573 59.75 59.573C59.4738 59.573 59.25 59.7968 59.25 60.073L60.25 60.073ZM59.25 62.0689C59.25 62.3451 59.4738 62.5689 59.75 62.5689C60.0261 62.5689 60.25 62.3451 60.25 62.0689L59.25 62.0689ZM60.25 65.0629C60.25 64.7867 60.0261 64.5629 59.75 64.5629C59.4738 64.5629 59.25 64.7867 59.25 65.0629L60.25 65.0629ZM59.25 67.0588C59.25 67.3349 59.4738 67.5588 59.75 67.5588C60.0261 67.5588 60.25 67.3349 60.25 67.0588L59.25 67.0588ZM60.25 70.0527C60.25 69.7766 60.0261 69.5527 59.75 69.5527C59.4738 69.5527 59.25 69.7766 59.25 70.0527L60.25 70.0527ZM59.25 72.0487C59.25 72.3248 59.4738 72.5487 59.75 72.5487C60.0261 72.5487 60.25 72.3248 60.25 72.0487L59.25 72.0487ZM60.25 75.0426C60.25 74.7664 60.0261 74.5426 59.75 74.5426C59.4738 74.5426 59.25 74.7664 59.25 75.0426L60.25 75.0426ZM59.25 77.0385C59.25 77.3147 59.4738 77.5385 59.75 77.5385C60.0261 77.5385 60.25 77.3147 60.25 77.0385L59.25 77.0385ZM60.25 80.0324C60.25 79.7563 60.0261 79.5325 59.75 79.5324C59.4738 79.5324 59.25 79.7563 59.25 80.0324L60.25 80.0324ZM59.25 82.0284C59.2499 82.3045 59.4738 82.5284 59.7499 82.5284C60.0261 82.5284 60.2499 82.3045 60.2499 82.0284L59.25 82.0284ZM60.2499 85.0223C60.2499 84.7462 60.0261 84.5223 59.7499 84.5223C59.4738 84.5223 59.2499 84.7462 59.2499 85.0223L60.2499 85.0223ZM59.2499 87.0183C59.2499 87.2944 59.4738 87.5183 59.7499 87.5183C60.0261 87.5183 60.2499 87.2944 60.2499 87.0183L59.2499 87.0183ZM60.2499 90.0122C60.2499 89.736 60.0261 89.5122 59.7499 89.5122C59.4738 89.5122 59.2499 89.736 59.2499 90.0122L60.2499 90.0122ZM59.2499 92.0081C59.2499 92.2843 59.4738 92.5081 59.7499 92.5081C60.0261 92.5081 60.2499 92.2843 60.2499 92.0081L59.2499 92.0081ZM60.2499 95.002C60.2499 94.7259 60.0261 94.502 59.7499 94.502C59.4738 94.502 59.2499 94.7259 59.2499 95.002L60.2499 95.002ZM59.2499 96.998C59.2499 97.2741 59.4738 97.498 59.7499 97.498C60.0261 97.498 60.2499 97.2741 60.2499 96.998L59.2499 96.998ZM60.2499 99.9919C60.2499 99.7158 60.0261 99.4919 59.7499 99.4919C59.4738 99.4919 59.2499 99.7158 59.2499 99.9919L60.2499 99.9919ZM59.2499 101.988C59.2499 102.264 59.4738 102.488 59.7499 102.488C60.0261 102.488 60.2499 102.264 60.2499 101.988L59.2499 101.988ZM60.2499 104.982C60.2499 104.706 60.0261 104.482 59.7499 104.482C59.4738 104.482 59.2499 104.706 59.2499 104.982L60.2499 104.982ZM59.2499 106.978C59.2499 107.254 59.4738 107.478 59.7499 107.478C60.0261 107.478 60.2499 107.254 60.2499 106.978L59.2499 106.978ZM60.2499 109.972C60.2499 109.695 60.0261 109.472 59.7499 109.472C59.4738 109.472 59.2499 109.695 59.2499 109.972L60.2499 109.972ZM59.2499 111.968C59.2499 112.244 59.4738 112.468 59.7499 112.468C60.0261 112.468 60.2499 112.244 60.2499 111.968L59.2499 111.968ZM60.2499 114.962C60.2499 114.685 60.0261 114.462 59.7499 114.462C59.4738 114.462 59.2499 114.685 59.2499 114.962L60.2499 114.962ZM59.2499 116.957C59.2499 117.234 59.4738 117.457 59.7499 117.457C60.0261 117.457 60.2499 117.234 60.2499 116.957L59.2499 116.957ZM60.2499 119.951C60.2499 119.675 60.0261 119.451 59.7499 119.451C59.4738 119.451 59.2499 119.675 59.2499 119.951L60.2499 119.951ZM59.2499 121.947C59.2499 122.223 59.4738 122.447 59.7499 122.447C60.026 122.447 60.2499 122.223 60.2499 121.947L59.2499 121.947ZM60.2499 124.941C60.2499 124.665 60.026 124.441 59.7499 124.441C59.4738 124.441 59.2499 124.665 59.2499 124.941L60.2499 124.941ZM59.2499 126.937C59.2499 127.213 59.4738 127.437 59.7499 127.437C60.026 127.437 60.2499 127.213 60.2499 126.937L59.2499 126.937ZM60.2499 129.931C60.2499 129.655 60.026 129.431 59.7499 129.431C59.4738 129.431 59.2499 129.655 59.2499 129.931L60.2499 129.931ZM59.2499 131.927C59.2499 132.203 59.4738 132.427 59.7499 132.427C60.026 132.427 60.2499 132.203 60.2499 131.927L59.2499 131.927ZM60.2499 134.921C60.2499 134.645 60.026 134.421 59.7499 134.421C59.4737 134.421 59.2499 134.645 59.2499 134.921L60.2499 134.921ZM59.25 56.0811L59.25 57.0791L60.25 57.0791L60.25 56.0811L59.25 56.0811ZM59.25 60.073L59.25 62.0689L60.25 62.0689L60.25 60.073L59.25 60.073ZM59.25 65.0629L59.25 67.0588L60.25 67.0588L60.25 65.0629L59.25 65.0629ZM59.25 70.0527L59.25 72.0487L60.25 72.0487L60.25 70.0527L59.25 70.0527ZM59.25 75.0426L59.25 77.0385L60.25 77.0385L60.25 75.0426L59.25 75.0426ZM59.25 80.0324L59.25 82.0284L60.2499 82.0284L60.25 80.0324L59.25 80.0324ZM59.2499 85.0223L59.2499 87.0183L60.2499 87.0183L60.2499 85.0223L59.2499 85.0223ZM59.2499 90.0122L59.2499 92.0081L60.2499 92.0081L60.2499 90.0122L59.2499 90.0122ZM59.2499 95.002L59.2499 96.998L60.2499 96.998L60.2499 95.002L59.2499 95.002ZM59.2499 99.9919L59.2499 101.988L60.2499 101.988L60.2499 99.9919L59.2499 99.9919ZM59.2499 104.982L59.2499 106.978L60.2499 106.978L60.2499 104.982L59.2499 104.982ZM59.2499 109.972L59.2499 111.968L60.2499 111.968L60.2499 109.972L59.2499 109.972ZM59.2499 114.962L59.2499 116.957L60.2499 116.957L60.2499 114.962L59.2499 114.962ZM59.2499 119.951L59.2499 121.947L60.2499 121.947L60.2499 119.951L59.2499 119.951ZM59.2499 124.941L59.2499 126.937L60.2499 126.937L60.2499 124.941L59.2499 124.941ZM59.2499 129.931L59.2499 131.927L60.2499 131.927L60.2499 129.931L59.2499 129.931ZM59.2499 134.921L59.2499 135.919L60.2499 135.919L60.2499 134.921L59.2499 134.921Z" fill="url(#paint9_linear_209_3187)"/>
</g>
<defs>
<radialGradient id="paint0_radial_209_3187" cx="0" cy="0" r="1" gradientUnits="userSpaceOnUse" gradientTransform="translate(94.5 99.4999) rotate(90) scale(94.5 94.5)">
<stop stop-color="white" stop-opacity="0"/>
<stop offset="1" stop-color="white"/>
</radialGradient>
<linearGradient id="paint1_linear_209_3187" x1="94.5" y1="4.99988" x2="94.5" y2="29.9998" gradientUnits="userSpaceOnUse">
<stop stop-color="white" stop-opacity="0.61"/>
<stop offset="1" stop-color="white" stop-opacity="0.89"/>
</linearGradient>
<linearGradient id="paint2_linear_209_3187" x1="-3.03794e-06" y1="99.4999" x2="25" y2="99.4999" gradientUnits="userSpaceOnUse">
<stop stop-color="white" stop-opacity="0.61"/>
<stop offset="1" stop-color="white" stop-opacity="0.89"/>
</linearGradient>
<linearGradient id="paint3_linear_209_3187" x1="189" y1="99.4999" x2="164" y2="99.4999" gradientUnits="userSpaceOnUse">
<stop stop-color="white" stop-opacity="0.61"/>
<stop offset="1" stop-color="white" stop-opacity="0.89"/>
</linearGradient>
<linearGradient id="paint4_linear_209_3187" x1="25.0005" y1="29.9999" x2="95.0005" y2="97.4999" gradientUnits="userSpaceOnUse">
<stop offset="0.235" stop-color="white" stop-opacity="0.59"/>
<stop offset="1" stop-color="white" stop-opacity="0.13"/>
</linearGradient>
<linearGradient id="paint5_linear_209_3187" x1="164" y1="29.9999" x2="96.5" y2="99.9999" gradientUnits="userSpaceOnUse">
<stop offset="0.235" stop-color="white" stop-opacity="0.59"/>
<stop offset="1" stop-color="white" stop-opacity="0.13"/>
</linearGradient>
<linearGradient id="paint6_linear_209_3187" x1="171" y1="4.99988" x2="171" y2="40.9999" gradientUnits="userSpaceOnUse">
<stop stop-color="white" stop-opacity="0.84"/>
<stop offset="1" stop-color="white"/>
</linearGradient>
<linearGradient id="paint7_linear_209_3187" x1="-7.86805e-07" y1="23" x2="36" y2="23" gradientUnits="userSpaceOnUse">
<stop stop-color="white" stop-opacity="0.84"/>
<stop offset="1" stop-color="white"/>
</linearGradient>
<linearGradient id="paint8_linear_209_3187" x1="94.5" y1="59.2654" x2="94.5" y2="99.4751" gradientUnits="userSpaceOnUse">
<stop stop-color="#F0FFF5" stop-opacity="0"/>
<stop offset="1" stop-color="#F0FFF5"/>
</linearGradient>
<linearGradient id="paint9_linear_209_3187" x1="79.6135" y1="117.914" x2="39.8864" y2="74.0864" gradientUnits="userSpaceOnUse">
<stop offset="0.415" stop-color="#0099CC"/>
<stop offset="1" stop-color="#0099CC" stop-opacity="0"/>
</linearGradient>
<clipPath id="clip0_209_3187">
<rect width="189" height="182" fill="white"/>
</clipPath>
<clipPath id="clip1_209_3187">
<rect width="189" height="94" fill="white" transform="matrix(-1 0 0 -1 189 99)"/>
</clipPath>
<clipPath id="clip2_209_3187">
<rect width="189" height="189" fill="white" transform="matrix(-1 0 0 -1 189 194)"/>
</clipPath>
<clipPath id="clip3_209_3187">
<rect width="189" height="189" fill="white" transform="translate(0 4.99988)"/>
</clipPath>
<clipPath id="clip4_209_3187">
<rect width="64" height="64" fill="white" transform="matrix(-1 0 0 -1 161 97)"/>
</clipPath>
<clipPath id="clip5_209_3187">
<rect width="64" height="64" fill="white" transform="matrix(-1 0 0 -1 92 97)"/>
</clipPath>
<clipPath id="clip6_209_3187">
<rect x="27.2451" y="113" width="64.0045" height="64.0045" fill="white"/>
</clipPath>
<clipPath id="clip7_209_3187">
<rect x="97.75" y="113" width="64.0045" height="64.0045" fill="white"/>
</clipPath>
</defs>
</svg>
