<svg width="189" height="182" viewBox="0 0 189 182" fill="none" xmlns="http://www.w3.org/2000/svg">
<g clip-path="url(#clip0_135_4616)">
<g clip-path="url(#clip1_135_4616)">
<g clip-path="url(#clip2_135_4616)">
<path fill-rule="evenodd" clip-rule="evenodd" d="M36 194L153 194L189 158L189 41.0001L168.291 33.0352L189 41L153 5.00008L36 5.00006L0 41.0001L1.52588e-05 158L36 194Z" fill="#0BCB4B" fill-opacity="0.8"/>
<g style="mix-blend-mode:luminosity">
<path fill-rule="evenodd" clip-rule="evenodd" d="M153 194L94.5 99.5001L189 158L189 41L94.5 99.5001L153 5.00002L36 5L94.5 99.5001L-5.11423e-06 41L-5.11423e-06 158L94.5 99.5001L36 194L153 194Z" fill="url(#paint0_radial_135_4616)" fill-opacity="0.05"/>
<path d="M36 5L153 5.00001L164 30L25 30L36 5Z" fill="url(#paint1_linear_135_4616)" fill-opacity="0.51"/>
<path d="M189 41L189 158L164 169L164 30.0001L189 41Z" fill="url(#paint2_linear_135_4616)" fill-opacity="0.51"/>
<path d="M4.80827e-07 158L5.59506e-06 41L25 30L25 169L4.80827e-07 158Z" fill="url(#paint3_linear_135_4616)" fill-opacity="0.51"/>
<path fill-rule="evenodd" clip-rule="evenodd" d="M164 169L25 169L25 30.0001L164 30.0001L164 169ZM164 169L176 150L176 49.0001L164 30.0001L145 18.0001L44 18.0001L25 30.0001L13 49.0001L13 150L25 169L44 181L145 181L164 169Z" fill="black" fill-opacity="0.05"/>
<path d="M164 30.0001L94.5 30.0001L94.5 99.5001L164 99.5001L164 30.0001Z" fill="url(#paint4_linear_135_4616)"/>
<path d="M94.5 99.5001L94.5 30.0001L25 30.0001L25 99.5L94.5 99.5001Z" fill="url(#paint5_linear_135_4616)"/>
<path fill-rule="evenodd" clip-rule="evenodd" d="M94 169H95L95 100L164 100V99.0001L95 99.0001V30.0001H94V99.0001H25V100H94L94 169Z" fill="black" fill-opacity="0.1"/>
<path d="M36 5L0 41L25 30L36 5Z" fill="url(#paint6_linear_135_4616)" fill-opacity="0.33"/>
<path d="M189 41L153 5L164 30L189 41Z" fill="url(#paint7_linear_135_4616)" fill-opacity="0.33"/>
</g>
<g style="mix-blend-mode:luminosity">
<path d="M79.515 11.5741C80.085 11.5741 80.628 11.5981 81.144 11.6461C81.18 11.7061 81.198 11.7931 81.198 11.9071C81.198 11.9971 81.186 12.0751 81.162 12.1411C80.682 12.0871 80.103 12.0631 79.425 12.0691L79.425 17.1451C79.425 17.4751 79.458 17.6401 79.524 17.6401L80.091 17.6221C80.115 17.6641 80.127 17.7211 80.127 17.7931C80.127 17.8411 80.118 17.8921 80.1 17.9461C79.704 18.0601 79.32 18.1171 78.948 18.1171C78.756 18.1171 78.618 18.1081 78.534 18.0901C78.456 18.0781 78.402 18.0481 78.372 18.0001C78.348 17.9461 78.339 17.8561 78.345 17.7301L78.345 12.1411C77.643 12.1951 77.034 12.2821 76.518 12.4021C76.482 12.3181 76.464 12.2341 76.464 12.1501C76.464 12.1021 76.476 12.0241 76.5 11.9161C77.364 11.6881 78.369 11.5741 79.515 11.5741ZM82.1176 12.6361C82.0096 12.6481 81.9616 12.5521 81.9736 12.3481L81.9736 11.8891C81.9736 11.7871 81.9826 11.7181 82.0006 11.6821C82.0246 11.6461 82.0756 11.6221 82.1536 11.6101L82.8556 11.5831C82.9636 11.5711 83.0116 11.6671 82.9996 11.8711L82.9996 12.3301C82.9996 12.4321 82.9876 12.5011 82.9636 12.5371C82.9456 12.5731 82.8976 12.5971 82.8196 12.6091L82.1176 12.6361ZM83.9356 17.7931C83.9356 17.8411 83.9266 17.8921 83.9086 17.9461C83.5126 18.0601 83.1076 18.1171 82.6936 18.1171C82.5136 18.1171 82.3876 18.1081 82.3156 18.0901C82.2436 18.0781 82.1956 18.0481 82.1716 18.0001C82.1536 17.9461 82.1476 17.8561 82.1536 17.7301L82.1536 14.3461C82.1536 14.0161 82.1206 13.8511 82.0546 13.8511L81.4336 13.8691C81.4096 13.8271 81.3976 13.7701 81.3976 13.6981C81.3976 13.6501 81.4066 13.5991 81.4246 13.5451C81.8206 13.4311 82.2256 13.3741 82.6396 13.3741C82.8196 13.3741 82.9456 13.3831 83.0176 13.4011C83.0896 13.4131 83.1346 13.4461 83.1526 13.5001C83.1766 13.5481 83.1856 13.6351 83.1796 13.7611L83.1796 17.1451C83.1796 17.4631 83.2096 17.6221 83.2696 17.6221L83.8996 17.6221C83.9236 17.6641 83.9356 17.7211 83.9356 17.7931ZM87.1104 13.9141C86.8764 13.9141 86.4714 14.0011 85.8954 14.1751L85.8954 17.8381C85.8954 17.9221 85.8474 17.9821 85.7514 18.0181C85.5234 18.0841 85.2804 18.1171 85.0224 18.1171C84.9204 18.1171 84.8694 18.0661 84.8694 17.9641L84.8694 14.3461C84.8694 14.0161 84.8364 13.8511 84.7704 13.8511L84.1494 13.8691C84.1254 13.8271 84.1134 13.7701 84.1134 13.6981C84.1134 13.6501 84.1224 13.5991 84.1404 13.5451C84.5364 13.4311 84.9414 13.3741 85.3554 13.3741C85.5354 13.3741 85.6614 13.3831 85.7334 13.4011C85.8054 13.4131 85.8504 13.4461 85.8684 13.5001C85.8924 13.5481 85.9014 13.6351 85.8954 13.7611C86.3334 13.6291 86.6874 13.5331 86.9574 13.4731C87.2634 13.4071 87.5364 13.3741 87.7764 13.3741C88.2324 13.3741 88.5054 13.5091 88.5954 13.7791C88.7334 13.7311 88.9524 13.6681 89.2524 13.5901C89.6004 13.5001 89.8104 13.4461 89.8824 13.4281C90.1104 13.3921 90.3084 13.3741 90.4764 13.3741C90.8064 13.3741 91.0404 13.4281 91.1784 13.5361C91.3164 13.6381 91.3854 13.8121 91.3854 14.0581L91.3854 17.1451C91.3854 17.3431 91.3914 17.4781 91.4034 17.5501C91.4094 17.6101 91.4364 17.6401 91.4844 17.6401L92.1054 17.6221C92.1294 17.6881 92.1414 17.7451 92.1414 17.7931C92.1414 17.8111 92.1354 17.8441 92.1234 17.8921L92.1144 17.9461C91.7184 18.0601 91.3134 18.1171 90.8994 18.1171C90.7194 18.1171 90.5934 18.1081 90.5214 18.0901C90.4494 18.0781 90.4014 18.0481 90.3774 18.0001C90.3594 17.9461 90.3534 17.8561 90.3594 17.7301L90.3594 14.2831C90.3594 14.0371 90.1914 13.9141 89.8554 13.9141C89.6334 13.9141 89.2284 14.0011 88.6404 14.1751L88.6404 17.8381C88.6404 17.9221 88.5924 17.9821 88.4964 18.0181C88.2684 18.0841 88.0254 18.1171 87.7674 18.1171C87.6654 18.1171 87.6144 18.0661 87.6144 17.9641L87.6144 14.2831C87.6144 14.0371 87.4464 13.9141 87.1104 13.9141ZM95.4641 17.5681C95.8781 17.5021 96.1781 17.4451 96.3641 17.3971C96.3941 17.4571 96.4091 17.5321 96.4091 17.6221C96.4091 17.7001 96.3971 17.7601 96.3731 17.8021C95.5691 18.0121 94.6871 18.1171 93.7271 18.1171C93.4031 18.1171 93.1661 18.0661 93.0161 17.9641C92.8721 17.8621 92.8001 17.6941 92.8001 17.4601L92.8001 14.3731C92.8001 14.0011 92.9981 13.7401 93.3941 13.5901C93.7781 13.4461 94.4021 13.3741 95.2661 13.3741C95.5721 13.3741 95.8061 13.4041 95.9681 13.4641C96.1361 13.5181 96.2561 13.6141 96.3281 13.7521C96.4001 13.8901 96.4361 14.0881 96.4361 14.3461L96.4361 14.9851C96.4361 15.2371 96.3731 15.4351 96.2471 15.5791C96.1211 15.7171 95.9201 15.8161 95.6441 15.8761C94.9781 15.9781 94.3721 16.0471 93.8261 16.0831L93.8261 17.1091C93.8261 17.3371 93.8681 17.4871 93.9521 17.5591C94.0421 17.6311 94.2221 17.6671 94.4921 17.6671C94.7321 17.6671 95.0561 17.6341 95.4641 17.5681ZM94.0331 13.9051C93.8831 14.0011 93.8141 14.1691 93.8261 14.4091L93.8261 15.6691C94.2281 15.6331 94.5551 15.5911 94.8071 15.5431C95.0531 15.4891 95.2151 15.4261 95.2931 15.3541C95.3711 15.2821 95.4101 15.1501 95.4101 14.9581L95.4101 14.4091C95.4101 14.1571 95.3711 13.9861 95.2931 13.8961C95.2211 13.8001 95.0861 13.7521 94.8881 13.7521C94.4681 13.7521 94.1831 13.8031 94.0331 13.9051ZM99.3757 17.7931C99.3757 17.8411 99.3667 17.8921 99.3487 17.9461C98.9527 18.0601 98.5477 18.1171 98.1337 18.1171C97.9537 18.1171 97.8277 18.1081 97.7557 18.0901C97.6837 18.0781 97.6357 18.0481 97.6117 18.0001C97.5937 17.9461 97.5877 17.8561 97.5937 17.7301L97.5937 12.5551C97.5937 12.2251 97.5607 12.0601 97.4947 12.0601L96.8737 12.0781C96.8497 12.0361 96.8377 11.9791 96.8377 11.9071C96.8377 11.8591 96.8467 11.8081 96.8647 11.7541C97.2607 11.6401 97.6657 11.5831 98.0797 11.5831C98.2597 11.5831 98.3857 11.5921 98.4577 11.6101C98.5297 11.6221 98.5747 11.6551 98.5927 11.7091C98.6167 11.7571 98.6257 11.8441 98.6197 11.9701L98.6197 17.1451C98.6197 17.4751 98.6527 17.6401 98.7187 17.6401L99.3397 17.6221C99.3637 17.6641 99.3757 17.7211 99.3757 17.7931ZM100.276 12.6361C100.168 12.6481 100.12 12.5521 100.132 12.3481L100.132 11.8891C100.132 11.7871 100.141 11.7181 100.159 11.6821C100.183 11.6461 100.234 11.6221 100.312 11.6101L101.014 11.5831C101.122 11.5711 101.17 11.6671 101.158 11.8711L101.158 12.3301C101.158 12.4321 101.146 12.5011 101.122 12.5371C101.104 12.5731 101.056 12.5971 100.978 12.6091L100.276 12.6361ZM102.094 17.7931C102.094 17.8411 102.085 17.8921 102.067 17.9461C101.671 18.0601 101.266 18.1171 100.852 18.1171C100.672 18.1171 100.546 18.1081 100.474 18.0901C100.402 18.0781 100.354 18.0481 100.33 18.0001C100.312 17.9461 100.306 17.8561 100.312 17.7301L100.312 14.3461C100.312 14.0161 100.279 13.8511 100.213 13.8511L99.5918 13.8691C99.5678 13.8271 99.5558 13.7701 99.5558 13.6981C99.5558 13.6501 99.5648 13.5991 99.5828 13.5451C99.9788 13.4311 100.384 13.3741 100.798 13.3741C100.978 13.3741 101.104 13.3831 101.176 13.4011C101.248 13.4131 101.293 13.4461 101.311 13.5001C101.335 13.5481 101.344 13.6351 101.338 13.7611L101.338 17.1451C101.338 17.4631 101.368 17.6221 101.428 17.6221L102.058 17.6221C102.082 17.6641 102.094 17.7211 102.094 17.7931ZM105.332 13.9141C105.062 13.9141 104.636 13.9981 104.054 14.1661L104.054 17.8381C104.054 17.9221 104.006 17.9821 103.91 18.0181C103.682 18.0841 103.439 18.1171 103.181 18.1171C103.079 18.1171 103.028 18.0661 103.028 17.9641L103.028 14.3461C103.028 14.0161 102.995 13.8511 102.929 13.8511L102.308 13.8691C102.284 13.8271 102.272 13.7701 102.272 13.6981C102.272 13.6501 102.281 13.5991 102.299 13.5451C102.695 13.4311 103.1 13.3741 103.514 13.3741C103.694 13.3741 103.82 13.3831 103.892 13.4011C103.964 13.4131 104.009 13.4461 104.027 13.5001C104.051 13.5481 104.06 13.6351 104.054 13.7611L104.387 13.6621C104.597 13.6021 104.747 13.5631 104.837 13.5451C104.831 13.5451 104.897 13.5301 105.035 13.5001C105.203 13.4581 105.407 13.4221 105.647 13.3921C105.791 13.3801 105.893 13.3741 105.953 13.3741C106.283 13.3741 106.517 13.4281 106.655 13.5361C106.793 13.6381 106.862 13.8121 106.862 14.0581L106.862 17.1451C106.862 17.4751 106.895 17.6401 106.961 17.6401L107.582 17.6221C107.606 17.6641 107.618 17.7211 107.618 17.7931C107.618 17.8411 107.609 17.8921 107.591 17.9461C107.195 18.0601 106.79 18.1171 106.376 18.1171C106.196 18.1171 106.07 18.1081 105.998 18.0901C105.926 18.0781 105.878 18.0481 105.854 18.0001C105.836 17.9461 105.83 17.8561 105.836 17.7301L105.836 14.2831C105.836 14.0371 105.668 13.9141 105.332 13.9141ZM110.942 17.5681C111.356 17.5021 111.656 17.4451 111.842 17.3971C111.872 17.4571 111.887 17.5321 111.887 17.6221C111.887 17.7001 111.875 17.7601 111.851 17.8021C111.047 18.0121 110.165 18.1171 109.205 18.1171C108.881 18.1171 108.644 18.0661 108.494 17.9641C108.35 17.8621 108.278 17.6941 108.278 17.4601L108.278 14.3731C108.278 14.0011 108.476 13.7401 108.872 13.5901C109.256 13.4461 109.88 13.3741 110.744 13.3741C111.05 13.3741 111.284 13.4041 111.446 13.4641C111.614 13.5181 111.734 13.6141 111.806 13.7521C111.878 13.8901 111.914 14.0881 111.914 14.3461L111.914 14.9851C111.914 15.2371 111.851 15.4351 111.725 15.5791C111.599 15.7171 111.398 15.8161 111.122 15.8761C110.456 15.9781 109.85 16.0471 109.304 16.0831L109.304 17.1091C109.304 17.3371 109.346 17.4871 109.43 17.5591C109.52 17.6311 109.7 17.6671 109.97 17.6671C110.21 17.6671 110.534 17.6341 110.942 17.5681ZM109.511 13.9051C109.361 14.0011 109.292 14.1691 109.304 14.4091L109.304 15.6691C109.706 15.6331 110.033 15.5911 110.285 15.5431C110.531 15.4891 110.693 15.4261 110.771 15.3541C110.849 15.2821 110.888 15.1501 110.888 14.9581L110.888 14.4091C110.888 14.1571 110.849 13.9861 110.771 13.8961C110.699 13.8001 110.564 13.7521 110.366 13.7521C109.946 13.7521 109.661 13.8031 109.511 13.9051Z" fill="#9CFCBC"/>
</g>
</g>
</g>
<g clip-path="url(#clip3_135_4616)">
<rect x="27.25" y="113" width="64" height="64" fill="black" fill-opacity="0.5"/>
<path d="M34.1384 147.319C34.3013 147.319 34.4542 147.35 34.5971 147.413C34.74 147.473 34.865 147.557 34.9721 147.664C35.0792 147.771 35.1641 147.896 35.2266 148.039C35.2868 148.182 35.317 148.335 35.317 148.498L35.317 148.839C35.317 149.002 35.2868 149.156 35.2266 149.301C35.1641 149.444 35.0792 149.569 34.9721 149.676C34.865 149.783 34.74 149.868 34.5971 149.931C34.4542 149.991 34.3013 150.021 34.1384 150.021L31.5603 150.021C31.3973 150.021 31.2444 149.991 31.1016 149.931C30.9587 149.868 30.8337 149.783 30.7266 149.676C30.6194 149.569 30.5357 149.444 30.4754 149.301C30.4129 149.156 30.3817 149.002 30.3817 148.839L30.3817 148.498C30.3817 148.335 30.4129 148.182 30.4754 148.039C30.5357 147.896 30.6194 147.771 30.7266 147.664C30.8337 147.557 30.9587 147.473 31.1016 147.413C31.2444 147.35 31.3973 147.319 31.5603 147.319L34.1384 147.319ZM31.5603 147.751C31.4531 147.751 31.3538 147.771 31.2623 147.811C31.1685 147.852 31.0871 147.906 31.0179 147.975C30.9487 148.045 30.894 148.126 30.8538 148.22C30.8136 148.311 30.7935 148.411 30.7935 148.518L30.7935 148.819C30.7935 148.926 30.8136 149.027 30.8538 149.121C30.894 149.212 30.9487 149.294 31.0179 149.365C31.0871 149.434 31.1685 149.489 31.2623 149.529C31.3538 149.569 31.4531 149.589 31.5603 149.589L34.1384 149.589C34.2455 149.589 34.346 149.569 34.4397 149.529C34.5313 149.489 34.6127 149.434 34.6842 149.365C34.7533 149.294 34.808 149.212 34.8482 149.121C34.8884 149.027 34.9085 148.926 34.9085 148.819L34.9085 148.518C34.9085 148.411 34.8884 148.311 34.8482 148.22C34.808 148.126 34.7533 148.045 34.6842 147.975C34.6127 147.906 34.5313 147.852 34.4397 147.811C34.346 147.771 34.2455 147.751 34.1384 147.751L31.5603 147.751ZM35.25 143.539L35.25 143.763L32.6652 144.567L32.4877 144.58L32.6652 144.594L35.25 145.397L35.25 145.625L31.8214 146.77L31.8214 146.352L34.4129 145.535L34.5904 145.521L34.4129 145.508L31.8214 144.704L31.8214 144.456L34.4129 143.656L34.5904 143.643L34.4129 143.629L31.8214 142.813L31.8214 142.394L35.25 143.539ZM35.25 141.775L30.4487 141.775L30.4487 141.363L35.25 141.363L35.25 141.775Z" fill="#CEFDDE"/>
<path d="M52.5614 118.703L52.5614 121L52.1295 121L52.1295 118.71L50.8873 116.199L51.3527 116.199L52.3404 118.194L53.3281 116.199L53.7935 116.199L52.5614 118.703ZM56.2879 121L56.0603 120.652C55.9665 120.779 55.8493 120.881 55.7087 120.956C55.5681 121.03 55.4141 121.067 55.2467 121.067L55.1429 121.067C55.0045 121.067 54.8739 121.041 54.7511 120.99C54.6283 120.936 54.5212 120.864 54.4297 120.772C54.3382 120.681 54.2656 120.574 54.2121 120.451C54.1607 120.328 54.135 120.198 54.135 120.059L54.135 117.571L54.5469 117.571L54.5469 120.083C54.5469 120.165 54.5625 120.243 54.5938 120.317C54.625 120.388 54.6674 120.451 54.721 120.504C54.7746 120.558 54.8371 120.6 54.9085 120.632C54.9821 120.663 55.0603 120.679 55.1429 120.679L55.4174 120.679C55.5 120.679 55.577 120.663 55.6484 120.632C55.7221 120.6 55.7857 120.558 55.8393 120.504C55.8929 120.451 55.9353 120.388 55.9665 120.317C55.9978 120.243 56.0134 120.165 56.0134 120.083L56.0134 117.571L56.4252 117.571L56.4252 121L56.2879 121ZM59.5391 120.059C59.5391 120.198 59.5123 120.328 59.4587 120.451C59.4074 120.574 59.3359 120.681 59.2444 120.772C59.1529 120.864 59.0458 120.936 58.923 120.99C58.8002 121.041 58.6696 121.067 58.5313 121.067L58.2567 121.067C58.1183 121.067 57.9877 121.041 57.865 120.99C57.7422 120.936 57.635 120.864 57.5435 120.772C57.452 120.681 57.3795 120.574 57.3259 120.451C57.2746 120.328 57.2489 120.198 57.2489 120.059L57.2489 118.512C57.2489 118.374 57.2746 118.243 57.3259 118.121C57.3795 117.998 57.452 117.891 57.5435 117.799C57.635 117.708 57.7422 117.636 57.865 117.585C57.9877 117.531 58.1183 117.504 58.2567 117.504L58.5313 117.504C58.6696 117.504 58.8002 117.531 58.923 117.585C59.0458 117.636 59.1529 117.708 59.2444 117.799C59.3359 117.891 59.4074 117.998 59.4587 118.121C59.5123 118.243 59.5391 118.374 59.5391 118.512L59.5391 118.65L59.1272 118.717L59.1272 118.489C59.1272 118.406 59.1116 118.329 59.0804 118.258C59.0491 118.184 59.0067 118.121 58.9531 118.067C58.8996 118.013 58.8359 117.971 58.7623 117.94C58.6908 117.908 58.6138 117.893 58.5313 117.893L58.2567 117.893C58.1741 117.893 58.096 117.908 58.0223 117.94C57.9509 117.971 57.8884 118.013 57.8348 118.067C57.7813 118.121 57.7388 118.184 57.7076 118.258C57.6763 118.329 57.6607 118.406 57.6607 118.489L57.6607 120.083C57.6607 120.165 57.6763 120.243 57.7076 120.317C57.7388 120.388 57.7813 120.451 57.8348 120.504C57.8884 120.558 57.9509 120.6 58.0223 120.632C58.096 120.663 58.1741 120.679 58.2567 120.679L58.5313 120.679C58.6138 120.679 58.6908 120.663 58.7623 120.632C58.8359 120.6 58.8996 120.558 58.9531 120.504C59.0067 120.451 59.0491 120.388 59.0804 120.317C59.1116 120.243 59.1272 120.165 59.1272 120.083L59.1272 119.855L59.5391 119.922L59.5391 120.059ZM62.6529 120.059C62.6529 120.198 62.6261 120.328 62.5725 120.451C62.5212 120.574 62.4498 120.681 62.3583 120.772C62.2667 120.864 62.1596 120.936 62.0368 120.99C61.9141 121.041 61.7835 121.067 61.6451 121.067L61.3705 121.067C61.2321 121.067 61.1016 121.041 60.9788 120.99C60.856 120.936 60.7489 120.864 60.6574 120.772C60.5658 120.681 60.4933 120.574 60.4397 120.451C60.3884 120.328 60.3627 120.198 60.3627 120.059L60.3627 118.512C60.3627 118.374 60.3884 118.243 60.4397 118.121C60.4933 117.998 60.5658 117.891 60.6574 117.799C60.7489 117.708 60.856 117.636 60.9788 117.585C61.1016 117.531 61.2321 117.504 61.3705 117.504L61.6451 117.504C61.7835 117.504 61.9141 117.531 62.0368 117.585C62.1596 117.636 62.2667 117.708 62.3583 117.799C62.4498 117.891 62.5212 117.998 62.5725 118.121C62.6261 118.243 62.6529 118.374 62.6529 118.512L62.6529 118.65L62.2411 118.717L62.2411 118.489C62.2411 118.406 62.2254 118.329 62.1942 118.258C62.1629 118.184 62.1205 118.121 62.067 118.067C62.0134 118.013 61.9498 117.971 61.8761 117.94C61.8047 117.908 61.7277 117.893 61.6451 117.893L61.3705 117.893C61.2879 117.893 61.2098 117.908 61.1362 117.94C61.0647 117.971 61.0022 118.013 60.9487 118.067C60.8951 118.121 60.8527 118.184 60.8214 118.258C60.7902 118.329 60.7746 118.406 60.7746 118.489L60.7746 120.083C60.7746 120.165 60.7902 120.243 60.8214 120.317C60.8527 120.388 60.8951 120.451 60.9487 120.504C61.0022 120.558 61.0647 120.6 61.1362 120.632C61.2098 120.663 61.2879 120.679 61.3705 120.679L61.6451 120.679C61.7277 120.679 61.8047 120.663 61.8761 120.632C61.9498 120.6 62.0134 120.558 62.067 120.504C62.1205 120.451 62.1629 120.388 62.1942 120.317C62.2254 120.243 62.2411 120.165 62.2411 120.083L62.2411 119.855L62.6529 119.922L62.6529 120.059ZM65.6295 121L65.4018 120.658C65.308 120.781 65.1908 120.881 65.0502 120.956C64.9096 121.03 64.7556 121.067 64.5882 121.067L64.4844 121.067C64.346 121.067 64.2154 121.041 64.0926 120.99C63.9699 120.936 63.8627 120.864 63.7712 120.772C63.6797 120.681 63.6071 120.574 63.5536 120.451C63.5022 120.328 63.4766 120.198 63.4766 120.059L63.4766 120.026C63.4766 119.887 63.5022 119.757 63.5536 119.634C63.6071 119.511 63.6797 119.404 63.7712 119.312C63.8627 119.221 63.9699 119.15 64.0926 119.098C64.2154 119.045 64.346 119.018 64.4844 119.018L65.3549 119.018L65.3549 118.489C65.3549 118.406 65.3393 118.329 65.308 118.258C65.2768 118.184 65.2344 118.121 65.1808 118.067C65.1272 118.013 65.0636 117.971 64.99 117.94C64.9185 117.908 64.8415 117.893 64.7589 117.893L64.5179 117.893C64.4353 117.893 64.3571 117.908 64.2835 117.94C64.2121 117.971 64.1496 118.013 64.096 118.067C64.0424 118.121 64 118.184 63.9688 118.258C63.9375 118.329 63.9219 118.406 63.9219 118.489L63.9219 118.613L63.51 118.546L63.51 118.512C63.51 118.374 63.5357 118.243 63.5871 118.121C63.6406 117.998 63.7132 117.891 63.8047 117.799C63.8962 117.708 64.0033 117.636 64.1261 117.585C64.2489 117.531 64.3795 117.504 64.5179 117.504L64.7589 117.504C64.8973 117.504 65.0279 117.531 65.1507 117.585C65.2734 117.636 65.3806 117.708 65.4721 117.799C65.5636 117.891 65.635 117.998 65.6864 118.121C65.74 118.243 65.7667 118.374 65.7667 118.512L65.7667 121L65.6295 121ZM65.3549 119.339L64.4844 119.339C64.4018 119.339 64.3237 119.355 64.25 119.386C64.1786 119.417 64.1161 119.461 64.0625 119.517C64.0089 119.57 63.9665 119.634 63.9353 119.708C63.904 119.779 63.8884 119.856 63.8884 119.939L63.8884 120.083C63.8884 120.165 63.904 120.243 63.9353 120.317C63.9665 120.388 64.0089 120.451 64.0625 120.504C64.1161 120.558 64.1786 120.6 64.25 120.632C64.3237 120.663 64.4018 120.679 64.4844 120.679L64.7589 120.679C64.8415 120.679 64.9185 120.663 64.99 120.632C65.0636 120.6 65.1272 120.558 65.1808 120.504C65.2344 120.451 65.2768 120.388 65.308 120.317C65.3393 120.243 65.3549 120.165 65.3549 120.083L65.3549 119.339Z" fill="#CEFDDE"/>
<path d="M69.5692 170.112C69.5692 169.949 69.6027 169.796 69.6696 169.653C69.7344 169.51 69.8225 169.385 69.9342 169.278C70.0435 169.171 70.1719 169.086 70.3192 169.023C70.4643 168.963 70.6183 168.933 70.7813 168.933L71.1261 168.933C71.2891 168.933 71.4442 168.963 71.5915 169.023C71.7366 169.086 71.865 169.171 71.9766 169.278C72.0859 169.385 72.1741 169.51 72.2411 169.653C72.3058 169.796 72.3382 169.949 72.3382 170.112L72.3382 170.302L71.9063 170.373L71.9063 170.112C71.9063 170.004 71.885 169.904 71.8426 169.81C71.798 169.719 71.7388 169.637 71.6652 169.566C71.5915 169.497 71.5067 169.442 71.4107 169.402C71.3125 169.362 71.2098 169.342 71.1027 169.342L70.8013 169.342C70.6942 169.342 70.5926 169.362 70.4967 169.402C70.4007 169.442 70.3158 169.497 70.2422 169.566C70.1685 169.637 70.1105 169.719 70.0681 169.81C70.0234 169.904 70.0011 170.004 70.0011 170.112L70.0011 170.256C70.0011 170.421 70.0335 170.558 70.0982 170.667C70.1629 170.777 70.2489 170.869 70.356 170.945C70.4632 171.023 70.5848 171.089 70.721 171.143C70.8549 171.196 70.9933 171.25 71.1362 171.304C71.279 171.357 71.4185 171.416 71.5547 171.481C71.6886 171.546 71.8092 171.626 71.9163 171.722C72.0234 171.82 72.1094 171.94 72.1741 172.08C72.2388 172.221 72.2712 172.394 72.2712 172.599L72.2712 172.69C72.2712 172.853 72.2411 173.006 72.1808 173.148C72.1183 173.291 72.0335 173.416 71.9263 173.523C71.8192 173.631 71.6942 173.714 71.5513 173.775C71.4063 173.837 71.2522 173.868 71.0893 173.868L70.7813 173.868C70.6183 173.868 70.4654 173.837 70.3225 173.775C70.1797 173.714 70.0547 173.631 69.9475 173.523C69.8404 173.416 69.7567 173.291 69.6964 173.148C69.6339 173.006 69.6027 172.853 69.6027 172.69L69.6027 172.566L70.0346 172.496L70.0346 172.69C70.0346 172.797 70.0547 172.896 70.0949 172.988C70.135 173.081 70.1897 173.163 70.2589 173.232C70.3281 173.301 70.4096 173.356 70.5033 173.396C70.5949 173.436 70.6942 173.456 70.8013 173.456L71.0692 173.456C71.1763 173.456 71.2768 173.436 71.3705 173.396C71.4621 173.356 71.5435 173.301 71.615 173.232C71.6842 173.163 71.7388 173.081 71.779 172.988C71.8192 172.896 71.8393 172.797 71.8393 172.69L71.8393 172.599C71.8393 172.445 71.8069 172.316 71.7422 172.211C71.6775 172.106 71.5915 172.016 71.4844 171.94C71.3772 171.866 71.2567 171.801 71.1228 171.746C70.9866 171.692 70.8471 171.636 70.7042 171.578C70.5614 171.522 70.423 171.46 70.2891 171.391C70.1529 171.324 70.0313 171.24 69.9241 171.14C69.817 171.041 69.731 170.921 69.6663 170.778C69.6016 170.635 69.5692 170.461 69.5692 170.256L69.5692 170.112ZM66.6228 169L66.8504 169.348C66.9442 169.221 67.0614 169.119 67.202 169.044C67.3426 168.97 67.4967 168.933 67.6641 168.933L67.7679 168.933C67.9063 168.933 68.0368 168.959 68.1596 169.01C68.2824 169.064 68.3895 169.136 68.481 169.228C68.5725 169.319 68.6451 169.426 68.6987 169.549C68.75 169.672 68.7757 169.802 68.7757 169.941L68.7757 172.429L68.3638 172.429L68.3638 169.917C68.3638 169.835 68.3482 169.757 68.317 169.683C68.2857 169.612 68.2433 169.549 68.1897 169.496C68.1362 169.442 68.0737 169.4 68.0022 169.368C67.9286 169.337 67.8504 169.321 67.7679 169.321L67.4933 169.321C67.4107 169.321 67.3337 169.337 67.2623 169.368C67.1886 169.4 67.125 169.442 67.0714 169.496C67.0179 169.549 66.9754 169.612 66.9442 169.683C66.9129 169.757 66.8973 169.835 66.8973 169.917L66.8973 172.429L66.4855 172.429L66.4855 169L66.6228 169ZM63.7835 169L63.7835 171.511C63.7835 171.594 63.7991 171.671 63.8304 171.742C63.8616 171.816 63.904 171.879 63.9576 171.933C64.0112 171.987 64.0748 172.029 64.1484 172.06C64.2199 172.092 64.2969 172.107 64.3795 172.107L64.654 172.107C64.7366 172.107 64.8147 172.092 64.8884 172.06C64.9598 172.029 65.0223 171.987 65.0759 171.933C65.1295 171.879 65.1719 171.816 65.2031 171.742C65.2344 171.671 65.25 171.594 65.25 171.511L65.25 169L65.6618 169L65.6618 172.429L65.5246 172.429L65.3002 172.08C65.2065 172.208 65.0893 172.308 64.9487 172.382C64.8058 172.458 64.6507 172.496 64.4833 172.496L64.3795 172.496C64.2411 172.496 64.1105 172.469 63.9877 172.415C63.865 172.364 63.7578 172.292 63.6663 172.201C63.5748 172.109 63.5033 172.002 63.452 171.879C63.3984 171.757 63.3717 171.626 63.3717 171.488L63.3717 169L63.7835 169ZM61.3694 173.41C61.4386 173.41 61.5033 173.396 61.5636 173.369C61.6217 173.345 61.673 173.31 61.7176 173.266C61.7623 173.221 61.798 173.169 61.8248 173.108C61.8493 173.048 61.8616 172.983 61.8616 172.914L61.8616 172.429L61.0614 172.429L61.0614 172.037L61.8616 172.037L61.8616 169L62.2734 169L62.2734 172.037L62.8929 172.037L62.8929 172.429L62.2734 172.429L62.2734 172.894C62.2734 173.019 62.25 173.136 62.2031 173.246C62.1563 173.357 62.0915 173.454 62.0089 173.537C61.9263 173.619 61.8304 173.684 61.721 173.731C61.6116 173.778 61.4944 173.801 61.3694 173.801L60.9911 173.801L60.9911 173.41L61.3694 173.41ZM60.442 169L60.442 173.801L60.0301 173.801L60.0301 169L60.442 169ZM56.8426 169.941C56.8426 169.802 56.8694 169.672 56.923 169.549C56.9743 169.426 57.0458 169.319 57.1373 169.228C57.2288 169.136 57.3359 169.064 57.4587 169.01C57.5815 168.959 57.7121 168.933 57.8504 168.933L58.125 168.933C58.2634 168.933 58.394 168.959 58.5167 169.01C58.6395 169.064 58.7467 169.136 58.8382 169.228C58.9297 169.319 59.0022 169.426 59.0558 169.549C59.1071 169.672 59.1328 169.802 59.1328 169.941L59.1328 171.488C59.1328 171.626 59.1071 171.757 59.0558 171.879C59.0022 172.002 58.9297 172.109 58.8382 172.201C58.7467 172.292 58.6395 172.364 58.5167 172.415C58.394 172.469 58.2634 172.496 58.125 172.496L57.8504 172.496C57.7121 172.496 57.5815 172.469 57.4587 172.415C57.3359 172.364 57.2288 172.292 57.1373 172.201C57.0458 172.109 56.9743 172.002 56.923 171.879C56.8694 171.757 56.8426 171.626 56.8426 171.488L56.8426 169.941ZM57.2545 171.511C57.2545 171.594 57.2701 171.671 57.3013 171.742C57.3326 171.816 57.375 171.879 57.4286 171.933C57.4821 171.987 57.5458 172.029 57.6194 172.06C57.6908 172.092 57.7679 172.107 57.8504 172.107L58.125 172.107C58.2076 172.107 58.2857 172.092 58.3594 172.06C58.4308 172.029 58.4933 171.987 58.5469 171.933C58.6004 171.879 58.6429 171.816 58.6741 171.742C58.7054 171.671 58.721 171.594 58.721 171.511L58.721 169.917C58.721 169.835 58.7054 169.757 58.6741 169.683C58.6429 169.612 58.6004 169.549 58.5469 169.496C58.4933 169.442 58.4308 169.4 58.3594 169.368C58.2857 169.337 58.2076 169.321 58.125 169.321L57.8504 169.321C57.7679 169.321 57.6908 169.337 57.6194 169.368C57.5458 169.4 57.4821 169.442 57.4286 169.496C57.375 169.549 57.3326 169.612 57.3013 169.683C57.2701 169.757 57.2545 169.835 57.2545 169.917L57.2545 171.511ZM53.1328 169L53.3571 169L54.1607 171.585L54.1741 171.762L54.1875 171.585L54.9911 169L55.2188 169L56.3638 172.429L55.9453 172.429L55.1283 169.837L55.115 169.66L55.1016 169.837L54.298 172.429L54.0502 172.429L53.25 169.837L53.2366 169.66L53.2232 169.837L52.4062 172.429L51.9877 172.429L53.1328 169ZM49.2154 169.941C49.2154 169.802 49.2422 169.672 49.2958 169.549C49.3471 169.426 49.4185 169.319 49.51 169.228C49.6016 169.136 49.7087 169.064 49.8315 169.01C49.9542 168.959 50.0848 168.933 50.2232 168.933L50.4978 168.933C50.6362 168.933 50.7667 168.959 50.8895 169.01C51.0123 169.064 51.1194 169.136 51.2109 169.228C51.3025 169.319 51.375 169.426 51.4286 169.549C51.4799 169.672 51.5056 169.802 51.5056 169.941L51.5056 171.488C51.5056 171.626 51.4799 171.757 51.4286 171.879C51.375 172.002 51.3025 172.109 51.2109 172.201C51.1194 172.292 51.0123 172.364 50.8895 172.415C50.7667 172.469 50.6362 172.496 50.4978 172.496L50.2232 172.496C50.0848 172.496 49.9542 172.469 49.8315 172.415C49.7087 172.364 49.6016 172.292 49.51 172.201C49.4185 172.109 49.3471 172.002 49.2958 171.879C49.2422 171.757 49.2154 171.626 49.2154 171.488L49.2154 170.681L51.0937 170.681L51.0937 169.917C51.0937 169.835 51.0781 169.757 51.0469 169.683C51.0156 169.612 50.9732 169.549 50.9196 169.496C50.8661 169.442 50.8036 169.4 50.7321 169.368C50.6585 169.337 50.5804 169.321 50.4978 169.321L50.2232 169.321C50.1406 169.321 50.0636 169.337 49.9922 169.368C49.9185 169.4 49.8549 169.442 49.8013 169.496C49.7478 169.549 49.7054 169.612 49.6741 169.683C49.6429 169.757 49.6272 169.835 49.6272 169.917L49.6272 170.145L49.2154 170.078L49.2154 169.941ZM49.6272 171.511C49.6272 171.594 49.6429 171.671 49.6741 171.742C49.7054 171.816 49.7478 171.879 49.8013 171.933C49.8549 171.987 49.9185 172.029 49.9922 172.06C50.0636 172.092 50.1406 172.107 50.2232 172.107L50.4978 172.107C50.5804 172.107 50.6585 172.092 50.7321 172.06C50.8036 172.029 50.8661 171.987 50.9196 171.933C50.9732 171.879 51.0156 171.816 51.0469 171.742C51.0781 171.671 51.0937 171.594 51.0937 171.511L51.0937 171.002L49.6272 171.002L49.6272 171.511ZM47.3839 172.037C47.4665 172.037 47.5446 172.021 47.6183 171.99C47.6897 171.959 47.7522 171.916 47.8058 171.863C47.8594 171.809 47.9018 171.746 47.933 171.672C47.9643 171.6 47.9799 171.523 47.9799 171.441L47.9799 169L48.3917 169L48.3917 172.429L48.2545 172.429L48.0301 172.08C47.9364 172.208 47.8192 172.308 47.6786 172.382C47.5357 172.458 47.3806 172.496 47.2132 172.496L46.9721 172.496L46.9721 172.037L47.3839 172.037Z" fill="#CEFDDE"/>
<path d="M86.2734 141.251C86.1105 141.251 85.9576 141.22 85.8147 141.157C85.6719 141.097 85.5469 141.013 85.4397 140.906C85.3326 140.799 85.2478 140.673 85.1853 140.528C85.125 140.385 85.0949 140.232 85.0949 140.069V138.981H83.25V138.549H88.0513V140.069C88.0513 140.232 88.0201 140.385 87.9576 140.528C87.8973 140.673 87.8136 140.799 87.7065 140.906C87.5993 141.013 87.4732 141.097 87.3281 141.157C87.1853 141.22 87.0324 141.251 86.8694 141.251H86.2734ZM86.8694 140.819C86.9766 140.819 87.0759 140.799 87.1674 140.759C87.2612 140.719 87.3426 140.663 87.4118 140.592C87.4833 140.522 87.5391 140.441 87.5792 140.347C87.6194 140.256 87.6395 140.156 87.6395 140.049V138.981H85.5067V140.049C85.5067 140.156 85.5268 140.256 85.567 140.347C85.6071 140.441 85.6618 140.522 85.731 140.592C85.8002 140.663 85.8806 140.719 85.9721 140.759C86.0658 140.799 86.1663 140.819 86.2734 140.819H86.8694ZM83.25 144.094L83.5915 143.866C83.4688 143.772 83.3694 143.655 83.2935 143.515C83.2199 143.374 83.183 143.22 83.183 143.052V142.949C83.183 142.81 83.2087 142.68 83.26 142.557C83.3136 142.434 83.3862 142.327 83.4777 142.235C83.5692 142.144 83.6763 142.071 83.7991 142.018C83.9219 141.967 84.0525 141.941 84.1908 141.941H84.2243C84.3627 141.941 84.4933 141.967 84.6161 142.018C84.7388 142.071 84.846 142.144 84.9375 142.235C85.029 142.327 85.1004 142.434 85.1518 142.557C85.2054 142.68 85.2321 142.81 85.2321 142.949V143.819H85.7612C85.8438 143.819 85.9208 143.804 85.9922 143.772C86.0658 143.741 86.1295 143.699 86.183 143.645C86.2366 143.592 86.279 143.528 86.3103 143.454C86.3415 143.383 86.3571 143.306 86.3571 143.223V142.982C86.3571 142.9 86.3415 142.821 86.3103 142.748C86.279 142.676 86.2366 142.614 86.183 142.56C86.1295 142.507 86.0658 142.464 85.9922 142.433C85.9208 142.402 85.8438 142.386 85.7612 142.386H85.6373L85.7042 141.974H85.7377C85.8761 141.974 86.0067 142 86.1295 142.051C86.2522 142.105 86.3594 142.177 86.4509 142.269C86.5424 142.36 86.6138 142.468 86.6652 142.59C86.7188 142.713 86.7455 142.844 86.7455 142.982V143.223C86.7455 143.362 86.7188 143.492 86.6652 143.615C86.6138 143.738 86.5424 143.845 86.4509 143.936C86.3594 144.028 86.2522 144.099 86.1295 144.151C86.0067 144.204 85.8761 144.231 85.7377 144.231H83.25V144.094ZM84.9107 143.819V142.949C84.9107 142.866 84.8951 142.788 84.8638 142.714C84.8326 142.643 84.7891 142.58 84.7333 142.527C84.6797 142.473 84.6161 142.431 84.5424 142.4C84.471 142.368 84.394 142.353 84.3114 142.353H84.1674C84.0848 142.353 84.0067 142.368 83.933 142.4C83.8616 142.431 83.7991 142.473 83.7455 142.527C83.692 142.58 83.6496 142.643 83.6183 142.714C83.5871 142.788 83.5714 142.866 83.5714 142.949V143.223C83.5714 143.306 83.5871 143.383 83.6183 143.454C83.6496 143.528 83.692 143.592 83.7455 143.645C83.7991 143.699 83.8616 143.741 83.933 143.772C84.0067 143.804 84.0848 143.819 84.1674 143.819H84.9107ZM84.1205 147.412C83.9821 147.412 83.8549 147.384 83.7388 147.328C83.625 147.272 83.5268 147.196 83.4442 147.1C83.3616 147.004 83.2969 146.893 83.25 146.766C83.2054 146.641 83.183 146.509 83.183 146.371V146.096C83.183 145.958 83.2087 145.825 83.26 145.698C83.3136 145.573 83.3862 145.462 83.4777 145.366C83.5692 145.272 83.6763 145.196 83.7991 145.138C83.9219 145.083 84.0525 145.055 84.1908 145.055H84.3281L84.3951 145.467H84.1674C84.0848 145.467 84.0067 145.483 83.933 145.517C83.8616 145.552 83.7991 145.599 83.7455 145.657C83.692 145.715 83.6496 145.782 83.6183 145.858C83.5871 145.934 83.5714 146.013 83.5714 146.096V146.371C83.5714 146.453 83.5837 146.532 83.6083 146.608C83.6328 146.684 83.6674 146.751 83.7121 146.809C83.7589 146.869 83.8147 146.916 83.8795 146.95C83.9442 146.985 84.0179 147.003 84.1004 147.003C84.2232 147.003 84.3237 146.977 84.4018 146.923C84.4799 146.869 84.5446 146.798 84.596 146.709C84.6496 146.622 84.6931 146.521 84.7266 146.407C84.7623 146.296 84.7969 146.181 84.8304 146.063C84.8661 145.944 84.9063 145.828 84.9509 145.714C84.9955 145.603 85.0536 145.502 85.125 145.413C85.1987 145.326 85.2902 145.256 85.3996 145.202C85.5089 145.148 85.6451 145.122 85.808 145.122C85.9464 145.122 86.0725 145.148 86.1864 145.202C86.3025 145.256 86.4018 145.328 86.4844 145.42C86.567 145.511 86.6306 145.617 86.6752 145.738C86.7221 145.86 86.7455 145.991 86.7455 146.129V146.371C86.7455 146.509 86.7188 146.64 86.6652 146.762C86.6138 146.885 86.5424 146.992 86.4509 147.084C86.3594 147.175 86.2522 147.247 86.1295 147.298C86.0067 147.352 85.8761 147.378 85.7377 147.378H85.7243L85.6574 146.967H85.7612C85.8438 146.967 85.9208 146.951 85.9922 146.92C86.0658 146.888 86.1295 146.846 86.183 146.792C86.2366 146.739 86.279 146.675 86.3103 146.602C86.3415 146.53 86.3571 146.453 86.3571 146.371V146.129C86.3571 146.047 86.3449 145.969 86.3203 145.895C86.2958 145.824 86.26 145.761 86.2132 145.708C86.1685 145.654 86.1138 145.612 86.0491 145.58C85.9844 145.549 85.9107 145.533 85.8281 145.533C85.7098 145.533 85.6127 145.56 85.5368 145.614C85.4632 145.667 85.4007 145.738 85.3493 145.825C85.298 145.914 85.2545 146.015 85.2188 146.126C85.1853 146.24 85.1496 146.355 85.1116 146.471C85.0759 146.589 85.0346 146.704 84.9877 146.816C84.9408 146.93 84.8806 147.03 84.8069 147.117C84.7333 147.206 84.6406 147.278 84.529 147.331C84.4196 147.385 84.2835 147.412 84.1205 147.412ZM83.25 149.451C83.25 149.326 83.2734 149.208 83.3203 149.096C83.3672 148.987 83.4319 148.891 83.5145 148.808C83.5971 148.728 83.6931 148.663 83.8025 148.614C83.9118 148.567 84.029 148.544 84.154 148.544H86.2868V147.927H86.6786V148.544H87.5022L87.5692 148.955H86.6786V149.826H86.2868V148.955H84.1339C84.0647 148.955 84 148.968 83.9397 148.992C83.8817 149.019 83.8304 149.055 83.7857 149.099C83.7411 149.144 83.7054 149.196 83.6786 149.257C83.654 149.317 83.6417 149.382 83.6417 149.451V149.826H83.25V149.451Z" fill="#CEFDDE"/>
</g>
<rect x="27.415" y="113.165" width="63.67" height="63.67" stroke="#66FF99" stroke-opacity="0.7" stroke-width="0.33"/>
<g clip-path="url(#clip4_135_4616)">
<rect x="97.75" y="113" width="64" height="64" fill="black" fill-opacity="0.5"/>
<path d="M134.536 173.39L134.536 169L134.968 169L134.968 173.39L136.113 173.39L136.113 173.801L133.391 173.801L133.391 173.39L134.536 173.39ZM130.823 169.941C130.823 169.802 130.849 169.672 130.903 169.549C130.954 169.426 131.026 169.319 131.117 169.228C131.209 169.136 131.316 169.064 131.439 169.01C131.561 168.959 131.692 168.933 131.83 168.933L132.105 168.933C132.243 168.933 132.374 168.959 132.497 169.01C132.619 169.064 132.727 169.136 132.818 169.228C132.91 169.319 132.982 169.426 133.036 169.549C133.087 169.672 133.113 169.802 133.113 169.941L133.113 171.488C133.113 171.626 133.087 171.757 133.036 171.879C132.982 172.002 132.91 172.109 132.818 172.201C132.727 172.292 132.619 172.364 132.497 172.415C132.374 172.469 132.243 172.496 132.105 172.496L131.83 172.496C131.692 172.496 131.561 172.469 131.439 172.415C131.316 172.364 131.209 172.292 131.117 172.201C131.026 172.109 130.954 172.002 130.903 171.879C130.849 171.757 130.823 171.626 130.823 171.488L130.823 170.681L132.701 170.681L132.701 169.917C132.701 169.835 132.685 169.757 132.654 169.683C132.623 169.612 132.58 169.549 132.527 169.496C132.473 169.442 132.411 169.4 132.339 169.368C132.266 169.337 132.188 169.321 132.105 169.321L131.83 169.321C131.748 169.321 131.671 169.337 131.599 169.368C131.526 169.4 131.462 169.442 131.408 169.496C131.355 169.549 131.313 169.612 131.281 169.683C131.25 169.757 131.234 169.835 131.234 169.917L131.234 170.145L130.823 170.078L130.823 169.941ZM131.234 171.511C131.234 171.594 131.25 171.671 131.281 171.742C131.313 171.816 131.355 171.879 131.408 171.933C131.462 171.987 131.526 172.029 131.599 172.06C131.671 172.092 131.748 172.107 131.83 172.107L132.105 172.107C132.188 172.107 132.266 172.092 132.339 172.06C132.411 172.029 132.473 171.987 132.527 171.933C132.58 171.879 132.623 171.816 132.654 171.742C132.685 171.671 132.701 171.594 132.701 171.511L132.701 171.002L131.234 171.002L131.234 171.511ZM128.224 169L128.958 170.316L129.691 169L130.136 169L129.175 170.714L130.136 172.429L129.691 172.429L128.958 171.113L128.224 172.429L127.779 172.429L128.737 170.714L127.779 169L128.224 169ZM125.844 169C125.969 169 126.087 169.023 126.199 169.07C126.308 169.117 126.404 169.182 126.487 169.265C126.567 169.347 126.632 169.443 126.681 169.552C126.728 169.662 126.751 169.779 126.751 169.904L126.751 172.037L127.367 172.037L127.367 172.429L126.751 172.429L126.751 173.252L126.339 173.319L126.339 172.429L125.469 172.429L125.469 172.037L126.339 172.037L126.339 169.884C126.339 169.815 126.327 169.75 126.302 169.69C126.276 169.632 126.24 169.58 126.195 169.536C126.151 169.491 126.098 169.455 126.038 169.429C125.978 169.404 125.913 169.392 125.844 169.392L125.469 169.392L125.469 169L125.844 169Z" fill="#CCFFDC"/>
<path d="M104.571 148.249C104.734 148.249 104.887 148.28 105.03 148.343C105.173 148.403 105.298 148.487 105.405 148.594C105.512 148.701 105.597 148.827 105.66 148.972C105.72 149.115 105.75 149.268 105.75 149.431L105.75 150.951L100.949 150.951L100.949 149.431C100.949 149.268 100.98 149.115 101.042 148.972C101.103 148.827 101.186 148.701 101.294 148.594C101.401 148.487 101.527 148.403 101.672 148.343C101.815 148.28 101.968 148.249 102.131 148.249L104.571 148.249ZM102.131 148.681C102.023 148.681 101.924 148.701 101.833 148.741C101.739 148.781 101.657 148.837 101.588 148.908C101.517 148.978 101.461 149.059 101.421 149.153C101.381 149.244 101.36 149.344 101.36 149.451L101.36 150.519L105.338 150.519L105.338 149.451C105.338 149.344 105.318 149.244 105.278 149.153C105.238 149.059 105.183 148.978 105.114 148.908C105.045 148.837 104.964 148.781 104.873 148.741C104.779 148.701 104.679 148.681 104.571 148.681L102.131 148.681ZM104.809 145.068C104.948 145.068 105.078 145.095 105.201 145.148C105.324 145.2 105.431 145.271 105.522 145.363C105.614 145.454 105.686 145.561 105.74 145.684C105.791 145.807 105.817 145.937 105.817 146.076L105.817 146.35C105.817 146.489 105.791 146.619 105.74 146.742C105.686 146.865 105.614 146.972 105.522 147.064C105.431 147.155 105.324 147.228 105.201 147.281C105.078 147.333 104.948 147.358 104.809 147.358L103.262 147.358C103.124 147.358 102.993 147.333 102.871 147.281C102.748 147.228 102.641 147.155 102.549 147.064C102.458 146.972 102.386 146.865 102.335 146.742C102.281 146.619 102.254 146.489 102.254 146.35L102.254 146.076C102.254 145.937 102.281 145.807 102.335 145.684C102.386 145.561 102.458 145.454 102.549 145.363C102.641 145.271 102.748 145.2 102.871 145.148C102.993 145.095 103.124 145.068 103.262 145.068L104.809 145.068ZM103.239 145.48C103.156 145.48 103.079 145.496 103.008 145.527C102.934 145.558 102.871 145.6 102.817 145.654C102.763 145.708 102.721 145.771 102.69 145.845C102.658 145.916 102.643 145.993 102.643 146.076L102.643 146.35C102.643 146.433 102.658 146.511 102.69 146.585C102.721 146.656 102.763 146.719 102.817 146.772C102.871 146.826 102.934 146.868 103.008 146.9C103.079 146.931 103.156 146.946 103.239 146.946L104.833 146.946C104.915 146.946 104.993 146.931 105.067 146.9C105.138 146.868 105.201 146.826 105.254 146.772C105.308 146.719 105.35 146.656 105.382 146.585C105.413 146.511 105.429 146.433 105.429 146.35L105.429 146.076C105.429 145.993 105.413 145.916 105.382 145.845C105.35 145.771 105.308 145.708 105.254 145.654C105.201 145.6 105.138 145.558 105.067 145.527C104.993 145.496 104.915 145.48 104.833 145.48L103.239 145.48ZM104.809 141.954C104.948 141.954 105.078 141.981 105.201 142.035C105.324 142.086 105.431 142.157 105.522 142.249C105.614 142.34 105.686 142.448 105.74 142.57C105.791 142.693 105.817 142.824 105.817 142.962L105.817 143.237C105.817 143.375 105.791 143.506 105.74 143.628C105.686 143.751 105.614 143.858 105.522 143.95C105.431 144.041 105.324 144.114 105.201 144.167C105.078 144.219 104.948 144.244 104.809 144.244L103.262 144.244C103.124 144.244 102.993 144.219 102.871 144.167C102.748 144.114 102.641 144.041 102.549 143.95C102.458 143.858 102.386 143.751 102.335 143.628C102.281 143.506 102.254 143.375 102.254 143.237L102.254 142.962C102.254 142.824 102.281 142.693 102.335 142.57C102.386 142.448 102.458 142.34 102.549 142.249C102.641 142.157 102.748 142.086 102.871 142.035C102.993 141.981 103.124 141.954 103.262 141.954L104.809 141.954ZM103.239 142.366C103.156 142.366 103.079 142.382 103.008 142.413C102.934 142.444 102.871 142.487 102.817 142.54C102.763 142.594 102.721 142.657 102.69 142.731C102.658 142.802 102.643 142.879 102.643 142.962L102.643 143.237C102.643 143.319 102.658 143.397 102.69 143.471C102.721 143.542 102.763 143.605 102.817 143.658C102.871 143.712 102.934 143.754 103.008 143.786C103.079 143.817 103.156 143.833 103.239 143.833L104.833 143.833C104.915 143.833 104.993 143.817 105.067 143.786C105.138 143.754 105.201 143.712 105.254 143.658C105.308 143.605 105.35 143.542 105.382 143.471C105.413 143.397 105.429 143.319 105.429 143.237L105.429 142.962C105.429 142.879 105.413 142.802 105.382 142.731C105.35 142.657 105.308 142.594 105.254 142.54C105.201 142.487 105.138 142.444 105.067 142.413C104.993 142.382 104.915 142.366 104.833 142.366L103.239 142.366ZM102.713 140.123C102.713 140.205 102.729 140.283 102.76 140.357C102.791 140.429 102.834 140.491 102.887 140.545C102.941 140.598 103.004 140.641 103.078 140.672C103.15 140.703 103.227 140.719 103.309 140.719L105.75 140.719L105.75 141.131L102.321 141.131L102.321 140.993L102.67 140.769C102.542 140.675 102.442 140.558 102.368 140.417C102.292 140.275 102.254 140.119 102.254 139.952L102.254 139.711L102.713 139.711L102.713 140.123Z" fill="#CCFFDC"/>
<path d="M154.862 140.202C154.699 140.202 154.546 140.171 154.403 140.108C154.26 140.048 154.135 139.964 154.028 139.857C153.921 139.75 153.836 139.625 153.773 139.482C153.713 139.339 153.683 139.186 153.683 139.023L153.683 138.886C153.683 138.723 153.713 138.569 153.773 138.424C153.836 138.281 153.921 138.156 154.028 138.049C154.135 137.942 154.26 137.857 154.403 137.795C154.546 137.734 154.699 137.704 154.862 137.704L155.052 137.704L155.123 138.136L154.862 138.136C154.754 138.136 154.654 138.156 154.56 138.196C154.469 138.237 154.387 138.291 154.316 138.36C154.247 138.432 154.192 138.513 154.152 138.605C154.112 138.699 154.092 138.799 154.092 138.906L154.092 139.003C154.092 139.108 154.112 139.208 154.152 139.301C154.192 139.395 154.247 139.477 154.316 139.546C154.387 139.615 154.469 139.67 154.56 139.71C154.654 139.75 154.754 139.77 154.862 139.77L158.551 139.77L158.551 140.202L154.862 140.202ZM153.75 143.179L154.098 142.951C153.971 142.857 153.869 142.74 153.794 142.599C153.72 142.459 153.683 142.305 153.683 142.137L153.683 142.033C153.683 141.895 153.709 141.765 153.76 141.642C153.814 141.519 153.886 141.412 153.978 141.32C154.069 141.229 154.176 141.156 154.299 141.103C154.422 141.051 154.552 141.026 154.691 141.026L157.179 141.026L157.179 141.437L154.667 141.437C154.585 141.437 154.507 141.453 154.433 141.484C154.362 141.516 154.299 141.558 154.246 141.612C154.192 141.665 154.15 141.728 154.118 141.799C154.087 141.873 154.071 141.951 154.071 142.033L154.071 142.308C154.071 142.391 154.087 142.468 154.118 142.539C154.15 142.613 154.192 142.676 154.246 142.73C154.299 142.783 154.362 142.826 154.433 142.857C154.507 142.888 154.585 142.904 154.667 142.904L157.179 142.904L157.179 143.316L153.75 143.316L153.75 143.179ZM158.002 144.243L158.551 144.243L158.551 144.722L158.002 144.722L158.002 144.243ZM153.75 144.277L157.179 144.277L157.179 144.689L153.75 144.689L153.75 144.277ZM154.691 147.943C154.552 147.943 154.422 147.916 154.299 147.863C154.176 147.811 154.069 147.74 153.978 147.648C153.886 147.557 153.814 147.45 153.76 147.327C153.709 147.204 153.683 147.074 153.683 146.935L153.683 146.661C153.683 146.522 153.709 146.392 153.76 146.269C153.814 146.146 153.886 146.039 153.978 145.948C154.069 145.856 154.176 145.783 154.299 145.73C154.422 145.679 154.552 145.653 154.691 145.653L156.238 145.653C156.376 145.653 156.507 145.679 156.629 145.73C156.752 145.783 156.859 145.856 156.951 145.948C157.042 146.039 157.114 146.146 157.165 146.269C157.219 146.392 157.246 146.522 157.246 146.661L157.246 146.935C157.246 147.074 157.219 147.204 157.165 147.327C157.114 147.45 157.042 147.557 156.951 147.648C156.859 147.74 156.752 147.811 156.629 147.863C156.507 147.916 156.376 147.943 156.238 147.943L156.1 147.943L156.033 147.531L156.261 147.531C156.344 147.531 156.421 147.516 156.492 147.484C156.566 147.453 156.629 147.411 156.683 147.357C156.737 147.304 156.779 147.24 156.81 147.166C156.842 147.095 156.857 147.018 156.857 146.935L156.857 146.661C156.857 146.578 156.842 146.5 156.81 146.426C156.779 146.355 156.737 146.292 156.683 146.239C156.629 146.185 156.566 146.143 156.492 146.112C156.421 146.08 156.344 146.065 156.261 146.065L154.667 146.065C154.585 146.065 154.507 146.08 154.433 146.112C154.362 146.143 154.299 146.185 154.246 146.239C154.192 146.292 154.15 146.355 154.118 146.426C154.087 146.5 154.071 146.578 154.071 146.661L154.071 146.935C154.071 147.018 154.087 147.095 154.118 147.166C154.15 147.24 154.192 147.304 154.246 147.357C154.299 147.411 154.362 147.453 154.433 147.484C154.507 147.516 154.585 147.531 154.667 147.531L154.895 147.531L154.828 147.943L154.691 147.943ZM154.691 151.057C154.552 151.057 154.422 151.03 154.299 150.977C154.176 150.925 154.069 150.854 153.978 150.762C153.886 150.671 153.814 150.564 153.76 150.441C153.709 150.318 153.683 150.187 153.683 150.049L153.683 149.775C153.683 149.636 153.709 149.506 153.76 149.383C153.814 149.26 153.886 149.153 153.978 149.061C154.069 148.97 154.176 148.897 154.299 148.844C154.422 148.792 154.552 148.767 154.691 148.767L156.238 148.767C156.376 148.767 156.507 148.792 156.629 148.844C156.752 148.897 156.859 148.97 156.951 149.061C157.042 149.153 157.114 149.26 157.165 149.383C157.219 149.506 157.246 149.636 157.246 149.775L157.246 150.049C157.246 150.188 157.219 150.318 157.165 150.441C157.114 150.564 157.042 150.671 156.951 150.762C156.859 150.854 156.752 150.925 156.629 150.977C156.507 151.03 156.376 151.057 156.238 151.057L155.431 151.057L155.431 149.179L154.667 149.179C154.585 149.179 154.507 149.194 154.433 149.225C154.362 149.257 154.299 149.299 154.246 149.353C154.192 149.406 154.15 149.469 154.118 149.54C154.087 149.614 154.071 149.692 154.071 149.775L154.071 150.049C154.071 150.132 154.087 150.209 154.118 150.28C154.15 150.354 154.192 150.417 154.246 150.471C154.299 150.525 154.362 150.567 154.433 150.598C154.507 150.629 154.585 150.645 154.667 150.645L154.895 150.645L154.828 151.057L154.691 151.057ZM156.261 150.645C156.344 150.645 156.421 150.629 156.492 150.598C156.566 150.567 156.629 150.525 156.683 150.471C156.737 150.417 156.779 150.354 156.81 150.28C156.842 150.209 156.857 150.132 156.857 150.049L156.857 149.775C156.857 149.692 156.842 149.614 156.81 149.54C156.779 149.469 156.737 149.406 156.683 149.353C156.629 149.299 156.566 149.257 156.492 149.225C156.421 149.194 156.344 149.179 156.261 149.179L155.752 149.179L155.752 150.645L156.261 150.645Z" fill="#CCFFDC"/>
<path d="M122.001 117.977C122.001 118.14 121.97 118.292 121.907 118.435C121.847 118.578 121.763 118.703 121.656 118.81C121.549 118.917 121.423 119.002 121.278 119.065C121.135 119.125 120.982 119.155 120.819 119.155H119.731V121H119.299V116.199H120.819C120.982 116.199 121.135 116.23 121.278 116.292C121.423 116.353 121.549 116.436 121.656 116.544C121.763 116.651 121.847 116.777 121.907 116.922C121.97 117.065 122.001 117.218 122.001 117.381V117.977ZM121.569 117.381C121.569 117.273 121.549 117.174 121.509 117.083C121.469 116.989 121.413 116.907 121.342 116.838C121.272 116.767 121.191 116.711 121.097 116.671C121.006 116.631 120.906 116.61 120.799 116.61H119.731V118.743H120.799C120.906 118.743 121.006 118.723 121.097 118.683C121.191 118.643 121.272 118.588 121.342 118.519C121.413 118.45 121.469 118.369 121.509 118.278C121.549 118.184 121.569 118.084 121.569 117.977V117.381ZM123.699 117.963C123.616 117.963 123.538 117.979 123.464 118.01C123.393 118.041 123.33 118.084 123.277 118.137C123.223 118.191 123.181 118.254 123.15 118.328C123.118 118.4 123.103 118.477 123.103 118.559V121H122.691V117.571H122.828L123.052 117.92C123.146 117.792 123.263 117.692 123.404 117.618C123.547 117.542 123.702 117.504 123.869 117.504H124.11V117.963H123.699ZM126.95 120.059C126.95 120.198 126.923 120.328 126.869 120.451C126.818 120.574 126.747 120.681 126.655 120.772C126.564 120.864 126.456 120.936 126.334 120.99C126.211 121.041 126.08 121.067 125.942 121.067H125.667C125.529 121.067 125.398 121.041 125.276 120.99C125.153 120.936 125.046 120.864 124.954 120.772C124.863 120.681 124.79 120.574 124.737 120.451C124.685 120.328 124.66 120.198 124.66 120.059V118.512C124.66 118.374 124.685 118.243 124.737 118.121C124.79 117.998 124.863 117.891 124.954 117.799C125.046 117.708 125.153 117.636 125.276 117.585C125.398 117.531 125.529 117.504 125.667 117.504H125.942C126.08 117.504 126.211 117.531 126.334 117.585C126.456 117.636 126.564 117.708 126.655 117.799C126.747 117.891 126.818 117.998 126.869 118.121C126.923 118.243 126.95 118.374 126.95 118.512V119.319H125.071V120.083C125.071 120.165 125.087 120.243 125.118 120.317C125.15 120.388 125.192 120.451 125.246 120.504C125.299 120.558 125.362 120.6 125.433 120.632C125.507 120.663 125.585 120.679 125.667 120.679H125.942C126.025 120.679 126.102 120.663 126.173 120.632C126.247 120.6 126.31 120.558 126.364 120.504C126.417 120.451 126.46 120.388 126.491 120.317C126.522 120.243 126.538 120.165 126.538 120.083V119.855L126.95 119.922V120.059ZM126.538 118.489C126.538 118.406 126.522 118.329 126.491 118.258C126.46 118.184 126.417 118.121 126.364 118.067C126.31 118.013 126.247 117.971 126.173 117.94C126.102 117.908 126.025 117.893 125.942 117.893H125.667C125.585 117.893 125.507 117.908 125.433 117.94C125.362 117.971 125.299 118.013 125.246 118.067C125.192 118.121 125.15 118.184 125.118 118.258C125.087 118.329 125.071 118.406 125.071 118.489V118.998H126.538V118.489ZM130.131 120.129C130.131 120.268 130.103 120.395 130.047 120.511C129.991 120.625 129.915 120.723 129.819 120.806C129.723 120.888 129.612 120.953 129.484 121C129.359 121.045 129.228 121.067 129.089 121.067H128.815C128.676 121.067 128.544 121.041 128.416 120.99C128.291 120.936 128.181 120.864 128.085 120.772C127.991 120.681 127.915 120.574 127.857 120.451C127.801 120.328 127.773 120.198 127.773 120.059V119.922L128.185 119.855V120.083C128.185 120.165 128.202 120.243 128.235 120.317C128.271 120.388 128.318 120.451 128.376 120.504C128.434 120.558 128.501 120.6 128.577 120.632C128.653 120.663 128.732 120.679 128.815 120.679H129.089C129.172 120.679 129.251 120.666 129.327 120.642C129.403 120.617 129.47 120.583 129.528 120.538C129.588 120.491 129.635 120.435 129.669 120.371C129.704 120.306 129.722 120.232 129.722 120.15C129.722 120.027 129.695 119.926 129.642 119.848C129.588 119.77 129.517 119.705 129.427 119.654C129.34 119.6 129.24 119.557 129.126 119.523C129.015 119.488 128.9 119.453 128.781 119.42C128.663 119.384 128.547 119.344 128.433 119.299C128.321 119.254 128.221 119.196 128.132 119.125C128.045 119.051 127.974 118.96 127.921 118.85C127.867 118.741 127.84 118.605 127.84 118.442C127.84 118.304 127.867 118.177 127.921 118.064C127.974 117.948 128.047 117.848 128.138 117.766C128.23 117.683 128.336 117.619 128.456 117.575C128.579 117.528 128.71 117.504 128.848 117.504H129.089C129.228 117.504 129.358 117.531 129.481 117.585C129.604 117.636 129.711 117.708 129.802 117.799C129.894 117.891 129.965 117.998 130.017 118.121C130.07 118.243 130.097 118.374 130.097 118.512V118.526L129.685 118.593V118.489C129.685 118.406 129.67 118.329 129.638 118.258C129.607 118.184 129.565 118.121 129.511 118.067C129.458 118.013 129.394 117.971 129.32 117.94C129.249 117.908 129.172 117.893 129.089 117.893H128.848C128.766 117.893 128.688 117.905 128.614 117.93C128.542 117.954 128.48 117.99 128.426 118.037C128.373 118.081 128.33 118.136 128.299 118.201C128.268 118.266 128.252 118.339 128.252 118.422C128.252 118.54 128.279 118.637 128.333 118.713C128.386 118.787 128.456 118.849 128.544 118.901C128.633 118.952 128.733 118.996 128.845 119.031C128.959 119.065 129.074 119.1 129.19 119.138C129.308 119.174 129.423 119.215 129.535 119.262C129.648 119.309 129.749 119.369 129.836 119.443C129.925 119.517 129.997 119.609 130.05 119.721C130.104 119.83 130.131 119.967 130.131 120.129ZM133.211 120.059C133.211 120.198 133.184 120.328 133.131 120.451C133.079 120.574 133.008 120.681 132.916 120.772C132.825 120.864 132.718 120.936 132.595 120.99C132.472 121.041 132.342 121.067 132.203 121.067H131.929C131.79 121.067 131.66 121.041 131.537 120.99C131.414 120.936 131.307 120.864 131.215 120.772C131.124 120.681 131.051 120.574 130.998 120.451C130.946 120.328 130.921 120.198 130.921 120.059V118.512C130.921 118.374 130.946 118.243 130.998 118.121C131.051 117.998 131.124 117.891 131.215 117.799C131.307 117.708 131.414 117.636 131.537 117.585C131.66 117.531 131.79 117.504 131.929 117.504H132.203C132.342 117.504 132.472 117.531 132.595 117.585C132.718 117.636 132.825 117.708 132.916 117.799C133.008 117.891 133.079 117.998 133.131 118.121C133.184 118.243 133.211 118.374 133.211 118.512V119.319H131.333V120.083C131.333 120.165 131.348 120.243 131.379 120.317C131.411 120.388 131.453 120.451 131.507 120.504C131.56 120.558 131.623 120.6 131.694 120.632C131.768 120.663 131.846 120.679 131.929 120.679H132.203C132.286 120.679 132.363 120.663 132.434 120.632C132.508 120.6 132.571 120.558 132.625 120.504C132.679 120.451 132.721 120.388 132.752 120.317C132.783 120.243 132.799 120.165 132.799 120.083V119.855L133.211 119.922V120.059ZM132.799 118.489C132.799 118.406 132.783 118.329 132.752 118.258C132.721 118.184 132.679 118.121 132.625 118.067C132.571 118.013 132.508 117.971 132.434 117.94C132.363 117.908 132.286 117.893 132.203 117.893H131.929C131.846 117.893 131.768 117.908 131.694 117.94C131.623 117.971 131.56 118.013 131.507 118.067C131.453 118.121 131.411 118.184 131.379 118.258C131.348 118.329 131.333 118.406 131.333 118.489V118.998H132.799V118.489ZM135.913 121V118.489C135.913 118.406 135.897 118.329 135.866 118.258C135.835 118.184 135.792 118.121 135.739 118.067C135.685 118.013 135.622 117.971 135.548 117.94C135.477 117.908 135.4 117.893 135.317 117.893H135.042C134.96 117.893 134.882 117.908 134.808 117.94C134.737 117.971 134.674 118.013 134.621 118.067C134.567 118.121 134.525 118.184 134.493 118.258C134.462 118.329 134.446 118.406 134.446 118.489V121H134.035V117.571H134.172L134.396 117.92C134.49 117.792 134.607 117.692 134.748 117.618C134.891 117.542 135.046 117.504 135.213 117.504H135.317C135.455 117.504 135.586 117.531 135.709 117.585C135.831 117.636 135.939 117.708 136.03 117.799C136.122 117.891 136.193 117.998 136.244 118.121C136.298 118.243 136.325 118.374 136.325 118.512V121H135.913ZM138.397 121C138.272 121 138.154 120.977 138.042 120.93C137.933 120.883 137.837 120.818 137.754 120.735C137.674 120.653 137.609 120.557 137.56 120.448C137.513 120.338 137.49 120.221 137.49 120.096V117.963H136.874V117.571H137.49V116.748L137.902 116.681V117.571H138.772V117.963H137.902V120.116C137.902 120.185 137.914 120.25 137.939 120.31C137.965 120.368 138.001 120.42 138.046 120.464C138.09 120.509 138.143 120.545 138.203 120.571C138.263 120.596 138.328 120.608 138.397 120.608H138.772V121H138.397Z" fill="#CCFFDC"/>
</g>
<rect x="97.915" y="113.165" width="63.67" height="63.67" stroke="#4EBD7B" stroke-width="0.33"/>
<path d="M59.7302 144.588C59.5502 144.797 59.5741 145.113 59.7835 145.293C59.9929 145.473 60.3086 145.449 60.4886 145.239L59.7302 144.588ZM129.914 64.2287C129.893 63.9534 129.653 63.747 129.378 63.7679L124.891 64.1072C124.615 64.1281 124.409 64.3682 124.43 64.6435C124.451 64.9189 124.691 65.1252 124.966 65.1044L128.955 64.8027L129.256 68.7913C129.277 69.0667 129.517 69.273 129.793 69.2522C130.068 69.2314 130.274 68.9913 130.254 68.7159L129.914 64.2287ZM60.4886 145.239L129.795 64.5923L129.036 63.9406L59.7302 144.588L60.4886 145.239Z" fill="#FFD666"/>
<path d="M129.795 144.588C129.975 144.797 129.951 145.113 129.741 145.293C129.532 145.473 129.216 145.449 129.036 145.239L129.795 144.588ZM59.6107 64.2287C59.6315 63.9534 59.8716 63.747 60.1469 63.7679L64.6341 64.1072C64.9095 64.1281 65.1158 64.3682 65.095 64.6435C65.0742 64.9189 64.8341 65.1252 64.5587 65.1044L60.5701 64.8027L60.2684 68.7913C60.2476 69.0667 60.0075 69.273 59.7322 69.2522C59.4568 69.2314 59.2505 68.9913 59.2713 68.7159L59.6107 64.2287ZM129.036 145.239L59.73 64.5923L60.4884 63.9406L129.795 144.588L129.036 145.239Z" fill="#FFD666"/>
</g>
<defs>
<radialGradient id="paint0_radial_135_4616" cx="0" cy="0" r="1" gradientUnits="userSpaceOnUse" gradientTransform="translate(94.5 99.5) rotate(-90) scale(94.5 94.5)">
<stop stop-opacity="0"/>
<stop offset="1"/>
</radialGradient>
<linearGradient id="paint1_linear_135_4616" x1="94.5" y1="5.00001" x2="94.5" y2="30" gradientUnits="userSpaceOnUse">
<stop stop-opacity="0.61"/>
<stop offset="1" stop-opacity="0.89"/>
</linearGradient>
<linearGradient id="paint2_linear_135_4616" x1="189" y1="99.5001" x2="164" y2="99.5001" gradientUnits="userSpaceOnUse">
<stop stop-opacity="0.61"/>
<stop offset="1" stop-opacity="0.89"/>
</linearGradient>
<linearGradient id="paint3_linear_135_4616" x1="3.03794e-06" y1="99.5" x2="25" y2="99.5" gradientUnits="userSpaceOnUse">
<stop stop-opacity="0.61"/>
<stop offset="1" stop-opacity="0.89"/>
</linearGradient>
<linearGradient id="paint4_linear_135_4616" x1="164" y1="30.0001" x2="96.5" y2="100" gradientUnits="userSpaceOnUse">
<stop stop-opacity="0.59"/>
<stop offset="1" stop-opacity="0.13"/>
</linearGradient>
<linearGradient id="paint5_linear_135_4616" x1="25" y1="30.0001" x2="95" y2="97.5001" gradientUnits="userSpaceOnUse">
<stop stop-opacity="0.59"/>
<stop offset="1" stop-opacity="0.13"/>
</linearGradient>
<linearGradient id="paint6_linear_135_4616" x1="7.86805e-07" y1="23" x2="36" y2="23" gradientUnits="userSpaceOnUse">
<stop stop-opacity="0.12"/>
<stop offset="1" stop-color="#0B0A0A"/>
</linearGradient>
<linearGradient id="paint7_linear_135_4616" x1="171" y1="5" x2="171" y2="41" gradientUnits="userSpaceOnUse">
<stop stop-opacity="0.12"/>
<stop offset="1" stop-color="#0B0A0A"/>
</linearGradient>
<clipPath id="clip0_135_4616">
<rect width="189" height="182" fill="white"/>
</clipPath>
<clipPath id="clip1_135_4616">
<rect width="189" height="94" fill="white" transform="matrix(-1 0 0 -1 189 99)"/>
</clipPath>
<clipPath id="clip2_135_4616">
<rect width="189" height="189" fill="white" transform="matrix(-1 0 0 -1 189 194)"/>
</clipPath>
<clipPath id="clip3_135_4616">
<rect x="27.25" y="113" width="64" height="64" fill="white"/>
</clipPath>
<clipPath id="clip4_135_4616">
<rect x="97.75" y="113" width="64" height="64" fill="white"/>
</clipPath>
</defs>
</svg>
