<svg width="189" height="62" viewBox="0 0 189 62" fill="none" xmlns="http://www.w3.org/2000/svg">
<g clip-path="url(#clip0_135_5661)">
<g clip-path="url(#clip1_135_5661)">
<path fill-rule="evenodd" clip-rule="evenodd" d="M36 199L153 199L189 163L189 46.0001L168.291 38.0352L189 46L153 10.0001L36 10.0001L0 46.0001L1.52588e-05 163L36 199Z" fill="#006AFF" fill-opacity="0.8"/>
<g style="mix-blend-mode:luminosity">
<path fill-rule="evenodd" clip-rule="evenodd" d="M153 199L94.5 104.5L189 163L189 46L94.5 104.5L153 10L36 10L94.5 104.5L-5.11423e-06 46L-5.11423e-06 163L94.5 104.5L36 199L153 199Z" fill="url(#paint0_radial_135_5661)" fill-opacity="0.05"/>
<path d="M36 10L153 10L164 35.0001L25 35.0001L36 10Z" fill="url(#paint1_linear_135_5661)" fill-opacity="0.51"/>
<path d="M189 46L189 163L164 174L164 35.0001L189 46Z" fill="url(#paint2_linear_135_5661)" fill-opacity="0.51"/>
<path d="M4.80827e-07 163L5.59506e-06 46L25 35L25 174L4.80827e-07 163Z" fill="url(#paint3_linear_135_5661)" fill-opacity="0.51"/>
<path fill-rule="evenodd" clip-rule="evenodd" d="M164 174L25 174L25 35.0001L164 35.0001L164 174ZM164 174L176 155L176 54.0001L164 35.0001L145 23.0001L44 23.0001L25 35.0001L13 54.0001L13 155L25 174L44 186L145 186L164 174Z" fill="black" fill-opacity="0.05"/>
<path d="M164 35.0001L94.5 35.0001L94.5 104.5L164 104.5L164 35.0001Z" fill="url(#paint4_linear_135_5661)"/>
<path d="M94.5 104.5L94.5 35.0001L25 35.0001L25 104.5L94.5 104.5Z" fill="url(#paint5_linear_135_5661)"/>
<path fill-rule="evenodd" clip-rule="evenodd" d="M94 174H95L95 105L164 105V104L95 104V35.0001H94V104H25V105H94L94 174Z" fill="black" fill-opacity="0.1"/>
<path d="M36 10L0 46L25 35L36 10Z" fill="url(#paint6_linear_135_5661)" fill-opacity="0.33"/>
<path d="M189 46L153 10L164 35L189 46Z" fill="url(#paint7_linear_135_5661)" fill-opacity="0.33"/>
</g>
<g clip-path="url(#clip2_135_5661)">
<path d="M125.251 42.9766C125.251 43.1396 125.22 43.2925 125.157 43.4353C125.097 43.5782 125.013 43.7032 124.906 43.8103C124.799 43.9175 124.673 44.0023 124.528 44.0648C124.385 44.1251 124.232 44.1552 124.069 44.1552L122.981 44.1552L122.981 46.0001L122.549 46.0001L122.549 41.1987L124.069 41.1987C124.232 41.1987 124.385 41.23 124.528 41.2925C124.673 41.3527 124.799 41.4364 124.906 41.5436C125.013 41.6507 125.097 41.7768 125.157 41.9219C125.22 42.0648 125.251 42.2177 125.251 42.3806L125.251 42.9766ZM124.819 42.3806C124.819 42.2735 124.799 42.1742 124.759 42.0827C124.719 41.9889 124.663 41.9074 124.592 41.8382C124.522 41.7668 124.441 41.711 124.347 41.6708C124.256 41.6306 124.156 41.6106 124.049 41.6106L122.981 41.6106L122.981 43.7434L124.049 43.7434C124.156 43.7434 124.256 43.7233 124.347 43.6831C124.441 43.6429 124.522 43.5882 124.592 43.519C124.663 43.4498 124.719 43.3695 124.759 43.278C124.799 43.1842 124.819 43.0838 124.819 42.9766L124.819 42.3806ZM128.094 46.0001L127.866 45.6585C127.772 45.7813 127.655 45.8806 127.515 45.9565C127.374 46.0302 127.22 46.067 127.052 46.067L126.949 46.067C126.81 46.067 126.68 46.0414 126.557 45.99C126.434 45.9364 126.327 45.8639 126.235 45.7724C126.144 45.6809 126.071 45.5737 126.018 45.451C125.967 45.3282 125.941 45.1976 125.941 45.0592L125.941 45.0257C125.941 44.8873 125.967 44.7568 126.018 44.634C126.071 44.5112 126.144 44.4041 126.235 44.3126C126.327 44.221 126.434 44.1496 126.557 44.0983C126.68 44.0447 126.81 44.0179 126.949 44.0179L127.819 44.0179L127.819 43.4889C127.819 43.4063 127.804 43.3293 127.772 43.2579C127.741 43.1842 127.699 43.1206 127.645 43.067C127.592 43.0135 127.528 42.971 127.454 42.9398C127.383 42.9085 127.306 42.8929 127.223 42.8929L126.982 42.8929C126.9 42.8929 126.821 42.9085 126.748 42.9398C126.676 42.971 126.614 43.0135 126.56 43.067C126.507 43.1206 126.464 43.1842 126.433 43.2579C126.402 43.3293 126.386 43.4063 126.386 43.4889L126.386 43.6128L125.974 43.5458L125.974 43.5123C125.974 43.3739 126 43.2434 126.051 43.1206C126.105 42.9978 126.177 42.8907 126.269 42.7992C126.36 42.7077 126.468 42.6362 126.59 42.5849C126.713 42.5313 126.844 42.5045 126.982 42.5045L127.223 42.5045C127.362 42.5045 127.492 42.5313 127.615 42.5849C127.738 42.6362 127.845 42.7077 127.936 42.7992C128.028 42.8907 128.099 42.9978 128.151 43.1206C128.204 43.2434 128.231 43.3739 128.231 43.5123L128.231 46.0001L128.094 46.0001ZM127.819 44.3393L126.949 44.3393C126.866 44.3393 126.788 44.355 126.714 44.3862C126.643 44.4175 126.58 44.461 126.527 44.5168C126.473 44.5704 126.431 44.634 126.4 44.7077C126.368 44.7791 126.353 44.8561 126.353 44.9387L126.353 45.0827C126.353 45.1652 126.368 45.2434 126.4 45.317C126.431 45.3885 126.473 45.451 126.527 45.5045C126.58 45.5581 126.643 45.6005 126.714 45.6318C126.788 45.663 126.866 45.6786 126.949 45.6786L127.223 45.6786C127.306 45.6786 127.383 45.663 127.454 45.6318C127.528 45.6005 127.592 45.5581 127.645 45.5045C127.699 45.451 127.741 45.3885 127.772 45.317C127.804 45.2434 127.819 45.1652 127.819 45.0827L127.819 44.3393ZM131.412 45.1295C131.412 45.2679 131.384 45.3952 131.328 45.5112C131.272 45.6251 131.196 45.7233 131.1 45.8059C131.004 45.8885 130.893 45.9532 130.766 46.0001C130.641 46.0447 130.509 46.067 130.371 46.067L130.096 46.067C129.958 46.067 129.825 46.0414 129.698 45.99C129.573 45.9364 129.462 45.8639 129.366 45.7724C129.272 45.6809 129.196 45.5737 129.138 45.451C129.083 45.3282 129.055 45.1976 129.055 45.0592L129.055 44.9219L129.467 44.855L129.467 45.0827C129.467 45.1652 129.483 45.2434 129.517 45.317C129.552 45.3885 129.599 45.451 129.657 45.5045C129.715 45.5581 129.782 45.6005 129.858 45.6318C129.934 45.663 130.013 45.6786 130.096 45.6786L130.371 45.6786C130.453 45.6786 130.532 45.6664 130.608 45.6418C130.684 45.6172 130.751 45.5827 130.809 45.538C130.869 45.4911 130.916 45.4353 130.95 45.3706C130.985 45.3059 131.003 45.2322 131.003 45.1496C131.003 45.0268 130.977 44.9264 130.923 44.8483C130.869 44.7702 130.798 44.7054 130.709 44.6541C130.622 44.6005 130.521 44.557 130.407 44.5235C130.296 44.4878 130.181 44.4532 130.062 44.4197C129.944 44.384 129.828 44.3438 129.714 44.2992C129.603 44.2545 129.502 44.1965 129.413 44.1251C129.326 44.0514 129.256 43.9599 129.202 43.8505C129.148 43.7411 129.122 43.605 129.122 43.442C129.122 43.3036 129.148 43.1775 129.202 43.0637C129.256 42.9476 129.328 42.8483 129.42 42.7657C129.511 42.6831 129.617 42.6195 129.738 42.5748C129.86 42.528 129.991 42.5045 130.129 42.5045L130.371 42.5045C130.509 42.5045 130.64 42.5313 130.762 42.5849C130.885 42.6362 130.992 42.7077 131.084 42.7992C131.175 42.8907 131.247 42.9978 131.298 43.1206C131.352 43.2434 131.378 43.3739 131.378 43.5123L131.378 43.5257L130.967 43.5927L130.967 43.4889C130.967 43.4063 130.951 43.3293 130.92 43.2579C130.888 43.1842 130.846 43.1206 130.792 43.067C130.739 43.0135 130.675 42.971 130.602 42.9398C130.53 42.9085 130.453 42.8929 130.371 42.8929L130.129 42.8929C130.047 42.8929 129.969 42.9052 129.895 42.9297C129.824 42.9543 129.761 42.99 129.708 43.0369C129.654 43.0815 129.612 43.1362 129.58 43.201C129.549 43.2657 129.533 43.3393 129.533 43.4219C129.533 43.5402 129.56 43.6373 129.614 43.7132C129.667 43.7869 129.738 43.8494 129.825 43.9007C129.914 43.9521 130.015 43.9956 130.126 44.0313C130.24 44.0648 130.355 44.1005 130.471 44.1385C130.589 44.1742 130.704 44.2155 130.816 44.2623C130.93 44.3092 131.03 44.3695 131.117 44.4431C131.206 44.5168 131.278 44.6094 131.331 44.721C131.385 44.8304 131.412 44.9666 131.412 45.1295ZM133.451 46.0001C133.326 46.0001 133.208 45.9766 133.096 45.9297C132.987 45.8829 132.891 45.8181 132.808 45.7356C132.728 45.653 132.663 45.557 132.614 45.4476C132.567 45.3382 132.544 45.221 132.544 45.096L132.544 42.9632L131.927 42.9632L131.927 42.5715L132.544 42.5715L132.544 41.7478L132.955 41.6809L132.955 42.5715L133.826 42.5715L133.826 42.9632L132.955 42.9632L132.955 45.1161C132.955 45.1853 132.968 45.2501 132.992 45.3103C133.019 45.3684 133.055 45.4197 133.099 45.4643C133.144 45.509 133.196 45.5447 133.257 45.5715C133.317 45.596 133.382 45.6083 133.451 45.6083L133.826 45.6083L133.826 46.0001L133.451 46.0001Z" fill="#B8D7FF"/>
<g opacity="0.3">
<path fill-rule="evenodd" clip-rule="evenodd" d="M150.299 45.0669L152.011 46.7786C152.206 46.9736 152.522 46.9736 152.717 46.7786C152.912 46.5836 152.912 46.2675 152.717 46.0725L151.756 45.1118C152.791 45.1214 153.569 45.3141 154.028 45.8173C154.507 46.3413 154.692 46.7564 154.692 48.1301C154.692 48.4059 154.916 48.6294 155.192 48.6294C155.467 48.6294 155.691 48.4059 155.691 48.1301C155.691 46.5692 155.45 45.893 154.766 45.1437C154.124 44.4419 153.138 44.1551 151.955 44.1172L152.72 43.3525C152.915 43.1575 152.915 42.8413 152.72 42.6463C152.525 42.4513 152.209 42.4513 152.014 42.6463L150.299 44.3607C150.104 44.5557 150.104 44.8719 150.299 45.0669Z" fill="black"/>
<path fill-rule="evenodd" clip-rule="evenodd" d="M107.007 45.0669L105.294 46.7786C105.099 46.9736 104.783 46.9736 104.588 46.7786C104.393 46.5836 104.393 46.2675 104.588 46.0725L105.549 45.1118C104.514 45.1214 103.736 45.314 103.276 45.8172C102.797 46.3413 102.612 46.7564 102.612 48.1301C102.612 48.4058 102.388 48.6294 102.112 48.6294C101.836 48.6294 101.613 48.4058 101.613 48.1301C101.613 46.5692 101.854 45.8929 102.538 45.1437C103.18 44.4418 104.167 44.1551 105.35 44.1171L104.585 43.3525C104.39 43.1575 104.39 42.8413 104.585 42.6463C104.78 42.4513 105.096 42.4513 105.291 42.6463L107.007 44.3607C107.202 44.5557 107.202 44.8719 107.007 45.0669Z" fill="black"/>
</g>
</g>
<g clip-path="url(#clip3_135_5661)">
<path d="M52.2511 42.9766C52.2511 43.1396 52.2199 43.2925 52.1574 43.4353C52.0971 43.5782 52.0134 43.7032 51.9062 43.8103C51.7991 43.9175 51.673 44.0023 51.5279 44.0648C51.385 44.1251 51.2321 44.1552 51.0692 44.1552L49.981 44.1552L49.981 46.0001L49.5491 46.0001L49.5491 41.1987L51.0692 41.1987C51.2321 41.1987 51.385 41.23 51.5279 41.2925C51.673 41.3527 51.7991 41.4364 51.9062 41.5436C52.0134 41.6507 52.0971 41.7768 52.1574 41.9219C52.2199 42.0648 52.2511 42.2177 52.2511 42.3806L52.2511 42.9766ZM51.8192 42.3806C51.8192 42.2735 51.7991 42.1742 51.7589 42.0827C51.7187 41.9889 51.6629 41.9074 51.5915 41.8382C51.5223 41.7668 51.4408 41.711 51.3471 41.6708C51.2556 41.6306 51.1562 41.6106 51.0491 41.6106L49.981 41.6106L49.981 43.7434L51.0491 43.7434C51.1562 43.7434 51.2556 43.7233 51.3471 43.6831C51.4408 43.6429 51.5223 43.5882 51.5915 43.519C51.6629 43.4498 51.7187 43.3695 51.7589 43.278C51.7991 43.1842 51.8192 43.0838 51.8192 42.9766L51.8192 42.3806ZM53.9487 42.9632C53.8661 42.9632 53.7879 42.9789 53.7143 43.0101C53.6429 43.0414 53.5804 43.0838 53.5268 43.1373C53.4732 43.1909 53.4308 43.2545 53.3996 43.3282C53.3683 43.3996 53.3527 43.4766 53.3527 43.5592L53.3527 46.0001L52.9408 46.0001L52.9408 42.5715L53.0781 42.5715L53.3025 42.9197C53.3962 42.7925 53.5134 42.692 53.654 42.6184C53.7969 42.5425 53.952 42.5045 54.1194 42.5045L54.3605 42.5045L54.3605 42.9632L53.9487 42.9632ZM57.1998 45.0592C57.1998 45.1976 57.173 45.3282 57.1194 45.451C57.0681 45.5737 56.9967 45.6809 56.9051 45.7724C56.8136 45.8639 56.7065 45.9364 56.5837 45.99C56.4609 46.0414 56.3304 46.067 56.192 46.067L55.9174 46.067C55.779 46.067 55.6484 46.0414 55.5257 45.99C55.4029 45.9364 55.2958 45.8639 55.2042 45.7724C55.1127 45.6809 55.0402 45.5737 54.9866 45.451C54.9353 45.3282 54.9096 45.1976 54.9096 45.0592L54.9096 43.5123C54.9096 43.3739 54.9353 43.2434 54.9866 43.1206C55.0402 42.9978 55.1127 42.8907 55.2042 42.7992C55.2958 42.7077 55.4029 42.6362 55.5257 42.5849C55.6484 42.5313 55.779 42.5045 55.9174 42.5045L56.192 42.5045C56.3304 42.5045 56.4609 42.5313 56.5837 42.5849C56.7065 42.6362 56.8136 42.7077 56.9051 42.7992C56.9967 42.8907 57.0681 42.9978 57.1194 43.1206C57.173 43.2434 57.1998 43.3739 57.1998 43.5123L57.1998 44.3193L55.3214 44.3193L55.3214 45.0827C55.3214 45.1652 55.3371 45.2434 55.3683 45.317C55.3996 45.3885 55.442 45.451 55.4955 45.5045C55.5491 45.5581 55.6116 45.6005 55.683 45.6318C55.7567 45.663 55.8348 45.6786 55.9174 45.6786L56.192 45.6786C56.2746 45.6786 56.3516 45.663 56.423 45.6318C56.4967 45.6005 56.5603 45.5581 56.6138 45.5045C56.6674 45.451 56.7098 45.3885 56.7411 45.317C56.7723 45.2434 56.7879 45.1652 56.7879 45.0827L56.7879 44.855L57.1998 44.9219L57.1998 45.0592ZM56.7879 43.4889C56.7879 43.4063 56.7723 43.3293 56.7411 43.2579C56.7098 43.1842 56.6674 43.1206 56.6138 43.067C56.5603 43.0135 56.4967 42.971 56.423 42.9398C56.3516 42.9085 56.2746 42.8929 56.192 42.8929L55.9174 42.8929C55.8348 42.8929 55.7567 42.9085 55.683 42.9398C55.6116 42.971 55.5491 43.0135 55.4955 43.067C55.442 43.1206 55.3996 43.1842 55.3683 43.2579C55.3371 43.3293 55.3214 43.4063 55.3214 43.4889L55.3214 43.9978L56.7879 43.9978L56.7879 43.4889ZM60.3806 45.1295C60.3806 45.2679 60.3527 45.3952 60.2969 45.5112C60.2411 45.6251 60.1652 45.7233 60.0692 45.8059C59.9732 45.8885 59.8616 45.9532 59.7344 46.0001C59.6094 46.0447 59.4777 46.067 59.3393 46.067L59.0647 46.067C58.9263 46.067 58.7935 46.0414 58.6663 45.99C58.5413 45.9364 58.4308 45.8639 58.3348 45.7724C58.2411 45.6809 58.1652 45.5737 58.1071 45.451C58.0513 45.3282 58.0234 45.1976 58.0234 45.0592L58.0234 44.9219L58.4353 44.855L58.4353 45.0827C58.4353 45.1652 58.452 45.2434 58.4855 45.317C58.5212 45.3885 58.5681 45.451 58.6261 45.5045C58.6842 45.5581 58.7511 45.6005 58.827 45.6318C58.9029 45.663 58.9821 45.6786 59.0647 45.6786L59.3393 45.6786C59.4219 45.6786 59.5011 45.6664 59.577 45.6418C59.6529 45.6172 59.7199 45.5827 59.7779 45.538C59.8382 45.4911 59.885 45.4353 59.9185 45.3706C59.9542 45.3059 59.9721 45.2322 59.9721 45.1496C59.9721 45.0268 59.9453 44.9264 59.8917 44.8483C59.8382 44.7702 59.7667 44.7054 59.6775 44.6541C59.5904 44.6005 59.49 44.557 59.3761 44.5235C59.2645 44.4878 59.1496 44.4532 59.0312 44.4197C58.9129 44.384 58.7969 44.3438 58.683 44.2992C58.5714 44.2545 58.471 44.1965 58.3817 44.1251C58.2946 44.0514 58.2243 43.9599 58.1708 43.8505C58.1172 43.7411 58.0904 43.605 58.0904 43.442C58.0904 43.3036 58.1172 43.1775 58.1708 43.0637C58.2243 42.9476 58.2969 42.8483 58.3884 42.7657C58.4799 42.6831 58.5859 42.6195 58.7065 42.5748C58.8292 42.528 58.9598 42.5045 59.0982 42.5045L59.3393 42.5045C59.4777 42.5045 59.6083 42.5313 59.731 42.5849C59.8538 42.6362 59.9609 42.7077 60.0525 42.7992C60.144 42.8907 60.2154 42.9978 60.2667 43.1206C60.3203 43.2434 60.3471 43.3739 60.3471 43.5123L60.3471 43.5257L59.9353 43.5927L59.9353 43.4889C59.9353 43.4063 59.9196 43.3293 59.8884 43.2579C59.8571 43.1842 59.8147 43.1206 59.7612 43.067C59.7076 43.0135 59.644 42.971 59.5703 42.9398C59.4989 42.9085 59.4219 42.8929 59.3393 42.8929L59.0982 42.8929C59.0156 42.8929 58.9375 42.9052 58.8638 42.9297C58.7924 42.9543 58.7299 42.99 58.6763 43.0369C58.6228 43.0815 58.5804 43.1362 58.5491 43.201C58.5179 43.2657 58.5022 43.3393 58.5022 43.4219C58.5022 43.5402 58.529 43.6373 58.5826 43.7132C58.6362 43.7869 58.7065 43.8494 58.7935 43.9007C58.8828 43.9521 58.9833 43.9956 59.0949 44.0313C59.2087 44.0648 59.3237 44.1005 59.4397 44.1385C59.558 44.1742 59.673 44.2155 59.7846 44.2623C59.8984 44.3092 59.9989 44.3695 60.0859 44.4431C60.1752 44.5168 60.2467 44.6094 60.3002 44.721C60.3538 44.8304 60.3806 44.9666 60.3806 45.1295ZM63.4609 45.0592C63.4609 45.1976 63.4342 45.3282 63.3806 45.451C63.3292 45.5737 63.2578 45.6809 63.1663 45.7724C63.0748 45.8639 62.9676 45.9364 62.8449 45.99C62.7221 46.0414 62.5915 46.067 62.4531 46.067L62.1786 46.067C62.0402 46.067 61.9096 46.0414 61.7868 45.99C61.6641 45.9364 61.5569 45.8639 61.4654 45.7724C61.3739 45.6809 61.3013 45.5737 61.2478 45.451C61.1964 45.3282 61.1708 45.1976 61.1708 45.0592L61.1708 43.5123C61.1708 43.3739 61.1964 43.2434 61.2478 43.1206C61.3013 42.9978 61.3739 42.8907 61.4654 42.7992C61.5569 42.7077 61.6641 42.6362 61.7868 42.5849C61.9096 42.5313 62.0402 42.5045 62.1786 42.5045L62.4531 42.5045C62.5915 42.5045 62.7221 42.5313 62.8449 42.5849C62.9676 42.6362 63.0748 42.7077 63.1663 42.7992C63.2578 42.8907 63.3292 42.9978 63.3806 43.1206C63.4342 43.2434 63.4609 43.3739 63.4609 43.5123L63.4609 44.3193L61.5826 44.3193L61.5826 45.0827C61.5826 45.1652 61.5982 45.2434 61.6295 45.317C61.6607 45.3885 61.7031 45.451 61.7567 45.5045C61.8103 45.5581 61.8728 45.6005 61.9442 45.6318C62.0179 45.663 62.096 45.6786 62.1786 45.6786L62.4531 45.6786C62.5357 45.6786 62.6127 45.663 62.6842 45.6318C62.7578 45.6005 62.8214 45.5581 62.875 45.5045C62.9286 45.451 62.971 45.3885 63.0022 45.317C63.0335 45.2434 63.0491 45.1652 63.0491 45.0827L63.0491 44.855L63.4609 44.9219L63.4609 45.0592ZM63.0491 43.4889C63.0491 43.4063 63.0335 43.3293 63.0022 43.2579C62.971 43.1842 62.9286 43.1206 62.875 43.067C62.8214 43.0135 62.7578 42.971 62.6842 42.9398C62.6127 42.9085 62.5357 42.8929 62.4531 42.8929L62.1786 42.8929C62.096 42.8929 62.0179 42.9085 61.9442 42.9398C61.8728 42.971 61.8103 43.0135 61.7567 43.067C61.7031 43.1206 61.6607 43.1842 61.6295 43.2579C61.5982 43.3293 61.5826 43.4063 61.5826 43.4889L61.5826 43.9978L63.0491 43.9978L63.0491 43.4889ZM66.1629 46.0001L66.1629 43.4889C66.1629 43.4063 66.1473 43.3293 66.1161 43.2579C66.0848 43.1842 66.0424 43.1206 65.9888 43.067C65.9353 43.0135 65.8717 42.971 65.798 42.9398C65.7266 42.9085 65.6496 42.8929 65.567 42.8929L65.2924 42.8929C65.2098 42.8929 65.1317 42.9085 65.058 42.9398C64.9866 42.971 64.9241 43.0135 64.8705 43.067C64.817 43.1206 64.7746 43.1842 64.7433 43.2579C64.7121 43.3293 64.6964 43.4063 64.6964 43.4889L64.6964 46.0001L64.2846 46.0001L64.2846 42.5715L64.4219 42.5715L64.6462 42.9197C64.74 42.7925 64.8571 42.692 64.9978 42.6184C65.1406 42.5425 65.2958 42.5045 65.4632 42.5045L65.567 42.5045C65.7054 42.5045 65.8359 42.5313 65.9587 42.5849C66.0815 42.6362 66.1886 42.7077 66.2801 42.7992C66.3717 42.8907 66.4431 42.9978 66.4944 43.1206C66.548 43.2434 66.5748 43.3739 66.5748 43.5123L66.5748 46.0001L66.1629 46.0001ZM68.6473 46.0001C68.5223 46.0001 68.404 45.9766 68.2924 45.9298C68.183 45.8829 68.0871 45.8181 68.0045 45.7356C67.9241 45.653 67.8594 45.557 67.8103 45.4476C67.7634 45.3382 67.74 45.221 67.74 45.096L67.74 42.9632L67.1239 42.9632L67.1239 42.5715L67.74 42.5715L67.74 41.7478L68.1518 41.6809L68.1518 42.5715L69.0223 42.5715L69.0223 42.9632L68.1518 42.9632L68.1518 45.1161C68.1518 45.1853 68.1641 45.2501 68.1886 45.3103C68.2154 45.3684 68.2511 45.4197 68.2958 45.4643C68.3404 45.509 68.3929 45.5447 68.4531 45.5715C68.5134 45.596 68.5781 45.6083 68.6473 45.6083L69.0223 45.6083L69.0223 46.0001L68.6473 46.0001Z" fill="#B8D7FF"/>
<g opacity="0.3">
<path fill-rule="evenodd" clip-rule="evenodd" d="M81.2991 45.0669L83.0109 46.7786C83.2059 46.9736 83.522 46.9736 83.717 46.7786C83.912 46.5836 83.912 46.2675 83.717 46.0725L82.7563 45.1118C83.7905 45.1214 84.5686 45.3141 85.0282 45.8173C85.507 46.3413 85.6923 46.7564 85.6923 48.1301C85.6923 48.4059 85.9158 48.6294 86.1916 48.6294C86.4674 48.6294 86.6909 48.4059 86.6909 48.1301C86.6909 46.5692 86.45 45.893 85.7655 45.1437C85.1244 44.4419 84.1379 44.1551 82.955 44.1172L83.7197 43.3525C83.9147 43.1575 83.9147 42.8413 83.7197 42.6463C83.5247 42.4513 83.2086 42.4513 83.0136 42.6463L81.2991 44.3607C81.1041 44.5557 81.1041 44.8719 81.2991 45.0669Z" fill="black"/>
<path fill-rule="evenodd" clip-rule="evenodd" d="M38.0065 45.0669L36.2941 46.7786C36.0991 46.9736 35.7828 46.9736 35.5877 46.7786C35.3927 46.5836 35.3927 46.2675 35.5877 46.0725L36.5488 45.1118C35.5142 45.1214 34.7358 45.314 34.2759 45.8172C33.797 46.3413 33.6116 46.7564 33.6116 48.1301C33.6116 48.4058 33.388 48.6294 33.1121 48.6294C32.8363 48.6294 32.6126 48.4058 32.6126 48.1301C32.6126 46.5692 32.8536 45.8929 33.5383 45.1437C34.1797 44.4418 35.1666 44.1551 36.35 44.1171L35.585 43.3525C35.39 43.1575 35.39 42.8413 35.585 42.6463C35.7801 42.4513 36.0964 42.4513 36.2914 42.6463L38.0065 44.3607C38.2016 44.5557 38.2016 44.8719 38.0065 45.0669Z" fill="black"/>
</g>
</g>
<g style="mix-blend-mode:darken">
<rect x="151" y="161" width="113" height="113" transform="rotate(-180 151 161)" fill="#4B84D3" fill-opacity="0.4"/>
</g>
<g style="mix-blend-mode:luminosity">
<path d="M79.515 16.5741C80.085 16.5741 80.628 16.5981 81.144 16.6461C81.18 16.7061 81.198 16.7931 81.198 16.9071C81.198 16.9971 81.186 17.0751 81.162 17.1411C80.682 17.0871 80.103 17.0631 79.425 17.0691L79.425 22.1451C79.425 22.4751 79.458 22.6401 79.524 22.6401L80.091 22.6221C80.115 22.6641 80.127 22.7211 80.127 22.7931C80.127 22.8411 80.118 22.8921 80.1 22.9461C79.704 23.0601 79.32 23.1171 78.948 23.1171C78.756 23.1171 78.618 23.1081 78.534 23.0901C78.456 23.0781 78.402 23.0481 78.372 23.0001C78.348 22.9461 78.339 22.8561 78.345 22.7301L78.345 17.1411C77.643 17.1951 77.034 17.2821 76.518 17.4021C76.482 17.3181 76.464 17.2341 76.464 17.1501C76.464 17.1021 76.476 17.0241 76.5 16.9161C77.364 16.6881 78.369 16.5741 79.515 16.5741ZM82.1176 17.6361C82.0096 17.6481 81.9616 17.5521 81.9736 17.3481L81.9736 16.8891C81.9736 16.7871 81.9826 16.7181 82.0006 16.6821C82.0246 16.6461 82.0756 16.6221 82.1536 16.6101L82.8556 16.5831C82.9636 16.5711 83.0116 16.6671 82.9996 16.8711L82.9996 17.3301C82.9996 17.4321 82.9876 17.5011 82.9636 17.5371C82.9456 17.5731 82.8976 17.5971 82.8196 17.6091L82.1176 17.6361ZM83.9356 22.7931C83.9356 22.8411 83.9266 22.8921 83.9086 22.9461C83.5126 23.0601 83.1076 23.1171 82.6936 23.1171C82.5136 23.1171 82.3876 23.1081 82.3156 23.0901C82.2436 23.0781 82.1956 23.0481 82.1716 23.0001C82.1536 22.9461 82.1476 22.8561 82.1536 22.7301L82.1536 19.3461C82.1536 19.0161 82.1206 18.8511 82.0546 18.8511L81.4336 18.8691C81.4096 18.8271 81.3976 18.7701 81.3976 18.6981C81.3976 18.6501 81.4066 18.5991 81.4246 18.5451C81.8206 18.4311 82.2256 18.3741 82.6396 18.3741C82.8196 18.3741 82.9456 18.3831 83.0176 18.4011C83.0896 18.4131 83.1346 18.4461 83.1526 18.5001C83.1766 18.5481 83.1856 18.6351 83.1796 18.7611L83.1796 22.1451C83.1796 22.4631 83.2096 22.6221 83.2696 22.6221L83.8996 22.6221C83.9236 22.6641 83.9356 22.7211 83.9356 22.7931ZM87.1104 18.9141C86.8764 18.9141 86.4714 19.0011 85.8954 19.1751L85.8954 22.8381C85.8954 22.9221 85.8474 22.9821 85.7514 23.0181C85.5234 23.0841 85.2804 23.1171 85.0224 23.1171C84.9204 23.1171 84.8694 23.0661 84.8694 22.9641L84.8694 19.3461C84.8694 19.0161 84.8364 18.8511 84.7704 18.8511L84.1494 18.8691C84.1254 18.8271 84.1134 18.7701 84.1134 18.6981C84.1134 18.6501 84.1224 18.5991 84.1404 18.5451C84.5364 18.4311 84.9414 18.3741 85.3554 18.3741C85.5354 18.3741 85.6614 18.3831 85.7334 18.4011C85.8054 18.4131 85.8504 18.4461 85.8684 18.5001C85.8924 18.5481 85.9014 18.6351 85.8954 18.7611C86.3334 18.6291 86.6874 18.5331 86.9574 18.4731C87.2634 18.4071 87.5364 18.3741 87.7764 18.3741C88.2324 18.3741 88.5054 18.5091 88.5954 18.7791C88.7334 18.7311 88.9524 18.6681 89.2524 18.5901C89.6004 18.5001 89.8104 18.4461 89.8824 18.4281C90.1104 18.3921 90.3084 18.3741 90.4764 18.3741C90.8064 18.3741 91.0404 18.4281 91.1784 18.5361C91.3164 18.6381 91.3854 18.8121 91.3854 19.0581L91.3854 22.1451C91.3854 22.3431 91.3914 22.4781 91.4034 22.5501C91.4094 22.6101 91.4364 22.6401 91.4844 22.6401L92.1054 22.6221C92.1294 22.6881 92.1414 22.7451 92.1414 22.7931C92.1414 22.8111 92.1354 22.8441 92.1234 22.8921L92.1144 22.9461C91.7184 23.0601 91.3134 23.1171 90.8994 23.1171C90.7194 23.1171 90.5934 23.1081 90.5214 23.0901C90.4494 23.0781 90.4014 23.0481 90.3774 23.0001C90.3594 22.9461 90.3534 22.8561 90.3594 22.7301L90.3594 19.2831C90.3594 19.0371 90.1914 18.9141 89.8554 18.9141C89.6334 18.9141 89.2284 19.0011 88.6404 19.1751L88.6404 22.8381C88.6404 22.9221 88.5924 22.9821 88.4964 23.0181C88.2684 23.0841 88.0254 23.1171 87.7674 23.1171C87.6654 23.1171 87.6144 23.0661 87.6144 22.9641L87.6144 19.2831C87.6144 19.0371 87.4464 18.9141 87.1104 18.9141ZM95.4641 22.5681C95.8781 22.5021 96.1781 22.4451 96.3641 22.3971C96.3941 22.4571 96.4091 22.5321 96.4091 22.6221C96.4091 22.7001 96.3971 22.7601 96.3731 22.8021C95.5691 23.0121 94.6871 23.1171 93.7271 23.1171C93.4031 23.1171 93.1661 23.0661 93.0161 22.9641C92.8721 22.8621 92.8001 22.6941 92.8001 22.4601L92.8001 19.3731C92.8001 19.0011 92.9981 18.7401 93.3941 18.5901C93.7781 18.4461 94.4021 18.3741 95.2661 18.3741C95.5721 18.3741 95.8061 18.4041 95.9681 18.4641C96.1361 18.5181 96.2561 18.6141 96.3281 18.7521C96.4001 18.8901 96.4361 19.0881 96.4361 19.3461L96.4361 19.9851C96.4361 20.2371 96.3731 20.4351 96.2471 20.5791C96.1211 20.7171 95.9201 20.8161 95.6441 20.8761C94.9781 20.9781 94.3721 21.0471 93.8261 21.0831L93.8261 22.1091C93.8261 22.3371 93.8681 22.4871 93.9521 22.5591C94.0421 22.6311 94.2221 22.6671 94.4921 22.6671C94.7321 22.6671 95.0561 22.6341 95.4641 22.5681ZM94.0331 18.9051C93.8831 19.0011 93.8141 19.1691 93.8261 19.4091L93.8261 20.6691C94.2281 20.6331 94.5551 20.5911 94.8071 20.5431C95.0531 20.4891 95.2151 20.4261 95.2931 20.3541C95.3711 20.2821 95.4101 20.1501 95.4101 19.9581L95.4101 19.4091C95.4101 19.1571 95.3711 18.9861 95.2931 18.8961C95.2211 18.8001 95.0861 18.7521 94.8881 18.7521C94.4681 18.7521 94.1831 18.8031 94.0331 18.9051ZM99.3757 22.7931C99.3757 22.8411 99.3667 22.8921 99.3487 22.9461C98.9527 23.0601 98.5477 23.1171 98.1337 23.1171C97.9537 23.1171 97.8277 23.1081 97.7557 23.0901C97.6837 23.0781 97.6357 23.0481 97.6117 23.0001C97.5937 22.9461 97.5877 22.8561 97.5937 22.7301L97.5937 17.5551C97.5937 17.2251 97.5607 17.0601 97.4947 17.0601L96.8737 17.0781C96.8497 17.0361 96.8377 16.9791 96.8377 16.9071C96.8377 16.8591 96.8467 16.8081 96.8647 16.7541C97.2607 16.6401 97.6657 16.5831 98.0797 16.5831C98.2597 16.5831 98.3857 16.5921 98.4577 16.6101C98.5297 16.6221 98.5747 16.6551 98.5927 16.7091C98.6167 16.7571 98.6257 16.8441 98.6197 16.9701L98.6197 22.1451C98.6197 22.4751 98.6527 22.6401 98.7187 22.6401L99.3397 22.6221C99.3637 22.6641 99.3757 22.7211 99.3757 22.7931ZM100.276 17.6361C100.168 17.6481 100.12 17.5521 100.132 17.3481L100.132 16.8891C100.132 16.7871 100.141 16.7181 100.159 16.6821C100.183 16.6461 100.234 16.6221 100.312 16.6101L101.014 16.5831C101.122 16.5711 101.17 16.6671 101.158 16.8711L101.158 17.3301C101.158 17.4321 101.146 17.5011 101.122 17.5371C101.104 17.5731 101.056 17.5971 100.978 17.6091L100.276 17.6361ZM102.094 22.7931C102.094 22.8411 102.085 22.8921 102.067 22.9461C101.671 23.0601 101.266 23.1171 100.852 23.1171C100.672 23.1171 100.546 23.1081 100.474 23.0901C100.402 23.0781 100.354 23.0481 100.33 23.0001C100.312 22.9461 100.306 22.8561 100.312 22.7301L100.312 19.3461C100.312 19.0161 100.279 18.8511 100.213 18.8511L99.5918 18.8691C99.5678 18.8271 99.5558 18.7701 99.5558 18.6981C99.5558 18.6501 99.5648 18.5991 99.5828 18.5451C99.9788 18.4311 100.384 18.3741 100.798 18.3741C100.978 18.3741 101.104 18.3831 101.176 18.4011C101.248 18.4131 101.293 18.4461 101.311 18.5001C101.335 18.5481 101.344 18.6351 101.338 18.7611L101.338 22.1451C101.338 22.4631 101.368 22.6221 101.428 22.6221L102.058 22.6221C102.082 22.6641 102.094 22.7211 102.094 22.7931ZM105.332 18.9141C105.062 18.9141 104.636 18.9981 104.054 19.1661L104.054 22.8381C104.054 22.9221 104.006 22.9821 103.91 23.0181C103.682 23.0841 103.439 23.1171 103.181 23.1171C103.079 23.1171 103.028 23.0661 103.028 22.9641L103.028 19.3461C103.028 19.0161 102.995 18.8511 102.929 18.8511L102.308 18.8691C102.284 18.8271 102.272 18.7701 102.272 18.6981C102.272 18.6501 102.281 18.5991 102.299 18.5451C102.695 18.4311 103.1 18.3741 103.514 18.3741C103.694 18.3741 103.82 18.3831 103.892 18.4011C103.964 18.4131 104.009 18.4461 104.027 18.5001C104.051 18.5481 104.06 18.6351 104.054 18.7611L104.387 18.6621C104.597 18.6021 104.747 18.5631 104.837 18.5451C104.831 18.5451 104.897 18.5301 105.035 18.5001C105.203 18.4581 105.407 18.4221 105.647 18.3921C105.791 18.3801 105.893 18.3741 105.953 18.3741C106.283 18.3741 106.517 18.4281 106.655 18.5361C106.793 18.6381 106.862 18.8121 106.862 19.0581L106.862 22.1451C106.862 22.4751 106.895 22.6401 106.961 22.6401L107.582 22.6221C107.606 22.6641 107.618 22.7211 107.618 22.7931C107.618 22.8411 107.609 22.8921 107.591 22.9461C107.195 23.0601 106.79 23.1171 106.376 23.1171C106.196 23.1171 106.07 23.1081 105.998 23.0901C105.926 23.0781 105.878 23.0481 105.854 23.0001C105.836 22.9461 105.83 22.8561 105.836 22.7301L105.836 19.2831C105.836 19.0371 105.668 18.9141 105.332 18.9141ZM110.942 22.5681C111.356 22.5021 111.656 22.4451 111.842 22.3971C111.872 22.4571 111.887 22.5321 111.887 22.6221C111.887 22.7001 111.875 22.7601 111.851 22.8021C111.047 23.0121 110.165 23.1171 109.205 23.1171C108.881 23.1171 108.644 23.0661 108.494 22.9641C108.35 22.8621 108.278 22.6941 108.278 22.4601L108.278 19.3731C108.278 19.0011 108.476 18.7401 108.872 18.5901C109.256 18.4461 109.88 18.3741 110.744 18.3741C111.05 18.3741 111.284 18.4041 111.446 18.4641C111.614 18.5181 111.734 18.6141 111.806 18.7521C111.878 18.8901 111.914 19.0881 111.914 19.3461L111.914 19.9851C111.914 20.2371 111.851 20.4351 111.725 20.5791C111.599 20.7171 111.398 20.8161 111.122 20.8761C110.456 20.9781 109.85 21.0471 109.304 21.0831L109.304 22.1091C109.304 22.3371 109.346 22.4871 109.43 22.5591C109.52 22.6311 109.7 22.6671 109.97 22.6671C110.21 22.6671 110.534 22.6341 110.942 22.5681ZM109.511 18.9051C109.361 19.0011 109.292 19.1691 109.304 19.4091L109.304 20.6691C109.706 20.6331 110.033 20.5911 110.285 20.5431C110.531 20.4891 110.693 20.4261 110.771 20.3541C110.849 20.2821 110.888 20.1501 110.888 19.9581L110.888 19.4091C110.888 19.1571 110.849 18.9861 110.771 18.8961C110.699 18.8001 110.564 18.7521 110.366 18.7521C109.946 18.7521 109.661 18.8031 109.511 18.9051Z" fill="#66A6FF"/>
</g>
</g>
</g>
<defs>
<radialGradient id="paint0_radial_135_5661" cx="0" cy="0" r="1" gradientUnits="userSpaceOnUse" gradientTransform="translate(94.5 104.5) rotate(-90) scale(94.5 94.5)">
<stop stop-opacity="0"/>
<stop offset="1"/>
</radialGradient>
<linearGradient id="paint1_linear_135_5661" x1="94.5" y1="10" x2="94.5" y2="35.0001" gradientUnits="userSpaceOnUse">
<stop stop-opacity="0.61"/>
<stop offset="1" stop-opacity="0.89"/>
</linearGradient>
<linearGradient id="paint2_linear_135_5661" x1="189" y1="104.5" x2="164" y2="104.5" gradientUnits="userSpaceOnUse">
<stop stop-opacity="0.61"/>
<stop offset="1" stop-opacity="0.89"/>
</linearGradient>
<linearGradient id="paint3_linear_135_5661" x1="3.03794e-06" y1="104.5" x2="25" y2="104.5" gradientUnits="userSpaceOnUse">
<stop stop-opacity="0.61"/>
<stop offset="1" stop-opacity="0.89"/>
</linearGradient>
<linearGradient id="paint4_linear_135_5661" x1="164" y1="35.0001" x2="96.5" y2="105" gradientUnits="userSpaceOnUse">
<stop stop-opacity="0.59"/>
<stop offset="1" stop-opacity="0.13"/>
</linearGradient>
<linearGradient id="paint5_linear_135_5661" x1="25" y1="35.0001" x2="95" y2="102.5" gradientUnits="userSpaceOnUse">
<stop stop-opacity="0.59"/>
<stop offset="1" stop-opacity="0.13"/>
</linearGradient>
<linearGradient id="paint6_linear_135_5661" x1="7.86805e-07" y1="28" x2="36" y2="28" gradientUnits="userSpaceOnUse">
<stop stop-opacity="0.12"/>
<stop offset="1" stop-color="#0B0A0A"/>
</linearGradient>
<linearGradient id="paint7_linear_135_5661" x1="171" y1="10" x2="171" y2="46" gradientUnits="userSpaceOnUse">
<stop stop-opacity="0.12"/>
<stop offset="1" stop-color="#0B0A0A"/>
</linearGradient>
<clipPath id="clip0_135_5661">
<rect width="189" height="42" fill="white" transform="matrix(-1 0 0 -1 189 52)"/>
</clipPath>
<clipPath id="clip1_135_5661">
<rect width="189" height="189" fill="white" transform="matrix(-1 0 0 -1 189 199)"/>
</clipPath>
<clipPath id="clip2_135_5661">
<rect width="64" height="64" fill="white" transform="matrix(-1 0 0 -1 161 102)"/>
</clipPath>
<clipPath id="clip3_135_5661">
<rect width="64" height="64" fill="white" transform="matrix(-1 0 0 -1 92 102)"/>
</clipPath>
</defs>
</svg>
