<svg width="189" height="182" viewBox="0 0 189 182" fill="none" xmlns="http://www.w3.org/2000/svg">
<g clip-path="url(#clip0_209_3187)">
<g clip-path="url(#clip1_209_3187)">
<g clip-path="url(#clip2_209_3187)">
<path d="M153 193.999L36.0014 194L0.0022583 157.969L0 157.968L0.00106812 40.8639L36.0009 4.83124L153 4.83133L188.999 40.8635L189 157.968L153 193.999Z" fill="#FF66A6" fill-opacity="0.8"/>
<g clip-path="url(#clip3_209_3187)">
<path fill-rule="evenodd" clip-rule="evenodd" d="M36 4.99988L94.5 99.4999L0 40.9999L5.11423e-06 158L94.5 99.4999L36 194L153 194L94.5 99.4999L189 158V40.9999L94.5 99.4999L153 4.99988H36Z" fill="url(#paint0_radial_209_3187)" fill-opacity="0.05"/>
<path d="M36 4.99988H153L164 29.9998H25L36 4.99988Z" fill="url(#paint1_linear_209_3187)" fill-opacity="0.51"/>
<path d="M-4.80825e-07 158L-5.59506e-06 40.9999L25 29.9999L25 169L-4.80825e-07 158Z" fill="url(#paint2_linear_209_3187)" fill-opacity="0.51"/>
<path d="M189 40.9999L189 158L164 169L164 29.9999L189 40.9999Z" fill="url(#paint3_linear_209_3187)" fill-opacity="0.51"/>
<path fill-rule="evenodd" clip-rule="evenodd" d="M25 29.9999H164V169H25L25 29.9999ZM25 29.9999L13 48.9999L13 150L25 169L44 181L145 181L164 169L176 150V48.9999L164 29.9999L145 17.9999L44 17.9999L25 29.9999Z" fill="white" fill-opacity="0.05"/>
<path d="M25.0005 29.9999L25.0005 99.4999H94.5005V29.9999L25.0005 29.9999Z" fill="url(#paint4_linear_209_3187)"/>
<path d="M164 99.4999L164 29.9999L94.5 29.9999L94.5 99.4999L164 99.4999Z" fill="url(#paint5_linear_209_3187)"/>
<path fill-rule="evenodd" clip-rule="evenodd" d="M95 29.9999H94V98.9999H25V99.9999H94V169H95V99.9999H164V98.9999H95V29.9999Z" fill="white" fill-opacity="0.1"/>
<path d="M189 40.9999L153 4.99988L164 29.9998L189 40.9999Z" fill="url(#paint6_linear_209_3187)" fill-opacity="0.33"/>
<path d="M36 5L0 41L25 30L36 5Z" fill="url(#paint7_linear_209_3187)" fill-opacity="0.33"/>
</g>
<g clip-path="url(#clip4_209_3187)">
<path d="M125.751 37.9766C125.751 38.1395 125.72 38.2924 125.657 38.4353C125.597 38.5781 125.513 38.7031 125.406 38.8103C125.299 38.9174 125.173 39.0022 125.028 39.0647C124.885 39.125 124.732 39.1551 124.569 39.1551L123.481 39.1551L123.481 41L123.049 41L123.049 36.1987L124.569 36.1987C124.732 36.1987 124.885 36.2299 125.028 36.2924C125.173 36.3527 125.299 36.4364 125.406 36.5435C125.513 36.6507 125.597 36.7768 125.657 36.9219C125.72 37.0647 125.751 37.2176 125.751 37.3806L125.751 37.9766ZM125.319 37.3806C125.319 37.2734 125.299 37.1741 125.259 37.0826C125.219 36.9888 125.163 36.9074 125.092 36.8382C125.022 36.7667 124.941 36.7109 124.847 36.6708C124.756 36.6306 124.656 36.6105 124.549 36.6105L123.481 36.6105L123.481 38.7433L124.549 38.7433C124.656 38.7433 124.756 38.7232 124.847 38.683C124.941 38.6429 125.022 38.5882 125.092 38.519C125.163 38.4498 125.219 38.3694 125.259 38.2779C125.299 38.1842 125.319 38.0837 125.319 37.9766L125.319 37.3806ZM128.594 41L128.366 40.6585C128.272 40.7813 128.155 40.8806 128.015 40.9565C127.874 41.0301 127.72 41.067 127.552 41.067L127.449 41.067C127.31 41.067 127.18 41.0413 127.057 40.99C126.934 40.9364 126.827 40.8638 126.735 40.7723C126.644 40.6808 126.571 40.5737 126.518 40.4509C126.467 40.3281 126.441 40.1975 126.441 40.0592L126.441 40.0257C126.441 39.8873 126.467 39.7567 126.518 39.6339C126.571 39.5112 126.644 39.404 126.735 39.3125C126.827 39.221 126.934 39.1496 127.057 39.0982C127.18 39.0446 127.31 39.0179 127.449 39.0179L128.319 39.0179L128.319 38.4888C128.319 38.4063 128.304 38.3292 128.272 38.2578C128.241 38.1842 128.199 38.1205 128.145 38.067C128.092 38.0134 128.028 37.971 127.954 37.9397C127.883 37.9085 127.806 37.8929 127.723 37.8929L127.482 37.8929C127.4 37.8929 127.321 37.9085 127.248 37.9397C127.176 37.971 127.114 38.0134 127.06 38.067C127.007 38.1205 126.964 38.1842 126.933 38.2578C126.902 38.3292 126.886 38.4063 126.886 38.4888L126.886 38.6127L126.474 38.5458L126.474 38.5123C126.474 38.3739 126.5 38.2433 126.551 38.1205C126.605 37.9978 126.677 37.8906 126.769 37.7991C126.86 37.7076 126.968 37.6362 127.09 37.5848C127.213 37.5313 127.344 37.5045 127.482 37.5045L127.723 37.5045C127.862 37.5045 127.992 37.5313 128.115 37.5848C128.238 37.6362 128.345 37.7076 128.436 37.7991C128.528 37.8906 128.599 37.9978 128.651 38.1205C128.704 38.2433 128.731 38.3739 128.731 38.5123L128.731 41L128.594 41ZM128.319 39.3393L127.449 39.3393C127.366 39.3393 127.288 39.3549 127.214 39.3862C127.143 39.4174 127.08 39.4609 127.027 39.5167C126.973 39.5703 126.931 39.6339 126.9 39.7076C126.868 39.779 126.853 39.856 126.853 39.9386L126.853 40.0826C126.853 40.1652 126.868 40.2433 126.9 40.317C126.931 40.3884 126.973 40.4509 127.027 40.5045C127.08 40.558 127.143 40.6004 127.214 40.6317C127.288 40.6629 127.366 40.6786 127.449 40.6786L127.723 40.6786C127.806 40.6786 127.883 40.6629 127.954 40.6317C128.028 40.6004 128.092 40.558 128.145 40.5045C128.199 40.4509 128.241 40.3884 128.272 40.317C128.304 40.2433 128.319 40.1652 128.319 40.0826L128.319 39.3393ZM131.912 40.1295C131.912 40.2679 131.884 40.3951 131.828 40.5112C131.772 40.625 131.696 40.7232 131.6 40.8058C131.504 40.8884 131.393 40.9531 131.266 41C131.141 41.0446 131.009 41.067 130.871 41.067L130.596 41.067C130.458 41.067 130.325 41.0413 130.198 40.99C130.073 40.9364 129.962 40.8638 129.866 40.7723C129.772 40.6808 129.696 40.5737 129.638 40.4509C129.583 40.3281 129.555 40.1975 129.555 40.0592L129.555 39.9219L129.967 39.8549L129.967 40.0826C129.967 40.1652 129.983 40.2433 130.017 40.317C130.052 40.3884 130.099 40.4509 130.157 40.5045C130.215 40.558 130.282 40.6004 130.358 40.6317C130.434 40.6629 130.513 40.6786 130.596 40.6786L130.871 40.6786C130.953 40.6786 131.032 40.6663 131.108 40.6417C131.184 40.6172 131.251 40.5826 131.309 40.5379C131.369 40.4911 131.416 40.4353 131.45 40.3705C131.485 40.3058 131.503 40.2321 131.503 40.1496C131.503 40.0268 131.477 39.9263 131.423 39.8482C131.369 39.7701 131.298 39.7054 131.209 39.654C131.122 39.6004 131.021 39.5569 130.907 39.5234C130.796 39.4877 130.681 39.4531 130.562 39.4196C130.444 39.3839 130.328 39.3438 130.214 39.2991C130.103 39.2545 130.002 39.1964 129.913 39.125C129.826 39.0513 129.756 38.9598 129.702 38.8504C129.648 38.7411 129.622 38.6049 129.622 38.442C129.622 38.3036 129.648 38.1775 129.702 38.0636C129.756 37.9475 129.828 37.8482 129.92 37.7656C130.011 37.683 130.117 37.6194 130.238 37.5748C130.36 37.5279 130.491 37.5045 130.629 37.5045L130.871 37.5045C131.009 37.5045 131.14 37.5313 131.262 37.5848C131.385 37.6362 131.492 37.7076 131.584 37.7991C131.675 37.8906 131.747 37.9978 131.798 38.1205C131.852 38.2433 131.878 38.3739 131.878 38.5123L131.878 38.5257L131.467 38.5926L131.467 38.4888C131.467 38.4063 131.451 38.3292 131.42 38.2578C131.388 38.1842 131.346 38.1205 131.292 38.067C131.239 38.0134 131.175 37.971 131.102 37.9397C131.03 37.9085 130.953 37.8929 130.871 37.8929L130.629 37.8929C130.547 37.8929 130.469 37.9051 130.395 37.9297C130.324 37.9542 130.261 37.99 130.208 38.0368C130.154 38.0815 130.112 38.1362 130.08 38.2009C130.049 38.2656 130.033 38.3393 130.033 38.4219C130.033 38.5402 130.06 38.6373 130.114 38.7132C130.167 38.7868 130.238 38.8493 130.325 38.9007C130.414 38.952 130.515 38.9955 130.626 39.0313C130.74 39.0647 130.855 39.1004 130.971 39.1384C131.089 39.1741 131.204 39.2154 131.316 39.2623C131.43 39.3092 131.53 39.3694 131.617 39.4431C131.706 39.5167 131.778 39.6094 131.831 39.721C131.885 39.8304 131.912 39.9665 131.912 40.1295ZM133.951 41C133.826 41 133.708 40.9766 133.596 40.9297C133.487 40.8828 133.391 40.8181 133.308 40.7355C133.228 40.6529 133.163 40.5569 133.114 40.4475C133.067 40.3382 133.044 40.221 133.044 40.096L133.044 37.9632L132.427 37.9632L132.427 37.5714L133.044 37.5714L133.044 36.7478L133.455 36.6808L133.455 37.5714L134.326 37.5714L134.326 37.9632L133.455 37.9632L133.455 40.1161C133.455 40.1853 133.468 40.25 133.492 40.3103C133.519 40.3683 133.555 40.4196 133.599 40.4643C133.644 40.5089 133.696 40.5446 133.757 40.5714C133.817 40.596 133.882 40.6083 133.951 40.6083L134.326 40.6083L134.326 41L133.951 41Z" fill="#070C08"/>
<path d="M154.112 55.1808C153.949 55.1808 153.796 55.1473 153.653 55.0804C153.51 55.0156 153.385 54.9275 153.278 54.8158C153.171 54.7065 153.086 54.5781 153.023 54.4308C152.963 54.2857 152.933 54.1317 152.933 53.9688L152.933 53.6239C152.933 53.4609 152.963 53.3058 153.023 53.1585C153.086 53.0134 153.171 52.885 153.278 52.7734C153.385 52.6641 153.51 52.5759 153.653 52.5089C153.796 52.4442 153.949 52.4118 154.112 52.4118L154.302 52.4118L154.373 52.8438L154.112 52.8438C154.004 52.8438 153.904 52.865 153.81 52.9074C153.719 52.952 153.637 53.0112 153.566 53.0848C153.497 53.1585 153.442 53.2433 153.402 53.3393C153.362 53.4375 153.342 53.5402 153.342 53.6473L153.342 53.9487C153.342 54.0558 153.362 54.1574 153.402 54.2533C153.442 54.3493 153.497 54.4342 153.566 54.5078C153.637 54.5815 153.719 54.6395 153.81 54.6819C153.904 54.7266 154.004 54.7489 154.112 54.7489L154.256 54.7489C154.421 54.7489 154.558 54.7165 154.667 54.6518C154.777 54.5871 154.869 54.5011 154.945 54.394C155.023 54.2868 155.089 54.1652 155.143 54.029C155.196 53.8951 155.25 53.7567 155.304 53.6138C155.357 53.471 155.416 53.3315 155.481 53.1953C155.546 53.0614 155.626 52.9408 155.722 52.8337C155.82 52.7266 155.94 52.6406 156.08 52.5759C156.221 52.5112 156.394 52.4788 156.599 52.4788L156.69 52.4788C156.853 52.4788 157.006 52.5089 157.148 52.5692C157.291 52.6317 157.416 52.7165 157.523 52.8237C157.631 52.9308 157.714 53.0558 157.775 53.1987C157.837 53.3438 157.868 53.4978 157.868 53.6607L157.868 53.9688C157.868 54.1317 157.837 54.2846 157.775 54.4275C157.714 54.5703 157.631 54.6953 157.523 54.8025C157.416 54.9096 157.291 54.9933 157.148 55.0536C157.006 55.1161 156.853 55.1473 156.69 55.1473L156.566 55.1473L156.496 54.7154L156.69 54.7154C156.797 54.7154 156.896 54.6953 156.988 54.6551C157.081 54.615 157.163 54.5603 157.232 54.4911C157.301 54.4219 157.356 54.3404 157.396 54.2467C157.436 54.1551 157.456 54.0558 157.456 53.9487L157.456 53.6808C157.456 53.5737 157.436 53.4732 157.396 53.3795C157.356 53.2879 157.301 53.2065 157.232 53.135C157.163 53.0658 157.081 53.0112 156.988 52.971C156.896 52.9308 156.797 52.9107 156.69 52.9107L156.599 52.9107C156.445 52.9107 156.316 52.9431 156.211 53.0078C156.106 53.0725 156.016 53.1585 155.94 53.2656C155.866 53.3728 155.801 53.4933 155.746 53.6272C155.692 53.7634 155.636 53.9029 155.578 54.0458C155.522 54.1886 155.46 54.327 155.391 54.4609C155.324 54.5971 155.24 54.7188 155.14 54.8259C155.041 54.933 154.921 55.019 154.778 55.0837C154.635 55.1484 154.461 55.1808 154.256 55.1808L154.112 55.1808ZM153 58.1272L153.348 57.8996C153.221 57.8058 153.119 57.6886 153.044 57.548C152.97 57.4074 152.933 57.2533 152.933 57.0859L152.933 56.9821C152.933 56.8438 152.959 56.7132 153.01 56.5904C153.064 56.4676 153.136 56.3605 153.228 56.269C153.319 56.1775 153.426 56.1049 153.549 56.0513C153.672 56 153.802 55.9743 153.941 55.9743L156.429 55.9743L156.429 56.3862L153.917 56.3862C153.835 56.3862 153.757 56.4018 153.683 56.433C153.612 56.4643 153.549 56.5067 153.496 56.5603C153.442 56.6138 153.4 56.6763 153.368 56.7478C153.337 56.8214 153.321 56.8996 153.321 56.9821L153.321 57.2567C153.321 57.3393 153.337 57.4163 153.368 57.4877C153.4 57.5614 153.442 57.625 153.496 57.6786C153.549 57.7321 153.612 57.7746 153.683 57.8058C153.757 57.8371 153.835 57.8527 153.917 57.8527L156.429 57.8527L156.429 58.2645L153 58.2645L153 58.1272ZM153 60.9665L155.511 60.9665C155.594 60.9665 155.671 60.9509 155.742 60.9196C155.816 60.8884 155.879 60.846 155.933 60.7924C155.987 60.7388 156.029 60.6752 156.06 60.6016C156.092 60.5301 156.107 60.4531 156.107 60.3705L156.107 60.096C156.107 60.0134 156.092 59.9353 156.06 59.8616C156.029 59.7902 155.987 59.7277 155.933 59.6741C155.879 59.6205 155.816 59.5781 155.742 59.5469C155.671 59.5156 155.594 59.5 155.511 59.5L153 59.5L153 59.0882L156.429 59.0882L156.429 59.2254L156.08 59.4498C156.208 59.5435 156.308 59.6607 156.382 59.8013C156.458 59.9442 156.496 60.0993 156.496 60.2667L156.496 60.3705C156.496 60.5089 156.469 60.6395 156.415 60.7623C156.364 60.885 156.292 60.9922 156.201 61.0837C156.109 61.1752 156.002 61.2467 155.879 61.298C155.757 61.3516 155.626 61.3783 155.488 61.3783L153 61.3783L153 60.9665ZM157.41 63.3806C157.41 63.3114 157.396 63.2467 157.369 63.1864C157.345 63.1283 157.31 63.077 157.266 63.0324C157.221 62.9877 157.169 62.952 157.108 62.9252C157.048 62.9007 156.983 62.8884 156.914 62.8884L156.429 62.8884L156.429 63.6886L156.037 63.6886L156.037 62.8884L153 62.8884L153 62.4766L156.037 62.4766L156.037 61.8571L156.429 61.8571L156.429 62.4766L156.894 62.4766C157.019 62.4766 157.136 62.5 157.246 62.5469C157.357 62.5937 157.454 62.6585 157.537 62.7411C157.619 62.8237 157.684 62.9196 157.731 63.029C157.778 63.1384 157.801 63.2556 157.801 63.3806L157.801 63.7589L157.41 63.7589L157.41 63.3806ZM153 64.308L157.801 64.308L157.801 64.7199L153 64.7199L153 64.308ZM153.941 67.9074C153.802 67.9074 153.672 67.8806 153.549 67.827C153.426 67.7757 153.319 67.7042 153.228 67.6127C153.136 67.5212 153.064 67.4141 153.01 67.2913C152.959 67.1685 152.933 67.0379 152.933 66.8996L152.933 66.625C152.933 66.4866 152.959 66.356 153.01 66.2333C153.064 66.1105 153.136 66.0033 153.228 65.9118C153.319 65.8203 153.426 65.7478 153.549 65.6942C153.672 65.6429 153.802 65.6172 153.941 65.6172L155.488 65.6172C155.626 65.6172 155.757 65.6429 155.879 65.6942C156.002 65.7478 156.109 65.8203 156.201 65.9118C156.292 66.0033 156.364 66.1105 156.415 66.2333C156.469 66.356 156.496 66.4866 156.496 66.625L156.496 66.8996C156.496 67.0379 156.469 67.1685 156.415 67.2913C156.364 67.4141 156.292 67.5212 156.201 67.6127C156.109 67.7042 156.002 67.7757 155.879 67.827C155.757 67.8806 155.626 67.9074 155.488 67.9074L153.941 67.9074ZM155.511 67.4955C155.594 67.4955 155.671 67.4799 155.742 67.4487C155.816 67.4174 155.879 67.375 155.933 67.3214C155.987 67.2679 156.029 67.2042 156.06 67.1306C156.092 67.0592 156.107 66.9821 156.107 66.8996L156.107 66.625C156.107 66.5424 156.092 66.4643 156.06 66.3906C156.029 66.3192 155.987 66.2567 155.933 66.2031C155.879 66.1496 155.816 66.1071 155.742 66.0759C155.671 66.0446 155.594 66.029 155.511 66.029L153.917 66.029C153.835 66.029 153.757 66.0446 153.683 66.0759C153.612 66.1071 153.549 66.1496 153.496 66.2031C153.442 66.2567 153.4 66.3192 153.368 66.3906C153.337 66.4643 153.321 66.5424 153.321 66.625L153.321 66.8996C153.321 66.9821 153.337 67.0592 153.368 67.1306C153.4 67.2042 153.442 67.2679 153.496 67.3214C153.549 67.375 153.612 67.4174 153.683 67.4487C153.757 67.4799 153.835 67.4955 153.917 67.4955L155.511 67.4955ZM153 71.6172L153 71.3929L155.585 70.5893L155.762 70.5759L155.585 70.5625L153 69.7589L153 69.5313L156.429 68.3862L156.429 68.8047L153.837 69.6217L153.66 69.635L153.837 69.6484L156.429 70.452L156.429 70.6998L153.837 71.5L153.66 71.5134L153.837 71.5268L156.429 72.3438L156.429 72.7623L153 71.6172ZM153.941 75.5346C153.802 75.5346 153.672 75.5078 153.549 75.4542C153.426 75.4029 153.319 75.3315 153.228 75.24C153.136 75.1484 153.064 75.0413 153.01 74.9185C152.959 74.7958 152.933 74.6652 152.933 74.5268L152.933 74.2522C152.933 74.1138 152.959 73.9833 153.01 73.8605C153.064 73.7377 153.136 73.6306 153.228 73.5391C153.319 73.4475 153.426 73.375 153.549 73.3214C153.672 73.2701 153.802 73.2444 153.941 73.2444L155.488 73.2444C155.626 73.2444 155.757 73.2701 155.879 73.3214C156.002 73.375 156.109 73.4475 156.201 73.5391C156.292 73.6306 156.364 73.7377 156.415 73.8605C156.469 73.9833 156.496 74.1138 156.496 74.2522L156.496 74.5268C156.496 74.6652 156.469 74.7958 156.415 74.9185C156.364 75.0413 156.292 75.1484 156.201 75.24C156.109 75.3315 156.002 75.4029 155.879 75.4542C155.757 75.5078 155.626 75.5346 155.488 75.5346L154.681 75.5346L154.681 73.6563L153.917 73.6563C153.835 73.6563 153.757 73.6719 153.683 73.7031C153.612 73.7344 153.549 73.7768 153.496 73.8304C153.442 73.8839 153.4 73.9464 153.368 74.0179C153.337 74.0915 153.321 74.1696 153.321 74.2522L153.321 74.5268C153.321 74.6094 153.337 74.6864 153.368 74.7578C153.4 74.8315 153.442 74.8951 153.496 74.9487C153.549 75.0022 153.612 75.0446 153.683 75.0759C153.757 75.1071 153.835 75.1228 153.917 75.1228L154.145 75.1228L154.078 75.5346L153.941 75.5346ZM155.511 75.1228C155.594 75.1228 155.671 75.1071 155.742 75.0759C155.816 75.0446 155.879 75.0022 155.933 74.9487C155.987 74.8951 156.029 74.8315 156.06 74.7578C156.092 74.6864 156.107 74.6094 156.107 74.5268L156.107 74.2522C156.107 74.1696 156.092 74.0915 156.06 74.0179C156.029 73.9464 155.987 73.8839 155.933 73.8304C155.879 73.7768 155.816 73.7344 155.742 73.7031C155.671 73.6719 155.594 73.6563 155.511 73.6563L155.002 73.6563L155.002 75.1228L155.511 75.1228ZM156.037 77.3661C156.037 77.2835 156.021 77.2054 155.99 77.1317C155.959 77.0603 155.916 76.9978 155.863 76.9442C155.809 76.8906 155.746 76.8482 155.672 76.817C155.6 76.7857 155.523 76.7701 155.441 76.7701L153 76.7701L153 76.3583L156.429 76.3583L156.429 76.4955L156.08 76.7199C156.208 76.8136 156.308 76.9308 156.382 77.0714C156.458 77.2143 156.496 77.3694 156.496 77.5368L156.496 77.7779L156.037 77.7779L156.037 77.3661Z" fill="#070C08"/>
<g opacity="0.7">
<path d="M102.703 71.1886L105 71.1886L105 71.6205L102.71 71.6205L100.199 72.8627L100.199 72.3973L102.194 71.4096L100.199 70.4219L100.199 69.9565L102.703 71.1886ZM105 67.4621L104.652 67.6897C104.779 67.7835 104.881 67.9007 104.956 68.0413C105.03 68.1819 105.067 68.3359 105.067 68.5033L105.067 68.6071C105.067 68.7455 105.041 68.8761 104.99 68.9989C104.936 69.1217 104.864 69.2288 104.772 69.3203C104.681 69.4118 104.574 69.4844 104.451 69.5379C104.328 69.5893 104.198 69.615 104.059 69.615L101.571 69.615L101.571 69.2031L104.083 69.2031C104.165 69.2031 104.243 69.1875 104.317 69.1563C104.388 69.125 104.451 69.0826 104.504 69.029C104.558 68.9754 104.6 68.9129 104.632 68.8415C104.663 68.7679 104.679 68.6897 104.679 68.6071L104.679 68.3326C104.679 68.25 104.663 68.173 104.632 68.1016C104.6 68.0279 104.558 67.9643 104.504 67.9107C104.451 67.8571 104.388 67.8147 104.317 67.7835C104.243 67.7522 104.165 67.7366 104.083 67.7366L101.571 67.7366L101.571 67.3248L105 67.3248L105 67.4621ZM104.059 64.2109C104.198 64.2109 104.328 64.2377 104.451 64.2913C104.574 64.3426 104.681 64.4141 104.772 64.5056C104.864 64.5971 104.936 64.7042 104.99 64.827C105.041 64.9498 105.067 65.0804 105.067 65.2188L105.067 65.4933C105.067 65.6317 105.041 65.7623 104.99 65.885C104.936 66.0078 104.864 66.115 104.772 66.2065C104.681 66.298 104.574 66.3705 104.451 66.4241C104.328 66.4754 104.198 66.5011 104.059 66.5011L102.512 66.5011C102.374 66.5011 102.243 66.4754 102.121 66.4241C101.998 66.3705 101.891 66.298 101.799 66.2065C101.708 66.115 101.636 66.0078 101.585 65.885C101.531 65.7623 101.504 65.6317 101.504 65.4933L101.504 65.2187C101.504 65.0804 101.531 64.9498 101.585 64.827C101.636 64.7042 101.708 64.5971 101.799 64.5056C101.891 64.4141 101.998 64.3426 102.121 64.2913C102.243 64.2377 102.374 64.2109 102.512 64.2109L102.65 64.2109L102.717 64.6228L102.489 64.6228C102.406 64.6228 102.329 64.6384 102.258 64.6696C102.184 64.7009 102.121 64.7433 102.067 64.7969C102.013 64.8504 101.971 64.9141 101.94 64.9877C101.908 65.0592 101.893 65.1362 101.893 65.2187L101.893 65.4933C101.893 65.5759 101.908 65.654 101.94 65.7277C101.971 65.7991 102.013 65.8616 102.067 65.9152C102.121 65.9687 102.184 66.0112 102.258 66.0424C102.329 66.0737 102.406 66.0893 102.489 66.0893L104.083 66.0893C104.165 66.0893 104.243 66.0737 104.317 66.0424C104.388 66.0112 104.451 65.9688 104.504 65.9152C104.558 65.8616 104.6 65.7991 104.632 65.7277C104.663 65.654 104.679 65.5759 104.679 65.4933L104.679 65.2188C104.679 65.1362 104.663 65.0592 104.632 64.9877C104.6 64.9141 104.558 64.8504 104.504 64.7969C104.451 64.7433 104.388 64.7009 104.317 64.6696C104.243 64.6384 104.165 64.6228 104.083 64.6228L103.855 64.6228L103.922 64.2109L104.059 64.2109ZM104.059 61.0971C104.198 61.0971 104.328 61.1239 104.451 61.1775C104.574 61.2288 104.681 61.3002 104.772 61.3917C104.864 61.4833 104.936 61.5904 104.99 61.7132C105.041 61.8359 105.067 61.9665 105.067 62.1049L105.067 62.3795C105.067 62.5179 105.041 62.6484 104.99 62.7712C104.936 62.894 104.864 63.0011 104.772 63.0926C104.681 63.1842 104.574 63.2567 104.451 63.3103C104.328 63.3616 104.198 63.3873 104.059 63.3873L102.512 63.3873C102.374 63.3873 102.243 63.3616 102.121 63.3103C101.998 63.2567 101.891 63.1842 101.799 63.0926C101.708 63.0011 101.636 62.894 101.585 62.7712C101.531 62.6484 101.504 62.5179 101.504 62.3795L101.504 62.1049C101.504 61.9665 101.531 61.8359 101.585 61.7132C101.636 61.5904 101.708 61.4833 101.799 61.3917C101.891 61.3002 101.998 61.2288 102.121 61.1775C102.243 61.1239 102.374 61.0971 102.512 61.0971L102.65 61.0971L102.717 61.5089L102.489 61.5089C102.406 61.5089 102.329 61.5246 102.258 61.5558C102.184 61.5871 102.121 61.6295 102.067 61.683C102.013 61.7366 101.971 61.8002 101.94 61.8739C101.908 61.9453 101.893 62.0223 101.893 62.1049L101.893 62.3795C101.893 62.4621 101.908 62.5402 101.94 62.6138C101.971 62.6853 102.013 62.7478 102.067 62.8013C102.121 62.8549 102.184 62.8973 102.258 62.9286C102.329 62.9598 102.406 62.9754 102.489 62.9754L104.083 62.9754C104.165 62.9754 104.243 62.9598 104.317 62.9286C104.388 62.8973 104.451 62.8549 104.504 62.8013C104.558 62.7478 104.6 62.6853 104.632 62.6138C104.663 62.5402 104.679 62.4621 104.679 62.3795L104.679 62.1049C104.679 62.0223 104.663 61.9453 104.632 61.8739C104.6 61.8002 104.558 61.7366 104.504 61.683C104.451 61.6295 104.388 61.5871 104.317 61.5558C104.243 61.5246 104.165 61.5089 104.083 61.5089L103.855 61.5089L103.922 61.0971L104.059 61.0971ZM105 58.1205L104.658 58.3482C104.781 58.442 104.881 58.5592 104.956 58.6998C105.03 58.8404 105.067 58.9944 105.067 59.1618L105.067 59.2656C105.067 59.404 105.041 59.5346 104.99 59.6574C104.936 59.7801 104.864 59.8873 104.772 59.9788C104.681 60.0703 104.574 60.1429 104.451 60.1964C104.328 60.2478 104.198 60.2734 104.059 60.2734L104.026 60.2734C103.887 60.2734 103.757 60.2478 103.634 60.1964C103.511 60.1429 103.404 60.0703 103.313 59.9788C103.221 59.8873 103.15 59.7801 103.098 59.6574C103.045 59.5346 103.018 59.404 103.018 59.2656L103.018 58.3951L102.489 58.3951C102.406 58.3951 102.329 58.4107 102.258 58.442C102.184 58.4732 102.121 58.5156 102.067 58.5692C102.013 58.6228 101.971 58.6864 101.94 58.76C101.908 58.8315 101.893 58.9085 101.893 58.9911L101.893 59.2321C101.893 59.3147 101.908 59.3929 101.94 59.4665C101.971 59.5379 102.013 59.6004 102.067 59.654C102.121 59.7076 102.184 59.75 102.258 59.7812C102.329 59.8125 102.406 59.8281 102.489 59.8281L102.613 59.8281L102.546 60.24L102.512 60.24C102.374 60.24 102.243 60.2143 102.121 60.1629C101.998 60.1094 101.891 60.0368 101.799 59.9453C101.708 59.8538 101.636 59.7467 101.585 59.6239C101.531 59.5011 101.504 59.3705 101.504 59.2321L101.504 58.9911C101.504 58.8527 101.531 58.7221 101.585 58.5993C101.636 58.4766 101.708 58.3694 101.799 58.2779C101.891 58.1864 101.998 58.115 102.121 58.0636C102.243 58.01 102.374 57.9833 102.512 57.9833L105 57.9833L105 58.1205ZM103.339 58.3951L103.339 59.2656C103.339 59.3482 103.355 59.4263 103.386 59.5C103.417 59.5714 103.461 59.6339 103.517 59.6875C103.57 59.7411 103.634 59.7835 103.708 59.8147C103.779 59.846 103.856 59.8616 103.939 59.8616L104.083 59.8616C104.165 59.8616 104.243 59.846 104.317 59.8147C104.388 59.7835 104.451 59.7411 104.504 59.6875C104.558 59.6339 104.6 59.5714 104.632 59.5C104.663 59.4263 104.679 59.3482 104.679 59.2656L104.679 58.9911C104.679 58.9085 104.663 58.8315 104.632 58.76C104.6 58.6864 104.558 58.6228 104.504 58.5692C104.451 58.5156 104.388 58.4732 104.317 58.442C104.243 58.4107 104.165 58.3951 104.083 58.3951L103.339 58.3951Z" fill="#070C08"/>
</g>
<g opacity="0.7">
<path d="M130.819 90.1116C130.819 89.9487 130.85 89.7958 130.913 89.6529C130.973 89.51 131.057 89.385 131.164 89.2779C131.271 89.1708 131.396 89.0859 131.539 89.0234C131.682 88.9632 131.835 88.933 131.998 88.933H132.339C132.502 88.933 132.656 88.9632 132.801 89.0234C132.944 89.0859 133.069 89.1708 133.176 89.2779C133.283 89.385 133.368 89.51 133.431 89.6529C133.491 89.7958 133.521 89.9487 133.521 90.1116V92.6897C133.521 92.8527 133.491 93.0056 133.431 93.1484C133.368 93.2913 133.283 93.4163 133.176 93.5234C133.069 93.6306 132.944 93.7143 132.801 93.7746C132.656 93.8371 132.502 93.8683 132.339 93.8683H131.998C131.835 93.8683 131.682 93.8371 131.539 93.7746C131.396 93.7143 131.271 93.6306 131.164 93.5234C131.057 93.4163 130.973 93.2913 130.913 93.1484C130.85 93.0056 130.819 92.8527 130.819 92.6897V90.1116ZM131.251 92.6897C131.251 92.7969 131.271 92.8962 131.311 92.9877C131.352 93.0815 131.406 93.1629 131.475 93.2321C131.545 93.3013 131.626 93.356 131.72 93.3962C131.811 93.4364 131.911 93.4565 132.018 93.4565H132.319C132.426 93.4565 132.527 93.4364 132.621 93.3962C132.712 93.356 132.794 93.3013 132.865 93.2321C132.934 93.1629 132.989 93.0815 133.029 92.9877C133.069 92.8962 133.089 92.7969 133.089 92.6897V90.1116C133.089 90.0045 133.069 89.904 133.029 89.8103C132.989 89.7188 132.934 89.6373 132.865 89.5658C132.794 89.4967 132.712 89.442 132.621 89.4018C132.527 89.3616 132.426 89.3415 132.319 89.3415H132.018C131.911 89.3415 131.811 89.3616 131.72 89.4018C131.626 89.442 131.545 89.4967 131.475 89.5658C131.406 89.6373 131.352 89.7188 131.311 89.8103C131.271 89.904 131.251 90.0045 131.251 90.1116V92.6897ZM127.039 89H127.263L128.067 91.5848L128.08 91.7623L128.094 91.5848L128.897 89H129.125L130.27 92.4286H129.852L129.035 89.8371L129.021 89.6596L129.008 89.8371L128.204 92.4286H127.956L127.156 89.8371L127.143 89.6596L127.129 89.8371L126.312 92.4286H125.894L127.039 89ZM125.275 89V93.8013H124.863V89H125.275Z" fill="#070C08"/>
</g>
</g>
<g clip-path="url(#clip5_209_3187)">
<path d="M52.7511 37.9766C52.7511 38.1395 52.7199 38.2924 52.6574 38.4353C52.5971 38.5781 52.5134 38.7031 52.4062 38.8103C52.2991 38.9174 52.173 39.0022 52.0279 39.0647C51.885 39.125 51.7321 39.1551 51.5692 39.1551L50.481 39.1551L50.481 41L50.0491 41L50.0491 36.1987L51.5692 36.1987C51.7321 36.1987 51.885 36.2299 52.0279 36.2924C52.173 36.3527 52.2991 36.4364 52.4062 36.5435C52.5134 36.6507 52.5971 36.7768 52.6574 36.9219C52.7199 37.0647 52.7511 37.2176 52.7511 37.3806L52.7511 37.9766ZM52.3192 37.3806C52.3192 37.2734 52.2991 37.1741 52.2589 37.0826C52.2187 36.9888 52.1629 36.9074 52.0915 36.8382C52.0223 36.7667 51.9408 36.7109 51.8471 36.6708C51.7556 36.6306 51.6562 36.6105 51.5491 36.6105L50.481 36.6105L50.481 38.7433L51.5491 38.7433C51.6562 38.7433 51.7556 38.7232 51.8471 38.683C51.9408 38.6429 52.0223 38.5882 52.0915 38.519C52.1629 38.4498 52.2187 38.3694 52.2589 38.2779C52.2991 38.1842 52.3192 38.0837 52.3192 37.9766L52.3192 37.3806ZM54.4487 37.9632C54.3661 37.9632 54.2879 37.9788 54.2143 38.01C54.1429 38.0413 54.0804 38.0837 54.0268 38.1373C53.9732 38.1908 53.9308 38.2545 53.8996 38.3281C53.8683 38.3996 53.8527 38.4766 53.8527 38.5592L53.8527 41L53.4408 41L53.4408 37.5714L53.5781 37.5714L53.8025 37.9196C53.8962 37.7924 54.0134 37.692 54.154 37.6183C54.2969 37.5424 54.452 37.5045 54.6194 37.5045L54.8605 37.5045L54.8605 37.9632L54.4487 37.9632ZM57.6998 40.0592C57.6998 40.1975 57.673 40.3281 57.6194 40.4509C57.5681 40.5737 57.4967 40.6808 57.4051 40.7723C57.3136 40.8638 57.2065 40.9364 57.0837 40.99C56.9609 41.0413 56.8304 41.067 56.692 41.067L56.4174 41.067C56.279 41.067 56.1484 41.0413 56.0257 40.99C55.9029 40.9364 55.7958 40.8638 55.7042 40.7723C55.6127 40.6808 55.5402 40.5737 55.4866 40.4509C55.4353 40.3281 55.4096 40.1975 55.4096 40.0592L55.4096 38.5123C55.4096 38.3739 55.4353 38.2433 55.4866 38.1205C55.5402 37.9978 55.6127 37.8906 55.7042 37.7991C55.7958 37.7076 55.9029 37.6362 56.0257 37.5848C56.1484 37.5313 56.279 37.5045 56.4174 37.5045L56.692 37.5045C56.8304 37.5045 56.9609 37.5313 57.0837 37.5848C57.2065 37.6362 57.3136 37.7076 57.4051 37.7991C57.4967 37.8906 57.5681 37.9978 57.6194 38.1205C57.673 38.2433 57.6998 38.3739 57.6998 38.5123L57.6998 39.3192L55.8214 39.3192L55.8214 40.0826C55.8214 40.1652 55.8371 40.2433 55.8683 40.317C55.8996 40.3884 55.942 40.4509 55.9955 40.5045C56.0491 40.558 56.1116 40.6004 56.183 40.6317C56.2567 40.6629 56.3348 40.6786 56.4174 40.6786L56.692 40.6786C56.7746 40.6786 56.8516 40.6629 56.923 40.6317C56.9967 40.6004 57.0603 40.558 57.1138 40.5045C57.1674 40.4509 57.2098 40.3884 57.2411 40.317C57.2723 40.2433 57.2879 40.1652 57.2879 40.0826L57.2879 39.8549L57.6998 39.9219L57.6998 40.0592ZM57.2879 38.4888C57.2879 38.4063 57.2723 38.3292 57.2411 38.2578C57.2098 38.1842 57.1674 38.1205 57.1138 38.067C57.0603 38.0134 56.9967 37.971 56.923 37.9397C56.8516 37.9085 56.7746 37.8929 56.692 37.8929L56.4174 37.8929C56.3348 37.8929 56.2567 37.9085 56.183 37.9397C56.1116 37.971 56.0491 38.0134 55.9955 38.067C55.942 38.1205 55.8996 38.1842 55.8683 38.2578C55.8371 38.3292 55.8214 38.4063 55.8214 38.4888L55.8214 38.9978L57.2879 38.9978L57.2879 38.4888ZM60.8806 40.1295C60.8806 40.2679 60.8527 40.3951 60.7969 40.5112C60.7411 40.625 60.6652 40.7232 60.5692 40.8058C60.4732 40.8884 60.3616 40.9531 60.2344 41C60.1094 41.0446 59.9777 41.067 59.8393 41.067L59.5647 41.067C59.4263 41.067 59.2935 41.0413 59.1663 40.99C59.0413 40.9364 58.9308 40.8638 58.8348 40.7723C58.7411 40.6808 58.6652 40.5737 58.6071 40.4509C58.5513 40.3281 58.5234 40.1975 58.5234 40.0592L58.5234 39.9219L58.9353 39.8549L58.9353 40.0826C58.9353 40.1652 58.952 40.2433 58.9855 40.317C59.0212 40.3884 59.0681 40.4509 59.1261 40.5045C59.1842 40.558 59.2511 40.6004 59.327 40.6317C59.4029 40.6629 59.4821 40.6786 59.5647 40.6786L59.8393 40.6786C59.9219 40.6786 60.0011 40.6663 60.077 40.6417C60.1529 40.6172 60.2199 40.5826 60.2779 40.5379C60.3382 40.4911 60.385 40.4353 60.4185 40.3705C60.4542 40.3058 60.4721 40.2321 60.4721 40.1496C60.4721 40.0268 60.4453 39.9263 60.3917 39.8482C60.3382 39.7701 60.2667 39.7054 60.1775 39.654C60.0904 39.6004 59.99 39.5569 59.8761 39.5234C59.7645 39.4877 59.6496 39.4531 59.5312 39.4196C59.4129 39.3839 59.2969 39.3438 59.183 39.2991C59.0714 39.2545 58.971 39.1964 58.8817 39.125C58.7946 39.0513 58.7243 38.9598 58.6708 38.8504C58.6172 38.7411 58.5904 38.6049 58.5904 38.442C58.5904 38.3036 58.6172 38.1775 58.6708 38.0636C58.7243 37.9475 58.7969 37.8482 58.8884 37.7656C58.9799 37.683 59.0859 37.6194 59.2065 37.5748C59.3292 37.5279 59.4598 37.5045 59.5982 37.5045L59.8393 37.5045C59.9777 37.5045 60.1083 37.5313 60.231 37.5848C60.3538 37.6362 60.4609 37.7076 60.5525 37.7991C60.644 37.8906 60.7154 37.9978 60.7667 38.1205C60.8203 38.2433 60.8471 38.3739 60.8471 38.5123L60.8471 38.5257L60.4353 38.5926L60.4353 38.4888C60.4353 38.4063 60.4196 38.3292 60.3884 38.2578C60.3571 38.1842 60.3147 38.1205 60.2612 38.067C60.2076 38.0134 60.144 37.971 60.0703 37.9397C59.9989 37.9085 59.9219 37.8929 59.8393 37.8929L59.5982 37.8929C59.5156 37.8929 59.4375 37.9051 59.3638 37.9297C59.2924 37.9542 59.2299 37.99 59.1763 38.0368C59.1228 38.0815 59.0804 38.1362 59.0491 38.2009C59.0179 38.2656 59.0022 38.3393 59.0022 38.4219C59.0022 38.5402 59.029 38.6373 59.0826 38.7132C59.1362 38.7868 59.2065 38.8493 59.2935 38.9007C59.3828 38.952 59.4833 38.9955 59.5949 39.0313C59.7087 39.0647 59.8237 39.1004 59.9397 39.1384C60.058 39.1741 60.173 39.2154 60.2846 39.2623C60.3984 39.3092 60.4989 39.3694 60.5859 39.4431C60.6752 39.5167 60.7467 39.6094 60.8002 39.721C60.8538 39.8304 60.8806 39.9665 60.8806 40.1295ZM63.9609 40.0592C63.9609 40.1975 63.9342 40.3281 63.8806 40.4509C63.8292 40.5737 63.7578 40.6808 63.6663 40.7723C63.5748 40.8638 63.4676 40.9364 63.3449 40.99C63.2221 41.0413 63.0915 41.067 62.9531 41.067L62.6786 41.067C62.5402 41.067 62.4096 41.0413 62.2868 40.99C62.1641 40.9364 62.0569 40.8638 61.9654 40.7723C61.8739 40.6808 61.8013 40.5737 61.7478 40.4509C61.6964 40.3281 61.6708 40.1975 61.6708 40.0592L61.6708 38.5123C61.6708 38.3739 61.6964 38.2433 61.7478 38.1205C61.8013 37.9978 61.8739 37.8906 61.9654 37.7991C62.0569 37.7076 62.1641 37.6362 62.2868 37.5848C62.4096 37.5313 62.5402 37.5045 62.6786 37.5045L62.9531 37.5045C63.0915 37.5045 63.2221 37.5313 63.3449 37.5848C63.4676 37.6362 63.5748 37.7076 63.6663 37.7991C63.7578 37.8906 63.8292 37.9978 63.8806 38.1205C63.9342 38.2433 63.9609 38.3739 63.9609 38.5123L63.9609 39.3192L62.0826 39.3192L62.0826 40.0826C62.0826 40.1652 62.0982 40.2433 62.1295 40.317C62.1607 40.3884 62.2031 40.4509 62.2567 40.5045C62.3103 40.558 62.3728 40.6004 62.4442 40.6317C62.5179 40.6629 62.596 40.6786 62.6786 40.6786L62.9531 40.6786C63.0357 40.6786 63.1127 40.6629 63.1842 40.6317C63.2578 40.6004 63.3214 40.558 63.375 40.5045C63.4286 40.4509 63.471 40.3884 63.5022 40.317C63.5335 40.2433 63.5491 40.1652 63.5491 40.0826L63.5491 39.8549L63.9609 39.9219L63.9609 40.0592ZM63.5491 38.4888C63.5491 38.4063 63.5335 38.3292 63.5022 38.2578C63.471 38.1842 63.4286 38.1205 63.375 38.067C63.3214 38.0134 63.2578 37.971 63.1842 37.9397C63.1127 37.9085 63.0357 37.8929 62.9531 37.8929L62.6786 37.8929C62.596 37.8929 62.5179 37.9085 62.4442 37.9397C62.3728 37.971 62.3103 38.0134 62.2567 38.067C62.2031 38.1205 62.1607 38.1842 62.1295 38.2578C62.0982 38.3292 62.0826 38.4063 62.0826 38.4888L62.0826 38.9978L63.5491 38.9978L63.5491 38.4888ZM66.6629 41L66.6629 38.4888C66.6629 38.4063 66.6473 38.3292 66.6161 38.2578C66.5848 38.1842 66.5424 38.1205 66.4888 38.067C66.4353 38.0134 66.3717 37.971 66.298 37.9397C66.2266 37.9085 66.1496 37.8929 66.067 37.8929L65.7924 37.8929C65.7098 37.8929 65.6317 37.9085 65.558 37.9397C65.4866 37.971 65.4241 38.0134 65.3705 38.067C65.317 38.1205 65.2746 38.1842 65.2433 38.2578C65.2121 38.3292 65.1964 38.4063 65.1964 38.4888L65.1964 41L64.7846 41L64.7846 37.5714L64.9219 37.5714L65.1462 37.9196C65.24 37.7924 65.3571 37.692 65.4978 37.6183C65.6406 37.5424 65.7958 37.5045 65.9632 37.5045L66.067 37.5045C66.2054 37.5045 66.3359 37.5313 66.4587 37.5848C66.5815 37.6362 66.6886 37.7076 66.7801 37.7991C66.8717 37.8906 66.9431 37.9978 66.9944 38.1205C67.048 38.2433 67.0748 38.3739 67.0748 38.5123L67.0748 41L66.6629 41ZM69.1473 41C69.0223 41 68.904 40.9766 68.7924 40.9297C68.683 40.8828 68.5871 40.8181 68.5045 40.7355C68.4241 40.6529 68.3594 40.5569 68.3103 40.4475C68.2634 40.3382 68.24 40.221 68.24 40.096L68.24 37.9632L67.6239 37.9632L67.6239 37.5714L68.24 37.5714L68.24 36.7478L68.6518 36.6808L68.6518 37.5714L69.5223 37.5714L69.5223 37.9632L68.6518 37.9632L68.6518 40.1161C68.6518 40.1853 68.6641 40.25 68.6886 40.3103C68.7154 40.3683 68.7511 40.4196 68.7958 40.4643C68.8404 40.5089 68.8929 40.5446 68.9531 40.5714C69.0134 40.596 69.0781 40.6083 69.1473 40.6083L69.5223 40.6083L69.5223 41L69.1473 41Z" fill="#070C08"/>
<g opacity="0.7">
<path d="M85.1116 60.702C84.9487 60.702 84.7958 60.6708 84.6529 60.6083C84.51 60.548 84.385 60.4643 84.2779 60.3571C84.1708 60.25 84.0859 60.125 84.0234 59.9821C83.9632 59.8393 83.933 59.6864 83.933 59.5234L83.933 59.3862C83.933 59.2232 83.9632 59.0692 84.0234 58.9241C84.0859 58.7813 84.1708 58.6563 84.2779 58.5491C84.385 58.442 84.51 58.3571 84.6529 58.2946C84.7958 58.2344 84.9487 58.2042 85.1116 58.2042L85.3025 58.2042L85.3728 58.6362L85.1116 58.6362C85.0045 58.6362 84.904 58.6563 84.8103 58.6964C84.7188 58.7366 84.6373 58.7913 84.5658 58.8605C84.4967 58.9319 84.442 59.0134 84.4018 59.1049C84.3616 59.1987 84.3415 59.2991 84.3415 59.4063L84.3415 59.5033C84.3415 59.6083 84.3616 59.7076 84.4018 59.8013C84.442 59.8951 84.4967 59.9766 84.5658 60.0458C84.6373 60.115 84.7188 60.1696 84.8103 60.2098C84.904 60.25 85.0045 60.2701 85.1116 60.2701L88.8013 60.2701L88.8013 60.702L85.1116 60.702ZM84 63.6786L84.3482 63.4509C84.221 63.3571 84.1194 63.24 84.0435 63.0993C83.9699 62.9587 83.933 62.8047 83.933 62.6373L83.933 62.5335C83.933 62.3951 83.9587 62.2645 84.01 62.1417C84.0636 62.019 84.1362 61.9118 84.2277 61.8203C84.3192 61.7288 84.4263 61.6563 84.5491 61.6027C84.6719 61.5513 84.8025 61.5257 84.9408 61.5257L87.4286 61.5257L87.4286 61.9375L84.9174 61.9375C84.8348 61.9375 84.7567 61.9531 84.683 61.9844C84.6116 62.0156 84.5491 62.058 84.4955 62.1116C84.442 62.1652 84.3996 62.2277 84.3683 62.2991C84.3371 62.3728 84.3214 62.4509 84.3214 62.5335L84.3214 62.808C84.3214 62.8906 84.3371 62.9676 84.3683 63.0391C84.3996 63.1127 84.442 63.1763 84.4955 63.2299C84.5491 63.2835 84.6116 63.3259 84.683 63.3571C84.7567 63.3884 84.8348 63.404 84.9174 63.404L87.4286 63.404L87.4286 63.8158L84 63.8158L84 63.6786ZM88.2522 64.7433L88.8013 64.7433L88.8013 65.2221L88.2522 65.2221L88.2522 64.7433ZM84 64.7768L87.4286 64.7768L87.4286 65.1886L84 65.1886L84 64.7768ZM84.9408 68.4431C84.8025 68.4431 84.6719 68.4163 84.5491 68.3627C84.4263 68.3114 84.3192 68.24 84.2277 68.1484C84.1362 68.0569 84.0636 67.9498 84.01 67.827C83.9587 67.7042 83.933 67.5737 83.933 67.4353L83.933 67.1607C83.933 67.0223 83.9587 66.8917 84.01 66.769C84.0636 66.6462 84.1362 66.5391 84.2277 66.4475C84.3192 66.356 84.4263 66.2835 84.5491 66.2299C84.6719 66.1786 84.8025 66.1529 84.9408 66.1529L86.4877 66.1529C86.6261 66.1529 86.7567 66.1786 86.8795 66.2299C87.0022 66.2835 87.1094 66.356 87.2009 66.4475C87.2924 66.5391 87.3638 66.6462 87.4152 66.769C87.4688 66.8917 87.4955 67.0223 87.4955 67.1607L87.4955 67.4353C87.4955 67.5737 87.4688 67.7042 87.4152 67.827C87.3638 67.9498 87.2924 68.0569 87.2009 68.1484C87.1094 68.24 87.0022 68.3114 86.8795 68.3627C86.7567 68.4163 86.6261 68.4431 86.4877 68.4431L86.3504 68.4431L86.2835 68.0313L86.5112 68.0313C86.5938 68.0313 86.6708 68.0156 86.7422 67.9844C86.8158 67.9531 86.8795 67.9107 86.933 67.8571C86.9866 67.8036 87.029 67.74 87.0603 67.6663C87.0915 67.5949 87.1071 67.5179 87.1071 67.4353L87.1071 67.1607C87.1071 67.0781 87.0915 67 87.0603 66.9263C87.029 66.8549 86.9866 66.7924 86.933 66.7388C86.8795 66.6853 86.8158 66.6429 86.7422 66.6116C86.6708 66.5804 86.5938 66.5647 86.5112 66.5647L84.9174 66.5647C84.8348 66.5647 84.7567 66.5804 84.683 66.6116C84.6116 66.6429 84.5491 66.6853 84.4955 66.7388C84.442 66.7924 84.3996 66.8549 84.3683 66.9263C84.3371 67 84.3214 67.0781 84.3214 67.1607L84.3214 67.4353C84.3214 67.5179 84.3371 67.5949 84.3683 67.6663C84.3996 67.74 84.442 67.8036 84.4955 67.8571C84.5491 67.9107 84.6116 67.9531 84.683 67.9844C84.7567 68.0156 84.8348 68.0313 84.9174 68.0313L85.1451 68.0313L85.0781 68.4431L84.9408 68.4431ZM84.9408 71.5569C84.8025 71.5569 84.6719 71.5301 84.5491 71.4766C84.4263 71.4252 84.3192 71.3538 84.2277 71.2623C84.1362 71.1708 84.0636 71.0636 84.01 70.9408C83.9587 70.8181 83.933 70.6875 83.933 70.5491L83.933 70.2746C83.933 70.1362 83.9587 70.0056 84.01 69.8828C84.0636 69.76 84.1362 69.6529 84.2277 69.5614C84.3192 69.4699 84.4263 69.3973 84.5491 69.3438C84.6719 69.2924 84.8025 69.2667 84.9408 69.2667L86.4877 69.2667C86.6261 69.2667 86.7567 69.2924 86.8795 69.3438C87.0022 69.3973 87.1094 69.4699 87.2009 69.5614C87.2924 69.6529 87.3638 69.76 87.4152 69.8828C87.4688 70.0056 87.4955 70.1362 87.4955 70.2746L87.4955 70.5491C87.4955 70.6875 87.4688 70.8181 87.4152 70.9408C87.3638 71.0636 87.2924 71.1708 87.2009 71.2623C87.1094 71.3538 87.0022 71.4252 86.8795 71.4766C86.7567 71.5301 86.6261 71.5569 86.4877 71.5569L85.6808 71.5569L85.6808 69.6786L84.9174 69.6786C84.8348 69.6786 84.7567 69.6942 84.683 69.7254C84.6116 69.7567 84.5491 69.7991 84.4955 69.8527C84.442 69.9063 84.3996 69.9688 84.3683 70.0402C84.3371 70.1138 84.3214 70.192 84.3214 70.2746L84.3214 70.5491C84.3214 70.6317 84.3371 70.7087 84.3683 70.7801C84.3996 70.8538 84.442 70.9174 84.4955 70.971C84.5491 71.0246 84.6116 71.067 84.683 71.0982C84.7567 71.1295 84.8348 71.1451 84.9174 71.1451L85.1451 71.1451L85.0781 71.5569L84.9408 71.5569ZM86.5112 71.1451C86.5938 71.1451 86.6708 71.1295 86.7422 71.0982C86.8158 71.067 86.8795 71.0246 86.933 70.971C86.9866 70.9174 87.029 70.8538 87.0603 70.7801C87.0915 70.7087 87.1071 70.6317 87.1071 70.5491L87.1071 70.2746C87.1071 70.192 87.0915 70.1138 87.0603 70.0402C87.029 69.9688 86.9866 69.9063 86.933 69.8527C86.8795 69.7991 86.8158 69.7567 86.7422 69.7254C86.6708 69.6942 86.5938 69.6786 86.5112 69.6786L86.0022 69.6786L86.0022 71.1451L86.5112 71.1451Z" fill="#070C08"/>
</g>
<path d="M34.8214 67.7489C34.9844 67.7489 35.1373 67.7801 35.2801 67.8426C35.423 67.9029 35.548 67.9866 35.6551 68.0938C35.7623 68.2009 35.8471 68.327 35.9096 68.4721C35.9699 68.615 36 68.7679 36 68.9308L36 70.4509L31.1987 70.4509L31.1987 68.9308C31.1987 68.7679 31.2299 68.615 31.2924 68.4721C31.3527 68.327 31.4364 68.2009 31.5435 68.0938C31.6507 67.9866 31.7768 67.9029 31.9219 67.8426C32.0647 67.7801 32.2176 67.7489 32.3806 67.7489L34.8214 67.7489ZM32.3806 68.1808C32.2734 68.1808 32.1741 68.2009 32.0826 68.2411C31.9888 68.2813 31.9074 68.3371 31.8382 68.4085C31.7667 68.4777 31.7109 68.5592 31.6708 68.6529C31.6306 68.7444 31.6105 68.8438 31.6105 68.9509L31.6105 70.019L35.5882 70.019L35.5882 68.9509C35.5882 68.8438 35.5681 68.7444 35.5279 68.6529C35.4877 68.5592 35.433 68.4777 35.3638 68.4085C35.2946 68.3371 35.2143 68.2813 35.1228 68.2411C35.029 68.2009 34.9286 68.1808 34.8214 68.1808L32.3806 68.1808ZM35.0592 64.5681C35.1975 64.5681 35.3281 64.5949 35.4509 64.6484C35.5737 64.6998 35.6808 64.7712 35.7723 64.8627C35.8638 64.9542 35.9364 65.0614 35.99 65.1842C36.0413 65.3069 36.067 65.4375 36.067 65.5759L36.067 65.8504C36.067 65.9888 36.0413 66.1194 35.99 66.2422C35.9364 66.365 35.8638 66.4721 35.7723 66.5636C35.6808 66.6551 35.5737 66.7277 35.4509 66.7813C35.3281 66.8326 35.1975 66.8583 35.0592 66.8583L33.5123 66.8583C33.3739 66.8583 33.2433 66.8326 33.1205 66.7813C32.9978 66.7277 32.8906 66.6551 32.7991 66.5636C32.7076 66.4721 32.6362 66.365 32.5848 66.2422C32.5313 66.1194 32.5045 65.9888 32.5045 65.8504L32.5045 65.5759C32.5045 65.4375 32.5313 65.3069 32.5848 65.1842C32.6362 65.0614 32.7076 64.9542 32.7991 64.8627C32.8906 64.7712 32.9978 64.6998 33.1205 64.6484C33.2433 64.5949 33.3739 64.5681 33.5123 64.5681L35.0592 64.5681ZM33.4888 64.9799C33.4063 64.9799 33.3292 64.9955 33.2578 65.0268C33.1842 65.058 33.1205 65.1004 33.067 65.154C33.0134 65.2076 32.971 65.2712 32.9397 65.3449C32.9085 65.4163 32.8929 65.4933 32.8929 65.5759L32.8929 65.8504C32.8929 65.933 32.9085 66.0112 32.9397 66.0848C32.971 66.1563 33.0134 66.2188 33.067 66.2723C33.1205 66.3259 33.1842 66.3683 33.2578 66.3996C33.3292 66.4308 33.4063 66.4464 33.4888 66.4464L35.0826 66.4464C35.1652 66.4464 35.2433 66.4308 35.317 66.3996C35.3884 66.3683 35.4509 66.3259 35.5045 66.2723C35.558 66.2188 35.6004 66.1563 35.6317 66.0848C35.6629 66.0112 35.6786 65.933 35.6786 65.8504L35.6786 65.5759C35.6786 65.4933 35.6629 65.4163 35.6317 65.3449C35.6004 65.2712 35.558 65.2076 35.5045 65.154C35.4509 65.1004 35.3884 65.058 35.317 65.0268C35.2433 64.9955 35.1652 64.9799 35.0826 64.9799L33.4888 64.9799ZM35.0592 61.4542C35.1975 61.4542 35.3281 61.481 35.4509 61.5346C35.5737 61.5859 35.6808 61.6574 35.7723 61.7489C35.8638 61.8404 35.9364 61.9475 35.99 62.0703C36.0413 62.1931 36.067 62.3237 36.067 62.4621L36.067 62.7366C36.067 62.875 36.0413 63.0056 35.99 63.1283C35.9364 63.2511 35.8638 63.3583 35.7723 63.4498C35.6808 63.5413 35.5737 63.6138 35.4509 63.6674C35.3281 63.7188 35.1975 63.7444 35.0592 63.7444L33.5123 63.7444C33.3739 63.7444 33.2433 63.7188 33.1205 63.6674C32.9978 63.6138 32.8906 63.5413 32.7991 63.4498C32.7076 63.3583 32.6362 63.2511 32.5848 63.1283C32.5313 63.0056 32.5045 62.875 32.5045 62.7366L32.5045 62.4621C32.5045 62.3237 32.5313 62.1931 32.5848 62.0703C32.6362 61.9475 32.7076 61.8404 32.7991 61.7489C32.8906 61.6574 32.9978 61.5859 33.1205 61.5346C33.2433 61.481 33.3739 61.4542 33.5123 61.4542L35.0592 61.4542ZM33.4888 61.8661C33.4063 61.8661 33.3292 61.8817 33.2578 61.9129C33.1842 61.9442 33.1205 61.9866 33.067 62.0402C33.0134 62.0938 32.971 62.1574 32.9397 62.231C32.9085 62.3025 32.8929 62.3795 32.8929 62.4621L32.8929 62.7366C32.8929 62.8192 32.9085 62.8973 32.9397 62.971C32.971 63.0424 33.0134 63.1049 33.067 63.1585C33.1205 63.2121 33.1842 63.2545 33.2578 63.2857C33.3292 63.317 33.4063 63.3326 33.4888 63.3326L35.0826 63.3326C35.1652 63.3326 35.2433 63.317 35.317 63.2857C35.3884 63.2545 35.4509 63.2121 35.5045 63.1585C35.558 63.1049 35.6004 63.0424 35.6317 62.971C35.6629 62.8973 35.6786 62.8192 35.6786 62.7366L35.6786 62.4621C35.6786 62.3795 35.6629 62.3025 35.6317 62.231C35.6004 62.1574 35.558 62.0938 35.5045 62.0402C35.4509 61.9866 35.3884 61.9442 35.317 61.9129C35.2433 61.8817 35.1652 61.8661 35.0826 61.8661L33.4888 61.8661ZM32.9632 59.6228C32.9632 59.7054 32.9788 59.7835 33.01 59.8571C33.0413 59.9286 33.0837 59.9911 33.1373 60.0446C33.1908 60.0982 33.2545 60.1406 33.3281 60.1719C33.3996 60.2031 33.4766 60.2187 33.5592 60.2187L36 60.2187L36 60.6306L32.5714 60.6306L32.5714 60.4933L32.9196 60.269C32.7924 60.1752 32.692 60.058 32.6183 59.9174C32.5424 59.7746 32.5045 59.6194 32.5045 59.452L32.5045 59.2109L32.9632 59.2109L32.9632 59.6228Z" fill="#070C08"/>
<g opacity="0.7">
<path d="M64.2857 93.3895V89H64.7176V93.3895H65.8627V93.8013H63.1406V93.3895H64.2857ZM60.5725 89.9408C60.5725 89.8025 60.5993 89.6719 60.6529 89.5491C60.7042 89.4263 60.7757 89.3192 60.8672 89.2277C60.9587 89.1362 61.0658 89.0636 61.1886 89.01C61.3114 88.9587 61.442 88.933 61.5804 88.933H61.8549C61.9933 88.933 62.1239 88.9587 62.2467 89.01C62.3694 89.0636 62.4766 89.1362 62.5681 89.2277C62.6596 89.3192 62.7321 89.4263 62.7857 89.5491C62.8371 89.6719 62.8627 89.8025 62.8627 89.9408V91.4877C62.8627 91.6261 62.8371 91.7567 62.7857 91.8795C62.7321 92.0022 62.6596 92.1094 62.5681 92.2009C62.4766 92.2924 62.3694 92.3638 62.2467 92.4152C62.1239 92.4688 61.9933 92.4955 61.8549 92.4955H61.5804C61.442 92.4955 61.3114 92.4688 61.1886 92.4152C61.0658 92.3638 60.9587 92.2924 60.8672 92.2009C60.7757 92.1094 60.7042 92.0022 60.6529 91.8795C60.5993 91.7567 60.5725 91.6261 60.5725 91.4877V90.6808H62.4509V89.9174C62.4509 89.8348 62.4353 89.7567 62.404 89.683C62.3728 89.6116 62.3304 89.5491 62.2768 89.4955C62.2232 89.442 62.1607 89.3996 62.0893 89.3683C62.0156 89.3371 61.9375 89.3214 61.8549 89.3214H61.5804C61.4978 89.3214 61.4208 89.3371 61.3493 89.3683C61.2757 89.3996 61.2121 89.442 61.1585 89.4955C61.1049 89.5491 61.0625 89.6116 61.0312 89.683C61 89.7567 60.9844 89.8348 60.9844 89.9174V90.1451L60.5725 90.0781V89.9408ZM60.9844 91.5112C60.9844 91.5938 61 91.6708 61.0312 91.7422C61.0625 91.8158 61.1049 91.8795 61.1585 91.933C61.2121 91.9866 61.2757 92.029 61.3493 92.0603C61.4208 92.0915 61.4978 92.1071 61.5804 92.1071H61.8549C61.9375 92.1071 62.0156 92.0915 62.0893 92.0603C62.1607 92.029 62.2232 91.9866 62.2768 91.933C62.3304 91.8795 62.3728 91.8158 62.404 91.7422C62.4353 91.6708 62.4509 91.5938 62.4509 91.5112V91.0022H60.9844V91.5112ZM57.9743 89L58.7076 90.3158L59.4408 89H59.8862L58.9252 90.7143L59.8862 92.4286H59.4408L58.7076 91.1127L57.9743 92.4286H57.529L58.4866 90.7143L57.529 89H57.9743ZM55.5937 89C55.7187 89 55.8371 89.0234 55.9487 89.0703C56.058 89.1172 56.154 89.1819 56.2366 89.2645C56.317 89.3471 56.3817 89.4431 56.4308 89.5525C56.4777 89.6618 56.5011 89.779 56.5011 89.904V92.0368H57.1172V92.4286H56.5011V93.2522L56.0893 93.3192V92.4286H55.2187V92.0368H56.0893V89.8839C56.0893 89.8147 56.077 89.75 56.0525 89.6897C56.0257 89.6317 55.99 89.5804 55.9453 89.5357C55.9007 89.4911 55.8482 89.4554 55.7879 89.4286C55.7277 89.404 55.6629 89.3917 55.5937 89.3917H55.2187V89H55.5937Z" fill="#070C08"/>
</g>
</g>
<g style="mix-blend-mode:luminosity">
<path d="M9.229 105.693C9.277 105.693 9.346 105.708 9.436 105.738C9.436 106.308 9.475 106.947 9.553 107.655L14.026 107.655C14.314 107.655 14.53 107.712 14.674 107.826C14.818 107.934 14.92 108.123 14.98 108.393C15.034 108.645 15.058 108.954 15.052 109.32C14.98 109.35 14.902 109.365 14.818 109.365C14.74 109.365 14.674 109.353 14.62 109.329C14.608 109.107 14.557 108.954 14.467 108.87C14.377 108.78 14.218 108.735 13.99 108.735L7.915 108.735C7.585 108.735 7.42 108.768 7.42 108.834L7.438 109.149C7.372 109.185 7.294 109.203 7.204 109.203C7.114 109.203 7.042 109.191 6.988 109.167C6.712 108.267 6.574 107.259 6.574 106.143C6.574 105.645 6.592 105.234 6.628 104.91C6.7 104.874 6.778 104.856 6.862 104.856C6.916 104.856 6.988 104.871 7.078 104.901C7.054 105.027 7.042 105.276 7.042 105.648C7.042 106.422 7.081 107.094 7.159 107.664C7.177 107.658 7.234 107.655 7.33 107.655L9.067 107.655C9.007 107.073 8.974 106.437 8.968 105.747C9.04 105.711 9.127 105.693 9.229 105.693ZM8.752 101.041C8.89 100.969 9.088 100.933 9.346 100.933L12.109 100.933C12.469 100.933 12.727 101.14 12.883 101.554C13.033 101.968 13.108 102.637 13.108 103.561C13.108 103.867 13.078 104.104 13.018 104.272C12.958 104.44 12.859 104.563 12.721 104.641C12.583 104.713 12.385 104.749 12.127 104.749L9.373 104.749C9.001 104.749 8.74 104.539 8.59 104.119C8.446 103.693 8.374 103.021 8.374 102.103C8.374 101.797 8.404 101.563 8.464 101.401C8.518 101.233 8.614 101.113 8.752 101.041ZM12.568 102.175C12.472 102.025 12.307 101.953 12.073 101.959L9.454 101.959C9.184 101.959 9.001 101.998 8.905 102.076C8.803 102.148 8.752 102.283 8.752 102.481C8.752 103.003 8.8 103.339 8.896 103.489C8.998 103.651 9.169 103.729 9.409 103.723L12.028 103.723C12.298 103.723 12.481 103.687 12.577 103.615C12.673 103.543 12.721 103.399 12.721 103.183C12.709 102.655 12.658 102.319 12.568 102.175ZM14.179 96.7776C14.107 96.7416 14.005 96.7236 13.873 96.7236L12.73 96.7236L12.82 97.0566C12.88 97.2666 12.937 97.4796 12.991 97.6956C13.033 97.8696 13.069 98.0766 13.099 98.3166C13.111 98.4606 13.117 98.5626 13.117 98.6226C13.117 98.9526 13.066 99.1866 12.964 99.3246C12.856 99.4626 12.679 99.5316 12.433 99.5316L9.346 99.5316C9.016 99.5316 8.851 99.5646 8.851 99.6306L8.869 100.252C8.827 100.276 8.77 100.288 8.698 100.288C8.65 100.288 8.599 100.279 8.545 100.261C8.431 99.8646 8.374 99.4596 8.374 99.0456C8.374 98.8656 8.383 98.7396 8.401 98.6676C8.413 98.5956 8.446 98.5506 8.5 98.5326C8.548 98.5086 8.635 98.4996 8.761 98.5056L12.208 98.5056C12.454 98.5056 12.577 98.3376 12.577 98.0016C12.577 97.7436 12.493 97.3176 12.325 96.7236L9.346 96.7236C9.016 96.7236 8.851 96.7566 8.851 96.8226L8.869 97.4436C8.827 97.4676 8.77 97.4796 8.698 97.4796C8.65 97.4796 8.599 97.4706 8.545 97.4526C8.431 97.0566 8.374 96.6516 8.374 96.2376C8.374 96.0576 8.383 95.9316 8.401 95.8596C8.413 95.7876 8.446 95.7426 8.5 95.7246C8.548 95.7006 8.635 95.6916 8.761 95.6976L13.945 95.6976C14.443 95.6856 14.743 95.9496 14.845 96.4896C15.001 97.2276 15.076 98.1396 15.07 99.2256C14.974 99.2796 14.896 99.3066 14.836 99.3066C14.734 99.3066 14.656 99.2946 14.602 99.2706C14.59 98.4306 14.554 97.8396 14.494 97.4976C14.452 97.2696 14.407 97.1016 14.359 96.9936C14.311 96.8856 14.251 96.8136 14.179 96.7776ZM12.568 91.7928C12.502 91.3788 12.445 91.0788 12.397 90.8928C12.457 90.8628 12.532 90.8478 12.622 90.8478C12.7 90.8478 12.76 90.8598 12.802 90.8838C13.012 91.6878 13.117 92.5698 13.117 93.5298C13.117 93.8538 13.066 94.0908 12.964 94.2408C12.862 94.3848 12.694 94.4568 12.46 94.4568L9.373 94.4568C9.001 94.4568 8.74 94.2588 8.59 93.8628C8.446 93.4788 8.374 92.8548 8.374 91.9908C8.374 91.6848 8.404 91.4508 8.464 91.2888C8.518 91.1208 8.614 91.0008 8.752 90.9288C8.89 90.8568 9.088 90.8208 9.346 90.8208L9.985 90.8208C10.237 90.8208 10.435 90.8838 10.579 91.0098C10.717 91.1358 10.816 91.3368 10.876 91.6128C10.978 92.2788 11.047 92.8848 11.083 93.4308L12.109 93.4308C12.337 93.4308 12.487 93.3888 12.559 93.3048C12.631 93.2148 12.667 93.0348 12.667 92.7648C12.667 92.5248 12.634 92.2008 12.568 91.7928ZM8.905 93.2238C9.001 93.3738 9.169 93.4428 9.409 93.4308L10.669 93.4308C10.633 93.0288 10.591 92.7018 10.543 92.4498C10.489 92.2038 10.426 92.0418 10.354 91.9638C10.282 91.8858 10.15 91.8468 9.958 91.8468L9.409 91.8468C9.157 91.8468 8.986 91.8858 8.896 91.9638C8.8 92.0358 8.752 92.1708 8.752 92.3688C8.752 92.7888 8.803 93.0738 8.905 93.2238ZM9.346 89.5642C9.016 89.5642 8.851 89.5972 8.851 89.6632L8.869 90.2842C8.827 90.3082 8.77 90.3202 8.698 90.3202C8.65 90.3202 8.599 90.3112 8.545 90.2932C8.431 89.8972 8.374 89.4922 8.374 89.0782C8.374 88.8982 8.383 88.7722 8.401 88.7002C8.413 88.6282 8.446 88.5832 8.5 88.5652C8.548 88.5412 8.635 88.5322 8.761 88.5382C8.503 87.9442 8.374 87.5212 8.374 87.2692C8.374 86.9392 8.428 86.7052 8.536 86.5672C8.638 86.4292 8.812 86.3602 9.058 86.3602L9.904 86.3602C9.988 86.3602 10.048 86.4082 10.084 86.5042C10.15 86.7322 10.183 86.9752 10.183 87.2332C10.183 87.3352 10.132 87.3862 10.03 87.3862L9.283 87.3862C9.061 87.3862 8.95 87.5032 8.95 87.7372C8.95 87.9232 9.022 88.1902 9.166 88.5382L12.145 88.5382C12.475 88.5382 12.64 88.5052 12.64 88.4392L12.622 87.8182C12.664 87.7942 12.721 87.7822 12.793 87.7822C12.841 87.7822 12.892 87.7912 12.946 87.8092C13.06 88.2052 13.117 88.6102 13.117 89.0242C13.117 89.2042 13.108 89.3302 13.09 89.4022C13.078 89.4742 13.048 89.5222 13 89.5462C12.946 89.5642 12.856 89.5702 12.73 89.5642L9.346 89.5642Z" fill="#265636"/>
</g>
<g style="mix-blend-mode:luminosity">
<path d="M79.515 11.574C80.085 11.574 80.628 11.598 81.144 11.646C81.18 11.706 81.198 11.793 81.198 11.907C81.198 11.997 81.186 12.075 81.162 12.141C80.682 12.087 80.103 12.063 79.425 12.069L79.425 17.145C79.425 17.475 79.458 17.64 79.524 17.64L80.091 17.622C80.115 17.664 80.127 17.721 80.127 17.793C80.127 17.841 80.118 17.892 80.1 17.946C79.704 18.06 79.32 18.117 78.948 18.117C78.756 18.117 78.618 18.108 78.534 18.09C78.456 18.078 78.402 18.048 78.372 18C78.348 17.946 78.339 17.856 78.345 17.73L78.345 12.141C77.643 12.195 77.034 12.282 76.518 12.402C76.482 12.318 76.464 12.234 76.464 12.15C76.464 12.102 76.476 12.024 76.5 11.916C77.364 11.688 78.369 11.574 79.515 11.574ZM82.1176 12.636C82.0096 12.648 81.9616 12.552 81.9736 12.348L81.9736 11.889C81.9736 11.787 81.9826 11.718 82.0006 11.682C82.0246 11.646 82.0756 11.622 82.1536 11.61L82.8556 11.583C82.9636 11.571 83.0116 11.667 82.9996 11.871L82.9996 12.33C82.9996 12.432 82.9876 12.501 82.9636 12.537C82.9456 12.573 82.8976 12.597 82.8196 12.609L82.1176 12.636ZM83.9356 17.793C83.9356 17.841 83.9266 17.892 83.9086 17.946C83.5126 18.06 83.1076 18.117 82.6936 18.117C82.5136 18.117 82.3876 18.108 82.3156 18.09C82.2436 18.078 82.1956 18.048 82.1716 18C82.1536 17.946 82.1476 17.856 82.1536 17.73L82.1536 14.346C82.1536 14.016 82.1206 13.851 82.0546 13.851L81.4336 13.869C81.4096 13.827 81.3976 13.77 81.3976 13.698C81.3976 13.65 81.4066 13.599 81.4246 13.545C81.8206 13.431 82.2256 13.374 82.6396 13.374C82.8196 13.374 82.9456 13.383 83.0176 13.401C83.0896 13.413 83.1346 13.446 83.1526 13.5C83.1766 13.548 83.1856 13.635 83.1796 13.761L83.1796 17.145C83.1796 17.463 83.2096 17.622 83.2696 17.622L83.8996 17.622C83.9236 17.664 83.9356 17.721 83.9356 17.793ZM87.1104 13.914C86.8764 13.914 86.4714 14.001 85.8954 14.175L85.8954 17.838C85.8954 17.922 85.8474 17.982 85.7514 18.018C85.5234 18.084 85.2804 18.117 85.0224 18.117C84.9204 18.117 84.8694 18.066 84.8694 17.964L84.8694 14.346C84.8694 14.016 84.8364 13.851 84.7704 13.851L84.1494 13.869C84.1254 13.827 84.1134 13.77 84.1134 13.698C84.1134 13.65 84.1224 13.599 84.1404 13.545C84.5364 13.431 84.9414 13.374 85.3554 13.374C85.5354 13.374 85.6614 13.383 85.7334 13.401C85.8054 13.413 85.8504 13.446 85.8684 13.5C85.8924 13.548 85.9014 13.635 85.8954 13.761C86.3334 13.629 86.6874 13.533 86.9574 13.473C87.2634 13.407 87.5364 13.374 87.7764 13.374C88.2324 13.374 88.5054 13.509 88.5954 13.779C88.7334 13.731 88.9524 13.668 89.2524 13.59C89.6004 13.5 89.8104 13.446 89.8824 13.428C90.1104 13.392 90.3084 13.374 90.4764 13.374C90.8064 13.374 91.0404 13.428 91.1784 13.536C91.3164 13.638 91.3854 13.812 91.3854 14.058L91.3854 17.145C91.3854 17.343 91.3914 17.478 91.4034 17.55C91.4094 17.61 91.4364 17.64 91.4844 17.64L92.1054 17.622C92.1294 17.688 92.1414 17.745 92.1414 17.793C92.1414 17.811 92.1354 17.844 92.1234 17.892L92.1144 17.946C91.7184 18.06 91.3134 18.117 90.8994 18.117C90.7194 18.117 90.5934 18.108 90.5214 18.09C90.4494 18.078 90.4014 18.048 90.3774 18C90.3594 17.946 90.3534 17.856 90.3594 17.73L90.3594 14.283C90.3594 14.037 90.1914 13.914 89.8554 13.914C89.6334 13.914 89.2284 14.001 88.6404 14.175L88.6404 17.838C88.6404 17.922 88.5924 17.982 88.4964 18.018C88.2684 18.084 88.0254 18.117 87.7674 18.117C87.6654 18.117 87.6144 18.066 87.6144 17.964L87.6144 14.283C87.6144 14.037 87.4464 13.914 87.1104 13.914ZM95.4641 17.568C95.8781 17.502 96.1781 17.445 96.3641 17.397C96.3941 17.457 96.4091 17.532 96.4091 17.622C96.4091 17.7 96.3971 17.76 96.3731 17.802C95.5691 18.012 94.6871 18.117 93.7271 18.117C93.4031 18.117 93.1661 18.066 93.0161 17.964C92.8721 17.862 92.8001 17.694 92.8001 17.46L92.8001 14.373C92.8001 14.001 92.9981 13.74 93.3941 13.59C93.7781 13.446 94.4021 13.374 95.2661 13.374C95.5721 13.374 95.8061 13.404 95.9681 13.464C96.1361 13.518 96.2561 13.614 96.3281 13.752C96.4001 13.89 96.4361 14.088 96.4361 14.346L96.4361 14.985C96.4361 15.237 96.3731 15.435 96.2471 15.579C96.1211 15.717 95.9201 15.816 95.6441 15.876C94.9781 15.978 94.3721 16.047 93.8261 16.083L93.8261 17.109C93.8261 17.337 93.8681 17.487 93.9521 17.559C94.0421 17.631 94.2221 17.667 94.4921 17.667C94.7321 17.667 95.0561 17.634 95.4641 17.568ZM94.0331 13.905C93.8831 14.001 93.8141 14.169 93.8261 14.409L93.8261 15.669C94.2281 15.633 94.5551 15.591 94.8071 15.543C95.0531 15.489 95.2151 15.426 95.2931 15.354C95.3711 15.282 95.4101 15.15 95.4101 14.958L95.4101 14.409C95.4101 14.157 95.3711 13.986 95.2931 13.896C95.2211 13.8 95.0861 13.752 94.8881 13.752C94.4681 13.752 94.1831 13.803 94.0331 13.905ZM99.3757 17.793C99.3757 17.841 99.3667 17.892 99.3487 17.946C98.9527 18.06 98.5477 18.117 98.1337 18.117C97.9537 18.117 97.8277 18.108 97.7557 18.09C97.6837 18.078 97.6357 18.048 97.6117 18C97.5937 17.946 97.5877 17.856 97.5937 17.73L97.5937 12.555C97.5937 12.225 97.5607 12.06 97.4947 12.06L96.8737 12.078C96.8497 12.036 96.8377 11.979 96.8377 11.907C96.8377 11.859 96.8467 11.808 96.8647 11.754C97.2607 11.64 97.6657 11.583 98.0797 11.583C98.2597 11.583 98.3857 11.592 98.4577 11.61C98.5297 11.622 98.5747 11.655 98.5927 11.709C98.6167 11.757 98.6257 11.844 98.6197 11.97L98.6197 17.145C98.6197 17.475 98.6527 17.64 98.7187 17.64L99.3397 17.622C99.3637 17.664 99.3757 17.721 99.3757 17.793ZM100.276 12.636C100.168 12.648 100.12 12.552 100.132 12.348L100.132 11.889C100.132 11.787 100.141 11.718 100.159 11.682C100.183 11.646 100.234 11.622 100.312 11.61L101.014 11.583C101.122 11.571 101.17 11.667 101.158 11.871L101.158 12.33C101.158 12.432 101.146 12.501 101.122 12.537C101.104 12.573 101.056 12.597 100.978 12.609L100.276 12.636ZM102.094 17.793C102.094 17.841 102.085 17.892 102.067 17.946C101.671 18.06 101.266 18.117 100.852 18.117C100.672 18.117 100.546 18.108 100.474 18.09C100.402 18.078 100.354 18.048 100.33 18C100.312 17.946 100.306 17.856 100.312 17.73L100.312 14.346C100.312 14.016 100.279 13.851 100.213 13.851L99.5918 13.869C99.5678 13.827 99.5558 13.77 99.5558 13.698C99.5558 13.65 99.5648 13.599 99.5828 13.545C99.9788 13.431 100.384 13.374 100.798 13.374C100.978 13.374 101.104 13.383 101.176 13.401C101.248 13.413 101.293 13.446 101.311 13.5C101.335 13.548 101.344 13.635 101.338 13.761L101.338 17.145C101.338 17.463 101.368 17.622 101.428 17.622L102.058 17.622C102.082 17.664 102.094 17.721 102.094 17.793ZM105.332 13.914C105.062 13.914 104.636 13.998 104.054 14.166L104.054 17.838C104.054 17.922 104.006 17.982 103.91 18.018C103.682 18.084 103.439 18.117 103.181 18.117C103.079 18.117 103.028 18.066 103.028 17.964L103.028 14.346C103.028 14.016 102.995 13.851 102.929 13.851L102.308 13.869C102.284 13.827 102.272 13.77 102.272 13.698C102.272 13.65 102.281 13.599 102.299 13.545C102.695 13.431 103.1 13.374 103.514 13.374C103.694 13.374 103.82 13.383 103.892 13.401C103.964 13.413 104.009 13.446 104.027 13.5C104.051 13.548 104.06 13.635 104.054 13.761L104.387 13.662C104.597 13.602 104.747 13.563 104.837 13.545C104.831 13.545 104.897 13.53 105.035 13.5C105.203 13.458 105.407 13.422 105.647 13.392C105.791 13.38 105.893 13.374 105.953 13.374C106.283 13.374 106.517 13.428 106.655 13.536C106.793 13.638 106.862 13.812 106.862 14.058L106.862 17.145C106.862 17.475 106.895 17.64 106.961 17.64L107.582 17.622C107.606 17.664 107.618 17.721 107.618 17.793C107.618 17.841 107.609 17.892 107.591 17.946C107.195 18.06 106.79 18.117 106.376 18.117C106.196 18.117 106.07 18.108 105.998 18.09C105.926 18.078 105.878 18.048 105.854 18C105.836 17.946 105.83 17.856 105.836 17.73L105.836 14.283C105.836 14.037 105.668 13.914 105.332 13.914ZM110.942 17.568C111.356 17.502 111.656 17.445 111.842 17.397C111.872 17.457 111.887 17.532 111.887 17.622C111.887 17.7 111.875 17.76 111.851 17.802C111.047 18.012 110.165 18.117 109.205 18.117C108.881 18.117 108.644 18.066 108.494 17.964C108.35 17.862 108.278 17.694 108.278 17.46L108.278 14.373C108.278 14.001 108.476 13.74 108.872 13.59C109.256 13.446 109.88 13.374 110.744 13.374C111.05 13.374 111.284 13.404 111.446 13.464C111.614 13.518 111.734 13.614 111.806 13.752C111.878 13.89 111.914 14.088 111.914 14.346L111.914 14.985C111.914 15.237 111.851 15.435 111.725 15.579C111.599 15.717 111.398 15.816 111.122 15.876C110.456 15.978 109.85 16.047 109.304 16.083L109.304 17.109C109.304 17.337 109.346 17.487 109.43 17.559C109.52 17.631 109.7 17.667 109.97 17.667C110.21 17.667 110.534 17.634 110.942 17.568ZM109.511 13.905C109.361 14.001 109.292 14.169 109.304 14.409L109.304 15.669C109.706 15.633 110.033 15.591 110.285 15.543C110.531 15.489 110.693 15.426 110.771 15.354C110.849 15.282 110.888 15.15 110.888 14.958L110.888 14.409C110.888 14.157 110.849 13.986 110.771 13.896C110.699 13.8 110.564 13.752 110.366 13.752C109.946 13.752 109.661 13.803 109.511 13.905Z" fill="#265636"/>
</g>
<g style="mix-blend-mode:luminosity">
<path d="M182.12 83.414C182.048 83.414 181.979 83.402 181.913 83.378C181.949 83.198 181.967 82.871 181.967 82.397C181.967 81.629 181.913 81.05 181.805 80.66C181.721 80.354 181.499 80.204 181.139 80.21L177.224 80.21C177.002 80.21 176.831 80.234 176.711 80.282C176.597 80.336 176.516 80.423 176.468 80.543C176.42 80.663 176.396 80.84 176.396 81.074C176.396 81.482 176.426 81.923 176.486 82.397C176.546 82.877 176.606 83.222 176.666 83.432C176.552 83.468 176.468 83.486 176.414 83.486C176.36 83.486 176.294 83.471 176.216 83.441C175.982 82.685 175.865 81.779 175.865 80.723C175.865 80.309 175.901 79.988 175.973 79.76C176.045 79.538 176.168 79.376 176.342 79.274C176.516 79.178 176.768 79.13 177.098 79.13L181.184 79.13C181.376 79.13 181.547 79.178 181.697 79.274C181.847 79.376 181.967 79.517 182.057 79.697C182.225 80.045 182.33 80.453 182.372 80.921C182.408 81.329 182.426 81.788 182.426 82.298C182.426 82.646 182.405 83 182.363 83.36C182.291 83.396 182.21 83.414 182.12 83.414ZM180.248 87.9258C180.11 87.9978 179.912 88.0338 179.654 88.0338L176.891 88.0338C176.531 88.0338 176.273 87.8268 176.117 87.4128C175.967 86.9988 175.892 86.3298 175.892 85.4058C175.892 85.0998 175.922 84.8628 175.982 84.6948C176.042 84.5268 176.141 84.4038 176.279 84.3258C176.417 84.2538 176.615 84.2178 176.873 84.2178L179.627 84.2178C179.999 84.2178 180.26 84.4278 180.41 84.8478C180.554 85.2738 180.626 85.9458 180.626 86.8638C180.626 87.1698 180.596 87.4038 180.536 87.5658C180.482 87.7338 180.386 87.8538 180.248 87.9258ZM176.432 86.7918C176.528 86.9418 176.693 87.0138 176.927 87.0078L179.546 87.0078C179.816 87.0078 179.999 86.9688 180.095 86.8908C180.197 86.8188 180.248 86.6838 180.248 86.4858C180.248 85.9638 180.2 85.6278 180.104 85.4778C180.002 85.3158 179.831 85.2378 179.591 85.2438L176.972 85.2438C176.702 85.2438 176.519 85.2798 176.423 85.3518C176.327 85.4238 176.279 85.5678 176.279 85.7838C176.291 86.3118 176.342 86.6478 176.432 86.7918ZM176.207 91.1452C176.159 91.1452 176.108 91.1362 176.054 91.1182C175.94 90.7222 175.883 90.3172 175.883 89.9032C175.883 89.7232 175.892 89.5972 175.91 89.5252C175.922 89.4532 175.952 89.4052 176 89.3812C176.054 89.3632 176.144 89.3572 176.27 89.3632L181.445 89.3632C181.775 89.3632 181.94 89.3302 181.94 89.2642L181.922 88.6432C181.964 88.6192 182.021 88.6072 182.093 88.6072C182.141 88.6072 182.192 88.6162 182.246 88.6342C182.36 89.0302 182.417 89.4352 182.417 89.8492C182.417 90.0292 182.408 90.1552 182.39 90.2272C182.378 90.2992 182.345 90.3442 182.291 90.3622C182.243 90.3862 182.156 90.3952 182.03 90.3892L176.855 90.3892C176.525 90.3892 176.36 90.4222 176.36 90.4882L176.378 91.1092C176.336 91.1332 176.279 91.1452 176.207 91.1452ZM180.248 95.5284C180.11 95.6004 179.912 95.6364 179.654 95.6364L176.891 95.6364C176.531 95.6364 176.273 95.4294 176.117 95.0154C175.967 94.6014 175.892 93.9324 175.892 93.0084C175.892 92.7024 175.922 92.4654 175.982 92.2974C176.042 92.1294 176.141 92.0064 176.279 91.9284C176.417 91.8564 176.615 91.8204 176.873 91.8204L179.627 91.8204C179.999 91.8204 180.26 92.0304 180.41 92.4504C180.554 92.8764 180.626 93.5484 180.626 94.4664C180.626 94.7724 180.596 95.0064 180.536 95.1684C180.482 95.3364 180.386 95.4564 180.248 95.5284ZM176.432 94.3944C176.528 94.5444 176.693 94.6164 176.927 94.6104L179.546 94.6104C179.816 94.6104 179.999 94.5714 180.095 94.4934C180.197 94.4214 180.248 94.2864 180.248 94.0884C180.248 93.5664 180.2 93.2304 180.104 93.0804C180.002 92.9184 179.831 92.8404 179.591 92.8464L176.972 92.8464C176.702 92.8464 176.519 92.8824 176.423 92.9544C176.327 93.0264 176.279 93.1704 176.279 93.3864C176.291 93.9144 176.342 94.2504 176.432 94.3944ZM179.654 97.0648C179.984 97.0648 180.149 97.0318 180.149 96.9658L180.131 96.3448C180.173 96.3208 180.23 96.3088 180.302 96.3088C180.35 96.3088 180.401 96.3178 180.455 96.3358C180.569 96.7318 180.626 97.1368 180.626 97.5508C180.626 97.7308 180.617 97.8568 180.599 97.9288C180.587 98.0008 180.554 98.0458 180.5 98.0638C180.452 98.0878 180.365 98.0968 180.239 98.0908C180.497 98.6848 180.626 99.1078 180.626 99.3598C180.626 99.6898 180.572 99.9238 180.464 100.062C180.362 100.2 180.188 100.269 179.942 100.269L179.096 100.269C179.012 100.269 178.952 100.221 178.916 100.125C178.85 99.8968 178.817 99.6538 178.817 99.3958C178.817 99.2938 178.868 99.2428 178.97 99.2428L179.717 99.2428C179.939 99.2428 180.05 99.1258 180.05 98.8918C180.05 98.7058 179.978 98.4388 179.834 98.0908L176.855 98.0908C176.525 98.0908 176.36 98.1238 176.36 98.1898L176.378 98.8108C176.336 98.8348 176.279 98.8468 176.207 98.8468C176.159 98.8468 176.108 98.8378 176.054 98.8198C175.94 98.4238 175.883 98.0188 175.883 97.6048C175.883 97.4248 175.892 97.2988 175.91 97.2268C175.922 97.1548 175.952 97.1068 176 97.0828C176.054 97.0648 176.144 97.0588 176.27 97.0648L179.654 97.0648ZM176.207 105.342C176.159 105.342 176.108 105.333 176.054 105.315C175.94 104.931 175.883 104.526 175.883 104.1C175.883 103.938 175.892 103.818 175.91 103.74C175.922 103.668 175.949 103.62 175.991 103.596C176.027 103.572 176.09 103.56 176.18 103.56C175.982 102.87 175.883 102.276 175.883 101.778C175.883 101.448 175.934 101.214 176.036 101.076C176.138 100.938 176.315 100.869 176.567 100.869L177.827 100.869C178.079 100.869 178.274 100.932 178.412 101.058C178.556 101.184 178.658 101.385 178.718 101.661C178.82 102.327 178.886 102.96 178.916 103.56L179.618 103.56C179.846 103.56 179.996 103.515 180.068 103.425C180.14 103.341 180.176 103.164 180.176 102.894C180.176 102.726 180.134 102.39 180.05 101.886C179.966 101.448 179.903 101.16 179.861 101.022C179.933 100.992 180.008 100.977 180.086 100.977C180.164 100.977 180.224 100.989 180.266 101.013C180.506 101.775 180.626 102.657 180.626 103.659C180.626 103.983 180.575 104.217 180.473 104.361C180.371 104.511 180.203 104.586 179.969 104.586L176.855 104.586C176.525 104.586 176.36 104.619 176.36 104.685L176.378 105.306C176.336 105.33 176.279 105.342 176.207 105.342ZM176.387 102.462C176.387 102.744 176.453 103.11 176.585 103.56L178.511 103.56C178.499 103.23 178.466 102.918 178.412 102.624C178.358 102.324 178.286 102.12 178.196 102.012C178.136 101.934 178.001 101.895 177.791 101.895L176.792 101.895C176.522 101.895 176.387 102.084 176.387 102.462ZM176.207 110.552C176.159 110.552 176.108 110.543 176.054 110.525C175.94 110.129 175.883 109.724 175.883 109.31C175.883 109.13 175.892 109.004 175.91 108.932C175.922 108.86 175.952 108.812 176 108.788C176.054 108.77 176.144 108.764 176.27 108.77L176.18 108.437C176.12 108.227 176.063 108.014 176.009 107.798C175.967 107.624 175.931 107.417 175.901 107.177C175.889 107.033 175.883 106.931 175.883 106.871C175.883 106.541 175.934 106.307 176.036 106.169C176.144 106.031 176.321 105.962 176.567 105.962L179.573 105.962C180.047 105.962 180.332 106.226 180.428 106.754C180.536 107.324 180.602 107.996 180.626 108.77L181.445 108.77C181.775 108.77 181.94 108.737 181.94 108.671L181.922 108.05C181.964 108.026 182.021 108.014 182.093 108.014C182.141 108.014 182.192 108.023 182.246 108.041C182.36 108.437 182.417 108.842 182.417 109.256C182.417 109.436 182.408 109.562 182.39 109.634C182.378 109.706 182.345 109.751 182.291 109.769C182.243 109.793 182.156 109.802 182.03 109.796L176.855 109.796C176.537 109.796 176.378 109.826 176.378 109.886L176.378 110.516C176.336 110.54 176.279 110.552 176.207 110.552ZM176.423 107.492C176.423 107.75 176.507 108.176 176.675 108.77L180.212 108.77C180.182 108.218 180.143 107.825 180.095 107.591C180.047 107.351 179.987 107.189 179.915 107.105C179.843 107.027 179.726 106.988 179.564 106.988L176.792 106.988C176.546 106.988 176.423 107.156 176.423 107.492ZM180.248 114.891C180.11 114.963 179.912 114.999 179.654 114.999L176.891 114.999C176.531 114.999 176.273 114.792 176.117 114.378C175.967 113.964 175.892 113.295 175.892 112.371C175.892 112.065 175.922 111.828 175.982 111.66C176.042 111.492 176.141 111.369 176.279 111.291C176.417 111.219 176.615 111.183 176.873 111.183L179.627 111.183C179.999 111.183 180.26 111.393 180.41 111.813C180.554 112.239 180.626 112.911 180.626 113.829C180.626 114.135 180.596 114.369 180.536 114.531C180.482 114.699 180.386 114.819 180.248 114.891ZM176.432 113.757C176.528 113.907 176.693 113.979 176.927 113.973L179.546 113.973C179.816 113.973 179.999 113.934 180.095 113.856C180.197 113.784 180.248 113.649 180.248 113.451C180.248 112.929 180.2 112.593 180.104 112.443C180.002 112.281 179.831 112.203 179.591 112.209L176.972 112.209C176.702 112.209 176.519 112.245 176.423 112.317C176.327 112.389 176.279 112.533 176.279 112.749C176.291 113.277 176.342 113.613 176.432 113.757Z" fill="#265636"/>
</g>
</g>
</g>
<g clip-path="url(#clip6_209_3187)">
<rect x="27.2451" y="113" width="64.0045" height="64.0045" fill="white" fill-opacity="0.76"/>
</g>
<rect x="27.5451" y="113.3" width="63.4045" height="63.4045" stroke="#FF66A6" stroke-opacity="0.7" stroke-width="0.6" stroke-dasharray="0.66 0.66"/>
<g clip-path="url(#clip7_209_3187)">
<rect x="97.75" y="113" width="64.0045" height="64.0045" fill="white" fill-opacity="0.76"/>
</g>
<rect x="98.05" y="113.3" width="63.4045" height="63.4045" stroke="#FF66A6" stroke-opacity="0.7" stroke-width="0.6" stroke-dasharray="0.66 0.66"/>
<rect y="59.2654" width="189" height="40.2097" fill="url(#paint8_linear_209_3187)"/>
<path d="M60.25 56.0811C60.25 55.8049 60.0261 55.5811 59.75 55.5811C59.4738 55.5811 59.25 55.8049 59.25 56.0811L60.25 56.0811ZM59.3963 136.273C59.5916 136.468 59.9082 136.468 60.1034 136.273L63.2854 133.091C63.4807 132.895 63.4807 132.579 63.2854 132.383C63.0902 132.188 62.7736 132.188 62.5783 132.383L59.7499 135.212L56.9215 132.383C56.7262 132.188 56.4096 132.188 56.2144 132.383C56.0191 132.579 56.0191 132.895 56.2144 133.091L59.3963 136.273ZM59.25 57.0791C59.25 57.3552 59.4738 57.5791 59.75 57.5791C60.0261 57.5791 60.25 57.3552 60.25 57.0791L59.25 57.0791ZM60.25 60.073C60.25 59.7968 60.0261 59.573 59.75 59.573C59.4738 59.573 59.25 59.7968 59.25 60.073L60.25 60.073ZM59.25 62.0689C59.25 62.3451 59.4738 62.5689 59.75 62.5689C60.0261 62.5689 60.25 62.3451 60.25 62.0689L59.25 62.0689ZM60.25 65.0629C60.25 64.7867 60.0261 64.5629 59.75 64.5629C59.4738 64.5629 59.25 64.7867 59.25 65.0629L60.25 65.0629ZM59.25 67.0588C59.25 67.3349 59.4738 67.5588 59.75 67.5588C60.0261 67.5588 60.25 67.3349 60.25 67.0588L59.25 67.0588ZM60.25 70.0527C60.25 69.7766 60.0261 69.5527 59.75 69.5527C59.4738 69.5527 59.25 69.7766 59.25 70.0527L60.25 70.0527ZM59.25 72.0487C59.25 72.3248 59.4738 72.5487 59.75 72.5487C60.0261 72.5487 60.25 72.3248 60.25 72.0487L59.25 72.0487ZM60.25 75.0426C60.25 74.7664 60.0261 74.5426 59.75 74.5426C59.4738 74.5426 59.25 74.7664 59.25 75.0426L60.25 75.0426ZM59.25 77.0385C59.25 77.3147 59.4738 77.5385 59.75 77.5385C60.0261 77.5385 60.25 77.3147 60.25 77.0385L59.25 77.0385ZM60.25 80.0324C60.25 79.7563 60.0261 79.5325 59.75 79.5324C59.4738 79.5324 59.25 79.7563 59.25 80.0324L60.25 80.0324ZM59.25 82.0284C59.2499 82.3045 59.4738 82.5284 59.7499 82.5284C60.0261 82.5284 60.2499 82.3045 60.2499 82.0284L59.25 82.0284ZM60.2499 85.0223C60.2499 84.7462 60.0261 84.5223 59.7499 84.5223C59.4738 84.5223 59.2499 84.7462 59.2499 85.0223L60.2499 85.0223ZM59.2499 87.0183C59.2499 87.2944 59.4738 87.5183 59.7499 87.5183C60.0261 87.5183 60.2499 87.2944 60.2499 87.0183L59.2499 87.0183ZM60.2499 90.0122C60.2499 89.736 60.0261 89.5122 59.7499 89.5122C59.4738 89.5122 59.2499 89.736 59.2499 90.0122L60.2499 90.0122ZM59.2499 92.0081C59.2499 92.2843 59.4738 92.5081 59.7499 92.5081C60.0261 92.5081 60.2499 92.2843 60.2499 92.0081L59.2499 92.0081ZM60.2499 95.002C60.2499 94.7259 60.0261 94.502 59.7499 94.502C59.4738 94.502 59.2499 94.7259 59.2499 95.002L60.2499 95.002ZM59.2499 96.998C59.2499 97.2741 59.4738 97.498 59.7499 97.498C60.0261 97.498 60.2499 97.2741 60.2499 96.998L59.2499 96.998ZM60.2499 99.9919C60.2499 99.7158 60.0261 99.4919 59.7499 99.4919C59.4738 99.4919 59.2499 99.7158 59.2499 99.9919L60.2499 99.9919ZM59.2499 101.988C59.2499 102.264 59.4738 102.488 59.7499 102.488C60.0261 102.488 60.2499 102.264 60.2499 101.988L59.2499 101.988ZM60.2499 104.982C60.2499 104.706 60.0261 104.482 59.7499 104.482C59.4738 104.482 59.2499 104.706 59.2499 104.982L60.2499 104.982ZM59.2499 106.978C59.2499 107.254 59.4738 107.478 59.7499 107.478C60.0261 107.478 60.2499 107.254 60.2499 106.978L59.2499 106.978ZM60.2499 109.972C60.2499 109.695 60.0261 109.472 59.7499 109.472C59.4738 109.472 59.2499 109.695 59.2499 109.972L60.2499 109.972ZM59.2499 111.968C59.2499 112.244 59.4738 112.468 59.7499 112.468C60.0261 112.468 60.2499 112.244 60.2499 111.968L59.2499 111.968ZM60.2499 114.962C60.2499 114.685 60.0261 114.462 59.7499 114.462C59.4738 114.462 59.2499 114.685 59.2499 114.962L60.2499 114.962ZM59.2499 116.957C59.2499 117.234 59.4738 117.457 59.7499 117.457C60.0261 117.457 60.2499 117.234 60.2499 116.957L59.2499 116.957ZM60.2499 119.951C60.2499 119.675 60.0261 119.451 59.7499 119.451C59.4738 119.451 59.2499 119.675 59.2499 119.951L60.2499 119.951ZM59.2499 121.947C59.2499 122.223 59.4738 122.447 59.7499 122.447C60.026 122.447 60.2499 122.223 60.2499 121.947L59.2499 121.947ZM60.2499 124.941C60.2499 124.665 60.026 124.441 59.7499 124.441C59.4738 124.441 59.2499 124.665 59.2499 124.941L60.2499 124.941ZM59.2499 126.937C59.2499 127.213 59.4738 127.437 59.7499 127.437C60.026 127.437 60.2499 127.213 60.2499 126.937L59.2499 126.937ZM60.2499 129.931C60.2499 129.655 60.026 129.431 59.7499 129.431C59.4738 129.431 59.2499 129.655 59.2499 129.931L60.2499 129.931ZM59.2499 131.927C59.2499 132.203 59.4738 132.427 59.7499 132.427C60.026 132.427 60.2499 132.203 60.2499 131.927L59.2499 131.927ZM60.2499 134.921C60.2499 134.645 60.026 134.421 59.7499 134.421C59.4737 134.421 59.2499 134.645 59.2499 134.921L60.2499 134.921ZM59.25 56.0811L59.25 57.0791L60.25 57.0791L60.25 56.0811L59.25 56.0811ZM59.25 60.073L59.25 62.0689L60.25 62.0689L60.25 60.073L59.25 60.073ZM59.25 65.0629L59.25 67.0588L60.25 67.0588L60.25 65.0629L59.25 65.0629ZM59.25 70.0527L59.25 72.0487L60.25 72.0487L60.25 70.0527L59.25 70.0527ZM59.25 75.0426L59.25 77.0385L60.25 77.0385L60.25 75.0426L59.25 75.0426ZM59.25 80.0324L59.25 82.0284L60.2499 82.0284L60.25 80.0324L59.25 80.0324ZM59.2499 85.0223L59.2499 87.0183L60.2499 87.0183L60.2499 85.0223L59.2499 85.0223ZM59.2499 90.0122L59.2499 92.0081L60.2499 92.0081L60.2499 90.0122L59.2499 90.0122ZM59.2499 95.002L59.2499 96.998L60.2499 96.998L60.2499 95.002L59.2499 95.002ZM59.2499 99.9919L59.2499 101.988L60.2499 101.988L60.2499 99.9919L59.2499 99.9919ZM59.2499 104.982L59.2499 106.978L60.2499 106.978L60.2499 104.982L59.2499 104.982ZM59.2499 109.972L59.2499 111.968L60.2499 111.968L60.2499 109.972L59.2499 109.972ZM59.2499 114.962L59.2499 116.957L60.2499 116.957L60.2499 114.962L59.2499 114.962ZM59.2499 119.951L59.2499 121.947L60.2499 121.947L60.2499 119.951L59.2499 119.951ZM59.2499 124.941L59.2499 126.937L60.2499 126.937L60.2499 124.941L59.2499 124.941ZM59.2499 129.931L59.2499 131.927L60.2499 131.927L60.2499 129.931L59.2499 129.931ZM59.2499 134.921L59.2499 135.919L60.2499 135.919L60.2499 134.921L59.2499 134.921Z" fill="url(#paint9_linear_209_3187)"/>
</g>
<defs>
<radialGradient id="paint0_radial_209_3187" cx="0" cy="0" r="1" gradientUnits="userSpaceOnUse" gradientTransform="translate(94.5 99.4999) rotate(90) scale(94.5 94.5)">
<stop stop-color="white" stop-opacity="0"/>
<stop offset="1" stop-color="white"/>
</radialGradient>
<linearGradient id="paint1_linear_209_3187" x1="94.5" y1="4.99988" x2="94.5" y2="29.9998" gradientUnits="userSpaceOnUse">
<stop stop-color="white" stop-opacity="0.61"/>
<stop offset="1" stop-color="white" stop-opacity="0.89"/>
</linearGradient>
<linearGradient id="paint2_linear_209_3187" x1="-3.03794e-06" y1="99.4999" x2="25" y2="99.4999" gradientUnits="userSpaceOnUse">
<stop stop-color="white" stop-opacity="0.61"/>
<stop offset="1" stop-color="white" stop-opacity="0.89"/>
</linearGradient>
<linearGradient id="paint3_linear_209_3187" x1="189" y1="99.4999" x2="164" y2="99.4999" gradientUnits="userSpaceOnUse">
<stop stop-color="white" stop-opacity="0.61"/>
<stop offset="1" stop-color="white" stop-opacity="0.89"/>
</linearGradient>
<linearGradient id="paint4_linear_209_3187" x1="25.0005" y1="29.9999" x2="95.0005" y2="97.4999" gradientUnits="userSpaceOnUse">
<stop offset="0.235" stop-color="white" stop-opacity="0.59"/>
<stop offset="1" stop-color="white" stop-opacity="0.13"/>
</linearGradient>
<linearGradient id="paint5_linear_209_3187" x1="164" y1="29.9999" x2="96.5" y2="99.9999" gradientUnits="userSpaceOnUse">
<stop offset="0.235" stop-color="white" stop-opacity="0.59"/>
<stop offset="1" stop-color="white" stop-opacity="0.13"/>
</linearGradient>
<linearGradient id="paint6_linear_209_3187" x1="171" y1="4.99988" x2="171" y2="40.9999" gradientUnits="userSpaceOnUse">
<stop stop-color="white" stop-opacity="0.84"/>
<stop offset="1" stop-color="white"/>
</linearGradient>
<linearGradient id="paint7_linear_209_3187" x1="-7.86805e-07" y1="23" x2="36" y2="23" gradientUnits="userSpaceOnUse">
<stop stop-color="white" stop-opacity="0.84"/>
<stop offset="1" stop-color="white"/>
</linearGradient>
<linearGradient id="paint8_linear_209_3187" x1="94.5" y1="59.2654" x2="94.5" y2="99.4751" gradientUnits="userSpaceOnUse">
<stop stop-color="#F0FFF5" stop-opacity="0"/>
<stop offset="1" stop-color="#F0FFF5"/>
</linearGradient>
<linearGradient id="paint9_linear_209_3187" x1="79.6135" y1="117.914" x2="39.8864" y2="74.0864" gradientUnits="userSpaceOnUse">
<stop offset="0.415" stop-color="#0099CC"/>
<stop offset="1" stop-color="#0099CC" stop-opacity="0"/>
</linearGradient>
<clipPath id="clip0_209_3187">
<rect width="189" height="182" fill="white"/>
</clipPath>
<clipPath id="clip1_209_3187">
<rect width="189" height="94" fill="white" transform="matrix(-1 0 0 -1 189 99)"/>
</clipPath>
<clipPath id="clip2_209_3187">
<rect width="189" height="189" fill="white" transform="matrix(-1 0 0 -1 189 194)"/>
</clipPath>
<clipPath id="clip3_209_3187">
<rect width="189" height="189" fill="white" transform="translate(0 4.99988)"/>
</clipPath>
<clipPath id="clip4_209_3187">
<rect width="64" height="64" fill="white" transform="matrix(-1 0 0 -1 161 97)"/>
</clipPath>
<clipPath id="clip5_209_3187">
<rect width="64" height="64" fill="white" transform="matrix(-1 0 0 -1 92 97)"/>
</clipPath>
<clipPath id="clip6_209_3187">
<rect x="27.2451" y="113" width="64.0045" height="64.0045" fill="white"/>
</clipPath>
<clipPath id="clip7_209_3187">
<rect x="97.75" y="113" width="64.0045" height="64.0045" fill="white"/>
</clipPath>
</defs>
</svg>
