<svg width="189" height="182" viewBox="0 0 189 182" fill="none" xmlns="http://www.w3.org/2000/svg">
<g clip-path="url(#clip0_135_4616)">
<g clip-path="url(#clip1_135_4616)">
<g clip-path="url(#clip2_135_4616)">
<path fill-rule="evenodd" clip-rule="evenodd" d="M36 194L153 194L189 158L189 41.0001L168.291 33.0352L189 41L153 5.00008L36 5.00006L0 41.0001L1.52588e-05 158L36 194Z" fill="#0BCB4B" fill-opacity="0.8"/>
<g style="mix-blend-mode:luminosity">
<path fill-rule="evenodd" clip-rule="evenodd" d="M153 194L94.5 99.5001L189 158L189 41L94.5 99.5001L153 5.00002L36 5L94.5 99.5001L0 41L0 158L94.5 99.5001L36 194L153 194Z" fill="url(#paint0_radial_135_4616)" fill-opacity="0.05"/>
<path d="M36 5L153 5.00001L164 30L25 30L36 5Z" fill="url(#paint1_linear_135_4616)" fill-opacity="0.51"/>
<path d="M189 41L189 158L164 169L164 30.0001L189 41Z" fill="url(#paint2_linear_135_4616)" fill-opacity="0.51"/>
<path d="M4.80827e-07 158L5.59506e-06 41L25 30L25 169L4.80827e-07 158Z" fill="url(#paint3_linear_135_4616)" fill-opacity="0.51"/>
<path fill-rule="evenodd" clip-rule="evenodd" d="M164 169L25 169L25 30.0001L164 30.0001L164 169ZM164 169L176 150L176 49.0001L164 30.0001L145 18.0001L44 18.0001L25 30.0001L13 49.0001L13 150L25 169L44 181L145 181L164 169Z" fill="black" fill-opacity="0.05"/>
<path d="M164 30.0001L94.5 30.0001L94.5 99.5001L164 99.5001L164 30.0001Z" fill="url(#paint4_linear_135_4616)"/>
<path d="M94.5 99.5001L94.5 30.0001L25 30.0001L25 99.5L94.5 99.5001Z" fill="url(#paint5_linear_135_4616)"/>
<path fill-rule="evenodd" clip-rule="evenodd" d="M94 169H95L95 100L164 100V99.0001L95 99.0001V30.0001H94V99.0001H25V100H94L94 169Z" fill="black" fill-opacity="0.1"/>
<path d="M36 5L0 41L25 30L36 5Z" fill="url(#paint6_linear_135_4616)" fill-opacity="0.33"/>
<path d="M189 41L153 5L164 30L189 41Z" fill="url(#paint7_linear_135_4616)" fill-opacity="0.33"/>
</g>
<g clip-path="url(#clip3_135_4616)">
<path d="M156.023 62.5771C155.86 62.5771 155.708 62.5458 155.565 62.4833C155.422 62.4231 155.297 62.3393 155.19 62.2322C155.083 62.1251 154.998 61.9989 154.935 61.8539C154.875 61.711 154.845 61.5581 154.845 61.3951L154.845 60.307L153 60.307L153 59.8751L157.801 59.8751L157.801 61.3951C157.801 61.5581 157.77 61.711 157.708 61.8539C157.647 61.9989 157.564 62.1251 157.456 62.2322C157.349 62.3393 157.223 62.4231 157.078 62.4833C156.935 62.5458 156.782 62.5771 156.619 62.5771L156.023 62.5771ZM156.619 62.1451C156.727 62.1451 156.826 62.1251 156.917 62.0849C157.011 62.0447 157.093 61.9889 157.162 61.9175C157.233 61.8483 157.289 61.7668 157.329 61.6731C157.369 61.5815 157.39 61.4822 157.39 61.3751L157.39 60.307L155.257 60.307L155.257 61.3751C155.257 61.4822 155.277 61.5815 155.317 61.6731C155.357 61.7668 155.412 61.8483 155.481 61.9175C155.55 61.9889 155.631 62.0447 155.722 62.0849C155.816 62.1251 155.916 62.1451 156.023 62.1451L156.619 62.1451ZM153 65.4197L153.342 65.192C153.219 65.0983 153.119 64.9811 153.044 64.8405C152.97 64.6998 152.933 64.5458 152.933 64.3784L152.933 64.2746C152.933 64.1362 152.959 64.0056 153.01 63.8829C153.064 63.7601 153.136 63.653 153.228 63.5614C153.319 63.4699 153.426 63.3974 153.549 63.3438C153.672 63.2925 153.802 63.2668 153.941 63.2668L153.974 63.2668C154.113 63.2668 154.243 63.2925 154.366 63.3438C154.489 63.3974 154.596 63.4699 154.687 63.5614C154.779 63.653 154.85 63.7601 154.902 63.8829C154.955 64.0056 154.982 64.1362 154.982 64.2746L154.982 65.1451L155.511 65.1451C155.594 65.1451 155.671 65.1295 155.742 65.0983C155.816 65.067 155.879 65.0246 155.933 64.971C155.987 64.9175 156.029 64.8539 156.06 64.7802C156.092 64.7088 156.107 64.6318 156.107 64.5492L156.107 64.3081C156.107 64.2255 156.092 64.1474 156.06 64.0737C156.029 64.0023 155.987 63.9398 155.933 63.8862C155.879 63.8326 155.816 63.7902 155.742 63.759C155.671 63.7277 155.594 63.7121 155.511 63.7121L155.387 63.7121L155.454 63.3003L155.488 63.3003C155.626 63.3003 155.757 63.326 155.879 63.3773C156.002 63.4309 156.109 63.5034 156.201 63.5949C156.292 63.6864 156.364 63.7936 156.415 63.9164C156.469 64.0391 156.496 64.1697 156.496 64.3081L156.496 64.5492C156.496 64.6876 156.469 64.8181 156.415 64.9409C156.364 65.0637 156.292 65.1708 156.201 65.2623C156.109 65.3539 156.002 65.4253 155.879 65.4766C155.757 65.5302 155.626 65.557 155.488 65.557L153 65.557L153 65.4197ZM154.661 65.1451L154.661 64.2746C154.661 64.192 154.645 64.1139 154.614 64.0402C154.583 63.9688 154.539 63.9063 154.483 63.8527C154.43 63.7992 154.366 63.7568 154.292 63.7255C154.221 63.6943 154.144 63.6786 154.061 63.6786L153.917 63.6786C153.835 63.6786 153.757 63.6943 153.683 63.7255C153.612 63.7568 153.549 63.7992 153.496 63.8527C153.442 63.9063 153.4 63.9688 153.368 64.0402C153.337 64.1139 153.321 64.192 153.321 64.2746L153.321 64.5492C153.321 64.6318 153.337 64.7088 153.368 64.7802C153.4 64.8539 153.442 64.9175 153.496 64.971C153.549 65.0246 153.612 65.067 153.683 65.0983C153.757 65.1295 153.835 65.1451 153.917 65.1451L154.661 65.1451ZM153.871 68.7378C153.732 68.7378 153.605 68.7099 153.489 68.6541C153.375 68.5983 153.277 68.5224 153.194 68.4264C153.112 68.3304 153.047 68.2188 153 68.0916C152.955 67.9666 152.933 67.8349 152.933 67.6965L152.933 67.4219C152.933 67.2835 152.959 67.1507 153.01 67.0235C153.064 66.8985 153.136 66.788 153.228 66.692C153.319 66.5983 153.426 66.5224 153.549 66.4643C153.672 66.4085 153.802 66.3806 153.941 66.3806L154.078 66.3806L154.145 66.7925L153.917 66.7925C153.835 66.7925 153.757 66.8092 153.683 66.8427C153.612 66.8784 153.549 66.9253 153.496 66.9833C153.442 67.0414 153.4 67.1083 153.368 67.1842C153.337 67.2601 153.321 67.3393 153.321 67.4219L153.321 67.6965C153.321 67.7791 153.334 67.8583 153.358 67.9342C153.383 68.0101 153.417 68.0771 153.462 68.1351C153.509 68.1954 153.565 68.2422 153.629 68.2757C153.694 68.3114 153.768 68.3293 153.85 68.3293C153.973 68.3293 154.074 68.3025 154.152 68.2489C154.23 68.1954 154.295 68.1239 154.346 68.0347C154.4 67.9476 154.443 67.8472 154.477 67.7333C154.512 67.6217 154.547 67.5068 154.58 67.3885C154.616 67.2701 154.656 67.1541 154.701 67.0402C154.746 66.9286 154.804 66.8282 154.875 66.7389C154.949 66.6518 155.04 66.5815 155.15 66.528C155.259 66.4744 155.395 66.4476 155.558 66.4476C155.696 66.4476 155.823 66.4744 155.936 66.528C156.052 66.5815 156.152 66.6541 156.234 66.7456C156.317 66.8371 156.381 66.9431 156.425 67.0637C156.472 67.1864 156.496 67.317 156.496 67.4554L156.496 67.6965C156.496 67.8349 156.469 67.9655 156.415 68.0882C156.364 68.211 156.292 68.3181 156.201 68.4097C156.109 68.5012 156.002 68.5726 155.879 68.6239C155.757 68.6775 155.626 68.7043 155.488 68.7043L155.474 68.7043L155.407 68.2925L155.511 68.2925C155.594 68.2925 155.671 68.2768 155.742 68.2456C155.816 68.2143 155.879 68.1719 155.933 68.1184C155.987 68.0648 156.029 68.0012 156.06 67.9275C156.092 67.8561 156.107 67.7791 156.107 67.6965L156.107 67.4554C156.107 67.3728 156.095 67.2947 156.07 67.221C156.046 67.1496 156.01 67.0871 155.963 67.0335C155.919 66.98 155.864 66.9376 155.799 66.9063C155.734 66.8751 155.661 66.8594 155.578 66.8594C155.46 66.8594 155.363 66.8862 155.287 66.9398C155.213 66.9934 155.151 67.0637 155.099 67.1507C155.048 67.24 155.004 67.3405 154.969 67.4521C154.935 67.5659 154.9 67.6809 154.862 67.7969C154.826 67.9152 154.785 68.0302 154.738 68.1418C154.691 68.2556 154.631 68.3561 154.557 68.4431C154.483 68.5324 154.391 68.6039 154.279 68.6574C154.17 68.711 154.033 68.7378 153.871 68.7378ZM153 70.7768C153 70.6518 153.023 70.5335 153.07 70.4219C153.117 70.3126 153.182 70.2166 153.265 70.134C153.347 70.0536 153.443 69.9889 153.552 69.9398C153.662 69.8929 153.779 69.8695 153.904 69.8695L156.037 69.8695L156.037 69.2534L156.429 69.2534L156.429 69.8695L157.252 69.8695L157.319 70.2813L156.429 70.2813L156.429 71.1518L156.037 71.1518L156.037 70.2813L153.884 70.2813C153.815 70.2813 153.75 70.2936 153.69 70.3181C153.632 70.3449 153.58 70.3806 153.536 70.4253C153.491 70.4699 153.455 70.5224 153.429 70.5826C153.404 70.6429 153.392 70.7076 153.392 70.7768L153.392 71.1518L153 71.1518L153 70.7768Z" fill="#CEFDDE"/>
<path d="M138.734 90.1117C138.734 89.9487 138.768 89.7958 138.835 89.653C138.9 89.5101 138.988 89.3851 139.099 89.278C139.209 89.1708 139.337 89.086 139.484 89.0235C139.629 88.9632 139.783 88.9331 139.946 88.9331L140.291 88.9331C140.454 88.9331 140.609 88.9632 140.757 89.0235C140.902 89.086 141.03 89.1708 141.142 89.278C141.251 89.3851 141.339 89.5101 141.406 89.653C141.471 89.7958 141.503 89.9487 141.503 90.1117L141.503 90.3025L141.071 90.3728L141.071 90.1117C141.071 90.0045 141.05 89.9041 141.008 89.8103C140.963 89.7188 140.904 89.6373 140.83 89.5659C140.757 89.4967 140.672 89.442 140.576 89.4018C140.478 89.3617 140.375 89.3416 140.268 89.3416L139.967 89.3416C139.859 89.3416 139.758 89.3617 139.662 89.4018C139.566 89.442 139.481 89.4967 139.407 89.5659C139.334 89.6373 139.276 89.7188 139.233 89.8103C139.189 89.9041 139.166 90.0045 139.166 90.1117L139.166 90.2556C139.166 90.4208 139.199 90.5581 139.263 90.6675C139.328 90.7768 139.414 90.8695 139.521 90.9454C139.628 91.0235 139.75 91.0893 139.886 91.1429C140.02 91.1965 140.158 91.2501 140.301 91.3036C140.444 91.3572 140.584 91.4164 140.72 91.4811C140.854 91.5458 140.974 91.6262 141.081 91.7222C141.189 91.8204 141.275 91.9398 141.339 92.0804C141.404 92.221 141.436 92.394 141.436 92.5994L141.436 92.6898C141.436 92.8527 141.406 93.0056 141.346 93.1485C141.283 93.2914 141.199 93.4164 141.092 93.5235C140.984 93.6306 140.859 93.7143 140.717 93.7746C140.571 93.8371 140.417 93.8684 140.254 93.8684L139.946 93.8684C139.783 93.8684 139.631 93.8371 139.488 93.7746C139.345 93.7143 139.22 93.6306 139.113 93.5235C139.006 93.4164 138.922 93.2914 138.862 93.1485C138.799 93.0056 138.768 92.8527 138.768 92.6898L138.768 92.5659L139.2 92.4956L139.2 92.6898C139.2 92.7969 139.22 92.8963 139.26 92.9878C139.3 93.0815 139.355 93.163 139.424 93.2322C139.493 93.3014 139.575 93.3561 139.669 93.3963C139.76 93.4364 139.859 93.4565 139.967 93.4565L140.234 93.4565C140.342 93.4565 140.442 93.4364 140.536 93.3963C140.627 93.3561 140.709 93.3014 140.78 93.2322C140.849 93.163 140.904 93.0815 140.944 92.9878C140.984 92.8963 141.004 92.7969 141.004 92.6898L141.004 92.5994C141.004 92.4454 140.972 92.3159 140.907 92.211C140.843 92.1061 140.757 92.0157 140.65 91.9398C140.542 91.8661 140.422 91.8014 140.288 91.7456C140.152 91.692 140.012 91.6362 139.869 91.5782C139.727 91.5224 139.588 91.4599 139.454 91.3907C139.318 91.3237 139.196 91.24 139.089 91.1396C138.982 91.0414 138.896 90.9208 138.831 90.778C138.767 90.6351 138.734 90.461 138.734 90.2556L138.734 90.1117ZM135.788 89.0001L136.016 89.3483C136.109 89.221 136.227 89.1195 136.367 89.0436C136.508 88.9699 136.662 88.9331 136.829 88.9331L136.933 88.9331C137.071 88.9331 137.202 88.9588 137.325 89.0101C137.448 89.0637 137.555 89.1362 137.646 89.2277C137.738 89.3193 137.81 89.4264 137.864 89.5492C137.915 89.6719 137.941 89.8025 137.941 89.9409L137.941 92.4286L137.529 92.4286L137.529 89.9175C137.529 89.8349 137.513 89.7568 137.482 89.6831C137.451 89.6117 137.408 89.5492 137.355 89.4956C137.301 89.442 137.239 89.3996 137.167 89.3684C137.094 89.3371 137.016 89.3215 136.933 89.3215L136.658 89.3215C136.576 89.3215 136.499 89.3371 136.427 89.3684C136.354 89.3996 136.29 89.442 136.237 89.4956C136.183 89.5492 136.141 89.6117 136.109 89.6831C136.078 89.7568 136.062 89.8349 136.062 89.9175L136.062 92.4286L135.651 92.4286L135.651 89.0001L135.788 89.0001ZM132.949 89.0001L132.949 91.5112C132.949 91.5938 132.964 91.6708 132.996 91.7422C133.027 91.8159 133.069 91.8795 133.123 91.9331C133.176 91.9867 133.24 92.0291 133.314 92.0603C133.385 92.0916 133.462 92.1072 133.545 92.1072L133.819 92.1072C133.902 92.1072 133.98 92.0916 134.054 92.0603C134.125 92.0291 134.187 91.9867 134.241 91.9331C134.295 91.8795 134.337 91.8159 134.368 91.7422C134.4 91.6708 134.415 91.5938 134.415 91.5112L134.415 89.0001L134.827 89.0001L134.827 92.4286L134.69 92.4286L134.465 92.0804C134.372 92.2077 134.254 92.3081 134.114 92.3818C133.971 92.4577 133.816 92.4956 133.648 92.4956L133.545 92.4956C133.406 92.4956 133.276 92.4688 133.153 92.4152C133.03 92.3639 132.923 92.2925 132.831 92.201C132.74 92.1094 132.669 92.0023 132.617 91.8795C132.564 91.7568 132.537 91.6262 132.537 91.4878L132.537 89.0001L132.949 89.0001ZM130.535 93.4097C130.604 93.4097 130.669 93.3963 130.729 93.3695C130.787 93.3449 130.838 93.3103 130.883 93.2657C130.927 93.221 130.963 93.1686 130.99 93.1083C131.015 93.0481 131.027 92.9833 131.027 92.9141L131.027 92.4286L130.227 92.4286L130.227 92.0369L131.027 92.0369L131.027 89.0001L131.439 89.0001L131.439 92.0369L132.058 92.0369L132.058 92.4286L131.439 92.4286L131.439 92.894C131.439 93.019 131.415 93.1362 131.368 93.2456C131.321 93.3572 131.257 93.4543 131.174 93.5369C131.092 93.6195 130.996 93.6842 130.886 93.7311C130.777 93.778 130.66 93.8014 130.535 93.8014L130.156 93.8014L130.156 93.4097L130.535 93.4097ZM129.607 89.0001L129.607 93.8014L129.195 93.8014L129.195 89.0001L129.607 89.0001ZM126.008 89.9409C126.008 89.8025 126.035 89.6719 126.088 89.5492C126.14 89.4264 126.211 89.3193 126.302 89.2277C126.394 89.1362 126.501 89.0637 126.624 89.0101C126.747 88.9588 126.877 88.9331 127.016 88.9331L127.29 88.9331C127.429 88.9331 127.559 88.9588 127.682 89.0101C127.805 89.0637 127.912 89.1362 128.003 89.2277C128.095 89.3193 128.167 89.4264 128.221 89.5492C128.272 89.6719 128.298 89.8025 128.298 89.9409L128.298 91.4878C128.298 91.6262 128.272 91.7568 128.221 91.8795C128.167 92.0023 128.095 92.1094 128.003 92.201C127.912 92.2925 127.805 92.3639 127.682 92.4152C127.559 92.4688 127.429 92.4956 127.29 92.4956L127.016 92.4956C126.877 92.4956 126.747 92.4688 126.624 92.4152C126.501 92.3639 126.394 92.2925 126.302 92.201C126.211 92.1094 126.14 92.0023 126.088 91.8795C126.035 91.7568 126.008 91.6262 126.008 91.4878L126.008 89.9409ZM126.42 91.5112C126.42 91.5938 126.435 91.6708 126.467 91.7422C126.498 91.8159 126.54 91.8795 126.594 91.9331C126.647 91.9867 126.711 92.0291 126.785 92.0603C126.856 92.0916 126.933 92.1072 127.016 92.1072L127.29 92.1072C127.373 92.1072 127.451 92.0916 127.525 92.0603C127.596 92.0291 127.658 91.9867 127.712 91.9331C127.766 91.8795 127.808 91.8159 127.839 91.7422C127.871 91.6708 127.886 91.5938 127.886 91.5112L127.886 89.9175C127.886 89.8349 127.871 89.7568 127.839 89.6831C127.808 89.6117 127.766 89.5492 127.712 89.4956C127.658 89.442 127.596 89.3996 127.525 89.3684C127.451 89.3371 127.373 89.3215 127.29 89.3215L127.016 89.3215C126.933 89.3215 126.856 89.3371 126.785 89.3684C126.711 89.3996 126.647 89.442 126.594 89.4956C126.54 89.5492 126.498 89.6117 126.467 89.6831C126.435 89.7568 126.42 89.8349 126.42 89.9175L126.42 91.5112ZM122.298 89.0001L122.522 89.0001L123.326 91.5849L123.339 91.7623L123.353 91.5849L124.156 89.0001L124.384 89.0001L125.529 92.4286L125.11 92.4286L124.294 89.8371L124.28 89.6597L124.267 89.8371L123.463 92.4286L123.215 92.4286L122.415 89.8371L122.402 89.6597L122.388 89.8371L121.571 92.4286L121.153 92.4286L122.298 89.0001ZM118.381 89.9409C118.381 89.8025 118.407 89.6719 118.461 89.5492C118.512 89.4264 118.584 89.3193 118.675 89.2277C118.767 89.1362 118.874 89.0637 118.997 89.0101C119.119 88.9588 119.25 88.9331 119.388 88.9331L119.663 88.9331C119.801 88.9331 119.932 88.9588 120.055 89.0101C120.177 89.0637 120.285 89.1362 120.376 89.2277C120.468 89.3193 120.54 89.4264 120.594 89.5492C120.645 89.6719 120.671 89.8025 120.671 89.9409L120.671 91.4878C120.671 91.6262 120.645 91.7568 120.594 91.8795C120.54 92.0023 120.468 92.1094 120.376 92.201C120.285 92.2925 120.177 92.3639 120.055 92.4152C119.932 92.4688 119.801 92.4956 119.663 92.4956L119.388 92.4956C119.25 92.4956 119.119 92.4688 118.997 92.4152C118.874 92.3639 118.767 92.2925 118.675 92.201C118.584 92.1094 118.512 92.0023 118.461 91.8795C118.407 91.7568 118.381 91.6262 118.381 91.4878L118.381 90.6809L120.259 90.6809L120.259 89.9175C120.259 89.8349 120.243 89.7568 120.212 89.6831C120.181 89.6117 120.138 89.5492 120.085 89.4956C120.031 89.442 119.969 89.3996 119.897 89.3684C119.824 89.3371 119.746 89.3215 119.663 89.3215L119.388 89.3215C119.306 89.3215 119.229 89.3371 119.157 89.3684C119.084 89.3996 119.02 89.442 118.967 89.4956C118.913 89.5492 118.871 89.6117 118.839 89.6831C118.808 89.7568 118.792 89.8349 118.792 89.9175L118.792 90.1452L118.381 90.0782L118.381 89.9409ZM118.792 91.5112C118.792 91.5938 118.808 91.6708 118.839 91.7422C118.871 91.8159 118.913 91.8795 118.967 91.9331C119.02 91.9867 119.084 92.0291 119.157 92.0603C119.229 92.0916 119.306 92.1072 119.388 92.1072L119.663 92.1072C119.746 92.1072 119.824 92.0916 119.897 92.0603C119.969 92.0291 120.031 91.9867 120.085 91.9331C120.138 91.8795 120.181 91.8159 120.212 91.7422C120.243 91.6708 120.259 91.5938 120.259 91.5112L120.259 91.0023L118.792 91.0023L118.792 91.5112ZM116.549 92.0369C116.632 92.0369 116.71 92.0213 116.783 91.99C116.855 91.9588 116.917 91.9164 116.971 91.8628C117.025 91.8092 117.067 91.7456 117.098 91.6719C117.129 91.6005 117.145 91.5235 117.145 91.4409L117.145 89.0001L117.557 89.0001L117.557 92.4286L117.42 92.4286L117.195 92.0804C117.102 92.2077 116.984 92.3081 116.844 92.3818C116.701 92.4577 116.546 92.4956 116.378 92.4956L116.137 92.4956L116.137 92.0369L116.549 92.0369Z" fill="#CEFDDE"/>
<path d="M123.383 38.7032L123.383 41.0001L122.951 41.0001L122.951 38.7099L121.709 36.1987L122.174 36.1987L123.162 38.1943L124.15 36.1987L124.615 36.1987L123.383 38.7032ZM127.109 41.0001L126.882 40.6518C126.788 40.7791 126.671 40.8806 126.53 40.9565C126.39 41.0302 126.235 41.067 126.068 41.067L125.964 41.067C125.826 41.067 125.695 41.0414 125.573 40.99C125.45 40.9364 125.343 40.8639 125.251 40.7724C125.16 40.6809 125.087 40.5737 125.033 40.451C124.982 40.3282 124.956 40.1976 124.956 40.0592L124.956 37.5715L125.368 37.5715L125.368 40.0827C125.368 40.1652 125.384 40.2434 125.415 40.317C125.446 40.3885 125.489 40.451 125.542 40.5045C125.596 40.5581 125.658 40.6005 125.73 40.6318C125.804 40.663 125.882 40.6786 125.964 40.6786L126.239 40.6786C126.321 40.6786 126.398 40.663 126.47 40.6318C126.544 40.6005 126.607 40.5581 126.661 40.5045C126.714 40.451 126.757 40.3885 126.788 40.317C126.819 40.2434 126.835 40.1652 126.835 40.0827L126.835 37.5715L127.247 37.5715L127.247 41.0001L127.109 41.0001ZM130.36 40.0592C130.36 40.1976 130.334 40.3282 130.28 40.451C130.229 40.5737 130.157 40.6809 130.066 40.7724C129.974 40.8639 129.867 40.9364 129.744 40.99C129.622 41.0414 129.491 41.067 129.353 41.067L129.078 41.067C128.94 41.067 128.809 41.0414 128.686 40.99C128.564 40.9364 128.456 40.8639 128.365 40.7724C128.273 40.6809 128.201 40.5737 128.147 40.451C128.096 40.3282 128.07 40.1976 128.07 40.0592L128.07 38.5123C128.07 38.3739 128.096 38.2434 128.147 38.1206C128.201 37.9978 128.273 37.8907 128.365 37.7992C128.456 37.7077 128.564 37.6362 128.686 37.5849C128.809 37.5313 128.94 37.5045 129.078 37.5045L129.353 37.5045C129.491 37.5045 129.622 37.5313 129.744 37.5849C129.867 37.6362 129.974 37.7077 130.066 37.7992C130.157 37.8907 130.229 37.9978 130.28 38.1206C130.334 38.2434 130.36 38.3739 130.36 38.5123L130.36 38.6496L129.949 38.7166L129.949 38.4889C129.949 38.4063 129.933 38.3293 129.902 38.2579C129.871 38.1842 129.828 38.1206 129.775 38.067C129.721 38.0135 129.657 37.971 129.584 37.9398C129.512 37.9085 129.435 37.8929 129.353 37.8929L129.078 37.8929C128.996 37.8929 128.917 37.9085 128.844 37.9398C128.772 37.971 128.71 38.0135 128.656 38.067C128.603 38.1206 128.56 38.1842 128.529 38.2579C128.498 38.3293 128.482 38.4063 128.482 38.4889L128.482 40.0827C128.482 40.1652 128.498 40.2434 128.529 40.317C128.56 40.3885 128.603 40.451 128.656 40.5045C128.71 40.5581 128.772 40.6005 128.844 40.6318C128.917 40.663 128.996 40.6786 129.078 40.6786L129.353 40.6786C129.435 40.6786 129.512 40.663 129.584 40.6318C129.657 40.6005 129.721 40.5581 129.775 40.5045C129.828 40.451 129.871 40.3885 129.902 40.317C129.933 40.2434 129.949 40.1652 129.949 40.0827L129.949 39.855L130.36 39.9219L130.36 40.0592ZM133.474 40.0592C133.474 40.1976 133.448 40.3282 133.394 40.451C133.343 40.5737 133.271 40.6809 133.18 40.7724C133.088 40.8639 132.981 40.9364 132.858 40.99C132.735 41.0414 132.605 41.067 132.467 41.067L132.192 41.067C132.054 41.067 131.923 41.0414 131.8 40.99C131.677 40.9364 131.57 40.8639 131.479 40.7724C131.387 40.6809 131.315 40.5737 131.261 40.451C131.21 40.3282 131.184 40.1976 131.184 40.0592L131.184 38.5123C131.184 38.3739 131.21 38.2434 131.261 38.1206C131.315 37.9978 131.387 37.8907 131.479 37.7992C131.57 37.7077 131.677 37.6362 131.8 37.5849C131.923 37.5313 132.054 37.5045 132.192 37.5045L132.467 37.5045C132.605 37.5045 132.735 37.5313 132.858 37.5849C132.981 37.6362 133.088 37.7077 133.18 37.7992C133.271 37.8907 133.343 37.9978 133.394 38.1206C133.448 38.2434 133.474 38.3739 133.474 38.5123L133.474 38.6496L133.063 38.7166L133.063 38.4889C133.063 38.4063 133.047 38.3293 133.016 38.2579C132.984 38.1842 132.942 38.1206 132.888 38.067C132.835 38.0135 132.771 37.971 132.698 37.9398C132.626 37.9085 132.549 37.8929 132.467 37.8929L132.192 37.8929C132.109 37.8929 132.031 37.9085 131.958 37.9398C131.886 37.971 131.824 38.0135 131.77 38.067C131.717 38.1206 131.674 38.1842 131.643 38.2579C131.612 38.3293 131.596 38.4063 131.596 38.4889L131.596 40.0827C131.596 40.1652 131.612 40.2434 131.643 40.317C131.674 40.3885 131.717 40.451 131.77 40.5045C131.824 40.5581 131.886 40.6005 131.958 40.6318C132.031 40.663 132.109 40.6786 132.192 40.6786L132.467 40.6786C132.549 40.6786 132.626 40.663 132.698 40.6318C132.771 40.6005 132.835 40.5581 132.888 40.5045C132.942 40.451 132.984 40.3885 133.016 40.317C133.047 40.2434 133.063 40.1652 133.063 40.0827L133.063 39.855L133.474 39.9219L133.474 40.0592ZM136.451 41.0001L136.223 40.6585C136.129 40.7813 136.012 40.8806 135.872 40.9565C135.731 41.0302 135.577 41.067 135.41 41.067L135.306 41.067C135.167 41.067 135.037 41.0414 134.914 40.99C134.791 40.9364 134.684 40.8639 134.593 40.7724C134.501 40.6809 134.429 40.5737 134.375 40.451C134.324 40.3282 134.298 40.1976 134.298 40.0592L134.298 40.0257C134.298 39.8873 134.324 39.7568 134.375 39.634C134.429 39.5112 134.501 39.4041 134.593 39.3126C134.684 39.221 134.791 39.1496 134.914 39.0983C135.037 39.0447 135.167 39.0179 135.306 39.0179L136.176 39.0179L136.176 38.4889C136.176 38.4063 136.161 38.3293 136.129 38.2579C136.098 38.1842 136.056 38.1206 136.002 38.067C135.949 38.0135 135.885 37.971 135.811 37.9398C135.74 37.9085 135.663 37.8929 135.58 37.8929L135.339 37.8929C135.257 37.8929 135.179 37.9085 135.105 37.9398C135.033 37.971 134.971 38.0135 134.917 38.067C134.864 38.1206 134.821 38.1842 134.79 38.2579C134.759 38.3293 134.743 38.4063 134.743 38.4889L134.743 38.6128L134.331 38.5458L134.331 38.5123C134.331 38.3739 134.357 38.2434 134.408 38.1206C134.462 37.9978 134.535 37.8907 134.626 37.7992C134.718 37.7077 134.825 37.6362 134.948 37.5849C135.07 37.5313 135.201 37.5045 135.339 37.5045L135.58 37.5045C135.719 37.5045 135.849 37.5313 135.972 37.5849C136.095 37.6362 136.202 37.7077 136.294 37.7992C136.385 37.8907 136.456 37.9978 136.508 38.1206C136.561 38.2434 136.588 38.3739 136.588 38.5123L136.588 41.0001L136.451 41.0001ZM136.176 39.3393L135.306 39.3393C135.223 39.3393 135.145 39.355 135.071 39.3862C135 39.4175 134.937 39.461 134.884 39.5168C134.83 39.5704 134.788 39.634 134.757 39.7077C134.725 39.7791 134.71 39.8561 134.71 39.9387L134.71 40.0827C134.71 40.1652 134.725 40.2434 134.757 40.317C134.788 40.3885 134.83 40.451 134.884 40.5045C134.937 40.5581 135 40.6005 135.071 40.6318C135.145 40.663 135.223 40.6786 135.306 40.6786L135.58 40.6786C135.663 40.6786 135.74 40.663 135.811 40.6318C135.885 40.6005 135.949 40.5581 136.002 40.5045C136.056 40.451 136.098 40.3885 136.129 40.317C136.161 40.2434 136.176 40.1652 136.176 40.0827L136.176 39.3393Z" fill="#CEFDDE"/>
<path d="M103.888 66.509C104.051 66.509 104.204 66.5402 104.347 66.6027C104.49 66.663 104.615 66.7467 104.722 66.8539C104.829 66.961 104.914 67.086 104.977 67.2289C105.037 67.3717 105.067 67.5246 105.067 67.6876V68.0291C105.067 68.192 105.037 68.346 104.977 68.4911C104.914 68.634 104.829 68.759 104.722 68.8661C104.615 68.9733 104.49 69.0581 104.347 69.1206C104.204 69.1809 104.051 69.211 103.888 69.211H101.31C101.147 69.211 100.994 69.1809 100.852 69.1206C100.709 69.0581 100.584 68.9733 100.477 68.8661C100.369 68.759 100.286 68.634 100.225 68.4911C100.163 68.346 100.132 68.192 100.132 68.0291V67.6876C100.132 67.5246 100.163 67.3717 100.225 67.2289C100.286 67.086 100.369 66.961 100.477 66.8539C100.584 66.7467 100.709 66.663 100.852 66.6027C100.994 66.5402 101.147 66.509 101.31 66.509H103.888ZM101.31 66.9409C101.203 66.9409 101.104 66.961 101.012 67.0012C100.919 67.0414 100.837 67.096 100.768 67.1652C100.699 67.2344 100.644 67.3159 100.604 67.4097C100.564 67.5012 100.544 67.6005 100.544 67.7077V68.009C100.544 68.1161 100.564 68.2166 100.604 68.3103C100.644 68.4018 100.699 68.4833 100.768 68.5547C100.837 68.6239 100.919 68.6786 101.012 68.7188C101.104 68.759 101.203 68.7791 101.31 68.7791H103.888C103.996 68.7791 104.096 68.759 104.19 68.7188C104.281 68.6786 104.363 68.6239 104.434 68.5547C104.503 68.4833 104.558 68.4018 104.598 68.3103C104.638 68.2166 104.658 68.1161 104.658 68.009V67.7077C104.658 67.6005 104.638 67.5012 104.598 67.4097C104.558 67.3159 104.503 67.2344 104.434 67.1652C104.363 67.096 104.281 67.0414 104.19 67.0012C104.096 66.961 103.996 66.9409 103.888 66.9409H101.31ZM105 62.7289V62.9532L102.415 63.7568L102.238 63.7702L102.415 63.7835L105 64.5871V64.8148L101.571 65.9599V65.5414L104.163 64.7244L104.34 64.711L104.163 64.6976L101.571 63.894V63.6463L104.163 62.846L104.34 62.8327L104.163 62.8193L101.571 62.0023V61.5838L105 62.7289ZM105 60.9643H100.199V60.5525H105V60.9643Z" fill="#CEFDDE"/>
<path fill-rule="evenodd" clip-rule="evenodd" d="M105.005 92.0626L103.293 90.3509C103.098 90.1559 102.782 90.1559 102.587 90.3509C102.392 90.5459 102.392 90.862 102.587 91.057L103.547 92.0177C102.513 92.0081 101.735 91.8154 101.275 91.3122C100.797 90.7882 100.611 90.3731 100.611 88.9994C100.611 88.7236 100.388 88.5001 100.112 88.5001C99.8364 88.5001 99.6128 88.7236 99.6128 88.9994C99.6128 90.5603 99.8537 91.2366 100.538 91.9858C101.179 92.6876 102.166 92.9744 103.349 93.0123L102.584 93.777C102.389 93.972 102.389 94.2882 102.584 94.4832C102.779 94.6782 103.095 94.6782 103.29 94.4832L105.005 92.7688C105.2 92.5738 105.2 92.2576 105.005 92.0626Z" fill="#FFD666"/>
<path fill-rule="evenodd" clip-rule="evenodd" d="M152.297 92.0626L154.009 90.3509C154.204 90.1559 154.52 90.1559 154.715 90.3509C154.911 90.5459 154.911 90.862 154.715 91.057L153.754 92.0177C154.789 92.0082 155.567 91.8155 156.027 91.3123C156.506 90.7883 156.692 90.3732 156.692 88.9995C156.692 88.7237 156.915 88.5001 157.191 88.5001C157.467 88.5001 157.691 88.7237 157.691 88.9995C157.691 90.5604 157.45 91.2366 156.765 91.9858C156.123 92.6877 155.137 92.9744 153.953 93.0124L154.718 93.777C154.913 93.972 154.913 94.2882 154.718 94.4832C154.523 94.6782 154.207 94.6782 154.012 94.4832L152.297 92.7688C152.102 92.5738 152.102 92.2576 152.297 92.0626Z" fill="#FFD666"/>
<path fill-rule="evenodd" clip-rule="evenodd" d="M152.299 38.0669L154.01 39.7787C154.205 39.9737 154.522 39.9737 154.717 39.7787C154.912 39.5837 154.912 39.2675 154.717 39.0725L153.756 38.1119C154.79 38.1215 155.568 38.3142 156.028 38.8174C156.506 39.3414 156.692 39.7565 156.692 41.1302C156.692 41.4059 156.915 41.6295 157.191 41.6295C157.467 41.6295 157.69 41.4059 157.69 41.1302C157.69 39.5693 157.45 38.893 156.765 38.1438C156.124 37.442 155.137 37.1552 153.954 37.1173L154.719 36.3525C154.914 36.1575 154.914 35.8414 154.719 35.6464C154.524 35.4514 154.208 35.4514 154.013 35.6464L152.299 37.3608C152.104 37.5558 152.104 37.8719 152.299 38.0669Z" fill="#FFD666"/>
<path fill-rule="evenodd" clip-rule="evenodd" d="M105.006 38.0669L103.294 39.7787C103.099 39.9737 102.782 39.9737 102.587 39.7787C102.392 39.5837 102.392 39.2675 102.587 39.0725L103.548 38.1118C102.514 38.1214 101.735 38.3141 101.275 38.8173C100.797 39.3413 100.611 39.7564 100.611 41.1301C100.611 41.4059 100.388 41.6295 100.112 41.6295C99.8358 41.6295 99.6122 41.4059 99.6122 41.1301C99.6122 39.5692 99.8531 38.893 100.538 38.1437C101.179 37.4419 102.166 37.1551 103.35 37.1172L102.585 36.3525C102.389 36.1575 102.389 35.8414 102.585 35.6464C102.78 35.4514 103.096 35.4514 103.291 35.6464L105.006 37.3608C105.201 37.5558 105.201 37.8719 105.006 38.0669Z" fill="#FFD666"/>
</g>
<g style="mix-blend-mode:luminosity">
<path d="M9.229 105.019C9.277 105.019 9.346 105.034 9.436 105.064C9.436 105.634 9.475 106.273 9.553 106.981L14.026 106.981C14.314 106.981 14.53 107.038 14.674 107.152C14.818 107.26 14.92 107.449 14.98 107.719C15.034 107.971 15.058 108.28 15.052 108.646C14.98 108.676 14.902 108.691 14.818 108.691C14.74 108.691 14.674 108.679 14.62 108.655C14.608 108.433 14.557 108.28 14.467 108.196C14.377 108.106 14.218 108.061 13.99 108.061L7.915 108.061C7.585 108.061 7.42 108.094 7.42 108.16L7.438 108.475C7.372 108.511 7.294 108.529 7.204 108.529C7.114 108.529 7.042 108.517 6.988 108.493C6.712 107.593 6.574 106.585 6.574 105.469C6.574 104.971 6.592 104.56 6.628 104.236C6.7 104.2 6.778 104.182 6.862 104.182C6.916 104.182 6.988 104.197 7.078 104.227C7.054 104.353 7.042 104.602 7.042 104.974C7.042 105.748 7.081 106.42 7.159 106.99C7.177 106.984 7.234 106.981 7.33 106.981L9.067 106.981C9.007 106.399 8.974 105.763 8.968 105.073C9.04 105.037 9.127 105.019 9.229 105.019ZM8.752 100.367C8.89 100.295 9.088 100.259 9.346 100.259L12.109 100.259C12.469 100.259 12.727 100.466 12.883 100.88C13.033 101.294 13.108 101.963 13.108 102.887C13.108 103.193 13.078 103.43 13.018 103.598C12.958 103.766 12.859 103.889 12.721 103.967C12.583 104.039 12.385 104.075 12.127 104.075L9.373 104.075C9.001 104.075 8.74 103.865 8.59 103.445C8.446 103.019 8.374 102.347 8.374 101.429C8.374 101.123 8.404 100.889 8.464 100.727C8.518 100.559 8.614 100.439 8.752 100.367ZM12.568 101.501C12.472 101.351 12.307 101.279 12.073 101.285L9.454 101.285C9.184 101.285 9.001 101.324 8.905 101.402C8.803 101.474 8.752 101.609 8.752 101.807C8.752 102.329 8.8 102.665 8.896 102.815C8.998 102.977 9.169 103.055 9.409 103.049L12.028 103.049C12.298 103.049 12.481 103.013 12.577 102.941C12.673 102.869 12.721 102.725 12.721 102.509C12.709 101.981 12.658 101.645 12.568 101.501ZM14.179 96.1038C14.107 96.0678 14.005 96.0498 13.873 96.0498L12.73 96.0498L12.82 96.3828C12.88 96.5928 12.937 96.8058 12.991 97.0218C13.033 97.1958 13.069 97.4028 13.099 97.6428C13.111 97.7868 13.117 97.8888 13.117 97.9488C13.117 98.2788 13.066 98.5128 12.964 98.6508C12.856 98.7888 12.679 98.8578 12.433 98.8578L9.346 98.8578C9.016 98.8578 8.851 98.8908 8.851 98.9568L8.869 99.5778C8.827 99.6018 8.77 99.6138 8.698 99.6138C8.65 99.6138 8.599 99.6048 8.545 99.5868C8.431 99.1908 8.374 98.7858 8.374 98.3718C8.374 98.1918 8.383 98.0658 8.401 97.9938C8.413 97.9218 8.446 97.8768 8.5 97.8588C8.548 97.8348 8.635 97.8258 8.761 97.8318L12.208 97.8318C12.454 97.8318 12.577 97.6638 12.577 97.3278C12.577 97.0698 12.493 96.6438 12.325 96.0498L9.346 96.0498C9.016 96.0498 8.851 96.0828 8.851 96.1488L8.869 96.7698C8.827 96.7938 8.77 96.8058 8.698 96.8058C8.65 96.8058 8.599 96.7968 8.545 96.7788C8.431 96.3828 8.374 95.9778 8.374 95.5638C8.374 95.3838 8.383 95.2578 8.401 95.1858C8.413 95.1138 8.446 95.0688 8.5 95.0508C8.548 95.0268 8.635 95.0178 8.761 95.0238L13.945 95.0238C14.443 95.0118 14.743 95.2758 14.845 95.8158C15.001 96.5538 15.076 97.4658 15.07 98.5518C14.974 98.6058 14.896 98.6328 14.836 98.6328C14.734 98.6328 14.656 98.6208 14.602 98.5968C14.59 97.7568 14.554 97.1658 14.494 96.8238C14.452 96.5958 14.407 96.4278 14.359 96.3198C14.311 96.2118 14.251 96.1398 14.179 96.1038ZM12.568 91.119C12.502 90.705 12.445 90.405 12.397 90.219C12.457 90.189 12.532 90.174 12.622 90.174C12.7 90.174 12.76 90.186 12.802 90.21C13.012 91.014 13.117 91.896 13.117 92.856C13.117 93.18 13.066 93.417 12.964 93.567C12.862 93.711 12.694 93.783 12.46 93.783L9.373 93.783C9.001 93.783 8.74 93.585 8.59 93.189C8.446 92.805 8.374 92.181 8.374 91.317C8.374 91.011 8.404 90.777 8.464 90.615C8.518 90.447 8.614 90.327 8.752 90.255C8.89 90.183 9.088 90.147 9.346 90.147L9.985 90.147C10.237 90.147 10.435 90.21 10.579 90.336C10.717 90.462 10.816 90.663 10.876 90.939C10.978 91.605 11.047 92.211 11.083 92.757L12.109 92.757C12.337 92.757 12.487 92.715 12.559 92.631C12.631 92.541 12.667 92.361 12.667 92.091C12.667 91.851 12.634 91.527 12.568 91.119ZM8.905 92.55C9.001 92.7 9.169 92.769 9.409 92.757L10.669 92.757C10.633 92.355 10.591 92.028 10.543 91.776C10.489 91.53 10.426 91.368 10.354 91.29C10.282 91.212 10.15 91.173 9.958 91.173L9.409 91.173C9.157 91.173 8.986 91.212 8.896 91.29C8.8 91.362 8.752 91.497 8.752 91.695C8.752 92.115 8.803 92.4 8.905 92.55ZM9.346 88.8904C9.016 88.8904 8.851 88.9234 8.851 88.9894L8.869 89.6104C8.827 89.6344 8.77 89.6464 8.698 89.6464C8.65 89.6464 8.599 89.6374 8.545 89.6194C8.431 89.2234 8.374 88.8184 8.374 88.4044C8.374 88.2244 8.383 88.0984 8.401 88.0264C8.413 87.9544 8.446 87.9094 8.5 87.8914C8.548 87.8674 8.635 87.8584 8.761 87.8644C8.503 87.2704 8.374 86.8474 8.374 86.5954C8.374 86.2654 8.428 86.0314 8.536 85.8934C8.638 85.7554 8.812 85.6864 9.058 85.6864L9.904 85.6864C9.988 85.6864 10.048 85.7344 10.084 85.8304C10.15 86.0584 10.183 86.3014 10.183 86.5594C10.183 86.6614 10.132 86.7124 10.03 86.7124L9.283 86.7124C9.061 86.7124 8.95 86.8294 8.95 87.0634C8.95 87.2494 9.022 87.5164 9.166 87.8644L12.145 87.8644C12.475 87.8644 12.64 87.8314 12.64 87.7654L12.622 87.1444C12.664 87.1204 12.721 87.1084 12.793 87.1084C12.841 87.1084 12.892 87.1174 12.946 87.1354C13.06 87.5314 13.117 87.9364 13.117 88.3504C13.117 88.5304 13.108 88.6564 13.09 88.7284C13.078 88.8004 13.048 88.8484 13 88.8724C12.946 88.8904 12.856 88.8964 12.73 88.8904L9.346 88.8904Z" fill="#9CFCBC"/>
</g>
<g style="mix-blend-mode:luminosity">
<path d="M79.6908 11.5741C80.2608 11.5741 80.8038 11.5981 81.3198 11.6461C81.3558 11.7061 81.3738 11.7931 81.3738 11.9071C81.3738 11.9971 81.3618 12.0751 81.3378 12.1411C80.8578 12.0871 80.2788 12.0631 79.6008 12.0691L79.6008 17.1451C79.6008 17.4751 79.6338 17.6401 79.6998 17.6401L80.2668 17.6221C80.2908 17.6641 80.3028 17.7211 80.3028 17.7931C80.3028 17.8411 80.2938 17.8921 80.2758 17.9461C79.8798 18.0601 79.4958 18.1171 79.1238 18.1171C78.9318 18.1171 78.7938 18.1081 78.7098 18.0901C78.6318 18.0781 78.5778 18.0481 78.5478 18.0001C78.5238 17.9461 78.5148 17.8561 78.5208 17.7301L78.5208 12.1411C77.8188 12.1951 77.2098 12.2821 76.6938 12.4021C76.6578 12.3181 76.6398 12.2341 76.6398 12.1501C76.6398 12.1021 76.6518 12.0241 76.6758 11.9161C77.5398 11.6881 78.5448 11.5741 79.6908 11.5741ZM82.2934 12.6361C82.1854 12.6481 82.1374 12.5521 82.1494 12.3481L82.1494 11.8891C82.1494 11.7871 82.1584 11.7181 82.1764 11.6821C82.2004 11.6461 82.2514 11.6221 82.3294 11.6101L83.0314 11.5831C83.1394 11.5711 83.1874 11.6671 83.1754 11.8711L83.1754 12.3301C83.1754 12.4321 83.1634 12.5011 83.1394 12.5371C83.1214 12.5731 83.0734 12.5971 82.9954 12.6091L82.2934 12.6361ZM84.1114 17.7931C84.1114 17.8411 84.1024 17.8921 84.0844 17.9461C83.6884 18.0601 83.2834 18.1171 82.8694 18.1171C82.6894 18.1171 82.5634 18.1081 82.4914 18.0901C82.4194 18.0781 82.3714 18.0481 82.3474 18.0001C82.3294 17.9461 82.3234 17.8561 82.3294 17.7301L82.3294 14.3461C82.3294 14.0161 82.2964 13.8511 82.2304 13.8511L81.6094 13.8691C81.5854 13.8271 81.5734 13.7701 81.5734 13.6981C81.5734 13.6501 81.5824 13.5991 81.6004 13.5451C81.9964 13.4311 82.4014 13.3741 82.8154 13.3741C82.9954 13.3741 83.1214 13.3831 83.1934 13.4011C83.2654 13.4131 83.3104 13.4461 83.3284 13.5001C83.3524 13.5481 83.3614 13.6351 83.3554 13.7611L83.3554 17.1451C83.3554 17.4631 83.3854 17.6221 83.4454 17.6221L84.0754 17.6221C84.0994 17.6641 84.1114 17.7211 84.1114 17.7931ZM87.2862 13.9141C87.0522 13.9141 86.6472 14.0011 86.0712 14.1751L86.0712 17.8381C86.0712 17.9221 86.0232 17.9821 85.9272 18.0181C85.6992 18.0841 85.4562 18.1171 85.1982 18.1171C85.0962 18.1171 85.0452 18.0661 85.0452 17.9641L85.0452 14.3461C85.0452 14.0161 85.0122 13.8511 84.9462 13.8511L84.3252 13.8691C84.3012 13.8271 84.2892 13.7701 84.2892 13.6981C84.2892 13.6501 84.2982 13.5991 84.3162 13.5451C84.7122 13.4311 85.1172 13.3741 85.5312 13.3741C85.7112 13.3741 85.8372 13.3831 85.9092 13.4011C85.9812 13.4131 86.0262 13.4461 86.0442 13.5001C86.0682 13.5481 86.0772 13.6351 86.0712 13.7611C86.5092 13.6291 86.8632 13.5331 87.1332 13.4731C87.4392 13.4071 87.7122 13.3741 87.9522 13.3741C88.4082 13.3741 88.6812 13.5091 88.7712 13.7791C88.9092 13.7311 89.1282 13.6681 89.4282 13.5901C89.7762 13.5001 89.9862 13.4461 90.0582 13.4281C90.2862 13.3921 90.4842 13.3741 90.6522 13.3741C90.9822 13.3741 91.2162 13.4281 91.3542 13.5361C91.4922 13.6381 91.5612 13.8121 91.5612 14.0581L91.5612 17.1451C91.5612 17.3431 91.5672 17.4781 91.5792 17.5501C91.5852 17.6101 91.6122 17.6401 91.6602 17.6401L92.2812 17.6221C92.3052 17.6881 92.3172 17.7451 92.3172 17.7931C92.3172 17.8111 92.3112 17.8441 92.2992 17.8921L92.2902 17.9461C91.8942 18.0601 91.4892 18.1171 91.0752 18.1171C90.8952 18.1171 90.7692 18.1081 90.6972 18.0901C90.6252 18.0781 90.5772 18.0481 90.5532 18.0001C90.5352 17.9461 90.5292 17.8561 90.5352 17.7301L90.5352 14.2831C90.5352 14.0371 90.3672 13.9141 90.0312 13.9141C89.8092 13.9141 89.4042 14.0011 88.8162 14.1751L88.8162 17.8381C88.8162 17.9221 88.7682 17.9821 88.6722 18.0181C88.4442 18.0841 88.2012 18.1171 87.9432 18.1171C87.8412 18.1171 87.7902 18.0661 87.7902 17.9641L87.7902 14.2831C87.7902 14.0371 87.6222 13.9141 87.2862 13.9141ZM95.6398 17.5681C96.0538 17.5021 96.3538 17.4451 96.5398 17.3971C96.5698 17.4571 96.5848 17.5321 96.5848 17.6221C96.5848 17.7001 96.5728 17.7601 96.5488 17.8021C95.7448 18.0121 94.8628 18.1171 93.9028 18.1171C93.5788 18.1171 93.3418 18.0661 93.1918 17.9641C93.0478 17.8621 92.9758 17.6941 92.9758 17.4601L92.9758 14.3731C92.9758 14.0011 93.1738 13.7401 93.5698 13.5901C93.9538 13.4461 94.5778 13.3741 95.4418 13.3741C95.7478 13.3741 95.9818 13.4041 96.1438 13.4641C96.3118 13.5181 96.4318 13.6141 96.5038 13.7521C96.5758 13.8901 96.6118 14.0881 96.6118 14.3461L96.6118 14.9851C96.6118 15.2371 96.5488 15.4351 96.4228 15.5791C96.2968 15.7171 96.0958 15.8161 95.8198 15.8761C95.1538 15.9781 94.5478 16.0471 94.0018 16.0831L94.0018 17.1091C94.0018 17.3371 94.0438 17.4871 94.1278 17.5591C94.2178 17.6311 94.3978 17.6671 94.6678 17.6671C94.9078 17.6671 95.2318 17.6341 95.6398 17.5681ZM94.2088 13.9051C94.0588 14.0011 93.9898 14.1691 94.0018 14.4091L94.0018 15.6691C94.4038 15.6331 94.7308 15.5911 94.9828 15.5431C95.2288 15.4891 95.3908 15.4261 95.4688 15.3541C95.5468 15.2821 95.5858 15.1501 95.5858 14.9581L95.5858 14.4091C95.5858 14.1571 95.5468 13.9861 95.4688 13.8961C95.3968 13.8001 95.2618 13.7521 95.0638 13.7521C94.6438 13.7521 94.3588 13.8031 94.2088 13.9051ZM99.5515 17.7931C99.5515 17.8411 99.5425 17.8921 99.5245 17.9461C99.1285 18.0601 98.7235 18.1171 98.3095 18.1171C98.1295 18.1171 98.0035 18.1081 97.9315 18.0901C97.8595 18.0781 97.8115 18.0481 97.7875 18.0001C97.7695 17.9461 97.7635 17.8561 97.7695 17.7301L97.7695 12.5551C97.7695 12.2251 97.7365 12.0601 97.6705 12.0601L97.0495 12.0781C97.0255 12.0361 97.0135 11.9791 97.0135 11.9071C97.0135 11.8591 97.0225 11.8081 97.0405 11.7541C97.4365 11.6401 97.8415 11.5831 98.2555 11.5831C98.4355 11.5831 98.5615 11.5921 98.6335 11.6101C98.7055 11.6221 98.7505 11.6551 98.7685 11.7091C98.7925 11.7571 98.8015 11.8441 98.7955 11.9701L98.7955 17.1451C98.7955 17.4751 98.8285 17.6401 98.8945 17.6401L99.5155 17.6221C99.5395 17.6641 99.5515 17.7211 99.5515 17.7931ZM100.452 12.6361C100.344 12.6481 100.296 12.5521 100.308 12.3481L100.308 11.8891C100.308 11.7871 100.317 11.7181 100.335 11.6821C100.359 11.6461 100.41 11.6221 100.488 11.6101L101.19 11.5831C101.298 11.5711 101.346 11.6671 101.334 11.8711L101.334 12.3301C101.334 12.4321 101.322 12.5011 101.298 12.5371C101.28 12.5731 101.232 12.5971 101.154 12.6091L100.452 12.6361ZM102.27 17.7931C102.27 17.8411 102.261 17.8921 102.243 17.9461C101.847 18.0601 101.442 18.1171 101.028 18.1171C100.848 18.1171 100.722 18.1081 100.65 18.0901C100.578 18.0781 100.53 18.0481 100.506 18.0001C100.488 17.9461 100.482 17.8561 100.488 17.7301L100.488 14.3461C100.488 14.0161 100.455 13.8511 100.389 13.8511L99.7676 13.8691C99.7436 13.8271 99.7316 13.7701 99.7316 13.6981C99.7316 13.6501 99.7406 13.5991 99.7586 13.5451C100.155 13.4311 100.56 13.3741 100.974 13.3741C101.154 13.3741 101.28 13.3831 101.352 13.4011C101.424 13.4131 101.469 13.4461 101.487 13.5001C101.511 13.5481 101.52 13.6351 101.514 13.7611L101.514 17.1451C101.514 17.4631 101.544 17.6221 101.604 17.6221L102.234 17.6221C102.258 17.6641 102.27 17.7211 102.27 17.7931ZM105.507 13.9141C105.237 13.9141 104.811 13.9981 104.229 14.1661L104.229 17.8381C104.229 17.9221 104.181 17.9821 104.085 18.0181C103.857 18.0841 103.614 18.1171 103.356 18.1171C103.254 18.1171 103.203 18.0661 103.203 17.9641L103.203 14.3461C103.203 14.0161 103.17 13.8511 103.104 13.8511L102.483 13.8691C102.459 13.8271 102.447 13.7701 102.447 13.6981C102.447 13.6501 102.456 13.5991 102.474 13.5451C102.87 13.4311 103.275 13.3741 103.689 13.3741C103.869 13.3741 103.995 13.3831 104.067 13.4011C104.139 13.4131 104.184 13.4461 104.202 13.5001C104.226 13.5481 104.235 13.6351 104.229 13.7611L104.562 13.6621C104.772 13.6021 104.922 13.5631 105.012 13.5451C105.006 13.5451 105.072 13.5301 105.21 13.5001C105.378 13.4581 105.582 13.4221 105.822 13.3921C105.966 13.3801 106.068 13.3741 106.128 13.3741C106.458 13.3741 106.692 13.4281 106.83 13.5361C106.968 13.6381 107.037 13.8121 107.037 14.0581L107.037 17.1451C107.037 17.4751 107.07 17.6401 107.136 17.6401L107.757 17.6221C107.781 17.6641 107.793 17.7211 107.793 17.7931C107.793 17.8411 107.784 17.8921 107.766 17.9461C107.37 18.0601 106.965 18.1171 106.551 18.1171C106.371 18.1171 106.245 18.1081 106.173 18.0901C106.101 18.0781 106.053 18.0481 106.029 18.0001C106.011 17.9461 106.005 17.8561 106.011 17.7301L106.011 14.2831C106.011 14.0371 105.843 13.9141 105.507 13.9141ZM111.117 17.5681C111.531 17.5021 111.831 17.4451 112.017 17.3971C112.047 17.4571 112.062 17.5321 112.062 17.6221C112.062 17.7001 112.05 17.7601 112.026 17.8021C111.222 18.0121 110.34 18.1171 109.38 18.1171C109.056 18.1171 108.819 18.0661 108.669 17.9641C108.525 17.8621 108.453 17.6941 108.453 17.4601L108.453 14.3731C108.453 14.0011 108.651 13.7401 109.047 13.5901C109.431 13.4461 110.055 13.3741 110.919 13.3741C111.225 13.3741 111.459 13.4041 111.621 13.4641C111.789 13.5181 111.909 13.6141 111.981 13.7521C112.053 13.8901 112.089 14.0881 112.089 14.3461L112.089 14.9851C112.089 15.2371 112.026 15.4351 111.9 15.5791C111.774 15.7171 111.573 15.8161 111.297 15.8761C110.631 15.9781 110.025 16.0471 109.479 16.0831L109.479 17.1091C109.479 17.3371 109.521 17.4871 109.605 17.5591C109.695 17.6311 109.875 17.6671 110.145 17.6671C110.385 17.6671 110.709 17.6341 111.117 17.5681ZM109.686 13.9051C109.536 14.0011 109.467 14.1691 109.479 14.4091L109.479 15.6691C109.881 15.6331 110.208 15.5911 110.46 15.5431C110.706 15.4891 110.868 15.4261 110.946 15.3541C111.024 15.2821 111.063 15.1501 111.063 14.9581L111.063 14.4091C111.063 14.1571 111.024 13.9861 110.946 13.8961C110.874 13.8001 110.739 13.7521 110.541 13.7521C110.121 13.7521 109.836 13.8031 109.686 13.9051Z" fill="#9CFCBC"/>
</g>
<g style="mix-blend-mode:luminosity">
<path d="M182.12 84.333C182.048 84.333 181.979 84.321 181.913 84.297C181.949 84.117 181.967 83.79 181.967 83.316C181.967 82.548 181.913 81.969 181.805 81.579C181.721 81.273 181.499 81.123 181.139 81.129L177.224 81.129C177.002 81.129 176.831 81.153 176.711 81.201C176.597 81.255 176.516 81.342 176.468 81.462C176.42 81.582 176.396 81.759 176.396 81.993C176.396 82.401 176.426 82.842 176.486 83.316C176.546 83.796 176.606 84.141 176.666 84.351C176.552 84.387 176.468 84.405 176.414 84.405C176.36 84.405 176.294 84.39 176.216 84.36C175.982 83.604 175.865 82.698 175.865 81.642C175.865 81.228 175.901 80.907 175.973 80.679C176.045 80.457 176.168 80.295 176.342 80.193C176.516 80.097 176.768 80.049 177.098 80.049L181.184 80.049C181.376 80.049 181.547 80.097 181.697 80.193C181.847 80.295 181.967 80.436 182.057 80.616C182.225 80.964 182.33 81.372 182.372 81.84C182.408 82.248 182.426 82.707 182.426 83.217C182.426 83.565 182.405 83.919 182.363 84.279C182.291 84.315 182.21 84.333 182.12 84.333ZM180.248 88.8448C180.11 88.9168 179.912 88.9528 179.654 88.9528L176.891 88.9528C176.531 88.9528 176.273 88.7458 176.117 88.3318C175.967 87.9178 175.892 87.2488 175.892 86.3248C175.892 86.0188 175.922 85.7818 175.982 85.6138C176.042 85.4458 176.141 85.3228 176.279 85.2448C176.417 85.1728 176.615 85.1368 176.873 85.1368L179.627 85.1368C179.999 85.1368 180.26 85.3468 180.41 85.7668C180.554 86.1928 180.626 86.8648 180.626 87.7828C180.626 88.0888 180.596 88.3228 180.536 88.4848C180.482 88.6528 180.386 88.7728 180.248 88.8448ZM176.432 87.7108C176.528 87.8608 176.693 87.9328 176.927 87.9268L179.546 87.9268C179.816 87.9268 179.999 87.8878 180.095 87.8098C180.197 87.7378 180.248 87.6028 180.248 87.4048C180.248 86.8828 180.2 86.5468 180.104 86.3968C180.002 86.2348 179.831 86.1568 179.591 86.1628L176.972 86.1628C176.702 86.1628 176.519 86.1988 176.423 86.2708C176.327 86.3428 176.279 86.4868 176.279 86.7028C176.291 87.2308 176.342 87.5668 176.432 87.7108ZM176.207 92.0642C176.159 92.0642 176.108 92.0552 176.054 92.0372C175.94 91.6412 175.883 91.2362 175.883 90.8222C175.883 90.6422 175.892 90.5162 175.91 90.4442C175.922 90.3722 175.952 90.3242 176 90.3002C176.054 90.2822 176.144 90.2762 176.27 90.2822L181.445 90.2822C181.775 90.2822 181.94 90.2492 181.94 90.1832L181.922 89.5622C181.964 89.5382 182.021 89.5262 182.093 89.5262C182.141 89.5262 182.192 89.5352 182.246 89.5532C182.36 89.9492 182.417 90.3542 182.417 90.7682C182.417 90.9482 182.408 91.0742 182.39 91.1462C182.378 91.2182 182.345 91.2632 182.291 91.2812C182.243 91.3052 182.156 91.3142 182.03 91.3082L176.855 91.3082C176.525 91.3082 176.36 91.3412 176.36 91.4072L176.378 92.0282C176.336 92.0522 176.279 92.0642 176.207 92.0642ZM180.248 96.4474C180.11 96.5194 179.912 96.5554 179.654 96.5554L176.891 96.5554C176.531 96.5554 176.273 96.3484 176.117 95.9344C175.967 95.5204 175.892 94.8514 175.892 93.9274C175.892 93.6214 175.922 93.3844 175.982 93.2164C176.042 93.0484 176.141 92.9254 176.279 92.8474C176.417 92.7754 176.615 92.7394 176.873 92.7394L179.627 92.7394C179.999 92.7394 180.26 92.9494 180.41 93.3694C180.554 93.7954 180.626 94.4674 180.626 95.3854C180.626 95.6914 180.596 95.9254 180.536 96.0874C180.482 96.2554 180.386 96.3754 180.248 96.4474ZM176.432 95.3134C176.528 95.4634 176.693 95.5354 176.927 95.5294L179.546 95.5294C179.816 95.5294 179.999 95.4904 180.095 95.4124C180.197 95.3404 180.248 95.2054 180.248 95.0074C180.248 94.4854 180.2 94.1494 180.104 93.9994C180.002 93.8374 179.831 93.7594 179.591 93.7654L176.972 93.7654C176.702 93.7654 176.519 93.8014 176.423 93.8734C176.327 93.9454 176.279 94.0894 176.279 94.3054C176.291 94.8334 176.342 95.1694 176.432 95.3134ZM179.654 97.9838C179.984 97.9838 180.149 97.9508 180.149 97.8848L180.131 97.2638C180.173 97.2398 180.23 97.2278 180.302 97.2278C180.35 97.2278 180.401 97.2368 180.455 97.2548C180.569 97.6508 180.626 98.0558 180.626 98.4698C180.626 98.6498 180.617 98.7758 180.599 98.8478C180.587 98.9198 180.554 98.9648 180.5 98.9828C180.452 99.0068 180.365 99.0158 180.239 99.0098C180.497 99.6038 180.626 100.027 180.626 100.279C180.626 100.609 180.572 100.843 180.464 100.981C180.362 101.119 180.188 101.188 179.942 101.188L179.096 101.188C179.012 101.188 178.952 101.14 178.916 101.044C178.85 100.816 178.817 100.573 178.817 100.315C178.817 100.213 178.868 100.162 178.97 100.162L179.717 100.162C179.939 100.162 180.05 100.045 180.05 99.8108C180.05 99.6248 179.978 99.3578 179.834 99.0098L176.855 99.0098C176.525 99.0098 176.36 99.0428 176.36 99.1088L176.378 99.7298C176.336 99.7538 176.279 99.7658 176.207 99.7658C176.159 99.7658 176.108 99.7568 176.054 99.7388C175.94 99.3428 175.883 98.9378 175.883 98.5238C175.883 98.3438 175.892 98.2178 175.91 98.1458C175.922 98.0738 175.952 98.0258 176 98.0018C176.054 97.9838 176.144 97.9778 176.27 97.9838L179.654 97.9838ZM176.207 106.261C176.159 106.261 176.108 106.252 176.054 106.234C175.94 105.85 175.883 105.445 175.883 105.019C175.883 104.857 175.892 104.737 175.91 104.659C175.922 104.587 175.949 104.539 175.991 104.515C176.027 104.491 176.09 104.479 176.18 104.479C175.982 103.789 175.883 103.195 175.883 102.697C175.883 102.367 175.934 102.133 176.036 101.995C176.138 101.857 176.315 101.788 176.567 101.788L177.827 101.788C178.079 101.788 178.274 101.851 178.412 101.977C178.556 102.103 178.658 102.304 178.718 102.58C178.82 103.246 178.886 103.879 178.916 104.479L179.618 104.479C179.846 104.479 179.996 104.434 180.068 104.344C180.14 104.26 180.176 104.083 180.176 103.813C180.176 103.645 180.134 103.309 180.05 102.805C179.966 102.367 179.903 102.079 179.861 101.941C179.933 101.911 180.008 101.896 180.086 101.896C180.164 101.896 180.224 101.908 180.266 101.932C180.506 102.694 180.626 103.576 180.626 104.578C180.626 104.902 180.575 105.136 180.473 105.28C180.371 105.43 180.203 105.505 179.969 105.505L176.855 105.505C176.525 105.505 176.36 105.538 176.36 105.604L176.378 106.225C176.336 106.249 176.279 106.261 176.207 106.261ZM176.387 103.381C176.387 103.663 176.453 104.029 176.585 104.479L178.511 104.479C178.499 104.149 178.466 103.837 178.412 103.543C178.358 103.243 178.286 103.039 178.196 102.931C178.136 102.853 178.001 102.814 177.791 102.814L176.792 102.814C176.522 102.814 176.387 103.003 176.387 103.381ZM176.207 111.471C176.159 111.471 176.108 111.462 176.054 111.444C175.94 111.048 175.883 110.643 175.883 110.229C175.883 110.049 175.892 109.923 175.91 109.851C175.922 109.779 175.952 109.731 176 109.707C176.054 109.689 176.144 109.683 176.27 109.689L176.18 109.356C176.12 109.146 176.063 108.933 176.009 108.717C175.967 108.543 175.931 108.336 175.901 108.096C175.889 107.952 175.883 107.85 175.883 107.79C175.883 107.46 175.934 107.226 176.036 107.088C176.144 106.95 176.321 106.881 176.567 106.881L179.573 106.881C180.047 106.881 180.332 107.145 180.428 107.673C180.536 108.243 180.602 108.915 180.626 109.689L181.445 109.689C181.775 109.689 181.94 109.656 181.94 109.59L181.922 108.969C181.964 108.945 182.021 108.933 182.093 108.933C182.141 108.933 182.192 108.942 182.246 108.96C182.36 109.356 182.417 109.761 182.417 110.175C182.417 110.355 182.408 110.481 182.39 110.553C182.378 110.625 182.345 110.67 182.291 110.688C182.243 110.712 182.156 110.721 182.03 110.715L176.855 110.715C176.537 110.715 176.378 110.745 176.378 110.805L176.378 111.435C176.336 111.459 176.279 111.471 176.207 111.471ZM176.423 108.411C176.423 108.669 176.507 109.095 176.675 109.689L180.212 109.689C180.182 109.137 180.143 108.744 180.095 108.51C180.047 108.27 179.987 108.108 179.915 108.024C179.843 107.946 179.726 107.907 179.564 107.907L176.792 107.907C176.546 107.907 176.423 108.075 176.423 108.411ZM180.248 115.81C180.11 115.882 179.912 115.918 179.654 115.918L176.891 115.918C176.531 115.918 176.273 115.711 176.117 115.297C175.967 114.883 175.892 114.214 175.892 113.29C175.892 112.984 175.922 112.747 175.982 112.579C176.042 112.411 176.141 112.288 176.279 112.21C176.417 112.138 176.615 112.102 176.873 112.102L179.627 112.102C179.999 112.102 180.26 112.312 180.41 112.732C180.554 113.158 180.626 113.83 180.626 114.748C180.626 115.054 180.596 115.288 180.536 115.45C180.482 115.618 180.386 115.738 180.248 115.81ZM176.432 114.676C176.528 114.826 176.693 114.898 176.927 114.892L179.546 114.892C179.816 114.892 179.999 114.853 180.095 114.775C180.197 114.703 180.248 114.568 180.248 114.37C180.248 113.848 180.2 113.512 180.104 113.362C180.002 113.2 179.831 113.122 179.591 113.128L176.972 113.128C176.702 113.128 176.519 113.164 176.423 113.236C176.327 113.308 176.279 113.452 176.279 113.668C176.291 114.196 176.342 114.532 176.432 114.676Z" fill="#9CFCBC"/>
</g>
</g>
</g>
<g clip-path="url(#clip4_135_4616)">
<rect x="27.25" y="113" width="64" height="64" fill="black" fill-opacity="0.5"/>
</g>
<rect x="27.55" y="113.3" width="63.4" height="63.4" stroke="#66FF99" stroke-opacity="0.7" stroke-width="0.6" stroke-dasharray="0.66 0.66"/>
<g clip-path="url(#clip5_135_4616)">
<rect x="97.75" y="113" width="64" height="64" fill="black" fill-opacity="0.5"/>
<path d="M101.36 148.415L105.75 148.415L105.75 148.847L101.36 148.847L101.36 149.992L100.949 149.992L100.949 147.27L101.36 147.27L101.36 148.415ZM104.809 144.702C104.948 144.702 105.078 144.729 105.201 144.782C105.324 144.834 105.431 144.905 105.522 144.997C105.614 145.088 105.686 145.195 105.74 145.318C105.791 145.441 105.817 145.571 105.817 145.71L105.817 145.984C105.817 146.123 105.791 146.253 105.74 146.376C105.686 146.499 105.614 146.606 105.522 146.698C105.431 146.789 105.324 146.862 105.201 146.915C105.078 146.967 104.948 146.992 104.809 146.992L103.262 146.992C103.124 146.992 102.993 146.967 102.871 146.915C102.748 146.862 102.641 146.789 102.549 146.698C102.458 146.606 102.386 146.499 102.335 146.376C102.281 146.253 102.254 146.123 102.254 145.984L102.254 145.71C102.254 145.571 102.281 145.441 102.335 145.318C102.386 145.195 102.458 145.088 102.549 144.997C102.641 144.905 102.748 144.834 102.871 144.782C102.993 144.729 103.124 144.702 103.262 144.702L104.069 144.702L104.069 146.58L104.833 146.58C104.915 146.58 104.993 146.565 105.067 146.533C105.138 146.502 105.201 146.46 105.254 146.406C105.308 146.353 105.35 146.29 105.382 146.219C105.413 146.145 105.429 146.067 105.429 145.984L105.429 145.71C105.429 145.627 105.413 145.55 105.382 145.479C105.35 145.405 105.308 145.342 105.254 145.288C105.201 145.234 105.138 145.192 105.067 145.161C104.993 145.129 104.915 145.114 104.833 145.114L104.605 145.114L104.672 144.702L104.809 144.702ZM103.239 145.114C103.156 145.114 103.079 145.129 103.008 145.161C102.934 145.192 102.871 145.234 102.817 145.288C102.763 145.342 102.721 145.405 102.69 145.479C102.658 145.55 102.643 145.627 102.643 145.71L102.643 145.984C102.643 146.067 102.658 146.145 102.69 146.219C102.721 146.29 102.763 146.353 102.817 146.406C102.871 146.46 102.934 146.502 103.008 146.533C103.079 146.565 103.156 146.58 103.239 146.58L103.748 146.58L103.748 145.114L103.239 145.114ZM105.75 142.104L104.434 142.837L105.75 143.57L105.75 144.016L104.036 143.055L102.321 144.016L102.321 143.57L103.637 142.837L102.321 142.104L102.321 141.658L104.036 142.616L105.75 141.658L105.75 142.104ZM105.75 139.723C105.75 139.848 105.727 139.967 105.68 140.078C105.633 140.188 105.568 140.283 105.485 140.366C105.403 140.446 105.307 140.511 105.198 140.56C105.088 140.607 104.971 140.631 104.846 140.631L102.713 140.631L102.713 141.247L102.321 141.247L102.321 140.631L101.498 140.631L101.431 140.219L102.321 140.219L102.321 139.348L102.713 139.348L102.713 140.219L104.866 140.219C104.935 140.219 105 140.206 105.06 140.182C105.118 140.155 105.17 140.119 105.214 140.075C105.259 140.03 105.295 139.978 105.321 139.917C105.346 139.857 105.358 139.792 105.358 139.723L105.358 139.348L105.75 139.348L105.75 139.723Z" fill="#CCFFDC"/>
<path d="M127.075 119.821C127.075 119.984 127.044 120.137 126.981 120.28C126.921 120.423 126.837 120.548 126.73 120.655C126.623 120.762 126.497 120.847 126.352 120.91C126.209 120.97 126.056 121 125.893 121L124.373 121L124.373 116.199L125.893 116.199C126.056 116.199 126.209 116.23 126.352 116.292C126.497 116.353 126.623 116.436 126.73 116.544C126.837 116.651 126.921 116.777 126.981 116.922C127.044 117.065 127.075 117.218 127.075 117.381L127.075 119.821ZM126.643 117.381C126.643 117.273 126.623 117.174 126.583 117.083C126.542 116.989 126.487 116.907 126.415 116.838C126.346 116.767 126.265 116.711 126.171 116.671C126.079 116.631 125.98 116.61 125.873 116.61L124.805 116.61L124.805 120.588L125.873 120.588C125.98 120.588 126.079 120.568 126.171 120.528C126.265 120.488 126.346 120.433 126.415 120.364C126.487 120.295 126.542 120.214 126.583 120.123C126.623 120.029 126.643 119.929 126.643 119.821L126.643 117.381ZM130.256 120.059C130.256 120.198 130.229 120.328 130.175 120.451C130.124 120.574 130.052 120.681 129.961 120.772C129.869 120.864 129.762 120.936 129.64 120.99C129.517 121.041 129.386 121.067 129.248 121.067L128.973 121.067C128.835 121.067 128.704 121.041 128.581 120.99C128.459 120.936 128.352 120.864 128.26 120.772C128.169 120.681 128.096 120.574 128.042 120.451C127.991 120.328 127.965 120.198 127.965 120.059L127.965 118.512C127.965 118.374 127.991 118.243 128.042 118.121C128.096 117.998 128.169 117.891 128.26 117.799C128.352 117.708 128.459 117.636 128.581 117.585C128.704 117.531 128.835 117.504 128.973 117.504L129.248 117.504C129.386 117.504 129.517 117.531 129.64 117.585C129.762 117.636 129.869 117.708 129.961 117.799C130.052 117.891 130.124 117.998 130.175 118.121C130.229 118.243 130.256 118.374 130.256 118.512L130.256 120.059ZM129.844 118.489C129.844 118.406 129.828 118.329 129.797 118.258C129.766 118.184 129.723 118.121 129.67 118.067C129.616 118.013 129.552 117.971 129.479 117.94C129.407 117.908 129.33 117.893 129.248 117.893L128.973 117.893C128.891 117.893 128.812 117.908 128.739 117.94C128.667 117.971 128.605 118.013 128.551 118.067C128.498 118.121 128.455 118.184 128.424 118.258C128.393 118.329 128.377 118.406 128.377 118.489L128.377 120.083C128.377 120.165 128.393 120.243 128.424 120.317C128.455 120.388 128.498 120.451 128.551 120.504C128.605 120.558 128.667 120.6 128.739 120.632C128.812 120.663 128.891 120.679 128.973 120.679L129.248 120.679C129.33 120.679 129.407 120.663 129.479 120.632C129.552 120.6 129.616 120.558 129.67 120.504C129.723 120.451 129.766 120.388 129.797 120.317C129.828 120.243 129.844 120.165 129.844 120.083L129.844 118.489ZM133.369 120.059C133.369 120.198 133.343 120.328 133.289 120.451C133.238 120.574 133.166 120.681 133.075 120.772C132.983 120.864 132.876 120.936 132.753 120.99C132.631 121.041 132.5 121.067 132.362 121.067L132.087 121.067C131.949 121.067 131.818 121.041 131.695 120.99C131.573 120.936 131.465 120.864 131.374 120.772C131.282 120.681 131.21 120.574 131.156 120.451C131.105 120.328 131.079 120.198 131.079 120.059L131.079 118.512C131.079 118.374 131.105 118.243 131.156 118.121C131.21 117.998 131.282 117.891 131.374 117.799C131.465 117.708 131.573 117.636 131.695 117.585C131.818 117.531 131.949 117.504 132.087 117.504L132.362 117.504C132.5 117.504 132.631 117.531 132.753 117.585C132.876 117.636 132.983 117.708 133.075 117.799C133.166 117.891 133.238 117.998 133.289 118.121C133.343 118.243 133.369 118.374 133.369 118.512L133.369 120.059ZM132.958 118.489C132.958 118.406 132.942 118.329 132.911 118.258C132.879 118.184 132.837 118.121 132.783 118.067C132.73 118.013 132.666 117.971 132.593 117.94C132.521 117.908 132.444 117.893 132.362 117.893L132.087 117.893C132.004 117.893 131.926 117.908 131.853 117.94C131.781 117.971 131.719 118.013 131.665 118.067C131.612 118.121 131.569 118.184 131.538 118.258C131.507 118.329 131.491 118.406 131.491 118.489L131.491 120.083C131.491 120.165 131.507 120.243 131.538 120.317C131.569 120.388 131.612 120.451 131.665 120.504C131.719 120.558 131.781 120.6 131.853 120.632C131.926 120.663 132.004 120.679 132.087 120.679L132.362 120.679C132.444 120.679 132.521 120.663 132.593 120.632C132.666 120.6 132.73 120.558 132.783 120.504C132.837 120.451 132.879 120.388 132.911 120.317C132.942 120.243 132.958 120.165 132.958 120.083L132.958 118.489ZM135.201 117.963C135.118 117.963 135.04 117.979 134.967 118.01C134.895 118.041 134.833 118.084 134.779 118.137C134.725 118.191 134.683 118.254 134.652 118.328C134.621 118.4 134.605 118.477 134.605 118.559L134.605 121L134.193 121L134.193 117.571L134.33 117.571L134.555 117.92C134.648 117.792 134.766 117.692 134.906 117.618C135.049 117.542 135.204 117.504 135.372 117.504L135.613 117.504L135.613 117.963L135.201 117.963Z" fill="#CCFFDC"/>
<path d="M134.017 170.112C134.017 169.949 134.048 169.796 134.11 169.653C134.171 169.51 134.254 169.385 134.362 169.278C134.469 169.171 134.594 169.086 134.737 169.023C134.879 168.963 135.032 168.933 135.195 168.933L135.333 168.933C135.496 168.933 135.65 168.963 135.795 169.023C135.938 169.086 136.063 169.171 136.17 169.278C136.277 169.385 136.362 169.51 136.424 169.653C136.484 169.796 136.515 169.949 136.515 170.112L136.515 170.302L136.083 170.373L136.083 170.112C136.083 170.004 136.063 169.904 136.022 169.81C135.982 169.719 135.927 169.637 135.858 169.566C135.787 169.497 135.705 169.442 135.614 169.402C135.52 169.362 135.42 169.342 135.313 169.342L135.215 169.342C135.11 169.342 135.011 169.362 134.917 169.402C134.824 169.442 134.742 169.497 134.673 169.566C134.604 169.637 134.549 169.719 134.509 169.81C134.469 169.904 134.449 170.004 134.449 170.112L134.449 173.801L134.017 173.801L134.017 170.112ZM131.04 169L131.268 169.348C131.362 169.221 131.479 169.119 131.619 169.044C131.76 168.97 131.914 168.933 132.081 168.933L132.185 168.933C132.324 168.933 132.454 168.959 132.577 169.01C132.7 169.064 132.807 169.136 132.898 169.228C132.99 169.319 133.063 169.426 133.116 169.549C133.167 169.672 133.193 169.802 133.193 169.941L133.193 172.429L132.781 172.429L132.781 169.917C132.781 169.835 132.766 169.757 132.734 169.683C132.703 169.612 132.661 169.549 132.607 169.496C132.554 169.442 132.491 169.4 132.42 169.368C132.346 169.337 132.268 169.321 132.185 169.321L131.911 169.321C131.828 169.321 131.751 169.337 131.68 169.368C131.606 169.4 131.542 169.442 131.489 169.496C131.435 169.549 131.393 169.612 131.362 169.683C131.33 169.757 131.315 169.835 131.315 169.917L131.315 172.429L130.903 172.429L130.903 169L131.04 169ZM129.975 173.252L129.975 173.801L129.497 173.801L129.497 173.252L129.975 173.252ZM129.942 169L129.942 172.429L129.53 172.429L129.53 169L129.942 169ZM126.276 169.941C126.276 169.802 126.302 169.672 126.356 169.549C126.407 169.426 126.479 169.319 126.57 169.228C126.662 169.136 126.769 169.064 126.892 169.01C127.015 168.959 127.145 168.933 127.283 168.933L127.558 168.933C127.696 168.933 127.827 168.959 127.95 169.01C128.073 169.064 128.18 169.136 128.271 169.228C128.363 169.319 128.435 169.426 128.489 169.549C128.54 169.672 128.566 169.802 128.566 169.941L128.566 171.488C128.566 171.626 128.54 171.757 128.489 171.879C128.435 172.002 128.363 172.109 128.271 172.201C128.18 172.292 128.073 172.364 127.95 172.415C127.827 172.469 127.696 172.496 127.558 172.496L127.283 172.496C127.145 172.496 127.015 172.469 126.892 172.415C126.769 172.364 126.662 172.292 126.57 172.201C126.479 172.109 126.407 172.002 126.356 171.879C126.302 171.757 126.276 171.626 126.276 171.488L126.276 171.35L126.687 171.283L126.687 171.511C126.687 171.594 126.703 171.671 126.734 171.742C126.766 171.816 126.808 171.879 126.862 171.933C126.915 171.987 126.979 172.029 127.052 172.06C127.124 172.092 127.201 172.107 127.283 172.107L127.558 172.107C127.641 172.107 127.719 172.092 127.792 172.06C127.864 172.029 127.926 171.987 127.98 171.933C128.033 171.879 128.076 171.816 128.107 171.742C128.138 171.671 128.154 171.594 128.154 171.511L128.154 169.917C128.154 169.835 128.138 169.757 128.107 169.683C128.076 169.612 128.033 169.549 127.98 169.496C127.926 169.442 127.864 169.4 127.792 169.368C127.719 169.337 127.641 169.321 127.558 169.321L127.283 169.321C127.201 169.321 127.124 169.337 127.052 169.368C126.979 169.4 126.915 169.442 126.862 169.496C126.808 169.549 126.766 169.612 126.734 169.683C126.703 169.757 126.687 169.835 126.687 169.917L126.687 170.145L126.276 170.078L126.276 169.941ZM123.162 169.941C123.162 169.802 123.189 169.672 123.242 169.549C123.294 169.426 123.365 169.319 123.456 169.228C123.548 169.136 123.655 169.064 123.778 169.01C123.901 168.959 124.031 168.933 124.17 168.933L124.444 168.933C124.583 168.933 124.713 168.959 124.836 169.01C124.959 169.064 125.066 169.136 125.157 169.228C125.249 169.319 125.321 169.426 125.375 169.549C125.426 169.672 125.452 169.802 125.452 169.941L125.452 171.488C125.452 171.626 125.426 171.757 125.375 171.879C125.321 172.002 125.249 172.109 125.157 172.201C125.066 172.292 124.959 172.364 124.836 172.415C124.713 172.469 124.583 172.496 124.444 172.496L124.17 172.496C124.031 172.496 123.901 172.469 123.778 172.415C123.655 172.364 123.548 172.292 123.456 172.201C123.365 172.109 123.294 172.002 123.242 171.879C123.189 171.757 123.162 171.626 123.162 171.488L123.162 170.681L125.04 170.681L125.04 169.917C125.04 169.835 125.025 169.757 124.993 169.683C124.962 169.612 124.92 169.549 124.866 169.496C124.813 169.442 124.75 169.4 124.679 169.368C124.605 169.337 124.527 169.321 124.444 169.321L124.17 169.321C124.087 169.321 124.01 169.337 123.939 169.368C123.865 169.4 123.801 169.442 123.748 169.496C123.694 169.549 123.652 169.612 123.621 169.683C123.589 169.757 123.574 169.835 123.574 169.917L123.574 170.145L123.162 170.078L123.162 169.941ZM123.574 171.511C123.574 171.594 123.589 171.671 123.621 171.742C123.652 171.816 123.694 171.879 123.748 171.933C123.801 171.987 123.865 172.029 123.939 172.06C124.01 172.092 124.087 172.107 124.17 172.107L124.444 172.107C124.527 172.107 124.605 172.092 124.679 172.06C124.75 172.029 124.813 171.987 124.866 171.933C124.92 171.879 124.962 171.816 124.993 171.742C125.025 171.671 125.04 171.594 125.04 171.511L125.04 171.002L123.574 171.002L123.574 171.511Z" fill="#CCFFDC"/>
<path d="M156.773 138.381C156.61 138.381 156.458 138.349 156.315 138.287C156.172 138.227 156.047 138.143 155.94 138.036C155.833 137.929 155.748 137.802 155.685 137.657C155.625 137.515 155.595 137.362 155.595 137.199V136.11H153.75V135.679H158.551V137.199C158.551 137.362 158.52 137.515 158.458 137.657C158.397 137.802 158.314 137.929 158.206 138.036C158.099 138.143 157.973 138.227 157.828 138.287C157.685 138.349 157.532 138.381 157.369 138.381H156.773ZM157.369 137.949C157.477 137.949 157.576 137.929 157.667 137.888C157.761 137.848 157.843 137.792 157.912 137.721C157.983 137.652 158.039 137.57 158.079 137.477C158.119 137.385 158.14 137.286 158.14 137.179V136.11H156.007V137.179C156.007 137.286 156.027 137.385 156.067 137.477C156.107 137.57 156.162 137.652 156.231 137.721C156.3 137.792 156.381 137.848 156.472 137.888C156.566 137.929 156.666 137.949 156.773 137.949H157.369ZM156.787 140.078C156.787 139.996 156.771 139.917 156.74 139.844C156.709 139.772 156.666 139.71 156.613 139.656C156.559 139.603 156.496 139.56 156.422 139.529C156.35 139.498 156.273 139.482 156.191 139.482H153.75V139.07H157.179V139.208L156.83 139.432C156.958 139.526 157.058 139.643 157.132 139.783C157.208 139.926 157.246 140.081 157.246 140.249V140.49H156.787V140.078ZM154.691 143.329C154.552 143.329 154.422 143.302 154.299 143.249C154.176 143.198 154.069 143.126 153.978 143.035C153.886 142.943 153.814 142.836 153.76 142.713C153.709 142.59 153.683 142.46 153.683 142.321V142.047C153.683 141.908 153.709 141.778 153.76 141.655C153.814 141.532 153.886 141.425 153.978 141.334C154.069 141.242 154.176 141.17 154.299 141.116C154.422 141.065 154.552 141.039 154.691 141.039H156.238C156.376 141.039 156.507 141.065 156.629 141.116C156.752 141.17 156.859 141.242 156.951 141.334C157.042 141.425 157.114 141.532 157.165 141.655C157.219 141.778 157.246 141.908 157.246 142.047V142.321C157.246 142.46 157.219 142.59 157.165 142.713C157.114 142.836 157.042 142.943 156.951 143.035C156.859 143.126 156.752 143.198 156.629 143.249C156.507 143.302 156.376 143.329 156.238 143.329H155.431V141.451H154.667C154.585 141.451 154.507 141.467 154.433 141.498C154.362 141.529 154.299 141.571 154.246 141.625C154.192 141.679 154.15 141.741 154.118 141.812C154.087 141.886 154.071 141.964 154.071 142.047V142.321C154.071 142.404 154.087 142.481 154.118 142.552C154.15 142.626 154.192 142.69 154.246 142.743C154.299 142.797 154.362 142.839 154.433 142.871C154.507 142.902 154.585 142.917 154.667 142.917H154.895L154.828 143.329H154.691ZM156.261 142.917C156.344 142.917 156.421 142.902 156.492 142.871C156.566 142.839 156.629 142.797 156.683 142.743C156.737 142.69 156.779 142.626 156.81 142.552C156.842 142.481 156.857 142.404 156.857 142.321V142.047C156.857 141.964 156.842 141.886 156.81 141.812C156.779 141.741 156.737 141.679 156.683 141.625C156.629 141.571 156.566 141.529 156.492 141.498C156.421 141.467 156.344 141.451 156.261 141.451H155.752V142.917H156.261ZM154.621 146.51C154.482 146.51 154.355 146.482 154.239 146.426C154.125 146.371 154.027 146.295 153.944 146.199C153.862 146.103 153.797 145.991 153.75 145.864C153.705 145.739 153.683 145.607 153.683 145.469V145.194C153.683 145.056 153.709 144.923 153.76 144.796C153.814 144.671 153.886 144.56 153.978 144.464C154.069 144.371 154.176 144.295 154.299 144.237C154.422 144.181 154.552 144.153 154.691 144.153H154.828L154.895 144.565H154.667C154.585 144.565 154.507 144.581 154.433 144.615C154.362 144.651 154.299 144.698 154.246 144.756C154.192 144.814 154.15 144.881 154.118 144.956C154.087 145.032 154.071 145.112 154.071 145.194V145.469C154.071 145.551 154.084 145.631 154.108 145.706C154.133 145.782 154.167 145.849 154.212 145.907C154.259 145.968 154.315 146.015 154.379 146.048C154.444 146.084 154.518 146.102 154.6 146.102C154.723 146.102 154.824 146.075 154.902 146.021C154.98 145.968 155.045 145.896 155.096 145.807C155.15 145.72 155.193 145.619 155.227 145.506C155.262 145.394 155.297 145.279 155.33 145.161C155.366 145.042 155.406 144.926 155.451 144.812C155.496 144.701 155.554 144.6 155.625 144.511C155.699 144.424 155.79 144.354 155.9 144.3C156.009 144.247 156.145 144.22 156.308 144.22C156.446 144.22 156.573 144.247 156.686 144.3C156.802 144.354 156.902 144.426 156.984 144.518C157.067 144.609 157.131 144.715 157.175 144.836C157.222 144.959 157.246 145.089 157.246 145.228V145.469C157.246 145.607 157.219 145.738 157.165 145.86C157.114 145.983 157.042 146.09 156.951 146.182C156.859 146.273 156.752 146.345 156.629 146.396C156.507 146.45 156.376 146.477 156.238 146.477H156.224L156.157 146.065H156.261C156.344 146.065 156.421 146.049 156.492 146.018C156.566 145.987 156.629 145.944 156.683 145.891C156.737 145.837 156.779 145.773 156.81 145.7C156.842 145.628 156.857 145.551 156.857 145.469V145.228C156.857 145.145 156.845 145.067 156.82 144.993C156.796 144.922 156.76 144.859 156.713 144.806C156.669 144.752 156.614 144.71 156.549 144.679C156.484 144.647 156.411 144.632 156.328 144.632C156.21 144.632 156.113 144.658 156.037 144.712C155.963 144.766 155.901 144.836 155.849 144.923C155.798 145.012 155.754 145.113 155.719 145.224C155.685 145.338 155.65 145.453 155.612 145.569C155.576 145.687 155.535 145.802 155.488 145.914C155.441 146.028 155.381 146.128 155.307 146.215C155.233 146.305 155.141 146.376 155.029 146.43C154.92 146.483 154.783 146.51 154.621 146.51ZM154.691 149.59C154.552 149.59 154.422 149.564 154.299 149.51C154.176 149.459 154.069 149.387 153.978 149.296C153.886 149.204 153.814 149.097 153.76 148.974C153.709 148.852 153.683 148.721 153.683 148.583V148.308C153.683 148.17 153.709 148.039 153.76 147.916C153.814 147.794 153.886 147.686 153.978 147.595C154.069 147.503 154.176 147.431 154.299 147.377C154.422 147.326 154.552 147.3 154.691 147.3H156.238C156.376 147.3 156.507 147.326 156.629 147.377C156.752 147.431 156.859 147.503 156.951 147.595C157.042 147.686 157.114 147.794 157.165 147.916C157.219 148.039 157.246 148.17 157.246 148.308V148.583C157.246 148.721 157.219 148.852 157.165 148.974C157.114 149.097 157.042 149.204 156.951 149.296C156.859 149.387 156.752 149.459 156.629 149.51C156.507 149.564 156.376 149.59 156.238 149.59H155.431V147.712H154.667C154.585 147.712 154.507 147.728 154.433 147.759C154.362 147.79 154.299 147.833 154.246 147.886C154.192 147.94 154.15 148.002 154.118 148.074C154.087 148.147 154.071 148.225 154.071 148.308V148.583C154.071 148.665 154.087 148.742 154.118 148.814C154.15 148.887 154.192 148.951 154.246 149.004C154.299 149.058 154.362 149.1 154.433 149.132C154.507 149.163 154.585 149.179 154.667 149.179H154.895L154.828 149.59H154.691ZM156.261 149.179C156.344 149.179 156.421 149.163 156.492 149.132C156.566 149.1 156.629 149.058 156.683 149.004C156.737 148.951 156.779 148.887 156.81 148.814C156.842 148.742 156.857 148.665 156.857 148.583V148.308C156.857 148.225 156.842 148.147 156.81 148.074C156.779 148.002 156.737 147.94 156.683 147.886C156.629 147.833 156.566 147.79 156.492 147.759C156.421 147.728 156.344 147.712 156.261 147.712H155.752V149.179H156.261ZM153.75 152.292H156.261C156.344 152.292 156.421 152.277 156.492 152.246C156.566 152.214 156.629 152.172 156.683 152.118C156.737 152.065 156.779 152.001 156.81 151.927C156.842 151.856 156.857 151.779 156.857 151.696V151.422C156.857 151.339 156.842 151.261 156.81 151.187C156.779 151.116 156.737 151.054 156.683 151C156.629 150.946 156.566 150.904 156.492 150.873C156.421 150.842 156.344 150.826 156.261 150.826H153.75V150.414H157.179V150.551L156.83 150.776C156.958 150.869 157.058 150.987 157.132 151.127C157.208 151.27 157.246 151.425 157.246 151.593V151.696C157.246 151.835 157.219 151.965 157.165 152.088C157.114 152.211 157.042 152.318 156.951 152.41C156.859 152.501 156.752 152.573 156.629 152.624C156.507 152.677 156.376 152.704 156.238 152.704H153.75V152.292ZM153.75 154.777C153.75 154.652 153.773 154.533 153.82 154.422C153.867 154.312 153.932 154.217 154.015 154.134C154.097 154.054 154.193 153.989 154.302 153.94C154.412 153.893 154.529 153.869 154.654 153.869H156.787V153.253H157.179V153.869H158.002L158.069 154.281H157.179V155.152H156.787V154.281H154.634C154.565 154.281 154.5 154.294 154.44 154.318C154.382 154.345 154.33 154.381 154.286 154.425C154.241 154.47 154.205 154.522 154.179 154.583C154.154 154.643 154.142 154.708 154.142 154.777V155.152H153.75V154.777Z" fill="#CCFFDC"/>
</g>
<rect x="98.05" y="113.3" width="63.4" height="63.4" stroke="#4EBD7B" stroke-width="0.6"/>
<rect y="58.7903" width="189" height="40.2097" fill="url(#paint8_linear_135_4616)"/>
<path d="M129.795 144.588C129.975 144.797 129.951 145.113 129.741 145.293C129.532 145.473 129.216 145.449 129.036 145.239L129.795 144.588ZM59.6107 64.2287C59.6315 63.9534 59.8716 63.747 60.1469 63.7679L64.6341 64.1072C64.9095 64.1281 65.1158 64.3682 65.095 64.6435C65.0742 64.9189 64.8341 65.1252 64.5587 65.1044L60.5701 64.8027L60.2684 68.7913C60.2476 69.0667 60.0075 69.273 59.7322 69.2522C59.4568 69.2314 59.2505 68.9913 59.2713 68.7159L59.6107 64.2287ZM128.376 144.471C128.196 144.262 128.22 143.946 128.43 143.766C128.639 143.586 128.955 143.61 129.135 143.82L128.376 144.471ZM127.154 141.515C127.334 141.725 127.311 142.04 127.101 142.22C126.892 142.4 126.576 142.377 126.396 142.167L127.154 141.515ZM125.076 140.631C124.896 140.422 124.92 140.106 125.129 139.926C125.339 139.746 125.654 139.77 125.834 139.979L125.076 140.631ZM123.854 137.675C124.034 137.884 124.01 138.2 123.801 138.38C123.591 138.56 123.276 138.536 123.096 138.327L123.854 137.675ZM121.776 136.791C121.596 136.581 121.62 136.266 121.829 136.086C122.038 135.906 122.354 135.929 122.534 136.139L121.776 136.791ZM120.554 133.835C120.734 134.044 120.71 134.36 120.501 134.54C120.291 134.72 119.975 134.696 119.795 134.486L120.554 133.835ZM118.475 132.95C118.295 132.741 118.319 132.425 118.529 132.245C118.738 132.065 119.054 132.089 119.234 132.299L118.475 132.95ZM117.254 129.994C117.434 130.204 117.41 130.519 117.2 130.699C116.991 130.879 116.675 130.856 116.495 130.646L117.254 129.994ZM115.175 129.11C114.995 128.901 115.019 128.585 115.228 128.405C115.438 128.225 115.753 128.249 115.933 128.458L115.175 129.11ZM113.953 126.154C114.133 126.363 114.109 126.679 113.9 126.859C113.691 127.039 113.375 127.015 113.195 126.806L113.953 126.154ZM111.875 125.27C111.695 125.06 111.719 124.745 111.928 124.565C112.138 124.385 112.453 124.408 112.633 124.618L111.875 125.27ZM110.653 122.314C110.833 122.523 110.809 122.839 110.6 123.019C110.39 123.199 110.075 123.175 109.895 122.965L110.653 122.314ZM108.574 121.429C108.394 121.22 108.418 120.904 108.628 120.724C108.837 120.544 109.153 120.568 109.333 120.778L108.574 121.429ZM107.353 118.473C107.533 118.683 107.509 118.998 107.299 119.178C107.09 119.358 106.774 119.335 106.594 119.125L107.353 118.473ZM105.274 117.589C105.094 117.38 105.118 117.064 105.327 116.884C105.537 116.704 105.853 116.728 106.033 116.937L105.274 117.589ZM104.052 114.633C104.232 114.842 104.209 115.158 103.999 115.338C103.79 115.518 103.474 115.494 103.294 115.285L104.052 114.633ZM101.974 113.749C101.794 113.539 101.818 113.224 102.027 113.044C102.237 112.864 102.552 112.887 102.732 113.097L101.974 113.749ZM100.752 110.793C100.932 111.002 100.908 111.318 100.699 111.498C100.489 111.678 100.174 111.654 99.9937 111.444L100.752 110.793ZM98.6736 109.908C98.4936 109.699 98.5175 109.383 98.7269 109.203C98.9363 109.023 99.252 109.047 99.432 109.257L98.6736 109.908ZM97.4518 106.952C97.6318 107.162 97.6079 107.477 97.3985 107.657C97.189 107.837 96.8734 107.814 96.6934 107.604L97.4518 106.952ZM95.3733 106.068C95.1933 105.859 95.2172 105.543 95.4266 105.363C95.636 105.183 95.9517 105.207 96.1317 105.416L95.3733 106.068ZM94.1515 103.112C94.3315 103.321 94.3076 103.637 94.0982 103.817C93.8887 103.997 93.5731 103.973 93.3931 103.764L94.1515 103.112ZM92.073 102.228C91.893 102.018 91.9169 101.703 92.1263 101.523C92.3357 101.343 92.6514 101.366 92.8314 101.576L92.073 102.228ZM90.8512 99.2717C91.0312 99.4811 91.0073 99.7968 90.7979 99.9768C90.5884 100.157 90.2728 100.133 90.0928 99.9234L90.8512 99.2717ZM88.7727 98.3873C88.5927 98.1779 88.6166 97.8622 88.826 97.6822C89.0354 97.5022 89.3511 97.5261 89.5311 97.7355L88.7727 98.3873ZM87.5509 95.4313C87.7309 95.6408 87.707 95.9565 87.4976 96.1364C87.2881 96.3164 86.9725 96.2925 86.7925 96.0831L87.5509 95.4313ZM85.4724 94.547C85.2924 94.3375 85.3163 94.0219 85.5257 93.8419C85.7351 93.6619 86.0508 93.6858 86.2308 93.8952L85.4724 94.547ZM84.2506 91.591C84.4306 91.8004 84.4067 92.1161 84.1973 92.2961C83.9878 92.4761 83.6722 92.4522 83.4922 92.2428L84.2506 91.591ZM82.1721 90.7066C81.9921 90.4972 82.016 90.1815 82.2254 90.0015C82.4348 89.8216 82.7505 89.8454 82.9305 90.0549L82.1721 90.7066ZM80.9503 87.7507C81.1303 87.9601 81.1064 88.2758 80.897 88.4558C80.6875 88.6357 80.3719 88.6119 80.1919 88.4024L80.9503 87.7507ZM78.8718 86.8663C78.6918 86.6569 78.7157 86.3412 78.9251 86.1612C79.1345 85.9812 79.4502 86.0051 79.6302 86.2145L78.8718 86.8663ZM77.65 83.9103C77.83 84.1198 77.8061 84.4354 77.5967 84.6154C77.3872 84.7954 77.0716 84.7715 76.8916 84.5621L77.65 83.9103ZM75.5715 83.026C75.3915 82.8165 75.4154 82.5008 75.6248 82.3209C75.8342 82.1409 76.1499 82.1648 76.3299 82.3742L75.5715 83.026ZM74.3497 80.07C74.5297 80.2794 74.5058 80.5951 74.2964 80.7751C74.0869 80.9551 73.7713 80.9312 73.5913 80.7217L74.3497 80.07ZM72.2712 79.1856C72.0912 78.9762 72.1151 78.6605 72.3245 78.4805C72.5339 78.3005 72.8496 78.3244 73.0296 78.5339L72.2712 79.1856ZM71.0494 76.2296C71.2294 76.4391 71.2055 76.7548 70.9961 76.9347C70.7866 77.1147 70.471 77.0908 70.291 76.8814L71.0494 76.2296ZM68.9709 75.3453C68.7909 75.1358 68.8148 74.8202 69.0242 74.6402C69.2336 74.4602 69.5493 74.4841 69.7293 74.6935L68.9709 75.3453ZM67.7491 72.3893C67.9291 72.5987 67.9052 72.9144 67.6958 73.0944C67.4863 73.2744 67.1707 73.2505 66.9907 73.0411L67.7491 72.3893ZM65.6706 71.5049C65.4906 71.2955 65.5145 70.9798 65.7239 70.7998C65.9333 70.6199 66.249 70.6437 66.429 70.8532L65.6706 71.5049ZM64.4488 68.549C64.6288 68.7584 64.6049 69.0741 64.3955 69.2541C64.186 69.434 63.8704 69.4102 63.6904 69.2007L64.4488 68.549ZM62.3703 67.6646C62.1903 67.4552 62.2142 67.1395 62.4236 66.9595C62.633 66.7795 62.9487 66.8034 63.1287 67.0128L62.3703 67.6646ZM61.1485 64.7086C61.3285 64.9181 61.3046 65.2337 61.0952 65.4137C60.8857 65.5937 60.5701 65.5698 60.3901 65.3604L61.1485 64.7086ZM129.036 145.239L128.376 144.471L129.135 143.82L129.795 144.588L129.036 145.239ZM126.396 142.167L125.076 140.631L125.834 139.979L127.154 141.515L126.396 142.167ZM123.096 138.327L121.776 136.791L122.534 136.139L123.854 137.675L123.096 138.327ZM119.795 134.486L118.475 132.95L119.234 132.299L120.554 133.835L119.795 134.486ZM116.495 130.646L115.175 129.11L115.933 128.458L117.254 129.994L116.495 130.646ZM113.195 126.806L111.875 125.27L112.633 124.618L113.953 126.154L113.195 126.806ZM109.895 122.965L108.574 121.429L109.333 120.778L110.653 122.314L109.895 122.965ZM106.594 119.125L105.274 117.589L106.033 116.937L107.353 118.473L106.594 119.125ZM103.294 115.285L101.974 113.749L102.732 113.097L104.052 114.633L103.294 115.285ZM99.9937 111.444L98.6736 109.908L99.432 109.257L100.752 110.793L99.9937 111.444ZM96.6934 107.604L95.3733 106.068L96.1317 105.416L97.4518 106.952L96.6934 107.604ZM93.3931 103.764L92.073 102.228L92.8314 101.576L94.1515 103.112L93.3931 103.764ZM90.0928 99.9234L88.7727 98.3873L89.5311 97.7355L90.8512 99.2717L90.0928 99.9234ZM86.7925 96.0831L85.4724 94.547L86.2308 93.8952L87.5509 95.4313L86.7925 96.0831ZM83.4922 92.2428L82.1721 90.7066L82.9305 90.0549L84.2506 91.591L83.4922 92.2428ZM80.1919 88.4024L78.8718 86.8663L79.6302 86.2145L80.9503 87.7507L80.1919 88.4024ZM76.8916 84.5621L75.5715 83.026L76.3299 82.3742L77.65 83.9103L76.8916 84.5621ZM73.5913 80.7217L72.2712 79.1856L73.0296 78.5339L74.3497 80.07L73.5913 80.7217ZM70.291 76.8814L68.9709 75.3453L69.7293 74.6935L71.0494 76.2296L70.291 76.8814ZM66.9907 73.0411L65.6706 71.5049L66.429 70.8532L67.7491 72.3893L66.9907 73.0411ZM63.6904 69.2007L62.3703 67.6646L63.1287 67.0128L64.4488 68.549L63.6904 69.2007ZM60.3901 65.3604L59.73 64.5923L60.4884 63.9406L61.1485 64.7086L60.3901 65.3604Z" fill="url(#paint9_linear_135_4616)"/>
</g>
<defs>
<radialGradient id="paint0_radial_135_4616" cx="0" cy="0" r="1" gradientUnits="userSpaceOnUse" gradientTransform="translate(94.5 99.5) rotate(-90) scale(94.5 94.5)">
<stop stop-opacity="0"/>
<stop offset="1"/>
</radialGradient>
<linearGradient id="paint1_linear_135_4616" x1="94.5" y1="5.00001" x2="94.5" y2="30" gradientUnits="userSpaceOnUse">
<stop stop-opacity="0.61"/>
<stop offset="1" stop-opacity="0.89"/>
</linearGradient>
<linearGradient id="paint2_linear_135_4616" x1="189" y1="99.5001" x2="164" y2="99.5001" gradientUnits="userSpaceOnUse">
<stop stop-opacity="0.61"/>
<stop offset="1" stop-opacity="0.89"/>
</linearGradient>
<linearGradient id="paint3_linear_135_4616" x1="3.03794e-06" y1="99.5" x2="25" y2="99.5" gradientUnits="userSpaceOnUse">
<stop stop-opacity="0.61"/>
<stop offset="1" stop-opacity="0.89"/>
</linearGradient>
<linearGradient id="paint4_linear_135_4616" x1="164" y1="30.0001" x2="96.5" y2="100" gradientUnits="userSpaceOnUse">
<stop stop-opacity="0.59"/>
<stop offset="1" stop-opacity="0.13"/>
</linearGradient>
<linearGradient id="paint5_linear_135_4616" x1="25" y1="30.0001" x2="95" y2="97.5001" gradientUnits="userSpaceOnUse">
<stop stop-opacity="0.59"/>
<stop offset="1" stop-opacity="0.13"/>
</linearGradient>
<linearGradient id="paint6_linear_135_4616" x1="7.86805e-07" y1="23" x2="36" y2="23" gradientUnits="userSpaceOnUse">
<stop stop-opacity="0.12"/>
<stop offset="1" stop-color="#0B0A0A"/>
</linearGradient>
<linearGradient id="paint7_linear_135_4616" x1="171" y1="5" x2="171" y2="41" gradientUnits="userSpaceOnUse">
<stop stop-opacity="0.12"/>
<stop offset="1" stop-color="#0B0A0A"/>
</linearGradient>
<linearGradient id="paint8_linear_135_4616" x1="94.5" y1="58.7903" x2="94.5" y2="99" gradientUnits="userSpaceOnUse">
<stop stop-color="#00090F" stop-opacity="0"/>
<stop offset="1" stop-color="#00090F"/>
</linearGradient>
<linearGradient id="paint9_linear_135_4616" x1="94.7624" y1="64.2664" x2="94.7624" y2="144.914" gradientUnits="userSpaceOnUse">
<stop stop-color="#FFD666"/>
<stop offset="1" stop-color="#FFD666" stop-opacity="0"/>
</linearGradient>
<clipPath id="clip0_135_4616">
<rect width="189" height="182" fill="white"/>
</clipPath>
<clipPath id="clip1_135_4616">
<rect width="189" height="94" fill="white" transform="matrix(-1 0 0 -1 189 99)"/>
</clipPath>
<clipPath id="clip2_135_4616">
<rect width="189" height="189" fill="white" transform="matrix(-1 0 0 -1 189 194)"/>
</clipPath>
<clipPath id="clip3_135_4616">
<rect width="64" height="64" fill="white" transform="matrix(-1 0 0 -1 161 97.0001)"/>
</clipPath>
<clipPath id="clip4_135_4616">
<rect x="27.25" y="113" width="64" height="64" fill="white"/>
</clipPath>
<clipPath id="clip5_135_4616">
<rect x="97.75" y="113" width="64" height="64" fill="white"/>
</clipPath>
</defs>
</svg>
