<svg width="189" height="82" viewBox="0 0 189 82" fill="none" xmlns="http://www.w3.org/2000/svg">
<g clip-path="url(#clip0_135_5661)">
<g clip-path="url(#clip1_135_5661)">
<path fill-rule="evenodd" clip-rule="evenodd" d="M36 199L153 199L189 163L189 46.0001L168.291 38.0352L189 46L153 10.0001L36 10.0001L0 46.0001L1.52588e-05 163L36 199Z" fill="#006AFF" fill-opacity="0.8"/>
<g style="mix-blend-mode:luminosity">
<path fill-rule="evenodd" clip-rule="evenodd" d="M153 199L94.5 104.5L189 163L189 46L94.5 104.5L153 10L36 10L94.5 104.5L0 46L0 163L94.5 104.5L36 199L153 199Z" fill="url(#paint0_radial_135_5661)" fill-opacity="0.05"/>
<path d="M36 10L153 10L164 35.0001L25 35.0001L36 10Z" fill="url(#paint1_linear_135_5661)" fill-opacity="0.51"/>
<path d="M189 46L189 163L164 174L164 35.0001L189 46Z" fill="url(#paint2_linear_135_5661)" fill-opacity="0.51"/>
<path d="M4.80827e-07 163L5.59506e-06 46L25 35L25 174L4.80827e-07 163Z" fill="url(#paint3_linear_135_5661)" fill-opacity="0.51"/>
<path fill-rule="evenodd" clip-rule="evenodd" d="M164 174L25 174L25 35.0001L164 35.0001L164 174ZM164 174L176 155L176 54.0001L164 35.0001L145 23.0001L44 23.0001L25 35.0001L13 54.0001L13 155L25 174L44 186L145 186L164 174Z" fill="black" fill-opacity="0.05"/>
<path d="M164 35.0001L94.5 35.0001L94.5 104.5L164 104.5L164 35.0001Z" fill="url(#paint4_linear_135_5661)"/>
<path d="M94.5 104.5L94.5 35.0001L25 35.0001L25 104.5L94.5 104.5Z" fill="url(#paint5_linear_135_5661)"/>
<path fill-rule="evenodd" clip-rule="evenodd" d="M94 174H95L95 105L164 105V104L95 104V35.0001H94V104H25V105H94L94 174Z" fill="black" fill-opacity="0.1"/>
<path d="M36 10L0 46L25 35L36 10Z" fill="url(#paint6_linear_135_5661)" fill-opacity="0.33"/>
<path d="M189 46L153 10L164 35L189 46Z" fill="url(#paint7_linear_135_5661)" fill-opacity="0.33"/>
</g>
<g clip-path="url(#clip2_135_5661)">
<path d="M125.751 42.9766C125.751 43.1396 125.72 43.2925 125.657 43.4353C125.597 43.5782 125.513 43.7032 125.406 43.8103C125.299 43.9175 125.173 44.0023 125.028 44.0648C124.885 44.1251 124.732 44.1552 124.569 44.1552L123.481 44.1552L123.481 46.0001L123.049 46.0001L123.049 41.1987L124.569 41.1987C124.732 41.1987 124.885 41.23 125.028 41.2925C125.173 41.3527 125.299 41.4364 125.406 41.5436C125.513 41.6507 125.597 41.7768 125.657 41.9219C125.72 42.0648 125.751 42.2177 125.751 42.3806L125.751 42.9766ZM125.319 42.3806C125.319 42.2735 125.299 42.1742 125.259 42.0827C125.219 41.9889 125.163 41.9074 125.092 41.8382C125.022 41.7668 124.941 41.711 124.847 41.6708C124.756 41.6306 124.656 41.6106 124.549 41.6106L123.481 41.6106L123.481 43.7434L124.549 43.7434C124.656 43.7434 124.756 43.7233 124.847 43.6831C124.941 43.6429 125.022 43.5882 125.092 43.519C125.163 43.4498 125.219 43.3695 125.259 43.278C125.299 43.1842 125.319 43.0838 125.319 42.9766L125.319 42.3806ZM128.594 46.0001L128.366 45.6585C128.272 45.7813 128.155 45.8806 128.015 45.9565C127.874 46.0302 127.72 46.067 127.552 46.067L127.449 46.067C127.31 46.067 127.18 46.0414 127.057 45.99C126.934 45.9364 126.827 45.8639 126.735 45.7724C126.644 45.6809 126.571 45.5737 126.518 45.451C126.467 45.3282 126.441 45.1976 126.441 45.0592L126.441 45.0257C126.441 44.8873 126.467 44.7568 126.518 44.634C126.571 44.5112 126.644 44.4041 126.735 44.3126C126.827 44.221 126.934 44.1496 127.057 44.0983C127.18 44.0447 127.31 44.0179 127.449 44.0179L128.319 44.0179L128.319 43.4889C128.319 43.4063 128.304 43.3293 128.272 43.2579C128.241 43.1842 128.199 43.1206 128.145 43.067C128.092 43.0135 128.028 42.971 127.954 42.9398C127.883 42.9085 127.806 42.8929 127.723 42.8929L127.482 42.8929C127.4 42.8929 127.321 42.9085 127.248 42.9398C127.176 42.971 127.114 43.0135 127.06 43.067C127.007 43.1206 126.964 43.1842 126.933 43.2579C126.902 43.3293 126.886 43.4063 126.886 43.4889L126.886 43.6128L126.474 43.5458L126.474 43.5123C126.474 43.3739 126.5 43.2434 126.551 43.1206C126.605 42.9978 126.677 42.8907 126.769 42.7992C126.86 42.7077 126.968 42.6362 127.09 42.5849C127.213 42.5313 127.344 42.5045 127.482 42.5045L127.723 42.5045C127.862 42.5045 127.992 42.5313 128.115 42.5849C128.238 42.6362 128.345 42.7077 128.436 42.7992C128.528 42.8907 128.599 42.9978 128.651 43.1206C128.704 43.2434 128.731 43.3739 128.731 43.5123L128.731 46.0001L128.594 46.0001ZM128.319 44.3393L127.449 44.3393C127.366 44.3393 127.288 44.355 127.214 44.3862C127.143 44.4175 127.08 44.461 127.027 44.5168C126.973 44.5704 126.931 44.634 126.9 44.7077C126.868 44.7791 126.853 44.8561 126.853 44.9387L126.853 45.0827C126.853 45.1652 126.868 45.2434 126.9 45.317C126.931 45.3885 126.973 45.451 127.027 45.5045C127.08 45.5581 127.143 45.6005 127.214 45.6318C127.288 45.663 127.366 45.6786 127.449 45.6786L127.723 45.6786C127.806 45.6786 127.883 45.663 127.954 45.6318C128.028 45.6005 128.092 45.5581 128.145 45.5045C128.199 45.451 128.241 45.3885 128.272 45.317C128.304 45.2434 128.319 45.1652 128.319 45.0827L128.319 44.3393ZM131.912 45.1295C131.912 45.2679 131.884 45.3952 131.828 45.5112C131.772 45.6251 131.696 45.7233 131.6 45.8059C131.504 45.8885 131.393 45.9532 131.266 46.0001C131.141 46.0447 131.009 46.067 130.871 46.067L130.596 46.067C130.458 46.067 130.325 46.0414 130.198 45.99C130.073 45.9364 129.962 45.8639 129.866 45.7724C129.772 45.6809 129.696 45.5737 129.638 45.451C129.583 45.3282 129.555 45.1976 129.555 45.0592L129.555 44.9219L129.967 44.855L129.967 45.0827C129.967 45.1652 129.983 45.2434 130.017 45.317C130.052 45.3885 130.099 45.451 130.157 45.5045C130.215 45.5581 130.282 45.6005 130.358 45.6318C130.434 45.663 130.513 45.6786 130.596 45.6786L130.871 45.6786C130.953 45.6786 131.032 45.6664 131.108 45.6418C131.184 45.6172 131.251 45.5827 131.309 45.538C131.369 45.4911 131.416 45.4353 131.45 45.3706C131.485 45.3059 131.503 45.2322 131.503 45.1496C131.503 45.0268 131.477 44.9264 131.423 44.8483C131.369 44.7702 131.298 44.7054 131.209 44.6541C131.122 44.6005 131.021 44.557 130.907 44.5235C130.796 44.4878 130.681 44.4532 130.562 44.4197C130.444 44.384 130.328 44.3438 130.214 44.2992C130.103 44.2545 130.002 44.1965 129.913 44.1251C129.826 44.0514 129.756 43.9599 129.702 43.8505C129.648 43.7411 129.622 43.605 129.622 43.442C129.622 43.3036 129.648 43.1775 129.702 43.0637C129.756 42.9476 129.828 42.8483 129.92 42.7657C130.011 42.6831 130.117 42.6195 130.238 42.5748C130.36 42.528 130.491 42.5045 130.629 42.5045L130.871 42.5045C131.009 42.5045 131.14 42.5313 131.262 42.5849C131.385 42.6362 131.492 42.7077 131.584 42.7992C131.675 42.8907 131.747 42.9978 131.798 43.1206C131.852 43.2434 131.878 43.3739 131.878 43.5123L131.878 43.5257L131.467 43.5927L131.467 43.4889C131.467 43.4063 131.451 43.3293 131.42 43.2579C131.388 43.1842 131.346 43.1206 131.292 43.067C131.239 43.0135 131.175 42.971 131.102 42.9398C131.03 42.9085 130.953 42.8929 130.871 42.8929L130.629 42.8929C130.547 42.8929 130.469 42.9052 130.395 42.9297C130.324 42.9543 130.261 42.99 130.208 43.0369C130.154 43.0815 130.112 43.1362 130.08 43.201C130.049 43.2657 130.033 43.3393 130.033 43.4219C130.033 43.5402 130.06 43.6373 130.114 43.7132C130.167 43.7869 130.238 43.8494 130.325 43.9007C130.414 43.9521 130.515 43.9956 130.626 44.0313C130.74 44.0648 130.855 44.1005 130.971 44.1385C131.089 44.1742 131.204 44.2155 131.316 44.2623C131.43 44.3092 131.53 44.3695 131.617 44.4431C131.706 44.5168 131.778 44.6094 131.831 44.721C131.885 44.8304 131.912 44.9666 131.912 45.1295ZM133.951 46.0001C133.826 46.0001 133.708 45.9766 133.596 45.9297C133.487 45.8829 133.391 45.8181 133.308 45.7356C133.228 45.653 133.163 45.557 133.114 45.4476C133.067 45.3382 133.044 45.221 133.044 45.096L133.044 42.9632L132.427 42.9632L132.427 42.5715L133.044 42.5715L133.044 41.7478L133.455 41.6809L133.455 42.5715L134.326 42.5715L134.326 42.9632L133.455 42.9632L133.455 45.1161C133.455 45.1853 133.468 45.2501 133.492 45.3103C133.519 45.3684 133.555 45.4197 133.599 45.4643C133.644 45.509 133.696 45.5447 133.757 45.5715C133.817 45.596 133.882 45.6083 133.951 45.6083L134.326 45.6083L134.326 46.0001L133.951 46.0001Z" fill="#B8D7FF"/>
<path d="M154.112 60.1809C153.949 60.1809 153.796 60.1474 153.653 60.0804C153.51 60.0157 153.385 59.9275 153.278 59.8159C153.171 59.7065 153.086 59.5782 153.023 59.4309C152.963 59.2858 152.933 59.1318 152.933 58.9688L152.933 58.6239C152.933 58.461 152.963 58.3059 153.023 58.1585C153.086 58.0135 153.171 57.8851 153.278 57.7735C153.385 57.6641 153.51 57.576 153.653 57.509C153.796 57.4443 153.949 57.4119 154.112 57.4119L154.302 57.4119L154.373 57.8438L154.112 57.8438C154.004 57.8438 153.904 57.865 153.81 57.9074C153.719 57.9521 153.637 58.0112 153.566 58.0849C153.497 58.1585 153.442 58.2434 153.402 58.3393C153.362 58.4376 153.342 58.5402 153.342 58.6474L153.342 58.9487C153.342 59.0559 153.362 59.1574 153.402 59.2534C153.442 59.3494 153.497 59.4342 153.566 59.5079C153.637 59.5815 153.719 59.6396 153.81 59.682C153.904 59.7266 154.004 59.7489 154.112 59.7489L154.256 59.7489C154.421 59.7489 154.558 59.7166 154.667 59.6518C154.777 59.5871 154.869 59.5012 154.945 59.394C155.023 59.2869 155.089 59.1652 155.143 59.0291C155.196 58.8952 155.25 58.7568 155.304 58.6139C155.357 58.471 155.416 58.3315 155.481 58.1954C155.546 58.0614 155.626 57.9409 155.722 57.8338C155.82 57.7266 155.94 57.6407 156.08 57.576C156.221 57.5112 156.394 57.4789 156.599 57.4789L156.69 57.4789C156.853 57.4789 157.006 57.509 157.148 57.5693C157.291 57.6318 157.416 57.7166 157.523 57.8237C157.631 57.9309 157.714 58.0559 157.775 58.1987C157.837 58.3438 157.868 58.4978 157.868 58.6608L157.868 58.9688C157.868 59.1318 157.837 59.2847 157.775 59.4275C157.714 59.5704 157.631 59.6954 157.523 59.8025C157.416 59.9097 157.291 59.9934 157.148 60.0536C157.006 60.1161 156.853 60.1474 156.69 60.1474L156.566 60.1474L156.496 59.7155L156.69 59.7155C156.797 59.7155 156.896 59.6954 156.988 59.6552C157.081 59.615 157.163 59.5603 157.232 59.4911C157.301 59.4219 157.356 59.3405 157.396 59.2467C157.436 59.1552 157.456 59.0559 157.456 58.9487L157.456 58.6809C157.456 58.5737 157.436 58.4733 157.396 58.3795C157.356 58.288 157.301 58.2065 157.232 58.1351C157.163 58.0659 157.081 58.0112 156.988 57.971C156.896 57.9309 156.797 57.9108 156.69 57.9108L156.599 57.9108C156.445 57.9108 156.316 57.9431 156.211 58.0079C156.106 58.0726 156.016 58.1585 155.94 58.2657C155.866 58.3728 155.801 58.4934 155.746 58.6273C155.692 58.7635 155.636 58.903 155.578 59.0458C155.522 59.1887 155.46 59.3271 155.391 59.461C155.324 59.5972 155.24 59.7188 155.14 59.826C155.041 59.9331 154.921 60.019 154.778 60.0838C154.635 60.1485 154.461 60.1809 154.256 60.1809L154.112 60.1809ZM153 63.1273L153.348 62.8996C153.221 62.8059 153.119 62.6887 153.044 62.5481C152.97 62.4074 152.933 62.2534 152.933 62.086L152.933 61.9822C152.933 61.8438 152.959 61.7132 153.01 61.5905C153.064 61.4677 153.136 61.3606 153.228 61.269C153.319 61.1775 153.426 61.105 153.549 61.0514C153.672 61.0001 153.802 60.9744 153.941 60.9744L156.429 60.9744L156.429 61.3862L153.917 61.3862C153.835 61.3862 153.757 61.4018 153.683 61.4331C153.612 61.4643 153.549 61.5068 153.496 61.5603C153.442 61.6139 153.4 61.6764 153.368 61.7478C153.337 61.8215 153.321 61.8996 153.321 61.9822L153.321 62.2568C153.321 62.3393 153.337 62.4164 153.368 62.4878C153.4 62.5614 153.442 62.6251 153.496 62.6786C153.549 62.7322 153.612 62.7746 153.683 62.8059C153.757 62.8371 153.835 62.8527 153.917 62.8527L156.429 62.8527L156.429 63.2646L153 63.2646L153 63.1273ZM153 65.9666L155.511 65.9666C155.594 65.9666 155.671 65.951 155.742 65.9197C155.816 65.8885 155.879 65.846 155.933 65.7925C155.987 65.7389 156.029 65.6753 156.06 65.6016C156.092 65.5302 156.107 65.4532 156.107 65.3706L156.107 65.096C156.107 65.0135 156.092 64.9353 156.06 64.8617C156.029 64.7902 155.987 64.7277 155.933 64.6742C155.879 64.6206 155.816 64.5782 155.742 64.5469C155.671 64.5157 155.594 64.5001 155.511 64.5001L153 64.5001L153 64.0882L156.429 64.0882L156.429 64.2255L156.08 64.4498C156.208 64.5436 156.308 64.6608 156.382 64.8014C156.458 64.9443 156.496 65.0994 156.496 65.2668L156.496 65.3706C156.496 65.509 156.469 65.6396 156.415 65.7623C156.364 65.8851 156.292 65.9922 156.201 66.0838C156.109 66.1753 156.002 66.2467 155.879 66.2981C155.757 66.3516 155.626 66.3784 155.488 66.3784L153 66.3784L153 65.9666ZM157.41 68.3806C157.41 68.3114 157.396 68.2467 157.369 68.1864C157.345 68.1284 157.31 68.0771 157.266 68.0324C157.221 67.9878 157.169 67.9521 157.108 67.9253C157.048 67.9007 156.983 67.8885 156.914 67.8885L156.429 67.8885L156.429 68.6887L156.037 68.6887L156.037 67.8885L153 67.8885L153 67.4766L156.037 67.4766L156.037 66.8572L156.429 66.8572L156.429 67.4766L156.894 67.4766C157.019 67.4766 157.136 67.5001 157.246 67.5469C157.357 67.5938 157.454 67.6585 157.537 67.7411C157.619 67.8237 157.684 67.9197 157.731 68.0291C157.778 68.1385 157.801 68.2556 157.801 68.3806L157.801 68.759L157.41 68.759L157.41 68.3806ZM153 69.3081L157.801 69.3081L157.801 69.7199L153 69.7199L153 69.3081ZM153.941 72.9074C153.802 72.9074 153.672 72.8806 153.549 72.8271C153.426 72.7757 153.319 72.7043 153.228 72.6128C153.136 72.5213 153.064 72.4141 153.01 72.2914C152.959 72.1686 152.933 72.038 152.933 71.8996L152.933 71.6251C152.933 71.4867 152.959 71.3561 153.01 71.2333C153.064 71.1106 153.136 71.0034 153.228 70.9119C153.319 70.8204 153.426 70.7478 153.549 70.6943C153.672 70.6429 153.802 70.6172 153.941 70.6172L155.488 70.6172C155.626 70.6172 155.757 70.6429 155.879 70.6943C156.002 70.7478 156.109 70.8204 156.201 70.9119C156.292 71.0034 156.364 71.1106 156.415 71.2333C156.469 71.3561 156.496 71.4867 156.496 71.6251L156.496 71.8996C156.496 72.038 156.469 72.1686 156.415 72.2914C156.364 72.4141 156.292 72.5213 156.201 72.6128C156.109 72.7043 156.002 72.7757 155.879 72.8271C155.757 72.8806 155.626 72.9074 155.488 72.9074L153.941 72.9074ZM155.511 72.4956C155.594 72.4956 155.671 72.48 155.742 72.4487C155.816 72.4175 155.879 72.3751 155.933 72.3215C155.987 72.2679 156.029 72.2043 156.06 72.1306C156.092 72.0592 156.107 71.9822 156.107 71.8996L156.107 71.6251C156.107 71.5425 156.092 71.4643 156.06 71.3907C156.029 71.3193 155.987 71.2568 155.933 71.2032C155.879 71.1496 155.816 71.1072 155.742 71.076C155.671 71.0447 155.594 71.0291 155.511 71.0291L153.917 71.0291C153.835 71.0291 153.757 71.0447 153.683 71.076C153.612 71.1072 153.549 71.1496 153.496 71.2032C153.442 71.2568 153.4 71.3193 153.368 71.3907C153.337 71.4643 153.321 71.5425 153.321 71.6251L153.321 71.8996C153.321 71.9822 153.337 72.0592 153.368 72.1306C153.4 72.2043 153.442 72.2679 153.496 72.3215C153.549 72.3751 153.612 72.4175 153.683 72.4487C153.757 72.48 153.835 72.4956 153.917 72.4956L155.511 72.4956ZM153 76.6172L153 76.3929L155.585 75.5893L155.762 75.576L155.585 75.5626L153 74.759L153 74.5313L156.429 73.3862L156.429 73.8047L153.837 74.6217L153.66 74.6351L153.837 74.6485L156.429 75.4521L156.429 75.6998L153.837 76.5001L153.66 76.5135L153.837 76.5268L156.429 77.3438L156.429 77.7623L153 76.6172ZM153.941 80.5347C153.802 80.5347 153.672 80.5079 153.549 80.4543C153.426 80.403 153.319 80.3315 153.228 80.24C153.136 80.1485 153.064 80.0414 153.01 79.9186C152.959 79.7958 152.933 79.6652 152.933 79.5268L152.933 79.2523C152.933 79.1139 152.959 78.9833 153.01 78.8606C153.064 78.7378 153.136 78.6306 153.228 78.5391C153.319 78.4476 153.426 78.3751 153.549 78.3215C153.672 78.2702 153.802 78.2445 153.941 78.2445L155.488 78.2445C155.626 78.2445 155.757 78.2702 155.879 78.3215C156.002 78.3751 156.109 78.4476 156.201 78.5391C156.292 78.6306 156.364 78.7378 156.415 78.8606C156.469 78.9833 156.496 79.1139 156.496 79.2523L156.496 79.5268C156.496 79.6652 156.469 79.7958 156.415 79.9186C156.364 80.0414 156.292 80.1485 156.201 80.24C156.109 80.3315 156.002 80.403 155.879 80.4543C155.757 80.5079 155.626 80.5347 155.488 80.5347L154.681 80.5347L154.681 78.6563L153.917 78.6563C153.835 78.6563 153.757 78.6719 153.683 78.7032C153.612 78.7344 153.549 78.7768 153.496 78.8304C153.442 78.884 153.4 78.9465 153.368 79.0179C153.337 79.0916 153.321 79.1697 153.321 79.2523L153.321 79.5268C153.321 79.6094 153.337 79.6864 153.368 79.7579C153.4 79.8315 153.442 79.8952 153.496 79.9487C153.549 80.0023 153.612 80.0447 153.683 80.076C153.757 80.1072 153.835 80.1228 153.917 80.1228L154.145 80.1228L154.078 80.5347L153.941 80.5347ZM155.511 80.1228C155.594 80.1228 155.671 80.1072 155.742 80.076C155.816 80.0447 155.879 80.0023 155.933 79.9487C155.987 79.8952 156.029 79.8315 156.06 79.7579C156.092 79.6864 156.107 79.6094 156.107 79.5268L156.107 79.2523C156.107 79.1697 156.092 79.0916 156.06 79.0179C156.029 78.9465 155.987 78.884 155.933 78.8304C155.879 78.7768 155.816 78.7344 155.742 78.7032C155.671 78.6719 155.594 78.6563 155.511 78.6563L155.002 78.6563L155.002 80.1228L155.511 80.1228ZM156.037 82.3661C156.037 82.2835 156.021 82.2054 155.99 82.1318C155.959 82.0603 155.916 81.9978 155.863 81.9443C155.809 81.8907 155.746 81.8483 155.672 81.817C155.6 81.7858 155.523 81.7702 155.441 81.7702L153 81.7702L153 81.3583L156.429 81.3583L156.429 81.4956L156.08 81.7199C156.208 81.8137 156.308 81.9309 156.382 82.0715C156.458 82.2143 156.496 82.3695 156.496 82.5369L156.496 82.778L156.037 82.778L156.037 82.3661Z" fill="#B8D7FF"/>
<path d="M102.703 76.1887L105 76.1887L105 76.6206L102.71 76.6206L100.199 77.8628L100.199 77.3974L102.194 76.4097L100.199 75.4219L100.199 74.9565L102.703 76.1887ZM105 72.4621L104.652 72.6898C104.779 72.7835 104.881 72.9007 104.956 73.0414C105.03 73.182 105.067 73.336 105.067 73.5034L105.067 73.6072C105.067 73.7456 105.041 73.8762 104.99 73.9989C104.936 74.1217 104.864 74.2289 104.772 74.3204C104.681 74.4119 104.574 74.4844 104.451 74.538C104.328 74.5893 104.198 74.615 104.059 74.615L101.571 74.615L101.571 74.2032L104.083 74.2032C104.165 74.2032 104.243 74.1876 104.317 74.1563C104.388 74.1251 104.451 74.0827 104.504 74.0291C104.558 73.9755 104.6 73.913 104.632 73.8416C104.663 73.7679 104.679 73.6898 104.679 73.6072L104.679 73.3327C104.679 73.2501 104.663 73.1731 104.632 73.1016C104.6 73.028 104.558 72.9643 104.504 72.9108C104.451 72.8572 104.388 72.8148 104.317 72.7835C104.243 72.7523 104.165 72.7367 104.083 72.7367L101.571 72.7367L101.571 72.3248L105 72.3248L105 72.4621ZM104.059 69.211C104.198 69.211 104.328 69.2378 104.451 69.2914C104.574 69.3427 104.681 69.4141 104.772 69.5056C104.864 69.5972 104.936 69.7043 104.99 69.8271C105.041 69.9498 105.067 70.0804 105.067 70.2188L105.067 70.4934C105.067 70.6318 105.041 70.7623 104.99 70.8851C104.936 71.0079 104.864 71.115 104.772 71.2065C104.681 71.2981 104.574 71.3706 104.451 71.4242C104.328 71.4755 104.198 71.5012 104.059 71.5012L102.512 71.5012C102.374 71.5012 102.243 71.4755 102.121 71.4242C101.998 71.3706 101.891 71.2981 101.799 71.2065C101.708 71.115 101.636 71.0079 101.585 70.8851C101.531 70.7623 101.504 70.6318 101.504 70.4934L101.504 70.2188C101.504 70.0804 101.531 69.9498 101.585 69.8271C101.636 69.7043 101.708 69.5972 101.799 69.5056C101.891 69.4141 101.998 69.3427 102.121 69.2914C102.243 69.2378 102.374 69.211 102.512 69.211L102.65 69.211L102.717 69.6228L102.489 69.6228C102.406 69.6228 102.329 69.6385 102.258 69.6697C102.184 69.701 102.121 69.7434 102.067 69.7969C102.013 69.8505 101.971 69.9141 101.94 69.9878C101.908 70.0592 101.893 70.1362 101.893 70.2188L101.893 70.4934C101.893 70.576 101.908 70.6541 101.94 70.7277C101.971 70.7992 102.013 70.8617 102.067 70.9152C102.121 70.9688 102.184 71.0112 102.258 71.0425C102.329 71.0737 102.406 71.0893 102.489 71.0893L104.083 71.0893C104.165 71.0893 104.243 71.0737 104.317 71.0425C104.388 71.0112 104.451 70.9688 104.504 70.9152C104.558 70.8617 104.6 70.7992 104.632 70.7277C104.663 70.6541 104.679 70.576 104.679 70.4934L104.679 70.2188C104.679 70.1362 104.663 70.0592 104.632 69.9878C104.6 69.9141 104.558 69.8505 104.504 69.7969C104.451 69.7434 104.388 69.701 104.317 69.6697C104.243 69.6385 104.165 69.6228 104.083 69.6228L103.855 69.6228L103.922 69.211L104.059 69.211ZM104.059 66.0972C104.198 66.0972 104.328 66.1239 104.451 66.1775C104.574 66.2289 104.681 66.3003 104.772 66.3918C104.864 66.4833 104.936 66.5905 104.99 66.7132C105.041 66.836 105.067 66.9666 105.067 67.105L105.067 67.3795C105.067 67.5179 105.041 67.6485 104.99 67.7713C104.936 67.894 104.864 68.0012 104.772 68.0927C104.681 68.1842 104.574 68.2568 104.451 68.3103C104.328 68.3617 104.198 68.3873 104.059 68.3873L102.512 68.3873C102.374 68.3873 102.243 68.3617 102.121 68.3103C101.998 68.2568 101.891 68.1842 101.799 68.0927C101.708 68.0012 101.636 67.894 101.585 67.7713C101.531 67.6485 101.504 67.5179 101.504 67.3795L101.504 67.105C101.504 66.9666 101.531 66.836 101.585 66.7132C101.636 66.5905 101.708 66.4833 101.799 66.3918C101.891 66.3003 101.998 66.2289 102.121 66.1775C102.243 66.1239 102.374 66.0972 102.512 66.0972L102.65 66.0972L102.717 66.509L102.489 66.509C102.406 66.509 102.329 66.5246 102.258 66.5559C102.184 66.5871 102.121 66.6295 102.067 66.6831C102.013 66.7367 101.971 66.8003 101.94 66.8739C101.908 66.9454 101.893 67.0224 101.893 67.105L101.893 67.3795C101.893 67.4621 101.908 67.5402 101.94 67.6139C101.971 67.6853 102.013 67.7478 102.067 67.8014C102.121 67.855 102.184 67.8974 102.258 67.9286C102.329 67.9599 102.406 67.9755 102.489 67.9755L104.083 67.9755C104.165 67.9755 104.243 67.9599 104.317 67.9286C104.388 67.8974 104.451 67.855 104.504 67.8014C104.558 67.7478 104.6 67.6853 104.632 67.6139C104.663 67.5402 104.679 67.4621 104.679 67.3795L104.679 67.105C104.679 67.0224 104.663 66.9454 104.632 66.8739C104.6 66.8003 104.558 66.7367 104.504 66.6831C104.451 66.6295 104.388 66.5871 104.317 66.5559C104.243 66.5246 104.165 66.509 104.083 66.509L103.855 66.509L103.922 66.0972L104.059 66.0972ZM105 63.1206L104.658 63.3483C104.781 63.442 104.881 63.5592 104.956 63.6998C105.03 63.8405 105.067 63.9945 105.067 64.1619L105.067 64.2657C105.067 64.4041 105.041 64.5347 104.99 64.6574C104.936 64.7802 104.864 64.8873 104.772 64.9789C104.681 65.0704 104.574 65.1429 104.451 65.1965C104.328 65.2478 104.198 65.2735 104.059 65.2735L104.026 65.2735C103.887 65.2735 103.757 65.2478 103.634 65.1965C103.511 65.1429 103.404 65.0704 103.313 64.9789C103.221 64.8873 103.15 64.7802 103.098 64.6574C103.045 64.5347 103.018 64.4041 103.018 64.2657L103.018 63.3952L102.489 63.3952C102.406 63.3952 102.329 63.4108 102.258 63.442C102.184 63.4733 102.121 63.5157 102.067 63.5693C102.013 63.6228 101.971 63.6864 101.94 63.7601C101.908 63.8315 101.893 63.9085 101.893 63.9911L101.893 64.2322C101.893 64.3148 101.908 64.3929 101.94 64.4666C101.971 64.538 102.013 64.6005 102.067 64.6541C102.121 64.7077 102.184 64.7501 102.258 64.7813C102.329 64.8126 102.406 64.8282 102.489 64.8282L102.613 64.8282L102.546 65.24L102.512 65.24C102.374 65.24 102.243 65.2143 102.121 65.163C101.998 65.1094 101.891 65.0369 101.799 64.9454C101.708 64.8539 101.636 64.7467 101.585 64.6239C101.531 64.5012 101.504 64.3706 101.504 64.2322L101.504 63.9911C101.504 63.8527 101.531 63.7222 101.585 63.5994C101.636 63.4766 101.708 63.3695 101.799 63.278C101.891 63.1864 101.998 63.115 102.121 63.0637C102.243 63.0101 102.374 62.9833 102.512 62.9833L105 62.9833L105 63.1206ZM103.339 63.3952L103.339 64.2657C103.339 64.3483 103.355 64.4264 103.386 64.5001C103.417 64.5715 103.461 64.634 103.517 64.6876C103.57 64.7411 103.634 64.7835 103.708 64.8148C103.779 64.846 103.856 64.8617 103.939 64.8617L104.083 64.8617C104.165 64.8617 104.243 64.846 104.317 64.8148C104.388 64.7835 104.451 64.7411 104.504 64.6876C104.558 64.634 104.6 64.5715 104.632 64.5001C104.663 64.4264 104.679 64.3483 104.679 64.2657L104.679 63.9911C104.679 63.9085 104.663 63.8315 104.632 63.7601C104.6 63.6864 104.558 63.6228 104.504 63.5693C104.451 63.5157 104.388 63.4733 104.317 63.442C104.243 63.4108 104.165 63.3952 104.083 63.3952L103.339 63.3952Z" fill="#B8D7FF"/>
</g>
<g clip-path="url(#clip3_135_5661)">
<path d="M52.7511 42.9766C52.7511 43.1396 52.7199 43.2925 52.6574 43.4353C52.5971 43.5782 52.5134 43.7032 52.4062 43.8103C52.2991 43.9175 52.173 44.0023 52.0279 44.0648C51.885 44.1251 51.7321 44.1552 51.5692 44.1552L50.481 44.1552L50.481 46.0001L50.0491 46.0001L50.0491 41.1987L51.5692 41.1987C51.7321 41.1987 51.885 41.23 52.0279 41.2925C52.173 41.3527 52.2991 41.4364 52.4062 41.5436C52.5134 41.6507 52.5971 41.7768 52.6574 41.9219C52.7199 42.0648 52.7511 42.2177 52.7511 42.3806L52.7511 42.9766ZM52.3192 42.3806C52.3192 42.2735 52.2991 42.1742 52.2589 42.0827C52.2187 41.9889 52.1629 41.9074 52.0915 41.8382C52.0223 41.7668 51.9408 41.711 51.8471 41.6708C51.7556 41.6306 51.6562 41.6106 51.5491 41.6106L50.481 41.6106L50.481 43.7434L51.5491 43.7434C51.6562 43.7434 51.7556 43.7233 51.8471 43.6831C51.9408 43.6429 52.0223 43.5882 52.0915 43.519C52.1629 43.4498 52.2187 43.3695 52.2589 43.278C52.2991 43.1842 52.3192 43.0838 52.3192 42.9766L52.3192 42.3806ZM54.4487 42.9632C54.3661 42.9632 54.2879 42.9789 54.2143 43.0101C54.1429 43.0414 54.0804 43.0838 54.0268 43.1373C53.9732 43.1909 53.9308 43.2545 53.8996 43.3282C53.8683 43.3996 53.8527 43.4766 53.8527 43.5592L53.8527 46.0001L53.4408 46.0001L53.4408 42.5715L53.5781 42.5715L53.8025 42.9197C53.8962 42.7925 54.0134 42.692 54.154 42.6184C54.2969 42.5425 54.452 42.5045 54.6194 42.5045L54.8605 42.5045L54.8605 42.9632L54.4487 42.9632ZM57.6998 45.0592C57.6998 45.1976 57.673 45.3282 57.6194 45.451C57.5681 45.5737 57.4967 45.6809 57.4051 45.7724C57.3136 45.8639 57.2065 45.9364 57.0837 45.99C56.9609 46.0414 56.8304 46.067 56.692 46.067L56.4174 46.067C56.279 46.067 56.1484 46.0414 56.0257 45.99C55.9029 45.9364 55.7958 45.8639 55.7042 45.7724C55.6127 45.6809 55.5402 45.5737 55.4866 45.451C55.4353 45.3282 55.4096 45.1976 55.4096 45.0592L55.4096 43.5123C55.4096 43.3739 55.4353 43.2434 55.4866 43.1206C55.5402 42.9978 55.6127 42.8907 55.7042 42.7992C55.7958 42.7077 55.9029 42.6362 56.0257 42.5849C56.1484 42.5313 56.279 42.5045 56.4174 42.5045L56.692 42.5045C56.8304 42.5045 56.9609 42.5313 57.0837 42.5849C57.2065 42.6362 57.3136 42.7077 57.4051 42.7992C57.4967 42.8907 57.5681 42.9978 57.6194 43.1206C57.673 43.2434 57.6998 43.3739 57.6998 43.5123L57.6998 44.3193L55.8214 44.3193L55.8214 45.0827C55.8214 45.1652 55.8371 45.2434 55.8683 45.317C55.8996 45.3885 55.942 45.451 55.9955 45.5045C56.0491 45.5581 56.1116 45.6005 56.183 45.6318C56.2567 45.663 56.3348 45.6786 56.4174 45.6786L56.692 45.6786C56.7746 45.6786 56.8516 45.663 56.923 45.6318C56.9967 45.6005 57.0603 45.5581 57.1138 45.5045C57.1674 45.451 57.2098 45.3885 57.2411 45.317C57.2723 45.2434 57.2879 45.1652 57.2879 45.0827L57.2879 44.855L57.6998 44.9219L57.6998 45.0592ZM57.2879 43.4889C57.2879 43.4063 57.2723 43.3293 57.2411 43.2579C57.2098 43.1842 57.1674 43.1206 57.1138 43.067C57.0603 43.0135 56.9967 42.971 56.923 42.9398C56.8516 42.9085 56.7746 42.8929 56.692 42.8929L56.4174 42.8929C56.3348 42.8929 56.2567 42.9085 56.183 42.9398C56.1116 42.971 56.0491 43.0135 55.9955 43.067C55.942 43.1206 55.8996 43.1842 55.8683 43.2579C55.8371 43.3293 55.8214 43.4063 55.8214 43.4889L55.8214 43.9978L57.2879 43.9978L57.2879 43.4889ZM60.8806 45.1295C60.8806 45.2679 60.8527 45.3952 60.7969 45.5112C60.7411 45.6251 60.6652 45.7233 60.5692 45.8059C60.4732 45.8885 60.3616 45.9532 60.2344 46.0001C60.1094 46.0447 59.9777 46.067 59.8393 46.067L59.5647 46.067C59.4263 46.067 59.2935 46.0414 59.1663 45.99C59.0413 45.9364 58.9308 45.8639 58.8348 45.7724C58.7411 45.6809 58.6652 45.5737 58.6071 45.451C58.5513 45.3282 58.5234 45.1976 58.5234 45.0592L58.5234 44.9219L58.9353 44.855L58.9353 45.0827C58.9353 45.1652 58.952 45.2434 58.9855 45.317C59.0212 45.3885 59.0681 45.451 59.1261 45.5045C59.1842 45.5581 59.2511 45.6005 59.327 45.6318C59.4029 45.663 59.4821 45.6786 59.5647 45.6786L59.8393 45.6786C59.9219 45.6786 60.0011 45.6664 60.077 45.6418C60.1529 45.6172 60.2199 45.5827 60.2779 45.538C60.3382 45.4911 60.385 45.4353 60.4185 45.3706C60.4542 45.3059 60.4721 45.2322 60.4721 45.1496C60.4721 45.0268 60.4453 44.9264 60.3917 44.8483C60.3382 44.7702 60.2667 44.7054 60.1775 44.6541C60.0904 44.6005 59.99 44.557 59.8761 44.5235C59.7645 44.4878 59.6496 44.4532 59.5312 44.4197C59.4129 44.384 59.2969 44.3438 59.183 44.2992C59.0714 44.2545 58.971 44.1965 58.8817 44.1251C58.7946 44.0514 58.7243 43.9599 58.6708 43.8505C58.6172 43.7411 58.5904 43.605 58.5904 43.442C58.5904 43.3036 58.6172 43.1775 58.6708 43.0637C58.7243 42.9476 58.7969 42.8483 58.8884 42.7657C58.9799 42.6831 59.0859 42.6195 59.2065 42.5748C59.3292 42.528 59.4598 42.5045 59.5982 42.5045L59.8393 42.5045C59.9777 42.5045 60.1083 42.5313 60.231 42.5849C60.3538 42.6362 60.4609 42.7077 60.5525 42.7992C60.644 42.8907 60.7154 42.9978 60.7667 43.1206C60.8203 43.2434 60.8471 43.3739 60.8471 43.5123L60.8471 43.5257L60.4353 43.5927L60.4353 43.4889C60.4353 43.4063 60.4196 43.3293 60.3884 43.2579C60.3571 43.1842 60.3147 43.1206 60.2612 43.067C60.2076 43.0135 60.144 42.971 60.0703 42.9398C59.9989 42.9085 59.9219 42.8929 59.8393 42.8929L59.5982 42.8929C59.5156 42.8929 59.4375 42.9052 59.3638 42.9297C59.2924 42.9543 59.2299 42.99 59.1763 43.0369C59.1228 43.0815 59.0804 43.1362 59.0491 43.201C59.0179 43.2657 59.0022 43.3393 59.0022 43.4219C59.0022 43.5402 59.029 43.6373 59.0826 43.7132C59.1362 43.7869 59.2065 43.8494 59.2935 43.9007C59.3828 43.9521 59.4833 43.9956 59.5949 44.0313C59.7087 44.0648 59.8237 44.1005 59.9397 44.1385C60.058 44.1742 60.173 44.2155 60.2846 44.2623C60.3984 44.3092 60.4989 44.3695 60.5859 44.4431C60.6752 44.5168 60.7467 44.6094 60.8002 44.721C60.8538 44.8304 60.8806 44.9666 60.8806 45.1295ZM63.9609 45.0592C63.9609 45.1976 63.9342 45.3282 63.8806 45.451C63.8292 45.5737 63.7578 45.6809 63.6663 45.7724C63.5748 45.8639 63.4676 45.9364 63.3449 45.99C63.2221 46.0414 63.0915 46.067 62.9531 46.067L62.6786 46.067C62.5402 46.067 62.4096 46.0414 62.2868 45.99C62.1641 45.9364 62.0569 45.8639 61.9654 45.7724C61.8739 45.6809 61.8013 45.5737 61.7478 45.451C61.6964 45.3282 61.6708 45.1976 61.6708 45.0592L61.6708 43.5123C61.6708 43.3739 61.6964 43.2434 61.7478 43.1206C61.8013 42.9978 61.8739 42.8907 61.9654 42.7992C62.0569 42.7077 62.1641 42.6362 62.2868 42.5849C62.4096 42.5313 62.5402 42.5045 62.6786 42.5045L62.9531 42.5045C63.0915 42.5045 63.2221 42.5313 63.3449 42.5849C63.4676 42.6362 63.5748 42.7077 63.6663 42.7992C63.7578 42.8907 63.8292 42.9978 63.8806 43.1206C63.9342 43.2434 63.9609 43.3739 63.9609 43.5123L63.9609 44.3193L62.0826 44.3193L62.0826 45.0827C62.0826 45.1652 62.0982 45.2434 62.1295 45.317C62.1607 45.3885 62.2031 45.451 62.2567 45.5045C62.3103 45.5581 62.3728 45.6005 62.4442 45.6318C62.5179 45.663 62.596 45.6786 62.6786 45.6786L62.9531 45.6786C63.0357 45.6786 63.1127 45.663 63.1842 45.6318C63.2578 45.6005 63.3214 45.5581 63.375 45.5045C63.4286 45.451 63.471 45.3885 63.5022 45.317C63.5335 45.2434 63.5491 45.1652 63.5491 45.0827L63.5491 44.855L63.9609 44.9219L63.9609 45.0592ZM63.5491 43.4889C63.5491 43.4063 63.5335 43.3293 63.5022 43.2579C63.471 43.1842 63.4286 43.1206 63.375 43.067C63.3214 43.0135 63.2578 42.971 63.1842 42.9398C63.1127 42.9085 63.0357 42.8929 62.9531 42.8929L62.6786 42.8929C62.596 42.8929 62.5179 42.9085 62.4442 42.9398C62.3728 42.971 62.3103 43.0135 62.2567 43.067C62.2031 43.1206 62.1607 43.1842 62.1295 43.2579C62.0982 43.3293 62.0826 43.4063 62.0826 43.4889L62.0826 43.9978L63.5491 43.9978L63.5491 43.4889ZM66.6629 46.0001L66.6629 43.4889C66.6629 43.4063 66.6473 43.3293 66.6161 43.2579C66.5848 43.1842 66.5424 43.1206 66.4888 43.067C66.4353 43.0135 66.3717 42.971 66.298 42.9398C66.2266 42.9085 66.1496 42.8929 66.067 42.8929L65.7924 42.8929C65.7098 42.8929 65.6317 42.9085 65.558 42.9398C65.4866 42.971 65.4241 43.0135 65.3705 43.067C65.317 43.1206 65.2746 43.1842 65.2433 43.2579C65.2121 43.3293 65.1964 43.4063 65.1964 43.4889L65.1964 46.0001L64.7846 46.0001L64.7846 42.5715L64.9219 42.5715L65.1462 42.9197C65.24 42.7925 65.3571 42.692 65.4978 42.6184C65.6406 42.5425 65.7958 42.5045 65.9632 42.5045L66.067 42.5045C66.2054 42.5045 66.3359 42.5313 66.4587 42.5849C66.5815 42.6362 66.6886 42.7077 66.7801 42.7992C66.8717 42.8907 66.9431 42.9978 66.9944 43.1206C67.048 43.2434 67.0748 43.3739 67.0748 43.5123L67.0748 46.0001L66.6629 46.0001ZM69.1473 46.0001C69.0223 46.0001 68.904 45.9766 68.7924 45.9298C68.683 45.8829 68.5871 45.8181 68.5045 45.7356C68.4241 45.653 68.3594 45.557 68.3103 45.4476C68.2634 45.3382 68.24 45.221 68.24 45.096L68.24 42.9632L67.6239 42.9632L67.6239 42.5715L68.24 42.5715L68.24 41.7478L68.6518 41.6809L68.6518 42.5715L69.5223 42.5715L69.5223 42.9632L68.6518 42.9632L68.6518 45.1161C68.6518 45.1853 68.6641 45.2501 68.6886 45.3103C68.7154 45.3684 68.7511 45.4197 68.7958 45.4643C68.8404 45.509 68.8929 45.5447 68.9531 45.5715C69.0134 45.596 69.0781 45.6083 69.1473 45.6083L69.5223 45.6083L69.5223 46.0001L69.1473 46.0001Z" fill="#B8D7FF"/>
<path d="M85.1116 65.7021C84.9487 65.7021 84.7958 65.6708 84.6529 65.6083C84.51 65.5481 84.385 65.4643 84.2779 65.3572C84.1708 65.2501 84.0859 65.1251 84.0234 64.9822C83.9632 64.8393 83.933 64.6864 83.933 64.5235L83.933 64.3862C83.933 64.2233 83.9632 64.0693 84.0234 63.9242C84.0859 63.7813 84.1708 63.6563 84.2779 63.5492C84.385 63.442 84.51 63.3572 84.6529 63.2947C84.7958 63.2344 84.9487 63.2043 85.1116 63.2043L85.3025 63.2043L85.3728 63.6362L85.1116 63.6362C85.0045 63.6362 84.904 63.6563 84.8103 63.6965C84.7188 63.7367 84.6373 63.7914 84.5658 63.8606C84.4967 63.932 84.442 64.0135 84.4018 64.105C84.3616 64.1987 84.3415 64.2992 84.3415 64.4063L84.3415 64.5034C84.3415 64.6083 84.3616 64.7077 84.4018 64.8014C84.442 64.8952 84.4967 64.9766 84.5658 65.0458C84.6373 65.115 84.7188 65.1697 84.8103 65.2099C84.904 65.2501 85.0045 65.2702 85.1116 65.2702L88.8013 65.2702L88.8013 65.7021L85.1116 65.7021ZM84 68.6786L84.3482 68.451C84.221 68.3572 84.1194 68.24 84.0435 68.0994C83.9699 67.9588 83.933 67.8047 83.933 67.6373L83.933 67.5335C83.933 67.3952 83.9587 67.2646 84.01 67.1418C84.0636 67.019 84.1362 66.9119 84.2277 66.8204C84.3192 66.7289 84.4263 66.6563 84.5491 66.6027C84.6719 66.5514 84.8025 66.5257 84.9408 66.5257L87.4286 66.5257L87.4286 66.9376L84.9174 66.9376C84.8348 66.9376 84.7567 66.9532 84.683 66.9844C84.6116 67.0157 84.5491 67.0581 84.4955 67.1117C84.442 67.1652 84.3996 67.2277 84.3683 67.2992C84.3371 67.3728 84.3214 67.451 84.3214 67.5335L84.3214 67.8081C84.3214 67.8907 84.3371 67.9677 84.3683 68.0391C84.3996 68.1128 84.442 68.1764 84.4955 68.23C84.5491 68.2835 84.6116 68.326 84.683 68.3572C84.7567 68.3885 84.8348 68.4041 84.9174 68.4041L87.4286 68.4041L87.4286 68.8159L84 68.8159L84 68.6786ZM88.2522 69.7434L88.8013 69.7434L88.8013 70.2222L88.2522 70.2222L88.2522 69.7434ZM84 69.7768L87.4286 69.7768L87.4286 70.1887L84 70.1887L84 69.7768ZM84.9408 73.4431C84.8025 73.4431 84.6719 73.4164 84.5491 73.3628C84.4263 73.3114 84.3192 73.24 84.2277 73.1485C84.1362 73.057 84.0636 72.9498 84.01 72.8271C83.9587 72.7043 83.933 72.5737 83.933 72.4353L83.933 72.1608C83.933 72.0224 83.9587 71.8918 84.01 71.769C84.0636 71.6463 84.1362 71.5391 84.2277 71.4476C84.3192 71.3561 84.4263 71.2835 84.5491 71.23C84.6719 71.1786 84.8025 71.153 84.9408 71.153L86.4877 71.153C86.6261 71.153 86.7567 71.1786 86.8795 71.23C87.0022 71.2835 87.1094 71.3561 87.2009 71.4476C87.2924 71.5391 87.3638 71.6463 87.4152 71.769C87.4688 71.8918 87.4955 72.0224 87.4955 72.1608L87.4955 72.4353C87.4955 72.5737 87.4688 72.7043 87.4152 72.8271C87.3638 72.9498 87.2924 73.057 87.2009 73.1485C87.1094 73.24 87.0022 73.3114 86.8795 73.3628C86.7567 73.4164 86.6261 73.4431 86.4877 73.4431L86.3504 73.4431L86.2835 73.0313L86.5112 73.0313C86.5938 73.0313 86.6708 73.0157 86.7422 72.9844C86.8158 72.9532 86.8795 72.9108 86.933 72.8572C86.9866 72.8036 87.029 72.74 87.0603 72.6664C87.0915 72.5949 87.1071 72.5179 87.1071 72.4353L87.1071 72.1608C87.1071 72.0782 87.0915 72.0001 87.0603 71.9264C87.029 71.855 86.9866 71.7925 86.933 71.7389C86.8795 71.6853 86.8158 71.6429 86.7422 71.6117C86.6708 71.5804 86.5938 71.5648 86.5112 71.5648L84.9174 71.5648C84.8348 71.5648 84.7567 71.5804 84.683 71.6117C84.6116 71.6429 84.5491 71.6853 84.4955 71.7389C84.442 71.7925 84.3996 71.855 84.3683 71.9264C84.3371 72.0001 84.3214 72.0782 84.3214 72.1608L84.3214 72.4353C84.3214 72.5179 84.3371 72.5949 84.3683 72.6664C84.3996 72.74 84.442 72.8036 84.4955 72.8572C84.5491 72.9108 84.6116 72.9532 84.683 72.9844C84.7567 73.0157 84.8348 73.0313 84.9174 73.0313L85.1451 73.0313L85.0781 73.4431L84.9408 73.4431ZM84.9408 76.557C84.8025 76.557 84.6719 76.5302 84.5491 76.4766C84.4263 76.4253 84.3192 76.3539 84.2277 76.2623C84.1362 76.1708 84.0636 76.0637 84.01 75.9409C83.9587 75.8181 83.933 75.6876 83.933 75.5492L83.933 75.2746C83.933 75.1362 83.9587 75.0056 84.01 74.8829C84.0636 74.7601 84.1362 74.653 84.2277 74.5614C84.3192 74.4699 84.4263 74.3974 84.5491 74.3438C84.6719 74.2925 84.8025 74.2668 84.9408 74.2668L86.4877 74.2668C86.6261 74.2668 86.7567 74.2925 86.8795 74.3438C87.0022 74.3974 87.1094 74.4699 87.2009 74.5614C87.2924 74.653 87.3638 74.7601 87.4152 74.8829C87.4688 75.0056 87.4955 75.1362 87.4955 75.2746L87.4955 75.5492C87.4955 75.6876 87.4688 75.8181 87.4152 75.9409C87.3638 76.0637 87.2924 76.1708 87.2009 76.2623C87.1094 76.3539 87.0022 76.4253 86.8795 76.4766C86.7567 76.5302 86.6261 76.557 86.4877 76.557L85.6808 76.557L85.6808 74.6786L84.9174 74.6786C84.8348 74.6786 84.7567 74.6943 84.683 74.7255C84.6116 74.7568 84.5491 74.7992 84.4955 74.8527C84.442 74.9063 84.3996 74.9688 84.3683 75.0402C84.3371 75.1139 84.3214 75.192 84.3214 75.2746L84.3214 75.5492C84.3214 75.6318 84.3371 75.7088 84.3683 75.7802C84.3996 75.8539 84.442 75.9175 84.4955 75.971C84.5491 76.0246 84.6116 76.067 84.683 76.0983C84.7567 76.1295 84.8348 76.1452 84.9174 76.1452L85.1451 76.1452L85.0781 76.557L84.9408 76.557ZM86.5112 76.1452C86.5938 76.1452 86.6708 76.1295 86.7422 76.0983C86.8158 76.067 86.8795 76.0246 86.933 75.971C86.9866 75.9175 87.029 75.8539 87.0603 75.7802C87.0915 75.7088 87.1071 75.6318 87.1071 75.5492L87.1071 75.2746C87.1071 75.192 87.0915 75.1139 87.0603 75.0402C87.029 74.9688 86.9866 74.9063 86.933 74.8527C86.8795 74.7992 86.8158 74.7568 86.7422 74.7255C86.6708 74.6943 86.5938 74.6786 86.5112 74.6786L86.0022 74.6786L86.0022 76.1452L86.5112 76.1452Z" fill="#B8D7FF"/>
<path d="M34.8214 72.7489C34.9844 72.7489 35.1373 72.7802 35.2801 72.8427C35.423 72.903 35.548 72.9867 35.6551 73.0938C35.7623 73.201 35.8471 73.3271 35.9096 73.4722C35.9699 73.615 36 73.7679 36 73.9309L36 75.451L31.1987 75.451L31.1987 73.9309C31.1987 73.7679 31.2299 73.615 31.2924 73.4722C31.3527 73.3271 31.4364 73.201 31.5435 73.0938C31.6507 72.9867 31.7768 72.903 31.9219 72.8427C32.0647 72.7802 32.2176 72.7489 32.3806 72.7489L34.8214 72.7489ZM32.3806 73.1809C32.2734 73.1809 32.1741 73.201 32.0826 73.2411C31.9888 73.2813 31.9074 73.3371 31.8382 73.4085C31.7667 73.4777 31.7109 73.5592 31.6708 73.653C31.6306 73.7445 31.6105 73.8438 31.6105 73.951L31.6105 75.019L35.5882 75.019L35.5882 73.951C35.5882 73.8438 35.5681 73.7445 35.5279 73.653C35.4877 73.5592 35.433 73.4777 35.3638 73.4085C35.2946 73.3371 35.2143 73.2813 35.1228 73.2411C35.029 73.201 34.9286 73.1809 34.8214 73.1809L32.3806 73.1809ZM35.0592 69.5681C35.1975 69.5681 35.3281 69.5949 35.4509 69.6485C35.5737 69.6998 35.6808 69.7713 35.7723 69.8628C35.8638 69.9543 35.9364 70.0614 35.99 70.1842C36.0413 70.307 36.067 70.4376 36.067 70.576L36.067 70.8505C36.067 70.9889 36.0413 71.1195 35.99 71.2422C35.9364 71.365 35.8638 71.4722 35.7723 71.5637C35.6808 71.6552 35.5737 71.7277 35.4509 71.7813C35.3281 71.8327 35.1975 71.8583 35.0592 71.8583L33.5123 71.8583C33.3739 71.8583 33.2433 71.8327 33.1205 71.7813C32.9978 71.7277 32.8906 71.6552 32.7991 71.5637C32.7076 71.4722 32.6362 71.365 32.5848 71.2422C32.5313 71.1195 32.5045 70.9889 32.5045 70.8505L32.5045 70.576C32.5045 70.4376 32.5313 70.307 32.5848 70.1842C32.6362 70.0614 32.7076 69.9543 32.7991 69.8628C32.8906 69.7713 32.9978 69.6998 33.1205 69.6485C33.2433 69.5949 33.3739 69.5681 33.5123 69.5681L35.0592 69.5681ZM33.4888 69.98C33.4063 69.98 33.3292 69.9956 33.2578 70.0268C33.1842 70.0581 33.1205 70.1005 33.067 70.1541C33.0134 70.2077 32.971 70.2713 32.9397 70.3449C32.9085 70.4164 32.8929 70.4934 32.8929 70.576L32.8929 70.8505C32.8929 70.9331 32.9085 71.0112 32.9397 71.0849C32.971 71.1563 33.0134 71.2188 33.067 71.2724C33.1205 71.326 33.1842 71.3684 33.2578 71.3996C33.3292 71.4309 33.4063 71.4465 33.4888 71.4465L35.0826 71.4465C35.1652 71.4465 35.2433 71.4309 35.317 71.3996C35.3884 71.3684 35.4509 71.326 35.5045 71.2724C35.558 71.2188 35.6004 71.1563 35.6317 71.0849C35.6629 71.0112 35.6786 70.9331 35.6786 70.8505L35.6786 70.576C35.6786 70.4934 35.6629 70.4164 35.6317 70.3449C35.6004 70.2713 35.558 70.2077 35.5045 70.1541C35.4509 70.1005 35.3884 70.0581 35.317 70.0268C35.2433 69.9956 35.1652 69.98 35.0826 69.98L33.4888 69.98ZM35.0592 66.4543C35.1975 66.4543 35.3281 66.4811 35.4509 66.5347C35.5737 66.586 35.6808 66.6574 35.7723 66.7489C35.8638 66.8405 35.9364 66.9476 35.99 67.0704C36.0413 67.1931 36.067 67.3237 36.067 67.4621L36.067 67.7367C36.067 67.8751 36.0413 68.0056 35.99 68.1284C35.9364 68.2512 35.8638 68.3583 35.7723 68.4498C35.6808 68.5414 35.5737 68.6139 35.4509 68.6675C35.3281 68.7188 35.1975 68.7445 35.0592 68.7445L33.5123 68.7445C33.3739 68.7445 33.2433 68.7188 33.1205 68.6675C32.9978 68.6139 32.8906 68.5414 32.7991 68.4498C32.7076 68.3583 32.6362 68.2512 32.5848 68.1284C32.5313 68.0056 32.5045 67.8751 32.5045 67.7367L32.5045 67.4621C32.5045 67.3237 32.5313 67.1931 32.5848 67.0704C32.6362 66.9476 32.7076 66.8405 32.7991 66.7489C32.8906 66.6574 32.9978 66.586 33.1205 66.5347C33.2433 66.4811 33.3739 66.4543 33.5123 66.4543L35.0592 66.4543ZM33.4888 66.8661C33.4063 66.8661 33.3292 66.8818 33.2578 66.913C33.1842 66.9443 33.1205 66.9867 33.067 67.0402C33.0134 67.0938 32.971 67.1574 32.9397 67.2311C32.9085 67.3025 32.8929 67.3795 32.8929 67.4621L32.8929 67.7367C32.8929 67.8193 32.9085 67.8974 32.9397 67.971C32.971 68.0425 33.0134 68.105 33.067 68.1585C33.1205 68.2121 33.1842 68.2545 33.2578 68.2858C33.3292 68.317 33.4063 68.3327 33.4888 68.3327L35.0826 68.3327C35.1652 68.3327 35.2433 68.317 35.317 68.2858C35.3884 68.2545 35.4509 68.2121 35.5045 68.1585C35.558 68.105 35.6004 68.0425 35.6317 67.971C35.6629 67.8974 35.6786 67.8193 35.6786 67.7367L35.6786 67.4621C35.6786 67.3795 35.6629 67.3025 35.6317 67.2311C35.6004 67.1574 35.558 67.0938 35.5045 67.0402C35.4509 66.9867 35.3884 66.9443 35.317 66.913C35.2433 66.8818 35.1652 66.8661 35.0826 66.8661L33.4888 66.8661ZM32.9632 64.6228C32.9632 64.7054 32.9788 64.7835 33.01 64.8572C33.0413 64.9286 33.0837 64.9911 33.1373 65.0447C33.1908 65.0983 33.2545 65.1407 33.3281 65.1719C33.3996 65.2032 33.4766 65.2188 33.5592 65.2188L36 65.2188L36 65.6306L32.5714 65.6306L32.5714 65.4934L32.9196 65.269C32.7924 65.1753 32.692 65.0581 32.6183 64.9175C32.5424 64.7746 32.5045 64.6195 32.5045 64.4521L32.5045 64.211L32.9632 64.211L32.9632 64.6228Z" fill="#B8D7FF"/>
</g>
<g style="mix-blend-mode:luminosity">
<path d="M79.515 16.5741C80.085 16.5741 80.628 16.5981 81.144 16.6461C81.18 16.7061 81.198 16.7931 81.198 16.9071C81.198 16.9971 81.186 17.0751 81.162 17.1411C80.682 17.0871 80.103 17.0631 79.425 17.0691L79.425 22.1451C79.425 22.4751 79.458 22.6401 79.524 22.6401L80.091 22.6221C80.115 22.6641 80.127 22.7211 80.127 22.7931C80.127 22.8411 80.118 22.8921 80.1 22.9461C79.704 23.0601 79.32 23.1171 78.948 23.1171C78.756 23.1171 78.618 23.1081 78.534 23.0901C78.456 23.0781 78.402 23.0481 78.372 23.0001C78.348 22.9461 78.339 22.8561 78.345 22.7301L78.345 17.1411C77.643 17.1951 77.034 17.2821 76.518 17.4021C76.482 17.3181 76.464 17.2341 76.464 17.1501C76.464 17.1021 76.476 17.0241 76.5 16.9161C77.364 16.6881 78.369 16.5741 79.515 16.5741ZM82.1176 17.6361C82.0096 17.6481 81.9616 17.5521 81.9736 17.3481L81.9736 16.8891C81.9736 16.7871 81.9826 16.7181 82.0006 16.6821C82.0246 16.6461 82.0756 16.6221 82.1536 16.6101L82.8556 16.5831C82.9636 16.5711 83.0116 16.6671 82.9996 16.8711L82.9996 17.3301C82.9996 17.4321 82.9876 17.5011 82.9636 17.5371C82.9456 17.5731 82.8976 17.5971 82.8196 17.6091L82.1176 17.6361ZM83.9356 22.7931C83.9356 22.8411 83.9266 22.8921 83.9086 22.9461C83.5126 23.0601 83.1076 23.1171 82.6936 23.1171C82.5136 23.1171 82.3876 23.1081 82.3156 23.0901C82.2436 23.0781 82.1956 23.0481 82.1716 23.0001C82.1536 22.9461 82.1476 22.8561 82.1536 22.7301L82.1536 19.3461C82.1536 19.0161 82.1206 18.8511 82.0546 18.8511L81.4336 18.8691C81.4096 18.8271 81.3976 18.7701 81.3976 18.6981C81.3976 18.6501 81.4066 18.5991 81.4246 18.5451C81.8206 18.4311 82.2256 18.3741 82.6396 18.3741C82.8196 18.3741 82.9456 18.3831 83.0176 18.4011C83.0896 18.4131 83.1346 18.4461 83.1526 18.5001C83.1766 18.5481 83.1856 18.6351 83.1796 18.7611L83.1796 22.1451C83.1796 22.4631 83.2096 22.6221 83.2696 22.6221L83.8996 22.6221C83.9236 22.6641 83.9356 22.7211 83.9356 22.7931ZM87.1104 18.9141C86.8764 18.9141 86.4714 19.0011 85.8954 19.1751L85.8954 22.8381C85.8954 22.9221 85.8474 22.9821 85.7514 23.0181C85.5234 23.0841 85.2804 23.1171 85.0224 23.1171C84.9204 23.1171 84.8694 23.0661 84.8694 22.9641L84.8694 19.3461C84.8694 19.0161 84.8364 18.8511 84.7704 18.8511L84.1494 18.8691C84.1254 18.8271 84.1134 18.7701 84.1134 18.6981C84.1134 18.6501 84.1224 18.5991 84.1404 18.5451C84.5364 18.4311 84.9414 18.3741 85.3554 18.3741C85.5354 18.3741 85.6614 18.3831 85.7334 18.4011C85.8054 18.4131 85.8504 18.4461 85.8684 18.5001C85.8924 18.5481 85.9014 18.6351 85.8954 18.7611C86.3334 18.6291 86.6874 18.5331 86.9574 18.4731C87.2634 18.4071 87.5364 18.3741 87.7764 18.3741C88.2324 18.3741 88.5054 18.5091 88.5954 18.7791C88.7334 18.7311 88.9524 18.6681 89.2524 18.5901C89.6004 18.5001 89.8104 18.4461 89.8824 18.4281C90.1104 18.3921 90.3084 18.3741 90.4764 18.3741C90.8064 18.3741 91.0404 18.4281 91.1784 18.5361C91.3164 18.6381 91.3854 18.8121 91.3854 19.0581L91.3854 22.1451C91.3854 22.3431 91.3914 22.4781 91.4034 22.5501C91.4094 22.6101 91.4364 22.6401 91.4844 22.6401L92.1054 22.6221C92.1294 22.6881 92.1414 22.7451 92.1414 22.7931C92.1414 22.8111 92.1354 22.8441 92.1234 22.8921L92.1144 22.9461C91.7184 23.0601 91.3134 23.1171 90.8994 23.1171C90.7194 23.1171 90.5934 23.1081 90.5214 23.0901C90.4494 23.0781 90.4014 23.0481 90.3774 23.0001C90.3594 22.9461 90.3534 22.8561 90.3594 22.7301L90.3594 19.2831C90.3594 19.0371 90.1914 18.9141 89.8554 18.9141C89.6334 18.9141 89.2284 19.0011 88.6404 19.1751L88.6404 22.8381C88.6404 22.9221 88.5924 22.9821 88.4964 23.0181C88.2684 23.0841 88.0254 23.1171 87.7674 23.1171C87.6654 23.1171 87.6144 23.0661 87.6144 22.9641L87.6144 19.2831C87.6144 19.0371 87.4464 18.9141 87.1104 18.9141ZM95.4641 22.5681C95.8781 22.5021 96.1781 22.4451 96.3641 22.3971C96.3941 22.4571 96.4091 22.5321 96.4091 22.6221C96.4091 22.7001 96.3971 22.7601 96.3731 22.8021C95.5691 23.0121 94.6871 23.1171 93.7271 23.1171C93.4031 23.1171 93.1661 23.0661 93.0161 22.9641C92.8721 22.8621 92.8001 22.6941 92.8001 22.4601L92.8001 19.3731C92.8001 19.0011 92.9981 18.7401 93.3941 18.5901C93.7781 18.4461 94.4021 18.3741 95.2661 18.3741C95.5721 18.3741 95.8061 18.4041 95.9681 18.4641C96.1361 18.5181 96.2561 18.6141 96.3281 18.7521C96.4001 18.8901 96.4361 19.0881 96.4361 19.3461L96.4361 19.9851C96.4361 20.2371 96.3731 20.4351 96.2471 20.5791C96.1211 20.7171 95.9201 20.8161 95.6441 20.8761C94.9781 20.9781 94.3721 21.0471 93.8261 21.0831L93.8261 22.1091C93.8261 22.3371 93.8681 22.4871 93.9521 22.5591C94.0421 22.6311 94.2221 22.6671 94.4921 22.6671C94.7321 22.6671 95.0561 22.6341 95.4641 22.5681ZM94.0331 18.9051C93.8831 19.0011 93.8141 19.1691 93.8261 19.4091L93.8261 20.6691C94.2281 20.6331 94.5551 20.5911 94.8071 20.5431C95.0531 20.4891 95.2151 20.4261 95.2931 20.3541C95.3711 20.2821 95.4101 20.1501 95.4101 19.9581L95.4101 19.4091C95.4101 19.1571 95.3711 18.9861 95.2931 18.8961C95.2211 18.8001 95.0861 18.7521 94.8881 18.7521C94.4681 18.7521 94.1831 18.8031 94.0331 18.9051ZM99.3757 22.7931C99.3757 22.8411 99.3667 22.8921 99.3487 22.9461C98.9527 23.0601 98.5477 23.1171 98.1337 23.1171C97.9537 23.1171 97.8277 23.1081 97.7557 23.0901C97.6837 23.0781 97.6357 23.0481 97.6117 23.0001C97.5937 22.9461 97.5877 22.8561 97.5937 22.7301L97.5937 17.5551C97.5937 17.2251 97.5607 17.0601 97.4947 17.0601L96.8737 17.0781C96.8497 17.0361 96.8377 16.9791 96.8377 16.9071C96.8377 16.8591 96.8467 16.8081 96.8647 16.7541C97.2607 16.6401 97.6657 16.5831 98.0797 16.5831C98.2597 16.5831 98.3857 16.5921 98.4577 16.6101C98.5297 16.6221 98.5747 16.6551 98.5927 16.7091C98.6167 16.7571 98.6257 16.8441 98.6197 16.9701L98.6197 22.1451C98.6197 22.4751 98.6527 22.6401 98.7187 22.6401L99.3397 22.6221C99.3637 22.6641 99.3757 22.7211 99.3757 22.7931ZM100.276 17.6361C100.168 17.6481 100.12 17.5521 100.132 17.3481L100.132 16.8891C100.132 16.7871 100.141 16.7181 100.159 16.6821C100.183 16.6461 100.234 16.6221 100.312 16.6101L101.014 16.5831C101.122 16.5711 101.17 16.6671 101.158 16.8711L101.158 17.3301C101.158 17.4321 101.146 17.5011 101.122 17.5371C101.104 17.5731 101.056 17.5971 100.978 17.6091L100.276 17.6361ZM102.094 22.7931C102.094 22.8411 102.085 22.8921 102.067 22.9461C101.671 23.0601 101.266 23.1171 100.852 23.1171C100.672 23.1171 100.546 23.1081 100.474 23.0901C100.402 23.0781 100.354 23.0481 100.33 23.0001C100.312 22.9461 100.306 22.8561 100.312 22.7301L100.312 19.3461C100.312 19.0161 100.279 18.8511 100.213 18.8511L99.5918 18.8691C99.5678 18.8271 99.5558 18.7701 99.5558 18.6981C99.5558 18.6501 99.5648 18.5991 99.5828 18.5451C99.9788 18.4311 100.384 18.3741 100.798 18.3741C100.978 18.3741 101.104 18.3831 101.176 18.4011C101.248 18.4131 101.293 18.4461 101.311 18.5001C101.335 18.5481 101.344 18.6351 101.338 18.7611L101.338 22.1451C101.338 22.4631 101.368 22.6221 101.428 22.6221L102.058 22.6221C102.082 22.6641 102.094 22.7211 102.094 22.7931ZM105.332 18.9141C105.062 18.9141 104.636 18.9981 104.054 19.1661L104.054 22.8381C104.054 22.9221 104.006 22.9821 103.91 23.0181C103.682 23.0841 103.439 23.1171 103.181 23.1171C103.079 23.1171 103.028 23.0661 103.028 22.9641L103.028 19.3461C103.028 19.0161 102.995 18.8511 102.929 18.8511L102.308 18.8691C102.284 18.8271 102.272 18.7701 102.272 18.6981C102.272 18.6501 102.281 18.5991 102.299 18.5451C102.695 18.4311 103.1 18.3741 103.514 18.3741C103.694 18.3741 103.82 18.3831 103.892 18.4011C103.964 18.4131 104.009 18.4461 104.027 18.5001C104.051 18.5481 104.06 18.6351 104.054 18.7611L104.387 18.6621C104.597 18.6021 104.747 18.5631 104.837 18.5451C104.831 18.5451 104.897 18.5301 105.035 18.5001C105.203 18.4581 105.407 18.4221 105.647 18.3921C105.791 18.3801 105.893 18.3741 105.953 18.3741C106.283 18.3741 106.517 18.4281 106.655 18.5361C106.793 18.6381 106.862 18.8121 106.862 19.0581L106.862 22.1451C106.862 22.4751 106.895 22.6401 106.961 22.6401L107.582 22.6221C107.606 22.6641 107.618 22.7211 107.618 22.7931C107.618 22.8411 107.609 22.8921 107.591 22.9461C107.195 23.0601 106.79 23.1171 106.376 23.1171C106.196 23.1171 106.07 23.1081 105.998 23.0901C105.926 23.0781 105.878 23.0481 105.854 23.0001C105.836 22.9461 105.83 22.8561 105.836 22.7301L105.836 19.2831C105.836 19.0371 105.668 18.9141 105.332 18.9141ZM110.942 22.5681C111.356 22.5021 111.656 22.4451 111.842 22.3971C111.872 22.4571 111.887 22.5321 111.887 22.6221C111.887 22.7001 111.875 22.7601 111.851 22.8021C111.047 23.0121 110.165 23.1171 109.205 23.1171C108.881 23.1171 108.644 23.0661 108.494 22.9641C108.35 22.8621 108.278 22.6941 108.278 22.4601L108.278 19.3731C108.278 19.0011 108.476 18.7401 108.872 18.5901C109.256 18.4461 109.88 18.3741 110.744 18.3741C111.05 18.3741 111.284 18.4041 111.446 18.4641C111.614 18.5181 111.734 18.6141 111.806 18.7521C111.878 18.8901 111.914 19.0881 111.914 19.3461L111.914 19.9851C111.914 20.2371 111.851 20.4351 111.725 20.5791C111.599 20.7171 111.398 20.8161 111.122 20.8761C110.456 20.9781 109.85 21.0471 109.304 21.0831L109.304 22.1091C109.304 22.3371 109.346 22.4871 109.43 22.5591C109.52 22.6311 109.7 22.6671 109.97 22.6671C110.21 22.6671 110.534 22.6341 110.942 22.5681ZM109.511 18.9051C109.361 19.0011 109.292 19.1691 109.304 19.4091L109.304 20.6691C109.706 20.6331 110.033 20.5911 110.285 20.5431C110.531 20.4891 110.693 20.4261 110.771 20.3541C110.849 20.2821 110.888 20.1501 110.888 19.9581L110.888 19.4091C110.888 19.1571 110.849 18.9861 110.771 18.8961C110.699 18.8001 110.564 18.7521 110.366 18.7521C109.946 18.7521 109.661 18.8031 109.511 18.9051Z" fill="#66A6FF"/>
</g>
</g>
</g>
<rect y="46.8475" width="189" height="25.1525" fill="url(#paint8_linear_135_5661)"/>
<defs>
<radialGradient id="paint0_radial_135_5661" cx="0" cy="0" r="1" gradientUnits="userSpaceOnUse" gradientTransform="translate(94.5 104.5) rotate(-90) scale(94.5 94.5)">
<stop stop-opacity="0"/>
<stop offset="1"/>
</radialGradient>
<linearGradient id="paint1_linear_135_5661" x1="94.5" y1="10" x2="94.5" y2="35.0001" gradientUnits="userSpaceOnUse">
<stop stop-opacity="0.61"/>
<stop offset="1" stop-opacity="0.89"/>
</linearGradient>
<linearGradient id="paint2_linear_135_5661" x1="189" y1="104.5" x2="164" y2="104.5" gradientUnits="userSpaceOnUse">
<stop stop-opacity="0.61"/>
<stop offset="1" stop-opacity="0.89"/>
</linearGradient>
<linearGradient id="paint3_linear_135_5661" x1="3.03794e-06" y1="104.5" x2="25" y2="104.5" gradientUnits="userSpaceOnUse">
<stop stop-opacity="0.61"/>
<stop offset="1" stop-opacity="0.89"/>
</linearGradient>
<linearGradient id="paint4_linear_135_5661" x1="164" y1="35.0001" x2="96.5" y2="105" gradientUnits="userSpaceOnUse">
<stop stop-opacity="0.59"/>
<stop offset="1" stop-opacity="0.13"/>
</linearGradient>
<linearGradient id="paint5_linear_135_5661" x1="25" y1="35.0001" x2="95" y2="102.5" gradientUnits="userSpaceOnUse">
<stop stop-opacity="0.59"/>
<stop offset="1" stop-opacity="0.13"/>
</linearGradient>
<linearGradient id="paint6_linear_135_5661" x1="7.86805e-07" y1="28" x2="36" y2="28" gradientUnits="userSpaceOnUse">
<stop stop-opacity="0.12"/>
<stop offset="1" stop-color="#0B0A0A"/>
</linearGradient>
<linearGradient id="paint7_linear_135_5661" x1="171" y1="10" x2="171" y2="46" gradientUnits="userSpaceOnUse">
<stop stop-opacity="0.12"/>
<stop offset="1" stop-color="#0B0A0A"/>
</linearGradient>
<linearGradient id="paint8_linear_135_5661" x1="94.5" y1="46.8475" x2="94.5" y2="72" gradientUnits="userSpaceOnUse">
<stop stop-color="#00090F" stop-opacity="0"/>
<stop offset="1" stop-color="#00090F"/>
</linearGradient>
<clipPath id="clip0_135_5661">
<rect width="189" height="62" fill="white" transform="matrix(-1 0 0 -1 189 72)"/>
</clipPath>
<clipPath id="clip1_135_5661">
<rect width="189" height="189" fill="white" transform="matrix(-1 0 0 -1 189 199)"/>
</clipPath>
<clipPath id="clip2_135_5661">
<rect width="64" height="64" fill="white" transform="matrix(-1 0 0 -1 161 102)"/>
</clipPath>
<clipPath id="clip3_135_5661">
<rect width="64" height="64" fill="white" transform="matrix(-1 0 0 -1 92 102)"/>
</clipPath>
</defs>
</svg>
