<svg width="189" height="182" viewBox="0 0 189 182" fill="none" xmlns="http://www.w3.org/2000/svg">
<g clip-path="url(#clip0_137_5919)">
<g clip-path="url(#clip1_137_5919)">
<path d="M153 193.999L36.0014 194L0.0022583 157.969L0 157.968L0.00106812 40.8639L36.0009 4.83124L153 4.83133L188.999 40.8635L189 157.968L153 193.999Z" fill="#FF1428" fill-opacity="0.8"/>
<g style="mix-blend-mode:luminosity">
<path fill-rule="evenodd" clip-rule="evenodd" d="M153 194L94.5 99.5001L189 158L189 41L94.5 99.5001L153 5.00002L36 5L94.5 99.5001L-5.11423e-06 41L-5.11423e-06 158L94.5 99.5001L36 194L153 194Z" fill="url(#paint0_radial_137_5919)" fill-opacity="0.05"/>
<path d="M36 5L153 5.00001L164 30L25 30L36 5Z" fill="url(#paint1_linear_137_5919)" fill-opacity="0.51"/>
<path d="M189 41L189 158L164 169L164 30L189 41Z" fill="url(#paint2_linear_137_5919)" fill-opacity="0.51"/>
<path d="M4.80827e-07 158L5.59506e-06 40.9999L25 30L25 169L4.80827e-07 158Z" fill="url(#paint3_linear_137_5919)" fill-opacity="0.51"/>
<path fill-rule="evenodd" clip-rule="evenodd" d="M164 169L25 169L25 30L164 30L164 169ZM164 169L176 150L176 49L164 30L145 18L44 18L25 30L13 49L13 150L25 169L44 181L145 181L164 169Z" fill="black" fill-opacity="0.05"/>
<path d="M164 30.0001L94.5 30.0001L94.5 99.5001L164 99.5001L164 30.0001Z" fill="url(#paint4_linear_137_5919)"/>
<path d="M94.5 99.5001L94.5 30.0001L25 30.0001L25 99.5001L94.5 99.5001Z" fill="url(#paint5_linear_137_5919)"/>
<path fill-rule="evenodd" clip-rule="evenodd" d="M94 169H95L95 100L164 100V99L95 99V30H94V99H25V100H94L94 169Z" fill="black" fill-opacity="0.1"/>
<path d="M36 5L0 41L25 30L36 5Z" fill="url(#paint6_linear_137_5919)" fill-opacity="0.33"/>
<path d="M189 41L153 5L164 30L189 41Z" fill="url(#paint7_linear_137_5919)" fill-opacity="0.33"/>
</g>
<g clip-path="url(#clip2_137_5919)">
<path d="M126.164 37.9766C126.164 38.1395 126.133 38.2924 126.07 38.4353C126.01 38.5781 125.926 38.7031 125.819 38.8103C125.712 38.9174 125.586 39.0022 125.441 39.0647C125.298 39.125 125.145 39.1551 124.982 39.1551L123.894 39.1551L123.894 41L123.462 41L123.462 36.1987L124.982 36.1987C125.145 36.1987 125.298 36.2299 125.441 36.2924C125.586 36.3527 125.712 36.4364 125.819 36.5435C125.926 36.6507 126.01 36.7768 126.07 36.9219C126.133 37.0647 126.164 37.2176 126.164 37.3806L126.164 37.9766ZM125.732 37.3806C125.732 37.2734 125.712 37.1741 125.672 37.0826C125.632 36.9888 125.576 36.9074 125.504 36.8382C125.435 36.7667 125.354 36.7109 125.26 36.6708C125.169 36.6306 125.069 36.6105 124.962 36.6105L123.894 36.6105L123.894 38.7433L124.962 38.7433C125.069 38.7433 125.169 38.7232 125.26 38.683C125.354 38.6429 125.435 38.5882 125.504 38.519C125.576 38.4498 125.632 38.3694 125.672 38.2779C125.712 38.1842 125.732 38.0837 125.732 37.9766L125.732 37.3806ZM129.007 41L128.779 40.6585C128.685 40.7813 128.568 40.8806 128.427 40.9565C128.287 41.0301 128.133 41.067 127.965 41.067L127.862 41.067C127.723 41.067 127.593 41.0413 127.47 40.99C127.347 40.9364 127.24 40.8638 127.148 40.7723C127.057 40.6808 126.984 40.5737 126.931 40.4509C126.879 40.3281 126.854 40.1975 126.854 40.0592L126.854 40.0257C126.854 39.8873 126.879 39.7567 126.931 39.6339C126.984 39.5112 127.057 39.404 127.148 39.3125C127.24 39.221 127.347 39.1496 127.47 39.0982C127.593 39.0446 127.723 39.0179 127.862 39.0179L128.732 39.0179L128.732 38.4888C128.732 38.4063 128.717 38.3292 128.685 38.2578C128.654 38.1842 128.612 38.1205 128.558 38.067C128.504 38.0134 128.441 37.971 128.367 37.9397C128.296 37.9085 128.219 37.8929 128.136 37.8929L127.895 37.8929C127.812 37.8929 127.734 37.9085 127.661 37.9397C127.589 37.971 127.527 38.0134 127.473 38.067C127.42 38.1205 127.377 38.1842 127.346 38.2578C127.315 38.3292 127.299 38.4063 127.299 38.4888L127.299 38.6127L126.887 38.5458L126.887 38.5123C126.887 38.3739 126.913 38.2433 126.964 38.1205C127.018 37.9978 127.09 37.8906 127.182 37.7991C127.273 37.7076 127.381 37.6362 127.503 37.5848C127.626 37.5313 127.757 37.5045 127.895 37.5045L128.136 37.5045C128.275 37.5045 128.405 37.5313 128.528 37.5848C128.651 37.6362 128.758 37.7076 128.849 37.7991C128.941 37.8906 129.012 37.9978 129.064 38.1205C129.117 38.2433 129.144 38.3739 129.144 38.5123L129.144 41L129.007 41ZM128.732 39.3393L127.862 39.3393C127.779 39.3393 127.701 39.3549 127.627 39.3862C127.556 39.4174 127.493 39.4609 127.44 39.5167C127.386 39.5703 127.344 39.6339 127.312 39.7076C127.281 39.779 127.266 39.856 127.266 39.9386L127.266 40.0826C127.266 40.1652 127.281 40.2433 127.312 40.317C127.344 40.3884 127.386 40.4509 127.44 40.5045C127.493 40.558 127.556 40.6004 127.627 40.6317C127.701 40.6629 127.779 40.6786 127.862 40.6786L128.136 40.6786C128.219 40.6786 128.296 40.6629 128.367 40.6317C128.441 40.6004 128.504 40.558 128.558 40.5045C128.612 40.4509 128.654 40.3884 128.685 40.317C128.717 40.2433 128.732 40.1652 128.732 40.0826L128.732 39.3393ZM132.325 40.1295C132.325 40.2679 132.297 40.3951 132.241 40.5112C132.185 40.625 132.109 40.7232 132.013 40.8058C131.917 40.8884 131.806 40.9531 131.679 41C131.554 41.0446 131.422 41.067 131.283 41.067L131.009 41.067C130.871 41.067 130.738 41.0413 130.61 40.99C130.485 40.9364 130.375 40.8638 130.279 40.7723C130.185 40.6808 130.109 40.5737 130.051 40.4509C129.996 40.3281 129.968 40.1975 129.968 40.0592L129.968 39.9219L130.379 39.8549L130.379 40.0826C130.379 40.1652 130.396 40.2433 130.43 40.317C130.465 40.3884 130.512 40.4509 130.57 40.5045C130.628 40.558 130.695 40.6004 130.771 40.6317C130.847 40.6629 130.926 40.6786 131.009 40.6786L131.283 40.6786C131.366 40.6786 131.445 40.6663 131.521 40.6417C131.597 40.6172 131.664 40.5826 131.722 40.5379C131.782 40.4911 131.829 40.4353 131.863 40.3705C131.898 40.3058 131.916 40.2321 131.916 40.1496C131.916 40.0268 131.89 39.9263 131.836 39.8482C131.782 39.7701 131.711 39.7054 131.622 39.654C131.535 39.6004 131.434 39.5569 131.32 39.5234C131.209 39.4877 131.094 39.4531 130.975 39.4196C130.857 39.3839 130.741 39.3438 130.627 39.2991C130.516 39.2545 130.415 39.1964 130.326 39.125C130.239 39.0513 130.169 38.9598 130.115 38.8504C130.061 38.7411 130.035 38.6049 130.035 38.442C130.035 38.3036 130.061 38.1775 130.115 38.0636C130.169 37.9475 130.241 37.8482 130.333 37.7656C130.424 37.683 130.53 37.6194 130.651 37.5748C130.773 37.5279 130.904 37.5045 131.042 37.5045L131.283 37.5045C131.422 37.5045 131.552 37.5313 131.675 37.5848C131.798 37.6362 131.905 37.7076 131.997 37.7991C132.088 37.8906 132.16 37.9978 132.211 38.1205C132.265 38.2433 132.291 38.3739 132.291 38.5123L132.291 38.5257L131.879 38.5926L131.879 38.4888C131.879 38.4063 131.864 38.3292 131.833 38.2578C131.801 38.1842 131.759 38.1205 131.705 38.067C131.652 38.0134 131.588 37.971 131.515 37.9397C131.443 37.9085 131.366 37.8929 131.283 37.8929L131.042 37.8929C130.96 37.8929 130.882 37.9051 130.808 37.9297C130.737 37.9542 130.674 37.99 130.621 38.0368C130.567 38.0815 130.525 38.1362 130.493 38.2009C130.462 38.2656 130.446 38.3393 130.446 38.4219C130.446 38.5402 130.473 38.6373 130.527 38.7132C130.58 38.7868 130.651 38.8493 130.738 38.9007C130.827 38.952 130.927 38.9955 131.039 39.0313C131.153 39.0647 131.268 39.1004 131.384 39.1384C131.502 39.1741 131.617 39.2154 131.729 39.2623C131.843 39.3092 131.943 39.3694 132.03 39.4431C132.119 39.5167 132.191 39.6094 132.244 39.721C132.298 39.8304 132.325 39.9665 132.325 40.1295ZM134.364 41C134.239 41 134.121 40.9766 134.009 40.9297C133.9 40.8828 133.804 40.8181 133.721 40.7355C133.641 40.6529 133.576 40.5569 133.527 40.4475C133.48 40.3382 133.456 40.221 133.456 40.096L133.456 37.9632L132.84 37.9632L132.84 37.5714L133.456 37.5714L133.456 36.7478L133.868 36.6808L133.868 37.5714L134.739 37.5714L134.739 37.9632L133.868 37.9632L133.868 40.1161C133.868 40.1853 133.881 40.25 133.905 40.3103C133.932 40.3683 133.968 40.4196 134.012 40.4643C134.057 40.5089 134.109 40.5446 134.17 40.5714C134.23 40.596 134.295 40.6083 134.364 40.6083L134.739 40.6083L134.739 41L134.364 41Z" fill="#FDCED2"/>
<path d="M154.112 55.2232C153.949 55.2232 153.796 55.1897 153.653 55.1228C153.51 55.058 153.385 54.9699 153.278 54.8583C153.171 54.7489 153.086 54.6205 153.023 54.4732C152.963 54.3281 152.933 54.1741 152.933 54.0112L152.933 53.6663C152.933 53.5033 152.963 53.3482 153.023 53.2009C153.086 53.0558 153.171 52.9275 153.278 52.8158C153.385 52.7065 153.51 52.6183 153.653 52.5513C153.796 52.4866 153.949 52.4542 154.112 52.4542L154.302 52.4542L154.373 52.8862L154.112 52.8862C154.004 52.8862 153.904 52.9074 153.81 52.9498C153.719 52.9944 153.637 53.0536 153.566 53.1272C153.497 53.2009 153.442 53.2857 153.402 53.3817C153.362 53.4799 153.342 53.5826 153.342 53.6897L153.342 53.9911C153.342 54.0982 153.362 54.1998 153.402 54.2958C153.442 54.3917 153.497 54.4766 153.566 54.5502C153.637 54.6239 153.719 54.6819 153.81 54.7243C153.904 54.769 154.004 54.7913 154.112 54.7913L154.256 54.7913C154.421 54.7913 154.558 54.7589 154.667 54.6942C154.777 54.6295 154.869 54.5435 154.945 54.4364C155.023 54.3292 155.089 54.2076 155.143 54.0714C155.196 53.9375 155.25 53.7991 155.304 53.6563C155.357 53.5134 155.416 53.3739 155.481 53.2377C155.546 53.1038 155.626 52.9833 155.722 52.8761C155.82 52.769 155.94 52.683 156.08 52.6183C156.221 52.5536 156.394 52.5212 156.599 52.5212L156.69 52.5212C156.853 52.5212 157.006 52.5513 157.148 52.6116C157.291 52.6741 157.416 52.7589 157.523 52.8661C157.631 52.9732 157.714 53.0982 157.775 53.2411C157.837 53.3862 157.868 53.5402 157.868 53.7031L157.868 54.0112C157.868 54.1741 157.837 54.327 157.775 54.4699C157.714 54.6127 157.631 54.7377 157.523 54.8449C157.416 54.952 157.291 55.0357 157.148 55.096C157.006 55.1585 156.853 55.1897 156.69 55.1897L156.566 55.1897L156.496 54.7578L156.69 54.7578C156.797 54.7578 156.896 54.7377 156.988 54.6975C157.081 54.6574 157.163 54.6027 157.232 54.5335C157.301 54.4643 157.356 54.3828 157.396 54.2891C157.436 54.1975 157.456 54.0982 157.456 53.9911L157.456 53.7232C157.456 53.6161 157.436 53.5156 157.396 53.4219C157.356 53.3304 157.301 53.2489 157.232 53.1775C157.163 53.1083 157.081 53.0536 156.988 53.0134C156.896 52.9732 156.797 52.9531 156.69 52.9531L156.599 52.9531C156.445 52.9531 156.316 52.9855 156.211 53.0502C156.106 53.115 156.016 53.2009 155.94 53.308C155.866 53.4152 155.801 53.5357 155.746 53.6696C155.692 53.8058 155.636 53.9453 155.578 54.0882C155.522 54.231 155.46 54.3694 155.391 54.5033C155.324 54.6395 155.24 54.7612 155.14 54.8683C155.041 54.9754 154.921 55.0614 154.778 55.1261C154.635 55.1908 154.461 55.2232 154.256 55.2232L154.112 55.2232ZM153 58.1696L153.348 57.942C153.221 57.8482 153.119 57.731 153.044 57.5904C152.97 57.4498 152.933 57.2958 152.933 57.1283L152.933 57.0246C152.933 56.8862 152.959 56.7556 153.01 56.6328C153.064 56.51 153.136 56.4029 153.228 56.3114C153.319 56.2199 153.426 56.1473 153.549 56.0938C153.672 56.0424 153.802 56.0167 153.941 56.0167L156.429 56.0167L156.429 56.4286L153.917 56.4286C153.835 56.4286 153.757 56.4442 153.683 56.4754C153.612 56.5067 153.549 56.5491 153.496 56.6027C153.442 56.6563 153.4 56.7188 153.368 56.7902C153.337 56.8638 153.321 56.942 153.321 57.0246L153.321 57.2991C153.321 57.3817 153.337 57.4587 153.368 57.5301C153.4 57.6038 153.442 57.6674 153.496 57.721C153.549 57.7746 153.612 57.817 153.683 57.8482C153.757 57.8795 153.835 57.8951 153.917 57.8951L156.429 57.8951L156.429 58.3069L153 58.3069L153 58.1696ZM153 61.0089L155.511 61.0089C155.594 61.0089 155.671 60.9933 155.742 60.9621C155.816 60.9308 155.879 60.8884 155.933 60.8348C155.987 60.7813 156.029 60.7176 156.06 60.644C156.092 60.5725 156.107 60.4955 156.107 60.4129L156.107 60.1384C156.107 60.0558 156.092 59.9777 156.06 59.904C156.029 59.8326 155.987 59.7701 155.933 59.7165C155.879 59.6629 155.816 59.6205 155.742 59.5893C155.671 59.558 155.594 59.5424 155.511 59.5424L153 59.5424L153 59.1306L156.429 59.1306L156.429 59.2679L156.08 59.4922C156.208 59.5859 156.308 59.7031 156.382 59.8438C156.458 59.9866 156.496 60.1417 156.496 60.3092L156.496 60.4129C156.496 60.5513 156.469 60.6819 156.415 60.8047C156.364 60.9275 156.292 61.0346 156.201 61.1261C156.109 61.2176 156.002 61.2891 155.879 61.3404C155.757 61.394 155.626 61.4208 155.488 61.4208L153 61.4208L153 61.0089ZM157.41 63.423C157.41 63.3538 157.396 63.2891 157.369 63.2288C157.345 63.1708 157.31 63.1194 157.266 63.0748C157.221 63.0301 157.169 62.9944 157.108 62.9676C157.048 62.9431 156.983 62.9308 156.914 62.9308L156.429 62.9308L156.429 63.731L156.037 63.731L156.037 62.9308L153 62.9308L153 62.519L156.037 62.519L156.037 61.8996L156.429 61.8996L156.429 62.519L156.894 62.519C157.019 62.519 157.136 62.5424 157.246 62.5893C157.357 62.6362 157.454 62.7009 157.537 62.7835C157.619 62.8661 157.684 62.9621 157.731 63.0714C157.778 63.1808 157.801 63.298 157.801 63.423L157.801 63.8013L157.41 63.8013L157.41 63.423ZM153 64.3504L157.801 64.3504L157.801 64.7623L153 64.7623L153 64.3504ZM153.941 67.9498C153.802 67.9498 153.672 67.923 153.549 67.8694C153.426 67.8181 153.319 67.7467 153.228 67.6551C153.136 67.5636 153.064 67.4565 153.01 67.3337C152.959 67.2109 152.933 67.0804 152.933 66.942L152.933 66.6674C152.933 66.529 152.959 66.3984 153.01 66.2757C153.064 66.1529 153.136 66.0458 153.228 65.9542C153.319 65.8627 153.426 65.7902 153.549 65.7366C153.672 65.6853 153.802 65.6596 153.941 65.6596L155.488 65.6596C155.626 65.6596 155.757 65.6853 155.879 65.7366C156.002 65.7902 156.109 65.8627 156.201 65.9542C156.292 66.0458 156.364 66.1529 156.415 66.2757C156.469 66.3984 156.496 66.529 156.496 66.6674L156.496 66.942C156.496 67.0804 156.469 67.2109 156.415 67.3337C156.364 67.4565 156.292 67.5636 156.201 67.6551C156.109 67.7467 156.002 67.8181 155.879 67.8694C155.757 67.923 155.626 67.9498 155.488 67.9498L153.941 67.9498ZM155.511 67.5379C155.594 67.5379 155.671 67.5223 155.742 67.4911C155.816 67.4598 155.879 67.4174 155.933 67.3638C155.987 67.3103 156.029 67.2467 156.06 67.173C156.092 67.1016 156.107 67.0246 156.107 66.942L156.107 66.6674C156.107 66.5848 156.092 66.5067 156.06 66.433C156.029 66.3616 155.987 66.2991 155.933 66.2455C155.879 66.192 155.816 66.1496 155.742 66.1183C155.671 66.0871 155.594 66.0714 155.511 66.0714L153.917 66.0714C153.835 66.0714 153.757 66.0871 153.683 66.1183C153.612 66.1496 153.549 66.192 153.496 66.2455C153.442 66.2991 153.4 66.3616 153.368 66.433C153.337 66.5067 153.321 66.5848 153.321 66.6674L153.321 66.942C153.321 67.0246 153.337 67.1016 153.368 67.173C153.4 67.2467 153.442 67.3103 153.496 67.3638C153.549 67.4174 153.612 67.4598 153.683 67.4911C153.757 67.5223 153.835 67.5379 153.917 67.5379L155.511 67.5379ZM153 71.6596L153 71.4353L155.585 70.6317L155.762 70.6183L155.585 70.6049L153 69.8013L153 69.5737L156.429 68.4286L156.429 68.8471L153.837 69.6641L153.66 69.6775L153.837 69.6908L156.429 70.4944L156.429 70.7422L153.837 71.5424L153.66 71.5558L153.837 71.5692L156.429 72.3862L156.429 72.8047L153 71.6596ZM153.941 75.577C153.802 75.577 153.672 75.5502 153.549 75.4967C153.426 75.4453 153.319 75.3739 153.228 75.2824C153.136 75.1908 153.064 75.0837 153.01 74.9609C152.959 74.8382 152.933 74.7076 152.933 74.5692L152.933 74.2946C152.933 74.1563 152.959 74.0257 153.01 73.9029C153.064 73.7801 153.136 73.673 153.228 73.5815C153.319 73.49 153.426 73.4174 153.549 73.3638C153.672 73.3125 153.802 73.2868 153.941 73.2868L155.488 73.2868C155.626 73.2868 155.757 73.3125 155.879 73.3638C156.002 73.4174 156.109 73.49 156.201 73.5815C156.292 73.673 156.364 73.7801 156.415 73.9029C156.469 74.0257 156.496 74.1563 156.496 74.2946L156.496 74.5692C156.496 74.7076 156.469 74.8382 156.415 74.9609C156.364 75.0837 156.292 75.1908 156.201 75.2824C156.109 75.3739 156.002 75.4453 155.879 75.4967C155.757 75.5502 155.626 75.577 155.488 75.577L154.681 75.577L154.681 73.6987L153.917 73.6987C153.835 73.6987 153.757 73.7143 153.683 73.7455C153.612 73.7768 153.549 73.8192 153.496 73.8728C153.442 73.9263 153.4 73.9888 153.368 74.0603C153.337 74.1339 153.321 74.2121 153.321 74.2946L153.321 74.5692C153.321 74.6518 153.337 74.7288 153.368 74.8002C153.4 74.8739 153.442 74.9375 153.496 74.9911C153.549 75.0446 153.612 75.0871 153.683 75.1183C153.757 75.1496 153.835 75.1652 153.917 75.1652L154.145 75.1652L154.078 75.577L153.941 75.577ZM155.511 75.1652C155.594 75.1652 155.671 75.1496 155.742 75.1183C155.816 75.0871 155.879 75.0446 155.933 74.9911C155.987 74.9375 156.029 74.8739 156.06 74.8002C156.092 74.7288 156.107 74.6518 156.107 74.5692L156.107 74.2946C156.107 74.2121 156.092 74.1339 156.06 74.0603C156.029 73.9888 155.987 73.9263 155.933 73.8728C155.879 73.8192 155.816 73.7768 155.742 73.7455C155.671 73.7143 155.594 73.6987 155.511 73.6987L155.002 73.6987L155.002 75.1652L155.511 75.1652ZM156.037 77.4085C156.037 77.3259 156.021 77.2478 155.99 77.1741C155.959 77.1027 155.916 77.0402 155.863 76.9866C155.809 76.933 155.746 76.8906 155.672 76.8594C155.6 76.8281 155.523 76.8125 155.441 76.8125L153 76.8125L153 76.4007L156.429 76.4007L156.429 76.5379L156.08 76.7623C156.208 76.856 156.308 76.9732 156.382 77.1138C156.458 77.2567 156.496 77.4118 156.496 77.5792L156.496 77.8203L156.037 77.8203L156.037 77.4085Z" fill="#FDCED2"/>
<g opacity="0.7">
<path d="M102.703 70.9029L105 70.9029L105 71.3348L102.71 71.3348L100.199 72.577L100.199 72.1116L102.194 71.1239L100.199 70.1362L100.199 69.6708L102.703 70.9029ZM105 67.1763L104.652 67.404C104.779 67.4978 104.881 67.615 104.956 67.7556C105.03 67.8962 105.067 68.0502 105.067 68.2176L105.067 68.3214C105.067 68.4598 105.041 68.5904 104.99 68.7132C104.936 68.8359 104.864 68.9431 104.772 69.0346C104.681 69.1261 104.574 69.1987 104.451 69.2522C104.328 69.3036 104.198 69.3292 104.059 69.3292L101.571 69.3292L101.571 68.9174L104.083 68.9174C104.165 68.9174 104.243 68.9018 104.317 68.8705C104.388 68.8393 104.451 68.7969 104.504 68.7433C104.558 68.6897 104.6 68.6272 104.632 68.5558C104.663 68.4821 104.679 68.404 104.679 68.3214L104.679 68.0469C104.679 67.9643 104.663 67.8873 104.632 67.8158C104.6 67.7422 104.558 67.6786 104.504 67.625C104.451 67.5714 104.388 67.529 104.317 67.4978C104.243 67.4665 104.165 67.4509 104.083 67.4509L101.571 67.4509L101.571 67.0391L105 67.0391L105 67.1763ZM104.059 63.9252C104.198 63.9252 104.328 63.952 104.451 64.0056C104.574 64.0569 104.681 64.1283 104.772 64.2199C104.864 64.3114 104.936 64.4185 104.99 64.5413C105.041 64.6641 105.067 64.7946 105.067 64.933L105.067 65.2076C105.067 65.346 105.041 65.4766 104.99 65.5993C104.936 65.7221 104.864 65.8292 104.772 65.9208C104.681 66.0123 104.574 66.0848 104.451 66.1384C104.328 66.1897 104.198 66.2154 104.059 66.2154L102.512 66.2154C102.374 66.2154 102.243 66.1897 102.121 66.1384C101.998 66.0848 101.891 66.0123 101.799 65.9208C101.708 65.8292 101.636 65.7221 101.585 65.5993C101.531 65.4766 101.504 65.346 101.504 65.2076L101.504 64.933C101.504 64.7946 101.531 64.6641 101.585 64.5413C101.636 64.4185 101.708 64.3114 101.799 64.2199C101.891 64.1283 101.998 64.0569 102.121 64.0056C102.243 63.952 102.374 63.9252 102.512 63.9252L102.65 63.9252L102.717 64.3371L102.489 64.3371C102.406 64.3371 102.329 64.3527 102.258 64.3839C102.184 64.4152 102.121 64.4576 102.067 64.5112C102.013 64.5647 101.971 64.6283 101.94 64.702C101.908 64.7734 101.893 64.8504 101.893 64.933L101.893 65.2076C101.893 65.2902 101.908 65.3683 101.94 65.442C101.971 65.5134 102.013 65.5759 102.067 65.6295C102.121 65.683 102.184 65.7254 102.258 65.7567C102.329 65.7879 102.406 65.8036 102.489 65.8036L104.083 65.8036C104.165 65.8036 104.243 65.7879 104.317 65.7567C104.388 65.7254 104.451 65.683 104.504 65.6295C104.558 65.5759 104.6 65.5134 104.632 65.442C104.663 65.3683 104.679 65.2902 104.679 65.2076L104.679 64.933C104.679 64.8504 104.663 64.7734 104.632 64.702C104.6 64.6283 104.558 64.5647 104.504 64.5112C104.451 64.4576 104.388 64.4152 104.317 64.3839C104.243 64.3527 104.165 64.3371 104.083 64.3371L103.855 64.3371L103.922 63.9252L104.059 63.9252ZM104.059 60.8114C104.198 60.8114 104.328 60.8382 104.451 60.8917C104.574 60.9431 104.681 61.0145 104.772 61.106C104.864 61.1975 104.936 61.3047 104.99 61.4275C105.041 61.5502 105.067 61.6808 105.067 61.8192L105.067 62.0937C105.067 62.2321 105.041 62.3627 104.99 62.4855C104.936 62.6083 104.864 62.7154 104.772 62.8069C104.681 62.8984 104.574 62.971 104.451 63.0246C104.328 63.0759 104.198 63.1016 104.059 63.1016L102.512 63.1016C102.374 63.1016 102.243 63.0759 102.121 63.0246C101.998 62.971 101.891 62.8984 101.799 62.8069C101.708 62.7154 101.636 62.6083 101.585 62.4855C101.531 62.3627 101.504 62.2321 101.504 62.0937L101.504 61.8192C101.504 61.6808 101.531 61.5502 101.585 61.4275C101.636 61.3047 101.708 61.1975 101.799 61.106C101.891 61.0145 101.998 60.9431 102.121 60.8917C102.243 60.8382 102.374 60.8114 102.512 60.8114L102.65 60.8114L102.717 61.2232L102.489 61.2232C102.406 61.2232 102.329 61.2388 102.258 61.2701C102.184 61.3013 102.121 61.3437 102.067 61.3973C102.013 61.4509 101.971 61.5145 101.94 61.5882C101.908 61.6596 101.893 61.7366 101.893 61.8192L101.893 62.0937C101.893 62.1763 101.908 62.2545 101.94 62.3281C101.971 62.3996 102.013 62.4621 102.067 62.5156C102.121 62.5692 102.184 62.6116 102.258 62.6429C102.329 62.6741 102.406 62.6897 102.489 62.6897L104.083 62.6897C104.165 62.6897 104.243 62.6741 104.317 62.6429C104.388 62.6116 104.451 62.5692 104.504 62.5156C104.558 62.4621 104.6 62.3996 104.632 62.3281C104.663 62.2545 104.679 62.1763 104.679 62.0937L104.679 61.8192C104.679 61.7366 104.663 61.6596 104.632 61.5882C104.6 61.5145 104.558 61.4509 104.504 61.3973C104.451 61.3437 104.388 61.3013 104.317 61.2701C104.243 61.2388 104.165 61.2232 104.083 61.2232L103.855 61.2232L103.922 60.8114L104.059 60.8114ZM105 57.8348L104.658 58.0625C104.781 58.1563 104.881 58.2734 104.956 58.4141C105.03 58.5547 105.067 58.7087 105.067 58.8761L105.067 58.9799C105.067 59.1183 105.041 59.2489 104.99 59.3717C104.936 59.4944 104.864 59.6016 104.772 59.6931C104.681 59.7846 104.574 59.8571 104.451 59.9107C104.328 59.9621 104.198 59.9877 104.059 59.9877L104.026 59.9877C103.887 59.9877 103.757 59.9621 103.634 59.9107C103.511 59.8571 103.404 59.7846 103.313 59.6931C103.221 59.6016 103.15 59.4944 103.098 59.3717C103.045 59.2489 103.018 59.1183 103.018 58.9799L103.018 58.1094L102.489 58.1094C102.406 58.1094 102.329 58.125 102.258 58.1562C102.184 58.1875 102.121 58.2299 102.067 58.2835C102.013 58.3371 101.971 58.4007 101.94 58.4743C101.908 58.5458 101.893 58.6228 101.893 58.7054L101.893 58.9464C101.893 59.029 101.908 59.1071 101.94 59.1808C101.971 59.2522 102.013 59.3147 102.067 59.3683C102.121 59.4219 102.184 59.4643 102.258 59.4955C102.329 59.5268 102.406 59.5424 102.489 59.5424L102.613 59.5424L102.546 59.9542L102.512 59.9542C102.374 59.9542 102.243 59.9286 102.121 59.8772C101.998 59.8237 101.891 59.7511 101.799 59.6596C101.708 59.5681 101.636 59.4609 101.585 59.3382C101.531 59.2154 101.504 59.0848 101.504 58.9464L101.504 58.7054C101.504 58.567 101.531 58.4364 101.585 58.3136C101.636 58.1908 101.708 58.0837 101.799 57.9922C101.891 57.9007 101.998 57.8292 102.121 57.7779C102.243 57.7243 102.374 57.6975 102.512 57.6975L105 57.6975L105 57.8348ZM103.339 58.1094L103.339 58.9799C103.339 59.0625 103.355 59.1406 103.386 59.2143C103.417 59.2857 103.461 59.3482 103.517 59.4018C103.57 59.4554 103.634 59.4978 103.708 59.529C103.779 59.5603 103.856 59.5759 103.939 59.5759L104.083 59.5759C104.165 59.5759 104.243 59.5603 104.317 59.529C104.388 59.4978 104.451 59.4554 104.504 59.4018C104.558 59.3482 104.6 59.2857 104.632 59.2143C104.663 59.1406 104.679 59.0625 104.679 58.9799L104.679 58.7054C104.679 58.6228 104.663 58.5458 104.632 58.4743C104.6 58.4007 104.558 58.3371 104.504 58.2835C104.451 58.2299 104.388 58.1875 104.317 58.1562C104.243 58.125 104.165 58.1094 104.083 58.1094L103.339 58.1094Z" fill="#FDCED2"/>
</g>
<g opacity="0.7">
<path d="M130.664 90.1116C130.664 89.9487 130.695 89.7958 130.758 89.6529C130.818 89.51 130.902 89.385 131.009 89.2779C131.116 89.1708 131.241 89.0859 131.384 89.0234C131.527 88.9632 131.68 88.933 131.843 88.933H132.184C132.347 88.933 132.501 88.9632 132.646 89.0234C132.789 89.0859 132.914 89.1708 133.021 89.2779C133.128 89.385 133.213 89.51 133.276 89.6529C133.336 89.7958 133.366 89.9487 133.366 90.1116V92.6897C133.366 92.8527 133.336 93.0056 133.276 93.1484C133.213 93.2913 133.128 93.4163 133.021 93.5234C132.914 93.6306 132.789 93.7143 132.646 93.7746C132.501 93.8371 132.347 93.8683 132.184 93.8683H131.843C131.68 93.8683 131.527 93.8371 131.384 93.7746C131.241 93.7143 131.116 93.6306 131.009 93.5234C130.902 93.4163 130.818 93.2913 130.758 93.1484C130.695 93.0056 130.664 92.8527 130.664 92.6897V90.1116ZM131.096 92.6897C131.096 92.7969 131.116 92.8962 131.156 92.9877C131.196 93.0815 131.251 93.1629 131.32 93.2321C131.39 93.3013 131.471 93.356 131.565 93.3962C131.656 93.4364 131.756 93.4565 131.863 93.4565H132.164C132.271 93.4565 132.372 93.4364 132.465 93.3962C132.557 93.356 132.638 93.3013 132.71 93.2321C132.779 93.1629 132.834 93.0815 132.874 92.9877C132.914 92.8962 132.934 92.7969 132.934 92.6897V90.1116C132.934 90.0045 132.914 89.904 132.874 89.8103C132.834 89.7188 132.779 89.6373 132.71 89.5658C132.638 89.4967 132.557 89.442 132.465 89.4018C132.372 89.3616 132.271 89.3415 132.164 89.3415H131.863C131.756 89.3415 131.656 89.3616 131.565 89.4018C131.471 89.442 131.39 89.4967 131.32 89.5658C131.251 89.6373 131.196 89.7188 131.156 89.8103C131.116 89.904 131.096 90.0045 131.096 90.1116V92.6897ZM126.884 89H127.108L127.912 91.5848L127.925 91.7623L127.939 91.5848L128.742 89H128.97L130.115 92.4286H129.696L128.879 89.8371L128.866 89.6596L128.853 89.8371L128.049 92.4286H127.801L127.001 89.8371L126.988 89.6596L126.974 89.8371L126.157 92.4286H125.739L126.884 89ZM125.119 89V93.8013H124.708V89H125.119Z" fill="#FDCED2"/>
</g>
<g opacity="0.3">
<path fill-rule="evenodd" clip-rule="evenodd" d="M105.005 92.0626L103.293 90.3508C103.098 90.1558 102.782 90.1558 102.587 90.3508C102.392 90.5458 102.392 90.862 102.587 91.057L103.547 92.0176C102.513 92.008 101.735 91.8153 101.275 91.3122C100.797 90.7881 100.611 90.373 100.611 88.9994C100.611 88.7236 100.388 88.5 100.112 88.5C99.8364 88.5 99.6128 88.7236 99.6128 88.9994C99.6128 90.5603 99.8537 91.2365 100.538 91.9857C101.179 92.6875 102.166 92.9743 103.349 93.0123L102.584 93.777C102.389 93.972 102.389 94.2881 102.584 94.4831C102.779 94.6781 103.095 94.6781 103.29 94.4831L105.005 92.7687C105.2 92.5737 105.2 92.2576 105.005 92.0626Z" fill="black"/>
<path fill-rule="evenodd" clip-rule="evenodd" d="M152.297 92.0626L154.009 90.3508C154.204 90.1558 154.52 90.1558 154.715 90.3508C154.911 90.5458 154.911 90.862 154.715 91.057L153.754 92.0177C154.789 92.0081 155.567 91.8154 156.027 91.3122C156.506 90.7882 156.692 90.3731 156.692 88.9994C156.692 88.7236 156.915 88.5001 157.191 88.5001C157.467 88.5001 157.691 88.7236 157.691 88.9994C157.691 90.5603 157.45 91.2365 156.765 91.9858C156.123 92.6876 155.137 92.9744 153.953 93.0123L154.718 93.777C154.913 93.972 154.913 94.2881 154.718 94.4831C154.523 94.6781 154.207 94.6781 154.012 94.4831L152.297 92.7687C152.102 92.5737 152.102 92.2576 152.297 92.0626Z" fill="black"/>
<path fill-rule="evenodd" clip-rule="evenodd" d="M152.299 38.0668L154.01 39.7786C154.205 39.9736 154.522 39.9736 154.717 39.7786C154.912 39.5836 154.912 39.2674 154.717 39.0724L153.756 38.1118C154.79 38.1214 155.568 38.3141 156.028 38.8172C156.506 39.3412 156.692 39.7563 156.692 41.13C156.692 41.4058 156.915 41.6294 157.191 41.6294C157.467 41.6294 157.69 41.4058 157.69 41.13C157.69 39.5691 157.45 38.8929 156.765 38.1437C156.124 37.4418 155.137 37.1551 153.954 37.1171L154.719 36.3524C154.914 36.1574 154.914 35.8412 154.719 35.6462C154.524 35.4513 154.208 35.4513 154.013 35.6462L152.299 37.3607C152.104 37.5557 152.104 37.8718 152.299 38.0668Z" fill="black"/>
<path fill-rule="evenodd" clip-rule="evenodd" d="M105.006 38.0668L103.294 39.7786C103.099 39.9736 102.782 39.9736 102.587 39.7786C102.392 39.5836 102.392 39.2674 102.587 39.0724L103.548 38.1117C102.514 38.1213 101.735 38.314 101.275 38.8172C100.797 39.3412 100.611 39.7563 100.611 41.13C100.611 41.4058 100.388 41.6293 100.112 41.6293C99.8358 41.6293 99.6122 41.4058 99.6122 41.13C99.6122 39.5691 99.8531 38.8929 100.538 38.1436C101.179 37.4418 102.166 37.155 103.35 37.1171L102.585 36.3524C102.389 36.1574 102.389 35.8412 102.585 35.6462C102.78 35.4512 103.096 35.4512 103.291 35.6462L105.006 37.3607C105.201 37.5557 105.201 37.8718 105.006 38.0668Z" fill="black"/>
</g>
</g>
<g clip-path="url(#clip3_137_5919)">
<g opacity="0.7">
<path d="M87.0234 58.0658C86.8605 58.0658 86.7076 58.0346 86.5647 57.9721C86.4219 57.9118 86.2969 57.8281 86.1897 57.721C86.0826 57.6138 85.9978 57.4877 85.9353 57.3426C85.875 57.1998 85.8449 57.0469 85.8449 56.8839L85.8449 55.7958L84 55.7958L84 55.3638L88.8013 55.3638L88.8013 56.8839C88.8013 57.0469 88.7701 57.1998 88.7076 57.3426C88.6473 57.4877 88.5636 57.6138 88.4565 57.721C88.3493 57.8281 88.2232 57.9118 88.0781 57.9721C87.9353 58.0346 87.7824 58.0658 87.6194 58.0658L87.0234 58.0658ZM87.6194 57.6339C87.7266 57.6339 87.8259 57.6138 87.9174 57.5737C88.0112 57.5335 88.0926 57.4777 88.1618 57.4062C88.2333 57.3371 88.2891 57.2556 88.3292 57.1618C88.3694 57.0703 88.3895 56.971 88.3895 56.8638L88.3895 55.7958L86.2567 55.7958L86.2567 56.8638C86.2567 56.971 86.2768 57.0703 86.317 57.1618C86.3571 57.2556 86.4118 57.3371 86.481 57.4062C86.5502 57.4777 86.6306 57.5335 86.7221 57.5737C86.8158 57.6138 86.9163 57.6339 87.0234 57.6339L87.6194 57.6339ZM87.0368 59.7634C87.0368 59.6808 87.0212 59.6027 86.99 59.529C86.9587 59.4576 86.9163 59.3951 86.8627 59.3415C86.8092 59.2879 86.7455 59.2455 86.6719 59.2143C86.6004 59.183 86.5234 59.1674 86.4408 59.1674L84 59.1674L84 58.7556L87.4286 58.7556L87.4286 58.8929L87.0804 59.1172C87.2076 59.2109 87.308 59.3281 87.3817 59.4687C87.4576 59.6116 87.4955 59.7667 87.4955 59.9342L87.4955 60.1752L87.0368 60.1752L87.0368 59.7634ZM84.9408 63.0145C84.8025 63.0145 84.6719 62.9877 84.5491 62.9342C84.4263 62.8828 84.3192 62.8114 84.2277 62.7199C84.1362 62.6283 84.0636 62.5212 84.01 62.3984C83.9587 62.2757 83.933 62.1451 83.933 62.0067L83.933 61.7321C83.933 61.5937 83.9587 61.4632 84.01 61.3404C84.0636 61.2176 84.1362 61.1105 84.2277 61.019C84.3192 60.9275 84.4263 60.8549 84.5491 60.8013C84.6719 60.75 84.8025 60.7243 84.9408 60.7243L86.4877 60.7243C86.6261 60.7243 86.7567 60.75 86.8795 60.8013C87.0022 60.8549 87.1094 60.9275 87.2009 61.019C87.2924 61.1105 87.3638 61.2176 87.4152 61.3404C87.4687 61.4632 87.4955 61.5937 87.4955 61.7321L87.4955 62.0067C87.4955 62.1451 87.4687 62.2757 87.4152 62.3984C87.3638 62.5212 87.2924 62.6283 87.2009 62.7199C87.1094 62.8114 87.0022 62.8828 86.8795 62.9342C86.7567 62.9877 86.6261 63.0145 86.4877 63.0145L85.6808 63.0145L85.6808 61.1362L84.9174 61.1362C84.8348 61.1362 84.7567 61.1518 84.683 61.183C84.6116 61.2143 84.5491 61.2567 84.4955 61.3103C84.442 61.3638 84.3996 61.4263 84.3683 61.4978C84.3371 61.5714 84.3214 61.6496 84.3214 61.7321L84.3214 62.0067C84.3214 62.0893 84.3371 62.1663 84.3683 62.2377C84.3996 62.3114 84.442 62.375 84.4955 62.4286C84.5491 62.4821 84.6116 62.5246 84.683 62.5558C84.7567 62.5871 84.8348 62.6027 84.9174 62.6027L85.1451 62.6027L85.0781 63.0145L84.9408 63.0145ZM86.5112 62.6027C86.5937 62.6027 86.6708 62.5871 86.7422 62.5558C86.8158 62.5246 86.8795 62.4821 86.933 62.4286C86.9866 62.375 87.029 62.3114 87.0603 62.2377C87.0915 62.1663 87.1071 62.0893 87.1071 62.0067L87.1071 61.7321C87.1071 61.6496 87.0915 61.5714 87.0603 61.4978C87.029 61.4263 86.9866 61.3638 86.933 61.3103C86.8795 61.2567 86.8158 61.2143 86.7422 61.183C86.6708 61.1518 86.5937 61.1362 86.5112 61.1362L86.0022 61.1362L86.0022 62.6027L86.5112 62.6027ZM84.8705 66.1953C84.7321 66.1953 84.6049 66.1674 84.4888 66.1116C84.375 66.0558 84.2768 65.9799 84.1942 65.8839C84.1116 65.7879 84.0469 65.6763 84 65.5491C83.9554 65.4241 83.933 65.2924 83.933 65.154L83.933 64.8795C83.933 64.7411 83.9587 64.6083 84.01 64.481C84.0636 64.356 84.1362 64.2455 84.2277 64.1496C84.3192 64.0558 84.4263 63.9799 84.5491 63.9219C84.6719 63.8661 84.8025 63.8382 84.9408 63.8382L85.0781 63.8382L85.1451 64.25L84.9174 64.25C84.8348 64.25 84.7567 64.2667 84.683 64.3002C84.6116 64.3359 84.5491 64.3828 84.4955 64.4408C84.442 64.4989 84.3996 64.5658 84.3683 64.6417C84.3371 64.7176 84.3214 64.7969 84.3214 64.8795L84.3214 65.154C84.3214 65.2366 84.3337 65.3158 84.3583 65.3917C84.3828 65.4676 84.4174 65.5346 84.4621 65.5926C84.5089 65.6529 84.5647 65.6998 84.6295 65.7333C84.6942 65.769 84.7679 65.7868 84.8504 65.7868C84.9732 65.7868 85.0737 65.76 85.1518 65.7065C85.2299 65.6529 85.2946 65.5815 85.346 65.4922C85.3996 65.4051 85.4431 65.3047 85.4766 65.1908C85.5123 65.0792 85.5469 64.9643 85.5804 64.846C85.6161 64.7277 85.6562 64.6116 85.7009 64.4978C85.7455 64.3862 85.8036 64.2857 85.875 64.1964C85.9487 64.1094 86.0402 64.0391 86.1496 63.9855C86.2589 63.9319 86.3951 63.9051 86.558 63.9051C86.6964 63.9051 86.8225 63.9319 86.9364 63.9855C87.0525 64.0391 87.1518 64.1116 87.2344 64.2031C87.317 64.2946 87.3806 64.4007 87.4252 64.5212C87.4721 64.644 87.4955 64.7746 87.4955 64.9129L87.4955 65.154C87.4955 65.2924 87.4687 65.423 87.4152 65.5458C87.3638 65.6685 87.2924 65.7757 87.2009 65.8672C87.1094 65.9587 87.0022 66.0301 86.8795 66.0815C86.7567 66.135 86.6261 66.1618 86.4877 66.1618L86.4743 66.1618L86.4074 65.75L86.5112 65.75C86.5937 65.75 86.6708 65.7344 86.7422 65.7031C86.8158 65.6719 86.8795 65.6295 86.933 65.5759C86.9866 65.5223 87.029 65.4587 87.0603 65.385C87.0915 65.3136 87.1071 65.2366 87.1071 65.154L87.1071 64.9129C87.1071 64.8304 87.0949 64.7522 87.0703 64.6786C87.0458 64.6071 87.01 64.5446 86.9632 64.4911C86.9185 64.4375 86.8638 64.3951 86.7991 64.3638C86.7344 64.3326 86.6607 64.317 86.5781 64.317C86.4598 64.317 86.3627 64.3437 86.2868 64.3973C86.2132 64.4509 86.1507 64.5212 86.0993 64.6083C86.048 64.6975 86.0045 64.798 85.9687 64.9096C85.9353 65.0234 85.8996 65.1384 85.8616 65.2545C85.8259 65.3728 85.7846 65.4877 85.7377 65.5993C85.6908 65.7132 85.6306 65.8136 85.5569 65.9007C85.4833 65.99 85.3906 66.0614 85.279 66.115C85.1696 66.1685 85.0335 66.1953 84.8705 66.1953ZM84.9408 69.2757C84.8025 69.2757 84.6719 69.2489 84.5491 69.1953C84.4263 69.144 84.3192 69.0725 84.2277 68.981C84.1362 68.8895 84.0636 68.7824 84.01 68.6596C83.9587 68.5368 83.933 68.4062 83.933 68.2679L83.933 67.9933C83.933 67.8549 83.9587 67.7243 84.01 67.6016C84.0636 67.4788 84.1362 67.3717 84.2277 67.2801C84.3192 67.1886 84.4263 67.1161 84.5491 67.0625C84.6719 67.0112 84.8025 66.9855 84.9408 66.9855L86.4877 66.9855C86.6261 66.9855 86.7567 67.0112 86.8795 67.0625C87.0022 67.1161 87.1094 67.1886 87.2009 67.2801C87.2924 67.3717 87.3638 67.4788 87.4152 67.6016C87.4687 67.7243 87.4955 67.8549 87.4955 67.9933L87.4955 68.2679C87.4955 68.4062 87.4687 68.5368 87.4152 68.6596C87.3638 68.7824 87.2924 68.8895 87.2009 68.981C87.1094 69.0725 87.0022 69.144 86.8795 69.1953C86.7567 69.2489 86.6261 69.2757 86.4877 69.2757L85.6808 69.2757L85.6808 67.3973L84.9174 67.3973C84.8348 67.3973 84.7567 67.4129 84.683 67.4442C84.6116 67.4754 84.5491 67.5179 84.4955 67.5714C84.442 67.625 84.3996 67.6875 84.3683 67.7589C84.3371 67.8326 84.3214 67.9107 84.3214 67.9933L84.3214 68.2679C84.3214 68.3504 84.3371 68.4275 84.3683 68.4989C84.3996 68.5725 84.442 68.6362 84.4955 68.6897C84.5491 68.7433 84.6116 68.7857 84.683 68.817C84.7567 68.8482 84.8348 68.8638 84.9174 68.8638L85.1451 68.8638L85.0781 69.2757L84.9408 69.2757ZM86.5112 68.8638C86.5937 68.8638 86.6708 68.8482 86.7422 68.817C86.8158 68.7857 86.8795 68.7433 86.933 68.6897C86.9866 68.6362 87.029 68.5725 87.0603 68.4989C87.0915 68.4275 87.1071 68.3504 87.1071 68.2679L87.1071 67.9933C87.1071 67.9107 87.0915 67.8326 87.0603 67.7589C87.029 67.6875 86.9866 67.625 86.933 67.5714C86.8795 67.5179 86.8158 67.4754 86.7422 67.4442C86.6708 67.4129 86.5937 67.3973 86.5112 67.3973L86.0022 67.3973L86.0022 68.8638L86.5112 68.8638ZM84 71.9777L86.5112 71.9777C86.5937 71.9777 86.6708 71.9621 86.7422 71.9308C86.8158 71.8996 86.8795 71.8571 86.933 71.8036C86.9866 71.75 87.029 71.6864 87.0603 71.6127C87.0915 71.5413 87.1071 71.4643 87.1071 71.3817L87.1071 71.1071C87.1071 71.0246 87.0915 70.9464 87.0603 70.8728C87.029 70.8013 86.9866 70.7388 86.933 70.6853C86.8795 70.6317 86.8158 70.5893 86.7422 70.558C86.6708 70.5268 86.5937 70.5112 86.5112 70.5112L84 70.5112L84 70.0993L87.4286 70.0993L87.4286 70.2366L87.0804 70.4609C87.2076 70.5547 87.308 70.6719 87.3817 70.8125C87.4576 70.9554 87.4955 71.1105 87.4955 71.2779L87.4955 71.3817C87.4955 71.5201 87.4687 71.6507 87.4152 71.7734C87.3638 71.8962 87.2924 72.0033 87.2009 72.0949C87.1094 72.1864 87.0022 72.2578 86.8795 72.3092C86.7567 72.3627 86.6261 72.3895 86.4877 72.3895L84 72.3895L84 71.9777ZM84 74.4621C84 74.3371 84.0234 74.2187 84.0703 74.1071C84.1172 73.9978 84.1819 73.9018 84.2645 73.8192C84.3471 73.7388 84.4431 73.6741 84.5525 73.625C84.6618 73.5781 84.779 73.5547 84.904 73.5547L87.0368 73.5547L87.0368 72.9386L87.4286 72.9386L87.4286 73.5547L88.2522 73.5547L88.3192 73.9665L87.4286 73.9665L87.4286 74.8371L87.0368 74.8371L87.0368 73.9665L84.8839 73.9665C84.8147 73.9665 84.75 73.9788 84.6897 74.0033C84.6317 74.0301 84.5804 74.0658 84.5357 74.1105C84.4911 74.1551 84.4554 74.2076 84.4286 74.2679C84.404 74.3281 84.3917 74.3929 84.3917 74.4621L84.3917 74.8371L84 74.8371L84 74.4621Z" fill="#FDCED2"/>
</g>
<g opacity="0.7">
<path d="M64.2824 90.1116C64.2824 89.9487 64.3136 89.7958 64.3761 89.6529C64.4364 89.51 64.5201 89.385 64.6272 89.2779C64.7344 89.1708 64.8594 89.0859 65.0022 89.0234C65.1451 88.9632 65.298 88.933 65.4609 88.933L65.5982 88.933C65.7612 88.933 65.9152 88.9632 66.0603 89.0234C66.2031 89.0859 66.3281 89.1708 66.4353 89.2779C66.5424 89.385 66.6272 89.51 66.6897 89.6529C66.75 89.7958 66.7801 89.9487 66.7801 90.1116L66.7801 90.3025L66.3482 90.3728L66.3482 90.1116C66.3482 90.0045 66.3281 89.904 66.2879 89.8103C66.2478 89.7188 66.1931 89.6373 66.1239 89.5658C66.0525 89.4967 65.971 89.442 65.8795 89.4018C65.7857 89.3616 65.6853 89.3415 65.5781 89.3415L65.481 89.3415C65.3761 89.3415 65.2768 89.3616 65.183 89.4018C65.0893 89.442 65.0078 89.4967 64.9386 89.5658C64.8694 89.6373 64.8147 89.7188 64.7746 89.8103C64.7344 89.904 64.7143 90.0045 64.7143 90.1116L64.7143 93.8013L64.2824 93.8013L64.2824 90.1116ZM61.3058 89L61.5335 89.3482C61.6272 89.221 61.7444 89.1194 61.885 89.0435C62.0257 88.9699 62.1797 88.933 62.3471 88.933L62.4509 88.933C62.5893 88.933 62.7199 88.9587 62.8426 89.01C62.9654 89.0636 63.0725 89.1362 63.1641 89.2277C63.2556 89.3192 63.3281 89.4263 63.3817 89.5491C63.433 89.6719 63.4587 89.8025 63.4587 89.9408L63.4587 92.4286L63.0469 92.4286L63.0469 89.9174C63.0469 89.8348 63.0312 89.7567 63 89.683C62.9687 89.6116 62.9263 89.5491 62.8728 89.4955C62.8192 89.442 62.7567 89.3996 62.6853 89.3683C62.6116 89.3371 62.5335 89.3214 62.4509 89.3214L62.1763 89.3214C62.0937 89.3214 62.0167 89.3371 61.9453 89.3683C61.8717 89.3996 61.808 89.442 61.7545 89.4955C61.7009 89.5491 61.6585 89.6116 61.6272 89.683C61.596 89.7567 61.5804 89.8348 61.5804 89.9174L61.5804 92.4286L61.1685 92.4286L61.1685 89L61.3058 89ZM60.2411 93.2522L60.2411 93.8013L59.7623 93.8013L59.7623 93.2522L60.2411 93.2522ZM60.2076 89L60.2076 92.4286L59.7958 92.4286L59.7958 89L60.2076 89ZM56.5413 89.9408C56.5413 89.8025 56.5681 89.6719 56.6217 89.5491C56.673 89.4263 56.7444 89.3192 56.8359 89.2277C56.9275 89.1362 57.0346 89.0636 57.1574 89.01C57.2801 88.9587 57.4107 88.933 57.5491 88.933L57.8237 88.933C57.9621 88.933 58.0926 88.9587 58.2154 89.01C58.3382 89.0636 58.4453 89.1362 58.5368 89.2277C58.6283 89.3192 58.7009 89.4263 58.7545 89.5491C58.8058 89.6719 58.8315 89.8025 58.8315 89.9408L58.8315 91.4877C58.8315 91.6261 58.8058 91.7567 58.7545 91.8795C58.7009 92.0022 58.6283 92.1094 58.5368 92.2009C58.4453 92.2924 58.3382 92.3638 58.2154 92.4152C58.0926 92.4688 57.9621 92.4955 57.8237 92.4955L57.5491 92.4955C57.4107 92.4955 57.2801 92.4688 57.1574 92.4152C57.0346 92.3638 56.9275 92.2924 56.8359 92.2009C56.7444 92.1094 56.673 92.0022 56.6217 91.8795C56.5681 91.7567 56.5413 91.6261 56.5413 91.4877L56.5413 91.3504L56.9531 91.2835L56.9531 91.5112C56.9531 91.5938 56.9687 91.6708 57 91.7422C57.0312 91.8158 57.0737 91.8795 57.1272 91.933C57.1808 91.9866 57.2444 92.029 57.3181 92.0603C57.3895 92.0915 57.4665 92.1071 57.5491 92.1071L57.8237 92.1071C57.9062 92.1071 57.9844 92.0915 58.058 92.0603C58.1295 92.029 58.192 91.9866 58.2455 91.933C58.2991 91.8795 58.3415 91.8158 58.3728 91.7422C58.404 91.6708 58.4196 91.5938 58.4196 91.5112L58.4196 89.9174C58.4196 89.8348 58.404 89.7567 58.3728 89.683C58.3415 89.6116 58.2991 89.5491 58.2455 89.4955C58.192 89.442 58.1295 89.3996 58.058 89.3683C57.9844 89.3371 57.9062 89.3214 57.8237 89.3214L57.5491 89.3214C57.4665 89.3214 57.3895 89.3371 57.3181 89.3683C57.2444 89.3996 57.1808 89.442 57.1272 89.4955C57.0737 89.5491 57.0312 89.6116 57 89.683C56.9687 89.7567 56.9531 89.8348 56.9531 89.9174L56.9531 90.1451L56.5413 90.0781L56.5413 89.9408ZM53.4275 89.9408C53.4275 89.8025 53.4542 89.6719 53.5078 89.5491C53.5592 89.4263 53.6306 89.3192 53.7221 89.2277C53.8136 89.1362 53.9208 89.0636 54.0435 89.01C54.1663 88.9587 54.2969 88.933 54.4353 88.933L54.7098 88.933C54.8482 88.933 54.9788 88.9587 55.1016 89.01C55.2243 89.0636 55.3315 89.1362 55.423 89.2277C55.5145 89.3192 55.5871 89.4263 55.6406 89.5491C55.692 89.6719 55.7176 89.8025 55.7176 89.9408L55.7176 91.4877C55.7176 91.6261 55.692 91.7567 55.6406 91.8795C55.5871 92.0022 55.5145 92.1094 55.423 92.2009C55.3315 92.2924 55.2243 92.3638 55.1016 92.4152C54.9788 92.4688 54.8482 92.4955 54.7098 92.4955L54.4353 92.4955C54.2969 92.4955 54.1663 92.4688 54.0435 92.4152C53.9208 92.3638 53.8136 92.2924 53.7221 92.2009C53.6306 92.1094 53.5592 92.0022 53.5078 91.8795C53.4542 91.7567 53.4275 91.6261 53.4275 91.4877L53.4275 90.6808L55.3058 90.6808L55.3058 89.9174C55.3058 89.8348 55.2902 89.7567 55.2589 89.683C55.2277 89.6116 55.1853 89.5491 55.1317 89.4955C55.0781 89.442 55.0156 89.3996 54.9442 89.3683C54.8705 89.3371 54.7924 89.3214 54.7098 89.3214L54.4353 89.3214C54.3527 89.3214 54.2757 89.3371 54.2042 89.3683C54.1306 89.3996 54.067 89.442 54.0134 89.4955C53.9598 89.5491 53.9174 89.6116 53.8862 89.683C53.8549 89.7567 53.8393 89.8348 53.8393 89.9174L53.8393 90.1451L53.4275 90.0781L53.4275 89.9408ZM53.8393 91.5112C53.8393 91.5938 53.8549 91.6708 53.8862 91.7422C53.9174 91.8158 53.9598 91.8795 54.0134 91.933C54.067 91.9866 54.1306 92.029 54.2042 92.0603C54.2757 92.0915 54.3527 92.1071 54.4353 92.1071L54.7098 92.1071C54.7924 92.1071 54.8705 92.0915 54.9442 92.0603C55.0156 92.029 55.0781 91.9866 55.1317 91.933C55.1853 91.8795 55.2277 91.8158 55.2589 91.7422C55.2902 91.6708 55.3058 91.5938 55.3058 91.5112L55.3058 91.0022L53.8393 91.0022L53.8393 91.5112Z" fill="#FDCED2"/>
</g>
<path d="M57.2879 39.8214C57.2879 39.9844 57.2567 40.1373 57.1942 40.2801C57.1339 40.423 57.0502 40.548 56.9431 40.6551C56.8359 40.7623 56.7098 40.8471 56.5647 40.9096C56.4219 40.9699 56.269 41 56.106 41L54.5859 41L54.5859 36.1987L56.106 36.1987C56.269 36.1987 56.4219 36.2299 56.5647 36.2924C56.7098 36.3527 56.8359 36.4364 56.9431 36.5435C57.0502 36.6507 57.1339 36.7768 57.1942 36.9219C57.2567 37.0647 57.2879 37.2176 57.2879 37.3806L57.2879 39.8214ZM56.856 37.3806C56.856 37.2734 56.8359 37.1741 56.7958 37.0826C56.7556 36.9888 56.6998 36.9074 56.6283 36.8382C56.5592 36.7667 56.4777 36.7109 56.3839 36.6708C56.2924 36.6306 56.1931 36.6105 56.0859 36.6105L55.0179 36.6105L55.0179 40.5882L56.0859 40.5882C56.1931 40.5882 56.2924 40.5681 56.3839 40.5279C56.4777 40.4877 56.5592 40.433 56.6283 40.3638C56.6998 40.2946 56.7556 40.2143 56.7958 40.1228C56.8359 40.029 56.856 39.9286 56.856 39.8214L56.856 37.3806ZM60.4687 40.0592C60.4687 40.1975 60.442 40.3281 60.3884 40.4509C60.3371 40.5737 60.2656 40.6808 60.1741 40.7723C60.0826 40.8638 59.9754 40.9364 59.8527 40.99C59.7299 41.0413 59.5993 41.067 59.4609 41.067L59.1864 41.067C59.048 41.067 58.9174 41.0413 58.7946 40.99C58.6719 40.9364 58.5647 40.8638 58.4732 40.7723C58.3817 40.6808 58.3092 40.5737 58.2556 40.4509C58.2042 40.3281 58.1786 40.1975 58.1786 40.0592L58.1786 38.5123C58.1786 38.3739 58.2042 38.2433 58.2556 38.1205C58.3092 37.9978 58.3817 37.8906 58.4732 37.7991C58.5647 37.7076 58.6719 37.6362 58.7946 37.5848C58.9174 37.5313 59.048 37.5045 59.1864 37.5045L59.4609 37.5045C59.5993 37.5045 59.7299 37.5313 59.8527 37.5848C59.9754 37.6362 60.0826 37.7076 60.1741 37.7991C60.2656 37.8906 60.3371 37.9978 60.3884 38.1205C60.442 38.2433 60.4687 38.3739 60.4687 38.5123L60.4687 40.0592ZM60.0569 38.4888C60.0569 38.4063 60.0413 38.3292 60.01 38.2578C59.9788 38.1842 59.9364 38.1205 59.8828 38.067C59.8292 38.0134 59.7656 37.971 59.692 37.9397C59.6205 37.9085 59.5435 37.8929 59.4609 37.8929L59.1864 37.8929C59.1038 37.8929 59.0257 37.9085 58.952 37.9397C58.8806 37.971 58.8181 38.0134 58.7645 38.067C58.7109 38.1205 58.6685 38.1842 58.6373 38.2578C58.606 38.3292 58.5904 38.4063 58.5904 38.4888L58.5904 40.0826C58.5904 40.1652 58.606 40.2433 58.6373 40.317C58.6685 40.3884 58.7109 40.4509 58.7645 40.5045C58.8181 40.558 58.8806 40.6004 58.952 40.6317C59.0257 40.6629 59.1038 40.6786 59.1864 40.6786L59.4609 40.6786C59.5435 40.6786 59.6205 40.6629 59.692 40.6317C59.7656 40.6004 59.8292 40.558 59.8828 40.5045C59.9364 40.4509 59.9788 40.3884 60.01 40.317C60.0413 40.2433 60.0569 40.1652 60.0569 40.0826L60.0569 38.4888ZM63.5826 40.0592C63.5826 40.1975 63.5558 40.3281 63.5022 40.4509C63.4509 40.5737 63.3795 40.6808 63.2879 40.7723C63.1964 40.8638 63.0893 40.9364 62.9665 40.99C62.8437 41.0413 62.7132 41.067 62.5748 41.067L62.3002 41.067C62.1618 41.067 62.0312 41.0413 61.9085 40.99C61.7857 40.9364 61.6786 40.8638 61.5871 40.7723C61.4955 40.6808 61.423 40.5737 61.3694 40.4509C61.3181 40.3281 61.2924 40.1975 61.2924 40.0592L61.2924 38.5123C61.2924 38.3739 61.3181 38.2433 61.3694 38.1205C61.423 37.9978 61.4955 37.8906 61.5871 37.7991C61.6786 37.7076 61.7857 37.6362 61.9085 37.5848C62.0312 37.5313 62.1618 37.5045 62.3002 37.5045L62.5748 37.5045C62.7132 37.5045 62.8437 37.5313 62.9665 37.5848C63.0893 37.6362 63.1964 37.7076 63.2879 37.7991C63.3795 37.8906 63.4509 37.9978 63.5022 38.1205C63.5558 38.2433 63.5826 38.3739 63.5826 38.5123L63.5826 40.0592ZM63.1708 38.4888C63.1708 38.4063 63.1551 38.3292 63.1239 38.2578C63.0926 38.1842 63.0502 38.1205 62.9967 38.067C62.9431 38.0134 62.8795 37.971 62.8058 37.9397C62.7344 37.9085 62.6574 37.8929 62.5748 37.8929L62.3002 37.8929C62.2176 37.8929 62.1395 37.9085 62.0658 37.9397C61.9944 37.971 61.9319 38.0134 61.8783 38.067C61.8248 38.1205 61.7824 38.1842 61.7511 38.2578C61.7199 38.3292 61.7042 38.4063 61.7042 38.4888L61.7042 40.0826C61.7042 40.1652 61.7199 40.2433 61.7511 40.317C61.7824 40.3884 61.8248 40.4509 61.8783 40.5045C61.9319 40.558 61.9944 40.6004 62.0658 40.6317C62.1395 40.6629 62.2176 40.6786 62.3002 40.6786L62.5748 40.6786C62.6574 40.6786 62.7344 40.6629 62.8058 40.6317C62.8795 40.6004 62.9431 40.558 62.9967 40.5045C63.0502 40.4509 63.0926 40.3884 63.1239 40.317C63.1551 40.2433 63.1708 40.1652 63.1708 40.0826L63.1708 38.4888ZM65.4141 37.9632C65.3315 37.9632 65.2533 37.9788 65.1797 38.01C65.1083 38.0413 65.0458 38.0837 64.9922 38.1373C64.9386 38.1908 64.8962 38.2545 64.865 38.3281C64.8337 38.3996 64.8181 38.4766 64.8181 38.5592L64.8181 41L64.4063 41L64.4063 37.5714L64.5435 37.5714L64.7679 37.9196C64.8616 37.7924 64.9788 37.692 65.1194 37.6183C65.2623 37.5424 65.4174 37.5045 65.5848 37.5045L65.8259 37.5045L65.8259 37.9632L65.4141 37.9632Z" fill="#FDCED2"/>
<path d="M31.6105 68.8504H36V69.2824H31.6105V70.4275H31.1987V67.7054H31.6105V68.8504ZM35.0592 65.1373C35.1975 65.1373 35.3281 65.1641 35.4509 65.2176C35.5737 65.269 35.6808 65.3404 35.7723 65.4319C35.8638 65.5234 35.9364 65.6306 35.99 65.7533C36.0413 65.8761 36.067 66.0067 36.067 66.1451V66.4196C36.067 66.558 36.0413 66.6886 35.99 66.8114C35.9364 66.9342 35.8638 67.0413 35.7723 67.1328C35.6808 67.2243 35.5737 67.2969 35.4509 67.3504C35.3281 67.4018 35.1975 67.4275 35.0592 67.4275H33.5123C33.3739 67.4275 33.2433 67.4018 33.1205 67.3504C32.9978 67.2969 32.8906 67.2243 32.7991 67.1328C32.7076 67.0413 32.6362 66.9342 32.5848 66.8114C32.5312 66.6886 32.5045 66.558 32.5045 66.4196V66.1451C32.5045 66.0067 32.5312 65.8761 32.5848 65.7533C32.6362 65.6306 32.7076 65.5234 32.7991 65.4319C32.8906 65.3404 32.9978 65.269 33.1205 65.2176C33.2433 65.1641 33.3739 65.1373 33.5123 65.1373H34.3192V67.0156H35.0826C35.1652 67.0156 35.2433 67 35.317 66.9687C35.3884 66.9375 35.4509 66.8951 35.5045 66.8415C35.558 66.7879 35.6004 66.7254 35.6317 66.654C35.6629 66.5804 35.6786 66.5022 35.6786 66.4196V66.1451C35.6786 66.0625 35.6629 65.9855 35.6317 65.9141C35.6004 65.8404 35.558 65.7768 35.5045 65.7232C35.4509 65.6696 35.3884 65.6272 35.317 65.596C35.2433 65.5647 35.1652 65.5491 35.0826 65.5491H34.8549L34.9219 65.1373H35.0592ZM33.4888 65.5491C33.4062 65.5491 33.3292 65.5647 33.2578 65.596C33.1842 65.6272 33.1205 65.6696 33.067 65.7232C33.0134 65.7768 32.971 65.8404 32.9397 65.9141C32.9085 65.9855 32.8929 66.0625 32.8929 66.1451V66.4196C32.8929 66.5022 32.9085 66.5804 32.9397 66.654C32.971 66.7254 33.0134 66.7879 33.067 66.8415C33.1205 66.8951 33.1842 66.9375 33.2578 66.9687C33.3292 67 33.4062 67.0156 33.4888 67.0156H33.9978V65.5491H33.4888ZM36 62.5391L34.6842 63.2723L36 64.0056V64.4509L34.2857 63.49L32.5714 64.4509V64.0056L33.8873 63.2723L32.5714 62.5391V62.0937L34.2857 63.0513L36 62.0937V62.5391ZM36 60.1585C36 60.2835 35.9766 60.4018 35.9297 60.5134C35.8828 60.6228 35.8181 60.7188 35.7355 60.8013C35.6529 60.8817 35.5569 60.9464 35.4475 60.9955C35.3382 61.0424 35.221 61.0658 35.096 61.0658H32.9632V61.6819H32.5714V61.0658H31.7478L31.6808 60.654H32.5714V59.7835H32.9632V60.654H35.1161C35.1853 60.654 35.25 60.6417 35.3103 60.6172C35.3683 60.5904 35.4196 60.5547 35.4643 60.51C35.5089 60.4654 35.5446 60.4129 35.5714 60.3527C35.596 60.2924 35.6083 60.2277 35.6083 60.1585V59.7835H36V60.1585Z" fill="#FDCED2"/>
<g opacity="0.3">
<path fill-rule="evenodd" clip-rule="evenodd" d="M36.0046 92.0626L34.2928 90.3508C34.0978 90.1558 33.7817 90.1558 33.5867 90.3508C33.3917 90.5458 33.3917 90.862 33.5867 91.057L34.5474 92.0176C33.5132 92.008 32.7351 91.8153 32.2755 91.3122C31.7967 90.7881 31.6115 90.373 31.6115 88.9994C31.6115 88.7236 31.3879 88.5 31.1121 88.5C30.8364 88.5 30.6128 88.7236 30.6128 88.9994C30.6128 90.5603 30.8537 91.2365 31.5382 91.9857C32.1793 92.6875 33.1658 92.9743 34.3488 93.0123L33.584 93.777C33.389 93.972 33.389 94.2881 33.584 94.4831C33.779 94.6781 34.0951 94.6781 34.2901 94.4831L36.0046 92.7687C36.1996 92.5737 36.1996 92.2576 36.0046 92.0626Z" fill="black"/>
<path fill-rule="evenodd" clip-rule="evenodd" d="M83.2967 92.0626L85.0091 90.3508C85.2041 90.1558 85.5204 90.1558 85.7155 90.3508C85.9106 90.5458 85.9106 90.862 85.7155 91.057L84.7544 92.0177C85.789 92.0081 86.5675 91.8154 87.0273 91.3122C87.5062 90.7882 87.6916 90.3731 87.6916 88.9994C87.6916 88.7236 87.9152 88.5001 88.1911 88.5001C88.4669 88.5001 88.6906 88.7236 88.6906 88.9994C88.6906 90.5603 88.4496 91.2365 87.7649 91.9858C87.1235 92.6876 86.1366 92.9744 84.9532 93.0123L85.7182 93.777C85.9133 93.972 85.9133 94.2881 85.7182 94.4831C85.5231 94.6781 85.2069 94.6781 85.0118 94.4831L83.2967 92.7687C83.1016 92.5737 83.1016 92.2576 83.2967 92.0626Z" fill="black"/>
<path fill-rule="evenodd" clip-rule="evenodd" d="M83.2986 38.0668L85.0104 39.7786C85.2054 39.9736 85.5215 39.9736 85.7165 39.7786C85.9115 39.5836 85.9115 39.2674 85.7165 39.0724L84.7559 38.1118C85.79 38.1214 86.5681 38.3141 87.0278 38.8172C87.5065 39.3412 87.6918 39.7563 87.6918 41.13C87.6918 41.4058 87.9153 41.6294 88.1911 41.6294C88.4669 41.6294 88.6904 41.4058 88.6904 41.13C88.6904 39.5691 88.4495 38.8929 87.7651 38.1437C87.1239 37.4418 86.1374 37.1551 84.9545 37.1171L85.7192 36.3524C85.9142 36.1574 85.9142 35.8412 85.7192 35.6462C85.5242 35.4513 85.2081 35.4513 85.0131 35.6462L83.2986 37.3607C83.1036 37.5557 83.1036 37.8718 83.2986 38.0668Z" fill="black"/>
<path fill-rule="evenodd" clip-rule="evenodd" d="M36.006 38.0668L34.2937 39.7786C34.0986 39.9736 33.7823 39.9736 33.5873 39.7786C33.3922 39.5836 33.3922 39.2674 33.5873 39.0724L34.5483 38.1117C33.5137 38.1213 32.7353 38.314 32.2754 38.8172C31.7965 39.3412 31.6112 39.7563 31.6112 41.13C31.6112 41.4058 31.3875 41.6293 31.1117 41.6293C30.8358 41.6293 30.6122 41.4058 30.6122 41.13C30.6122 39.5691 30.8531 38.8929 31.5378 38.1436C32.1792 37.4418 33.1662 37.155 34.3495 37.1171L33.5845 36.3524C33.3895 36.1574 33.3895 35.8412 33.5845 35.6462C33.7796 35.4512 34.0959 35.4512 34.291 35.6462L36.006 37.3607C36.2011 37.5557 36.2011 37.8718 36.006 38.0668Z" fill="black"/>
</g>
</g>
<g style="mix-blend-mode:luminosity">
<path d="M13.2344 111.65L4.44531 111.65L4.15234 111.029L4.15234 107.314L4.21094 107.314L5.21875 107.789L5.21875 110.479L8.04297 110.479L8.04297 107.314L8.10156 107.314L9.10938 107.789L9.10938 110.479L12.707 110.479L13.2344 111.592L13.2344 111.65ZM11.4766 104.502C11.6719 104.502 11.8184 104.381 11.916 104.139C12.0137 103.893 12.0625 103.594 12.0625 103.242C12.0625 102.891 12.0137 102.594 11.916 102.352C11.8184 102.105 11.6719 101.982 11.4766 101.982L8.07813 101.982C7.88281 101.982 7.73633 102.105 7.63867 102.352C7.54102 102.594 7.49219 102.891 7.49219 103.242C7.49219 103.594 7.54102 103.893 7.63867 104.139C7.73633 104.381 7.88281 104.502 8.07813 104.502L11.4766 104.502ZM11.6816 105.674L7.87305 105.674C7.35742 105.674 6.95508 105.309 6.66602 104.578C6.51367 104.184 6.4375 103.738 6.4375 103.242C6.4375 102.746 6.51367 102.301 6.66602 101.906C6.95508 101.176 7.35742 100.811 7.87305 100.811L11.6816 100.811C12.1973 100.811 12.5996 101.176 12.8887 101.906C13.041 102.301 13.1172 102.746 13.1172 103.242C13.1172 103.738 13.041 104.184 12.8887 104.578C12.5996 105.309 12.1973 105.674 11.6816 105.674ZM6.84766 99.0527L6.32031 97.9395L6.32031 97.8809L11.4766 97.8809C11.6719 97.8809 11.8184 97.7598 11.916 97.5176C12.0137 97.2715 12.0625 96.9727 12.0625 96.6211C12.0625 96.2695 12.0137 95.9727 11.916 95.7305C11.8184 95.4844 11.6719 95.3613 11.4766 95.3613L6.84766 95.3613L6.32031 94.248L6.32031 94.1895L14.084 94.1895C14.6074 94.1895 15.0098 94.5547 15.291 95.2852C15.4434 95.6797 15.5195 96.125 15.5195 96.6211L15.5195 98.4434L15.4609 98.4434L14.4648 97.9746L14.4648 96.6211C14.4648 96.2695 14.416 95.9727 14.3184 95.7305C14.2207 95.4844 14.0742 95.3613 13.8789 95.3613L12.918 95.3613C13.0508 95.7363 13.1172 96.1563 13.1172 96.6211C13.1172 97.1172 13.041 97.5625 12.8887 97.957C12.6074 98.6875 12.2051 99.0527 11.6816 99.0527L6.84766 99.0527ZM10.4043 87.2754L11.6816 87.2754C12.1973 87.2754 12.5996 87.6406 12.8887 88.3711C13.041 88.7656 13.1172 89.2109 13.1172 89.707C13.1172 90.2031 13.041 90.6484 12.8887 91.043C12.5996 91.7734 12.1973 92.1387 11.6816 92.1387L7.87305 92.1387C7.35742 92.1387 6.95508 91.7734 6.66602 91.043C6.51367 90.6484 6.4375 90.2031 6.4375 89.707C6.4375 89.2109 6.51367 88.7656 6.66602 88.3711C6.95508 87.6406 7.35742 87.2754 7.87305 87.2754L8.62305 87.2754L11.4766 90.9668C11.6719 90.9668 11.8184 90.8457 11.916 90.6035C12.0137 90.3574 12.0625 90.0586 12.0625 89.707C12.0625 89.3555 12.0137 89.0586 11.916 88.8164C11.8184 88.5703 11.6719 88.4473 11.4766 88.4473L10.9316 88.4473L10.4043 87.334L10.4043 87.2754ZM10.2402 90.9668L8.21289 88.4473L8.07813 88.4473C7.88281 88.4473 7.73633 88.5703 7.63867 88.8164C7.54102 89.0586 7.49219 89.3555 7.49219 89.707C7.49219 90.0586 7.54102 90.3574 7.63867 90.6035C7.73633 90.8457 7.88281 90.9668 8.07813 90.9668L10.2402 90.9668ZM13.2344 85.5176L7.87305 85.5176C7.34961 85.5176 6.94727 85.1523 6.66602 84.4219C6.51367 84.0273 6.4375 83.582 6.4375 83.0859L6.4375 82.2949L6.4961 82.2949L7.49219 82.7637L7.49219 83.0859C7.49219 83.4375 7.54102 83.7363 7.63867 83.9824C7.73633 84.2246 7.88281 84.3457 8.07813 84.3457L12.707 84.3457L13.2344 85.459L13.2344 85.5176Z" fill="#FC9CA4"/>
</g>
<g style="mix-blend-mode:luminosity">
<path d="M73.8457 20.2344L73.8457 12.2187L71.3379 12.2187L71.3379 12.1602L71.8125 11.1523L77.5254 11.1523L77.5254 11.2109L77.0508 12.2187L75.0176 12.2187L75.0176 19.707L73.9043 20.2344L73.8457 20.2344ZM78.2285 12.2598C78.0918 12.1191 78.0234 11.9512 78.0234 11.7559C78.0234 11.5566 78.0918 11.3867 78.2285 11.2461C78.3652 11.1055 78.5313 11.0352 78.7266 11.0352C78.9219 11.0352 79.0879 11.1055 79.2246 11.2461C79.3613 11.3867 79.4297 11.5566 79.4297 11.7559C79.4297 11.9512 79.3613 12.1191 79.2246 12.2598C79.0879 12.4004 78.9219 12.4707 78.7266 12.4707C78.5313 12.4707 78.3652 12.4004 78.2285 12.2598ZM78.1406 20.2344L78.1406 13.8477L79.2539 13.3203L79.3125 13.3203L79.3125 19.707L78.1992 20.2344L78.1406 20.2344ZM81.3633 20.2344L81.3633 14.873C81.3633 14.3496 81.7285 13.9473 82.459 13.666C82.8535 13.5137 83.2988 13.4375 83.7949 13.4375C84.2832 13.4375 84.7285 13.5137 85.1309 13.666C85.3262 13.7402 85.4961 13.8242 85.6406 13.918C85.7852 13.8242 85.9551 13.7402 86.1504 13.666C86.5527 13.5137 86.998 13.4375 87.4863 13.4375C87.9824 13.4375 88.4277 13.5137 88.8223 13.666C89.5527 13.9473 89.918 14.3496 89.918 14.873L89.918 19.707L88.8047 20.2344L88.7461 20.2344L88.7461 15.0781C88.7461 14.8828 88.623 14.7363 88.377 14.6387C88.1348 14.541 87.8379 14.4922 87.4863 14.4922C87.1348 14.4922 86.8359 14.541 86.5898 14.6387C86.3477 14.7363 86.2266 14.8828 86.2266 15.0781L86.2266 19.707L85.1133 20.2344L85.0547 20.2344L85.0547 15.0781C85.0547 14.8828 84.9316 14.7363 84.6855 14.6387C84.4434 14.541 84.1465 14.4922 83.7949 14.4922C83.4434 14.4922 83.1445 14.541 82.8984 14.6387C82.6563 14.7363 82.5352 14.8828 82.5352 15.0781L82.5352 19.707L81.4219 20.2344L81.3633 20.2344ZM96.5391 17.4043L96.5391 18.6816C96.5391 19.1973 96.1738 19.5996 95.4434 19.8887C95.0488 20.041 94.6035 20.1172 94.1074 20.1172C93.6113 20.1172 93.166 20.041 92.7715 19.8887C92.041 19.5996 91.6758 19.1973 91.6758 18.6816L91.6758 14.873C91.6758 14.3574 92.041 13.9551 92.7715 13.666C93.166 13.5137 93.6113 13.4375 94.1074 13.4375C94.6035 13.4375 95.0488 13.5137 95.4434 13.666C96.1738 13.9551 96.5391 14.3574 96.5391 14.873L96.5391 15.623L92.8477 18.4766C92.8477 18.6719 92.9688 18.8184 93.2109 18.916C93.457 19.0137 93.7559 19.0625 94.1074 19.0625C94.459 19.0625 94.7559 19.0137 94.998 18.916C95.2441 18.8184 95.3672 18.6719 95.3672 18.4766L95.3672 17.9316L96.4805 17.4043L96.5391 17.4043ZM92.8477 17.2402L95.3672 15.2129L95.3672 15.0781C95.3672 14.8828 95.2441 14.7363 94.998 14.6387C94.7559 14.541 94.459 14.4922 94.1074 14.4922C93.7559 14.4922 93.457 14.541 93.2109 14.6387C92.9688 14.7363 92.8477 14.8828 92.8477 15.0781L92.8477 17.2402ZM98.5898 20.2344L98.5898 11.4453L99.7031 10.918L99.7617 10.918L99.7617 19.707L98.6484 20.2344L98.5898 20.2344ZM102.193 12.2598C102.057 12.1191 101.988 11.9512 101.988 11.7559C101.988 11.5566 102.057 11.3867 102.193 11.2461C102.33 11.1055 102.496 11.0352 102.691 11.0352C102.887 11.0352 103.053 11.1055 103.189 11.2461C103.326 11.3867 103.395 11.5566 103.395 11.7559C103.395 11.9512 103.326 12.1191 103.189 12.2598C103.053 12.4004 102.887 12.4707 102.691 12.4707C102.496 12.4707 102.33 12.4004 102.193 12.2598ZM102.105 20.2344L102.105 13.8477L103.219 13.3203L103.277 13.3203L103.277 19.707L102.164 20.2344L102.105 20.2344ZM105.328 20.2344L105.328 14.873C105.328 14.3496 105.693 13.9473 106.424 13.666C106.818 13.5137 107.264 13.4375 107.76 13.4375C108.256 13.4375 108.701 13.5137 109.096 13.666C109.826 13.9473 110.191 14.3496 110.191 14.873L110.191 19.707L109.078 20.2344L109.02 20.2344L109.02 15.0781C109.02 14.8828 108.896 14.7363 108.65 14.6387C108.408 14.541 108.111 14.4922 107.76 14.4922C107.408 14.4922 107.109 14.541 106.863 14.6387C106.621 14.7363 106.5 14.8828 106.5 15.0781L106.5 19.707L105.387 20.2344L105.328 20.2344ZM116.813 17.4043L116.813 18.6816C116.813 19.1973 116.447 19.5996 115.717 19.8887C115.322 20.041 114.877 20.1172 114.381 20.1172C113.885 20.1172 113.439 20.041 113.045 19.8887C112.314 19.5996 111.949 19.1973 111.949 18.6816L111.949 14.873C111.949 14.3574 112.314 13.9551 113.045 13.666C113.439 13.5137 113.885 13.4375 114.381 13.4375C114.877 13.4375 115.322 13.5137 115.717 13.666C116.447 13.9551 116.813 14.3574 116.813 14.873L116.813 15.623L113.121 18.4766C113.121 18.6719 113.242 18.8184 113.484 18.916C113.73 19.0137 114.029 19.0625 114.381 19.0625C114.732 19.0625 115.029 19.0137 115.271 18.916C115.518 18.8184 115.641 18.6719 115.641 18.4766L115.641 17.9316L116.754 17.4043L116.813 17.4043ZM113.121 17.2402L115.641 15.2129L115.641 15.0781C115.641 14.8828 115.518 14.7363 115.271 14.6387C115.029 14.541 114.732 14.4922 114.381 14.4922C114.029 14.4922 113.73 14.541 113.484 14.6387C113.242 14.7363 113.121 14.8828 113.121 15.0781L113.121 17.2402Z" fill="#FC9CA4"/>
</g>
<g style="mix-blend-mode:luminosity">
<path d="M176.223 80.0977L174.816 80.0977C174.102 80.0977 173.561 79.6543 173.193 78.7676C172.986 78.2715 172.883 77.7285 172.883 77.1387C172.883 76.5488 172.986 76.0059 173.193 75.5098C173.561 74.623 174.102 74.1797 174.816 74.1797L180.031 74.1797C180.746 74.1797 181.287 74.623 181.654 75.5098C181.861 76.0059 181.965 76.5488 181.965 77.1387C181.965 77.7285 181.861 78.2715 181.654 78.7676C181.287 79.6543 180.746 80.0977 180.031 80.0977L179.152 80.0977L178.625 78.9844L178.625 78.9258L180.031 78.9258C180.297 78.9258 180.525 78.6895 180.717 78.2168C180.846 77.8887 180.91 77.5293 180.91 77.1387C180.91 76.748 180.846 76.3887 180.717 76.0605C180.529 75.5879 180.301 75.3516 180.031 75.3516L174.816 75.3516C174.551 75.3516 174.322 75.5879 174.131 76.0605C174.002 76.3887 173.938 76.748 173.938 77.1387C173.938 77.5293 174.002 77.8887 174.131 78.2168C174.318 78.6895 174.547 78.9258 174.816 78.9258L175.695 78.9258L176.223 80.0391L176.223 80.0977ZM174.523 83.3203C174.328 83.3203 174.182 83.4414 174.084 83.6836C173.986 83.9297 173.938 84.2285 173.938 84.5801C173.938 84.9316 173.986 85.2285 174.084 85.4707C174.182 85.7168 174.328 85.8398 174.523 85.8398L177.922 85.8398C178.117 85.8398 178.264 85.7168 178.361 85.4707C178.459 85.2285 178.508 84.9316 178.508 84.5801C178.508 84.2285 178.459 83.9297 178.361 83.6836C178.264 83.4414 178.117 83.3203 177.922 83.3203L174.523 83.3203ZM174.318 82.1484L178.127 82.1484C178.643 82.1484 179.045 82.5137 179.334 83.2441C179.486 83.6387 179.563 84.084 179.563 84.5801C179.563 85.0762 179.486 85.5215 179.334 85.916C179.045 86.6465 178.643 87.0117 178.127 87.0117L174.318 87.0117C173.803 87.0117 173.4 86.6465 173.111 85.916C172.959 85.5215 172.883 85.0762 172.883 84.5801C172.883 84.084 172.959 83.6387 173.111 83.2441C173.4 82.5137 173.803 82.1484 174.318 82.1484ZM172.766 89.0625L181.555 89.0625L182.082 90.1758L182.082 90.2344L173.293 90.2344L172.766 89.1211L172.766 89.0625ZM174.523 93.457C174.328 93.457 174.182 93.5781 174.084 93.8203C173.986 94.0664 173.938 94.3652 173.938 94.7168C173.938 95.0684 173.986 95.3652 174.084 95.6074C174.182 95.8535 174.328 95.9766 174.523 95.9766L177.922 95.9766C178.117 95.9766 178.264 95.8535 178.361 95.6074C178.459 95.3652 178.508 95.0684 178.508 94.7168C178.508 94.3652 178.459 94.0664 178.361 93.8203C178.264 93.5781 178.117 93.457 177.922 93.457L174.523 93.457ZM174.318 92.2852L178.127 92.2852C178.643 92.2852 179.045 92.6504 179.334 93.3809C179.486 93.7754 179.563 94.2207 179.563 94.7168C179.563 95.2129 179.486 95.6582 179.334 96.0527C179.045 96.7832 178.643 97.1484 178.127 97.1484L174.318 97.1484C173.803 97.1484 173.4 96.7832 173.111 96.0527C172.959 95.6582 172.883 95.2129 172.883 94.7168C172.883 94.2207 172.959 93.7754 173.111 93.3809C173.4 92.6504 173.803 92.2852 174.318 92.2852ZM172.766 98.9063L178.127 98.9063C178.65 98.9063 179.053 99.2715 179.334 100.002C179.486 100.396 179.563 100.842 179.563 101.338L179.563 102.129L179.504 102.129L178.508 101.66L178.508 101.338C178.508 100.986 178.459 100.688 178.361 100.441C178.264 100.199 178.117 100.078 177.922 100.078L173.293 100.078L172.766 98.9648L172.766 98.9063ZM173.293 107.578L172.766 106.465L172.766 106.406L173.082 106.406C172.949 106.031 172.883 105.631 172.883 105.205C172.883 104.748 172.959 104.322 173.111 103.928C173.4 103.197 173.803 102.832 174.318 102.832L175.9 102.832C176.424 102.832 176.826 103.197 177.107 103.928C177.26 104.322 177.336 104.748 177.336 105.205C177.336 105.635 177.27 106.035 177.137 106.406L177.922 106.406C178.117 106.406 178.264 106.283 178.361 106.037C178.459 105.795 178.508 105.498 178.508 105.146L178.508 103.723L178.566 103.723L179.563 104.191L179.563 105.146C179.563 105.643 179.486 106.088 179.334 106.482C179.053 107.213 178.65 107.578 178.127 107.578L173.293 107.578ZM174.523 104.004C174.328 104.004 174.182 104.125 174.084 104.367C173.986 104.613 173.938 104.893 173.938 105.205C173.938 105.518 173.986 105.795 174.084 106.037C174.182 106.283 174.328 106.406 174.523 106.406L175.695 106.406C175.891 106.406 176.037 106.283 176.135 106.037C176.232 105.795 176.281 105.518 176.281 105.205C176.281 104.893 176.232 104.613 176.135 104.367C176.037 104.125 175.891 104.004 175.695 104.004L174.523 104.004ZM174.318 109.336C174.318 109.336 175.588 109.336 178.127 109.336C178.65 109.336 179.053 109.701 179.334 110.432C179.486 110.826 179.563 111.271 179.563 111.768C179.563 112.232 179.496 112.652 179.363 113.027L181.555 113.027L182.082 114.141L182.082 114.199L174.318 114.199C173.795 114.199 173.393 113.834 173.111 113.104C172.959 112.709 172.883 112.264 172.883 111.768C172.883 111.271 172.959 110.826 173.111 110.432C173.4 109.701 173.803 109.336 174.318 109.336ZM174.523 110.508C174.328 110.508 174.182 110.629 174.084 110.871C173.986 111.117 173.938 111.416 173.938 111.768C173.938 112.119 173.986 112.416 174.084 112.658C174.182 112.904 174.328 113.027 174.523 113.027L177.922 113.027C178.117 113.027 178.264 112.904 178.361 112.658C178.459 112.416 178.508 112.119 178.508 111.768C178.508 111.416 178.459 111.117 178.361 110.871C178.264 110.629 178.117 110.508 177.922 110.508L174.523 110.508ZM174.523 117.422C174.328 117.422 174.182 117.543 174.084 117.785C173.986 118.031 173.938 118.33 173.938 118.682C173.938 119.033 173.986 119.33 174.084 119.572C174.182 119.818 174.328 119.941 174.523 119.941L177.922 119.941C178.117 119.941 178.264 119.818 178.361 119.572C178.459 119.33 178.508 119.033 178.508 118.682C178.508 118.33 178.459 118.031 178.361 117.785C178.264 117.543 178.117 117.422 177.922 117.422L174.523 117.422ZM174.318 116.25L178.127 116.25C178.643 116.25 179.045 116.615 179.334 117.346C179.486 117.74 179.563 118.186 179.563 118.682C179.563 119.178 179.486 119.623 179.334 120.018C179.045 120.748 178.643 121.113 178.127 121.113L174.318 121.113C173.803 121.113 173.4 120.748 173.111 120.018C172.959 119.623 172.883 119.178 172.883 118.682C172.883 118.186 172.959 117.74 173.111 117.346C173.4 116.615 173.803 116.25 174.318 116.25Z" fill="#FC9CA4"/>
</g>
</g>
</g>
<rect x="-0.25" y="0.25" width="63.5" height="64" transform="matrix(-1 0 0 1 91.5 33)" stroke="#FFD666" stroke-width="0.5" stroke-dasharray="1 1"/>
<g clip-path="url(#clip4_137_5919)">
<rect x="27.25" y="113" width="64" height="64" fill="black" fill-opacity="0.5"/>
</g>
<rect x="27.55" y="113.3" width="63.4" height="63.4" stroke="#FF6673" stroke-opacity="0.7" stroke-width="0.6" stroke-dasharray="0.66 0.66"/>
<g clip-path="url(#clip5_137_5919)">
<rect x="97.75" y="113" width="64" height="64" fill="black" fill-opacity="0.5"/>
</g>
<rect x="98.05" y="113.3" width="63.4" height="63.4" stroke="#FF6673" stroke-opacity="0.7" stroke-width="0.6" stroke-dasharray="0.66 0.66"/>
<rect y="58.7903" width="189" height="40.2097" fill="url(#paint8_linear_137_5919)"/>
<path d="M60.25 64.5004C60.25 64.2243 60.0261 64.0004 59.75 64.0004C59.4738 64.0004 59.25 64.2243 59.25 64.5004L60.25 64.5004ZM59.3963 144.692C59.5916 144.887 59.9082 144.887 60.1034 144.692L63.2854 141.51C63.4807 141.315 63.4807 140.998 63.2854 140.803C63.0902 140.607 62.7736 140.607 62.5783 140.803L59.7499 143.631L56.9215 140.803C56.7262 140.607 56.4096 140.607 56.2144 140.803C56.0191 140.998 56.0191 141.315 56.2144 141.51L59.3963 144.692ZM59.25 65.4984C59.25 65.7745 59.4738 65.9984 59.75 65.9984C60.0261 65.9984 60.25 65.7745 60.25 65.4984L59.25 65.4984ZM60.25 68.4923C60.25 68.2162 60.0261 67.9923 59.75 67.9923C59.4738 67.9923 59.25 68.2162 59.25 68.4923L60.25 68.4923ZM59.25 70.4882C59.25 70.7644 59.4738 70.9882 59.75 70.9882C60.0261 70.9882 60.25 70.7644 60.25 70.4882L59.25 70.4882ZM60.25 73.4822C60.25 73.206 60.0261 72.9822 59.75 72.9822C59.4738 72.9822 59.25 73.206 59.25 73.4822L60.25 73.4822ZM59.25 75.4781C59.25 75.7542 59.4738 75.9781 59.75 75.9781C60.0261 75.9781 60.25 75.7543 60.25 75.4781L59.25 75.4781ZM60.25 78.472C60.25 78.1959 60.0261 77.972 59.75 77.972C59.4738 77.972 59.25 78.1959 59.25 78.472L60.25 78.472ZM59.25 80.468C59.25 80.7441 59.4738 80.968 59.75 80.968C60.0261 80.968 60.25 80.7441 60.25 80.468L59.25 80.468ZM60.25 83.4619C60.25 83.1858 60.0261 82.9619 59.75 82.9619C59.4738 82.9619 59.25 83.1858 59.25 83.4619L60.25 83.4619ZM59.25 85.4578C59.25 85.734 59.4738 85.9578 59.75 85.9578C60.0261 85.9578 60.25 85.734 60.25 85.4578L59.25 85.4578ZM60.25 88.4518C60.25 88.1756 60.0261 87.9518 59.75 87.9518C59.4738 87.9518 59.25 88.1756 59.25 88.4518L60.25 88.4518ZM59.25 90.4477C59.2499 90.7238 59.4738 90.9477 59.7499 90.9477C60.0261 90.9477 60.2499 90.7238 60.2499 90.4477L59.25 90.4477ZM60.2499 93.4416C60.2499 93.1655 60.0261 92.9416 59.7499 92.9416C59.4738 92.9416 59.2499 93.1655 59.2499 93.4416L60.2499 93.4416ZM59.2499 95.4376C59.2499 95.7137 59.4738 95.9376 59.7499 95.9376C60.0261 95.9376 60.2499 95.7137 60.2499 95.4376L59.2499 95.4376ZM60.2499 98.4315C60.2499 98.1554 60.0261 97.9315 59.7499 97.9315C59.4738 97.9315 59.2499 98.1553 59.2499 98.4315L60.2499 98.4315ZM59.2499 100.427C59.2499 100.704 59.4738 100.927 59.7499 100.927C60.0261 100.927 60.2499 100.704 60.2499 100.427L59.2499 100.427ZM60.2499 103.421C60.2499 103.145 60.0261 102.921 59.7499 102.921C59.4738 102.921 59.2499 103.145 59.2499 103.421L60.2499 103.421ZM59.2499 105.417C59.2499 105.693 59.4738 105.917 59.7499 105.917C60.0261 105.917 60.2499 105.693 60.2499 105.417L59.2499 105.417ZM60.2499 108.411C60.2499 108.135 60.0261 107.911 59.7499 107.911C59.4738 107.911 59.2499 108.135 59.2499 108.411L60.2499 108.411ZM59.2499 110.407C59.2499 110.683 59.4738 110.907 59.7499 110.907C60.0261 110.907 60.2499 110.683 60.2499 110.407L59.2499 110.407ZM60.2499 113.401C60.2499 113.125 60.0261 112.901 59.7499 112.901C59.4738 112.901 59.2499 113.125 59.2499 113.401L60.2499 113.401ZM59.2499 115.397C59.2499 115.673 59.4738 115.897 59.7499 115.897C60.0261 115.897 60.2499 115.673 60.2499 115.397L59.2499 115.397ZM60.2499 118.391C60.2499 118.115 60.0261 117.891 59.7499 117.891C59.4738 117.891 59.2499 118.115 59.2499 118.391L60.2499 118.391ZM59.2499 120.387C59.2499 120.663 59.4738 120.887 59.7499 120.887C60.0261 120.887 60.2499 120.663 60.2499 120.387L59.2499 120.387ZM60.2499 123.381C60.2499 123.105 60.0261 122.881 59.7499 122.881C59.4738 122.881 59.2499 123.105 59.2499 123.381L60.2499 123.381ZM59.2499 125.377C59.2499 125.653 59.4738 125.877 59.7499 125.877C60.0261 125.877 60.2499 125.653 60.2499 125.377L59.2499 125.377ZM60.2499 128.371C60.2499 128.095 60.0261 127.871 59.7499 127.871C59.4738 127.871 59.2499 128.095 59.2499 128.371L60.2499 128.371ZM59.2499 130.367C59.2499 130.643 59.4738 130.867 59.7499 130.867C60.026 130.867 60.2499 130.643 60.2499 130.367L59.2499 130.367ZM60.2499 133.361C60.2499 133.084 60.026 132.861 59.7499 132.861C59.4738 132.861 59.2499 133.084 59.2499 133.361L60.2499 133.361ZM59.2499 135.356C59.2499 135.633 59.4738 135.856 59.7499 135.856C60.026 135.856 60.2499 135.633 60.2499 135.356L59.2499 135.356ZM60.2499 138.35C60.2499 138.074 60.026 137.85 59.7499 137.85C59.4738 137.85 59.2499 138.074 59.2499 138.35L60.2499 138.35ZM59.2499 140.346C59.2499 140.623 59.4738 140.846 59.7499 140.846C60.026 140.846 60.2499 140.623 60.2499 140.346L59.2499 140.346ZM60.2499 143.34C60.2499 143.064 60.026 142.84 59.7499 142.84C59.4737 142.84 59.2499 143.064 59.2499 143.34L60.2499 143.34ZM59.25 64.5004L59.25 65.4984L60.25 65.4984L60.25 64.5004L59.25 64.5004ZM59.25 68.4923L59.25 70.4882L60.25 70.4882L60.25 68.4923L59.25 68.4923ZM59.25 73.4822L59.25 75.4781L60.25 75.4781L60.25 73.4822L59.25 73.4822ZM59.25 78.472L59.25 80.468L60.25 80.468L60.25 78.472L59.25 78.472ZM59.25 83.4619L59.25 85.4578L60.25 85.4578L60.25 83.4619L59.25 83.4619ZM59.25 88.4518L59.25 90.4477L60.2499 90.4477L60.25 88.4518L59.25 88.4518ZM59.2499 93.4416L59.2499 95.4376L60.2499 95.4376L60.2499 93.4416L59.2499 93.4416ZM59.2499 98.4315L59.2499 100.427L60.2499 100.427L60.2499 98.4315L59.2499 98.4315ZM59.2499 103.421L59.2499 105.417L60.2499 105.417L60.2499 103.421L59.2499 103.421ZM59.2499 108.411L59.2499 110.407L60.2499 110.407L60.2499 108.411L59.2499 108.411ZM59.2499 113.401L59.2499 115.397L60.2499 115.397L60.2499 113.401L59.2499 113.401ZM59.2499 118.391L59.2499 120.387L60.2499 120.387L60.2499 118.391L59.2499 118.391ZM59.2499 123.381L59.2499 125.377L60.2499 125.377L60.2499 123.381L59.2499 123.381ZM59.2499 128.371L59.2499 130.367L60.2499 130.367L60.2499 128.371L59.2499 128.371ZM59.2499 133.361L59.2499 135.356L60.2499 135.356L60.2499 133.361L59.2499 133.361ZM59.2499 138.35L59.2499 140.346L60.2499 140.346L60.2499 138.35L59.2499 138.35ZM59.2499 143.34L59.2499 144.338L60.2499 144.338L60.2499 143.34L59.2499 143.34Z" fill="url(#paint9_linear_137_5919)"/>
<defs>
<radialGradient id="paint0_radial_137_5919" cx="0" cy="0" r="1" gradientUnits="userSpaceOnUse" gradientTransform="translate(94.5 99.5) rotate(-90) scale(94.5 94.5)">
<stop stop-opacity="0"/>
<stop offset="1"/>
</radialGradient>
<linearGradient id="paint1_linear_137_5919" x1="94.5" y1="5.00001" x2="94.5" y2="30" gradientUnits="userSpaceOnUse">
<stop stop-opacity="0.61"/>
<stop offset="1" stop-opacity="0.89"/>
</linearGradient>
<linearGradient id="paint2_linear_137_5919" x1="189" y1="99.5" x2="164" y2="99.5" gradientUnits="userSpaceOnUse">
<stop stop-opacity="0.61"/>
<stop offset="1" stop-opacity="0.89"/>
</linearGradient>
<linearGradient id="paint3_linear_137_5919" x1="3.03794e-06" y1="99.5" x2="25" y2="99.5" gradientUnits="userSpaceOnUse">
<stop stop-opacity="0.61"/>
<stop offset="1" stop-opacity="0.89"/>
</linearGradient>
<linearGradient id="paint4_linear_137_5919" x1="164" y1="30.0001" x2="96.5" y2="100" gradientUnits="userSpaceOnUse">
<stop stop-opacity="0.59"/>
<stop offset="1" stop-opacity="0.13"/>
</linearGradient>
<linearGradient id="paint5_linear_137_5919" x1="25" y1="30.0001" x2="95" y2="97.5001" gradientUnits="userSpaceOnUse">
<stop stop-opacity="0.59"/>
<stop offset="1" stop-opacity="0.13"/>
</linearGradient>
<linearGradient id="paint6_linear_137_5919" x1="7.86805e-07" y1="23" x2="36" y2="23" gradientUnits="userSpaceOnUse">
<stop stop-opacity="0.12"/>
<stop offset="1" stop-color="#0B0A0A"/>
</linearGradient>
<linearGradient id="paint7_linear_137_5919" x1="171" y1="5" x2="171" y2="41" gradientUnits="userSpaceOnUse">
<stop stop-opacity="0.12"/>
<stop offset="1" stop-color="#0B0A0A"/>
</linearGradient>
<linearGradient id="paint8_linear_137_5919" x1="94.5" y1="58.7903" x2="94.5" y2="99" gradientUnits="userSpaceOnUse">
<stop stop-color="#00090F" stop-opacity="0"/>
<stop offset="1" stop-color="#00090F"/>
</linearGradient>
<linearGradient id="paint9_linear_137_5919" x1="79.6135" y1="126.333" x2="39.8864" y2="82.5057" gradientUnits="userSpaceOnUse">
<stop offset="0.415" stop-color="#FFD666"/>
<stop offset="1" stop-color="#FFD666" stop-opacity="0"/>
</linearGradient>
<clipPath id="clip0_137_5919">
<rect width="189" height="94" fill="white" transform="matrix(-1 0 0 -1 189 99)"/>
</clipPath>
<clipPath id="clip1_137_5919">
<rect width="189" height="189" fill="white" transform="matrix(-1 0 0 -1 189 194)"/>
</clipPath>
<clipPath id="clip2_137_5919">
<rect width="64" height="64" fill="white" transform="matrix(-1 0 0 -1 161 97)"/>
</clipPath>
<clipPath id="clip3_137_5919">
<rect width="64" height="64" fill="white" transform="matrix(-1 0 0 -1 92 97)"/>
</clipPath>
<clipPath id="clip4_137_5919">
<rect x="27.25" y="113" width="64" height="64" fill="white"/>
</clipPath>
<clipPath id="clip5_137_5919">
<rect x="97.75" y="113" width="64" height="64" fill="white"/>
</clipPath>
</defs>
</svg>
