<svg width="189" height="82" viewBox="0 0 189 82" fill="none" xmlns="http://www.w3.org/2000/svg">
<g clip-path="url(#clip0_145_6568)">
<g clip-path="url(#clip1_145_6568)">
<path fill-rule="evenodd" clip-rule="evenodd" d="M189 163L189 46L153 10L36 10L28.0352 30.7085L36 10L1.56881e-05 46L1.82451e-06 163L36 199L153 199L189 163Z" fill="#006AFF" fill-opacity="0.8"/>
<g style="mix-blend-mode:luminosity">
<path fill-rule="evenodd" clip-rule="evenodd" d="M189 46L94.5 104.5L153 10L35.9999 10L94.5 104.5L-4.53471e-05 46L-5.92106e-05 163L94.5 104.5L36 199L153 199L94.5 104.5L189 163L189 46Z" fill="url(#paint0_radial_145_6568)" fill-opacity="0.05"/>
<path d="M189 46L189 163L164 174L164 35L189 46Z" fill="url(#paint1_linear_145_6568)" fill-opacity="0.51"/>
<path d="M8.30474e-07 163L9.66373e-06 46L25 35L25 174L8.30474e-07 163Z" fill="url(#paint2_linear_145_6568)" fill-opacity="0.51"/>
<path d="M36 10L153 9.99999L164 35L25 35L36 10Z" fill="url(#paint3_linear_145_6568)" fill-opacity="0.51"/>
<path fill-rule="evenodd" clip-rule="evenodd" d="M164 35L164 174L25 174L25 35L164 35ZM164 35L145 23L44 23L25 35L13 54L13 155L25 174L44 186L145 186L164 174L176 155L176 54L164 35Z" fill="black" fill-opacity="0.05"/>
<path d="M164 35.0003L94.5 35.0003L94.5 104.5L164 104.5L164 35.0003Z" fill="url(#paint4_linear_145_6568)"/>
<path d="M25 35L25 104.5L94.5 104.5L94.5 35L25 35Z" fill="url(#paint5_linear_145_6568)"/>
<path fill-rule="evenodd" clip-rule="evenodd" d="M164 105L164 104L95 104L95 35L94 35L94 104L25 104L25 105L94 105L94 174L95 174L95 105L164 105Z" fill="black" fill-opacity="0.1"/>
<path d="M36 10L0 46L25 35L36 10Z" fill="url(#paint6_linear_145_6568)" fill-opacity="0.33"/>
<path d="M189 46.0001L153 10.0001L164 35L189 46.0001Z" fill="url(#paint7_linear_145_6568)" fill-opacity="0.33"/>
</g>
<g clip-path="url(#clip2_145_6568)">
<g opacity="0.7">
<path d="M101.977 74.7489C102.14 74.7489 102.292 74.7801 102.435 74.8426C102.578 74.9029 102.703 74.9866 102.81 75.0938C102.917 75.2009 103.002 75.327 103.065 75.4721C103.125 75.615 103.155 75.7679 103.155 75.9308L103.155 77.019L105 77.019L105 77.4509L100.199 77.4509L100.199 75.9308C100.199 75.7679 100.23 75.615 100.292 75.4721C100.353 75.327 100.436 75.2009 100.544 75.0938C100.651 74.9866 100.777 74.9029 100.922 74.8426C101.065 74.7801 101.218 74.7489 101.381 74.7489L101.977 74.7489ZM101.381 75.1808C101.273 75.1808 101.174 75.2009 101.083 75.2411C100.989 75.2813 100.907 75.3371 100.838 75.4085C100.767 75.4777 100.711 75.5592 100.671 75.6529C100.631 75.7444 100.61 75.8438 100.61 75.9509L100.61 77.019L102.743 77.019L102.743 75.9509C102.743 75.8438 102.723 75.7444 102.683 75.6529C102.643 75.5592 102.588 75.4777 102.519 75.4085C102.45 75.3371 102.369 75.2813 102.278 75.2411C102.184 75.2009 102.084 75.1808 101.977 75.1808L101.381 75.1808ZM105 72.1808L102.489 72.1808C102.406 72.1808 102.329 72.1964 102.258 72.2277C102.184 72.2589 102.121 72.3013 102.067 72.3549C102.013 72.4085 101.971 72.4721 101.94 72.5458C101.908 72.6172 101.893 72.6942 101.893 72.7768L101.893 73.0513C101.893 73.1339 101.908 73.2121 101.94 73.2857C101.971 73.3571 102.013 73.4196 102.067 73.4732C102.121 73.5268 102.184 73.5692 102.258 73.6004C102.329 73.6317 102.406 73.6473 102.489 73.6473L105 73.6473L105 74.0592L100.199 74.0592L100.199 73.6473L101.859 73.6473C101.748 73.5536 101.661 73.4408 101.598 73.3092C101.536 73.1775 101.504 73.0346 101.504 72.8806L101.504 72.7768C101.504 72.6384 101.531 72.5078 101.585 72.385C101.636 72.2623 101.708 72.1551 101.799 72.0636C101.891 71.9721 101.998 71.9007 102.121 71.8493C102.243 71.7958 102.374 71.769 102.512 71.769L105 71.769L105 72.1808ZM104.059 68.6551C104.198 68.6551 104.328 68.6819 104.451 68.7355C104.574 68.7868 104.681 68.8583 104.772 68.9498C104.864 69.0413 104.936 69.1484 104.99 69.2712C105.041 69.394 105.067 69.5246 105.067 69.6629L105.067 69.9375C105.067 70.0759 105.041 70.2065 104.99 70.3292C104.936 70.452 104.864 70.5592 104.772 70.6507C104.681 70.7422 104.574 70.8147 104.451 70.8683C104.328 70.9196 104.198 70.9453 104.059 70.9453L102.512 70.9453C102.374 70.9453 102.243 70.9196 102.121 70.8683C101.998 70.8147 101.891 70.7422 101.799 70.6507C101.708 70.5592 101.636 70.452 101.585 70.3292C101.531 70.2065 101.504 70.0759 101.504 69.9375L101.504 69.6629C101.504 69.5246 101.531 69.394 101.585 69.2712C101.636 69.1484 101.708 69.0413 101.799 68.9498C101.891 68.8583 101.998 68.7868 102.121 68.7355C102.243 68.6819 102.374 68.6551 102.512 68.6551L104.059 68.6551ZM102.489 69.067C102.406 69.067 102.329 69.0826 102.258 69.1138C102.184 69.1451 102.121 69.1875 102.067 69.2411C102.013 69.2946 101.971 69.3583 101.94 69.4319C101.908 69.5033 101.893 69.5804 101.893 69.6629L101.893 69.9375C101.893 70.0201 101.908 70.0982 101.94 70.1719C101.971 70.2433 102.013 70.3058 102.067 70.3594C102.121 70.4129 102.184 70.4554 102.258 70.4866C102.329 70.5179 102.406 70.5335 102.489 70.5335L104.083 70.5335C104.165 70.5335 104.243 70.5179 104.317 70.4866C104.388 70.4554 104.451 70.4129 104.504 70.3594C104.558 70.3058 104.6 70.2433 104.632 70.1719C104.663 70.0982 104.679 70.0201 104.679 69.9375L104.679 69.6629C104.679 69.5804 104.663 69.5033 104.632 69.4319C104.6 69.3583 104.558 69.2946 104.504 69.2411C104.451 69.1875 104.388 69.1451 104.317 69.1138C104.243 69.0826 104.165 69.067 104.083 69.067L102.489 69.067ZM105 66.5826C105 66.7076 104.977 66.8259 104.93 66.9375C104.883 67.0469 104.818 67.1429 104.735 67.2254C104.653 67.3058 104.557 67.3705 104.448 67.4196C104.338 67.4665 104.221 67.49 104.096 67.49L101.963 67.49L101.963 68.106L101.571 68.106L101.571 67.49L100.748 67.49L100.681 67.0781L101.571 67.0781L101.571 66.2076L101.963 66.2076L101.963 67.0781L104.116 67.0781C104.185 67.0781 104.25 67.0658 104.31 67.0413C104.368 67.0145 104.42 66.9788 104.464 66.9342C104.509 66.8895 104.545 66.8371 104.571 66.7768C104.596 66.7165 104.608 66.6518 104.608 66.5826L104.608 66.2076L105 66.2076L105 66.5826ZM104.059 63.1574C104.198 63.1574 104.328 63.1842 104.451 63.2377C104.574 63.2891 104.681 63.3605 104.772 63.452C104.864 63.5435 104.936 63.6507 104.99 63.7734C105.041 63.8962 105.067 64.0268 105.067 64.1652L105.067 64.4397C105.067 64.5781 105.041 64.7087 104.99 64.8315C104.936 64.9542 104.864 65.0614 104.772 65.1529C104.681 65.2444 104.574 65.317 104.451 65.3705C104.328 65.4219 104.198 65.4475 104.059 65.4475L102.512 65.4475C102.374 65.4475 102.243 65.4219 102.121 65.3705C101.998 65.317 101.891 65.2444 101.799 65.1529C101.708 65.0614 101.636 64.9542 101.585 64.8315C101.531 64.7087 101.504 64.5781 101.504 64.4397L101.504 64.1652C101.504 64.0268 101.531 63.8962 101.585 63.7734C101.636 63.6507 101.708 63.5435 101.799 63.452C101.891 63.3605 101.998 63.2891 102.121 63.2377C102.243 63.1842 102.374 63.1574 102.512 63.1574L104.059 63.1574ZM102.489 63.5692C102.406 63.5692 102.329 63.5848 102.258 63.6161C102.184 63.6473 102.121 63.6897 102.067 63.7433C102.013 63.7969 101.971 63.8605 101.94 63.9342C101.908 64.0056 101.893 64.0826 101.893 64.1652L101.893 64.4397C101.893 64.5223 101.908 64.6004 101.94 64.6741C101.971 64.7455 102.013 64.808 102.067 64.8616C102.121 64.9152 102.184 64.9576 102.258 64.9888C102.329 65.0201 102.406 65.0357 102.489 65.0357L104.083 65.0357C104.165 65.0357 104.243 65.0201 104.317 64.9888C104.388 64.9576 104.451 64.9152 104.504 64.8616C104.558 64.808 104.6 64.7455 104.632 64.6741C104.663 64.6004 104.679 64.5223 104.679 64.4397L104.679 64.1652C104.679 64.0826 104.663 64.0056 104.632 63.9342C104.6 63.8605 104.558 63.7969 104.504 63.7433C104.451 63.6897 104.388 63.6473 104.317 63.6161C104.243 63.5848 104.165 63.5692 104.083 63.5692L102.489 63.5692Z" fill="#B8D7FF"/>
</g>
<path d="M125.306 46L124.003 43.9509L123.411 43.9509L123.411 46L122.979 46L122.979 41.1987L124.502 41.1987C124.665 41.1987 124.818 41.2299 124.961 41.2924C125.104 41.3527 125.229 41.4364 125.336 41.5435C125.443 41.6507 125.527 41.7768 125.587 41.9219C125.65 42.0647 125.681 42.2176 125.681 42.3806L125.681 42.769C125.681 42.9319 125.65 43.0859 125.587 43.231C125.527 43.3739 125.443 43.4989 125.336 43.606C125.229 43.7132 125.104 43.798 124.961 43.8605C124.818 43.9208 124.665 43.9509 124.502 43.9509L125.805 46L125.306 46ZM125.249 42.3806C125.249 42.2734 125.229 42.1741 125.189 42.0826C125.148 41.9888 125.094 41.9074 125.025 41.8382C124.955 41.7667 124.874 41.7109 124.78 41.6708C124.689 41.6306 124.589 41.6105 124.482 41.6105L123.411 41.6105L123.411 43.5391L124.482 43.5391C124.589 43.5391 124.689 43.519 124.78 43.4788C124.874 43.4386 124.955 43.3839 125.025 43.3147C125.094 43.2433 125.148 43.1618 125.189 43.0703C125.229 42.9766 125.249 42.8761 125.249 42.769L125.249 42.3806ZM126.598 41.7478L126.598 41.1987L127.077 41.1987L127.077 41.7478L126.598 41.7478ZM126.632 46L126.632 42.5714L127.044 42.5714L127.044 46L126.632 46ZM129.083 46L128.878 46L127.663 42.5714L128.075 42.5714L128.969 45.1696L128.982 45.3471L128.996 45.1696L129.886 42.5714L130.298 42.5714L129.083 46ZM133.07 45.0592C133.07 45.1975 133.044 45.3281 132.99 45.4509C132.939 45.5737 132.867 45.6808 132.776 45.7723C132.684 45.8638 132.577 45.9364 132.454 45.99C132.331 46.0413 132.201 46.067 132.063 46.067L131.788 46.067C131.65 46.067 131.519 46.0413 131.396 45.99C131.273 45.9364 131.166 45.8638 131.075 45.7723C130.983 45.6808 130.911 45.5737 130.857 45.4509C130.806 45.3281 130.78 45.1975 130.78 45.0592L130.78 43.5123C130.78 43.3739 130.806 43.2433 130.857 43.1205C130.911 42.9978 130.983 42.8906 131.075 42.7991C131.166 42.7076 131.273 42.6362 131.396 42.5848C131.519 42.5312 131.65 42.5045 131.788 42.5045L132.063 42.5045C132.201 42.5045 132.331 42.5312 132.454 42.5848C132.577 42.6362 132.684 42.7076 132.776 42.7991C132.867 42.8906 132.939 42.9978 132.99 43.1205C133.044 43.2433 133.07 43.3739 133.07 43.5123L133.07 44.3192L131.192 44.3192L131.192 45.0826C131.192 45.1652 131.208 45.2433 131.239 45.317C131.27 45.3884 131.313 45.4509 131.366 45.5045C131.42 45.558 131.482 45.6004 131.554 45.6317C131.627 45.6629 131.705 45.6786 131.788 45.6786L132.063 45.6786C132.145 45.6786 132.222 45.6629 132.294 45.6317C132.367 45.6004 132.431 45.558 132.484 45.5045C132.538 45.4509 132.58 45.3884 132.612 45.317C132.643 45.2433 132.658 45.1652 132.658 45.0826L132.658 44.8549L133.07 44.9219L133.07 45.0592ZM132.658 43.4888C132.658 43.4062 132.643 43.3292 132.612 43.2578C132.58 43.1842 132.538 43.1205 132.484 43.067C132.431 43.0134 132.367 42.971 132.294 42.9397C132.222 42.9085 132.145 42.8929 132.063 42.8929L131.788 42.8929C131.705 42.8929 131.627 42.9085 131.554 42.9397C131.482 42.971 131.42 43.0134 131.366 43.067C131.313 43.1205 131.27 43.1842 131.239 43.2578C131.208 43.3292 131.192 43.4062 131.192 43.4888L131.192 43.9978L132.658 43.9978L132.658 43.4888ZM134.902 42.9632C134.819 42.9632 134.741 42.9788 134.667 43.01C134.596 43.0413 134.533 43.0837 134.48 43.1373C134.426 43.1908 134.384 43.2545 134.353 43.3281C134.321 43.3996 134.306 43.4766 134.306 43.5592L134.306 46L133.894 46L133.894 42.5714L134.031 42.5714L134.256 42.9196C134.349 42.7924 134.467 42.692 134.607 42.6183C134.75 42.5424 134.905 42.5045 135.073 42.5045L135.314 42.5045L135.314 42.9632L134.902 42.9632Z" fill="#B8D7FF"/>
<path d="M153 64.0056L156.291 64.0056L156.087 63.9754L153 62.8605L153 62.6328L156.087 61.5078L156.291 61.481L153 61.481L153 61.0491L157.801 61.0491L157.801 61.2734L153.864 62.7299L153.686 62.7433L153.864 62.7567L157.801 64.2098L157.801 64.4375L153 64.4375L153 64.0056ZM153.941 67.6217C153.802 67.6217 153.672 67.5949 153.549 67.5413C153.426 67.49 153.319 67.4185 153.228 67.327C153.136 67.2355 153.064 67.1283 153.01 67.0056C152.959 66.8828 152.933 66.7522 152.933 66.6138L152.933 66.3393C152.933 66.2009 152.959 66.0703 153.01 65.9475C153.064 65.8248 153.136 65.7176 153.228 65.6261C153.319 65.5346 153.426 65.4621 153.549 65.4085C153.672 65.3571 153.802 65.3315 153.941 65.3315L155.488 65.3315C155.626 65.3315 155.757 65.3571 155.879 65.4085C156.002 65.4621 156.109 65.5346 156.201 65.6261C156.292 65.7176 156.364 65.8248 156.415 65.9475C156.469 66.0703 156.496 66.2009 156.496 66.3393L156.496 66.6138C156.496 66.7522 156.469 66.8828 156.415 67.0056C156.364 67.1283 156.292 67.2355 156.201 67.327C156.109 67.4185 156.002 67.49 155.879 67.5413C155.757 67.5949 155.626 67.6217 155.488 67.6217L154.681 67.6217L154.681 65.7433L153.917 65.7433C153.835 65.7433 153.757 65.7589 153.683 65.7902C153.612 65.8214 153.549 65.8638 153.496 65.9174C153.442 65.971 153.4 66.0335 153.368 66.1049C153.337 66.1786 153.321 66.2567 153.321 66.3393L153.321 66.6138C153.321 66.6964 153.337 66.7734 153.368 66.8449C153.4 66.9185 153.442 66.9821 153.496 67.0357C153.549 67.0893 153.612 67.1317 153.683 67.1629C153.757 67.1942 153.835 67.2098 153.917 67.2098L154.145 67.2098L154.078 67.6217L153.941 67.6217ZM155.511 67.2098C155.594 67.2098 155.671 67.1942 155.742 67.1629C155.816 67.1317 155.879 67.0893 155.933 67.0357C155.987 66.9821 156.029 66.9185 156.06 66.8449C156.092 66.7734 156.107 66.6964 156.107 66.6138L156.107 66.3393C156.107 66.2567 156.092 66.1786 156.06 66.1049C156.029 66.0335 155.987 65.971 155.933 65.9174C155.879 65.8638 155.816 65.8214 155.742 65.7902C155.671 65.7589 155.594 65.7433 155.511 65.7433L155.002 65.7433L155.002 67.2098L155.511 67.2098ZM153 69.6942C153 69.5692 153.023 69.4509 153.07 69.3393C153.117 69.2299 153.182 69.1339 153.265 69.0513C153.347 68.971 153.443 68.9063 153.552 68.8571C153.662 68.8103 153.779 68.7868 153.904 68.7868L156.037 68.7868L156.037 68.1708L156.429 68.1708L156.429 68.7868L157.252 68.7868L157.319 69.1987L156.429 69.1987L156.429 70.0692L156.037 70.0692L156.037 69.1987L153.884 69.1987C153.815 69.1987 153.75 69.2109 153.69 69.2355C153.632 69.2623 153.58 69.298 153.536 69.3426C153.491 69.3873 153.455 69.4397 153.429 69.5C153.404 69.5603 153.392 69.625 153.392 69.6942L153.392 70.0692L153 70.0692L153 69.6942ZM153.941 73.1194C153.802 73.1194 153.672 73.0926 153.549 73.0391C153.426 72.9877 153.319 72.9163 153.228 72.8248C153.136 72.7333 153.064 72.6261 153.01 72.5033C152.959 72.3806 152.933 72.25 152.933 72.1116L152.933 71.8371C152.933 71.6987 152.959 71.5681 153.01 71.4453C153.064 71.3225 153.136 71.2154 153.228 71.1239C153.319 71.0324 153.426 70.9598 153.549 70.9063C153.672 70.8549 153.802 70.8292 153.941 70.8292L155.488 70.8292C155.626 70.8292 155.757 70.8549 155.879 70.9063C156.002 70.9598 156.109 71.0324 156.201 71.1239C156.292 71.2154 156.364 71.3225 156.415 71.4453C156.469 71.5681 156.496 71.6987 156.496 71.8371L156.496 72.1116C156.496 72.25 156.469 72.3806 156.415 72.5033C156.364 72.6261 156.292 72.7333 156.201 72.8248C156.109 72.9163 156.002 72.9877 155.879 73.0391C155.757 73.0926 155.626 73.1194 155.488 73.1194L154.681 73.1194L154.681 71.2411L153.917 71.2411C153.835 71.2411 153.757 71.2567 153.683 71.2879C153.612 71.3192 153.549 71.3616 153.496 71.4152C153.442 71.4688 153.4 71.5313 153.368 71.6027C153.337 71.6763 153.321 71.7545 153.321 71.8371L153.321 72.1116C153.321 72.1942 153.337 72.2712 153.368 72.3426C153.4 72.4163 153.442 72.4799 153.496 72.5335C153.549 72.5871 153.612 72.6295 153.683 72.6607C153.757 72.692 153.835 72.7076 153.917 72.7076L154.145 72.7076L154.078 73.1194L153.941 73.1194ZM155.511 72.7076C155.594 72.7076 155.671 72.692 155.742 72.6607C155.816 72.6295 155.879 72.5871 155.933 72.5335C155.987 72.4799 156.029 72.4163 156.06 72.3426C156.092 72.2712 156.107 72.1942 156.107 72.1116L156.107 71.8371C156.107 71.7545 156.092 71.6763 156.06 71.6027C156.029 71.5313 155.987 71.4688 155.933 71.4152C155.879 71.3616 155.816 71.3192 155.742 71.2879C155.671 71.2567 155.594 71.2411 155.511 71.2411L155.002 71.2411L155.002 72.7076L155.511 72.7076ZM153.941 76.2333C153.802 76.2333 153.672 76.2065 153.549 76.1529C153.426 76.1016 153.319 76.0301 153.228 75.9386C153.136 75.8471 153.064 75.74 153.01 75.6172C152.959 75.4944 152.933 75.3638 152.933 75.2254L152.933 74.9509C152.933 74.8125 152.959 74.6819 153.01 74.5592C153.064 74.4364 153.136 74.3292 153.228 74.2377C153.319 74.1462 153.426 74.0737 153.549 74.0201C153.672 73.9688 153.802 73.9431 153.941 73.9431L155.488 73.9431C155.626 73.9431 155.757 73.9688 155.879 74.0201C156.002 74.0737 156.109 74.1462 156.201 74.2377C156.292 74.3292 156.364 74.4364 156.415 74.5592C156.469 74.6819 156.496 74.8125 156.496 74.9509L156.496 75.2254C156.496 75.3638 156.469 75.4944 156.415 75.6172C156.364 75.74 156.292 75.8471 156.201 75.9386C156.109 76.0301 156.002 76.1016 155.879 76.1529C155.757 76.2065 155.626 76.2333 155.488 76.2333L153.941 76.2333ZM155.511 75.8214C155.594 75.8214 155.671 75.8058 155.742 75.7746C155.816 75.7433 155.879 75.7009 155.933 75.6473C155.987 75.5938 156.029 75.5301 156.06 75.4565C156.092 75.385 156.107 75.308 156.107 75.2254L156.107 74.9509C156.107 74.8683 156.092 74.7902 156.06 74.7165C156.029 74.6451 155.987 74.5826 155.933 74.529C155.879 74.4754 155.816 74.433 155.742 74.4018C155.671 74.3705 155.594 74.3549 155.511 74.3549L153.917 74.3549C153.835 74.3549 153.757 74.3705 153.683 74.4018C153.612 74.433 153.549 74.4754 153.496 74.529C153.442 74.5826 153.4 74.6451 153.368 74.7165C153.337 74.7902 153.321 74.8683 153.321 74.9509L153.321 75.2254C153.321 75.308 153.337 75.385 153.368 75.4565C153.4 75.5301 153.442 75.5938 153.496 75.6473C153.549 75.7009 153.612 75.7433 153.683 75.7746C153.757 75.8058 153.835 75.8214 153.917 75.8214L155.511 75.8214ZM156.037 78.0647C156.037 77.9821 156.021 77.904 155.99 77.8304C155.959 77.7589 155.916 77.6964 155.863 77.6429C155.809 77.5893 155.746 77.5469 155.672 77.5156C155.6 77.4844 155.523 77.4688 155.441 77.4688L153 77.4688L153 77.0569L156.429 77.0569L156.429 77.1942L156.08 77.4185C156.208 77.5123 156.308 77.6295 156.382 77.7701C156.458 77.9129 156.496 78.0681 156.496 78.2355L156.496 78.4766L156.037 78.4766L156.037 78.0647Z" fill="#B8D7FF"/>
</g>
<g clip-path="url(#clip3_145_6568)">
<path d="M32.9766 73.2489C33.1395 73.2489 33.2924 73.2801 33.4353 73.3426C33.5781 73.4029 33.7031 73.4866 33.8103 73.5938C33.9174 73.7009 34.0022 73.827 34.0647 73.9721C34.125 74.115 34.1551 74.2679 34.1551 74.4308L34.1551 75.519L36 75.519L36 75.9509L31.1987 75.9509L31.1987 74.4308C31.1987 74.2679 31.2299 74.115 31.2924 73.9721C31.3527 73.827 31.4364 73.7009 31.5435 73.5938C31.6507 73.4866 31.7768 73.4029 31.9219 73.3426C32.0647 73.2801 32.2176 73.2489 32.3806 73.2489L32.9766 73.2489ZM32.3806 73.6808C32.2734 73.6808 32.1741 73.7009 32.0826 73.7411C31.9888 73.7813 31.9074 73.8371 31.8382 73.9085C31.7667 73.9777 31.7109 74.0592 31.6708 74.1529C31.6306 74.2444 31.6105 74.3438 31.6105 74.4509L31.6105 75.519L33.7433 75.519L33.7433 74.4509C33.7433 74.3438 33.7232 74.2444 33.683 74.1529C33.6429 74.0592 33.5882 73.9777 33.519 73.9085C33.4498 73.8371 33.3694 73.7813 33.2779 73.7411C33.1842 73.7009 33.0837 73.6808 32.9766 73.6808L32.3806 73.6808ZM36 70.4063L35.6585 70.6339C35.7813 70.7277 35.8806 70.8449 35.9565 70.9855C36.0301 71.1261 36.067 71.2801 36.067 71.4475L36.067 71.5513C36.067 71.6897 36.0413 71.8203 35.99 71.9431C35.9364 72.0658 35.8638 72.173 35.7723 72.2645C35.6808 72.356 35.5737 72.4286 35.4509 72.4821C35.3281 72.5335 35.1975 72.5592 35.0592 72.5592L35.0257 72.5592C34.8873 72.5592 34.7567 72.5335 34.6339 72.4821C34.5112 72.4286 34.404 72.356 34.3125 72.2645C34.221 72.173 34.1496 72.0658 34.0982 71.9431C34.0446 71.8203 34.0179 71.6897 34.0179 71.5513L34.0179 70.6808L33.4888 70.6808C33.4063 70.6808 33.3292 70.6964 33.2578 70.7277C33.1842 70.7589 33.1205 70.8013 33.067 70.8549C33.0134 70.9085 32.971 70.9721 32.9397 71.0458C32.9085 71.1172 32.8929 71.1942 32.8929 71.2768L32.8929 71.5179C32.8929 71.6004 32.9085 71.6786 32.9397 71.7522C32.971 71.8237 33.0134 71.8862 33.067 71.9397C33.1205 71.9933 33.1842 72.0357 33.2578 72.067C33.3292 72.0982 33.4063 72.1138 33.4888 72.1138L33.6127 72.1138L33.5458 72.5257L33.5123 72.5257C33.3739 72.5257 33.2433 72.5 33.1205 72.4487C32.9978 72.3951 32.8906 72.3225 32.7991 72.231C32.7076 72.1395 32.6362 72.0324 32.5848 71.9096C32.5313 71.7868 32.5045 71.6563 32.5045 71.5179L32.5045 71.2768C32.5045 71.1384 32.5313 71.0078 32.5848 70.885C32.6362 70.7623 32.7076 70.6551 32.7991 70.5636C32.8906 70.4721 32.9978 70.4007 33.1205 70.3493C33.2433 70.2958 33.3739 70.269 33.5123 70.269L36 70.269L36 70.4063ZM34.3393 70.6808L34.3393 71.5513C34.3393 71.6339 34.3549 71.7121 34.3862 71.7857C34.4174 71.8571 34.4609 71.9196 34.5167 71.9732C34.5703 72.0268 34.6339 72.0692 34.7076 72.1004C34.779 72.1317 34.856 72.1473 34.9386 72.1473L35.0826 72.1473C35.1652 72.1473 35.2433 72.1317 35.317 72.1004C35.3884 72.0692 35.4509 72.0268 35.5045 71.9732C35.558 71.9196 35.6004 71.8571 35.6317 71.7857C35.6629 71.7121 35.6786 71.6339 35.6786 71.5513L35.6786 71.2768C35.6786 71.1942 35.6629 71.1172 35.6317 71.0458C35.6004 70.9721 35.558 70.9085 35.5045 70.8549C35.4509 70.8013 35.3884 70.7589 35.317 70.7277C35.2433 70.6964 35.1652 70.6808 35.0826 70.6808L34.3393 70.6808ZM35.1295 67.0882C35.2679 67.0882 35.3951 67.1161 35.5112 67.1719C35.625 67.2277 35.7232 67.3036 35.8058 67.3996C35.8884 67.4955 35.9531 67.6071 36 67.7344C36.0446 67.8594 36.067 67.9911 36.067 68.1295L36.067 68.404C36.067 68.5424 36.0413 68.6752 35.99 68.8025C35.9364 68.9275 35.8638 69.0379 35.7723 69.1339C35.6808 69.2277 35.5737 69.3036 35.4509 69.3616C35.3281 69.4174 35.1975 69.4453 35.0592 69.4453L34.9219 69.4453L34.8549 69.0335L35.0826 69.0335C35.1652 69.0335 35.2433 69.0167 35.317 68.9833C35.3884 68.9475 35.4509 68.9007 35.5045 68.8426C35.558 68.7846 35.6004 68.7176 35.6317 68.6417C35.6629 68.5658 35.6786 68.4866 35.6786 68.404L35.6786 68.1295C35.6786 68.0469 35.6663 67.9676 35.6417 67.8917C35.6172 67.8158 35.5826 67.7489 35.5379 67.6908C35.4911 67.6306 35.4353 67.5837 35.3705 67.5502C35.3058 67.5145 35.2321 67.4967 35.1496 67.4967C35.0268 67.4967 34.9263 67.5234 34.8482 67.577C34.7701 67.6306 34.7054 67.702 34.654 67.7913C34.6004 67.8783 34.5569 67.9788 34.5234 68.0926C34.4877 68.2042 34.4531 68.3192 34.4196 68.4375C34.3839 68.5558 34.3438 68.6719 34.2991 68.7857C34.2545 68.8973 34.1964 68.9978 34.125 69.0871C34.0513 69.1741 33.9598 69.2444 33.8504 69.298C33.7411 69.3516 33.6049 69.3783 33.442 69.3783C33.3036 69.3783 33.1775 69.3516 33.0636 69.298C32.9475 69.2444 32.8482 69.1719 32.7656 69.0804C32.683 68.9888 32.6194 68.8828 32.5748 68.7623C32.5279 68.6395 32.5045 68.5089 32.5045 68.3705L32.5045 68.1295C32.5045 67.9911 32.5313 67.8605 32.5848 67.7377C32.6362 67.615 32.7076 67.5078 32.7991 67.4163C32.8906 67.3248 32.9978 67.2533 33.1205 67.202C33.2433 67.1484 33.3739 67.1217 33.5123 67.1217L33.5257 67.1217L33.5926 67.5335L33.4888 67.5335C33.4063 67.5335 33.3292 67.5491 33.2578 67.5804C33.1842 67.6116 33.1205 67.654 33.067 67.7076C33.0134 67.7612 32.971 67.8248 32.9397 67.8984C32.9085 67.9699 32.8929 68.0469 32.8929 68.1295L32.8929 68.3705C32.8929 68.4531 32.9051 68.5312 32.9297 68.6049C32.9542 68.6763 32.99 68.7388 33.0368 68.7924C33.0815 68.846 33.1362 68.8884 33.2009 68.9196C33.2656 68.9509 33.3393 68.9665 33.4219 68.9665C33.5402 68.9665 33.6373 68.9397 33.7132 68.8862C33.7868 68.8326 33.8493 68.7623 33.9007 68.6752C33.952 68.5859 33.9955 68.4855 34.0313 68.3739C34.0647 68.26 34.1004 68.1451 34.1384 68.029C34.1741 67.9107 34.2154 67.7958 34.2623 67.6842C34.3092 67.5703 34.3694 67.4699 34.4431 67.3828C34.5167 67.2935 34.6094 67.2221 34.721 67.1685C34.8304 67.115 34.9665 67.0882 35.1295 67.0882ZM36 65.0491C36 65.1741 35.9766 65.2924 35.9297 65.404C35.8828 65.5134 35.8181 65.6094 35.7355 65.692C35.6529 65.7723 35.5569 65.8371 35.4475 65.8862C35.3382 65.933 35.221 65.9565 35.096 65.9565L32.9632 65.9565L32.9632 66.5725L32.5714 66.5725L32.5714 65.9565L31.7478 65.9565L31.6808 65.5446L32.5714 65.5446L32.5714 64.6741L32.9632 64.6741L32.9632 65.5446L35.1161 65.5446C35.1853 65.5446 35.25 65.5324 35.3103 65.5078C35.3683 65.481 35.4196 65.4453 35.4643 65.4007C35.5089 65.356 35.5446 65.3036 35.5714 65.2433C35.596 65.183 35.6083 65.1183 35.6083 65.0491L35.6083 64.6741L36 64.6741L36 65.0491Z" fill="#B8D7FF"/>
<path d="M50.1808 44.8884C50.1808 45.0513 50.1473 45.2042 50.0804 45.3471C50.0156 45.49 49.9275 45.615 49.8158 45.7221C49.7065 45.8292 49.5781 45.9141 49.4308 45.9766C49.2857 46.0368 49.1317 46.067 48.9688 46.067L48.6239 46.067C48.4609 46.067 48.3058 46.0368 48.1585 45.9766C48.0134 45.9141 47.885 45.8292 47.7734 45.7221C47.6641 45.615 47.5759 45.49 47.5089 45.3471C47.4442 45.2042 47.4118 45.0513 47.4118 44.8884L47.4118 44.6975L47.8438 44.6272L47.8438 44.8884C47.8438 44.9955 47.865 45.096 47.9074 45.1897C47.952 45.2812 48.0112 45.3627 48.0848 45.4342C48.1585 45.5033 48.2433 45.558 48.3393 45.5982C48.4375 45.6384 48.5402 45.6585 48.6473 45.6585L48.9487 45.6585C49.0558 45.6585 49.1574 45.6384 49.2533 45.5982C49.3493 45.558 49.4342 45.5033 49.5078 45.4342C49.5815 45.3627 49.6395 45.2812 49.6819 45.1897C49.7266 45.096 49.7489 44.9955 49.7489 44.8884L49.7489 44.7444C49.7489 44.5792 49.7165 44.442 49.6518 44.3326C49.5871 44.2232 49.5011 44.1306 49.394 44.0547C49.2868 43.9766 49.1652 43.9107 49.029 43.8571C48.8951 43.8036 48.7567 43.75 48.6138 43.6964C48.471 43.6429 48.3315 43.5837 48.1953 43.519C48.0614 43.4542 47.9408 43.3739 47.8337 43.2779C47.7266 43.1797 47.6406 43.0603 47.5759 42.9196C47.5112 42.779 47.4788 42.606 47.4788 42.4007L47.4788 42.3103C47.4788 42.1473 47.5089 41.9944 47.5692 41.8516C47.6317 41.7087 47.7165 41.5837 47.8237 41.4766C47.9308 41.3694 48.0558 41.2857 48.1987 41.2254C48.3438 41.1629 48.4978 41.1317 48.6607 41.1317L48.9688 41.1317C49.1317 41.1317 49.2846 41.1629 49.4275 41.2254C49.5703 41.2857 49.6953 41.3694 49.8025 41.4766C49.9096 41.5837 49.9933 41.7087 50.0536 41.8516C50.1161 41.9944 50.1473 42.1473 50.1473 42.3103L50.1473 42.4342L49.7154 42.5045L49.7154 42.3103C49.7154 42.2031 49.6953 42.1038 49.6551 42.0123C49.615 41.9185 49.5603 41.8371 49.4911 41.7679C49.4219 41.6987 49.3404 41.644 49.2467 41.6038C49.1551 41.5636 49.0558 41.5435 48.9487 41.5435L48.6808 41.5435C48.5737 41.5435 48.4732 41.5636 48.3795 41.6038C48.2879 41.644 48.2065 41.6987 48.135 41.7679C48.0658 41.8371 48.0112 41.9185 47.971 42.0123C47.9308 42.1038 47.9107 42.2031 47.9107 42.3103L47.9107 42.4007C47.9107 42.5547 47.9431 42.6842 48.0078 42.7891C48.0725 42.894 48.1585 42.9844 48.2656 43.0603C48.3728 43.1339 48.4933 43.1987 48.6272 43.2545C48.7634 43.308 48.9029 43.3638 49.0458 43.4219C49.1886 43.4777 49.327 43.5402 49.4609 43.6094C49.5971 43.6763 49.7188 43.76 49.8259 43.8605C49.933 43.9587 50.019 44.0792 50.0837 44.2221C50.1484 44.365 50.1808 44.5391 50.1808 44.7444L50.1808 44.8884ZM53.1272 46L52.8996 45.6518C52.8058 45.779 52.6886 45.8806 52.548 45.9565C52.4074 46.0301 52.2533 46.067 52.0859 46.067L51.9821 46.067C51.8438 46.067 51.7132 46.0413 51.5904 45.99C51.4676 45.9364 51.3605 45.8638 51.269 45.7723C51.1775 45.6808 51.1049 45.5737 51.0513 45.4509C51 45.3281 50.9743 45.1975 50.9743 45.0592L50.9743 42.5714L51.3862 42.5714L51.3862 45.0826C51.3862 45.1652 51.4018 45.2433 51.433 45.317C51.4643 45.3884 51.5067 45.4509 51.5603 45.5045C51.6138 45.558 51.6763 45.6004 51.7478 45.6317C51.8214 45.6629 51.8996 45.6786 51.9821 45.6786L52.2567 45.6786C52.3393 45.6786 52.4163 45.6629 52.4877 45.6317C52.5614 45.6004 52.625 45.558 52.6786 45.5045C52.7321 45.4509 52.7746 45.3884 52.8058 45.317C52.8371 45.2433 52.8527 45.1652 52.8527 45.0826L52.8527 42.5714L53.2645 42.5714L53.2645 46L53.1272 46ZM55.9665 46L55.9665 43.4888C55.9665 43.4062 55.9509 43.3292 55.9196 43.2578C55.8884 43.1842 55.846 43.1205 55.7924 43.067C55.7388 43.0134 55.6752 42.971 55.6016 42.9397C55.5301 42.9085 55.4531 42.8929 55.3705 42.8929L55.096 42.8929C55.0134 42.8929 54.9353 42.9085 54.8616 42.9397C54.7902 42.971 54.7277 43.0134 54.6741 43.067C54.6205 43.1205 54.5781 43.1842 54.5469 43.2578C54.5156 43.3292 54.5 43.4062 54.5 43.4888L54.5 46L54.0882 46L54.0882 42.5714L54.2254 42.5714L54.4498 42.9196C54.5435 42.7924 54.6607 42.692 54.8013 42.6183C54.9442 42.5424 55.0993 42.5045 55.2667 42.5045L55.3705 42.5045C55.5089 42.5045 55.6395 42.5312 55.7623 42.5848C55.885 42.6362 55.9922 42.7076 56.0837 42.7991C56.1752 42.8906 56.2467 42.9978 56.298 43.1205C56.3516 43.2433 56.3783 43.3739 56.3783 43.5123L56.3783 46L55.9665 46ZM58.3806 41.5904C58.3114 41.5904 58.2467 41.6038 58.1864 41.6306C58.1283 41.6551 58.077 41.6897 58.0324 41.7344C57.9877 41.779 57.952 41.8315 57.9252 41.8917C57.9007 41.952 57.8884 42.0167 57.8884 42.0859L57.8884 42.5714L58.6886 42.5714L58.6886 42.9632L57.8884 42.9632L57.8884 46L57.4766 46L57.4766 42.9632L56.8571 42.9632L56.8571 42.5714L57.4766 42.5714L57.4766 42.106C57.4766 41.981 57.5 41.8638 57.5469 41.7545C57.5937 41.6429 57.6585 41.5458 57.7411 41.4632C57.8237 41.3806 57.9196 41.3158 58.029 41.269C58.1384 41.2221 58.2556 41.1987 58.3806 41.1987L58.7589 41.1987L58.7589 41.5904L58.3806 41.5904ZM59.308 46L59.308 41.1987L59.7199 41.1987L59.7199 46L59.308 46ZM62.9074 45.0592C62.9074 45.1975 62.8806 45.3281 62.827 45.4509C62.7757 45.5737 62.7042 45.6808 62.6127 45.7723C62.5212 45.8638 62.4141 45.9364 62.2913 45.99C62.1685 46.0413 62.0379 46.067 61.8996 46.067L61.625 46.067C61.4866 46.067 61.356 46.0413 61.2333 45.99C61.1105 45.9364 61.0033 45.8638 60.9118 45.7723C60.8203 45.6808 60.7478 45.5737 60.6942 45.4509C60.6429 45.3281 60.6172 45.1975 60.6172 45.0592L60.6172 43.5123C60.6172 43.3739 60.6429 43.2433 60.6942 43.1205C60.7478 42.9978 60.8203 42.8906 60.9118 42.7991C61.0033 42.7076 61.1105 42.6362 61.2333 42.5848C61.356 42.5312 61.4866 42.5045 61.625 42.5045L61.8996 42.5045C62.0379 42.5045 62.1685 42.5312 62.2913 42.5848C62.4141 42.6362 62.5212 42.7076 62.6127 42.7991C62.7042 42.8906 62.7757 42.9978 62.827 43.1205C62.8806 43.2433 62.9074 43.3739 62.9074 43.5123L62.9074 45.0592ZM62.4955 43.4888C62.4955 43.4062 62.4799 43.3292 62.4487 43.2578C62.4174 43.1842 62.375 43.1205 62.3214 43.067C62.2679 43.0134 62.2042 42.971 62.1306 42.9397C62.0592 42.9085 61.9821 42.8929 61.8996 42.8929L61.625 42.8929C61.5424 42.8929 61.4643 42.9085 61.3906 42.9397C61.3192 42.971 61.2567 43.0134 61.2031 43.067C61.1496 43.1205 61.1071 43.1842 61.0759 43.2578C61.0446 43.3292 61.029 43.4062 61.029 43.4888L61.029 45.0826C61.029 45.1652 61.0446 45.2433 61.0759 45.317C61.1071 45.3884 61.1496 45.4509 61.2031 45.5045C61.2567 45.558 61.3192 45.6004 61.3906 45.6317C61.4643 45.6629 61.5424 45.6786 61.625 45.6786L61.8996 45.6786C61.9821 45.6786 62.0592 45.6629 62.1306 45.6317C62.2042 45.6004 62.2679 45.558 62.3214 45.5045C62.375 45.4509 62.4174 45.3884 62.4487 45.317C62.4799 45.2433 62.4955 45.1652 62.4955 45.0826L62.4955 43.4888ZM66.6172 46L66.3929 46L65.5893 43.4152L65.5759 43.2377L65.5625 43.4152L64.7589 46L64.5313 46L63.3862 42.5714L63.8047 42.5714L64.6217 45.1629L64.635 45.3404L64.6484 45.1629L65.452 42.5714L65.6998 42.5714L66.5 45.1629L66.5134 45.3404L66.5268 45.1629L67.3438 42.5714L67.7623 42.5714L66.6172 46ZM70.5346 45.0592C70.5346 45.1975 70.5078 45.3281 70.4542 45.4509C70.4029 45.5737 70.3315 45.6808 70.24 45.7723C70.1484 45.8638 70.0413 45.9364 69.9185 45.99C69.7958 46.0413 69.6652 46.067 69.5268 46.067L69.2522 46.067C69.1138 46.067 68.9833 46.0413 68.8605 45.99C68.7377 45.9364 68.6306 45.8638 68.5391 45.7723C68.4475 45.6808 68.375 45.5737 68.3214 45.4509C68.2701 45.3281 68.2444 45.1975 68.2444 45.0592L68.2444 43.5123C68.2444 43.3739 68.2701 43.2433 68.3214 43.1205C68.375 42.9978 68.4475 42.8906 68.5391 42.7991C68.6306 42.7076 68.7377 42.6362 68.8605 42.5848C68.9833 42.5312 69.1138 42.5045 69.2522 42.5045L69.5268 42.5045C69.6652 42.5045 69.7958 42.5312 69.9185 42.5848C70.0413 42.6362 70.1484 42.7076 70.24 42.7991C70.3315 42.8906 70.4029 42.9978 70.4542 43.1205C70.5078 43.2433 70.5346 43.3739 70.5346 43.5123L70.5346 44.3192L68.6563 44.3192L68.6563 45.0826C68.6563 45.1652 68.6719 45.2433 68.7031 45.317C68.7344 45.3884 68.7768 45.4509 68.8304 45.5045C68.8839 45.558 68.9464 45.6004 69.0179 45.6317C69.0915 45.6629 69.1696 45.6786 69.2522 45.6786L69.5268 45.6786C69.6094 45.6786 69.6864 45.6629 69.7578 45.6317C69.8315 45.6004 69.8951 45.558 69.9487 45.5045C70.0022 45.4509 70.0446 45.3884 70.0759 45.317C70.1071 45.2433 70.1228 45.1652 70.1228 45.0826L70.1228 44.8549L70.5346 44.9219L70.5346 45.0592ZM70.1228 43.4888C70.1228 43.4062 70.1071 43.3292 70.0759 43.2578C70.0446 43.1842 70.0022 43.1205 69.9487 43.067C69.8951 43.0134 69.8315 42.971 69.7578 42.9397C69.6864 42.9085 69.6094 42.8929 69.5268 42.8929L69.2522 42.8929C69.1696 42.8929 69.0915 42.9085 69.0179 42.9397C68.9464 42.971 68.8839 43.0134 68.8304 43.067C68.7768 43.1205 68.7344 43.1842 68.7031 43.2578C68.6719 43.3292 68.6563 43.4062 68.6563 43.4888L68.6563 43.9978L70.1228 43.9978L70.1228 43.4888ZM72.3661 42.9632C72.2835 42.9632 72.2054 42.9788 72.1317 43.01C72.0603 43.0413 71.9978 43.0837 71.9442 43.1373C71.8906 43.1908 71.8482 43.2545 71.817 43.3281C71.7857 43.3996 71.7701 43.4766 71.7701 43.5592L71.7701 46L71.3583 46L71.3583 42.5714L71.4955 42.5714L71.7199 42.9196C71.8136 42.7924 71.9308 42.692 72.0714 42.6183C72.2143 42.5424 72.3694 42.5045 72.5368 42.5045L72.7779 42.5045L72.7779 42.9632L72.3661 42.9632Z" fill="#B8D7FF"/>
<g opacity="0.7">
<path d="M85.1116 68.1808C84.9487 68.1808 84.7958 68.1496 84.6529 68.0871C84.51 68.0268 84.385 67.9431 84.2779 67.8359C84.1708 67.7288 84.0859 67.6038 84.0234 67.4609C83.9632 67.3181 83.933 67.1652 83.933 67.0022L83.933 66.6607C83.933 66.4978 83.9632 66.3438 84.0234 66.1987C84.0859 66.0558 84.1708 65.9308 84.2779 65.8237C84.385 65.7165 84.51 65.6317 84.6529 65.5692C84.7958 65.5089 84.9487 65.4788 85.1116 65.4788L87.6897 65.4788C87.8527 65.4788 88.0056 65.5089 88.1484 65.5692C88.2913 65.6317 88.4163 65.7165 88.5234 65.8237C88.6306 65.9308 88.7143 66.0558 88.7746 66.1987C88.8371 66.3438 88.8683 66.4978 88.8683 66.6607L88.8683 67.0022C88.8683 67.1652 88.8371 67.3181 88.7746 67.4609C88.7143 67.6038 88.6306 67.7288 88.5234 67.8359C88.4163 67.9431 88.2913 68.0268 88.1484 68.0871C88.0056 68.1496 87.8527 68.1808 87.6897 68.1808L85.1116 68.1808ZM87.6897 67.7489C87.7969 67.7489 87.8962 67.7288 87.9877 67.6886C88.0815 67.6484 88.1629 67.5938 88.2321 67.5246C88.3013 67.4554 88.356 67.3739 88.3962 67.2801C88.4364 67.1886 88.4565 67.0893 88.4565 66.9821L88.4565 66.6808C88.4565 66.5737 88.4364 66.4732 88.3962 66.3795C88.356 66.2879 88.3013 66.2065 88.2321 66.135C88.1629 66.0658 88.0815 66.0112 87.9877 65.971C87.8962 65.9308 87.7969 65.9107 87.6897 65.9107L85.1116 65.9107C85.0045 65.9107 84.904 65.9308 84.8103 65.971C84.7188 66.0112 84.6373 66.0658 84.5658 66.135C84.4967 66.2065 84.442 66.2879 84.4018 66.3795C84.3616 66.4732 84.3415 66.5737 84.3415 66.6808L84.3415 66.9821C84.3415 67.0893 84.3616 67.1886 84.4018 67.2801C84.442 67.3739 84.4967 67.4554 84.5658 67.5246C84.6373 67.5938 84.7188 67.6484 84.8103 67.6886C84.904 67.7288 85.0045 67.7489 85.1116 67.7489L87.6897 67.7489ZM84 71.9609L84 71.7366L86.5848 70.933L86.7623 70.9196L86.5848 70.9063L84 70.1027L84 69.875L87.4286 68.7299L87.4286 69.1484L84.8371 69.9654L84.6596 69.9788L84.8371 69.9922L87.4286 70.7958L87.4286 71.0435L84.8371 71.8438L84.6596 71.8571L84.8371 71.8705L87.4286 72.6875L87.4286 73.106L84 71.9609ZM84 73.7254L88.8013 73.7254L88.8013 74.1373L84 74.1373L84 73.7254Z" fill="#B8D7FF"/>
</g>
</g>
<g style="mix-blend-mode:luminosity">
<path d="M88.015 16.574C88.585 16.574 89.128 16.598 89.644 16.646C89.68 16.706 89.698 16.793 89.698 16.907C89.698 16.997 89.686 17.075 89.662 17.141C89.182 17.087 88.603 17.063 87.925 17.069L87.925 22.145C87.925 22.475 87.958 22.64 88.024 22.64L88.591 22.622C88.615 22.664 88.627 22.721 88.627 22.793C88.627 22.841 88.618 22.892 88.6 22.946C88.204 23.06 87.82 23.117 87.448 23.117C87.256 23.117 87.118 23.108 87.034 23.09C86.956 23.078 86.902 23.048 86.872 23C86.848 22.946 86.839 22.856 86.845 22.73L86.845 17.141C86.143 17.195 85.534 17.282 85.018 17.402C84.982 17.318 84.964 17.234 84.964 17.15C84.964 17.102 84.976 17.024 85 16.916C85.864 16.688 86.869 16.574 88.015 16.574ZM94.1321 22.793C94.1321 22.841 94.1231 22.892 94.1051 22.946C93.7211 23.06 93.3161 23.117 92.8901 23.117C92.7281 23.117 92.6081 23.108 92.5301 23.09C92.4581 23.078 92.4101 23.051 92.3861 23.009C92.3621 22.973 92.3501 22.91 92.3501 22.82C91.6601 23.018 91.0661 23.117 90.5681 23.117C90.2381 23.117 90.0041 23.066 89.8661 22.964C89.7281 22.862 89.6591 22.685 89.6591 22.433L89.6591 21.173C89.6591 20.921 89.7221 20.726 89.8481 20.588C89.9741 20.444 90.1751 20.342 90.4511 20.282C91.1171 20.18 91.7501 20.114 92.3501 20.084L92.3501 19.382C92.3501 19.154 92.3051 19.004 92.2151 18.932C92.1311 18.86 91.9541 18.824 91.6841 18.824C91.5161 18.824 91.1801 18.866 90.6761 18.95C90.2381 19.034 89.9501 19.097 89.8121 19.139C89.7821 19.067 89.7671 18.992 89.7671 18.914C89.7671 18.836 89.7791 18.776 89.8031 18.734C90.5651 18.494 91.4471 18.374 92.4491 18.374C92.7731 18.374 93.0071 18.425 93.1511 18.527C93.3011 18.629 93.3761 18.797 93.3761 19.031L93.3761 22.145C93.3761 22.475 93.4091 22.64 93.4751 22.64L94.0961 22.622C94.1201 22.664 94.1321 22.721 94.1321 22.793ZM91.2521 22.613C91.5341 22.613 91.9001 22.547 92.3501 22.415L92.3501 20.489C92.0201 20.501 91.7081 20.534 91.4141 20.588C91.1141 20.642 90.9101 20.714 90.8021 20.804C90.7241 20.864 90.6851 20.999 90.6851 21.209L90.6851 22.208C90.6851 22.478 90.8741 22.613 91.2521 22.613ZM95.0042 19.346C95.0042 19.016 94.9712 18.851 94.9052 18.851L94.2842 18.869C94.2602 18.827 94.2482 18.77 94.2482 18.698C94.2482 18.65 94.2572 18.599 94.2752 18.545C94.6712 18.431 95.0762 18.374 95.4902 18.374C95.6702 18.374 95.7962 18.383 95.8682 18.401C95.9402 18.413 95.9852 18.446 96.0032 18.5C96.0272 18.548 96.0362 18.635 96.0302 18.761L96.3632 18.662C96.5732 18.602 96.7232 18.563 96.8132 18.545C96.8072 18.545 96.8732 18.53 97.0112 18.5C97.1792 18.458 97.3832 18.422 97.6232 18.392C97.7672 18.38 97.8692 18.374 97.9292 18.374C98.2592 18.374 98.4932 18.428 98.6312 18.536C98.7692 18.638 98.8382 18.812 98.8382 19.058L98.8382 21.947C98.8442 22.439 98.5802 22.73 98.0462 22.82C97.3982 22.946 96.7262 23.021 96.0302 23.045L96.0302 24.89C96.0302 24.974 95.9822 25.034 95.8862 25.07C95.6582 25.136 95.4152 25.169 95.1572 25.169C95.0552 25.169 95.0042 25.118 95.0042 25.016L95.0042 19.346ZM97.3082 18.914C97.1222 18.914 96.6962 19.001 96.0302 19.175L96.0302 22.64C96.5282 22.61 96.9212 22.565 97.2092 22.505C97.4552 22.457 97.6172 22.397 97.6952 22.325C97.7732 22.253 97.8122 22.121 97.8122 21.929L97.8122 19.283C97.8122 19.037 97.6442 18.914 97.3082 18.914Z" fill="#256CD0"/>
</g>
</g>
</g>
<rect y="46.8475" width="189" height="25.1525" fill="url(#paint8_linear_145_6568)"/>
<defs>
<radialGradient id="paint0_radial_145_6568" cx="0" cy="0" r="1" gradientUnits="userSpaceOnUse" gradientTransform="translate(94.5 104.5) rotate(180) scale(94.5 94.5)">
<stop stop-opacity="0"/>
<stop offset="1"/>
</radialGradient>
<linearGradient id="paint1_linear_145_6568" x1="189" y1="104.5" x2="164" y2="104.5" gradientUnits="userSpaceOnUse">
<stop stop-opacity="0.61"/>
<stop offset="1" stop-opacity="0.89"/>
</linearGradient>
<linearGradient id="paint2_linear_145_6568" x1="5.2471e-06" y1="104.5" x2="25" y2="104.5" gradientUnits="userSpaceOnUse">
<stop stop-opacity="0.61"/>
<stop offset="1" stop-opacity="0.89"/>
</linearGradient>
<linearGradient id="paint3_linear_145_6568" x1="94.5" y1="10" x2="94.5" y2="35" gradientUnits="userSpaceOnUse">
<stop stop-opacity="0.61"/>
<stop offset="1" stop-opacity="0.89"/>
</linearGradient>
<linearGradient id="paint4_linear_145_6568" x1="164" y1="35.0003" x2="96.5" y2="105" gradientUnits="userSpaceOnUse">
<stop stop-opacity="0.59"/>
<stop offset="1" stop-opacity="0.13"/>
</linearGradient>
<linearGradient id="paint5_linear_145_6568" x1="25" y1="35" x2="95" y2="102.5" gradientUnits="userSpaceOnUse">
<stop stop-opacity="0.59"/>
<stop offset="1" stop-opacity="0.13"/>
</linearGradient>
<linearGradient id="paint6_linear_145_6568" x1="1.35896e-06" y1="28" x2="36" y2="28" gradientUnits="userSpaceOnUse">
<stop stop-opacity="0.12"/>
<stop offset="1" stop-color="#0B0A0A"/>
</linearGradient>
<linearGradient id="paint7_linear_145_6568" x1="171" y1="10.0001" x2="171" y2="46.0001" gradientUnits="userSpaceOnUse">
<stop stop-opacity="0.12"/>
<stop offset="1" stop-color="#0B0A0A"/>
</linearGradient>
<linearGradient id="paint8_linear_145_6568" x1="94.5" y1="46.8475" x2="94.5" y2="72" gradientUnits="userSpaceOnUse">
<stop stop-color="#00090F" stop-opacity="0"/>
<stop offset="1" stop-color="#00090F"/>
</linearGradient>
<clipPath id="clip0_145_6568">
<rect width="62" height="189" fill="white" transform="translate(189 10) rotate(90)"/>
</clipPath>
<clipPath id="clip1_145_6568">
<rect width="189" height="189" fill="white" transform="translate(189 10) rotate(90)"/>
</clipPath>
<clipPath id="clip2_145_6568">
<rect width="64" height="64" fill="white" transform="translate(161 38) rotate(90)"/>
</clipPath>
<clipPath id="clip3_145_6568">
<rect width="64" height="64" fill="white" transform="translate(92 38) rotate(90)"/>
</clipPath>
</defs>
</svg>
