<svg width="189" height="182" viewBox="0 0 189 182" fill="none" xmlns="http://www.w3.org/2000/svg">
<g clip-path="url(#clip0_135_4616)">
<g clip-path="url(#clip1_135_4616)">
<g clip-path="url(#clip2_135_4616)">
<path fill-rule="evenodd" clip-rule="evenodd" d="M36 194L153 194L189 158L189 41.0001L168.291 33.0352L189 41L153 5.00008L36 5.00006L0 41.0001L1.52588e-05 158L36 194Z" fill="#0BCB4B" fill-opacity="0.8"/>
<g style="mix-blend-mode:luminosity">
<path fill-rule="evenodd" clip-rule="evenodd" d="M153 194L94.5 99.5001L189 158L189 41L94.5 99.5001L153 5.00002L36 5L94.5 99.5001L-5.11423e-06 41L-5.11423e-06 158L94.5 99.5001L36 194L153 194Z" fill="url(#paint0_radial_135_4616)" fill-opacity="0.05"/>
<path d="M36 5L153 5.00001L164 30L25 30L36 5Z" fill="url(#paint1_linear_135_4616)" fill-opacity="0.51"/>
<path d="M189 41L189 158L164 169L164 30.0001L189 41Z" fill="url(#paint2_linear_135_4616)" fill-opacity="0.51"/>
<path d="M4.80827e-07 158L5.59506e-06 41L25 30L25 169L4.80827e-07 158Z" fill="url(#paint3_linear_135_4616)" fill-opacity="0.51"/>
<path fill-rule="evenodd" clip-rule="evenodd" d="M164 169L25 169L25 30.0001L164 30.0001L164 169ZM164 169L176 150L176 49.0001L164 30.0001L145 18.0001L44 18.0001L25 30.0001L13 49.0001L13 150L25 169L44 181L145 181L164 169Z" fill="black" fill-opacity="0.05"/>
<path d="M164 30.0001L94.5 30.0001L94.5 99.5001L164 99.5001L164 30.0001Z" fill="url(#paint4_linear_135_4616)"/>
<path d="M94.5 99.5001L94.5 30.0001L25 30.0001L25 99.5L94.5 99.5001Z" fill="url(#paint5_linear_135_4616)"/>
<path fill-rule="evenodd" clip-rule="evenodd" d="M94 169H95L95 100L164 100V99.0001L95 99.0001V30.0001H94V99.0001H25V100H94L94 169Z" fill="black" fill-opacity="0.1"/>
<path d="M36 5L0 41L25 30L36 5Z" fill="url(#paint6_linear_135_4616)" fill-opacity="0.33"/>
<path d="M189 41L153 5L164 30L189 41Z" fill="url(#paint7_linear_135_4616)" fill-opacity="0.33"/>
</g>
<g clip-path="url(#clip3_135_4616)">
<path d="M52.2511 37.9766C52.2511 38.1396 52.2199 38.2925 52.1574 38.4353C52.0971 38.5782 52.0134 38.7032 51.9062 38.8103C51.7991 38.9175 51.673 39.0023 51.5279 39.0648C51.385 39.1251 51.2321 39.1552 51.0692 39.1552L49.981 39.1552L49.981 41.0001L49.5491 41.0001L49.5491 36.1987L51.0692 36.1987C51.2321 36.1987 51.385 36.23 51.5279 36.2925C51.673 36.3527 51.7991 36.4364 51.9062 36.5436C52.0134 36.6507 52.0971 36.7768 52.1574 36.9219C52.2199 37.0648 52.2511 37.2177 52.2511 37.3806L52.2511 37.9766ZM51.8192 37.3806C51.8192 37.2735 51.7991 37.1742 51.7589 37.0827C51.7187 36.9889 51.6629 36.9074 51.5915 36.8382C51.5223 36.7668 51.4408 36.711 51.3471 36.6708C51.2556 36.6306 51.1562 36.6106 51.0491 36.6106L49.981 36.6106L49.981 38.7434L51.0491 38.7434C51.1562 38.7434 51.2556 38.7233 51.3471 38.6831C51.4408 38.6429 51.5223 38.5882 51.5915 38.519C51.6629 38.4498 51.7187 38.3695 51.7589 38.278C51.7991 38.1842 51.8192 38.0838 51.8192 37.9766L51.8192 37.3806ZM53.9487 37.9632C53.8661 37.9632 53.7879 37.9789 53.7143 38.0101C53.6429 38.0414 53.5804 38.0838 53.5268 38.1373C53.4732 38.1909 53.4308 38.2545 53.3996 38.3282C53.3683 38.3996 53.3527 38.4766 53.3527 38.5592L53.3527 41.0001L52.9408 41.0001L52.9408 37.5715L53.0781 37.5715L53.3025 37.9197C53.3962 37.7925 53.5134 37.692 53.654 37.6184C53.7969 37.5425 53.952 37.5045 54.1194 37.5045L54.3605 37.5045L54.3605 37.9632L53.9487 37.9632ZM57.1998 40.0592C57.1998 40.1976 57.173 40.3282 57.1194 40.451C57.0681 40.5737 56.9967 40.6809 56.9051 40.7724C56.8136 40.8639 56.7065 40.9364 56.5837 40.99C56.4609 41.0414 56.3304 41.067 56.192 41.067L55.9174 41.067C55.779 41.067 55.6484 41.0414 55.5257 40.99C55.4029 40.9364 55.2958 40.8639 55.2042 40.7724C55.1127 40.6809 55.0402 40.5737 54.9866 40.451C54.9353 40.3282 54.9096 40.1976 54.9096 40.0592L54.9096 38.5123C54.9096 38.3739 54.9353 38.2434 54.9866 38.1206C55.0402 37.9978 55.1127 37.8907 55.2042 37.7992C55.2958 37.7077 55.4029 37.6362 55.5257 37.5849C55.6484 37.5313 55.779 37.5045 55.9174 37.5045L56.192 37.5045C56.3304 37.5045 56.4609 37.5313 56.5837 37.5849C56.7065 37.6362 56.8136 37.7077 56.9051 37.7992C56.9967 37.8907 57.0681 37.9978 57.1194 38.1206C57.173 38.2434 57.1998 38.3739 57.1998 38.5123L57.1998 39.3193L55.3214 39.3193L55.3214 40.0827C55.3214 40.1652 55.3371 40.2434 55.3683 40.317C55.3996 40.3885 55.442 40.451 55.4955 40.5045C55.5491 40.5581 55.6116 40.6005 55.683 40.6318C55.7567 40.663 55.8348 40.6786 55.9174 40.6786L56.192 40.6786C56.2746 40.6786 56.3516 40.663 56.423 40.6318C56.4967 40.6005 56.5603 40.5581 56.6138 40.5045C56.6674 40.451 56.7098 40.3885 56.7411 40.317C56.7723 40.2434 56.7879 40.1652 56.7879 40.0827L56.7879 39.855L57.1998 39.9219L57.1998 40.0592ZM56.7879 38.4889C56.7879 38.4063 56.7723 38.3293 56.7411 38.2579C56.7098 38.1842 56.6674 38.1206 56.6138 38.067C56.5603 38.0135 56.4967 37.971 56.423 37.9398C56.3516 37.9085 56.2746 37.8929 56.192 37.8929L55.9174 37.8929C55.8348 37.8929 55.7567 37.9085 55.683 37.9398C55.6116 37.971 55.5491 38.0135 55.4955 38.067C55.442 38.1206 55.3996 38.1842 55.3683 38.2579C55.3371 38.3293 55.3214 38.4063 55.3214 38.4889L55.3214 38.9978L56.7879 38.9978L56.7879 38.4889ZM60.3806 40.1295C60.3806 40.2679 60.3527 40.3952 60.2969 40.5112C60.2411 40.6251 60.1652 40.7233 60.0692 40.8059C59.9732 40.8885 59.8616 40.9532 59.7344 41.0001C59.6094 41.0447 59.4777 41.067 59.3393 41.067L59.0647 41.067C58.9263 41.067 58.7935 41.0414 58.6663 40.99C58.5413 40.9364 58.4308 40.8639 58.3348 40.7724C58.2411 40.6809 58.1652 40.5737 58.1071 40.451C58.0513 40.3282 58.0234 40.1976 58.0234 40.0592L58.0234 39.9219L58.4353 39.855L58.4353 40.0827C58.4353 40.1652 58.452 40.2434 58.4855 40.317C58.5212 40.3885 58.5681 40.451 58.6261 40.5045C58.6842 40.5581 58.7511 40.6005 58.827 40.6318C58.9029 40.663 58.9821 40.6786 59.0647 40.6786L59.3393 40.6786C59.4219 40.6786 59.5011 40.6664 59.577 40.6418C59.6529 40.6172 59.7199 40.5827 59.7779 40.538C59.8382 40.4911 59.885 40.4353 59.9185 40.3706C59.9542 40.3059 59.9721 40.2322 59.9721 40.1496C59.9721 40.0268 59.9453 39.9264 59.8917 39.8483C59.8382 39.7702 59.7667 39.7054 59.6775 39.6541C59.5904 39.6005 59.49 39.557 59.3761 39.5235C59.2645 39.4878 59.1496 39.4532 59.0312 39.4197C58.9129 39.384 58.7969 39.3438 58.683 39.2992C58.5714 39.2545 58.471 39.1965 58.3817 39.1251C58.2946 39.0514 58.2243 38.9599 58.1708 38.8505C58.1172 38.7411 58.0904 38.605 58.0904 38.442C58.0904 38.3036 58.1172 38.1775 58.1708 38.0637C58.2243 37.9476 58.2969 37.8483 58.3884 37.7657C58.4799 37.6831 58.5859 37.6195 58.7065 37.5748C58.8292 37.528 58.9598 37.5045 59.0982 37.5045L59.3393 37.5045C59.4777 37.5045 59.6083 37.5313 59.731 37.5849C59.8538 37.6362 59.9609 37.7077 60.0525 37.7992C60.144 37.8907 60.2154 37.9978 60.2667 38.1206C60.3203 38.2434 60.3471 38.3739 60.3471 38.5123L60.3471 38.5257L59.9353 38.5927L59.9353 38.4889C59.9353 38.4063 59.9196 38.3293 59.8884 38.2579C59.8571 38.1842 59.8147 38.1206 59.7612 38.067C59.7076 38.0135 59.644 37.971 59.5703 37.9398C59.4989 37.9085 59.4219 37.8929 59.3393 37.8929L59.0982 37.8929C59.0156 37.8929 58.9375 37.9052 58.8638 37.9297C58.7924 37.9543 58.7299 37.99 58.6763 38.0369C58.6228 38.0815 58.5804 38.1362 58.5491 38.201C58.5179 38.2657 58.5022 38.3393 58.5022 38.4219C58.5022 38.5402 58.529 38.6373 58.5826 38.7132C58.6362 38.7869 58.7065 38.8494 58.7935 38.9007C58.8828 38.9521 58.9833 38.9956 59.0949 39.0313C59.2087 39.0648 59.3237 39.1005 59.4397 39.1385C59.558 39.1742 59.673 39.2155 59.7846 39.2623C59.8984 39.3092 59.9989 39.3695 60.0859 39.4431C60.1752 39.5168 60.2467 39.6094 60.3002 39.721C60.3538 39.8304 60.3806 39.9666 60.3806 40.1295ZM63.4609 40.0592C63.4609 40.1976 63.4342 40.3282 63.3806 40.451C63.3292 40.5737 63.2578 40.6809 63.1663 40.7724C63.0748 40.8639 62.9676 40.9364 62.8449 40.99C62.7221 41.0414 62.5915 41.067 62.4531 41.067L62.1786 41.067C62.0402 41.067 61.9096 41.0414 61.7868 40.99C61.6641 40.9364 61.5569 40.8639 61.4654 40.7724C61.3739 40.6809 61.3013 40.5737 61.2478 40.451C61.1964 40.3282 61.1708 40.1976 61.1708 40.0592L61.1708 38.5123C61.1708 38.3739 61.1964 38.2434 61.2478 38.1206C61.3013 37.9978 61.3739 37.8907 61.4654 37.7992C61.5569 37.7077 61.6641 37.6362 61.7868 37.5849C61.9096 37.5313 62.0402 37.5045 62.1786 37.5045L62.4531 37.5045C62.5915 37.5045 62.7221 37.5313 62.8449 37.5849C62.9676 37.6362 63.0748 37.7077 63.1663 37.7992C63.2578 37.8907 63.3292 37.9978 63.3806 38.1206C63.4342 38.2434 63.4609 38.3739 63.4609 38.5123L63.4609 39.3193L61.5826 39.3193L61.5826 40.0827C61.5826 40.1652 61.5982 40.2434 61.6295 40.317C61.6607 40.3885 61.7031 40.451 61.7567 40.5045C61.8103 40.5581 61.8728 40.6005 61.9442 40.6318C62.0179 40.663 62.096 40.6786 62.1786 40.6786L62.4531 40.6786C62.5357 40.6786 62.6127 40.663 62.6842 40.6318C62.7578 40.6005 62.8214 40.5581 62.875 40.5045C62.9286 40.451 62.971 40.3885 63.0022 40.317C63.0335 40.2434 63.0491 40.1652 63.0491 40.0827L63.0491 39.855L63.4609 39.9219L63.4609 40.0592ZM63.0491 38.4889C63.0491 38.4063 63.0335 38.3293 63.0022 38.2579C62.971 38.1842 62.9286 38.1206 62.875 38.067C62.8214 38.0135 62.7578 37.971 62.6842 37.9398C62.6127 37.9085 62.5357 37.8929 62.4531 37.8929L62.1786 37.8929C62.096 37.8929 62.0179 37.9085 61.9442 37.9398C61.8728 37.971 61.8103 38.0135 61.7567 38.067C61.7031 38.1206 61.6607 38.1842 61.6295 38.2579C61.5982 38.3293 61.5826 38.4063 61.5826 38.4889L61.5826 38.9978L63.0491 38.9978L63.0491 38.4889ZM66.1629 41.0001L66.1629 38.4889C66.1629 38.4063 66.1473 38.3293 66.1161 38.2579C66.0848 38.1842 66.0424 38.1206 65.9888 38.067C65.9353 38.0135 65.8717 37.971 65.798 37.9398C65.7266 37.9085 65.6496 37.8929 65.567 37.8929L65.2924 37.8929C65.2098 37.8929 65.1317 37.9085 65.058 37.9398C64.9866 37.971 64.9241 38.0135 64.8705 38.067C64.817 38.1206 64.7746 38.1842 64.7433 38.2579C64.7121 38.3293 64.6964 38.4063 64.6964 38.4889L64.6964 41.0001L64.2846 41.0001L64.2846 37.5715L64.4219 37.5715L64.6462 37.9197C64.74 37.7925 64.8571 37.692 64.9978 37.6184C65.1406 37.5425 65.2958 37.5045 65.4632 37.5045L65.567 37.5045C65.7054 37.5045 65.8359 37.5313 65.9587 37.5849C66.0815 37.6362 66.1886 37.7077 66.2801 37.7992C66.3717 37.8907 66.4431 37.9978 66.4944 38.1206C66.548 38.2434 66.5748 38.3739 66.5748 38.5123L66.5748 41.0001L66.1629 41.0001ZM68.6473 41.0001C68.5223 41.0001 68.404 40.9766 68.2924 40.9298C68.183 40.8829 68.0871 40.8181 68.0045 40.7356C67.9241 40.653 67.8594 40.557 67.8103 40.4476C67.7634 40.3382 67.74 40.221 67.74 40.096L67.74 37.9632L67.1239 37.9632L67.1239 37.5715L67.74 37.5715L67.74 36.7478L68.1518 36.6809L68.1518 37.5715L69.0223 37.5715L69.0223 37.9632L68.1518 37.9632L68.1518 40.1161C68.1518 40.1853 68.1641 40.2501 68.1886 40.3103C68.2154 40.3684 68.2511 40.4197 68.2958 40.4643C68.3404 40.509 68.3929 40.5447 68.4531 40.5715C68.5134 40.596 68.5781 40.6083 68.6473 40.6083L69.0223 40.6083L69.0223 41.0001L68.6473 41.0001Z" fill="#CEFDDE"/>
<g opacity="0.7">
<path d="M85.1116 60.2021C84.9487 60.2021 84.7958 60.1708 84.6529 60.1083C84.51 60.0481 84.385 59.9643 84.2779 59.8572C84.1708 59.7501 84.0859 59.6251 84.0234 59.4822C83.9632 59.3393 83.933 59.1864 83.933 59.0235L83.933 58.8862C83.933 58.7233 83.9632 58.5693 84.0234 58.4242C84.0859 58.2813 84.1708 58.1563 84.2779 58.0492C84.385 57.942 84.51 57.8572 84.6529 57.7947C84.7958 57.7344 84.9487 57.7043 85.1116 57.7043L85.3025 57.7043L85.3728 58.1362L85.1116 58.1362C85.0045 58.1362 84.904 58.1563 84.8103 58.1965C84.7188 58.2367 84.6373 58.2914 84.5658 58.3606C84.4967 58.432 84.442 58.5135 84.4018 58.605C84.3616 58.6987 84.3415 58.7992 84.3415 58.9063L84.3415 59.0034C84.3415 59.1083 84.3616 59.2077 84.4018 59.3014C84.442 59.3952 84.4967 59.4766 84.5658 59.5458C84.6373 59.615 84.7188 59.6697 84.8103 59.7099C84.904 59.7501 85.0045 59.7702 85.1116 59.7702L88.8013 59.7702L88.8013 60.2021L85.1116 60.2021ZM84 63.1786L84.3482 62.951C84.221 62.8572 84.1194 62.74 84.0435 62.5994C83.9699 62.4588 83.933 62.3047 83.933 62.1373L83.933 62.0335C83.933 61.8952 83.9587 61.7646 84.01 61.6418C84.0636 61.519 84.1362 61.4119 84.2277 61.3204C84.3192 61.2289 84.4263 61.1563 84.5491 61.1027C84.6719 61.0514 84.8025 61.0257 84.9408 61.0257L87.4286 61.0257L87.4286 61.4376L84.9174 61.4376C84.8348 61.4376 84.7567 61.4532 84.683 61.4844C84.6116 61.5157 84.5491 61.5581 84.4955 61.6117C84.442 61.6652 84.3996 61.7277 84.3683 61.7992C84.3371 61.8728 84.3214 61.951 84.3214 62.0335L84.3214 62.3081C84.3214 62.3907 84.3371 62.4677 84.3683 62.5391C84.3996 62.6128 84.442 62.6764 84.4955 62.73C84.5491 62.7835 84.6116 62.826 84.683 62.8572C84.7567 62.8885 84.8348 62.9041 84.9174 62.9041L87.4286 62.9041L87.4286 63.3159L84 63.3159L84 63.1786ZM88.2522 64.2434L88.8013 64.2434L88.8013 64.7222L88.2522 64.7222L88.2522 64.2434ZM84 64.2768L87.4286 64.2768L87.4286 64.6887L84 64.6887L84 64.2768ZM84.9408 67.9431C84.8025 67.9431 84.6719 67.9164 84.5491 67.8628C84.4263 67.8114 84.3192 67.74 84.2277 67.6485C84.1362 67.557 84.0636 67.4498 84.01 67.3271C83.9587 67.2043 83.933 67.0737 83.933 66.9353L83.933 66.6608C83.933 66.5224 83.9587 66.3918 84.01 66.269C84.0636 66.1463 84.1362 66.0391 84.2277 65.9476C84.3192 65.8561 84.4263 65.7835 84.5491 65.73C84.6719 65.6786 84.8025 65.653 84.9408 65.653L86.4877 65.653C86.6261 65.653 86.7567 65.6786 86.8795 65.73C87.0022 65.7835 87.1094 65.8561 87.2009 65.9476C87.2924 66.0391 87.3638 66.1463 87.4152 66.269C87.4688 66.3918 87.4955 66.5224 87.4955 66.6608L87.4955 66.9353C87.4955 67.0737 87.4688 67.2043 87.4152 67.3271C87.3638 67.4498 87.2924 67.557 87.2009 67.6485C87.1094 67.74 87.0022 67.8114 86.8795 67.8628C86.7567 67.9164 86.6261 67.9431 86.4877 67.9431L86.3504 67.9431L86.2835 67.5313L86.5112 67.5313C86.5938 67.5313 86.6708 67.5157 86.7422 67.4844C86.8158 67.4532 86.8795 67.4108 86.933 67.3572C86.9866 67.3036 87.029 67.24 87.0603 67.1664C87.0915 67.0949 87.1071 67.0179 87.1071 66.9353L87.1071 66.6608C87.1071 66.5782 87.0915 66.5001 87.0603 66.4264C87.029 66.355 86.9866 66.2925 86.933 66.2389C86.8795 66.1853 86.8158 66.1429 86.7422 66.1117C86.6708 66.0804 86.5938 66.0648 86.5112 66.0648L84.9174 66.0648C84.8348 66.0648 84.7567 66.0804 84.683 66.1117C84.6116 66.1429 84.5491 66.1853 84.4955 66.2389C84.442 66.2925 84.3996 66.355 84.3683 66.4264C84.3371 66.5001 84.3214 66.5782 84.3214 66.6608L84.3214 66.9353C84.3214 67.0179 84.3371 67.0949 84.3683 67.1664C84.3996 67.24 84.442 67.3036 84.4955 67.3572C84.5491 67.4108 84.6116 67.4532 84.683 67.4844C84.7567 67.5157 84.8348 67.5313 84.9174 67.5313L85.1451 67.5313L85.0781 67.9431L84.9408 67.9431ZM84.9408 71.057C84.8025 71.057 84.6719 71.0302 84.5491 70.9766C84.4263 70.9253 84.3192 70.8539 84.2277 70.7623C84.1362 70.6708 84.0636 70.5637 84.01 70.4409C83.9587 70.3181 83.933 70.1876 83.933 70.0492L83.933 69.7746C83.933 69.6362 83.9587 69.5056 84.01 69.3829C84.0636 69.2601 84.1362 69.153 84.2277 69.0614C84.3192 68.9699 84.4263 68.8974 84.5491 68.8438C84.6719 68.7925 84.8025 68.7668 84.9408 68.7668L86.4877 68.7668C86.6261 68.7668 86.7567 68.7925 86.8795 68.8438C87.0022 68.8974 87.1094 68.9699 87.2009 69.0614C87.2924 69.153 87.3638 69.2601 87.4152 69.3829C87.4688 69.5056 87.4955 69.6362 87.4955 69.7746L87.4955 70.0492C87.4955 70.1876 87.4688 70.3181 87.4152 70.4409C87.3638 70.5637 87.2924 70.6708 87.2009 70.7623C87.1094 70.8539 87.0022 70.9253 86.8795 70.9766C86.7567 71.0302 86.6261 71.057 86.4877 71.057L85.6808 71.057L85.6808 69.1786L84.9174 69.1786C84.8348 69.1786 84.7567 69.1943 84.683 69.2255C84.6116 69.2568 84.5491 69.2992 84.4955 69.3527C84.442 69.4063 84.3996 69.4688 84.3683 69.5402C84.3371 69.6139 84.3214 69.692 84.3214 69.7746L84.3214 70.0492C84.3214 70.1318 84.3371 70.2088 84.3683 70.2802C84.3996 70.3539 84.442 70.4175 84.4955 70.471C84.5491 70.5246 84.6116 70.567 84.683 70.5983C84.7567 70.6295 84.8348 70.6452 84.9174 70.6452L85.1451 70.6452L85.0781 71.057L84.9408 71.057ZM86.5112 70.6452C86.5938 70.6452 86.6708 70.6295 86.7422 70.5983C86.8158 70.567 86.8795 70.5246 86.933 70.471C86.9866 70.4175 87.029 70.3539 87.0603 70.2802C87.0915 70.2088 87.1071 70.1318 87.1071 70.0492L87.1071 69.7746C87.1071 69.692 87.0915 69.6139 87.0603 69.5402C87.029 69.4688 86.9866 69.4063 86.933 69.3527C86.8795 69.2992 86.8158 69.2568 86.7422 69.2255C86.6708 69.1943 86.5938 69.1786 86.5112 69.1786L86.0022 69.1786L86.0022 70.6452L86.5112 70.6452Z" fill="#CEFDDE"/>
</g>
<path d="M34.8214 68.2489C34.9844 68.2489 35.1373 68.2802 35.2801 68.3427C35.423 68.403 35.548 68.4867 35.6551 68.5938C35.7623 68.701 35.8471 68.8271 35.9096 68.9722C35.9699 69.115 36 69.2679 36 69.4309L36 70.951L31.1987 70.951L31.1987 69.4309C31.1987 69.2679 31.2299 69.115 31.2924 68.9722C31.3527 68.8271 31.4364 68.701 31.5435 68.5938C31.6507 68.4867 31.7768 68.403 31.9219 68.3427C32.0647 68.2802 32.2176 68.2489 32.3806 68.2489L34.8214 68.2489ZM32.3806 68.6809C32.2734 68.6809 32.1741 68.701 32.0826 68.7411C31.9888 68.7813 31.9074 68.8371 31.8382 68.9085C31.7667 68.9777 31.7109 69.0592 31.6708 69.153C31.6306 69.2445 31.6105 69.3438 31.6105 69.451L31.6105 70.519L35.5882 70.519L35.5882 69.451C35.5882 69.3438 35.5681 69.2445 35.5279 69.153C35.4877 69.0592 35.433 68.9777 35.3638 68.9085C35.2946 68.8371 35.2143 68.7813 35.1228 68.7411C35.029 68.701 34.9286 68.6809 34.8214 68.6809L32.3806 68.6809ZM35.0592 65.0681C35.1975 65.0681 35.3281 65.0949 35.4509 65.1485C35.5737 65.1998 35.6808 65.2713 35.7723 65.3628C35.8638 65.4543 35.9364 65.5614 35.99 65.6842C36.0413 65.807 36.067 65.9376 36.067 66.076L36.067 66.3505C36.067 66.4889 36.0413 66.6195 35.99 66.7422C35.9364 66.865 35.8638 66.9722 35.7723 67.0637C35.6808 67.1552 35.5737 67.2277 35.4509 67.2813C35.3281 67.3327 35.1975 67.3583 35.0592 67.3583L33.5123 67.3583C33.3739 67.3583 33.2433 67.3327 33.1205 67.2813C32.9978 67.2277 32.8906 67.1552 32.7991 67.0637C32.7076 66.9722 32.6362 66.865 32.5848 66.7422C32.5313 66.6195 32.5045 66.4889 32.5045 66.3505L32.5045 66.076C32.5045 65.9376 32.5313 65.807 32.5848 65.6842C32.6362 65.5614 32.7076 65.4543 32.7991 65.3628C32.8906 65.2713 32.9978 65.1998 33.1205 65.1485C33.2433 65.0949 33.3739 65.0681 33.5123 65.0681L35.0592 65.0681ZM33.4888 65.48C33.4063 65.48 33.3292 65.4956 33.2578 65.5268C33.1842 65.5581 33.1205 65.6005 33.067 65.6541C33.0134 65.7077 32.971 65.7713 32.9397 65.8449C32.9085 65.9164 32.8929 65.9934 32.8929 66.076L32.8929 66.3505C32.8929 66.4331 32.9085 66.5112 32.9397 66.5849C32.971 66.6563 33.0134 66.7188 33.067 66.7724C33.1205 66.826 33.1842 66.8684 33.2578 66.8996C33.3292 66.9309 33.4063 66.9465 33.4888 66.9465L35.0826 66.9465C35.1652 66.9465 35.2433 66.9309 35.317 66.8996C35.3884 66.8684 35.4509 66.826 35.5045 66.7724C35.558 66.7188 35.6004 66.6563 35.6317 66.5849C35.6629 66.5112 35.6786 66.4331 35.6786 66.3505L35.6786 66.076C35.6786 65.9934 35.6629 65.9164 35.6317 65.8449C35.6004 65.7713 35.558 65.7077 35.5045 65.6541C35.4509 65.6005 35.3884 65.5581 35.317 65.5268C35.2433 65.4956 35.1652 65.48 35.0826 65.48L33.4888 65.48ZM35.0592 61.9543C35.1975 61.9543 35.3281 61.9811 35.4509 62.0347C35.5737 62.086 35.6808 62.1574 35.7723 62.2489C35.8638 62.3405 35.9364 62.4476 35.99 62.5704C36.0413 62.6931 36.067 62.8237 36.067 62.9621L36.067 63.2367C36.067 63.3751 36.0413 63.5056 35.99 63.6284C35.9364 63.7512 35.8638 63.8583 35.7723 63.9498C35.6808 64.0414 35.5737 64.1139 35.4509 64.1675C35.3281 64.2188 35.1975 64.2445 35.0592 64.2445L33.5123 64.2445C33.3739 64.2445 33.2433 64.2188 33.1205 64.1675C32.9978 64.1139 32.8906 64.0414 32.7991 63.9498C32.7076 63.8583 32.6362 63.7512 32.5848 63.6284C32.5313 63.5056 32.5045 63.3751 32.5045 63.2367L32.5045 62.9621C32.5045 62.8237 32.5313 62.6931 32.5848 62.5704C32.6362 62.4476 32.7076 62.3405 32.7991 62.2489C32.8906 62.1574 32.9978 62.086 33.1205 62.0347C33.2433 61.9811 33.3739 61.9543 33.5123 61.9543L35.0592 61.9543ZM33.4888 62.3661C33.4063 62.3661 33.3292 62.3818 33.2578 62.413C33.1842 62.4443 33.1205 62.4867 33.067 62.5402C33.0134 62.5938 32.971 62.6574 32.9397 62.7311C32.9085 62.8025 32.8929 62.8795 32.8929 62.9621L32.8929 63.2367C32.8929 63.3193 32.9085 63.3974 32.9397 63.471C32.971 63.5425 33.0134 63.605 33.067 63.6585C33.1205 63.7121 33.1842 63.7545 33.2578 63.7858C33.3292 63.817 33.4063 63.8327 33.4888 63.8327L35.0826 63.8327C35.1652 63.8327 35.2433 63.817 35.317 63.7858C35.3884 63.7545 35.4509 63.7121 35.5045 63.6585C35.558 63.605 35.6004 63.5425 35.6317 63.471C35.6629 63.3974 35.6786 63.3193 35.6786 63.2367L35.6786 62.9621C35.6786 62.8795 35.6629 62.8025 35.6317 62.7311C35.6004 62.6574 35.558 62.5938 35.5045 62.5402C35.4509 62.4867 35.3884 62.4443 35.317 62.413C35.2433 62.3818 35.1652 62.3661 35.0826 62.3661L33.4888 62.3661ZM32.9632 60.1228C32.9632 60.2054 32.9788 60.2835 33.01 60.3572C33.0413 60.4286 33.0837 60.4911 33.1373 60.5447C33.1908 60.5983 33.2545 60.6407 33.3281 60.6719C33.3996 60.7032 33.4766 60.7188 33.5592 60.7188L36 60.7188L36 61.1306L32.5714 61.1306L32.5714 60.9934L32.9196 60.769C32.7924 60.6753 32.692 60.5581 32.6183 60.4175C32.5424 60.2746 32.5045 60.1195 32.5045 59.9521L32.5045 59.711L32.9632 59.711L32.9632 60.1228Z" fill="#CEFDDE"/>
<g opacity="0.7">
<path d="M64.7857 93.3896V89.0001H65.2176V93.3896H66.3627V93.8014H63.6406V93.3896H64.7857ZM61.0725 89.9409C61.0725 89.8025 61.0993 89.6719 61.1529 89.5492C61.2042 89.4264 61.2757 89.3193 61.3672 89.2277C61.4587 89.1362 61.5658 89.0637 61.6886 89.0101C61.8114 88.9588 61.942 88.9331 62.0804 88.9331H62.3549C62.4933 88.9331 62.6239 88.9588 62.7467 89.0101C62.8694 89.0637 62.9766 89.1362 63.0681 89.2277C63.1596 89.3193 63.2321 89.4264 63.2857 89.5492C63.3371 89.6719 63.3627 89.8025 63.3627 89.9409V91.4878C63.3627 91.6262 63.3371 91.7568 63.2857 91.8795C63.2321 92.0023 63.1596 92.1094 63.0681 92.201C62.9766 92.2925 62.8694 92.3639 62.7467 92.4152C62.6239 92.4688 62.4933 92.4956 62.3549 92.4956H62.0804C61.942 92.4956 61.8114 92.4688 61.6886 92.4152C61.5658 92.3639 61.4587 92.2925 61.3672 92.201C61.2757 92.1094 61.2042 92.0023 61.1529 91.8795C61.0993 91.7568 61.0725 91.6262 61.0725 91.4878V90.6809H62.9509V89.9175C62.9509 89.8349 62.9353 89.7568 62.904 89.6831C62.8728 89.6117 62.8304 89.5492 62.7768 89.4956C62.7232 89.442 62.6607 89.3996 62.5893 89.3684C62.5156 89.3371 62.4375 89.3215 62.3549 89.3215H62.0804C61.9978 89.3215 61.9208 89.3371 61.8493 89.3684C61.7757 89.3996 61.7121 89.442 61.6585 89.4956C61.6049 89.5492 61.5625 89.6117 61.5312 89.6831C61.5 89.7568 61.4844 89.8349 61.4844 89.9175V90.1452L61.0725 90.0782V89.9409ZM61.4844 91.5112C61.4844 91.5938 61.5 91.6708 61.5312 91.7422C61.5625 91.8159 61.6049 91.8795 61.6585 91.9331C61.7121 91.9867 61.7757 92.0291 61.8493 92.0603C61.9208 92.0916 61.9978 92.1072 62.0804 92.1072H62.3549C62.4375 92.1072 62.5156 92.0916 62.5893 92.0603C62.6607 92.0291 62.7232 91.9867 62.7768 91.9331C62.8304 91.8795 62.8728 91.8159 62.904 91.7422C62.9353 91.6708 62.9509 91.5938 62.9509 91.5112V91.0023H61.4844V91.5112ZM58.4743 89.0001L59.2076 90.3159L59.9408 89.0001H60.3862L59.4252 90.7143L60.3862 92.4286H59.9408L59.2076 91.1128L58.4743 92.4286H58.029L58.9866 90.7143L58.029 89.0001H58.4743ZM56.0937 89.0001C56.2187 89.0001 56.3371 89.0235 56.4487 89.0704C56.558 89.1172 56.654 89.182 56.7366 89.2646C56.817 89.3472 56.8817 89.4431 56.9308 89.5525C56.9777 89.6619 57.0011 89.7791 57.0011 89.9041V92.0369H57.6172V92.4286H57.0011V93.2523L56.5893 93.3193V92.4286H55.7187V92.0369H56.5893V89.884C56.5893 89.8148 56.577 89.7501 56.5525 89.6898C56.5257 89.6318 56.49 89.5804 56.4453 89.5358C56.4007 89.4911 56.3482 89.4554 56.2879 89.4286C56.2277 89.4041 56.1629 89.3918 56.0937 89.3918H55.7187V89.0001H56.0937Z" fill="#CEFDDE"/>
</g>
<g opacity="0.3">
<path fill-rule="evenodd" clip-rule="evenodd" d="M38.0046 90.0626L36.2928 88.3509C36.0978 88.1559 35.7817 88.1559 35.5867 88.3509C35.3917 88.5459 35.3917 88.862 35.5867 89.057L36.5474 90.0177C35.5132 90.0081 34.7351 89.8154 34.2755 89.3122C33.7967 88.7882 33.6115 88.3731 33.6115 86.9994C33.6115 86.7236 33.3879 86.5001 33.1121 86.5001C32.8364 86.5001 32.6128 86.7236 32.6128 86.9994C32.6128 88.5603 32.8537 89.2366 33.5382 89.9858C34.1793 90.6876 35.1658 90.9744 36.3488 91.0123L35.584 91.777C35.389 91.972 35.389 92.2882 35.584 92.4832C35.779 92.6782 36.0951 92.6782 36.2901 92.4832L38.0046 90.7688C38.1996 90.5738 38.1996 90.2576 38.0046 90.0626Z" fill="black"/>
<path fill-rule="evenodd" clip-rule="evenodd" d="M81.2972 90.0626L83.0096 88.3509C83.2046 88.1559 83.5209 88.1559 83.716 88.3509C83.911 88.5459 83.911 88.862 83.716 89.057L82.7549 90.0177C83.7895 90.0082 84.5679 89.8155 85.0278 89.3123C85.5067 88.7883 85.6921 88.3732 85.6921 86.9995C85.6921 86.7237 85.9157 86.5001 86.1916 86.5001C86.4674 86.5001 86.6911 86.7237 86.6911 86.9995C86.6911 88.5604 86.4501 89.2366 85.7654 89.9858C85.124 90.6877 84.1371 90.9744 82.9537 91.0124L83.7187 91.777C83.9137 91.972 83.9137 92.2882 83.7187 92.4832C83.5236 92.6782 83.2073 92.6782 83.0123 92.4832L81.2972 90.7688C81.1021 90.5738 81.1021 90.2576 81.2972 90.0626Z" fill="black"/>
<path fill-rule="evenodd" clip-rule="evenodd" d="M81.2991 40.0669L83.0109 41.7786C83.2059 41.9736 83.522 41.9736 83.717 41.7786C83.912 41.5836 83.912 41.2675 83.717 41.0725L82.7563 40.1118C83.7905 40.1214 84.5686 40.3141 85.0282 40.8173C85.507 41.3413 85.6923 41.7564 85.6923 43.1301C85.6923 43.4059 85.9158 43.6294 86.1916 43.6294C86.4674 43.6294 86.6909 43.4059 86.6909 43.1301C86.6909 41.5692 86.45 40.893 85.7655 40.1437C85.1244 39.4419 84.1379 39.1551 82.955 39.1172L83.7197 38.3525C83.9147 38.1575 83.9147 37.8413 83.7197 37.6463C83.5247 37.4513 83.2086 37.4513 83.0136 37.6463L81.2991 39.3607C81.1041 39.5557 81.1041 39.8719 81.2991 40.0669Z" fill="black"/>
<path fill-rule="evenodd" clip-rule="evenodd" d="M38.0065 40.0669L36.2941 41.7786C36.0991 41.9736 35.7828 41.9736 35.5877 41.7786C35.3927 41.5836 35.3927 41.2675 35.5877 41.0725L36.5488 40.1118C35.5142 40.1214 34.7358 40.314 34.2759 40.8172C33.797 41.3413 33.6116 41.7564 33.6116 43.1301C33.6116 43.4058 33.388 43.6294 33.1121 43.6294C32.8363 43.6294 32.6126 43.4058 32.6126 43.1301C32.6126 41.5692 32.8536 40.8929 33.5383 40.1437C34.1797 39.4418 35.1666 39.1551 36.35 39.1171L35.585 38.3525C35.39 38.1575 35.39 37.8413 35.585 37.6463C35.7801 37.4513 36.0964 37.4513 36.2914 37.6463L38.0065 39.3607C38.2016 39.5557 38.2016 39.8719 38.0065 40.0669Z" fill="black"/>
</g>
</g>
<g style="mix-blend-mode:luminosity">
<g filter="url(#filter0_d_135_4616)">
<path d="M79.515 11.5741C80.085 11.5741 80.628 11.5981 81.144 11.6461C81.18 11.7061 81.198 11.7931 81.198 11.9071C81.198 11.9971 81.186 12.0751 81.162 12.1411C80.682 12.0871 80.103 12.0631 79.425 12.0691L79.425 17.1451C79.425 17.4751 79.458 17.6401 79.524 17.6401L80.091 17.6221C80.115 17.6641 80.127 17.7211 80.127 17.7931C80.127 17.8411 80.118 17.8921 80.1 17.9461C79.704 18.0601 79.32 18.1171 78.948 18.1171C78.756 18.1171 78.618 18.1081 78.534 18.0901C78.456 18.0781 78.402 18.0481 78.372 18.0001C78.348 17.9461 78.339 17.8561 78.345 17.7301L78.345 12.1411C77.643 12.1951 77.034 12.2821 76.518 12.4021C76.482 12.3181 76.464 12.2341 76.464 12.1501C76.464 12.1021 76.476 12.0241 76.5 11.9161C77.364 11.6881 78.369 11.5741 79.515 11.5741ZM82.1176 12.6361C82.0096 12.6481 81.9616 12.5521 81.9736 12.3481L81.9736 11.8891C81.9736 11.7871 81.9826 11.7181 82.0006 11.6821C82.0246 11.6461 82.0756 11.6221 82.1536 11.6101L82.8556 11.5831C82.9636 11.5711 83.0116 11.6671 82.9996 11.8711L82.9996 12.3301C82.9996 12.4321 82.9876 12.5011 82.9636 12.5371C82.9456 12.5731 82.8976 12.5971 82.8196 12.6091L82.1176 12.6361ZM83.9356 17.7931C83.9356 17.8411 83.9266 17.8921 83.9086 17.9461C83.5126 18.0601 83.1076 18.1171 82.6936 18.1171C82.5136 18.1171 82.3876 18.1081 82.3156 18.0901C82.2436 18.0781 82.1956 18.0481 82.1716 18.0001C82.1536 17.9461 82.1476 17.8561 82.1536 17.7301L82.1536 14.3461C82.1536 14.0161 82.1206 13.8511 82.0546 13.8511L81.4336 13.8691C81.4096 13.8271 81.3976 13.7701 81.3976 13.6981C81.3976 13.6501 81.4066 13.5991 81.4246 13.5451C81.8206 13.4311 82.2256 13.3741 82.6396 13.3741C82.8196 13.3741 82.9456 13.3831 83.0176 13.4011C83.0896 13.4131 83.1346 13.4461 83.1526 13.5001C83.1766 13.5481 83.1856 13.6351 83.1796 13.7611L83.1796 17.1451C83.1796 17.4631 83.2096 17.6221 83.2696 17.6221L83.8996 17.6221C83.9236 17.6641 83.9356 17.7211 83.9356 17.7931ZM87.1104 13.9141C86.8764 13.9141 86.4714 14.0011 85.8954 14.1751L85.8954 17.8381C85.8954 17.9221 85.8474 17.9821 85.7514 18.0181C85.5234 18.0841 85.2804 18.1171 85.0224 18.1171C84.9204 18.1171 84.8694 18.0661 84.8694 17.9641L84.8694 14.3461C84.8694 14.0161 84.8364 13.8511 84.7704 13.8511L84.1494 13.8691C84.1254 13.8271 84.1134 13.7701 84.1134 13.6981C84.1134 13.6501 84.1224 13.5991 84.1404 13.5451C84.5364 13.4311 84.9414 13.3741 85.3554 13.3741C85.5354 13.3741 85.6614 13.3831 85.7334 13.4011C85.8054 13.4131 85.8504 13.4461 85.8684 13.5001C85.8924 13.5481 85.9014 13.6351 85.8954 13.7611C86.3334 13.6291 86.6874 13.5331 86.9574 13.4731C87.2634 13.4071 87.5364 13.3741 87.7764 13.3741C88.2324 13.3741 88.5054 13.5091 88.5954 13.7791C88.7334 13.7311 88.9524 13.6681 89.2524 13.5901C89.6004 13.5001 89.8104 13.4461 89.8824 13.4281C90.1104 13.3921 90.3084 13.3741 90.4764 13.3741C90.8064 13.3741 91.0404 13.4281 91.1784 13.5361C91.3164 13.6381 91.3854 13.8121 91.3854 14.0581L91.3854 17.1451C91.3854 17.3431 91.3914 17.4781 91.4034 17.5501C91.4094 17.6101 91.4364 17.6401 91.4844 17.6401L92.1054 17.6221C92.1294 17.6881 92.1414 17.7451 92.1414 17.7931C92.1414 17.8111 92.1354 17.8441 92.1234 17.8921L92.1144 17.9461C91.7184 18.0601 91.3134 18.1171 90.8994 18.1171C90.7194 18.1171 90.5934 18.1081 90.5214 18.0901C90.4494 18.0781 90.4014 18.0481 90.3774 18.0001C90.3594 17.9461 90.3534 17.8561 90.3594 17.7301L90.3594 14.2831C90.3594 14.0371 90.1914 13.9141 89.8554 13.9141C89.6334 13.9141 89.2284 14.0011 88.6404 14.1751L88.6404 17.8381C88.6404 17.9221 88.5924 17.9821 88.4964 18.0181C88.2684 18.0841 88.0254 18.1171 87.7674 18.1171C87.6654 18.1171 87.6144 18.0661 87.6144 17.9641L87.6144 14.2831C87.6144 14.0371 87.4464 13.9141 87.1104 13.9141ZM95.4641 17.5681C95.8781 17.5021 96.1781 17.4451 96.3641 17.3971C96.3941 17.4571 96.4091 17.5321 96.4091 17.6221C96.4091 17.7001 96.3971 17.7601 96.3731 17.8021C95.5691 18.0121 94.6871 18.1171 93.7271 18.1171C93.4031 18.1171 93.1661 18.0661 93.0161 17.9641C92.8721 17.8621 92.8001 17.6941 92.8001 17.4601L92.8001 14.3731C92.8001 14.0011 92.9981 13.7401 93.3941 13.5901C93.7781 13.4461 94.4021 13.3741 95.2661 13.3741C95.5721 13.3741 95.8061 13.4041 95.9681 13.4641C96.1361 13.5181 96.2561 13.6141 96.3281 13.7521C96.4001 13.8901 96.4361 14.0881 96.4361 14.3461L96.4361 14.9851C96.4361 15.2371 96.3731 15.4351 96.2471 15.5791C96.1211 15.7171 95.9201 15.8161 95.6441 15.8761C94.9781 15.9781 94.3721 16.0471 93.8261 16.0831L93.8261 17.1091C93.8261 17.3371 93.8681 17.4871 93.9521 17.5591C94.0421 17.6311 94.2221 17.6671 94.4921 17.6671C94.7321 17.6671 95.0561 17.6341 95.4641 17.5681ZM94.0331 13.9051C93.8831 14.0011 93.8141 14.1691 93.8261 14.4091L93.8261 15.6691C94.2281 15.6331 94.5551 15.5911 94.8071 15.5431C95.0531 15.4891 95.2151 15.4261 95.2931 15.3541C95.3711 15.2821 95.4101 15.1501 95.4101 14.9581L95.4101 14.4091C95.4101 14.1571 95.3711 13.9861 95.2931 13.8961C95.2211 13.8001 95.0861 13.7521 94.8881 13.7521C94.4681 13.7521 94.1831 13.8031 94.0331 13.9051ZM99.3757 17.7931C99.3757 17.8411 99.3667 17.8921 99.3487 17.9461C98.9527 18.0601 98.5477 18.1171 98.1337 18.1171C97.9537 18.1171 97.8277 18.1081 97.7557 18.0901C97.6837 18.0781 97.6357 18.0481 97.6117 18.0001C97.5937 17.9461 97.5877 17.8561 97.5937 17.7301L97.5937 12.5551C97.5937 12.2251 97.5607 12.0601 97.4947 12.0601L96.8737 12.0781C96.8497 12.0361 96.8377 11.9791 96.8377 11.9071C96.8377 11.8591 96.8467 11.8081 96.8647 11.7541C97.2607 11.6401 97.6657 11.5831 98.0797 11.5831C98.2597 11.5831 98.3857 11.5921 98.4577 11.6101C98.5297 11.6221 98.5747 11.6551 98.5927 11.7091C98.6167 11.7571 98.6257 11.8441 98.6197 11.9701L98.6197 17.1451C98.6197 17.4751 98.6527 17.6401 98.7187 17.6401L99.3397 17.6221C99.3637 17.6641 99.3757 17.7211 99.3757 17.7931ZM100.276 12.6361C100.168 12.6481 100.12 12.5521 100.132 12.3481L100.132 11.8891C100.132 11.7871 100.141 11.7181 100.159 11.6821C100.183 11.6461 100.234 11.6221 100.312 11.6101L101.014 11.5831C101.122 11.5711 101.17 11.6671 101.158 11.8711L101.158 12.3301C101.158 12.4321 101.146 12.5011 101.122 12.5371C101.104 12.5731 101.056 12.5971 100.978 12.6091L100.276 12.6361ZM102.094 17.7931C102.094 17.8411 102.085 17.8921 102.067 17.9461C101.671 18.0601 101.266 18.1171 100.852 18.1171C100.672 18.1171 100.546 18.1081 100.474 18.0901C100.402 18.0781 100.354 18.0481 100.33 18.0001C100.312 17.9461 100.306 17.8561 100.312 17.7301L100.312 14.3461C100.312 14.0161 100.279 13.8511 100.213 13.8511L99.5918 13.8691C99.5678 13.8271 99.5558 13.7701 99.5558 13.6981C99.5558 13.6501 99.5648 13.5991 99.5828 13.5451C99.9788 13.4311 100.384 13.3741 100.798 13.3741C100.978 13.3741 101.104 13.3831 101.176 13.4011C101.248 13.4131 101.293 13.4461 101.311 13.5001C101.335 13.5481 101.344 13.6351 101.338 13.7611L101.338 17.1451C101.338 17.4631 101.368 17.6221 101.428 17.6221L102.058 17.6221C102.082 17.6641 102.094 17.7211 102.094 17.7931ZM105.332 13.9141C105.062 13.9141 104.636 13.9981 104.054 14.1661L104.054 17.8381C104.054 17.9221 104.006 17.9821 103.91 18.0181C103.682 18.0841 103.439 18.1171 103.181 18.1171C103.079 18.1171 103.028 18.0661 103.028 17.9641L103.028 14.3461C103.028 14.0161 102.995 13.8511 102.929 13.8511L102.308 13.8691C102.284 13.8271 102.272 13.7701 102.272 13.6981C102.272 13.6501 102.281 13.5991 102.299 13.5451C102.695 13.4311 103.1 13.3741 103.514 13.3741C103.694 13.3741 103.82 13.3831 103.892 13.4011C103.964 13.4131 104.009 13.4461 104.027 13.5001C104.051 13.5481 104.06 13.6351 104.054 13.7611L104.387 13.6621C104.597 13.6021 104.747 13.5631 104.837 13.5451C104.831 13.5451 104.897 13.5301 105.035 13.5001C105.203 13.4581 105.407 13.4221 105.647 13.3921C105.791 13.3801 105.893 13.3741 105.953 13.3741C106.283 13.3741 106.517 13.4281 106.655 13.5361C106.793 13.6381 106.862 13.8121 106.862 14.0581L106.862 17.1451C106.862 17.4751 106.895 17.6401 106.961 17.6401L107.582 17.6221C107.606 17.6641 107.618 17.7211 107.618 17.7931C107.618 17.8411 107.609 17.8921 107.591 17.9461C107.195 18.0601 106.79 18.1171 106.376 18.1171C106.196 18.1171 106.07 18.1081 105.998 18.0901C105.926 18.0781 105.878 18.0481 105.854 18.0001C105.836 17.9461 105.83 17.8561 105.836 17.7301L105.836 14.2831C105.836 14.0371 105.668 13.9141 105.332 13.9141ZM110.942 17.5681C111.356 17.5021 111.656 17.4451 111.842 17.3971C111.872 17.4571 111.887 17.5321 111.887 17.6221C111.887 17.7001 111.875 17.7601 111.851 17.8021C111.047 18.0121 110.165 18.1171 109.205 18.1171C108.881 18.1171 108.644 18.0661 108.494 17.9641C108.35 17.8621 108.278 17.6941 108.278 17.4601L108.278 14.3731C108.278 14.0011 108.476 13.7401 108.872 13.5901C109.256 13.4461 109.88 13.3741 110.744 13.3741C111.05 13.3741 111.284 13.4041 111.446 13.4641C111.614 13.5181 111.734 13.6141 111.806 13.7521C111.878 13.8901 111.914 14.0881 111.914 14.3461L111.914 14.9851C111.914 15.2371 111.851 15.4351 111.725 15.5791C111.599 15.7171 111.398 15.8161 111.122 15.8761C110.456 15.9781 109.85 16.0471 109.304 16.0831L109.304 17.1091C109.304 17.3371 109.346 17.4871 109.43 17.5591C109.52 17.6311 109.7 17.6671 109.97 17.6671C110.21 17.6671 110.534 17.6341 110.942 17.5681ZM109.511 13.9051C109.361 14.0011 109.292 14.1691 109.304 14.4091L109.304 15.6691C109.706 15.6331 110.033 15.5911 110.285 15.5431C110.531 15.4891 110.693 15.4261 110.771 15.3541C110.849 15.2821 110.888 15.1501 110.888 14.9581L110.888 14.4091C110.888 14.1571 110.849 13.9861 110.771 13.8961C110.699 13.8001 110.564 13.7521 110.366 13.7521C109.946 13.7521 109.661 13.8031 109.511 13.9051Z" fill="#9CFCBC"/>
</g>
</g>
</g>
</g>
<g clip-path="url(#clip4_135_4616)">
<rect x="27.25" y="113" width="64" height="64" fill="black" fill-opacity="0.5"/>
<path d="M34.1384 147.319C34.3013 147.319 34.4542 147.35 34.5971 147.413C34.74 147.473 34.865 147.557 34.9721 147.664C35.0792 147.771 35.1641 147.896 35.2266 148.039C35.2868 148.182 35.317 148.335 35.317 148.498L35.317 148.839C35.317 149.002 35.2868 149.156 35.2266 149.301C35.1641 149.444 35.0792 149.569 34.9721 149.676C34.865 149.783 34.74 149.868 34.5971 149.931C34.4542 149.991 34.3013 150.021 34.1384 150.021L31.5603 150.021C31.3973 150.021 31.2444 149.991 31.1016 149.931C30.9587 149.868 30.8337 149.783 30.7266 149.676C30.6194 149.569 30.5357 149.444 30.4754 149.301C30.4129 149.156 30.3817 149.002 30.3817 148.839L30.3817 148.498C30.3817 148.335 30.4129 148.182 30.4754 148.039C30.5357 147.896 30.6194 147.771 30.7266 147.664C30.8337 147.557 30.9587 147.473 31.1016 147.413C31.2444 147.35 31.3973 147.319 31.5603 147.319L34.1384 147.319ZM31.5603 147.751C31.4531 147.751 31.3538 147.771 31.2623 147.811C31.1685 147.852 31.0871 147.906 31.0179 147.975C30.9487 148.045 30.894 148.126 30.8538 148.22C30.8136 148.311 30.7935 148.411 30.7935 148.518L30.7935 148.819C30.7935 148.926 30.8136 149.027 30.8538 149.121C30.894 149.212 30.9487 149.294 31.0179 149.365C31.0871 149.434 31.1685 149.489 31.2623 149.529C31.3538 149.569 31.4531 149.589 31.5603 149.589L34.1384 149.589C34.2455 149.589 34.346 149.569 34.4397 149.529C34.5313 149.489 34.6127 149.434 34.6842 149.365C34.7533 149.294 34.808 149.212 34.8482 149.121C34.8884 149.027 34.9085 148.926 34.9085 148.819L34.9085 148.518C34.9085 148.411 34.8884 148.311 34.8482 148.22C34.808 148.126 34.7533 148.045 34.6842 147.975C34.6127 147.906 34.5313 147.852 34.4397 147.811C34.346 147.771 34.2455 147.751 34.1384 147.751L31.5603 147.751ZM35.25 143.539L35.25 143.763L32.6652 144.567L32.4877 144.58L32.6652 144.594L35.25 145.397L35.25 145.625L31.8214 146.77L31.8214 146.352L34.4129 145.535L34.5904 145.521L34.4129 145.508L31.8214 144.704L31.8214 144.456L34.4129 143.656L34.5904 143.643L34.4129 143.629L31.8214 142.813L31.8214 142.394L35.25 143.539ZM35.25 141.775L30.4487 141.775L30.4487 141.363L35.25 141.363L35.25 141.775Z" fill="#CEFDDE"/>
<path d="M52.5614 118.703L52.5614 121L52.1295 121L52.1295 118.71L50.8873 116.199L51.3527 116.199L52.3404 118.194L53.3281 116.199L53.7935 116.199L52.5614 118.703ZM56.2879 121L56.0603 120.652C55.9665 120.779 55.8493 120.881 55.7087 120.956C55.5681 121.03 55.4141 121.067 55.2467 121.067L55.1429 121.067C55.0045 121.067 54.8739 121.041 54.7511 120.99C54.6283 120.936 54.5212 120.864 54.4297 120.772C54.3382 120.681 54.2656 120.574 54.2121 120.451C54.1607 120.328 54.135 120.198 54.135 120.059L54.135 117.571L54.5469 117.571L54.5469 120.083C54.5469 120.165 54.5625 120.243 54.5938 120.317C54.625 120.388 54.6674 120.451 54.721 120.504C54.7746 120.558 54.8371 120.6 54.9085 120.632C54.9821 120.663 55.0603 120.679 55.1429 120.679L55.4174 120.679C55.5 120.679 55.577 120.663 55.6484 120.632C55.7221 120.6 55.7857 120.558 55.8393 120.504C55.8929 120.451 55.9353 120.388 55.9665 120.317C55.9978 120.243 56.0134 120.165 56.0134 120.083L56.0134 117.571L56.4252 117.571L56.4252 121L56.2879 121ZM59.5391 120.059C59.5391 120.198 59.5123 120.328 59.4587 120.451C59.4074 120.574 59.3359 120.681 59.2444 120.772C59.1529 120.864 59.0458 120.936 58.923 120.99C58.8002 121.041 58.6696 121.067 58.5313 121.067L58.2567 121.067C58.1183 121.067 57.9877 121.041 57.865 120.99C57.7422 120.936 57.635 120.864 57.5435 120.772C57.452 120.681 57.3795 120.574 57.3259 120.451C57.2746 120.328 57.2489 120.198 57.2489 120.059L57.2489 118.512C57.2489 118.374 57.2746 118.243 57.3259 118.121C57.3795 117.998 57.452 117.891 57.5435 117.799C57.635 117.708 57.7422 117.636 57.865 117.585C57.9877 117.531 58.1183 117.504 58.2567 117.504L58.5313 117.504C58.6696 117.504 58.8002 117.531 58.923 117.585C59.0458 117.636 59.1529 117.708 59.2444 117.799C59.3359 117.891 59.4074 117.998 59.4587 118.121C59.5123 118.243 59.5391 118.374 59.5391 118.512L59.5391 118.65L59.1272 118.717L59.1272 118.489C59.1272 118.406 59.1116 118.329 59.0804 118.258C59.0491 118.184 59.0067 118.121 58.9531 118.067C58.8996 118.013 58.8359 117.971 58.7623 117.94C58.6908 117.908 58.6138 117.893 58.5313 117.893L58.2567 117.893C58.1741 117.893 58.096 117.908 58.0223 117.94C57.9509 117.971 57.8884 118.013 57.8348 118.067C57.7813 118.121 57.7388 118.184 57.7076 118.258C57.6763 118.329 57.6607 118.406 57.6607 118.489L57.6607 120.083C57.6607 120.165 57.6763 120.243 57.7076 120.317C57.7388 120.388 57.7813 120.451 57.8348 120.504C57.8884 120.558 57.9509 120.6 58.0223 120.632C58.096 120.663 58.1741 120.679 58.2567 120.679L58.5313 120.679C58.6138 120.679 58.6908 120.663 58.7623 120.632C58.8359 120.6 58.8996 120.558 58.9531 120.504C59.0067 120.451 59.0491 120.388 59.0804 120.317C59.1116 120.243 59.1272 120.165 59.1272 120.083L59.1272 119.855L59.5391 119.922L59.5391 120.059ZM62.6529 120.059C62.6529 120.198 62.6261 120.328 62.5725 120.451C62.5212 120.574 62.4498 120.681 62.3583 120.772C62.2667 120.864 62.1596 120.936 62.0368 120.99C61.9141 121.041 61.7835 121.067 61.6451 121.067L61.3705 121.067C61.2321 121.067 61.1016 121.041 60.9788 120.99C60.856 120.936 60.7489 120.864 60.6574 120.772C60.5658 120.681 60.4933 120.574 60.4397 120.451C60.3884 120.328 60.3627 120.198 60.3627 120.059L60.3627 118.512C60.3627 118.374 60.3884 118.243 60.4397 118.121C60.4933 117.998 60.5658 117.891 60.6574 117.799C60.7489 117.708 60.856 117.636 60.9788 117.585C61.1016 117.531 61.2321 117.504 61.3705 117.504L61.6451 117.504C61.7835 117.504 61.9141 117.531 62.0368 117.585C62.1596 117.636 62.2667 117.708 62.3583 117.799C62.4498 117.891 62.5212 117.998 62.5725 118.121C62.6261 118.243 62.6529 118.374 62.6529 118.512L62.6529 118.65L62.2411 118.717L62.2411 118.489C62.2411 118.406 62.2254 118.329 62.1942 118.258C62.1629 118.184 62.1205 118.121 62.067 118.067C62.0134 118.013 61.9498 117.971 61.8761 117.94C61.8047 117.908 61.7277 117.893 61.6451 117.893L61.3705 117.893C61.2879 117.893 61.2098 117.908 61.1362 117.94C61.0647 117.971 61.0022 118.013 60.9487 118.067C60.8951 118.121 60.8527 118.184 60.8214 118.258C60.7902 118.329 60.7746 118.406 60.7746 118.489L60.7746 120.083C60.7746 120.165 60.7902 120.243 60.8214 120.317C60.8527 120.388 60.8951 120.451 60.9487 120.504C61.0022 120.558 61.0647 120.6 61.1362 120.632C61.2098 120.663 61.2879 120.679 61.3705 120.679L61.6451 120.679C61.7277 120.679 61.8047 120.663 61.8761 120.632C61.9498 120.6 62.0134 120.558 62.067 120.504C62.1205 120.451 62.1629 120.388 62.1942 120.317C62.2254 120.243 62.2411 120.165 62.2411 120.083L62.2411 119.855L62.6529 119.922L62.6529 120.059ZM65.6295 121L65.4018 120.658C65.308 120.781 65.1908 120.881 65.0502 120.956C64.9096 121.03 64.7556 121.067 64.5882 121.067L64.4844 121.067C64.346 121.067 64.2154 121.041 64.0926 120.99C63.9699 120.936 63.8627 120.864 63.7712 120.772C63.6797 120.681 63.6071 120.574 63.5536 120.451C63.5022 120.328 63.4766 120.198 63.4766 120.059L63.4766 120.026C63.4766 119.887 63.5022 119.757 63.5536 119.634C63.6071 119.511 63.6797 119.404 63.7712 119.312C63.8627 119.221 63.9699 119.15 64.0926 119.098C64.2154 119.045 64.346 119.018 64.4844 119.018L65.3549 119.018L65.3549 118.489C65.3549 118.406 65.3393 118.329 65.308 118.258C65.2768 118.184 65.2344 118.121 65.1808 118.067C65.1272 118.013 65.0636 117.971 64.99 117.94C64.9185 117.908 64.8415 117.893 64.7589 117.893L64.5179 117.893C64.4353 117.893 64.3571 117.908 64.2835 117.94C64.2121 117.971 64.1496 118.013 64.096 118.067C64.0424 118.121 64 118.184 63.9688 118.258C63.9375 118.329 63.9219 118.406 63.9219 118.489L63.9219 118.613L63.51 118.546L63.51 118.512C63.51 118.374 63.5357 118.243 63.5871 118.121C63.6406 117.998 63.7132 117.891 63.8047 117.799C63.8962 117.708 64.0033 117.636 64.1261 117.585C64.2489 117.531 64.3795 117.504 64.5179 117.504L64.7589 117.504C64.8973 117.504 65.0279 117.531 65.1507 117.585C65.2734 117.636 65.3806 117.708 65.4721 117.799C65.5636 117.891 65.635 117.998 65.6864 118.121C65.74 118.243 65.7667 118.374 65.7667 118.512L65.7667 121L65.6295 121ZM65.3549 119.339L64.4844 119.339C64.4018 119.339 64.3237 119.355 64.25 119.386C64.1786 119.417 64.1161 119.461 64.0625 119.517C64.0089 119.57 63.9665 119.634 63.9353 119.708C63.904 119.779 63.8884 119.856 63.8884 119.939L63.8884 120.083C63.8884 120.165 63.904 120.243 63.9353 120.317C63.9665 120.388 64.0089 120.451 64.0625 120.504C64.1161 120.558 64.1786 120.6 64.25 120.632C64.3237 120.663 64.4018 120.679 64.4844 120.679L64.7589 120.679C64.8415 120.679 64.9185 120.663 64.99 120.632C65.0636 120.6 65.1272 120.558 65.1808 120.504C65.2344 120.451 65.2768 120.388 65.308 120.317C65.3393 120.243 65.3549 120.165 65.3549 120.083L65.3549 119.339Z" fill="#CEFDDE"/>
<path d="M69.5692 170.112C69.5692 169.949 69.6027 169.796 69.6696 169.653C69.7344 169.51 69.8225 169.385 69.9342 169.278C70.0435 169.171 70.1719 169.086 70.3192 169.023C70.4643 168.963 70.6183 168.933 70.7813 168.933L71.1261 168.933C71.2891 168.933 71.4442 168.963 71.5915 169.023C71.7366 169.086 71.865 169.171 71.9766 169.278C72.0859 169.385 72.1741 169.51 72.2411 169.653C72.3058 169.796 72.3382 169.949 72.3382 170.112L72.3382 170.302L71.9063 170.373L71.9063 170.112C71.9063 170.004 71.885 169.904 71.8426 169.81C71.798 169.719 71.7388 169.637 71.6652 169.566C71.5915 169.497 71.5067 169.442 71.4107 169.402C71.3125 169.362 71.2098 169.342 71.1027 169.342L70.8013 169.342C70.6942 169.342 70.5926 169.362 70.4967 169.402C70.4007 169.442 70.3158 169.497 70.2422 169.566C70.1685 169.637 70.1105 169.719 70.0681 169.81C70.0234 169.904 70.0011 170.004 70.0011 170.112L70.0011 170.256C70.0011 170.421 70.0335 170.558 70.0982 170.667C70.1629 170.777 70.2489 170.869 70.356 170.945C70.4632 171.023 70.5848 171.089 70.721 171.143C70.8549 171.196 70.9933 171.25 71.1362 171.304C71.279 171.357 71.4185 171.416 71.5547 171.481C71.6886 171.546 71.8092 171.626 71.9163 171.722C72.0234 171.82 72.1094 171.94 72.1741 172.08C72.2388 172.221 72.2712 172.394 72.2712 172.599L72.2712 172.69C72.2712 172.853 72.2411 173.006 72.1808 173.148C72.1183 173.291 72.0335 173.416 71.9263 173.523C71.8192 173.631 71.6942 173.714 71.5513 173.775C71.4063 173.837 71.2522 173.868 71.0893 173.868L70.7813 173.868C70.6183 173.868 70.4654 173.837 70.3225 173.775C70.1797 173.714 70.0547 173.631 69.9475 173.523C69.8404 173.416 69.7567 173.291 69.6964 173.148C69.6339 173.006 69.6027 172.853 69.6027 172.69L69.6027 172.566L70.0346 172.496L70.0346 172.69C70.0346 172.797 70.0547 172.896 70.0949 172.988C70.135 173.081 70.1897 173.163 70.2589 173.232C70.3281 173.301 70.4096 173.356 70.5033 173.396C70.5949 173.436 70.6942 173.456 70.8013 173.456L71.0692 173.456C71.1763 173.456 71.2768 173.436 71.3705 173.396C71.4621 173.356 71.5435 173.301 71.615 173.232C71.6842 173.163 71.7388 173.081 71.779 172.988C71.8192 172.896 71.8393 172.797 71.8393 172.69L71.8393 172.599C71.8393 172.445 71.8069 172.316 71.7422 172.211C71.6775 172.106 71.5915 172.016 71.4844 171.94C71.3772 171.866 71.2567 171.801 71.1228 171.746C70.9866 171.692 70.8471 171.636 70.7042 171.578C70.5614 171.522 70.423 171.46 70.2891 171.391C70.1529 171.324 70.0313 171.24 69.9241 171.14C69.817 171.041 69.731 170.921 69.6663 170.778C69.6016 170.635 69.5692 170.461 69.5692 170.256L69.5692 170.112ZM66.6228 169L66.8504 169.348C66.9442 169.221 67.0614 169.119 67.202 169.044C67.3426 168.97 67.4967 168.933 67.6641 168.933L67.7679 168.933C67.9063 168.933 68.0368 168.959 68.1596 169.01C68.2824 169.064 68.3895 169.136 68.481 169.228C68.5725 169.319 68.6451 169.426 68.6987 169.549C68.75 169.672 68.7757 169.802 68.7757 169.941L68.7757 172.429L68.3638 172.429L68.3638 169.917C68.3638 169.835 68.3482 169.757 68.317 169.683C68.2857 169.612 68.2433 169.549 68.1897 169.496C68.1362 169.442 68.0737 169.4 68.0022 169.368C67.9286 169.337 67.8504 169.321 67.7679 169.321L67.4933 169.321C67.4107 169.321 67.3337 169.337 67.2623 169.368C67.1886 169.4 67.125 169.442 67.0714 169.496C67.0179 169.549 66.9754 169.612 66.9442 169.683C66.9129 169.757 66.8973 169.835 66.8973 169.917L66.8973 172.429L66.4855 172.429L66.4855 169L66.6228 169ZM63.7835 169L63.7835 171.511C63.7835 171.594 63.7991 171.671 63.8304 171.742C63.8616 171.816 63.904 171.879 63.9576 171.933C64.0112 171.987 64.0748 172.029 64.1484 172.06C64.2199 172.092 64.2969 172.107 64.3795 172.107L64.654 172.107C64.7366 172.107 64.8147 172.092 64.8884 172.06C64.9598 172.029 65.0223 171.987 65.0759 171.933C65.1295 171.879 65.1719 171.816 65.2031 171.742C65.2344 171.671 65.25 171.594 65.25 171.511L65.25 169L65.6618 169L65.6618 172.429L65.5246 172.429L65.3002 172.08C65.2065 172.208 65.0893 172.308 64.9487 172.382C64.8058 172.458 64.6507 172.496 64.4833 172.496L64.3795 172.496C64.2411 172.496 64.1105 172.469 63.9877 172.415C63.865 172.364 63.7578 172.292 63.6663 172.201C63.5748 172.109 63.5033 172.002 63.452 171.879C63.3984 171.757 63.3717 171.626 63.3717 171.488L63.3717 169L63.7835 169ZM61.3694 173.41C61.4386 173.41 61.5033 173.396 61.5636 173.369C61.6217 173.345 61.673 173.31 61.7176 173.266C61.7623 173.221 61.798 173.169 61.8248 173.108C61.8493 173.048 61.8616 172.983 61.8616 172.914L61.8616 172.429L61.0614 172.429L61.0614 172.037L61.8616 172.037L61.8616 169L62.2734 169L62.2734 172.037L62.8929 172.037L62.8929 172.429L62.2734 172.429L62.2734 172.894C62.2734 173.019 62.25 173.136 62.2031 173.246C62.1563 173.357 62.0915 173.454 62.0089 173.537C61.9263 173.619 61.8304 173.684 61.721 173.731C61.6116 173.778 61.4944 173.801 61.3694 173.801L60.9911 173.801L60.9911 173.41L61.3694 173.41ZM60.442 169L60.442 173.801L60.0301 173.801L60.0301 169L60.442 169ZM56.8426 169.941C56.8426 169.802 56.8694 169.672 56.923 169.549C56.9743 169.426 57.0458 169.319 57.1373 169.228C57.2288 169.136 57.3359 169.064 57.4587 169.01C57.5815 168.959 57.7121 168.933 57.8504 168.933L58.125 168.933C58.2634 168.933 58.394 168.959 58.5167 169.01C58.6395 169.064 58.7467 169.136 58.8382 169.228C58.9297 169.319 59.0022 169.426 59.0558 169.549C59.1071 169.672 59.1328 169.802 59.1328 169.941L59.1328 171.488C59.1328 171.626 59.1071 171.757 59.0558 171.879C59.0022 172.002 58.9297 172.109 58.8382 172.201C58.7467 172.292 58.6395 172.364 58.5167 172.415C58.394 172.469 58.2634 172.496 58.125 172.496L57.8504 172.496C57.7121 172.496 57.5815 172.469 57.4587 172.415C57.3359 172.364 57.2288 172.292 57.1373 172.201C57.0458 172.109 56.9743 172.002 56.923 171.879C56.8694 171.757 56.8426 171.626 56.8426 171.488L56.8426 169.941ZM57.2545 171.511C57.2545 171.594 57.2701 171.671 57.3013 171.742C57.3326 171.816 57.375 171.879 57.4286 171.933C57.4821 171.987 57.5458 172.029 57.6194 172.06C57.6908 172.092 57.7679 172.107 57.8504 172.107L58.125 172.107C58.2076 172.107 58.2857 172.092 58.3594 172.06C58.4308 172.029 58.4933 171.987 58.5469 171.933C58.6004 171.879 58.6429 171.816 58.6741 171.742C58.7054 171.671 58.721 171.594 58.721 171.511L58.721 169.917C58.721 169.835 58.7054 169.757 58.6741 169.683C58.6429 169.612 58.6004 169.549 58.5469 169.496C58.4933 169.442 58.4308 169.4 58.3594 169.368C58.2857 169.337 58.2076 169.321 58.125 169.321L57.8504 169.321C57.7679 169.321 57.6908 169.337 57.6194 169.368C57.5458 169.4 57.4821 169.442 57.4286 169.496C57.375 169.549 57.3326 169.612 57.3013 169.683C57.2701 169.757 57.2545 169.835 57.2545 169.917L57.2545 171.511ZM53.1328 169L53.3571 169L54.1607 171.585L54.1741 171.762L54.1875 171.585L54.9911 169L55.2188 169L56.3638 172.429L55.9453 172.429L55.1283 169.837L55.115 169.66L55.1016 169.837L54.298 172.429L54.0502 172.429L53.25 169.837L53.2366 169.66L53.2232 169.837L52.4062 172.429L51.9877 172.429L53.1328 169ZM49.2154 169.941C49.2154 169.802 49.2422 169.672 49.2958 169.549C49.3471 169.426 49.4185 169.319 49.51 169.228C49.6016 169.136 49.7087 169.064 49.8315 169.01C49.9542 168.959 50.0848 168.933 50.2232 168.933L50.4978 168.933C50.6362 168.933 50.7667 168.959 50.8895 169.01C51.0123 169.064 51.1194 169.136 51.2109 169.228C51.3025 169.319 51.375 169.426 51.4286 169.549C51.4799 169.672 51.5056 169.802 51.5056 169.941L51.5056 171.488C51.5056 171.626 51.4799 171.757 51.4286 171.879C51.375 172.002 51.3025 172.109 51.2109 172.201C51.1194 172.292 51.0123 172.364 50.8895 172.415C50.7667 172.469 50.6362 172.496 50.4978 172.496L50.2232 172.496C50.0848 172.496 49.9542 172.469 49.8315 172.415C49.7087 172.364 49.6016 172.292 49.51 172.201C49.4185 172.109 49.3471 172.002 49.2958 171.879C49.2422 171.757 49.2154 171.626 49.2154 171.488L49.2154 170.681L51.0937 170.681L51.0937 169.917C51.0937 169.835 51.0781 169.757 51.0469 169.683C51.0156 169.612 50.9732 169.549 50.9196 169.496C50.8661 169.442 50.8036 169.4 50.7321 169.368C50.6585 169.337 50.5804 169.321 50.4978 169.321L50.2232 169.321C50.1406 169.321 50.0636 169.337 49.9922 169.368C49.9185 169.4 49.8549 169.442 49.8013 169.496C49.7478 169.549 49.7054 169.612 49.6741 169.683C49.6429 169.757 49.6272 169.835 49.6272 169.917L49.6272 170.145L49.2154 170.078L49.2154 169.941ZM49.6272 171.511C49.6272 171.594 49.6429 171.671 49.6741 171.742C49.7054 171.816 49.7478 171.879 49.8013 171.933C49.8549 171.987 49.9185 172.029 49.9922 172.06C50.0636 172.092 50.1406 172.107 50.2232 172.107L50.4978 172.107C50.5804 172.107 50.6585 172.092 50.7321 172.06C50.8036 172.029 50.8661 171.987 50.9196 171.933C50.9732 171.879 51.0156 171.816 51.0469 171.742C51.0781 171.671 51.0937 171.594 51.0937 171.511L51.0937 171.002L49.6272 171.002L49.6272 171.511ZM47.3839 172.037C47.4665 172.037 47.5446 172.021 47.6183 171.99C47.6897 171.959 47.7522 171.916 47.8058 171.863C47.8594 171.809 47.9018 171.746 47.933 171.672C47.9643 171.6 47.9799 171.523 47.9799 171.441L47.9799 169L48.3917 169L48.3917 172.429L48.2545 172.429L48.0301 172.08C47.9364 172.208 47.8192 172.308 47.6786 172.382C47.5357 172.458 47.3806 172.496 47.2132 172.496L46.9721 172.496L46.9721 172.037L47.3839 172.037Z" fill="#CEFDDE"/>
<path d="M86.2734 141.251C86.1105 141.251 85.9576 141.22 85.8147 141.157C85.6719 141.097 85.5469 141.013 85.4397 140.906C85.3326 140.799 85.2478 140.673 85.1853 140.528C85.125 140.385 85.0949 140.232 85.0949 140.069V138.981H83.25V138.549H88.0513V140.069C88.0513 140.232 88.0201 140.385 87.9576 140.528C87.8973 140.673 87.8136 140.799 87.7065 140.906C87.5993 141.013 87.4732 141.097 87.3281 141.157C87.1853 141.22 87.0324 141.251 86.8694 141.251H86.2734ZM86.8694 140.819C86.9766 140.819 87.0759 140.799 87.1674 140.759C87.2612 140.719 87.3426 140.663 87.4118 140.592C87.4833 140.522 87.5391 140.441 87.5792 140.347C87.6194 140.256 87.6395 140.156 87.6395 140.049V138.981H85.5067V140.049C85.5067 140.156 85.5268 140.256 85.567 140.347C85.6071 140.441 85.6618 140.522 85.731 140.592C85.8002 140.663 85.8806 140.719 85.9721 140.759C86.0658 140.799 86.1663 140.819 86.2734 140.819H86.8694ZM83.25 144.094L83.5915 143.866C83.4688 143.772 83.3694 143.655 83.2935 143.515C83.2199 143.374 83.183 143.22 83.183 143.052V142.949C83.183 142.81 83.2087 142.68 83.26 142.557C83.3136 142.434 83.3862 142.327 83.4777 142.235C83.5692 142.144 83.6763 142.071 83.7991 142.018C83.9219 141.967 84.0525 141.941 84.1908 141.941H84.2243C84.3627 141.941 84.4933 141.967 84.6161 142.018C84.7388 142.071 84.846 142.144 84.9375 142.235C85.029 142.327 85.1004 142.434 85.1518 142.557C85.2054 142.68 85.2321 142.81 85.2321 142.949V143.819H85.7612C85.8438 143.819 85.9208 143.804 85.9922 143.772C86.0658 143.741 86.1295 143.699 86.183 143.645C86.2366 143.592 86.279 143.528 86.3103 143.454C86.3415 143.383 86.3571 143.306 86.3571 143.223V142.982C86.3571 142.9 86.3415 142.821 86.3103 142.748C86.279 142.676 86.2366 142.614 86.183 142.56C86.1295 142.507 86.0658 142.464 85.9922 142.433C85.9208 142.402 85.8438 142.386 85.7612 142.386H85.6373L85.7042 141.974H85.7377C85.8761 141.974 86.0067 142 86.1295 142.051C86.2522 142.105 86.3594 142.177 86.4509 142.269C86.5424 142.36 86.6138 142.468 86.6652 142.59C86.7188 142.713 86.7455 142.844 86.7455 142.982V143.223C86.7455 143.362 86.7188 143.492 86.6652 143.615C86.6138 143.738 86.5424 143.845 86.4509 143.936C86.3594 144.028 86.2522 144.099 86.1295 144.151C86.0067 144.204 85.8761 144.231 85.7377 144.231H83.25V144.094ZM84.9107 143.819V142.949C84.9107 142.866 84.8951 142.788 84.8638 142.714C84.8326 142.643 84.7891 142.58 84.7333 142.527C84.6797 142.473 84.6161 142.431 84.5424 142.4C84.471 142.368 84.394 142.353 84.3114 142.353H84.1674C84.0848 142.353 84.0067 142.368 83.933 142.4C83.8616 142.431 83.7991 142.473 83.7455 142.527C83.692 142.58 83.6496 142.643 83.6183 142.714C83.5871 142.788 83.5714 142.866 83.5714 142.949V143.223C83.5714 143.306 83.5871 143.383 83.6183 143.454C83.6496 143.528 83.692 143.592 83.7455 143.645C83.7991 143.699 83.8616 143.741 83.933 143.772C84.0067 143.804 84.0848 143.819 84.1674 143.819H84.9107ZM84.1205 147.412C83.9821 147.412 83.8549 147.384 83.7388 147.328C83.625 147.272 83.5268 147.196 83.4442 147.1C83.3616 147.004 83.2969 146.893 83.25 146.766C83.2054 146.641 83.183 146.509 83.183 146.371V146.096C83.183 145.958 83.2087 145.825 83.26 145.698C83.3136 145.573 83.3862 145.462 83.4777 145.366C83.5692 145.272 83.6763 145.196 83.7991 145.138C83.9219 145.083 84.0525 145.055 84.1908 145.055H84.3281L84.3951 145.467H84.1674C84.0848 145.467 84.0067 145.483 83.933 145.517C83.8616 145.552 83.7991 145.599 83.7455 145.657C83.692 145.715 83.6496 145.782 83.6183 145.858C83.5871 145.934 83.5714 146.013 83.5714 146.096V146.371C83.5714 146.453 83.5837 146.532 83.6083 146.608C83.6328 146.684 83.6674 146.751 83.7121 146.809C83.7589 146.869 83.8147 146.916 83.8795 146.95C83.9442 146.985 84.0179 147.003 84.1004 147.003C84.2232 147.003 84.3237 146.977 84.4018 146.923C84.4799 146.869 84.5446 146.798 84.596 146.709C84.6496 146.622 84.6931 146.521 84.7266 146.407C84.7623 146.296 84.7969 146.181 84.8304 146.063C84.8661 145.944 84.9063 145.828 84.9509 145.714C84.9955 145.603 85.0536 145.502 85.125 145.413C85.1987 145.326 85.2902 145.256 85.3996 145.202C85.5089 145.148 85.6451 145.122 85.808 145.122C85.9464 145.122 86.0725 145.148 86.1864 145.202C86.3025 145.256 86.4018 145.328 86.4844 145.42C86.567 145.511 86.6306 145.617 86.6752 145.738C86.7221 145.86 86.7455 145.991 86.7455 146.129V146.371C86.7455 146.509 86.7188 146.64 86.6652 146.762C86.6138 146.885 86.5424 146.992 86.4509 147.084C86.3594 147.175 86.2522 147.247 86.1295 147.298C86.0067 147.352 85.8761 147.378 85.7377 147.378H85.7243L85.6574 146.967H85.7612C85.8438 146.967 85.9208 146.951 85.9922 146.92C86.0658 146.888 86.1295 146.846 86.183 146.792C86.2366 146.739 86.279 146.675 86.3103 146.602C86.3415 146.53 86.3571 146.453 86.3571 146.371V146.129C86.3571 146.047 86.3449 145.969 86.3203 145.895C86.2958 145.824 86.26 145.761 86.2132 145.708C86.1685 145.654 86.1138 145.612 86.0491 145.58C85.9844 145.549 85.9107 145.533 85.8281 145.533C85.7098 145.533 85.6127 145.56 85.5368 145.614C85.4632 145.667 85.4007 145.738 85.3493 145.825C85.298 145.914 85.2545 146.015 85.2188 146.126C85.1853 146.24 85.1496 146.355 85.1116 146.471C85.0759 146.589 85.0346 146.704 84.9877 146.816C84.9408 146.93 84.8806 147.03 84.8069 147.117C84.7333 147.206 84.6406 147.278 84.529 147.331C84.4196 147.385 84.2835 147.412 84.1205 147.412ZM83.25 149.451C83.25 149.326 83.2734 149.208 83.3203 149.096C83.3672 148.987 83.4319 148.891 83.5145 148.808C83.5971 148.728 83.6931 148.663 83.8025 148.614C83.9118 148.567 84.029 148.544 84.154 148.544H86.2868V147.927H86.6786V148.544H87.5022L87.5692 148.955H86.6786V149.826H86.2868V148.955H84.1339C84.0647 148.955 84 148.968 83.9397 148.992C83.8817 149.019 83.8304 149.055 83.7857 149.099C83.7411 149.144 83.7054 149.196 83.6786 149.257C83.654 149.317 83.6417 149.382 83.6417 149.451V149.826H83.25V149.451Z" fill="#CEFDDE"/>
</g>
<rect x="27.415" y="113.165" width="63.67" height="63.67" stroke="#66FF99" stroke-opacity="0.7" stroke-width="0.33"/>
<g clip-path="url(#clip5_135_4616)">
<rect x="97.75" y="113" width="64" height="64" fill="black" fill-opacity="0.5"/>
</g>
<rect x="97.915" y="113.165" width="63.67" height="63.67" stroke="#4EBD7B" stroke-width="0.33" stroke-dasharray="0.66 0.66"/>
<path d="M131.441 65.1519C131.426 64.8761 131.191 64.6648 130.915 64.6799L126.422 64.9261C126.146 64.9412 125.935 65.1769 125.95 65.4527C125.965 65.7284 126.2 65.9397 126.476 65.9246L130.47 65.7058L130.689 69.6998C130.704 69.9755 130.94 70.1868 131.216 70.1717C131.491 70.1566 131.703 69.9208 131.688 69.6451L131.441 65.1519ZM60.6961 144.316L131.315 65.5129L130.57 64.8455L59.9514 143.649L60.6961 144.316Z" fill="#FFD666"/>
</g>
<defs>
<filter id="filter0_d_135_4616" x="75.9639" y="10.5651" width="36.4497" height="7.552" filterUnits="userSpaceOnUse" color-interpolation-filters="sRGB">
<feFlood flood-opacity="0" result="BackgroundImageFix"/>
<feColorMatrix in="SourceAlpha" type="matrix" values="0 0 0 0 0 0 0 0 0 0 0 0 0 0 0 0 0 0 127 0" result="hardAlpha"/>
<feOffset dy="-0.5"/>
<feGaussianBlur stdDeviation="0.25"/>
<feComposite in2="hardAlpha" operator="out"/>
<feColorMatrix type="matrix" values="0 0 0 0 0 0 0 0 0 0 0 0 0 0 0 0 0 0 0.6 0"/>
<feBlend mode="normal" in2="BackgroundImageFix" result="effect1_dropShadow_135_4616"/>
<feBlend mode="normal" in="SourceGraphic" in2="effect1_dropShadow_135_4616" result="shape"/>
</filter>
<radialGradient id="paint0_radial_135_4616" cx="0" cy="0" r="1" gradientUnits="userSpaceOnUse" gradientTransform="translate(94.5 99.5) rotate(-90) scale(94.5 94.5)">
<stop stop-opacity="0"/>
<stop offset="1"/>
</radialGradient>
<linearGradient id="paint1_linear_135_4616" x1="94.5" y1="5.00001" x2="94.5" y2="30" gradientUnits="userSpaceOnUse">
<stop stop-opacity="0.61"/>
<stop offset="1" stop-opacity="0.89"/>
</linearGradient>
<linearGradient id="paint2_linear_135_4616" x1="189" y1="99.5001" x2="164" y2="99.5001" gradientUnits="userSpaceOnUse">
<stop stop-opacity="0.61"/>
<stop offset="1" stop-opacity="0.89"/>
</linearGradient>
<linearGradient id="paint3_linear_135_4616" x1="3.03794e-06" y1="99.5" x2="25" y2="99.5" gradientUnits="userSpaceOnUse">
<stop stop-opacity="0.61"/>
<stop offset="1" stop-opacity="0.89"/>
</linearGradient>
<linearGradient id="paint4_linear_135_4616" x1="164" y1="30.0001" x2="96.5" y2="100" gradientUnits="userSpaceOnUse">
<stop stop-opacity="0.59"/>
<stop offset="1" stop-opacity="0.13"/>
</linearGradient>
<linearGradient id="paint5_linear_135_4616" x1="25" y1="30.0001" x2="95" y2="97.5001" gradientUnits="userSpaceOnUse">
<stop stop-opacity="0.59"/>
<stop offset="1" stop-opacity="0.13"/>
</linearGradient>
<linearGradient id="paint6_linear_135_4616" x1="7.86805e-07" y1="23" x2="36" y2="23" gradientUnits="userSpaceOnUse">
<stop stop-opacity="0.12"/>
<stop offset="1" stop-color="#0B0A0A"/>
</linearGradient>
<linearGradient id="paint7_linear_135_4616" x1="171" y1="5" x2="171" y2="41" gradientUnits="userSpaceOnUse">
<stop stop-opacity="0.12"/>
<stop offset="1" stop-color="#0B0A0A"/>
</linearGradient>
<clipPath id="clip0_135_4616">
<rect width="189" height="182" fill="white"/>
</clipPath>
<clipPath id="clip1_135_4616">
<rect width="189" height="94" fill="white" transform="matrix(-1 0 0 -1 189 99)"/>
</clipPath>
<clipPath id="clip2_135_4616">
<rect width="189" height="189" fill="white" transform="matrix(-1 0 0 -1 189 194)"/>
</clipPath>
<clipPath id="clip3_135_4616">
<rect width="64" height="64" fill="white" transform="matrix(-1 0 0 -1 92 97.0001)"/>
</clipPath>
<clipPath id="clip4_135_4616">
<rect x="27.25" y="113" width="64" height="64" fill="white"/>
</clipPath>
<clipPath id="clip5_135_4616">
<rect x="97.75" y="113" width="64" height="64" fill="white"/>
</clipPath>
</defs>
</svg>
