<svg width="221" height="222" viewBox="0 0 221 222" fill="none" xmlns="http://www.w3.org/2000/svg">
<path fill-rule="evenodd" clip-rule="evenodd" d="M85.4586 0.456421C67.0185 0.456421 52.0699 15.963 52.0699 35.0914C52.0699 44.3868 55.6 52.827 61.3453 59.048C61.6226 59.3483 61.8854 59.6788 61.9652 60.0796C62.1149 60.8305 61.8987 61.6399 61.3166 62.2219C60.7375 62.8011 59.9332 63.018 59.1854 62.8727C58.7796 62.7938 58.4452 62.5277 58.1419 62.2468C52.0194 56.5776 43.7253 53.0962 34.5929 53.0962C15.7545 53.0962 0.48291 67.9102 0.48291 86.1841C0.48291 94.4118 3.57873 101.938 8.70206 107.727C10.329 109.565 10.329 112.435 8.70206 114.273C3.57873 120.062 0.48291 127.588 0.48291 135.816C0.48291 154.09 15.7545 168.904 34.5929 168.904C43.7214 168.904 52.0124 165.425 58.1341 159.76C58.4211 159.495 58.7353 159.242 59.1168 159.156C59.8837 158.984 60.7197 159.196 61.3167 159.793C61.8791 160.355 62.0999 161.13 61.9792 161.859C61.9085 162.286 61.6312 162.639 61.3376 162.957C55.5968 169.177 52.0699 177.614 52.0699 186.905C52.0699 206.034 67.0185 221.54 85.4586 221.54C93.7711 221.54 101.374 218.389 107.218 213.176C109.057 211.535 111.943 211.535 113.782 213.176C119.626 218.389 127.229 221.54 135.542 221.54C153.982 221.54 168.93 206.034 168.93 186.905C168.93 177.603 165.395 169.158 159.643 162.935C159.31 162.575 158.997 162.167 158.954 161.678C158.895 161.004 159.124 160.309 159.64 159.793C160.291 159.141 161.227 158.948 162.048 159.213C162.355 159.313 162.61 159.524 162.847 159.744C168.971 165.418 177.269 168.904 186.407 168.904C205.245 168.904 220.517 154.09 220.517 135.816C220.517 127.588 217.421 120.062 212.298 114.273C210.671 112.435 210.671 109.565 212.298 107.727C217.421 101.938 220.517 94.4118 220.517 86.1841C220.517 67.9102 205.245 53.0962 186.407 53.0962C177.265 53.0962 168.963 56.5848 162.839 62.2643C162.582 62.5024 162.305 62.7298 161.968 62.8256C161.167 63.0536 160.27 62.8523 159.64 62.2219C159.106 61.6883 158.88 60.9636 158.961 60.268C159.016 59.8018 159.316 59.4147 159.634 59.0702C165.392 52.847 168.93 44.3979 168.93 35.0914C168.93 15.963 153.982 0.456421 135.542 0.456421C127.229 0.456421 119.626 3.60747 113.782 8.82089C111.943 10.4617 109.057 10.4617 107.218 8.82089C101.374 3.60747 93.7711 0.456421 85.4586 0.456421Z" fill="#FF0000"/>
</svg>
